%TF.GenerationSoftware,KiCad,Pcbnew,9.0.0*%
%TF.CreationDate,2025-04-07T15:09:55+02:00*%
%TF.ProjectId,BRAIN,42524149-4e2e-46b6-9963-61645f706362,rev?*%
%TF.SameCoordinates,Original*%
%TF.FileFunction,Copper,L4,Bot*%
%TF.FilePolarity,Positive*%
%FSLAX46Y46*%
G04 Gerber Fmt 4.6, Leading zero omitted, Abs format (unit mm)*
G04 Created by KiCad (PCBNEW 9.0.0) date 2025-04-07 15:09:55*
%MOMM*%
%LPD*%
G01*
G04 APERTURE LIST*
G04 Aperture macros list*
%AMRoundRect*
0 Rectangle with rounded corners*
0 $1 Rounding radius*
0 $2 $3 $4 $5 $6 $7 $8 $9 X,Y pos of 4 corners*
0 Add a 4 corners polygon primitive as box body*
4,1,4,$2,$3,$4,$5,$6,$7,$8,$9,$2,$3,0*
0 Add four circle primitives for the rounded corners*
1,1,$1+$1,$2,$3*
1,1,$1+$1,$4,$5*
1,1,$1+$1,$6,$7*
1,1,$1+$1,$8,$9*
0 Add four rect primitives between the rounded corners*
20,1,$1+$1,$2,$3,$4,$5,0*
20,1,$1+$1,$4,$5,$6,$7,0*
20,1,$1+$1,$6,$7,$8,$9,0*
20,1,$1+$1,$8,$9,$2,$3,0*%
G04 Aperture macros list end*
%TA.AperFunction,HeatsinkPad*%
%ADD10O,1.000000X2.100000*%
%TD*%
%TA.AperFunction,HeatsinkPad*%
%ADD11O,1.000000X1.800000*%
%TD*%
%TA.AperFunction,ComponentPad*%
%ADD12R,1.700000X1.700000*%
%TD*%
%TA.AperFunction,ComponentPad*%
%ADD13O,1.700000X1.700000*%
%TD*%
%TA.AperFunction,ComponentPad*%
%ADD14R,1.238000X1.238000*%
%TD*%
%TA.AperFunction,ComponentPad*%
%ADD15C,1.238000*%
%TD*%
%TA.AperFunction,ComponentPad*%
%ADD16RoundRect,0.250000X-0.600000X-0.750000X0.600000X-0.750000X0.600000X0.750000X-0.600000X0.750000X0*%
%TD*%
%TA.AperFunction,ComponentPad*%
%ADD17O,1.700000X2.000000*%
%TD*%
%TA.AperFunction,SMDPad,CuDef*%
%ADD18R,3.000000X6.000000*%
%TD*%
%TA.AperFunction,SMDPad,CuDef*%
%ADD19RoundRect,0.150000X0.150000X-0.587500X0.150000X0.587500X-0.150000X0.587500X-0.150000X-0.587500X0*%
%TD*%
%TA.AperFunction,SMDPad,CuDef*%
%ADD20RoundRect,0.250000X-0.350000X-0.450000X0.350000X-0.450000X0.350000X0.450000X-0.350000X0.450000X0*%
%TD*%
%TA.AperFunction,SMDPad,CuDef*%
%ADD21RoundRect,0.250000X0.350000X0.450000X-0.350000X0.450000X-0.350000X-0.450000X0.350000X-0.450000X0*%
%TD*%
%TA.AperFunction,ViaPad*%
%ADD22C,0.600000*%
%TD*%
%TA.AperFunction,Conductor*%
%ADD23C,0.200000*%
%TD*%
%TA.AperFunction,Conductor*%
%ADD24C,0.800000*%
%TD*%
%TA.AperFunction,Conductor*%
%ADD25C,0.400000*%
%TD*%
G04 APERTURE END LIST*
D10*
%TO.P,J1,S1,SHIELD*%
%TO.N,GND*%
X103500000Y-93220000D03*
D11*
X103500000Y-97400000D03*
D10*
X112140000Y-93220000D03*
D11*
X112140000Y-97400000D03*
%TD*%
D12*
%TO.P,J12,1,Pin_1*%
%TO.N,GND*%
X175210000Y-61460000D03*
D13*
%TO.P,J12,2,Pin_2*%
%TO.N,I2C_CLK*%
X177750000Y-61460000D03*
%TO.P,J12,3,Pin_3*%
%TO.N,I2C_DATA*%
X175210000Y-64000000D03*
%TO.P,J12,4,Pin_4*%
%TO.N,+3V3*%
X177750000Y-64000000D03*
%TD*%
D12*
%TO.P,J16,1,Pin_1*%
%TO.N,GND*%
X102110000Y-60630000D03*
D13*
%TO.P,J16,2,Pin_2*%
%TO.N,ESP_FREE1*%
X104650000Y-60630000D03*
%TO.P,J16,3,Pin_3*%
%TO.N,ESP_FREE2*%
X102110000Y-63170000D03*
%TO.P,J16,4,Pin_4*%
%TO.N,ESP_FREE3*%
X104650000Y-63170000D03*
%TO.P,J16,5,Pin_5*%
%TO.N,ESP_FREE4*%
X102110000Y-65710000D03*
%TO.P,J16,6,Pin_6*%
%TO.N,ESP_FREE5*%
X104650000Y-65710000D03*
%TO.P,J16,7,Pin_7*%
%TO.N,ESP_FREE6*%
X102110000Y-68250000D03*
%TO.P,J16,8,Pin_8*%
%TO.N,+3V3*%
X104650000Y-68250000D03*
%TD*%
D14*
%TO.P,J5,1,Pin_1*%
%TO.N,GND*%
X154250000Y-56250000D03*
D15*
%TO.P,J5,2,Pin_2*%
%TO.N,MUX4*%
X155750000Y-56250000D03*
%TO.P,J5,3,Pin_3*%
%TO.N,MUX3*%
X157250000Y-56250000D03*
%TO.P,J5,4,Pin_4*%
%TO.N,MUX2*%
X158750000Y-56250000D03*
%TO.P,J5,5,Pin_5*%
%TO.N,MUX1*%
X160250000Y-56250000D03*
%TO.P,J5,6,Pin_6*%
%TO.N,SIG4*%
X161750000Y-56250000D03*
%TO.P,J5,7,Pin_7*%
%TO.N,3V3_OUT*%
X163250000Y-56250000D03*
%TD*%
D12*
%TO.P,J13,1,Pin_1*%
%TO.N,ESP_TX*%
X133250000Y-62050000D03*
D13*
%TO.P,J13,2,Pin_2*%
%TO.N,ESP_RX*%
X133250000Y-59510000D03*
%TD*%
D14*
%TO.P,J7,1,Pin_1*%
%TO.N,GND*%
X176000000Y-57000000D03*
D15*
%TO.P,J7,2,Pin_2*%
%TO.N,MUX4*%
X174500000Y-57000000D03*
%TO.P,J7,3,Pin_3*%
%TO.N,MUX3*%
X173000000Y-57000000D03*
%TO.P,J7,4,Pin_4*%
%TO.N,MUX2*%
X171500000Y-57000000D03*
%TO.P,J7,5,Pin_5*%
%TO.N,MUX1*%
X170000000Y-57000000D03*
%TO.P,J7,6,Pin_6*%
%TO.N,SIG1*%
X168500000Y-57000000D03*
%TO.P,J7,7,Pin_7*%
%TO.N,3V3_OUT*%
X167000000Y-57000000D03*
%TD*%
D12*
%TO.P,J15,1,Pin_1*%
%TO.N,GND*%
X107240000Y-72100000D03*
D13*
%TO.P,J15,2,Pin_2*%
%TO.N,ESP_SPI_SCK*%
X107240000Y-74640000D03*
%TO.P,J15,3,Pin_3*%
%TO.N,ESP_SPI_MOSI*%
X104700000Y-72100000D03*
%TO.P,J15,4,Pin_4*%
%TO.N,ESP_SPI_MISO*%
X104700000Y-74640000D03*
%TO.P,J15,5,Pin_5*%
%TO.N,ESP_SPI_CS*%
X102160000Y-72100000D03*
%TO.P,J15,6,Pin_6*%
%TO.N,+3V3*%
X102160000Y-74640000D03*
%TD*%
D16*
%TO.P,J10,1,Pin_1*%
%TO.N,GND*%
X121150000Y-97150000D03*
D17*
%TO.P,J10,2,Pin_2*%
%TO.N,Net-(D7-A1)*%
X123650000Y-97150000D03*
%TD*%
D14*
%TO.P,J6,1,Pin_1*%
%TO.N,GND*%
X176000000Y-52250000D03*
D15*
%TO.P,J6,2,Pin_2*%
%TO.N,MUX4*%
X174500000Y-52250000D03*
%TO.P,J6,3,Pin_3*%
%TO.N,MUX3*%
X173000000Y-52250000D03*
%TO.P,J6,4,Pin_4*%
%TO.N,MUX2*%
X171500000Y-52250000D03*
%TO.P,J6,5,Pin_5*%
%TO.N,MUX1*%
X170000000Y-52250000D03*
%TO.P,J6,6,Pin_6*%
%TO.N,SIG2*%
X168500000Y-52250000D03*
%TO.P,J6,7,Pin_7*%
%TO.N,3V3_OUT*%
X167000000Y-52250000D03*
%TD*%
D12*
%TO.P,J8,1,Pin_1*%
%TO.N,MUX4*%
X152050000Y-45080000D03*
D13*
%TO.P,J8,2,Pin_2*%
X152050000Y-47620000D03*
%TO.P,J8,3,Pin_3*%
%TO.N,MUX3*%
X154590000Y-45080000D03*
%TO.P,J8,4,Pin_4*%
X154590000Y-47620000D03*
%TO.P,J8,5,Pin_5*%
%TO.N,MUX2*%
X157130000Y-45080000D03*
%TO.P,J8,6,Pin_6*%
X157130000Y-47620000D03*
%TO.P,J8,7,Pin_7*%
%TO.N,MUX1*%
X159670000Y-45080000D03*
%TO.P,J8,8,Pin_8*%
X159670000Y-47620000D03*
%TO.P,J8,9,Pin_9*%
%TO.N,SIG3*%
X162210000Y-45080000D03*
%TO.P,J8,10,Pin_10*%
%TO.N,SIG4*%
X162210000Y-47620000D03*
%TO.P,J8,11,Pin_11*%
%TO.N,GND*%
X164750000Y-45080000D03*
%TO.P,J8,12,Pin_12*%
%TO.N,3V3_OUT*%
X164750000Y-47620000D03*
%TO.P,J8,13,Pin_13*%
%TO.N,SIG2*%
X167290000Y-45080000D03*
%TO.P,J8,14,Pin_14*%
%TO.N,SIG1*%
X167290000Y-47620000D03*
%TO.P,J8,15,Pin_15*%
%TO.N,MUX1*%
X169830000Y-45080000D03*
%TO.P,J8,16,Pin_16*%
X169830000Y-47620000D03*
%TO.P,J8,17,Pin_17*%
%TO.N,MUX2*%
X172370000Y-45080000D03*
%TO.P,J8,18,Pin_18*%
X172370000Y-47620000D03*
%TO.P,J8,19,Pin_19*%
%TO.N,MUX3*%
X174910000Y-45080000D03*
%TO.P,J8,20,Pin_20*%
X174910000Y-47620000D03*
%TO.P,J8,21,Pin_21*%
%TO.N,MUX4*%
X177450000Y-45080000D03*
%TO.P,J8,22,Pin_22*%
X177450000Y-47620000D03*
%TD*%
D14*
%TO.P,J3,1,Pin_1*%
%TO.N,GND*%
X154250000Y-51500000D03*
D15*
%TO.P,J3,2,Pin_2*%
%TO.N,MUX4*%
X155750000Y-51500000D03*
%TO.P,J3,3,Pin_3*%
%TO.N,MUX3*%
X157250000Y-51500000D03*
%TO.P,J3,4,Pin_4*%
%TO.N,MUX2*%
X158750000Y-51500000D03*
%TO.P,J3,5,Pin_5*%
%TO.N,MUX1*%
X160250000Y-51500000D03*
%TO.P,J3,6,Pin_6*%
%TO.N,SIG3*%
X161750000Y-51500000D03*
%TO.P,J3,7,Pin_7*%
%TO.N,3V3_OUT*%
X163250000Y-51500000D03*
%TD*%
D12*
%TO.P,J9,1,Pin_1*%
%TO.N,GND*%
X131360000Y-98000000D03*
D13*
%TO.P,J9,2,Pin_2*%
%TO.N,3V3_OUT*%
X133900000Y-98000000D03*
%TD*%
D12*
%TO.P,J18,1,Pin_1*%
%TO.N,GND*%
X176700000Y-92100000D03*
D13*
%TO.P,J18,2,Pin_2*%
%TO.N,BUZZER_PWM*%
X174160000Y-92100000D03*
%TO.P,J18,3,Pin_3*%
%TO.N,CONN_FREE1*%
X171620000Y-92100000D03*
%TO.P,J18,4,Pin_4*%
%TO.N,CONN_FREE2*%
X169080000Y-92100000D03*
%TD*%
D12*
%TO.P,J14,1,Pin_1*%
%TO.N,GND*%
X178000000Y-68130000D03*
D13*
%TO.P,J14,2,Pin_2*%
%TO.N,UART_OUT_RX*%
X178000000Y-70670000D03*
%TO.P,J14,3,Pin_3*%
%TO.N,UART_OUT_TX*%
X178000000Y-73210000D03*
%TO.P,J14,4,Pin_4*%
%TO.N,+3V3*%
X178000000Y-75750000D03*
%TD*%
D18*
%TO.P,LS1,1*%
%TO.N,+3V3*%
X141000000Y-64250000D03*
%TO.P,LS1,2*%
%TO.N,Net-(Q2-C)*%
X153000000Y-64250000D03*
%TD*%
D19*
%TO.P,Q2,1,B*%
%TO.N,Net-(Q2-B)*%
X158200000Y-63875000D03*
%TO.P,Q2,2,E*%
%TO.N,GND*%
X156300000Y-63875000D03*
%TO.P,Q2,3,C*%
%TO.N,Net-(Q2-C)*%
X157250000Y-62000000D03*
%TD*%
D20*
%TO.P,R7,1*%
%TO.N,BUZZER_PWM*%
X156250000Y-66250000D03*
%TO.P,R7,2*%
%TO.N,Net-(Q2-B)*%
X158250000Y-66250000D03*
%TD*%
D12*
%TO.P,J11,1,Pin_1*%
%TO.N,TOUCH_IRQ*%
X143020000Y-97900000D03*
D13*
%TO.P,J11,2,Pin_2*%
%TO.N,TOUCH_DO_MISO*%
X145560000Y-97900000D03*
%TO.P,J11,3,Pin_3*%
%TO.N,TOUCH_DIN_MOSI*%
X148100000Y-97900000D03*
%TO.P,J11,4,Pin_4*%
%TO.N,TOUCH_CS*%
X150640000Y-97900000D03*
%TO.P,J11,5,Pin_5*%
%TO.N,TOUCH_CLK*%
X153180000Y-97900000D03*
%TO.P,J11,6,Pin_6*%
%TO.N,TFT_SPI_MISO*%
X155720000Y-97900000D03*
%TO.P,J11,7,Pin_7*%
%TO.N,+3V3*%
X158260000Y-97900000D03*
%TO.P,J11,8,Pin_8*%
%TO.N,TFT_SPI_SCK*%
X160800000Y-97900000D03*
%TO.P,J11,9,Pin_9*%
%TO.N,TFT_SPI_MOSI*%
X163340000Y-97900000D03*
%TO.P,J11,10,Pin_10*%
%TO.N,TFT_DC*%
X165880000Y-97900000D03*
%TO.P,J11,11,Pin_11*%
%TO.N,TFT_RESET*%
X168420000Y-97900000D03*
%TO.P,J11,12,Pin_12*%
%TO.N,TFT_SPI_CS*%
X170960000Y-97900000D03*
%TO.P,J11,13,Pin_13*%
%TO.N,GND*%
X173500000Y-97900000D03*
%TO.P,J11,14,Pin_14*%
%TO.N,+3V3*%
X176040000Y-97900000D03*
%TD*%
D21*
%TO.P,R15,1*%
%TO.N,Net-(Q2-C)*%
X147500000Y-71750000D03*
%TO.P,R15,2*%
%TO.N,+3V3*%
X145500000Y-71750000D03*
%TD*%
D22*
%TO.N,GND*%
X139000000Y-57000000D03*
X128850000Y-73850000D03*
X150500000Y-58720000D03*
X152530000Y-54150000D03*
X108500000Y-66480000D03*
X165125000Y-82725000D03*
X133500000Y-57000000D03*
X113275000Y-98050000D03*
X119125000Y-54750000D03*
X118500000Y-51700000D03*
X103875000Y-91525000D03*
X128900000Y-93700000D03*
X121925000Y-60750000D03*
X140000000Y-57000000D03*
X119600000Y-74600000D03*
X118100000Y-58475000D03*
X173750000Y-96250000D03*
X121000000Y-54725000D03*
X121125000Y-51675000D03*
X147400000Y-82650000D03*
X137900000Y-80100000D03*
X107940000Y-61350000D03*
X102000000Y-78000000D03*
X120225000Y-60725000D03*
X140000000Y-71000000D03*
X122000000Y-94000000D03*
X178750000Y-96750000D03*
X123975000Y-56825000D03*
X178600000Y-43890000D03*
X154150000Y-72250000D03*
X102300000Y-96475000D03*
X124000000Y-67000000D03*
X123575000Y-51675000D03*
X107500000Y-52500000D03*
X101000000Y-95000000D03*
X101750000Y-59000000D03*
X102350000Y-93850000D03*
X129150000Y-53475000D03*
X123950000Y-57650000D03*
X118330000Y-82640000D03*
X102750000Y-59000000D03*
X121925000Y-51700000D03*
X132500000Y-57000000D03*
X129250000Y-54250000D03*
X125300000Y-51650000D03*
X149250000Y-77375000D03*
X136250000Y-51000000D03*
X154900000Y-74950000D03*
X112975000Y-51275000D03*
X173000000Y-96250000D03*
X176250000Y-90500000D03*
X128050000Y-65700000D03*
X162000000Y-64750000D03*
X164250000Y-64250000D03*
X124600000Y-79850000D03*
X132175000Y-86875000D03*
X114025000Y-65750000D03*
X112750000Y-52500000D03*
X118150000Y-55925000D03*
X149000000Y-87000000D03*
X118250000Y-55150000D03*
X165025000Y-77300000D03*
X111760000Y-66940000D03*
X115100000Y-51725000D03*
X119600000Y-73850000D03*
X118200000Y-60550000D03*
X175740000Y-68380000D03*
X176225000Y-78300000D03*
X158000000Y-91000000D03*
X161450000Y-83100000D03*
X175740000Y-67630000D03*
X103000000Y-51000000D03*
X154750000Y-96000000D03*
X128850000Y-74600000D03*
X105425000Y-86300000D03*
X118000000Y-57775000D03*
X157150000Y-80575000D03*
X114270000Y-75110000D03*
X108000000Y-56750000D03*
X165100000Y-83800000D03*
X121850000Y-54700000D03*
X154280000Y-59070000D03*
X111000000Y-78000000D03*
X165720000Y-46160000D03*
X175250000Y-54250000D03*
X168535000Y-63950000D03*
X113125000Y-92650000D03*
X119550000Y-97125000D03*
X173600000Y-78350000D03*
X119550000Y-96425000D03*
X126460000Y-60420000D03*
X169760000Y-63950000D03*
X113375000Y-88975000D03*
X169810000Y-69100000D03*
X148050000Y-64210000D03*
X131785000Y-65115000D03*
X124425000Y-51675000D03*
X113225000Y-93725000D03*
X124000000Y-83000000D03*
X120200000Y-54725000D03*
X176250000Y-59310000D03*
X121050000Y-60725000D03*
X173500000Y-74750000D03*
X119025000Y-93750000D03*
X108200000Y-70350000D03*
X112975000Y-50600000D03*
X103000000Y-55000000D03*
X147450000Y-77800000D03*
X115950000Y-51700000D03*
X135025000Y-84600000D03*
X159175000Y-83200000D03*
X134535000Y-65115000D03*
X116825000Y-51700000D03*
X128000000Y-99000000D03*
X139000000Y-99000000D03*
X167260000Y-64100000D03*
X135450000Y-93475000D03*
X123950000Y-58550000D03*
X157150000Y-77650000D03*
X119300000Y-60650000D03*
X157940000Y-53820000D03*
X177475000Y-78250000D03*
X176260000Y-50700000D03*
X122800000Y-60625000D03*
X130750000Y-55250000D03*
X127000000Y-51700000D03*
X118075000Y-56875000D03*
X165025000Y-76350000D03*
X107400000Y-70325000D03*
X113225000Y-96975000D03*
X119550000Y-97875000D03*
X157625000Y-72700000D03*
X174250000Y-70000000D03*
X123875000Y-54900000D03*
X108000000Y-99000000D03*
X152300000Y-77200000D03*
X164200000Y-59322000D03*
X163250000Y-70625000D03*
X119375000Y-51700000D03*
X122875000Y-54700000D03*
X122725000Y-51700000D03*
X171060000Y-64025000D03*
X131725000Y-96375000D03*
X141475000Y-90225000D03*
X129025000Y-50675000D03*
X177250000Y-90500000D03*
X111750000Y-91625000D03*
X116975000Y-93775000D03*
X123975000Y-59450000D03*
X118050000Y-59425000D03*
X151940000Y-50170000D03*
X102350000Y-92700000D03*
X102000000Y-86000000D03*
X127325000Y-86000000D03*
X134700000Y-93475000D03*
X123975000Y-55950000D03*
X149680000Y-44110000D03*
X144180000Y-64360000D03*
X117600000Y-79850000D03*
X164250000Y-95000000D03*
X170780000Y-49700000D03*
X115690000Y-60340000D03*
X117625000Y-51700000D03*
X165350000Y-55420000D03*
X135785000Y-65115000D03*
X141450000Y-88050000D03*
X126125000Y-51650000D03*
X161720000Y-49550000D03*
X148530000Y-52030000D03*
X174000000Y-88000000D03*
X123775000Y-60400000D03*
X120250000Y-51700000D03*
X130550000Y-96450000D03*
X170000000Y-89500000D03*
X128200000Y-93675000D03*
X129500000Y-91425000D03*
X116000000Y-99000000D03*
X102075000Y-97325000D03*
%TO.N,NRST*%
X154650000Y-73500000D03*
X168375000Y-75375000D03*
%TO.N,+3V3*%
X157725000Y-96300000D03*
X136475000Y-87400000D03*
X107600000Y-54425000D03*
X153900000Y-68725000D03*
X178740000Y-78140000D03*
X142500000Y-73000000D03*
X116775000Y-76350000D03*
X102025000Y-76300000D03*
X138100000Y-67175000D03*
X141475000Y-86025000D03*
X171950000Y-85875000D03*
X158575000Y-96275000D03*
X175625000Y-96350000D03*
X158405388Y-80800000D03*
X136500000Y-88125000D03*
X133000000Y-84925000D03*
X106250000Y-68400000D03*
X158575000Y-70575000D03*
X137450000Y-62350000D03*
X175315000Y-75815000D03*
X176375000Y-96350000D03*
X149675000Y-82800000D03*
X171060000Y-72600000D03*
%TO.N,5V_USB*%
X110170000Y-91400000D03*
X104000000Y-90500000D03*
X109250000Y-94000000D03*
X115075000Y-88175000D03*
X116050000Y-91725000D03*
X115100000Y-89200000D03*
X105075000Y-91450000D03*
%TO.N,ESP_DOWNLOAD*%
X115750000Y-78250000D03*
X110450000Y-58325000D03*
%TO.N,ESP_EN*%
X130590000Y-71110000D03*
X135800000Y-60825000D03*
%TO.N,3V3_OUT*%
X175150000Y-58630000D03*
X133100000Y-91425000D03*
X136550000Y-90275000D03*
X174400000Y-58630000D03*
X133150000Y-89925000D03*
%TO.N,SWDIO*%
X161550000Y-85175000D03*
X165467877Y-85100000D03*
%TO.N,SWCLK*%
X159720000Y-78400000D03*
X171299000Y-82124000D03*
%TO.N,TOUCH_CS*%
X154050000Y-94749000D03*
%TO.N,TOUCH_DO_MISO*%
X153050000Y-93500000D03*
%TO.N,TFT_SPI_MOSI*%
X156250000Y-95500000D03*
%TO.N,TFT_SPI_CS*%
X163150000Y-90090000D03*
X157805388Y-77191229D03*
%TO.N,TFT_RESET*%
X161994250Y-91505750D03*
X155150000Y-77900000D03*
%TO.N,TFT_DC*%
X154849993Y-94753000D03*
%TO.N,TOUCH_DIN_MOSI*%
X153550000Y-94124501D03*
%TO.N,3V3_OUT_EN*%
X146075000Y-77825000D03*
X152350000Y-76250000D03*
%TO.N,Net-(U2-PA5)*%
X152250000Y-73250000D03*
X138500000Y-64500000D03*
%TO.N,CONN_FREE2*%
X157575000Y-74225000D03*
X163398924Y-80247454D03*
%TO.N,Net-(U2-PB1)*%
X146000000Y-75250000D03*
X152425000Y-75200000D03*
%TO.N,Net-(D7-A1)*%
X122650000Y-92550000D03*
X125025000Y-97875000D03*
X119850000Y-91700000D03*
X126325000Y-92600000D03*
X123425000Y-92550000D03*
X125075000Y-96125000D03*
X125125000Y-96900000D03*
%TO.N,BUZZER_PWM*%
X156827545Y-72763797D03*
%TD*%
D23*
%TO.N,NRST*%
X168375000Y-75375000D02*
X166500000Y-73500000D01*
X166500000Y-73500000D02*
X154650000Y-73500000D01*
D24*
%TO.N,+3V3*%
X158575000Y-96275000D02*
X157750000Y-96275000D01*
X157725000Y-97365000D02*
X158260000Y-97900000D01*
D25*
X145500000Y-68750000D02*
X141000000Y-64250000D01*
D24*
X157725000Y-96300000D02*
X157725000Y-97365000D01*
D25*
X145500000Y-71750000D02*
X145500000Y-68750000D01*
X142500000Y-73000000D02*
X144500000Y-73000000D01*
D24*
X157750000Y-96275000D02*
X157725000Y-96300000D01*
D25*
X144500000Y-73000000D02*
X145450000Y-72050000D01*
D23*
%TO.N,ESP_DOWNLOAD*%
X115750000Y-78250000D02*
X110450000Y-72950000D01*
X110450000Y-72950000D02*
X110450000Y-58325000D01*
%TO.N,ESP_EN*%
X135800000Y-61802000D02*
X135800000Y-60825000D01*
X130590000Y-71110000D02*
X130590000Y-69960000D01*
X130590000Y-69960000D02*
X132386000Y-68164000D01*
X132386000Y-65216000D02*
X135800000Y-61802000D01*
X132386000Y-68164000D02*
X132386000Y-65216000D01*
D24*
%TO.N,3V3_OUT*%
X172200000Y-62425341D02*
X172200000Y-82497207D01*
X139400000Y-92500000D02*
X133900000Y-98000000D01*
X164221286Y-92500000D02*
X139400000Y-92500000D01*
X172180000Y-60310000D02*
X172180000Y-62405341D01*
X173860000Y-58630000D02*
X172180000Y-60310000D01*
X167000000Y-57225341D02*
X167000000Y-57000000D01*
X167500000Y-87197207D02*
X167500000Y-89221286D01*
X172180000Y-62405341D02*
X172200000Y-62425341D01*
X172200000Y-82497207D02*
X167500000Y-87197207D01*
X167500000Y-89221286D02*
X164221286Y-92500000D01*
X175150000Y-58630000D02*
X173860000Y-58630000D01*
D23*
%TO.N,SWDIO*%
X161625000Y-85100000D02*
X161550000Y-85175000D01*
X165467877Y-85100000D02*
X161625000Y-85100000D01*
%TO.N,SWCLK*%
X160575000Y-78374943D02*
X164324057Y-82124000D01*
X159745057Y-78374943D02*
X160575000Y-78374943D01*
X164324057Y-82124000D02*
X171299000Y-82124000D01*
X159720000Y-78400000D02*
X159745057Y-78374943D01*
%TO.N,MUX3*%
X174910000Y-45080000D02*
X174910000Y-47620000D01*
X172080000Y-57920000D02*
X158920000Y-57920000D01*
X154590000Y-45080000D02*
X154590000Y-47620000D01*
X173000000Y-57000000D02*
X172080000Y-57920000D01*
X154590000Y-47620000D02*
X157250000Y-50280000D01*
X158920000Y-57920000D02*
X157250000Y-56250000D01*
X157250000Y-50280000D02*
X157250000Y-51500000D01*
%TO.N,MUX1*%
X169830000Y-45080000D02*
X169830000Y-47620000D01*
X159670000Y-45080000D02*
X159670000Y-47620000D01*
X159670000Y-50920000D02*
X160250000Y-51500000D01*
X159670000Y-47620000D02*
X159670000Y-50920000D01*
%TO.N,MUX2*%
X157130000Y-45080000D02*
X157130000Y-47620000D01*
X157130000Y-47620000D02*
X158750000Y-49240000D01*
X158750000Y-49240000D02*
X158750000Y-51500000D01*
X172370000Y-47620000D02*
X172370000Y-45080000D01*
%TO.N,MUX4*%
X171577000Y-59923000D02*
X159423000Y-59923000D01*
X174500000Y-57000000D02*
X171577000Y-59923000D01*
X155750000Y-51320000D02*
X152050000Y-47620000D01*
X159423000Y-59923000D02*
X155750000Y-56250000D01*
X177450000Y-47620000D02*
X177450000Y-45080000D01*
X155750000Y-51500000D02*
X155750000Y-51320000D01*
X152050000Y-45080000D02*
X152050000Y-47620000D01*
%TO.N,SIG4*%
X164170000Y-49580000D02*
X164170000Y-53830000D01*
X164170000Y-53830000D02*
X161750000Y-56250000D01*
X162210000Y-47620000D02*
X164170000Y-49580000D01*
%TO.N,SIG2*%
X168500000Y-46290000D02*
X168500000Y-52250000D01*
X167290000Y-45080000D02*
X168500000Y-46290000D01*
%TO.N,SIG1*%
X165620000Y-54120000D02*
X168500000Y-57000000D01*
X167290000Y-47620000D02*
X165620000Y-49290000D01*
X165620000Y-49290000D02*
X165620000Y-54120000D01*
%TO.N,TOUCH_CS*%
X150899000Y-97900000D02*
X150640000Y-97900000D01*
X154050000Y-94749000D02*
X150899000Y-97900000D01*
%TO.N,TOUCH_DO_MISO*%
X145560000Y-97690000D02*
X145560000Y-97900000D01*
X153050000Y-93500000D02*
X151800000Y-94750000D01*
X151800000Y-94750000D02*
X148500000Y-94750000D01*
X148500000Y-94750000D02*
X145560000Y-97690000D01*
%TO.N,TFT_SPI_MOSI*%
X160940000Y-95500000D02*
X163340000Y-97900000D01*
X156250000Y-95500000D02*
X160940000Y-95500000D01*
%TO.N,TFT_SPI_CS*%
X157805388Y-84745388D02*
X157805388Y-77191229D01*
X163150000Y-90090000D02*
X157805388Y-84745388D01*
%TO.N,TFT_RESET*%
X155150000Y-84661500D02*
X155150000Y-77900000D01*
X161994250Y-91505750D02*
X155150000Y-84661500D01*
%TO.N,TFT_DC*%
X162400057Y-94750000D02*
X165550057Y-97900000D01*
X165550057Y-97900000D02*
X165880000Y-97900000D01*
X154849993Y-94753000D02*
X154852993Y-94750000D01*
X154852993Y-94750000D02*
X162400057Y-94750000D01*
%TO.N,TOUCH_DIN_MOSI*%
X152174501Y-95500000D02*
X150500000Y-95500000D01*
X150500000Y-95500000D02*
X148100000Y-97900000D01*
X153550000Y-94124501D02*
X152174501Y-95500000D01*
%TO.N,3V3_OUT_EN*%
X147600000Y-76300000D02*
X152300000Y-76300000D01*
X152300000Y-76300000D02*
X152350000Y-76250000D01*
X146075000Y-77825000D02*
X147600000Y-76300000D01*
%TO.N,Net-(U2-PA5)*%
X138750000Y-64750000D02*
X138750000Y-73000000D01*
X138500000Y-64500000D02*
X138750000Y-64750000D01*
X151750000Y-73750000D02*
X152250000Y-73250000D01*
X139500000Y-73750000D02*
X139750000Y-73750000D01*
X139750000Y-73750000D02*
X151750000Y-73750000D01*
X138750000Y-73000000D02*
X139500000Y-73750000D01*
%TO.N,CONN_FREE2*%
X163475000Y-80171378D02*
X163475000Y-80125000D01*
X163475000Y-80125000D02*
X157575000Y-74225000D01*
X163398924Y-80247454D02*
X163475000Y-80171378D01*
%TO.N,Net-(U2-PB1)*%
X152425000Y-75200000D02*
X152375000Y-75250000D01*
X152375000Y-75250000D02*
X146000000Y-75250000D01*
%TO.N,BUZZER_PWM*%
X156827545Y-72763797D02*
X156250000Y-72186252D01*
X156250000Y-72186252D02*
X156250000Y-66250000D01*
%TO.N,Net-(Q2-B)*%
X158250000Y-63925000D02*
X158200000Y-63875000D01*
X158250000Y-66250000D02*
X158250000Y-63925000D01*
%TO.N,Net-(Q2-C)*%
X155250000Y-62000000D02*
X157250000Y-62000000D01*
X153000000Y-64250000D02*
X155250000Y-62000000D01*
D25*
X153000000Y-66250000D02*
X153000000Y-64250000D01*
X147500000Y-71750000D02*
X153000000Y-66250000D01*
%TD*%
%TA.AperFunction,Conductor*%
%TO.N,GND*%
G36*
X157611681Y-57036652D02*
G01*
X158735489Y-58160460D01*
X158804012Y-58200022D01*
X158880438Y-58220500D01*
X158880440Y-58220500D01*
X172119564Y-58220500D01*
X172119564Y-58220499D01*
X172195989Y-58200021D01*
X172264511Y-58160460D01*
X172320460Y-58104511D01*
X172638319Y-57786650D01*
X172690644Y-57764977D01*
X172718958Y-57770609D01*
X172760961Y-57788007D01*
X172919286Y-57819500D01*
X172919288Y-57819500D01*
X173076876Y-57819500D01*
X173129202Y-57841174D01*
X173150876Y-57893500D01*
X173129202Y-57945826D01*
X171474203Y-59600826D01*
X171421877Y-59622500D01*
X159578123Y-59622500D01*
X159525797Y-59600826D01*
X157120797Y-57195826D01*
X157099123Y-57143500D01*
X157120797Y-57091174D01*
X157173123Y-57069500D01*
X157330712Y-57069500D01*
X157330714Y-57069500D01*
X157489039Y-57038007D01*
X157514532Y-57027447D01*
X157531037Y-57020611D01*
X157587674Y-57020611D01*
X157611681Y-57036652D01*
G37*
%TD.AperFunction*%
%TA.AperFunction,Conductor*%
G36*
X179477826Y-43292174D02*
G01*
X179499500Y-43344500D01*
X179499500Y-50106626D01*
X179477826Y-50158952D01*
X179425500Y-50180626D01*
X179385946Y-50167778D01*
X179385396Y-50168677D01*
X179382924Y-50167162D01*
X179213552Y-50080863D01*
X179032792Y-50022130D01*
X179032779Y-50022127D01*
X178845042Y-49992393D01*
X178845041Y-49992393D01*
X178654959Y-49992393D01*
X178654958Y-49992393D01*
X178467220Y-50022127D01*
X178467207Y-50022130D01*
X178286447Y-50080863D01*
X178117075Y-50167161D01*
X177963301Y-50278885D01*
X177828885Y-50413301D01*
X177717161Y-50567075D01*
X177630863Y-50736447D01*
X177572130Y-50917207D01*
X177572127Y-50917220D01*
X177542393Y-51104958D01*
X177542393Y-51295041D01*
X177572127Y-51482779D01*
X177572130Y-51482792D01*
X177630863Y-51663552D01*
X177717161Y-51832924D01*
X177798365Y-51944691D01*
X177828889Y-51986703D01*
X177963297Y-52121111D01*
X177963300Y-52121113D01*
X177963301Y-52121114D01*
X178117075Y-52232838D01*
X178191569Y-52270794D01*
X178286440Y-52319133D01*
X178286443Y-52319133D01*
X178286447Y-52319136D01*
X178467207Y-52377869D01*
X178467213Y-52377870D01*
X178467218Y-52377872D01*
X178592378Y-52397695D01*
X178654958Y-52407607D01*
X178654959Y-52407607D01*
X178845042Y-52407607D01*
X178891976Y-52400173D01*
X179032782Y-52377872D01*
X179032789Y-52377869D01*
X179032792Y-52377869D01*
X179213552Y-52319136D01*
X179213554Y-52319134D01*
X179213560Y-52319133D01*
X179382924Y-52232838D01*
X179382932Y-52232831D01*
X179385396Y-52231323D01*
X179386130Y-52232521D01*
X179437056Y-52220281D01*
X179485356Y-52249861D01*
X179499500Y-52293373D01*
X179499500Y-97656626D01*
X179477826Y-97708952D01*
X179425500Y-97730626D01*
X179385946Y-97717778D01*
X179385396Y-97718677D01*
X179382924Y-97717162D01*
X179358564Y-97704750D01*
X179213560Y-97630867D01*
X179213559Y-97630866D01*
X179213552Y-97630863D01*
X179032792Y-97572130D01*
X179032779Y-97572127D01*
X178845042Y-97542393D01*
X178845041Y-97542393D01*
X178654959Y-97542393D01*
X178654958Y-97542393D01*
X178467220Y-97572127D01*
X178467207Y-97572130D01*
X178286447Y-97630863D01*
X178117075Y-97717161D01*
X177963301Y-97828885D01*
X177828885Y-97963301D01*
X177717161Y-98117075D01*
X177630863Y-98286447D01*
X177572130Y-98467207D01*
X177572127Y-98467220D01*
X177542393Y-98654958D01*
X177542393Y-98845041D01*
X177572127Y-99032779D01*
X177572130Y-99032792D01*
X177630863Y-99213552D01*
X177717162Y-99382924D01*
X177718677Y-99385396D01*
X177717487Y-99386125D01*
X177729713Y-99437090D01*
X177700111Y-99485375D01*
X177656626Y-99499500D01*
X102369673Y-99499500D01*
X102317347Y-99477826D01*
X102295673Y-99425500D01*
X102303738Y-99391905D01*
X102306683Y-99386125D01*
X102369133Y-99263560D01*
X102385380Y-99213560D01*
X102427869Y-99082792D01*
X102427869Y-99082789D01*
X102427872Y-99082782D01*
X102457607Y-98895041D01*
X102457607Y-98704959D01*
X102452015Y-98669655D01*
X102445452Y-98628213D01*
X102427872Y-98517218D01*
X102427870Y-98517213D01*
X102427869Y-98517207D01*
X102369136Y-98336447D01*
X102369133Y-98336443D01*
X102369133Y-98336440D01*
X102302881Y-98206413D01*
X102282838Y-98167075D01*
X102171114Y-98013301D01*
X102171113Y-98013300D01*
X102171111Y-98013297D01*
X102036703Y-97878889D01*
X102036700Y-97878886D01*
X102036698Y-97878885D01*
X101882924Y-97767161D01*
X101715426Y-97681818D01*
X101713560Y-97680867D01*
X101713559Y-97680866D01*
X101713552Y-97680863D01*
X101532792Y-97622130D01*
X101532779Y-97622127D01*
X101345042Y-97592393D01*
X101345041Y-97592393D01*
X101154959Y-97592393D01*
X101154958Y-97592393D01*
X100967220Y-97622127D01*
X100967207Y-97622130D01*
X100786447Y-97680863D01*
X100761491Y-97693579D01*
X100697594Y-97726136D01*
X100641132Y-97730579D01*
X100598065Y-97693796D01*
X100590000Y-97660201D01*
X100590000Y-96896535D01*
X122599500Y-96896535D01*
X122599500Y-97403465D01*
X122607198Y-97442164D01*
X122639868Y-97606413D01*
X122639870Y-97606420D01*
X122719059Y-97797598D01*
X122829774Y-97963297D01*
X122834023Y-97969655D01*
X122980345Y-98115977D01*
X123152402Y-98230941D01*
X123343580Y-98310130D01*
X123546535Y-98350500D01*
X123546536Y-98350500D01*
X123753464Y-98350500D01*
X123753465Y-98350500D01*
X123956420Y-98310130D01*
X124147598Y-98230941D01*
X124319655Y-98115977D01*
X124427580Y-98008051D01*
X124479905Y-97986378D01*
X124532231Y-98008052D01*
X124551383Y-98041224D01*
X124557860Y-98065395D01*
X124558608Y-98068186D01*
X124624500Y-98182314D01*
X124717686Y-98275500D01*
X124831814Y-98341392D01*
X124959105Y-98375499D01*
X124959106Y-98375500D01*
X124959108Y-98375500D01*
X125090894Y-98375500D01*
X125090894Y-98375499D01*
X125218186Y-98341392D01*
X125332314Y-98275500D01*
X125425500Y-98182314D01*
X125491392Y-98068186D01*
X125525499Y-97940894D01*
X125525500Y-97940894D01*
X125525500Y-97896535D01*
X132849500Y-97896535D01*
X132849500Y-98103465D01*
X132859455Y-98153516D01*
X132889868Y-98306413D01*
X132889870Y-98306420D01*
X132969059Y-98497598D01*
X133074203Y-98654959D01*
X133084023Y-98669655D01*
X133230345Y-98815977D01*
X133402402Y-98930941D01*
X133593580Y-99010130D01*
X133796535Y-99050500D01*
X133796536Y-99050500D01*
X134003464Y-99050500D01*
X134003465Y-99050500D01*
X134206420Y-99010130D01*
X134397598Y-98930941D01*
X134569655Y-98815977D01*
X134715977Y-98669655D01*
X134830941Y-98497598D01*
X134910130Y-98306420D01*
X134950500Y-98103465D01*
X134950500Y-97896535D01*
X134941990Y-97853753D01*
X134953039Y-97798206D01*
X134962237Y-97786997D01*
X135718982Y-97030252D01*
X141969500Y-97030252D01*
X141969500Y-98769748D01*
X141977255Y-98808736D01*
X141981133Y-98828232D01*
X141989202Y-98840307D01*
X142025448Y-98894552D01*
X142066207Y-98921787D01*
X142091767Y-98938866D01*
X142091768Y-98938866D01*
X142091769Y-98938867D01*
X142150252Y-98950500D01*
X142150254Y-98950500D01*
X143889746Y-98950500D01*
X143889748Y-98950500D01*
X143948231Y-98938867D01*
X144014552Y-98894552D01*
X144058867Y-98828231D01*
X144070500Y-98769748D01*
X144070500Y-97030252D01*
X144058867Y-96971769D01*
X144057056Y-96969059D01*
X144036140Y-96937756D01*
X144014552Y-96905448D01*
X143991235Y-96889868D01*
X143948232Y-96861133D01*
X143948233Y-96861133D01*
X143918989Y-96855316D01*
X143889748Y-96849500D01*
X142150252Y-96849500D01*
X142121010Y-96855316D01*
X142091767Y-96861133D01*
X142025449Y-96905447D01*
X142025447Y-96905449D01*
X141981133Y-96971767D01*
X141980631Y-96974291D01*
X141969500Y-97030252D01*
X135718982Y-97030252D01*
X139627062Y-93122174D01*
X139679388Y-93100500D01*
X152574552Y-93100500D01*
X152626878Y-93122174D01*
X152648552Y-93174500D01*
X152638638Y-93211500D01*
X152583610Y-93306809D01*
X152583606Y-93306818D01*
X152549500Y-93434105D01*
X152549500Y-93544876D01*
X152527826Y-93597202D01*
X151697203Y-94427826D01*
X151644877Y-94449500D01*
X148460436Y-94449500D01*
X148384014Y-94469977D01*
X148384009Y-94469979D01*
X148335983Y-94497708D01*
X148315488Y-94509540D01*
X145949987Y-96875040D01*
X145897661Y-96896714D01*
X145869343Y-96891080D01*
X145866420Y-96889870D01*
X145866416Y-96889869D01*
X145866413Y-96889868D01*
X145713516Y-96859455D01*
X145663465Y-96849500D01*
X145456535Y-96849500D01*
X145416385Y-96857486D01*
X145253586Y-96889868D01*
X145253579Y-96889870D01*
X145062401Y-96969059D01*
X144890345Y-97084022D01*
X144890344Y-97084024D01*
X144744024Y-97230344D01*
X144744022Y-97230345D01*
X144629059Y-97402401D01*
X144549870Y-97593579D01*
X144549868Y-97593586D01*
X144511398Y-97786992D01*
X144509500Y-97796535D01*
X144509500Y-98003465D01*
X144517011Y-98041224D01*
X144549868Y-98206413D01*
X144549870Y-98206420D01*
X144629059Y-98397598D01*
X144708978Y-98517207D01*
X144744023Y-98569655D01*
X144890345Y-98715977D01*
X145062402Y-98830941D01*
X145253580Y-98910130D01*
X145456535Y-98950500D01*
X145456536Y-98950500D01*
X145663464Y-98950500D01*
X145663465Y-98950500D01*
X145866420Y-98910130D01*
X146057598Y-98830941D01*
X146229655Y-98715977D01*
X146375977Y-98569655D01*
X146490941Y-98397598D01*
X146570130Y-98206420D01*
X146610500Y-98003465D01*
X146610500Y-97796535D01*
X146570130Y-97593580D01*
X146490941Y-97402402D01*
X146437211Y-97321990D01*
X146426163Y-97266444D01*
X146446413Y-97228556D01*
X148602797Y-95072174D01*
X148655123Y-95050500D01*
X151839564Y-95050500D01*
X151839564Y-95050499D01*
X151915989Y-95030021D01*
X151984511Y-94990460D01*
X152040460Y-94934511D01*
X152923174Y-94051795D01*
X152975500Y-94030122D01*
X153027826Y-94051796D01*
X153049500Y-94104122D01*
X153049500Y-94169377D01*
X153027826Y-94221703D01*
X152071704Y-95177826D01*
X152019378Y-95199500D01*
X150539562Y-95199500D01*
X150460438Y-95199500D01*
X150384012Y-95219978D01*
X150384011Y-95219978D01*
X150384009Y-95219979D01*
X150384007Y-95219980D01*
X150315490Y-95259538D01*
X148638480Y-96936547D01*
X148586154Y-96958221D01*
X148557836Y-96952588D01*
X148406424Y-96889871D01*
X148406413Y-96889868D01*
X148253516Y-96859455D01*
X148203465Y-96849500D01*
X147996535Y-96849500D01*
X147956385Y-96857486D01*
X147793586Y-96889868D01*
X147793579Y-96889870D01*
X147602401Y-96969059D01*
X147430345Y-97084022D01*
X147430344Y-97084024D01*
X147284024Y-97230344D01*
X147284022Y-97230345D01*
X147169059Y-97402401D01*
X147089870Y-97593579D01*
X147089868Y-97593586D01*
X147051398Y-97786992D01*
X147049500Y-97796535D01*
X147049500Y-98003465D01*
X147057011Y-98041224D01*
X147089868Y-98206413D01*
X147089870Y-98206420D01*
X147169059Y-98397598D01*
X147248978Y-98517207D01*
X147284023Y-98569655D01*
X147430345Y-98715977D01*
X147602402Y-98830941D01*
X147793580Y-98910130D01*
X147996535Y-98950500D01*
X147996536Y-98950500D01*
X148203464Y-98950500D01*
X148203465Y-98950500D01*
X148406420Y-98910130D01*
X148597598Y-98830941D01*
X148769655Y-98715977D01*
X148915977Y-98569655D01*
X149030941Y-98397598D01*
X149110130Y-98206420D01*
X149150500Y-98003465D01*
X149150500Y-97796535D01*
X149110130Y-97593580D01*
X149047410Y-97442161D01*
X149047410Y-97385526D01*
X149063448Y-97361521D01*
X150602797Y-95822174D01*
X150655123Y-95800500D01*
X152214065Y-95800500D01*
X152214065Y-95800499D01*
X152290490Y-95780021D01*
X152359012Y-95740460D01*
X152414961Y-95684511D01*
X153423174Y-94676296D01*
X153475500Y-94654623D01*
X153527826Y-94676297D01*
X153549500Y-94728623D01*
X153549500Y-94793876D01*
X153527826Y-94846202D01*
X151340818Y-97033209D01*
X151288492Y-97054883D01*
X151247380Y-97042412D01*
X151137598Y-96969059D01*
X150946420Y-96889870D01*
X150946413Y-96889868D01*
X150793516Y-96859455D01*
X150743465Y-96849500D01*
X150536535Y-96849500D01*
X150496385Y-96857486D01*
X150333586Y-96889868D01*
X150333579Y-96889870D01*
X150142401Y-96969059D01*
X149970345Y-97084022D01*
X149970344Y-97084024D01*
X149824024Y-97230344D01*
X149824022Y-97230345D01*
X149709059Y-97402401D01*
X149629870Y-97593579D01*
X149629868Y-97593586D01*
X149591398Y-97786992D01*
X149589500Y-97796535D01*
X149589500Y-98003465D01*
X149597011Y-98041224D01*
X149629868Y-98206413D01*
X149629870Y-98206420D01*
X149709059Y-98397598D01*
X149788978Y-98517207D01*
X149824023Y-98569655D01*
X149970345Y-98715977D01*
X150142402Y-98830941D01*
X150333580Y-98910130D01*
X150536535Y-98950500D01*
X150536536Y-98950500D01*
X150743464Y-98950500D01*
X150743465Y-98950500D01*
X150946420Y-98910130D01*
X151137598Y-98830941D01*
X151309655Y-98715977D01*
X151455977Y-98569655D01*
X151570941Y-98397598D01*
X151650130Y-98206420D01*
X151690500Y-98003465D01*
X151690500Y-97796535D01*
X152129500Y-97796535D01*
X152129500Y-98003465D01*
X152137011Y-98041224D01*
X152169868Y-98206413D01*
X152169870Y-98206420D01*
X152249059Y-98397598D01*
X152328978Y-98517207D01*
X152364023Y-98569655D01*
X152510345Y-98715977D01*
X152682402Y-98830941D01*
X152873580Y-98910130D01*
X153076535Y-98950500D01*
X153076536Y-98950500D01*
X153283464Y-98950500D01*
X153283465Y-98950500D01*
X153486420Y-98910130D01*
X153677598Y-98830941D01*
X153849655Y-98715977D01*
X153995977Y-98569655D01*
X154110941Y-98397598D01*
X154190130Y-98206420D01*
X154230500Y-98003465D01*
X154230500Y-97796535D01*
X154669500Y-97796535D01*
X154669500Y-98003465D01*
X154677011Y-98041224D01*
X154709868Y-98206413D01*
X154709870Y-98206420D01*
X154789059Y-98397598D01*
X154868978Y-98517207D01*
X154904023Y-98569655D01*
X155050345Y-98715977D01*
X155222402Y-98830941D01*
X155413580Y-98910130D01*
X155616535Y-98950500D01*
X155616536Y-98950500D01*
X155823464Y-98950500D01*
X155823465Y-98950500D01*
X156026420Y-98910130D01*
X156217598Y-98830941D01*
X156389655Y-98715977D01*
X156535977Y-98569655D01*
X156650941Y-98397598D01*
X156730130Y-98206420D01*
X156770500Y-98003465D01*
X156770500Y-97796535D01*
X156730130Y-97593580D01*
X156650941Y-97402402D01*
X156535977Y-97230345D01*
X156389655Y-97084023D01*
X156386443Y-97081877D01*
X156217598Y-96969059D01*
X156026420Y-96889870D01*
X156026413Y-96889868D01*
X155873516Y-96859455D01*
X155823465Y-96849500D01*
X155616535Y-96849500D01*
X155576385Y-96857486D01*
X155413586Y-96889868D01*
X155413579Y-96889870D01*
X155222401Y-96969059D01*
X155050345Y-97084022D01*
X155050344Y-97084024D01*
X154904024Y-97230344D01*
X154904022Y-97230345D01*
X154789059Y-97402401D01*
X154709870Y-97593579D01*
X154709868Y-97593586D01*
X154671398Y-97786992D01*
X154669500Y-97796535D01*
X154230500Y-97796535D01*
X154190130Y-97593580D01*
X154110941Y-97402402D01*
X153995977Y-97230345D01*
X153849655Y-97084023D01*
X153846443Y-97081877D01*
X153677598Y-96969059D01*
X153486420Y-96889870D01*
X153486413Y-96889868D01*
X153333516Y-96859455D01*
X153283465Y-96849500D01*
X153076535Y-96849500D01*
X153036385Y-96857486D01*
X152873586Y-96889868D01*
X152873579Y-96889870D01*
X152682401Y-96969059D01*
X152510345Y-97084022D01*
X152510344Y-97084024D01*
X152364024Y-97230344D01*
X152364022Y-97230345D01*
X152249059Y-97402401D01*
X152169870Y-97593579D01*
X152169868Y-97593586D01*
X152131398Y-97786992D01*
X152129500Y-97796535D01*
X151690500Y-97796535D01*
X151654571Y-97615907D01*
X151665620Y-97560360D01*
X151674818Y-97549151D01*
X153952796Y-95271174D01*
X154005122Y-95249500D01*
X154115894Y-95249500D01*
X154115894Y-95249499D01*
X154243186Y-95215392D01*
X154357314Y-95149500D01*
X154395669Y-95111143D01*
X154447995Y-95089469D01*
X154500321Y-95111142D01*
X154542679Y-95153500D01*
X154656807Y-95219392D01*
X154784098Y-95253499D01*
X154784099Y-95253500D01*
X154784101Y-95253500D01*
X154915887Y-95253500D01*
X154915887Y-95253499D01*
X155043179Y-95219392D01*
X155157307Y-95153500D01*
X155238633Y-95072174D01*
X155290959Y-95050500D01*
X155813034Y-95050500D01*
X155865360Y-95072174D01*
X155887034Y-95124500D01*
X155865360Y-95176826D01*
X155849500Y-95192685D01*
X155783610Y-95306809D01*
X155783606Y-95306818D01*
X155749500Y-95434105D01*
X155749500Y-95565894D01*
X155783606Y-95693181D01*
X155783607Y-95693184D01*
X155783608Y-95693186D01*
X155849500Y-95807314D01*
X155942686Y-95900500D01*
X156056814Y-95966392D01*
X156184105Y-96000499D01*
X156184106Y-96000500D01*
X156184108Y-96000500D01*
X156315894Y-96000500D01*
X156315894Y-96000499D01*
X156443186Y-95966392D01*
X156557314Y-95900500D01*
X156635640Y-95822174D01*
X156687966Y-95800500D01*
X157196612Y-95800500D01*
X157248938Y-95822174D01*
X157270612Y-95874500D01*
X157259439Y-95913600D01*
X157254948Y-95920815D01*
X157244480Y-95931284D01*
X157194360Y-96018095D01*
X157193746Y-96019157D01*
X157193745Y-96019160D01*
X157165423Y-96068213D01*
X157165421Y-96068218D01*
X157124499Y-96220940D01*
X157124499Y-96385015D01*
X157124500Y-96385028D01*
X157124500Y-97281396D01*
X157124499Y-97281414D01*
X157124499Y-97444059D01*
X157165421Y-97596781D01*
X157165423Y-97596786D01*
X157185341Y-97631284D01*
X157185341Y-97631285D01*
X157213830Y-97680631D01*
X157222323Y-97732065D01*
X157209500Y-97796535D01*
X157209500Y-98003465D01*
X157217011Y-98041224D01*
X157249868Y-98206413D01*
X157249870Y-98206420D01*
X157329059Y-98397598D01*
X157408978Y-98517207D01*
X157444023Y-98569655D01*
X157590345Y-98715977D01*
X157762402Y-98830941D01*
X157953580Y-98910130D01*
X158156535Y-98950500D01*
X158156536Y-98950500D01*
X158363464Y-98950500D01*
X158363465Y-98950500D01*
X158566420Y-98910130D01*
X158757598Y-98830941D01*
X158929655Y-98715977D01*
X159075977Y-98569655D01*
X159190941Y-98397598D01*
X159270130Y-98206420D01*
X159310500Y-98003465D01*
X159310500Y-97796535D01*
X159749500Y-97796535D01*
X159749500Y-98003465D01*
X159757011Y-98041224D01*
X159789868Y-98206413D01*
X159789870Y-98206420D01*
X159869059Y-98397598D01*
X159948978Y-98517207D01*
X159984023Y-98569655D01*
X160130345Y-98715977D01*
X160302402Y-98830941D01*
X160493580Y-98910130D01*
X160696535Y-98950500D01*
X160696536Y-98950500D01*
X160903464Y-98950500D01*
X160903465Y-98950500D01*
X161106420Y-98910130D01*
X161297598Y-98830941D01*
X161469655Y-98715977D01*
X161615977Y-98569655D01*
X161730941Y-98397598D01*
X161810130Y-98206420D01*
X161850500Y-98003465D01*
X161850500Y-97796535D01*
X161810130Y-97593580D01*
X161730941Y-97402402D01*
X161615977Y-97230345D01*
X161469655Y-97084023D01*
X161466443Y-97081877D01*
X161297598Y-96969059D01*
X161106420Y-96889870D01*
X161106413Y-96889868D01*
X160953516Y-96859455D01*
X160903465Y-96849500D01*
X160696535Y-96849500D01*
X160656385Y-96857486D01*
X160493586Y-96889868D01*
X160493579Y-96889870D01*
X160302401Y-96969059D01*
X160130345Y-97084022D01*
X160130344Y-97084024D01*
X159984024Y-97230344D01*
X159984022Y-97230345D01*
X159869059Y-97402401D01*
X159789870Y-97593579D01*
X159789868Y-97593586D01*
X159751398Y-97786992D01*
X159749500Y-97796535D01*
X159310500Y-97796535D01*
X159270130Y-97593580D01*
X159190941Y-97402402D01*
X159075977Y-97230345D01*
X158929655Y-97084023D01*
X158926443Y-97081877D01*
X158763815Y-96973213D01*
X158732349Y-96926121D01*
X158743398Y-96870572D01*
X158785773Y-96840206D01*
X158806784Y-96834577D01*
X158943716Y-96755520D01*
X159055520Y-96643716D01*
X159134577Y-96506784D01*
X159175499Y-96354059D01*
X159175500Y-96354059D01*
X159175500Y-96195941D01*
X159175499Y-96195940D01*
X159174146Y-96190892D01*
X159134577Y-96043216D01*
X159058530Y-95911499D01*
X159051139Y-95855347D01*
X159085617Y-95810414D01*
X159122617Y-95800500D01*
X160784877Y-95800500D01*
X160837203Y-95822174D01*
X162376548Y-97361519D01*
X162398222Y-97413845D01*
X162392589Y-97442164D01*
X162329870Y-97593579D01*
X162329868Y-97593586D01*
X162291398Y-97786992D01*
X162289500Y-97796535D01*
X162289500Y-98003465D01*
X162297011Y-98041224D01*
X162329868Y-98206413D01*
X162329870Y-98206420D01*
X162409059Y-98397598D01*
X162488978Y-98517207D01*
X162524023Y-98569655D01*
X162670345Y-98715977D01*
X162842402Y-98830941D01*
X163033580Y-98910130D01*
X163236535Y-98950500D01*
X163236536Y-98950500D01*
X163443464Y-98950500D01*
X163443465Y-98950500D01*
X163646420Y-98910130D01*
X163837598Y-98830941D01*
X164009655Y-98715977D01*
X164155977Y-98569655D01*
X164270941Y-98397598D01*
X164350130Y-98206420D01*
X164390500Y-98003465D01*
X164390500Y-97796535D01*
X164350130Y-97593580D01*
X164270941Y-97402402D01*
X164155977Y-97230345D01*
X164009655Y-97084023D01*
X164006443Y-97081877D01*
X163837598Y-96969059D01*
X163646420Y-96889870D01*
X163646413Y-96889868D01*
X163493516Y-96859455D01*
X163443465Y-96849500D01*
X163236535Y-96849500D01*
X163196385Y-96857486D01*
X163033586Y-96889868D01*
X163033579Y-96889870D01*
X162882164Y-96952589D01*
X162825526Y-96952589D01*
X162801519Y-96936548D01*
X161124511Y-95259540D01*
X161107121Y-95249500D01*
X161055990Y-95219979D01*
X161055985Y-95219977D01*
X160979564Y-95199500D01*
X160979562Y-95199500D01*
X156687966Y-95199500D01*
X156635640Y-95177826D01*
X156634640Y-95176826D01*
X156612966Y-95124500D01*
X156634640Y-95072174D01*
X156686966Y-95050500D01*
X162244934Y-95050500D01*
X162297260Y-95072174D01*
X164833405Y-97608319D01*
X164855079Y-97660645D01*
X164853657Y-97675081D01*
X164835342Y-97767162D01*
X164829500Y-97796535D01*
X164829500Y-98003465D01*
X164837011Y-98041224D01*
X164869868Y-98206413D01*
X164869870Y-98206420D01*
X164949059Y-98397598D01*
X165028978Y-98517207D01*
X165064023Y-98569655D01*
X165210345Y-98715977D01*
X165382402Y-98830941D01*
X165573580Y-98910130D01*
X165776535Y-98950500D01*
X165776536Y-98950500D01*
X165983464Y-98950500D01*
X165983465Y-98950500D01*
X166186420Y-98910130D01*
X166377598Y-98830941D01*
X166549655Y-98715977D01*
X166695977Y-98569655D01*
X166810941Y-98397598D01*
X166890130Y-98206420D01*
X166930500Y-98003465D01*
X166930500Y-97796535D01*
X167369500Y-97796535D01*
X167369500Y-98003465D01*
X167377011Y-98041224D01*
X167409868Y-98206413D01*
X167409870Y-98206420D01*
X167489059Y-98397598D01*
X167568978Y-98517207D01*
X167604023Y-98569655D01*
X167750345Y-98715977D01*
X167922402Y-98830941D01*
X168113580Y-98910130D01*
X168316535Y-98950500D01*
X168316536Y-98950500D01*
X168523464Y-98950500D01*
X168523465Y-98950500D01*
X168726420Y-98910130D01*
X168917598Y-98830941D01*
X169089655Y-98715977D01*
X169235977Y-98569655D01*
X169350941Y-98397598D01*
X169430130Y-98206420D01*
X169470500Y-98003465D01*
X169470500Y-97796535D01*
X169909500Y-97796535D01*
X169909500Y-98003465D01*
X169917011Y-98041224D01*
X169949868Y-98206413D01*
X169949870Y-98206420D01*
X170029059Y-98397598D01*
X170108978Y-98517207D01*
X170144023Y-98569655D01*
X170290345Y-98715977D01*
X170462402Y-98830941D01*
X170653580Y-98910130D01*
X170856535Y-98950500D01*
X170856536Y-98950500D01*
X171063464Y-98950500D01*
X171063465Y-98950500D01*
X171266420Y-98910130D01*
X171457598Y-98830941D01*
X171629655Y-98715977D01*
X171775977Y-98569655D01*
X171890941Y-98397598D01*
X171970130Y-98206420D01*
X172010500Y-98003465D01*
X172010500Y-97796535D01*
X174989500Y-97796535D01*
X174989500Y-98003465D01*
X174997011Y-98041224D01*
X175029868Y-98206413D01*
X175029870Y-98206420D01*
X175109059Y-98397598D01*
X175188978Y-98517207D01*
X175224023Y-98569655D01*
X175370345Y-98715977D01*
X175542402Y-98830941D01*
X175733580Y-98910130D01*
X175936535Y-98950500D01*
X175936536Y-98950500D01*
X176143464Y-98950500D01*
X176143465Y-98950500D01*
X176346420Y-98910130D01*
X176537598Y-98830941D01*
X176709655Y-98715977D01*
X176855977Y-98569655D01*
X176970941Y-98397598D01*
X177050130Y-98206420D01*
X177090500Y-98003465D01*
X177090500Y-97796535D01*
X177050130Y-97593580D01*
X176970941Y-97402402D01*
X176855977Y-97230345D01*
X176709655Y-97084023D01*
X176706443Y-97081877D01*
X176537598Y-96969059D01*
X176527213Y-96964757D01*
X176487167Y-96924707D01*
X176487169Y-96868069D01*
X176527219Y-96828023D01*
X176536366Y-96824917D01*
X176568186Y-96816392D01*
X176682314Y-96750500D01*
X176775500Y-96657314D01*
X176841392Y-96543186D01*
X176875499Y-96415894D01*
X176875500Y-96415894D01*
X176875500Y-96284106D01*
X176875499Y-96284105D01*
X176848682Y-96184023D01*
X176841392Y-96156814D01*
X176775500Y-96042686D01*
X176682314Y-95949500D01*
X176651681Y-95931814D01*
X176568190Y-95883610D01*
X176568181Y-95883606D01*
X176440894Y-95849500D01*
X176440892Y-95849500D01*
X176309108Y-95849500D01*
X176309106Y-95849500D01*
X176181818Y-95883606D01*
X176181809Y-95883610D01*
X176067685Y-95949500D01*
X176052326Y-95964860D01*
X176000000Y-95986534D01*
X175947674Y-95964860D01*
X175932314Y-95949500D01*
X175818190Y-95883610D01*
X175818181Y-95883606D01*
X175690894Y-95849500D01*
X175690892Y-95849500D01*
X175559108Y-95849500D01*
X175559106Y-95849500D01*
X175431818Y-95883606D01*
X175431809Y-95883610D01*
X175317685Y-95949500D01*
X175224500Y-96042685D01*
X175158610Y-96156809D01*
X175158606Y-96156818D01*
X175124500Y-96284105D01*
X175124500Y-96415894D01*
X175158606Y-96543181D01*
X175158607Y-96543184D01*
X175158608Y-96543186D01*
X175224500Y-96657314D01*
X175317686Y-96750500D01*
X175431814Y-96816392D01*
X175431818Y-96816393D01*
X175516075Y-96838970D01*
X175561008Y-96873448D01*
X175568400Y-96929601D01*
X175538034Y-96971977D01*
X175370345Y-97084022D01*
X175370344Y-97084024D01*
X175224024Y-97230344D01*
X175224022Y-97230345D01*
X175109059Y-97402401D01*
X175029870Y-97593579D01*
X175029868Y-97593586D01*
X174991398Y-97786992D01*
X174989500Y-97796535D01*
X172010500Y-97796535D01*
X171970130Y-97593580D01*
X171890941Y-97402402D01*
X171775977Y-97230345D01*
X171629655Y-97084023D01*
X171626443Y-97081877D01*
X171457598Y-96969059D01*
X171266420Y-96889870D01*
X171266413Y-96889868D01*
X171113516Y-96859455D01*
X171063465Y-96849500D01*
X170856535Y-96849500D01*
X170816385Y-96857486D01*
X170653586Y-96889868D01*
X170653579Y-96889870D01*
X170462401Y-96969059D01*
X170290345Y-97084022D01*
X170290344Y-97084024D01*
X170144024Y-97230344D01*
X170144022Y-97230345D01*
X170029059Y-97402401D01*
X169949870Y-97593579D01*
X169949868Y-97593586D01*
X169911398Y-97786992D01*
X169909500Y-97796535D01*
X169470500Y-97796535D01*
X169430130Y-97593580D01*
X169350941Y-97402402D01*
X169235977Y-97230345D01*
X169089655Y-97084023D01*
X169086443Y-97081877D01*
X168917598Y-96969059D01*
X168726420Y-96889870D01*
X168726413Y-96889868D01*
X168573516Y-96859455D01*
X168523465Y-96849500D01*
X168316535Y-96849500D01*
X168276385Y-96857486D01*
X168113586Y-96889868D01*
X168113579Y-96889870D01*
X167922401Y-96969059D01*
X167750345Y-97084022D01*
X167750344Y-97084024D01*
X167604024Y-97230344D01*
X167604022Y-97230345D01*
X167489059Y-97402401D01*
X167409870Y-97593579D01*
X167409868Y-97593586D01*
X167371398Y-97786992D01*
X167369500Y-97796535D01*
X166930500Y-97796535D01*
X166890130Y-97593580D01*
X166810941Y-97402402D01*
X166695977Y-97230345D01*
X166549655Y-97084023D01*
X166546443Y-97081877D01*
X166377598Y-96969059D01*
X166186420Y-96889870D01*
X166186413Y-96889868D01*
X166033516Y-96859455D01*
X165983465Y-96849500D01*
X165776535Y-96849500D01*
X165736385Y-96857486D01*
X165573586Y-96889868D01*
X165573579Y-96889870D01*
X165382401Y-96969059D01*
X165230091Y-97070828D01*
X165174542Y-97081877D01*
X165136653Y-97061625D01*
X162584569Y-94509541D01*
X162584568Y-94509540D01*
X162564074Y-94497708D01*
X162553923Y-94491847D01*
X162516047Y-94469979D01*
X162516042Y-94469977D01*
X162439621Y-94449500D01*
X162439619Y-94449500D01*
X155284959Y-94449500D01*
X155232633Y-94427826D01*
X155157307Y-94352500D01*
X155043183Y-94286610D01*
X155043174Y-94286606D01*
X154915887Y-94252500D01*
X154915885Y-94252500D01*
X154784101Y-94252500D01*
X154784099Y-94252500D01*
X154656811Y-94286606D01*
X154656802Y-94286610D01*
X154542678Y-94352500D01*
X154504321Y-94390857D01*
X154451995Y-94412530D01*
X154399670Y-94390856D01*
X154357314Y-94348500D01*
X154243190Y-94282610D01*
X154243181Y-94282606D01*
X154115891Y-94248499D01*
X154114835Y-94248360D01*
X154114370Y-94248091D01*
X154111207Y-94247244D01*
X154111434Y-94246396D01*
X154065788Y-94220037D01*
X154050500Y-94174994D01*
X154050500Y-94058607D01*
X154050499Y-94058606D01*
X154017139Y-93934105D01*
X154016392Y-93931315D01*
X153950500Y-93817187D01*
X153857314Y-93724001D01*
X153803073Y-93692685D01*
X153743190Y-93658111D01*
X153743181Y-93658107D01*
X153615891Y-93624000D01*
X153614835Y-93623861D01*
X153614370Y-93623592D01*
X153611207Y-93622745D01*
X153611434Y-93621897D01*
X153565788Y-93595538D01*
X153550500Y-93550495D01*
X153550500Y-93434106D01*
X153550499Y-93434105D01*
X153516393Y-93306818D01*
X153516392Y-93306814D01*
X153461361Y-93211499D01*
X153453969Y-93155348D01*
X153488448Y-93110414D01*
X153525448Y-93100500D01*
X164137683Y-93100500D01*
X164137699Y-93100501D01*
X164142229Y-93100501D01*
X164300345Y-93100501D01*
X164300345Y-93100500D01*
X164453071Y-93059577D01*
X164527869Y-93016392D01*
X164590002Y-92980520D01*
X164701806Y-92868716D01*
X164701807Y-92868713D01*
X165573986Y-91996535D01*
X168029500Y-91996535D01*
X168029500Y-92203465D01*
X168039455Y-92253516D01*
X168069868Y-92406413D01*
X168069870Y-92406420D01*
X168149059Y-92597598D01*
X168246339Y-92743190D01*
X168264023Y-92769655D01*
X168410345Y-92915977D01*
X168582402Y-93030941D01*
X168773580Y-93110130D01*
X168976535Y-93150500D01*
X168976536Y-93150500D01*
X169183464Y-93150500D01*
X169183465Y-93150500D01*
X169386420Y-93110130D01*
X169577598Y-93030941D01*
X169749655Y-92915977D01*
X169895977Y-92769655D01*
X170010941Y-92597598D01*
X170090130Y-92406420D01*
X170130500Y-92203465D01*
X170130500Y-91996535D01*
X170569500Y-91996535D01*
X170569500Y-92203465D01*
X170579455Y-92253516D01*
X170609868Y-92406413D01*
X170609870Y-92406420D01*
X170689059Y-92597598D01*
X170786339Y-92743190D01*
X170804023Y-92769655D01*
X170950345Y-92915977D01*
X171122402Y-93030941D01*
X171313580Y-93110130D01*
X171516535Y-93150500D01*
X171516536Y-93150500D01*
X171723464Y-93150500D01*
X171723465Y-93150500D01*
X171926420Y-93110130D01*
X172117598Y-93030941D01*
X172289655Y-92915977D01*
X172435977Y-92769655D01*
X172550941Y-92597598D01*
X172630130Y-92406420D01*
X172670500Y-92203465D01*
X172670500Y-91996535D01*
X173109500Y-91996535D01*
X173109500Y-92203465D01*
X173119455Y-92253516D01*
X173149868Y-92406413D01*
X173149870Y-92406420D01*
X173229059Y-92597598D01*
X173326339Y-92743190D01*
X173344023Y-92769655D01*
X173490345Y-92915977D01*
X173662402Y-93030941D01*
X173853580Y-93110130D01*
X174056535Y-93150500D01*
X174056536Y-93150500D01*
X174263464Y-93150500D01*
X174263465Y-93150500D01*
X174466420Y-93110130D01*
X174657598Y-93030941D01*
X174829655Y-92915977D01*
X174975977Y-92769655D01*
X175090941Y-92597598D01*
X175170130Y-92406420D01*
X175210500Y-92203465D01*
X175210500Y-91996535D01*
X175170130Y-91793580D01*
X175090941Y-91602402D01*
X174975977Y-91430345D01*
X174829655Y-91284023D01*
X174791621Y-91258610D01*
X174657598Y-91169059D01*
X174466420Y-91089870D01*
X174466413Y-91089868D01*
X174313516Y-91059455D01*
X174263465Y-91049500D01*
X174056535Y-91049500D01*
X174016385Y-91057486D01*
X173853586Y-91089868D01*
X173853579Y-91089870D01*
X173662401Y-91169059D01*
X173490345Y-91284022D01*
X173490344Y-91284024D01*
X173344024Y-91430344D01*
X173344022Y-91430345D01*
X173229059Y-91602401D01*
X173149870Y-91793579D01*
X173149868Y-91793586D01*
X173120661Y-91940423D01*
X173109500Y-91996535D01*
X172670500Y-91996535D01*
X172630130Y-91793580D01*
X172550941Y-91602402D01*
X172435977Y-91430345D01*
X172289655Y-91284023D01*
X172251621Y-91258610D01*
X172117598Y-91169059D01*
X171926420Y-91089870D01*
X171926413Y-91089868D01*
X171773516Y-91059455D01*
X171723465Y-91049500D01*
X171516535Y-91049500D01*
X171476385Y-91057486D01*
X171313586Y-91089868D01*
X171313579Y-91089870D01*
X171122401Y-91169059D01*
X170950345Y-91284022D01*
X170950344Y-91284024D01*
X170804024Y-91430344D01*
X170804022Y-91430345D01*
X170689059Y-91602401D01*
X170609870Y-91793579D01*
X170609868Y-91793586D01*
X170580661Y-91940423D01*
X170569500Y-91996535D01*
X170130500Y-91996535D01*
X170090130Y-91793580D01*
X170010941Y-91602402D01*
X169895977Y-91430345D01*
X169749655Y-91284023D01*
X169711621Y-91258610D01*
X169577598Y-91169059D01*
X169386420Y-91089870D01*
X169386413Y-91089868D01*
X169233516Y-91059455D01*
X169183465Y-91049500D01*
X168976535Y-91049500D01*
X168936385Y-91057486D01*
X168773586Y-91089868D01*
X168773579Y-91089870D01*
X168582401Y-91169059D01*
X168410345Y-91284022D01*
X168410344Y-91284024D01*
X168264024Y-91430344D01*
X168264022Y-91430345D01*
X168149059Y-91602401D01*
X168069870Y-91793579D01*
X168069868Y-91793586D01*
X168040661Y-91940423D01*
X168029500Y-91996535D01*
X165573986Y-91996535D01*
X167980520Y-89590002D01*
X168059577Y-89453071D01*
X168100500Y-89300345D01*
X168100501Y-89300345D01*
X168100501Y-89137699D01*
X168100500Y-89137681D01*
X168100500Y-87476594D01*
X168122174Y-87424268D01*
X169737337Y-85809105D01*
X171449500Y-85809105D01*
X171449500Y-85940894D01*
X171483606Y-86068181D01*
X171483610Y-86068190D01*
X171549500Y-86182314D01*
X171642686Y-86275500D01*
X171756814Y-86341392D01*
X171884105Y-86375499D01*
X171884106Y-86375500D01*
X171884108Y-86375500D01*
X172015894Y-86375500D01*
X172015894Y-86375499D01*
X172143186Y-86341392D01*
X172257314Y-86275500D01*
X172350500Y-86182314D01*
X172416392Y-86068186D01*
X172450499Y-85940894D01*
X172450500Y-85940894D01*
X172450500Y-85809106D01*
X172450499Y-85809105D01*
X172426003Y-85717685D01*
X172416392Y-85681814D01*
X172350500Y-85567686D01*
X172257314Y-85474500D01*
X172143190Y-85408610D01*
X172143181Y-85408606D01*
X172015894Y-85374500D01*
X172015892Y-85374500D01*
X171884108Y-85374500D01*
X171884106Y-85374500D01*
X171756818Y-85408606D01*
X171756809Y-85408610D01*
X171642685Y-85474500D01*
X171549500Y-85567685D01*
X171483610Y-85681809D01*
X171483606Y-85681818D01*
X171449500Y-85809105D01*
X169737337Y-85809105D01*
X170380550Y-85165892D01*
X172680520Y-82865923D01*
X172759577Y-82728991D01*
X172800500Y-82576266D01*
X172800501Y-82576266D01*
X172800501Y-82413620D01*
X172800500Y-82413602D01*
X172800500Y-78074105D01*
X178239500Y-78074105D01*
X178239500Y-78205894D01*
X178273606Y-78333181D01*
X178273610Y-78333190D01*
X178337114Y-78443181D01*
X178339500Y-78447314D01*
X178432686Y-78540500D01*
X178546814Y-78606392D01*
X178674105Y-78640499D01*
X178674106Y-78640500D01*
X178674108Y-78640500D01*
X178805894Y-78640500D01*
X178805894Y-78640499D01*
X178933186Y-78606392D01*
X179047314Y-78540500D01*
X179140500Y-78447314D01*
X179206392Y-78333186D01*
X179240499Y-78205894D01*
X179240500Y-78205894D01*
X179240500Y-78074106D01*
X179240499Y-78074105D01*
X179225514Y-78018181D01*
X179206392Y-77946814D01*
X179140500Y-77832686D01*
X179047314Y-77739500D01*
X179027042Y-77727796D01*
X178933190Y-77673610D01*
X178933181Y-77673606D01*
X178805894Y-77639500D01*
X178805892Y-77639500D01*
X178674108Y-77639500D01*
X178674106Y-77639500D01*
X178546818Y-77673606D01*
X178546809Y-77673610D01*
X178432685Y-77739500D01*
X178339500Y-77832685D01*
X178273610Y-77946809D01*
X178273606Y-77946818D01*
X178239500Y-78074105D01*
X172800500Y-78074105D01*
X172800500Y-75749105D01*
X174814500Y-75749105D01*
X174814500Y-75880894D01*
X174848606Y-76008181D01*
X174848610Y-76008190D01*
X174876683Y-76056814D01*
X174914500Y-76122314D01*
X175007686Y-76215500D01*
X175121814Y-76281392D01*
X175249105Y-76315499D01*
X175249106Y-76315500D01*
X175249108Y-76315500D01*
X175380894Y-76315500D01*
X175380894Y-76315499D01*
X175508186Y-76281392D01*
X175622314Y-76215500D01*
X175715500Y-76122314D01*
X175781392Y-76008186D01*
X175815499Y-75880894D01*
X175815500Y-75880894D01*
X175815500Y-75749106D01*
X175815499Y-75749105D01*
X175814261Y-75744486D01*
X175788016Y-75646535D01*
X176949500Y-75646535D01*
X176949500Y-75853464D01*
X176989868Y-76056413D01*
X176989870Y-76056420D01*
X177069059Y-76247598D01*
X177181508Y-76415892D01*
X177184023Y-76419655D01*
X177330345Y-76565977D01*
X177502402Y-76680941D01*
X177693580Y-76760130D01*
X177896535Y-76800500D01*
X177896536Y-76800500D01*
X178103464Y-76800500D01*
X178103465Y-76800500D01*
X178306420Y-76760130D01*
X178497598Y-76680941D01*
X178669655Y-76565977D01*
X178815977Y-76419655D01*
X178930941Y-76247598D01*
X179010130Y-76056420D01*
X179050500Y-75853465D01*
X179050500Y-75646535D01*
X179010130Y-75443580D01*
X178930941Y-75252402D01*
X178815977Y-75080345D01*
X178669655Y-74934023D01*
X178660380Y-74927826D01*
X178497598Y-74819059D01*
X178306420Y-74739870D01*
X178306413Y-74739868D01*
X178153516Y-74709455D01*
X178103465Y-74699500D01*
X177896535Y-74699500D01*
X177856385Y-74707486D01*
X177693586Y-74739868D01*
X177693579Y-74739870D01*
X177502401Y-74819059D01*
X177330345Y-74934022D01*
X177330344Y-74934024D01*
X177184024Y-75080344D01*
X177184022Y-75080345D01*
X177069059Y-75252401D01*
X176989870Y-75443579D01*
X176989868Y-75443586D01*
X176949500Y-75646535D01*
X175788016Y-75646535D01*
X175781392Y-75621814D01*
X175715500Y-75507686D01*
X175622314Y-75414500D01*
X175585389Y-75393181D01*
X175508190Y-75348610D01*
X175508181Y-75348606D01*
X175380894Y-75314500D01*
X175380892Y-75314500D01*
X175249108Y-75314500D01*
X175249106Y-75314500D01*
X175121818Y-75348606D01*
X175121809Y-75348610D01*
X175007685Y-75414500D01*
X174914500Y-75507685D01*
X174848610Y-75621809D01*
X174848606Y-75621818D01*
X174814500Y-75749105D01*
X172800500Y-75749105D01*
X172800500Y-73106535D01*
X176949500Y-73106535D01*
X176949500Y-73313465D01*
X176956211Y-73347202D01*
X176989868Y-73516413D01*
X176989870Y-73516420D01*
X177069059Y-73707598D01*
X177180578Y-73874500D01*
X177184023Y-73879655D01*
X177330345Y-74025977D01*
X177502402Y-74140941D01*
X177693580Y-74220130D01*
X177896535Y-74260500D01*
X177896536Y-74260500D01*
X178103464Y-74260500D01*
X178103465Y-74260500D01*
X178306420Y-74220130D01*
X178497598Y-74140941D01*
X178669655Y-74025977D01*
X178815977Y-73879655D01*
X178930941Y-73707598D01*
X179010130Y-73516420D01*
X179050500Y-73313465D01*
X179050500Y-73106535D01*
X179010130Y-72903580D01*
X178930941Y-72712402D01*
X178815977Y-72540345D01*
X178669655Y-72394023D01*
X178634842Y-72370762D01*
X178497598Y-72279059D01*
X178306420Y-72199870D01*
X178306413Y-72199868D01*
X178153516Y-72169455D01*
X178103465Y-72159500D01*
X177896535Y-72159500D01*
X177856385Y-72167486D01*
X177693586Y-72199868D01*
X177693579Y-72199870D01*
X177502401Y-72279059D01*
X177330345Y-72394022D01*
X177330344Y-72394024D01*
X177184024Y-72540344D01*
X177184022Y-72540345D01*
X177069059Y-72712401D01*
X176989870Y-72903579D01*
X176989868Y-72903586D01*
X176955763Y-73075047D01*
X176949500Y-73106535D01*
X172800500Y-73106535D01*
X172800500Y-70566535D01*
X176949500Y-70566535D01*
X176949500Y-70773464D01*
X176989868Y-70976413D01*
X176989870Y-70976420D01*
X177069059Y-71167598D01*
X177184023Y-71339655D01*
X177330345Y-71485977D01*
X177502402Y-71600941D01*
X177693580Y-71680130D01*
X177896535Y-71720500D01*
X177896536Y-71720500D01*
X178103464Y-71720500D01*
X178103465Y-71720500D01*
X178306420Y-71680130D01*
X178497598Y-71600941D01*
X178669655Y-71485977D01*
X178815977Y-71339655D01*
X178930941Y-71167598D01*
X179010130Y-70976420D01*
X179050500Y-70773465D01*
X179050500Y-70566535D01*
X179010130Y-70363580D01*
X178930941Y-70172402D01*
X178815977Y-70000345D01*
X178669655Y-69854023D01*
X178654675Y-69844014D01*
X178497598Y-69739059D01*
X178306420Y-69659870D01*
X178306413Y-69659868D01*
X178153516Y-69629455D01*
X178103465Y-69619500D01*
X177896535Y-69619500D01*
X177856385Y-69627486D01*
X177693586Y-69659868D01*
X177693579Y-69659870D01*
X177502401Y-69739059D01*
X177330345Y-69854022D01*
X177330344Y-69854024D01*
X177184024Y-70000344D01*
X177184022Y-70000345D01*
X177069059Y-70172401D01*
X176989870Y-70363579D01*
X176989868Y-70363586D01*
X176949500Y-70566535D01*
X172800500Y-70566535D01*
X172800500Y-63896535D01*
X174159500Y-63896535D01*
X174159500Y-64103464D01*
X174199868Y-64306413D01*
X174199870Y-64306420D01*
X174279059Y-64497598D01*
X174387237Y-64659500D01*
X174394023Y-64669655D01*
X174540345Y-64815977D01*
X174712402Y-64930941D01*
X174903580Y-65010130D01*
X175106535Y-65050500D01*
X175106536Y-65050500D01*
X175313464Y-65050500D01*
X175313465Y-65050500D01*
X175516420Y-65010130D01*
X175707598Y-64930941D01*
X175879655Y-64815977D01*
X176025977Y-64669655D01*
X176140941Y-64497598D01*
X176220130Y-64306420D01*
X176260500Y-64103465D01*
X176260500Y-63896535D01*
X176699500Y-63896535D01*
X176699500Y-64103464D01*
X176739868Y-64306413D01*
X176739870Y-64306420D01*
X176819059Y-64497598D01*
X176927237Y-64659500D01*
X176934023Y-64669655D01*
X177080345Y-64815977D01*
X177252402Y-64930941D01*
X177443580Y-65010130D01*
X177646535Y-65050500D01*
X177646536Y-65050500D01*
X177853464Y-65050500D01*
X177853465Y-65050500D01*
X178056420Y-65010130D01*
X178247598Y-64930941D01*
X178419655Y-64815977D01*
X178565977Y-64669655D01*
X178680941Y-64497598D01*
X178760130Y-64306420D01*
X178800500Y-64103465D01*
X178800500Y-63896535D01*
X178760130Y-63693580D01*
X178680941Y-63502402D01*
X178565977Y-63330345D01*
X178419655Y-63184023D01*
X178277241Y-63088866D01*
X178247598Y-63069059D01*
X178056420Y-62989870D01*
X178056413Y-62989868D01*
X177870040Y-62952797D01*
X177853465Y-62949500D01*
X177646535Y-62949500D01*
X177629960Y-62952797D01*
X177443586Y-62989868D01*
X177443579Y-62989870D01*
X177252401Y-63069059D01*
X177080345Y-63184022D01*
X177080344Y-63184024D01*
X176934024Y-63330344D01*
X176934022Y-63330345D01*
X176819059Y-63502401D01*
X176739870Y-63693579D01*
X176739868Y-63693586D01*
X176699500Y-63896535D01*
X176260500Y-63896535D01*
X176220130Y-63693580D01*
X176140941Y-63502402D01*
X176025977Y-63330345D01*
X175879655Y-63184023D01*
X175737241Y-63088866D01*
X175707598Y-63069059D01*
X175516420Y-62989870D01*
X175516413Y-62989868D01*
X175330040Y-62952797D01*
X175313465Y-62949500D01*
X175106535Y-62949500D01*
X175089960Y-62952797D01*
X174903586Y-62989868D01*
X174903579Y-62989870D01*
X174712401Y-63069059D01*
X174540345Y-63184022D01*
X174540344Y-63184024D01*
X174394024Y-63330344D01*
X174394022Y-63330345D01*
X174279059Y-63502401D01*
X174199870Y-63693579D01*
X174199868Y-63693586D01*
X174159500Y-63896535D01*
X172800500Y-63896535D01*
X172800500Y-62346283D01*
X172788234Y-62300503D01*
X172786125Y-62292634D01*
X172783021Y-62281051D01*
X172780500Y-62261899D01*
X172780500Y-61356535D01*
X176699500Y-61356535D01*
X176699500Y-61563464D01*
X176739868Y-61766413D01*
X176739870Y-61766420D01*
X176819059Y-61957598D01*
X176927237Y-62119500D01*
X176934023Y-62129655D01*
X177080345Y-62275977D01*
X177252402Y-62390941D01*
X177443580Y-62470130D01*
X177646535Y-62510500D01*
X177646536Y-62510500D01*
X177853464Y-62510500D01*
X177853465Y-62510500D01*
X178056420Y-62470130D01*
X178247598Y-62390941D01*
X178419655Y-62275977D01*
X178565977Y-62129655D01*
X178680941Y-61957598D01*
X178760130Y-61766420D01*
X178800500Y-61563465D01*
X178800500Y-61356535D01*
X178760130Y-61153580D01*
X178680941Y-60962402D01*
X178565977Y-60790345D01*
X178419655Y-60644023D01*
X178401375Y-60631809D01*
X178247598Y-60529059D01*
X178056420Y-60449870D01*
X178056413Y-60449868D01*
X177903516Y-60419455D01*
X177853465Y-60409500D01*
X177646535Y-60409500D01*
X177606385Y-60417486D01*
X177443586Y-60449868D01*
X177443579Y-60449870D01*
X177252401Y-60529059D01*
X177080345Y-60644022D01*
X177080344Y-60644024D01*
X176934024Y-60790344D01*
X176934022Y-60790345D01*
X176819059Y-60962401D01*
X176739870Y-61153579D01*
X176739868Y-61153586D01*
X176699500Y-61356535D01*
X172780500Y-61356535D01*
X172780500Y-60589387D01*
X172802174Y-60537061D01*
X174087062Y-59252174D01*
X174139388Y-59230500D01*
X175229059Y-59230500D01*
X175229059Y-59230499D01*
X175381784Y-59189577D01*
X175518716Y-59110520D01*
X175630520Y-58998716D01*
X175709577Y-58861784D01*
X175750499Y-58709059D01*
X175750500Y-58709059D01*
X175750500Y-58550941D01*
X175750499Y-58550940D01*
X175736814Y-58499868D01*
X175709577Y-58398216D01*
X175630520Y-58261284D01*
X175518716Y-58149480D01*
X175381784Y-58070423D01*
X175381781Y-58070422D01*
X175381779Y-58070421D01*
X175229059Y-58029500D01*
X175229057Y-58029500D01*
X174074123Y-58029500D01*
X174021797Y-58007826D01*
X174000123Y-57955500D01*
X174021797Y-57903175D01*
X174138318Y-57786652D01*
X174190643Y-57764977D01*
X174218958Y-57770609D01*
X174260961Y-57788007D01*
X174419286Y-57819500D01*
X174419288Y-57819500D01*
X174580712Y-57819500D01*
X174580714Y-57819500D01*
X174739039Y-57788007D01*
X174888179Y-57726231D01*
X175022401Y-57636547D01*
X175136547Y-57522401D01*
X175226231Y-57388179D01*
X175288007Y-57239039D01*
X175319500Y-57080714D01*
X175319500Y-56919286D01*
X175288007Y-56760961D01*
X175226231Y-56611821D01*
X175136547Y-56477599D01*
X175022401Y-56363453D01*
X174888179Y-56273769D01*
X174888176Y-56273767D01*
X174888175Y-56273767D01*
X174739039Y-56211993D01*
X174739033Y-56211991D01*
X174633009Y-56190902D01*
X174580714Y-56180500D01*
X174419286Y-56180500D01*
X174374403Y-56189427D01*
X174260966Y-56211991D01*
X174260960Y-56211993D01*
X174111824Y-56273767D01*
X173977599Y-56363452D01*
X173977598Y-56363454D01*
X173863454Y-56477598D01*
X173863452Y-56477599D01*
X173811529Y-56555309D01*
X173764437Y-56586775D01*
X173708888Y-56575726D01*
X173688471Y-56555309D01*
X173636547Y-56477599D01*
X173522400Y-56363452D01*
X173473400Y-56330712D01*
X173388179Y-56273769D01*
X173388176Y-56273767D01*
X173388175Y-56273767D01*
X173239039Y-56211993D01*
X173239033Y-56211991D01*
X173133009Y-56190902D01*
X173080714Y-56180500D01*
X172919286Y-56180500D01*
X172874403Y-56189427D01*
X172760966Y-56211991D01*
X172760960Y-56211993D01*
X172611824Y-56273767D01*
X172477599Y-56363452D01*
X172477598Y-56363454D01*
X172363454Y-56477598D01*
X172363452Y-56477599D01*
X172311529Y-56555309D01*
X172264437Y-56586775D01*
X172208888Y-56575726D01*
X172188471Y-56555309D01*
X172136547Y-56477599D01*
X172022400Y-56363452D01*
X171973400Y-56330712D01*
X171888179Y-56273769D01*
X171888176Y-56273767D01*
X171888175Y-56273767D01*
X171739039Y-56211993D01*
X171739033Y-56211991D01*
X171633009Y-56190902D01*
X171580714Y-56180500D01*
X171419286Y-56180500D01*
X171374403Y-56189427D01*
X171260966Y-56211991D01*
X171260960Y-56211993D01*
X171111824Y-56273767D01*
X170977599Y-56363452D01*
X170977598Y-56363454D01*
X170863454Y-56477598D01*
X170863452Y-56477599D01*
X170811529Y-56555309D01*
X170764437Y-56586775D01*
X170708888Y-56575726D01*
X170688471Y-56555309D01*
X170636547Y-56477599D01*
X170522400Y-56363452D01*
X170473400Y-56330712D01*
X170388179Y-56273769D01*
X170388176Y-56273767D01*
X170388175Y-56273767D01*
X170239039Y-56211993D01*
X170239033Y-56211991D01*
X170133009Y-56190902D01*
X170080714Y-56180500D01*
X169919286Y-56180500D01*
X169874403Y-56189427D01*
X169760966Y-56211991D01*
X169760960Y-56211993D01*
X169611824Y-56273767D01*
X169477599Y-56363452D01*
X169477598Y-56363454D01*
X169363454Y-56477598D01*
X169363452Y-56477599D01*
X169311529Y-56555309D01*
X169264437Y-56586775D01*
X169208888Y-56575726D01*
X169188471Y-56555309D01*
X169136547Y-56477599D01*
X169022400Y-56363452D01*
X168973400Y-56330712D01*
X168888179Y-56273769D01*
X168888176Y-56273767D01*
X168888175Y-56273767D01*
X168739039Y-56211993D01*
X168739033Y-56211991D01*
X168633009Y-56190902D01*
X168580714Y-56180500D01*
X168419286Y-56180500D01*
X168374403Y-56189427D01*
X168260966Y-56211991D01*
X168260960Y-56211993D01*
X168218960Y-56229389D01*
X168162323Y-56229387D01*
X168138318Y-56213347D01*
X165942174Y-54017203D01*
X165920500Y-53964877D01*
X165920500Y-49445122D01*
X165942173Y-49392797D01*
X166751519Y-48583450D01*
X166803844Y-48561777D01*
X166832160Y-48567409D01*
X166983580Y-48630130D01*
X167186535Y-48670500D01*
X167186536Y-48670500D01*
X167393464Y-48670500D01*
X167393465Y-48670500D01*
X167596420Y-48630130D01*
X167787598Y-48550941D01*
X167959655Y-48435977D01*
X168073174Y-48322458D01*
X168125500Y-48300784D01*
X168177826Y-48322458D01*
X168199500Y-48374784D01*
X168199500Y-51438005D01*
X168177826Y-51490331D01*
X168153820Y-51506372D01*
X168111822Y-51523768D01*
X167977599Y-51613452D01*
X167977598Y-51613454D01*
X167863454Y-51727598D01*
X167863452Y-51727599D01*
X167811529Y-51805309D01*
X167764437Y-51836775D01*
X167708888Y-51825726D01*
X167688471Y-51805309D01*
X167636547Y-51727599D01*
X167522400Y-51613452D01*
X167473400Y-51580712D01*
X167388179Y-51523769D01*
X167388176Y-51523767D01*
X167388175Y-51523767D01*
X167239039Y-51461993D01*
X167239033Y-51461991D01*
X167133009Y-51440902D01*
X167080714Y-51430500D01*
X166919286Y-51430500D01*
X166881556Y-51438005D01*
X166760966Y-51461991D01*
X166760960Y-51461993D01*
X166611824Y-51523767D01*
X166477599Y-51613452D01*
X166477598Y-51613454D01*
X166363454Y-51727598D01*
X166363452Y-51727599D01*
X166273767Y-51861824D01*
X166211993Y-52010960D01*
X166211991Y-52010966D01*
X166180500Y-52169287D01*
X166180500Y-52330712D01*
X166211991Y-52489033D01*
X166211993Y-52489039D01*
X166249999Y-52580795D01*
X166273769Y-52638179D01*
X166363453Y-52772401D01*
X166477599Y-52886547D01*
X166611821Y-52976231D01*
X166760961Y-53038007D01*
X166919286Y-53069500D01*
X166919288Y-53069500D01*
X167080712Y-53069500D01*
X167080714Y-53069500D01*
X167239039Y-53038007D01*
X167388179Y-52976231D01*
X167522401Y-52886547D01*
X167636547Y-52772401D01*
X167688471Y-52694690D01*
X167735563Y-52663225D01*
X167791112Y-52674274D01*
X167811528Y-52694690D01*
X167863453Y-52772401D01*
X167977599Y-52886547D01*
X168111821Y-52976231D01*
X168260961Y-53038007D01*
X168419286Y-53069500D01*
X168419288Y-53069500D01*
X168580712Y-53069500D01*
X168580714Y-53069500D01*
X168739039Y-53038007D01*
X168888179Y-52976231D01*
X169022401Y-52886547D01*
X169136547Y-52772401D01*
X169188471Y-52694690D01*
X169235563Y-52663225D01*
X169291112Y-52674274D01*
X169311528Y-52694690D01*
X169363453Y-52772401D01*
X169477599Y-52886547D01*
X169611821Y-52976231D01*
X169760961Y-53038007D01*
X169919286Y-53069500D01*
X169919288Y-53069500D01*
X170080712Y-53069500D01*
X170080714Y-53069500D01*
X170239039Y-53038007D01*
X170388179Y-52976231D01*
X170522401Y-52886547D01*
X170636547Y-52772401D01*
X170688471Y-52694690D01*
X170735563Y-52663225D01*
X170791112Y-52674274D01*
X170811528Y-52694690D01*
X170863453Y-52772401D01*
X170977599Y-52886547D01*
X171111821Y-52976231D01*
X171260961Y-53038007D01*
X171419286Y-53069500D01*
X171419288Y-53069500D01*
X171580712Y-53069500D01*
X171580714Y-53069500D01*
X171739039Y-53038007D01*
X171888179Y-52976231D01*
X172022401Y-52886547D01*
X172136547Y-52772401D01*
X172188471Y-52694690D01*
X172235563Y-52663225D01*
X172291112Y-52674274D01*
X172311528Y-52694690D01*
X172363453Y-52772401D01*
X172477599Y-52886547D01*
X172611821Y-52976231D01*
X172760961Y-53038007D01*
X172919286Y-53069500D01*
X172919288Y-53069500D01*
X173080712Y-53069500D01*
X173080714Y-53069500D01*
X173239039Y-53038007D01*
X173388179Y-52976231D01*
X173522401Y-52886547D01*
X173636547Y-52772401D01*
X173688471Y-52694690D01*
X173735563Y-52663225D01*
X173791112Y-52674274D01*
X173811528Y-52694690D01*
X173863453Y-52772401D01*
X173977599Y-52886547D01*
X174111821Y-52976231D01*
X174260961Y-53038007D01*
X174419286Y-53069500D01*
X174419288Y-53069500D01*
X174580712Y-53069500D01*
X174580714Y-53069500D01*
X174739039Y-53038007D01*
X174888179Y-52976231D01*
X175022401Y-52886547D01*
X175136547Y-52772401D01*
X175226231Y-52638179D01*
X175288007Y-52489039D01*
X175319500Y-52330714D01*
X175319500Y-52169286D01*
X175288007Y-52010961D01*
X175226231Y-51861821D01*
X175136547Y-51727599D01*
X175022401Y-51613453D01*
X174888179Y-51523769D01*
X174888176Y-51523767D01*
X174888175Y-51523767D01*
X174739039Y-51461993D01*
X174739033Y-51461991D01*
X174633009Y-51440902D01*
X174580714Y-51430500D01*
X174419286Y-51430500D01*
X174381556Y-51438005D01*
X174260966Y-51461991D01*
X174260960Y-51461993D01*
X174111824Y-51523767D01*
X173977599Y-51613452D01*
X173977598Y-51613454D01*
X173863454Y-51727598D01*
X173863452Y-51727599D01*
X173811529Y-51805309D01*
X173764437Y-51836775D01*
X173708888Y-51825726D01*
X173688471Y-51805309D01*
X173636547Y-51727599D01*
X173522400Y-51613452D01*
X173473400Y-51580712D01*
X173388179Y-51523769D01*
X173388176Y-51523767D01*
X173388175Y-51523767D01*
X173239039Y-51461993D01*
X173239033Y-51461991D01*
X173133009Y-51440902D01*
X173080714Y-51430500D01*
X172919286Y-51430500D01*
X172881556Y-51438005D01*
X172760966Y-51461991D01*
X172760960Y-51461993D01*
X172611824Y-51523767D01*
X172477599Y-51613452D01*
X172477598Y-51613454D01*
X172363454Y-51727598D01*
X172363452Y-51727599D01*
X172311529Y-51805309D01*
X172264437Y-51836775D01*
X172208888Y-51825726D01*
X172188471Y-51805309D01*
X172136547Y-51727599D01*
X172022400Y-51613452D01*
X171973400Y-51580712D01*
X171888179Y-51523769D01*
X171888176Y-51523767D01*
X171888175Y-51523767D01*
X171739039Y-51461993D01*
X171739033Y-51461991D01*
X171633009Y-51440902D01*
X171580714Y-51430500D01*
X171419286Y-51430500D01*
X171381556Y-51438005D01*
X171260966Y-51461991D01*
X171260960Y-51461993D01*
X171111824Y-51523767D01*
X170977599Y-51613452D01*
X170977598Y-51613454D01*
X170863454Y-51727598D01*
X170863452Y-51727599D01*
X170811529Y-51805309D01*
X170764437Y-51836775D01*
X170708888Y-51825726D01*
X170688471Y-51805309D01*
X170636547Y-51727599D01*
X170522400Y-51613452D01*
X170473400Y-51580712D01*
X170388179Y-51523769D01*
X170388176Y-51523767D01*
X170388175Y-51523767D01*
X170239039Y-51461993D01*
X170239033Y-51461991D01*
X170133009Y-51440902D01*
X170080714Y-51430500D01*
X169919286Y-51430500D01*
X169881556Y-51438005D01*
X169760966Y-51461991D01*
X169760960Y-51461993D01*
X169611824Y-51523767D01*
X169477599Y-51613452D01*
X169477598Y-51613454D01*
X169363454Y-51727598D01*
X169363452Y-51727599D01*
X169311529Y-51805309D01*
X169264437Y-51836775D01*
X169208888Y-51825726D01*
X169188471Y-51805309D01*
X169136547Y-51727599D01*
X169022400Y-51613452D01*
X168901663Y-51532779D01*
X168888179Y-51523769D01*
X168888177Y-51523768D01*
X168846180Y-51506372D01*
X168806132Y-51466322D01*
X168800500Y-51438005D01*
X168800500Y-48214039D01*
X168822174Y-48161713D01*
X168874500Y-48140039D01*
X168926826Y-48161713D01*
X168936025Y-48172923D01*
X169014023Y-48289655D01*
X169160345Y-48435977D01*
X169332402Y-48550941D01*
X169523580Y-48630130D01*
X169726535Y-48670500D01*
X169726536Y-48670500D01*
X169933464Y-48670500D01*
X169933465Y-48670500D01*
X170136420Y-48630130D01*
X170327598Y-48550941D01*
X170499655Y-48435977D01*
X170645977Y-48289655D01*
X170760941Y-48117598D01*
X170840130Y-47926420D01*
X170880500Y-47723465D01*
X170880500Y-47516535D01*
X170840130Y-47313580D01*
X170760941Y-47122402D01*
X170645977Y-46950345D01*
X170499655Y-46804023D01*
X170327598Y-46689059D01*
X170176181Y-46626339D01*
X170136133Y-46586290D01*
X170130500Y-46557972D01*
X170130500Y-46142027D01*
X170152174Y-46089701D01*
X170176179Y-46073660D01*
X170327598Y-46010941D01*
X170499655Y-45895977D01*
X170645977Y-45749655D01*
X170760941Y-45577598D01*
X170840130Y-45386420D01*
X170880500Y-45183465D01*
X170880500Y-44976535D01*
X171319500Y-44976535D01*
X171319500Y-45183464D01*
X171359868Y-45386413D01*
X171359870Y-45386420D01*
X171439059Y-45577598D01*
X171554023Y-45749655D01*
X171700345Y-45895977D01*
X171872402Y-46010941D01*
X172023819Y-46073660D01*
X172063867Y-46113708D01*
X172069500Y-46142027D01*
X172069500Y-46557972D01*
X172047826Y-46610298D01*
X172023819Y-46626339D01*
X171872401Y-46689059D01*
X171700345Y-46804022D01*
X171700344Y-46804024D01*
X171554024Y-46950344D01*
X171554022Y-46950345D01*
X171439059Y-47122401D01*
X171359870Y-47313579D01*
X171359868Y-47313586D01*
X171319500Y-47516535D01*
X171319500Y-47723464D01*
X171359868Y-47926413D01*
X171359870Y-47926420D01*
X171439059Y-48117598D01*
X171554023Y-48289655D01*
X171700345Y-48435977D01*
X171872402Y-48550941D01*
X172063580Y-48630130D01*
X172266535Y-48670500D01*
X172266536Y-48670500D01*
X172473464Y-48670500D01*
X172473465Y-48670500D01*
X172676420Y-48630130D01*
X172867598Y-48550941D01*
X173039655Y-48435977D01*
X173185977Y-48289655D01*
X173300941Y-48117598D01*
X173380130Y-47926420D01*
X173420500Y-47723465D01*
X173420500Y-47516535D01*
X173380130Y-47313580D01*
X173300941Y-47122402D01*
X173185977Y-46950345D01*
X173039655Y-46804023D01*
X172867598Y-46689059D01*
X172716181Y-46626339D01*
X172676133Y-46586290D01*
X172670500Y-46557972D01*
X172670500Y-46142027D01*
X172692174Y-46089701D01*
X172716179Y-46073660D01*
X172867598Y-46010941D01*
X173039655Y-45895977D01*
X173185977Y-45749655D01*
X173300941Y-45577598D01*
X173380130Y-45386420D01*
X173420500Y-45183465D01*
X173420500Y-44976535D01*
X173859500Y-44976535D01*
X173859500Y-45183464D01*
X173899868Y-45386413D01*
X173899870Y-45386420D01*
X173979059Y-45577598D01*
X174094023Y-45749655D01*
X174240345Y-45895977D01*
X174412402Y-46010941D01*
X174563819Y-46073660D01*
X174603867Y-46113708D01*
X174609500Y-46142027D01*
X174609500Y-46557972D01*
X174587826Y-46610298D01*
X174563819Y-46626339D01*
X174412401Y-46689059D01*
X174240345Y-46804022D01*
X174240344Y-46804024D01*
X174094024Y-46950344D01*
X174094022Y-46950345D01*
X173979059Y-47122401D01*
X173899870Y-47313579D01*
X173899868Y-47313586D01*
X173859500Y-47516535D01*
X173859500Y-47723464D01*
X173899868Y-47926413D01*
X173899870Y-47926420D01*
X173979059Y-48117598D01*
X174094023Y-48289655D01*
X174240345Y-48435977D01*
X174412402Y-48550941D01*
X174603580Y-48630130D01*
X174806535Y-48670500D01*
X174806536Y-48670500D01*
X175013464Y-48670500D01*
X175013465Y-48670500D01*
X175216420Y-48630130D01*
X175407598Y-48550941D01*
X175579655Y-48435977D01*
X175725977Y-48289655D01*
X175840941Y-48117598D01*
X175920130Y-47926420D01*
X175960500Y-47723465D01*
X175960500Y-47516535D01*
X175920130Y-47313580D01*
X175840941Y-47122402D01*
X175725977Y-46950345D01*
X175579655Y-46804023D01*
X175407598Y-46689059D01*
X175256181Y-46626339D01*
X175216133Y-46586290D01*
X175210500Y-46557972D01*
X175210500Y-46142027D01*
X175232174Y-46089701D01*
X175256179Y-46073660D01*
X175407598Y-46010941D01*
X175579655Y-45895977D01*
X175725977Y-45749655D01*
X175840941Y-45577598D01*
X175920130Y-45386420D01*
X175960500Y-45183465D01*
X175960500Y-44976535D01*
X176399500Y-44976535D01*
X176399500Y-45183464D01*
X176439868Y-45386413D01*
X176439870Y-45386420D01*
X176519059Y-45577598D01*
X176634023Y-45749655D01*
X176780345Y-45895977D01*
X176952402Y-46010941D01*
X177103819Y-46073660D01*
X177143867Y-46113708D01*
X177149500Y-46142027D01*
X177149500Y-46557972D01*
X177127826Y-46610298D01*
X177103819Y-46626339D01*
X176952401Y-46689059D01*
X176780345Y-46804022D01*
X176780344Y-46804024D01*
X176634024Y-46950344D01*
X176634022Y-46950345D01*
X176519059Y-47122401D01*
X176439870Y-47313579D01*
X176439868Y-47313586D01*
X176399500Y-47516535D01*
X176399500Y-47723464D01*
X176439868Y-47926413D01*
X176439870Y-47926420D01*
X176519059Y-48117598D01*
X176634023Y-48289655D01*
X176780345Y-48435977D01*
X176952402Y-48550941D01*
X177143580Y-48630130D01*
X177346535Y-48670500D01*
X177346536Y-48670500D01*
X177553464Y-48670500D01*
X177553465Y-48670500D01*
X177756420Y-48630130D01*
X177947598Y-48550941D01*
X178119655Y-48435977D01*
X178265977Y-48289655D01*
X178380941Y-48117598D01*
X178460130Y-47926420D01*
X178500500Y-47723465D01*
X178500500Y-47516535D01*
X178460130Y-47313580D01*
X178380941Y-47122402D01*
X178265977Y-46950345D01*
X178119655Y-46804023D01*
X177947598Y-46689059D01*
X177796181Y-46626339D01*
X177756133Y-46586290D01*
X177750500Y-46557972D01*
X177750500Y-46142027D01*
X177772174Y-46089701D01*
X177796179Y-46073660D01*
X177947598Y-46010941D01*
X178119655Y-45895977D01*
X178265977Y-45749655D01*
X178380941Y-45577598D01*
X178460130Y-45386420D01*
X178500500Y-45183465D01*
X178500500Y-44976535D01*
X178460130Y-44773580D01*
X178380941Y-44582402D01*
X178265977Y-44410345D01*
X178119655Y-44264023D01*
X178039180Y-44210252D01*
X177947598Y-44149059D01*
X177756420Y-44069870D01*
X177756413Y-44069868D01*
X177603516Y-44039455D01*
X177553465Y-44029500D01*
X177346535Y-44029500D01*
X177306385Y-44037486D01*
X177143586Y-44069868D01*
X177143579Y-44069870D01*
X176952401Y-44149059D01*
X176780345Y-44264022D01*
X176780344Y-44264024D01*
X176634024Y-44410344D01*
X176634022Y-44410345D01*
X176519059Y-44582401D01*
X176439870Y-44773579D01*
X176439868Y-44773586D01*
X176399500Y-44976535D01*
X175960500Y-44976535D01*
X175920130Y-44773580D01*
X175840941Y-44582402D01*
X175725977Y-44410345D01*
X175579655Y-44264023D01*
X175499180Y-44210252D01*
X175407598Y-44149059D01*
X175216420Y-44069870D01*
X175216413Y-44069868D01*
X175063516Y-44039455D01*
X175013465Y-44029500D01*
X174806535Y-44029500D01*
X174766385Y-44037486D01*
X174603586Y-44069868D01*
X174603579Y-44069870D01*
X174412401Y-44149059D01*
X174240345Y-44264022D01*
X174240344Y-44264024D01*
X174094024Y-44410344D01*
X174094022Y-44410345D01*
X173979059Y-44582401D01*
X173899870Y-44773579D01*
X173899868Y-44773586D01*
X173859500Y-44976535D01*
X173420500Y-44976535D01*
X173380130Y-44773580D01*
X173300941Y-44582402D01*
X173185977Y-44410345D01*
X173039655Y-44264023D01*
X172959180Y-44210252D01*
X172867598Y-44149059D01*
X172676420Y-44069870D01*
X172676413Y-44069868D01*
X172523516Y-44039455D01*
X172473465Y-44029500D01*
X172266535Y-44029500D01*
X172226385Y-44037486D01*
X172063586Y-44069868D01*
X172063579Y-44069870D01*
X171872401Y-44149059D01*
X171700345Y-44264022D01*
X171700344Y-44264024D01*
X171554024Y-44410344D01*
X171554022Y-44410345D01*
X171439059Y-44582401D01*
X171359870Y-44773579D01*
X171359868Y-44773586D01*
X171319500Y-44976535D01*
X170880500Y-44976535D01*
X170840130Y-44773580D01*
X170760941Y-44582402D01*
X170645977Y-44410345D01*
X170499655Y-44264023D01*
X170419180Y-44210252D01*
X170327598Y-44149059D01*
X170136420Y-44069870D01*
X170136413Y-44069868D01*
X169983516Y-44039455D01*
X169933465Y-44029500D01*
X169726535Y-44029500D01*
X169686385Y-44037486D01*
X169523586Y-44069868D01*
X169523579Y-44069870D01*
X169332401Y-44149059D01*
X169160345Y-44264022D01*
X169160344Y-44264024D01*
X169014024Y-44410344D01*
X169014022Y-44410345D01*
X168899059Y-44582401D01*
X168819870Y-44773579D01*
X168819868Y-44773586D01*
X168779500Y-44976535D01*
X168779500Y-45183464D01*
X168819868Y-45386413D01*
X168819870Y-45386420D01*
X168899059Y-45577598D01*
X169014023Y-45749655D01*
X169160345Y-45895977D01*
X169332402Y-46010941D01*
X169483819Y-46073660D01*
X169523867Y-46113708D01*
X169529500Y-46142027D01*
X169529500Y-46557972D01*
X169507826Y-46610298D01*
X169483819Y-46626339D01*
X169332401Y-46689059D01*
X169160345Y-46804022D01*
X169160344Y-46804024D01*
X169014024Y-46950344D01*
X169014022Y-46950345D01*
X168936029Y-47067072D01*
X168888937Y-47098538D01*
X168833388Y-47087489D01*
X168801922Y-47040397D01*
X168800500Y-47025960D01*
X168800500Y-46250436D01*
X168800499Y-46250435D01*
X168780022Y-46174014D01*
X168780020Y-46174009D01*
X168754900Y-46130500D01*
X168740460Y-46105489D01*
X168684511Y-46049540D01*
X168253452Y-45618481D01*
X168231778Y-45566155D01*
X168237411Y-45537836D01*
X168300130Y-45386420D01*
X168340500Y-45183465D01*
X168340500Y-44976535D01*
X168300130Y-44773580D01*
X168220941Y-44582402D01*
X168105977Y-44410345D01*
X167959655Y-44264023D01*
X167879180Y-44210252D01*
X167787598Y-44149059D01*
X167596420Y-44069870D01*
X167596413Y-44069868D01*
X167443516Y-44039455D01*
X167393465Y-44029500D01*
X167186535Y-44029500D01*
X167146385Y-44037486D01*
X166983586Y-44069868D01*
X166983579Y-44069870D01*
X166792401Y-44149059D01*
X166620345Y-44264022D01*
X166620344Y-44264024D01*
X166474024Y-44410344D01*
X166474022Y-44410345D01*
X166359059Y-44582401D01*
X166279870Y-44773579D01*
X166279868Y-44773586D01*
X166239500Y-44976535D01*
X166239500Y-45183464D01*
X166279868Y-45386413D01*
X166279870Y-45386420D01*
X166359059Y-45577598D01*
X166474023Y-45749655D01*
X166620345Y-45895977D01*
X166792402Y-46010941D01*
X166983580Y-46090130D01*
X167186535Y-46130500D01*
X167186536Y-46130500D01*
X167393464Y-46130500D01*
X167393465Y-46130500D01*
X167596420Y-46090130D01*
X167747836Y-46027411D01*
X167804474Y-46027411D01*
X167828481Y-46043452D01*
X168177826Y-46392797D01*
X168199500Y-46445123D01*
X168199500Y-46865216D01*
X168177826Y-46917542D01*
X168125500Y-46939216D01*
X168073174Y-46917542D01*
X167959654Y-46804022D01*
X167787598Y-46689059D01*
X167596420Y-46609870D01*
X167596413Y-46609868D01*
X167443516Y-46579455D01*
X167393465Y-46569500D01*
X167186535Y-46569500D01*
X167146385Y-46577486D01*
X166983586Y-46609868D01*
X166983579Y-46609870D01*
X166792401Y-46689059D01*
X166620345Y-46804022D01*
X166620344Y-46804024D01*
X166474024Y-46950344D01*
X166474022Y-46950345D01*
X166359059Y-47122401D01*
X166279870Y-47313579D01*
X166279868Y-47313586D01*
X166239500Y-47516535D01*
X166239500Y-47723464D01*
X166279868Y-47926413D01*
X166279871Y-47926424D01*
X166342588Y-48077836D01*
X166342588Y-48134473D01*
X166326547Y-48158480D01*
X165435489Y-49049540D01*
X165379540Y-49105488D01*
X165339979Y-49174009D01*
X165339977Y-49174014D01*
X165319500Y-49250435D01*
X165319500Y-54159564D01*
X165339977Y-54235985D01*
X165339978Y-54235987D01*
X165339979Y-54235989D01*
X165359854Y-54270413D01*
X165379540Y-54304511D01*
X165379541Y-54304512D01*
X167129203Y-56054174D01*
X167150877Y-56106500D01*
X167129203Y-56158826D01*
X167076877Y-56180500D01*
X166919286Y-56180500D01*
X166874403Y-56189427D01*
X166760966Y-56211991D01*
X166760960Y-56211993D01*
X166611824Y-56273767D01*
X166477599Y-56363452D01*
X166477598Y-56363454D01*
X166363454Y-56477598D01*
X166363452Y-56477599D01*
X166273767Y-56611824D01*
X166211993Y-56760960D01*
X166211991Y-56760966D01*
X166180500Y-56919287D01*
X166180500Y-57080712D01*
X166211991Y-57239033D01*
X166211993Y-57239039D01*
X166249999Y-57330795D01*
X166273769Y-57388179D01*
X166338450Y-57484981D01*
X166351417Y-57504388D01*
X166362466Y-57559937D01*
X166331000Y-57607029D01*
X166289888Y-57619500D01*
X159075123Y-57619500D01*
X159022797Y-57597826D01*
X158620797Y-57195826D01*
X158599123Y-57143500D01*
X158620797Y-57091174D01*
X158673123Y-57069500D01*
X158830712Y-57069500D01*
X158830714Y-57069500D01*
X158989039Y-57038007D01*
X159138179Y-56976231D01*
X159272401Y-56886547D01*
X159386547Y-56772401D01*
X159438471Y-56694690D01*
X159485563Y-56663225D01*
X159541112Y-56674274D01*
X159561528Y-56694690D01*
X159613453Y-56772401D01*
X159727599Y-56886547D01*
X159861821Y-56976231D01*
X160010961Y-57038007D01*
X160169286Y-57069500D01*
X160169288Y-57069500D01*
X160330712Y-57069500D01*
X160330714Y-57069500D01*
X160489039Y-57038007D01*
X160638179Y-56976231D01*
X160772401Y-56886547D01*
X160886547Y-56772401D01*
X160938471Y-56694690D01*
X160985563Y-56663225D01*
X161041112Y-56674274D01*
X161061528Y-56694690D01*
X161113453Y-56772401D01*
X161227599Y-56886547D01*
X161361821Y-56976231D01*
X161510961Y-57038007D01*
X161669286Y-57069500D01*
X161669288Y-57069500D01*
X161830712Y-57069500D01*
X161830714Y-57069500D01*
X161989039Y-57038007D01*
X162138179Y-56976231D01*
X162272401Y-56886547D01*
X162386547Y-56772401D01*
X162438471Y-56694690D01*
X162485563Y-56663225D01*
X162541112Y-56674274D01*
X162561528Y-56694690D01*
X162613453Y-56772401D01*
X162727599Y-56886547D01*
X162861821Y-56976231D01*
X163010961Y-57038007D01*
X163169286Y-57069500D01*
X163169288Y-57069500D01*
X163330712Y-57069500D01*
X163330714Y-57069500D01*
X163489039Y-57038007D01*
X163638179Y-56976231D01*
X163772401Y-56886547D01*
X163886547Y-56772401D01*
X163976231Y-56638179D01*
X164038007Y-56489039D01*
X164069500Y-56330714D01*
X164069500Y-56169286D01*
X164038007Y-56010961D01*
X163976231Y-55861821D01*
X163886547Y-55727599D01*
X163772401Y-55613453D01*
X163638179Y-55523769D01*
X163638176Y-55523767D01*
X163638175Y-55523767D01*
X163489039Y-55461993D01*
X163489033Y-55461991D01*
X163383009Y-55440902D01*
X163330714Y-55430500D01*
X163173122Y-55430500D01*
X163120796Y-55408826D01*
X163099122Y-55356500D01*
X163120796Y-55304174D01*
X163599471Y-54825499D01*
X164410460Y-54014511D01*
X164450021Y-53945989D01*
X164470499Y-53869564D01*
X164470500Y-53869564D01*
X164470500Y-49540438D01*
X164452835Y-49474510D01*
X164452835Y-49474509D01*
X164452833Y-49474505D01*
X164450022Y-49464012D01*
X164410460Y-49395489D01*
X163173452Y-48158481D01*
X163151778Y-48106155D01*
X163157411Y-48077836D01*
X163220130Y-47926420D01*
X163260500Y-47723465D01*
X163260500Y-47516535D01*
X163699500Y-47516535D01*
X163699500Y-47723464D01*
X163739868Y-47926413D01*
X163739870Y-47926420D01*
X163819059Y-48117598D01*
X163934023Y-48289655D01*
X164080345Y-48435977D01*
X164252402Y-48550941D01*
X164443580Y-48630130D01*
X164646535Y-48670500D01*
X164646536Y-48670500D01*
X164853464Y-48670500D01*
X164853465Y-48670500D01*
X165056420Y-48630130D01*
X165247598Y-48550941D01*
X165419655Y-48435977D01*
X165565977Y-48289655D01*
X165680941Y-48117598D01*
X165760130Y-47926420D01*
X165800500Y-47723465D01*
X165800500Y-47516535D01*
X165760130Y-47313580D01*
X165680941Y-47122402D01*
X165565977Y-46950345D01*
X165419655Y-46804023D01*
X165247598Y-46689059D01*
X165056420Y-46609870D01*
X165056413Y-46609868D01*
X164903516Y-46579455D01*
X164853465Y-46569500D01*
X164646535Y-46569500D01*
X164606385Y-46577486D01*
X164443586Y-46609868D01*
X164443579Y-46609870D01*
X164252401Y-46689059D01*
X164080345Y-46804022D01*
X164080344Y-46804024D01*
X163934024Y-46950344D01*
X163934022Y-46950345D01*
X163819059Y-47122401D01*
X163739870Y-47313579D01*
X163739868Y-47313586D01*
X163699500Y-47516535D01*
X163260500Y-47516535D01*
X163220130Y-47313580D01*
X163140941Y-47122402D01*
X163025977Y-46950345D01*
X162879655Y-46804023D01*
X162707598Y-46689059D01*
X162516420Y-46609870D01*
X162516413Y-46609868D01*
X162363516Y-46579455D01*
X162313465Y-46569500D01*
X162106535Y-46569500D01*
X162066385Y-46577486D01*
X161903586Y-46609868D01*
X161903579Y-46609870D01*
X161712401Y-46689059D01*
X161540345Y-46804022D01*
X161540344Y-46804024D01*
X161394024Y-46950344D01*
X161394022Y-46950345D01*
X161279059Y-47122401D01*
X161199870Y-47313579D01*
X161199868Y-47313586D01*
X161159500Y-47516535D01*
X161159500Y-47723464D01*
X161199868Y-47926413D01*
X161199870Y-47926420D01*
X161279059Y-48117598D01*
X161394023Y-48289655D01*
X161540345Y-48435977D01*
X161712402Y-48550941D01*
X161903580Y-48630130D01*
X162106535Y-48670500D01*
X162106536Y-48670500D01*
X162313464Y-48670500D01*
X162313465Y-48670500D01*
X162516420Y-48630130D01*
X162667836Y-48567411D01*
X162724474Y-48567411D01*
X162748481Y-48583452D01*
X163847826Y-49682797D01*
X163869500Y-49735123D01*
X163869500Y-50789888D01*
X163847826Y-50842214D01*
X163795500Y-50863888D01*
X163754388Y-50851417D01*
X163734981Y-50838450D01*
X163638179Y-50773769D01*
X163638176Y-50773767D01*
X163638175Y-50773767D01*
X163489039Y-50711993D01*
X163489033Y-50711991D01*
X163383009Y-50690902D01*
X163330714Y-50680500D01*
X163169286Y-50680500D01*
X163131556Y-50688005D01*
X163010966Y-50711991D01*
X163010960Y-50711993D01*
X162861824Y-50773767D01*
X162727599Y-50863452D01*
X162727598Y-50863454D01*
X162613454Y-50977598D01*
X162613452Y-50977599D01*
X162561529Y-51055309D01*
X162514437Y-51086775D01*
X162458888Y-51075726D01*
X162438471Y-51055309D01*
X162386547Y-50977599D01*
X162272400Y-50863452D01*
X162228061Y-50833826D01*
X162138179Y-50773769D01*
X162138176Y-50773767D01*
X162138175Y-50773767D01*
X161989039Y-50711993D01*
X161989033Y-50711991D01*
X161883009Y-50690902D01*
X161830714Y-50680500D01*
X161669286Y-50680500D01*
X161631556Y-50688005D01*
X161510966Y-50711991D01*
X161510960Y-50711993D01*
X161361824Y-50773767D01*
X161227599Y-50863452D01*
X161227598Y-50863454D01*
X161113454Y-50977598D01*
X161113452Y-50977599D01*
X161061529Y-51055309D01*
X161014437Y-51086775D01*
X160958888Y-51075726D01*
X160938471Y-51055309D01*
X160886547Y-50977599D01*
X160772400Y-50863452D01*
X160728061Y-50833826D01*
X160638179Y-50773769D01*
X160638176Y-50773767D01*
X160638175Y-50773767D01*
X160489039Y-50711993D01*
X160489033Y-50711991D01*
X160383009Y-50690902D01*
X160330714Y-50680500D01*
X160169286Y-50680500D01*
X160058936Y-50702449D01*
X160003387Y-50691399D01*
X159971922Y-50644307D01*
X159970500Y-50629871D01*
X159970500Y-48682027D01*
X159992174Y-48629701D01*
X160016179Y-48613660D01*
X160167598Y-48550941D01*
X160339655Y-48435977D01*
X160485977Y-48289655D01*
X160600941Y-48117598D01*
X160680130Y-47926420D01*
X160720500Y-47723465D01*
X160720500Y-47516535D01*
X160680130Y-47313580D01*
X160600941Y-47122402D01*
X160485977Y-46950345D01*
X160339655Y-46804023D01*
X160167598Y-46689059D01*
X160016181Y-46626339D01*
X159976133Y-46586290D01*
X159970500Y-46557972D01*
X159970500Y-46142027D01*
X159992174Y-46089701D01*
X160016179Y-46073660D01*
X160167598Y-46010941D01*
X160339655Y-45895977D01*
X160485977Y-45749655D01*
X160600941Y-45577598D01*
X160680130Y-45386420D01*
X160720500Y-45183465D01*
X160720500Y-44976535D01*
X161159500Y-44976535D01*
X161159500Y-45183464D01*
X161199868Y-45386413D01*
X161199870Y-45386420D01*
X161279059Y-45577598D01*
X161394023Y-45749655D01*
X161540345Y-45895977D01*
X161712402Y-46010941D01*
X161903580Y-46090130D01*
X162106535Y-46130500D01*
X162106536Y-46130500D01*
X162313464Y-46130500D01*
X162313465Y-46130500D01*
X162516420Y-46090130D01*
X162707598Y-46010941D01*
X162879655Y-45895977D01*
X163025977Y-45749655D01*
X163140941Y-45577598D01*
X163220130Y-45386420D01*
X163260500Y-45183465D01*
X163260500Y-44976535D01*
X163220130Y-44773580D01*
X163140941Y-44582402D01*
X163025977Y-44410345D01*
X162879655Y-44264023D01*
X162799180Y-44210252D01*
X162707598Y-44149059D01*
X162516420Y-44069870D01*
X162516413Y-44069868D01*
X162363516Y-44039455D01*
X162313465Y-44029500D01*
X162106535Y-44029500D01*
X162066385Y-44037486D01*
X161903586Y-44069868D01*
X161903579Y-44069870D01*
X161712401Y-44149059D01*
X161540345Y-44264022D01*
X161540344Y-44264024D01*
X161394024Y-44410344D01*
X161394022Y-44410345D01*
X161279059Y-44582401D01*
X161199870Y-44773579D01*
X161199868Y-44773586D01*
X161159500Y-44976535D01*
X160720500Y-44976535D01*
X160680130Y-44773580D01*
X160600941Y-44582402D01*
X160485977Y-44410345D01*
X160339655Y-44264023D01*
X160259180Y-44210252D01*
X160167598Y-44149059D01*
X159976420Y-44069870D01*
X159976413Y-44069868D01*
X159823516Y-44039455D01*
X159773465Y-44029500D01*
X159566535Y-44029500D01*
X159526385Y-44037486D01*
X159363586Y-44069868D01*
X159363579Y-44069870D01*
X159172401Y-44149059D01*
X159000345Y-44264022D01*
X159000344Y-44264024D01*
X158854024Y-44410344D01*
X158854022Y-44410345D01*
X158739059Y-44582401D01*
X158659870Y-44773579D01*
X158659868Y-44773586D01*
X158619500Y-44976535D01*
X158619500Y-45183464D01*
X158659868Y-45386413D01*
X158659870Y-45386420D01*
X158739059Y-45577598D01*
X158854023Y-45749655D01*
X159000345Y-45895977D01*
X159172402Y-46010941D01*
X159323819Y-46073660D01*
X159363867Y-46113708D01*
X159369500Y-46142027D01*
X159369500Y-46557972D01*
X159347826Y-46610298D01*
X159323819Y-46626339D01*
X159172401Y-46689059D01*
X159000345Y-46804022D01*
X159000344Y-46804024D01*
X158854024Y-46950344D01*
X158854022Y-46950345D01*
X158739059Y-47122401D01*
X158659870Y-47313579D01*
X158659868Y-47313586D01*
X158619500Y-47516535D01*
X158619500Y-47723464D01*
X158659868Y-47926413D01*
X158659870Y-47926420D01*
X158739059Y-48117598D01*
X158854023Y-48289655D01*
X159000345Y-48435977D01*
X159172402Y-48550941D01*
X159323819Y-48613660D01*
X159363867Y-48653708D01*
X159369500Y-48682027D01*
X159369500Y-50789888D01*
X159347826Y-50842214D01*
X159295500Y-50863888D01*
X159254388Y-50851417D01*
X159157153Y-50786447D01*
X159138179Y-50773769D01*
X159138177Y-50773768D01*
X159096180Y-50756372D01*
X159056132Y-50716322D01*
X159050500Y-50688005D01*
X159050500Y-49200436D01*
X159050499Y-49200435D01*
X159043419Y-49174014D01*
X159030021Y-49124011D01*
X158990460Y-49055489D01*
X158934511Y-48999540D01*
X158093452Y-48158481D01*
X158071778Y-48106155D01*
X158077411Y-48077836D01*
X158140130Y-47926420D01*
X158180500Y-47723465D01*
X158180500Y-47516535D01*
X158140130Y-47313580D01*
X158060941Y-47122402D01*
X157945977Y-46950345D01*
X157799655Y-46804023D01*
X157627598Y-46689059D01*
X157476181Y-46626339D01*
X157436133Y-46586290D01*
X157430500Y-46557972D01*
X157430500Y-46142027D01*
X157452174Y-46089701D01*
X157476179Y-46073660D01*
X157627598Y-46010941D01*
X157799655Y-45895977D01*
X157945977Y-45749655D01*
X158060941Y-45577598D01*
X158140130Y-45386420D01*
X158180500Y-45183465D01*
X158180500Y-44976535D01*
X158140130Y-44773580D01*
X158060941Y-44582402D01*
X157945977Y-44410345D01*
X157799655Y-44264023D01*
X157719180Y-44210252D01*
X157627598Y-44149059D01*
X157436420Y-44069870D01*
X157436413Y-44069868D01*
X157283516Y-44039455D01*
X157233465Y-44029500D01*
X157026535Y-44029500D01*
X156986385Y-44037486D01*
X156823586Y-44069868D01*
X156823579Y-44069870D01*
X156632401Y-44149059D01*
X156460345Y-44264022D01*
X156460344Y-44264024D01*
X156314024Y-44410344D01*
X156314022Y-44410345D01*
X156199059Y-44582401D01*
X156119870Y-44773579D01*
X156119868Y-44773586D01*
X156079500Y-44976535D01*
X156079500Y-45183464D01*
X156119868Y-45386413D01*
X156119870Y-45386420D01*
X156199059Y-45577598D01*
X156314023Y-45749655D01*
X156460345Y-45895977D01*
X156632402Y-46010941D01*
X156783819Y-46073660D01*
X156823867Y-46113708D01*
X156829500Y-46142027D01*
X156829500Y-46557972D01*
X156807826Y-46610298D01*
X156783819Y-46626339D01*
X156632401Y-46689059D01*
X156460345Y-46804022D01*
X156460344Y-46804024D01*
X156314024Y-46950344D01*
X156314022Y-46950345D01*
X156199059Y-47122401D01*
X156119870Y-47313579D01*
X156119868Y-47313586D01*
X156079500Y-47516535D01*
X156079500Y-47723464D01*
X156119868Y-47926413D01*
X156119870Y-47926420D01*
X156199059Y-48117598D01*
X156314023Y-48289655D01*
X156460345Y-48435977D01*
X156632402Y-48550941D01*
X156823580Y-48630130D01*
X157026535Y-48670500D01*
X157026536Y-48670500D01*
X157233464Y-48670500D01*
X157233465Y-48670500D01*
X157436420Y-48630130D01*
X157587836Y-48567411D01*
X157644474Y-48567411D01*
X157668481Y-48583452D01*
X158427826Y-49342797D01*
X158449500Y-49395123D01*
X158449500Y-50688005D01*
X158427826Y-50740331D01*
X158403820Y-50756372D01*
X158361822Y-50773768D01*
X158227599Y-50863452D01*
X158227598Y-50863454D01*
X158113454Y-50977598D01*
X158113452Y-50977599D01*
X158061529Y-51055309D01*
X158014437Y-51086775D01*
X157958888Y-51075726D01*
X157938471Y-51055309D01*
X157886547Y-50977599D01*
X157772400Y-50863452D01*
X157657153Y-50786447D01*
X157638179Y-50773769D01*
X157638177Y-50773768D01*
X157596180Y-50756372D01*
X157556132Y-50716322D01*
X157550500Y-50688005D01*
X157550500Y-50240436D01*
X157550499Y-50240435D01*
X157530022Y-50164014D01*
X157530020Y-50164009D01*
X157502528Y-50116392D01*
X157490460Y-50095489D01*
X157434511Y-50039540D01*
X155553452Y-48158481D01*
X155531778Y-48106155D01*
X155537411Y-48077836D01*
X155600130Y-47926420D01*
X155640500Y-47723465D01*
X155640500Y-47516535D01*
X155600130Y-47313580D01*
X155520941Y-47122402D01*
X155405977Y-46950345D01*
X155259655Y-46804023D01*
X155087598Y-46689059D01*
X154936181Y-46626339D01*
X154896133Y-46586290D01*
X154890500Y-46557972D01*
X154890500Y-46142027D01*
X154912174Y-46089701D01*
X154936179Y-46073660D01*
X155087598Y-46010941D01*
X155259655Y-45895977D01*
X155405977Y-45749655D01*
X155520941Y-45577598D01*
X155600130Y-45386420D01*
X155640500Y-45183465D01*
X155640500Y-44976535D01*
X155600130Y-44773580D01*
X155520941Y-44582402D01*
X155405977Y-44410345D01*
X155259655Y-44264023D01*
X155179180Y-44210252D01*
X155087598Y-44149059D01*
X154896420Y-44069870D01*
X154896413Y-44069868D01*
X154743516Y-44039455D01*
X154693465Y-44029500D01*
X154486535Y-44029500D01*
X154446385Y-44037486D01*
X154283586Y-44069868D01*
X154283579Y-44069870D01*
X154092401Y-44149059D01*
X153920345Y-44264022D01*
X153920344Y-44264024D01*
X153774024Y-44410344D01*
X153774022Y-44410345D01*
X153659059Y-44582401D01*
X153579870Y-44773579D01*
X153579868Y-44773586D01*
X153539500Y-44976535D01*
X153539500Y-45183464D01*
X153579868Y-45386413D01*
X153579870Y-45386420D01*
X153659059Y-45577598D01*
X153774023Y-45749655D01*
X153920345Y-45895977D01*
X154092402Y-46010941D01*
X154243819Y-46073660D01*
X154283867Y-46113708D01*
X154289500Y-46142027D01*
X154289500Y-46557972D01*
X154267826Y-46610298D01*
X154243819Y-46626339D01*
X154092401Y-46689059D01*
X153920345Y-46804022D01*
X153920344Y-46804024D01*
X153774024Y-46950344D01*
X153774022Y-46950345D01*
X153659059Y-47122401D01*
X153579870Y-47313579D01*
X153579868Y-47313586D01*
X153539500Y-47516535D01*
X153539500Y-47723464D01*
X153579868Y-47926413D01*
X153579870Y-47926420D01*
X153659059Y-48117598D01*
X153774023Y-48289655D01*
X153920345Y-48435977D01*
X154092402Y-48550941D01*
X154283580Y-48630130D01*
X154486535Y-48670500D01*
X154486536Y-48670500D01*
X154693464Y-48670500D01*
X154693465Y-48670500D01*
X154896420Y-48630130D01*
X155047836Y-48567411D01*
X155104474Y-48567411D01*
X155128481Y-48583452D01*
X156927826Y-50382797D01*
X156949500Y-50435123D01*
X156949500Y-50688005D01*
X156927826Y-50740331D01*
X156903820Y-50756372D01*
X156861822Y-50773768D01*
X156727599Y-50863452D01*
X156727598Y-50863454D01*
X156613454Y-50977598D01*
X156613452Y-50977599D01*
X156561529Y-51055309D01*
X156514437Y-51086775D01*
X156458888Y-51075726D01*
X156438471Y-51055309D01*
X156386547Y-50977599D01*
X156272400Y-50863452D01*
X156228061Y-50833826D01*
X156138179Y-50773769D01*
X156138176Y-50773767D01*
X156138175Y-50773767D01*
X155989039Y-50711993D01*
X155989033Y-50711991D01*
X155883009Y-50690902D01*
X155830714Y-50680500D01*
X155669286Y-50680500D01*
X155596465Y-50694984D01*
X155540916Y-50683934D01*
X155529703Y-50674732D01*
X153013452Y-48158481D01*
X152991778Y-48106155D01*
X152997411Y-48077836D01*
X153060130Y-47926420D01*
X153100500Y-47723465D01*
X153100500Y-47516535D01*
X153060130Y-47313580D01*
X152980941Y-47122402D01*
X152865977Y-46950345D01*
X152719655Y-46804023D01*
X152547598Y-46689059D01*
X152396181Y-46626339D01*
X152356133Y-46586290D01*
X152350500Y-46557972D01*
X152350500Y-46204500D01*
X152372174Y-46152174D01*
X152424500Y-46130500D01*
X152919746Y-46130500D01*
X152919748Y-46130500D01*
X152978231Y-46118867D01*
X153044552Y-46074552D01*
X153088867Y-46008231D01*
X153100500Y-45949748D01*
X153100500Y-44210252D01*
X153088867Y-44151769D01*
X153087056Y-44149059D01*
X153074027Y-44129560D01*
X153044552Y-44085448D01*
X153021235Y-44069868D01*
X152978232Y-44041133D01*
X152978233Y-44041133D01*
X152948989Y-44035316D01*
X152919748Y-44029500D01*
X151180252Y-44029500D01*
X151151010Y-44035316D01*
X151121767Y-44041133D01*
X151055449Y-44085447D01*
X151055447Y-44085449D01*
X151011133Y-44151767D01*
X150999500Y-44210253D01*
X150999500Y-45949746D01*
X151011133Y-46008232D01*
X151034667Y-46043452D01*
X151055448Y-46074552D01*
X151099560Y-46104027D01*
X151121767Y-46118866D01*
X151121768Y-46118866D01*
X151121769Y-46118867D01*
X151180252Y-46130500D01*
X151675500Y-46130500D01*
X151727826Y-46152174D01*
X151749500Y-46204500D01*
X151749500Y-46557972D01*
X151727826Y-46610298D01*
X151703819Y-46626339D01*
X151552401Y-46689059D01*
X151380345Y-46804022D01*
X151380344Y-46804024D01*
X151234024Y-46950344D01*
X151234022Y-46950345D01*
X151119059Y-47122401D01*
X151039870Y-47313579D01*
X151039868Y-47313586D01*
X150999500Y-47516535D01*
X150999500Y-47723464D01*
X151039868Y-47926413D01*
X151039870Y-47926420D01*
X151119059Y-48117598D01*
X151234023Y-48289655D01*
X151380345Y-48435977D01*
X151552402Y-48550941D01*
X151743580Y-48630130D01*
X151946535Y-48670500D01*
X151946536Y-48670500D01*
X152153464Y-48670500D01*
X152153465Y-48670500D01*
X152356420Y-48630130D01*
X152507836Y-48567411D01*
X152564474Y-48567411D01*
X152588481Y-48583452D01*
X155018109Y-51013080D01*
X155039783Y-51065406D01*
X155027315Y-51106513D01*
X155023769Y-51111820D01*
X154961993Y-51260960D01*
X154961991Y-51260966D01*
X154945268Y-51345041D01*
X154930500Y-51419286D01*
X154930500Y-51580714D01*
X154940902Y-51633009D01*
X154961991Y-51739033D01*
X154961993Y-51739039D01*
X155002476Y-51836775D01*
X155023769Y-51888179D01*
X155113453Y-52022401D01*
X155227599Y-52136547D01*
X155361821Y-52226231D01*
X155510961Y-52288007D01*
X155669286Y-52319500D01*
X155669288Y-52319500D01*
X155830712Y-52319500D01*
X155830714Y-52319500D01*
X155989039Y-52288007D01*
X156138179Y-52226231D01*
X156272401Y-52136547D01*
X156386547Y-52022401D01*
X156438471Y-51944690D01*
X156485563Y-51913225D01*
X156541112Y-51924274D01*
X156561528Y-51944690D01*
X156613453Y-52022401D01*
X156727599Y-52136547D01*
X156861821Y-52226231D01*
X157010961Y-52288007D01*
X157169286Y-52319500D01*
X157169288Y-52319500D01*
X157330712Y-52319500D01*
X157330714Y-52319500D01*
X157489039Y-52288007D01*
X157638179Y-52226231D01*
X157772401Y-52136547D01*
X157886547Y-52022401D01*
X157938471Y-51944690D01*
X157985563Y-51913225D01*
X158041112Y-51924274D01*
X158061528Y-51944690D01*
X158113453Y-52022401D01*
X158227599Y-52136547D01*
X158361821Y-52226231D01*
X158510961Y-52288007D01*
X158669286Y-52319500D01*
X158669288Y-52319500D01*
X158830712Y-52319500D01*
X158830714Y-52319500D01*
X158989039Y-52288007D01*
X159138179Y-52226231D01*
X159272401Y-52136547D01*
X159386547Y-52022401D01*
X159438471Y-51944690D01*
X159485563Y-51913225D01*
X159541112Y-51924274D01*
X159561528Y-51944690D01*
X159613453Y-52022401D01*
X159727599Y-52136547D01*
X159861821Y-52226231D01*
X160010961Y-52288007D01*
X160169286Y-52319500D01*
X160169288Y-52319500D01*
X160330712Y-52319500D01*
X160330714Y-52319500D01*
X160489039Y-52288007D01*
X160638179Y-52226231D01*
X160772401Y-52136547D01*
X160886547Y-52022401D01*
X160938471Y-51944690D01*
X160985563Y-51913225D01*
X161041112Y-51924274D01*
X161061528Y-51944690D01*
X161113453Y-52022401D01*
X161227599Y-52136547D01*
X161361821Y-52226231D01*
X161510961Y-52288007D01*
X161669286Y-52319500D01*
X161669288Y-52319500D01*
X161830712Y-52319500D01*
X161830714Y-52319500D01*
X161989039Y-52288007D01*
X162138179Y-52226231D01*
X162272401Y-52136547D01*
X162386547Y-52022401D01*
X162438471Y-51944690D01*
X162485563Y-51913225D01*
X162541112Y-51924274D01*
X162561528Y-51944690D01*
X162613453Y-52022401D01*
X162727599Y-52136547D01*
X162861821Y-52226231D01*
X163010961Y-52288007D01*
X163169286Y-52319500D01*
X163169288Y-52319500D01*
X163330712Y-52319500D01*
X163330714Y-52319500D01*
X163489039Y-52288007D01*
X163638179Y-52226231D01*
X163754389Y-52148581D01*
X163809937Y-52137533D01*
X163857029Y-52168999D01*
X163869500Y-52210111D01*
X163869500Y-53674876D01*
X163847826Y-53727202D01*
X162111680Y-55463347D01*
X162059354Y-55485021D01*
X162031036Y-55479388D01*
X161989043Y-55461994D01*
X161989033Y-55461991D01*
X161883009Y-55440902D01*
X161830714Y-55430500D01*
X161669286Y-55430500D01*
X161624403Y-55439427D01*
X161510966Y-55461991D01*
X161510960Y-55461993D01*
X161361824Y-55523767D01*
X161227599Y-55613452D01*
X161227598Y-55613454D01*
X161113454Y-55727598D01*
X161113452Y-55727599D01*
X161061529Y-55805309D01*
X161014437Y-55836775D01*
X160958888Y-55825726D01*
X160938471Y-55805309D01*
X160886547Y-55727599D01*
X160772400Y-55613452D01*
X160728061Y-55583826D01*
X160638179Y-55523769D01*
X160638176Y-55523767D01*
X160638175Y-55523767D01*
X160489039Y-55461993D01*
X160489033Y-55461991D01*
X160383009Y-55440902D01*
X160330714Y-55430500D01*
X160169286Y-55430500D01*
X160124403Y-55439427D01*
X160010966Y-55461991D01*
X160010960Y-55461993D01*
X159861824Y-55523767D01*
X159727599Y-55613452D01*
X159727598Y-55613454D01*
X159613454Y-55727598D01*
X159613452Y-55727599D01*
X159561529Y-55805309D01*
X159514437Y-55836775D01*
X159458888Y-55825726D01*
X159438471Y-55805309D01*
X159386547Y-55727599D01*
X159272400Y-55613452D01*
X159228061Y-55583826D01*
X159138179Y-55523769D01*
X159138176Y-55523767D01*
X159138175Y-55523767D01*
X158989039Y-55461993D01*
X158989033Y-55461991D01*
X158883009Y-55440902D01*
X158830714Y-55430500D01*
X158669286Y-55430500D01*
X158624403Y-55439427D01*
X158510966Y-55461991D01*
X158510960Y-55461993D01*
X158361824Y-55523767D01*
X158227599Y-55613452D01*
X158227598Y-55613454D01*
X158113454Y-55727598D01*
X158113452Y-55727599D01*
X158061529Y-55805309D01*
X158014437Y-55836775D01*
X157958888Y-55825726D01*
X157938471Y-55805309D01*
X157886547Y-55727599D01*
X157772400Y-55613452D01*
X157728061Y-55583826D01*
X157638179Y-55523769D01*
X157638176Y-55523767D01*
X157638175Y-55523767D01*
X157489039Y-55461993D01*
X157489033Y-55461991D01*
X157383009Y-55440902D01*
X157330714Y-55430500D01*
X157169286Y-55430500D01*
X157124403Y-55439427D01*
X157010966Y-55461991D01*
X157010960Y-55461993D01*
X156861824Y-55523767D01*
X156727599Y-55613452D01*
X156727598Y-55613454D01*
X156613454Y-55727598D01*
X156613452Y-55727599D01*
X156561529Y-55805309D01*
X156514437Y-55836775D01*
X156458888Y-55825726D01*
X156438471Y-55805309D01*
X156386547Y-55727599D01*
X156272400Y-55613452D01*
X156228061Y-55583826D01*
X156138179Y-55523769D01*
X156138176Y-55523767D01*
X156138175Y-55523767D01*
X155989039Y-55461993D01*
X155989033Y-55461991D01*
X155883009Y-55440902D01*
X155830714Y-55430500D01*
X155669286Y-55430500D01*
X155624403Y-55439427D01*
X155510966Y-55461991D01*
X155510960Y-55461993D01*
X155361824Y-55523767D01*
X155227599Y-55613452D01*
X155227598Y-55613454D01*
X155113454Y-55727598D01*
X155113452Y-55727599D01*
X155023767Y-55861824D01*
X154961993Y-56010960D01*
X154961991Y-56010966D01*
X154953397Y-56054174D01*
X154930500Y-56169286D01*
X154930500Y-56330714D01*
X154940902Y-56383009D01*
X154961991Y-56489033D01*
X154961993Y-56489039D01*
X155002476Y-56586775D01*
X155023769Y-56638179D01*
X155113453Y-56772401D01*
X155227599Y-56886547D01*
X155361821Y-56976231D01*
X155510961Y-57038007D01*
X155669286Y-57069500D01*
X155669288Y-57069500D01*
X155830712Y-57069500D01*
X155830714Y-57069500D01*
X155989039Y-57038007D01*
X156014532Y-57027447D01*
X156031037Y-57020611D01*
X156087674Y-57020611D01*
X156111681Y-57036652D01*
X159182540Y-60107511D01*
X159238489Y-60163460D01*
X159307011Y-60203021D01*
X159307012Y-60203021D01*
X159307014Y-60203022D01*
X159345224Y-60213260D01*
X159383435Y-60223499D01*
X159383436Y-60223500D01*
X159383438Y-60223500D01*
X159462562Y-60223500D01*
X171505499Y-60223500D01*
X171557825Y-60245174D01*
X171579499Y-60297499D01*
X171579499Y-60389057D01*
X171579499Y-60389059D01*
X171579500Y-60395022D01*
X171579500Y-62321737D01*
X171579499Y-62321755D01*
X171579499Y-62484399D01*
X171596978Y-62549628D01*
X171599500Y-62568782D01*
X171599500Y-72257269D01*
X171577826Y-72309595D01*
X171525500Y-72331269D01*
X171473174Y-72309595D01*
X171461415Y-72294271D01*
X171460499Y-72292685D01*
X171367314Y-72199500D01*
X171253190Y-72133610D01*
X171253181Y-72133606D01*
X171125894Y-72099500D01*
X171125892Y-72099500D01*
X170994108Y-72099500D01*
X170994106Y-72099500D01*
X170866818Y-72133606D01*
X170866809Y-72133610D01*
X170752685Y-72199500D01*
X170659500Y-72292685D01*
X170593610Y-72406809D01*
X170593606Y-72406818D01*
X170559500Y-72534105D01*
X170559500Y-72665894D01*
X170593606Y-72793181D01*
X170593610Y-72793190D01*
X170641149Y-72875529D01*
X170659500Y-72907314D01*
X170752686Y-73000500D01*
X170866814Y-73066392D01*
X170994105Y-73100499D01*
X170994106Y-73100500D01*
X170994108Y-73100500D01*
X171125894Y-73100500D01*
X171125894Y-73100499D01*
X171253186Y-73066392D01*
X171367314Y-73000500D01*
X171460500Y-72907314D01*
X171461413Y-72905731D01*
X171462144Y-72905170D01*
X171463452Y-72903467D01*
X171463908Y-72903817D01*
X171506344Y-72871252D01*
X171562497Y-72878642D01*
X171596978Y-72923574D01*
X171599500Y-72942730D01*
X171599500Y-81591394D01*
X171577826Y-81643720D01*
X171525500Y-81665394D01*
X171497334Y-81657854D01*
X171496668Y-81659465D01*
X171492181Y-81657606D01*
X171364894Y-81623500D01*
X171364892Y-81623500D01*
X171233108Y-81623500D01*
X171233106Y-81623500D01*
X171105818Y-81657606D01*
X171105809Y-81657610D01*
X170991685Y-81723500D01*
X170913360Y-81801826D01*
X170861034Y-81823500D01*
X164479180Y-81823500D01*
X164426854Y-81801826D01*
X163483020Y-80857992D01*
X163461346Y-80805666D01*
X163483020Y-80753340D01*
X163516190Y-80734188D01*
X163592110Y-80713846D01*
X163706238Y-80647954D01*
X163799424Y-80554768D01*
X163865316Y-80440640D01*
X163899423Y-80313348D01*
X163899424Y-80313348D01*
X163899424Y-80181560D01*
X163899423Y-80181559D01*
X163865317Y-80054272D01*
X163865316Y-80054268D01*
X163799424Y-79940140D01*
X163706238Y-79846954D01*
X163592111Y-79781062D01*
X163592109Y-79781061D01*
X163561977Y-79772987D01*
X163528806Y-79753835D01*
X158097174Y-74322203D01*
X158075500Y-74269877D01*
X158075500Y-74159106D01*
X158075499Y-74159105D01*
X158046398Y-74050499D01*
X158041392Y-74031814D01*
X157975500Y-73917686D01*
X157975499Y-73917685D01*
X157973075Y-73913486D01*
X157975006Y-73912371D01*
X157962270Y-73864843D01*
X157990587Y-73815793D01*
X158035637Y-73800500D01*
X166344877Y-73800500D01*
X166397203Y-73822174D01*
X167852826Y-75277797D01*
X167874500Y-75330123D01*
X167874500Y-75440894D01*
X167908606Y-75568181D01*
X167908610Y-75568190D01*
X167956132Y-75650500D01*
X167974500Y-75682314D01*
X168067686Y-75775500D01*
X168181814Y-75841392D01*
X168309105Y-75875499D01*
X168309106Y-75875500D01*
X168309108Y-75875500D01*
X168440894Y-75875500D01*
X168440894Y-75875499D01*
X168568186Y-75841392D01*
X168682314Y-75775500D01*
X168775500Y-75682314D01*
X168841392Y-75568186D01*
X168875499Y-75440894D01*
X168875500Y-75440894D01*
X168875500Y-75309106D01*
X168875499Y-75309105D01*
X168860305Y-75252401D01*
X168841392Y-75181814D01*
X168775500Y-75067686D01*
X168682314Y-74974500D01*
X168612206Y-74934023D01*
X168568190Y-74908610D01*
X168568181Y-74908606D01*
X168440894Y-74874500D01*
X168440892Y-74874500D01*
X168330123Y-74874500D01*
X168277797Y-74852826D01*
X166684511Y-73259540D01*
X166633382Y-73230021D01*
X166615989Y-73219979D01*
X166615986Y-73219978D01*
X166615985Y-73219977D01*
X166539564Y-73199500D01*
X166539562Y-73199500D01*
X157278308Y-73199500D01*
X157225982Y-73177826D01*
X157204308Y-73125500D01*
X157225205Y-73075047D01*
X157225092Y-73074960D01*
X157225418Y-73074534D01*
X157225982Y-73073174D01*
X157228045Y-73071111D01*
X157293937Y-72956983D01*
X157328044Y-72829691D01*
X157328045Y-72829691D01*
X157328045Y-72697903D01*
X157328044Y-72697902D01*
X157326646Y-72692686D01*
X157293937Y-72570611D01*
X157228045Y-72456483D01*
X157134859Y-72363297D01*
X157079385Y-72331269D01*
X157020735Y-72297407D01*
X157020726Y-72297403D01*
X156893439Y-72263297D01*
X156893437Y-72263297D01*
X156782668Y-72263297D01*
X156730342Y-72241623D01*
X156572174Y-72083455D01*
X156550500Y-72031129D01*
X156550500Y-70509105D01*
X158074500Y-70509105D01*
X158074500Y-70640894D01*
X158108606Y-70768181D01*
X158108610Y-70768190D01*
X158157203Y-70852355D01*
X158174500Y-70882314D01*
X158267686Y-70975500D01*
X158381814Y-71041392D01*
X158509105Y-71075499D01*
X158509106Y-71075500D01*
X158509108Y-71075500D01*
X158640894Y-71075500D01*
X158640894Y-71075499D01*
X158768186Y-71041392D01*
X158882314Y-70975500D01*
X158975500Y-70882314D01*
X159041392Y-70768186D01*
X159075499Y-70640894D01*
X159075500Y-70640894D01*
X159075500Y-70509106D01*
X159075499Y-70509105D01*
X159041393Y-70381818D01*
X159041392Y-70381814D01*
X158975500Y-70267686D01*
X158882314Y-70174500D01*
X158779469Y-70115122D01*
X158768190Y-70108610D01*
X158768181Y-70108606D01*
X158640894Y-70074500D01*
X158640892Y-70074500D01*
X158509108Y-70074500D01*
X158509106Y-70074500D01*
X158381818Y-70108606D01*
X158381809Y-70108610D01*
X158267685Y-70174500D01*
X158174500Y-70267685D01*
X158108610Y-70381809D01*
X158108606Y-70381818D01*
X158074500Y-70509105D01*
X156550500Y-70509105D01*
X156550500Y-67224500D01*
X156572174Y-67172174D01*
X156624500Y-67150500D01*
X156654258Y-67150500D01*
X156654266Y-67150500D01*
X156684699Y-67147646D01*
X156812882Y-67102793D01*
X156922150Y-67022150D01*
X157002793Y-66912882D01*
X157047646Y-66784699D01*
X157050500Y-66754266D01*
X157050500Y-65745734D01*
X157449500Y-65745734D01*
X157449500Y-66754266D01*
X157452354Y-66784699D01*
X157452354Y-66784701D01*
X157452355Y-66784704D01*
X157497206Y-66912881D01*
X157497207Y-66912883D01*
X157577846Y-67022146D01*
X157577853Y-67022153D01*
X157687116Y-67102792D01*
X157687118Y-67102793D01*
X157815295Y-67147644D01*
X157815301Y-67147646D01*
X157845734Y-67150500D01*
X157845741Y-67150500D01*
X158654258Y-67150500D01*
X158654266Y-67150500D01*
X158684699Y-67147646D01*
X158812882Y-67102793D01*
X158922150Y-67022150D01*
X159002793Y-66912882D01*
X159047646Y-66784699D01*
X159050500Y-66754266D01*
X159050500Y-65745734D01*
X159047646Y-65715301D01*
X159002793Y-65587118D01*
X159002792Y-65587116D01*
X158922153Y-65477853D01*
X158922146Y-65477846D01*
X158812883Y-65397207D01*
X158812881Y-65397206D01*
X158684704Y-65352355D01*
X158684705Y-65352355D01*
X158684700Y-65352354D01*
X158684699Y-65352354D01*
X158654266Y-65349500D01*
X158654260Y-65349500D01*
X158624500Y-65349500D01*
X158572174Y-65327826D01*
X158550500Y-65275500D01*
X158550500Y-64788332D01*
X158572173Y-64736007D01*
X158639198Y-64668983D01*
X158690573Y-64563893D01*
X158700500Y-64495760D01*
X158700500Y-63254240D01*
X158690573Y-63186107D01*
X158639198Y-63081017D01*
X158556483Y-62998302D01*
X158556482Y-62998301D01*
X158451394Y-62946927D01*
X158383264Y-62937000D01*
X158383260Y-62937000D01*
X158016740Y-62937000D01*
X158016735Y-62937000D01*
X157948606Y-62946927D01*
X157948605Y-62946927D01*
X157843517Y-62998301D01*
X157760801Y-63081017D01*
X157709427Y-63186105D01*
X157709427Y-63186106D01*
X157699500Y-63254235D01*
X157699500Y-64495764D01*
X157709427Y-64563893D01*
X157709427Y-64563894D01*
X157760801Y-64668982D01*
X157760802Y-64668983D01*
X157843517Y-64751698D01*
X157908000Y-64783222D01*
X157945490Y-64825673D01*
X157949500Y-64849702D01*
X157949500Y-65275500D01*
X157927826Y-65327826D01*
X157875500Y-65349500D01*
X157845734Y-65349500D01*
X157815301Y-65352354D01*
X157815299Y-65352354D01*
X157815295Y-65352355D01*
X157687118Y-65397206D01*
X157687116Y-65397207D01*
X157577853Y-65477846D01*
X157577846Y-65477853D01*
X157497207Y-65587116D01*
X157497206Y-65587118D01*
X157452355Y-65715295D01*
X157452354Y-65715299D01*
X157452354Y-65715301D01*
X157449500Y-65745734D01*
X157050500Y-65745734D01*
X157047646Y-65715301D01*
X157002793Y-65587118D01*
X157002792Y-65587116D01*
X156922153Y-65477853D01*
X156922146Y-65477846D01*
X156812883Y-65397207D01*
X156812881Y-65397206D01*
X156684704Y-65352355D01*
X156684705Y-65352355D01*
X156684700Y-65352354D01*
X156684699Y-65352354D01*
X156654266Y-65349500D01*
X155845734Y-65349500D01*
X155815301Y-65352354D01*
X155815299Y-65352354D01*
X155815295Y-65352355D01*
X155687118Y-65397206D01*
X155687116Y-65397207D01*
X155577853Y-65477846D01*
X155577846Y-65477853D01*
X155497207Y-65587116D01*
X155497206Y-65587118D01*
X155452355Y-65715295D01*
X155452354Y-65715299D01*
X155452354Y-65715301D01*
X155449500Y-65745734D01*
X155449500Y-66754266D01*
X155452354Y-66784699D01*
X155452354Y-66784701D01*
X155452355Y-66784704D01*
X155497206Y-66912881D01*
X155497207Y-66912883D01*
X155577846Y-67022146D01*
X155577853Y-67022153D01*
X155687116Y-67102792D01*
X155687118Y-67102793D01*
X155815295Y-67147644D01*
X155815301Y-67147646D01*
X155845734Y-67150500D01*
X155875500Y-67150500D01*
X155927826Y-67172174D01*
X155949500Y-67224500D01*
X155949500Y-72225816D01*
X155969977Y-72302237D01*
X155969979Y-72302241D01*
X155979605Y-72318913D01*
X155979606Y-72318915D01*
X156009539Y-72370762D01*
X156305371Y-72666594D01*
X156327045Y-72718920D01*
X156327045Y-72829691D01*
X156361151Y-72956978D01*
X156361155Y-72956987D01*
X156427045Y-73071111D01*
X156429108Y-73073174D01*
X156429671Y-73074534D01*
X156429998Y-73074960D01*
X156429884Y-73075047D01*
X156450782Y-73125500D01*
X156429108Y-73177826D01*
X156376782Y-73199500D01*
X155087966Y-73199500D01*
X155035640Y-73177826D01*
X154957314Y-73099500D01*
X154843190Y-73033610D01*
X154843181Y-73033606D01*
X154715894Y-72999500D01*
X154715892Y-72999500D01*
X154584108Y-72999500D01*
X154584106Y-72999500D01*
X154456818Y-73033606D01*
X154456809Y-73033610D01*
X154342685Y-73099500D01*
X154249500Y-73192685D01*
X154183610Y-73306809D01*
X154183606Y-73306818D01*
X154149500Y-73434105D01*
X154149500Y-73565894D01*
X154183606Y-73693181D01*
X154183610Y-73693190D01*
X154215522Y-73748463D01*
X154249500Y-73807314D01*
X154342686Y-73900500D01*
X154456814Y-73966392D01*
X154584105Y-74000499D01*
X154584106Y-74000500D01*
X154584108Y-74000500D01*
X154715894Y-74000500D01*
X154715894Y-74000499D01*
X154843186Y-73966392D01*
X154957314Y-73900500D01*
X155035640Y-73822174D01*
X155087966Y-73800500D01*
X157114363Y-73800500D01*
X157166689Y-73822174D01*
X157188363Y-73874500D01*
X157175422Y-73912618D01*
X157176925Y-73913486D01*
X157108610Y-74031809D01*
X157108606Y-74031818D01*
X157074500Y-74159105D01*
X157074500Y-74290894D01*
X157108606Y-74418181D01*
X157108607Y-74418184D01*
X157108608Y-74418186D01*
X157174500Y-74532314D01*
X157267686Y-74625500D01*
X157381814Y-74691392D01*
X157509105Y-74725499D01*
X157509106Y-74725500D01*
X157619877Y-74725500D01*
X157672203Y-74747174D01*
X162912204Y-79987175D01*
X162916030Y-79996413D01*
X162923964Y-80002501D01*
X162926485Y-80021653D01*
X162933878Y-80039501D01*
X162931356Y-80058654D01*
X162912189Y-80130184D01*
X162877711Y-80175117D01*
X162821558Y-80182509D01*
X162788385Y-80163357D01*
X160759511Y-78134483D01*
X160743952Y-78125500D01*
X160690990Y-78094922D01*
X160690985Y-78094920D01*
X160614564Y-78074443D01*
X160614562Y-78074443D01*
X160132909Y-78074443D01*
X160080583Y-78052769D01*
X160027314Y-77999500D01*
X159913190Y-77933610D01*
X159913181Y-77933606D01*
X159785894Y-77899500D01*
X159785892Y-77899500D01*
X159654108Y-77899500D01*
X159654106Y-77899500D01*
X159526818Y-77933606D01*
X159526809Y-77933610D01*
X159412685Y-77999500D01*
X159319500Y-78092685D01*
X159253610Y-78206809D01*
X159253606Y-78206818D01*
X159219500Y-78334105D01*
X159219500Y-78465894D01*
X159253606Y-78593181D01*
X159253610Y-78593190D01*
X159261233Y-78606393D01*
X159319500Y-78707314D01*
X159412686Y-78800500D01*
X159526814Y-78866392D01*
X159654105Y-78900499D01*
X159654106Y-78900500D01*
X159654108Y-78900500D01*
X159785894Y-78900500D01*
X159785894Y-78900499D01*
X159913186Y-78866392D01*
X160027314Y-78800500D01*
X160120500Y-78707314D01*
X160120503Y-78707307D01*
X160122747Y-78704386D01*
X160171800Y-78676075D01*
X160181449Y-78675443D01*
X160419877Y-78675443D01*
X160472203Y-78697117D01*
X164083597Y-82308511D01*
X164139546Y-82364460D01*
X164208068Y-82404021D01*
X164208069Y-82404021D01*
X164208071Y-82404022D01*
X164243824Y-82413602D01*
X164284492Y-82424499D01*
X164284493Y-82424500D01*
X164284495Y-82424500D01*
X170861034Y-82424500D01*
X170913360Y-82446174D01*
X170991686Y-82524500D01*
X171105814Y-82590392D01*
X171105820Y-82590393D01*
X171110292Y-82592246D01*
X171109146Y-82595012D01*
X171146619Y-82623740D01*
X171154036Y-82679889D01*
X171134875Y-82713094D01*
X167131286Y-86716685D01*
X167019480Y-86828490D01*
X166978483Y-86899500D01*
X166940423Y-86965420D01*
X166940421Y-86965425D01*
X166899499Y-87118147D01*
X166899499Y-87282222D01*
X166899500Y-87282235D01*
X166899500Y-88941898D01*
X166877826Y-88994224D01*
X163994225Y-91877826D01*
X163941899Y-91899500D01*
X162473018Y-91899500D01*
X162420692Y-91877826D01*
X162399018Y-91825500D01*
X162408932Y-91788500D01*
X162460642Y-91698936D01*
X162494749Y-91571644D01*
X162494750Y-91571644D01*
X162494750Y-91439856D01*
X162494749Y-91439855D01*
X162473112Y-91359105D01*
X162460642Y-91312564D01*
X162394750Y-91198436D01*
X162301564Y-91105250D01*
X162274922Y-91089868D01*
X162187440Y-91039360D01*
X162187431Y-91039356D01*
X162060144Y-91005250D01*
X162060142Y-91005250D01*
X161949373Y-91005250D01*
X161897047Y-90983576D01*
X155472174Y-84558703D01*
X155450500Y-84506377D01*
X155450500Y-78337966D01*
X155472174Y-78285640D01*
X155550500Y-78207314D01*
X155616392Y-78093186D01*
X155650499Y-77965894D01*
X155650500Y-77965894D01*
X155650500Y-77834106D01*
X155650499Y-77834105D01*
X155636034Y-77780122D01*
X155616392Y-77706814D01*
X155550500Y-77592686D01*
X155457314Y-77499500D01*
X155455656Y-77498543D01*
X155343190Y-77433610D01*
X155343181Y-77433606D01*
X155215894Y-77399500D01*
X155215892Y-77399500D01*
X155084108Y-77399500D01*
X155084106Y-77399500D01*
X154956818Y-77433606D01*
X154956809Y-77433610D01*
X154842685Y-77499500D01*
X154749500Y-77592685D01*
X154683610Y-77706809D01*
X154683606Y-77706818D01*
X154649500Y-77834105D01*
X154649500Y-77965894D01*
X154683606Y-78093181D01*
X154683610Y-78093190D01*
X154749500Y-78207314D01*
X154827826Y-78285640D01*
X154849500Y-78337966D01*
X154849500Y-84701064D01*
X154869977Y-84777485D01*
X154869979Y-84777490D01*
X154909540Y-84846011D01*
X161472076Y-91408547D01*
X161493750Y-91460873D01*
X161493750Y-91571644D01*
X161527856Y-91698931D01*
X161527860Y-91698940D01*
X161579568Y-91788500D01*
X161586961Y-91844652D01*
X161552482Y-91889586D01*
X161515482Y-91899500D01*
X139483604Y-91899500D01*
X139483588Y-91899499D01*
X139479058Y-91899499D01*
X139320943Y-91899499D01*
X139320941Y-91899499D01*
X139168218Y-91940421D01*
X139031283Y-92019480D01*
X134113006Y-96937756D01*
X134060680Y-96959430D01*
X134046245Y-96958009D01*
X134045696Y-96957899D01*
X134003465Y-96949500D01*
X133796535Y-96949500D01*
X133756385Y-96957486D01*
X133593586Y-96989868D01*
X133593579Y-96989870D01*
X133402401Y-97069059D01*
X133230345Y-97184022D01*
X133230344Y-97184024D01*
X133084024Y-97330344D01*
X133084022Y-97330345D01*
X132969059Y-97502401D01*
X132889870Y-97693579D01*
X132889868Y-97693586D01*
X132858009Y-97853755D01*
X132849500Y-97896535D01*
X125525500Y-97896535D01*
X125525500Y-97809106D01*
X125525499Y-97809105D01*
X125523557Y-97801859D01*
X125491392Y-97681814D01*
X125425500Y-97567686D01*
X125332314Y-97474500D01*
X125328884Y-97471070D01*
X125330298Y-97469655D01*
X125305396Y-97426533D01*
X125320049Y-97371824D01*
X125341760Y-97352781D01*
X125432314Y-97300500D01*
X125525500Y-97207314D01*
X125591392Y-97093186D01*
X125625499Y-96965894D01*
X125625500Y-96965894D01*
X125625500Y-96834106D01*
X125625499Y-96834105D01*
X125623869Y-96828023D01*
X125591392Y-96706814D01*
X125525500Y-96592686D01*
X125525499Y-96592685D01*
X125525498Y-96592683D01*
X125472640Y-96539826D01*
X125450965Y-96487501D01*
X125472639Y-96435175D01*
X125472639Y-96435174D01*
X125475500Y-96432314D01*
X125541392Y-96318186D01*
X125575499Y-96190894D01*
X125575500Y-96190894D01*
X125575500Y-96059106D01*
X125575499Y-96059105D01*
X125571241Y-96043215D01*
X125541392Y-95931814D01*
X125475500Y-95817686D01*
X125382314Y-95724500D01*
X125328068Y-95693181D01*
X125268190Y-95658610D01*
X125268181Y-95658606D01*
X125140894Y-95624500D01*
X125140892Y-95624500D01*
X125009108Y-95624500D01*
X125009106Y-95624500D01*
X124881818Y-95658606D01*
X124881809Y-95658610D01*
X124767685Y-95724500D01*
X124674500Y-95817685D01*
X124608610Y-95931809D01*
X124608606Y-95931818D01*
X124574500Y-96059105D01*
X124574500Y-96059108D01*
X124574500Y-96190892D01*
X124582350Y-96220191D01*
X124593911Y-96263337D01*
X124586518Y-96319490D01*
X124541584Y-96353968D01*
X124485431Y-96346575D01*
X124468909Y-96332554D01*
X124468548Y-96332916D01*
X124319654Y-96184022D01*
X124147598Y-96069059D01*
X123956420Y-95989870D01*
X123956413Y-95989868D01*
X123803516Y-95959455D01*
X123753465Y-95949500D01*
X123546535Y-95949500D01*
X123506385Y-95957486D01*
X123343586Y-95989868D01*
X123343579Y-95989870D01*
X123152401Y-96069059D01*
X122980345Y-96184022D01*
X122980344Y-96184024D01*
X122834024Y-96330344D01*
X122834022Y-96330345D01*
X122719059Y-96502401D01*
X122639870Y-96693579D01*
X122639868Y-96693586D01*
X122608856Y-96849500D01*
X122599500Y-96896535D01*
X100590000Y-96896535D01*
X100590000Y-93644231D01*
X104354500Y-93644231D01*
X104354500Y-93795768D01*
X104393717Y-93942130D01*
X104393721Y-93942139D01*
X104469483Y-94073362D01*
X104469485Y-94073365D01*
X104576635Y-94180515D01*
X104707865Y-94256281D01*
X104854231Y-94295499D01*
X104854232Y-94295500D01*
X104854234Y-94295500D01*
X105005768Y-94295500D01*
X105005768Y-94295499D01*
X105152135Y-94256281D01*
X105283365Y-94180515D01*
X105390515Y-94073365D01*
X105466281Y-93942135D01*
X105468433Y-93934105D01*
X108749500Y-93934105D01*
X108749500Y-94065894D01*
X108783606Y-94193181D01*
X108783610Y-94193190D01*
X108842679Y-94295499D01*
X108849500Y-94307314D01*
X108942686Y-94400500D01*
X109056814Y-94466392D01*
X109184105Y-94500499D01*
X109184106Y-94500500D01*
X109184108Y-94500500D01*
X109315894Y-94500500D01*
X109315894Y-94500499D01*
X109443186Y-94466392D01*
X109557314Y-94400500D01*
X109650500Y-94307314D01*
X109716392Y-94193186D01*
X109750499Y-94065894D01*
X109750500Y-94065894D01*
X109750500Y-93934106D01*
X109750499Y-93934105D01*
X109749751Y-93931315D01*
X109716392Y-93806814D01*
X109650500Y-93692686D01*
X109602045Y-93644231D01*
X110134500Y-93644231D01*
X110134500Y-93795768D01*
X110173717Y-93942130D01*
X110173721Y-93942139D01*
X110249483Y-94073362D01*
X110249485Y-94073365D01*
X110356635Y-94180515D01*
X110487865Y-94256281D01*
X110634231Y-94295499D01*
X110634232Y-94295500D01*
X110634234Y-94295500D01*
X110785768Y-94295500D01*
X110785768Y-94295499D01*
X110932135Y-94256281D01*
X111063365Y-94180515D01*
X111170515Y-94073365D01*
X111246281Y-93942135D01*
X111285499Y-93795768D01*
X111285500Y-93795768D01*
X111285500Y-93644232D01*
X111285499Y-93644231D01*
X111280078Y-93624001D01*
X111246281Y-93497865D01*
X111170515Y-93366635D01*
X111063365Y-93259485D01*
X110980253Y-93211500D01*
X110932139Y-93183721D01*
X110932130Y-93183717D01*
X110785768Y-93144500D01*
X110785766Y-93144500D01*
X110634234Y-93144500D01*
X110634232Y-93144500D01*
X110487869Y-93183717D01*
X110487860Y-93183721D01*
X110356637Y-93259483D01*
X110249483Y-93366637D01*
X110173721Y-93497860D01*
X110173717Y-93497869D01*
X110134500Y-93644231D01*
X109602045Y-93644231D01*
X109557314Y-93599500D01*
X109512267Y-93573492D01*
X109443190Y-93533610D01*
X109443181Y-93533606D01*
X109315894Y-93499500D01*
X109315892Y-93499500D01*
X109184108Y-93499500D01*
X109184106Y-93499500D01*
X109056818Y-93533606D01*
X109056809Y-93533610D01*
X108942685Y-93599500D01*
X108849500Y-93692685D01*
X108783610Y-93806809D01*
X108783606Y-93806818D01*
X108749500Y-93934105D01*
X105468433Y-93934105D01*
X105505500Y-93795766D01*
X105505500Y-93644234D01*
X105505500Y-93644232D01*
X105505499Y-93644231D01*
X105500078Y-93624001D01*
X105466281Y-93497865D01*
X105390515Y-93366635D01*
X105283365Y-93259485D01*
X105200253Y-93211500D01*
X105152139Y-93183721D01*
X105152130Y-93183717D01*
X105005768Y-93144500D01*
X105005766Y-93144500D01*
X104854234Y-93144500D01*
X104854232Y-93144500D01*
X104707869Y-93183717D01*
X104707860Y-93183721D01*
X104576637Y-93259483D01*
X104469483Y-93366637D01*
X104393721Y-93497860D01*
X104393717Y-93497869D01*
X104354500Y-93644231D01*
X100590000Y-93644231D01*
X100590000Y-92484105D01*
X122149500Y-92484105D01*
X122149500Y-92615894D01*
X122183606Y-92743181D01*
X122183610Y-92743190D01*
X122212478Y-92793190D01*
X122249500Y-92857314D01*
X122342686Y-92950500D01*
X122456814Y-93016392D01*
X122584105Y-93050499D01*
X122584106Y-93050500D01*
X122584108Y-93050500D01*
X122715894Y-93050500D01*
X122715894Y-93050499D01*
X122843186Y-93016392D01*
X122957314Y-92950500D01*
X122985174Y-92922640D01*
X123037500Y-92900966D01*
X123089826Y-92922640D01*
X123117686Y-92950500D01*
X123231814Y-93016392D01*
X123359105Y-93050499D01*
X123359106Y-93050500D01*
X123359108Y-93050500D01*
X123490894Y-93050500D01*
X123490894Y-93050499D01*
X123618186Y-93016392D01*
X123732314Y-92950500D01*
X123825500Y-92857314D01*
X123891392Y-92743186D01*
X123925499Y-92615894D01*
X123925500Y-92615894D01*
X123925500Y-92534105D01*
X125824500Y-92534105D01*
X125824500Y-92665894D01*
X125858606Y-92793181D01*
X125858607Y-92793184D01*
X125858608Y-92793186D01*
X125924500Y-92907314D01*
X126017686Y-93000500D01*
X126131814Y-93066392D01*
X126259105Y-93100499D01*
X126259106Y-93100500D01*
X126259108Y-93100500D01*
X126390894Y-93100500D01*
X126390894Y-93100499D01*
X126518186Y-93066392D01*
X126632314Y-93000500D01*
X126725500Y-92907314D01*
X126791392Y-92793186D01*
X126825499Y-92665894D01*
X126825500Y-92665894D01*
X126825500Y-92534106D01*
X126825499Y-92534105D01*
X126791393Y-92406818D01*
X126791392Y-92406814D01*
X126725500Y-92292686D01*
X126632314Y-92199500D01*
X126618265Y-92191389D01*
X126518190Y-92133610D01*
X126518181Y-92133606D01*
X126390894Y-92099500D01*
X126390892Y-92099500D01*
X126259108Y-92099500D01*
X126259106Y-92099500D01*
X126131818Y-92133606D01*
X126131809Y-92133610D01*
X126017685Y-92199500D01*
X125924500Y-92292685D01*
X125858610Y-92406809D01*
X125858606Y-92406818D01*
X125824500Y-92534105D01*
X123925500Y-92534105D01*
X123925500Y-92484106D01*
X123925499Y-92484105D01*
X123891393Y-92356818D01*
X123891392Y-92356814D01*
X123825500Y-92242686D01*
X123732314Y-92149500D01*
X123645712Y-92099500D01*
X123618190Y-92083610D01*
X123618181Y-92083606D01*
X123490894Y-92049500D01*
X123490892Y-92049500D01*
X123359108Y-92049500D01*
X123359106Y-92049500D01*
X123231818Y-92083606D01*
X123231809Y-92083610D01*
X123117685Y-92149500D01*
X123089826Y-92177360D01*
X123037500Y-92199034D01*
X122985174Y-92177360D01*
X122957314Y-92149500D01*
X122843190Y-92083610D01*
X122843181Y-92083606D01*
X122715894Y-92049500D01*
X122715892Y-92049500D01*
X122584108Y-92049500D01*
X122584106Y-92049500D01*
X122456818Y-92083606D01*
X122456809Y-92083610D01*
X122342685Y-92149500D01*
X122249500Y-92242685D01*
X122183610Y-92356809D01*
X122183606Y-92356818D01*
X122149500Y-92484105D01*
X100590000Y-92484105D01*
X100590000Y-91384105D01*
X104574500Y-91384105D01*
X104574500Y-91515894D01*
X104608606Y-91643181D01*
X104608610Y-91643190D01*
X104640792Y-91698931D01*
X104674500Y-91757314D01*
X104767686Y-91850500D01*
X104881814Y-91916392D01*
X105009105Y-91950499D01*
X105009106Y-91950500D01*
X105009108Y-91950500D01*
X105140894Y-91950500D01*
X105140894Y-91950499D01*
X105268186Y-91916392D01*
X105382314Y-91850500D01*
X105475500Y-91757314D01*
X105541392Y-91643186D01*
X105575499Y-91515894D01*
X105575500Y-91515894D01*
X105575500Y-91384108D01*
X105565935Y-91348410D01*
X105565935Y-91348408D01*
X105562102Y-91334105D01*
X109669500Y-91334105D01*
X109669500Y-91465894D01*
X109703606Y-91593181D01*
X109703610Y-91593190D01*
X109741668Y-91659108D01*
X109769500Y-91707314D01*
X109862686Y-91800500D01*
X109976814Y-91866392D01*
X110104105Y-91900499D01*
X110104106Y-91900500D01*
X110104108Y-91900500D01*
X110235894Y-91900500D01*
X110235894Y-91900499D01*
X110363186Y-91866392D01*
X110477314Y-91800500D01*
X110570500Y-91707314D01*
X110598334Y-91659105D01*
X115549500Y-91659105D01*
X115549500Y-91790894D01*
X115583606Y-91918181D01*
X115583610Y-91918190D01*
X115628843Y-91996535D01*
X115649500Y-92032314D01*
X115742686Y-92125500D01*
X115856814Y-92191392D01*
X115984105Y-92225499D01*
X115984106Y-92225500D01*
X115984108Y-92225500D01*
X116115894Y-92225500D01*
X116115894Y-92225499D01*
X116243186Y-92191392D01*
X116357314Y-92125500D01*
X116450500Y-92032314D01*
X116516392Y-91918186D01*
X116550499Y-91790894D01*
X116550500Y-91790894D01*
X116550500Y-91659107D01*
X116547634Y-91648412D01*
X116543800Y-91634105D01*
X119349500Y-91634105D01*
X119349500Y-91765894D01*
X119383606Y-91893181D01*
X119383610Y-91893190D01*
X119416698Y-91950499D01*
X119449500Y-92007314D01*
X119542686Y-92100500D01*
X119656814Y-92166392D01*
X119784105Y-92200499D01*
X119784106Y-92200500D01*
X119784108Y-92200500D01*
X119915894Y-92200500D01*
X119915894Y-92200499D01*
X120043186Y-92166392D01*
X120157314Y-92100500D01*
X120250500Y-92007314D01*
X120316392Y-91893186D01*
X120350499Y-91765894D01*
X120350500Y-91765894D01*
X120350500Y-91634106D01*
X120350499Y-91634105D01*
X120316393Y-91506818D01*
X120316392Y-91506814D01*
X120250500Y-91392686D01*
X120216919Y-91359105D01*
X132599500Y-91359105D01*
X132599500Y-91490894D01*
X132633606Y-91618181D01*
X132633610Y-91618190D01*
X132657234Y-91659107D01*
X132699500Y-91732314D01*
X132792686Y-91825500D01*
X132906814Y-91891392D01*
X133034105Y-91925499D01*
X133034106Y-91925500D01*
X133034108Y-91925500D01*
X133165894Y-91925500D01*
X133165894Y-91925499D01*
X133293186Y-91891392D01*
X133407314Y-91825500D01*
X133500500Y-91732314D01*
X133566392Y-91618186D01*
X133600499Y-91490894D01*
X133600500Y-91490894D01*
X133600500Y-91359106D01*
X133600499Y-91359105D01*
X133597633Y-91348410D01*
X133566392Y-91231814D01*
X133500500Y-91117686D01*
X133407314Y-91024500D01*
X133306670Y-90966393D01*
X133293190Y-90958610D01*
X133293181Y-90958606D01*
X133165894Y-90924500D01*
X133165892Y-90924500D01*
X133034108Y-90924500D01*
X133034106Y-90924500D01*
X132906818Y-90958606D01*
X132906809Y-90958610D01*
X132792685Y-91024500D01*
X132699500Y-91117685D01*
X132633610Y-91231809D01*
X132633606Y-91231818D01*
X132599500Y-91359105D01*
X120216919Y-91359105D01*
X120157314Y-91299500D01*
X120130507Y-91284023D01*
X120043190Y-91233610D01*
X120043181Y-91233606D01*
X119915894Y-91199500D01*
X119915892Y-91199500D01*
X119784108Y-91199500D01*
X119784106Y-91199500D01*
X119656818Y-91233606D01*
X119656809Y-91233610D01*
X119542685Y-91299500D01*
X119449500Y-91392685D01*
X119383610Y-91506809D01*
X119383606Y-91506818D01*
X119349500Y-91634105D01*
X116543800Y-91634105D01*
X116516392Y-91531814D01*
X116450500Y-91417686D01*
X116357314Y-91324500D01*
X116287206Y-91284023D01*
X116243190Y-91258610D01*
X116243181Y-91258606D01*
X116115894Y-91224500D01*
X116115892Y-91224500D01*
X115984108Y-91224500D01*
X115984106Y-91224500D01*
X115856818Y-91258606D01*
X115856809Y-91258610D01*
X115742685Y-91324500D01*
X115649500Y-91417685D01*
X115583610Y-91531809D01*
X115583606Y-91531818D01*
X115549500Y-91659105D01*
X110598334Y-91659105D01*
X110636392Y-91593186D01*
X110670499Y-91465894D01*
X110670500Y-91465894D01*
X110670500Y-91334106D01*
X110670499Y-91334105D01*
X110667925Y-91324500D01*
X110636392Y-91206814D01*
X110570500Y-91092686D01*
X110477314Y-90999500D01*
X110419971Y-90966393D01*
X110363190Y-90933610D01*
X110363181Y-90933606D01*
X110235894Y-90899500D01*
X110235892Y-90899500D01*
X110104108Y-90899500D01*
X110104106Y-90899500D01*
X109976818Y-90933606D01*
X109976809Y-90933610D01*
X109862685Y-90999500D01*
X109769500Y-91092685D01*
X109703610Y-91206809D01*
X109703606Y-91206818D01*
X109669500Y-91334105D01*
X105562102Y-91334105D01*
X105541393Y-91256818D01*
X105541392Y-91256814D01*
X105475500Y-91142686D01*
X105382314Y-91049500D01*
X105339013Y-91024500D01*
X105268190Y-90983610D01*
X105268181Y-90983606D01*
X105140894Y-90949500D01*
X105140892Y-90949500D01*
X105009108Y-90949500D01*
X105009106Y-90949500D01*
X104881818Y-90983606D01*
X104881809Y-90983610D01*
X104767685Y-91049500D01*
X104674500Y-91142685D01*
X104608610Y-91256809D01*
X104608606Y-91256818D01*
X104574500Y-91384105D01*
X100590000Y-91384105D01*
X100590000Y-90434105D01*
X103499500Y-90434105D01*
X103499500Y-90565894D01*
X103533606Y-90693181D01*
X103533610Y-90693190D01*
X103581132Y-90775500D01*
X103599500Y-90807314D01*
X103692686Y-90900500D01*
X103806814Y-90966392D01*
X103934105Y-91000499D01*
X103934106Y-91000500D01*
X103934108Y-91000500D01*
X104065894Y-91000500D01*
X104065894Y-91000499D01*
X104193186Y-90966392D01*
X104307314Y-90900500D01*
X104400500Y-90807314D01*
X104466392Y-90693186D01*
X104500499Y-90565894D01*
X104500500Y-90565894D01*
X104500500Y-90434106D01*
X104500499Y-90434105D01*
X104498193Y-90425500D01*
X104466392Y-90306814D01*
X104400500Y-90192686D01*
X104307314Y-90099500D01*
X104276681Y-90081814D01*
X104193190Y-90033610D01*
X104193181Y-90033606D01*
X104065894Y-89999500D01*
X104065892Y-89999500D01*
X103934108Y-89999500D01*
X103934106Y-89999500D01*
X103806818Y-90033606D01*
X103806809Y-90033610D01*
X103692685Y-90099500D01*
X103599500Y-90192685D01*
X103533610Y-90306809D01*
X103533606Y-90306818D01*
X103499500Y-90434105D01*
X100590000Y-90434105D01*
X100590000Y-89859105D01*
X132649500Y-89859105D01*
X132649500Y-89990894D01*
X132683606Y-90118181D01*
X132683610Y-90118190D01*
X132705379Y-90155894D01*
X132749500Y-90232314D01*
X132842686Y-90325500D01*
X132956814Y-90391392D01*
X133084105Y-90425499D01*
X133084106Y-90425500D01*
X133084108Y-90425500D01*
X133215894Y-90425500D01*
X133215894Y-90425499D01*
X133343186Y-90391392D01*
X133457314Y-90325500D01*
X133550500Y-90232314D01*
X133563900Y-90209105D01*
X136049500Y-90209105D01*
X136049500Y-90340894D01*
X136083606Y-90468181D01*
X136083607Y-90468184D01*
X136083608Y-90468186D01*
X136149500Y-90582314D01*
X136242686Y-90675500D01*
X136356814Y-90741392D01*
X136484105Y-90775499D01*
X136484106Y-90775500D01*
X136484108Y-90775500D01*
X136615894Y-90775500D01*
X136615894Y-90775499D01*
X136743186Y-90741392D01*
X136857314Y-90675500D01*
X136950500Y-90582314D01*
X137016392Y-90468186D01*
X137050499Y-90340894D01*
X137050500Y-90340894D01*
X137050500Y-90209106D01*
X137050499Y-90209105D01*
X137046099Y-90192685D01*
X137016392Y-90081814D01*
X136950500Y-89967686D01*
X136857314Y-89874500D01*
X136830649Y-89859105D01*
X136743190Y-89808610D01*
X136743181Y-89808606D01*
X136615894Y-89774500D01*
X136615892Y-89774500D01*
X136484108Y-89774500D01*
X136484106Y-89774500D01*
X136356818Y-89808606D01*
X136356809Y-89808610D01*
X136242685Y-89874500D01*
X136149500Y-89967685D01*
X136083610Y-90081809D01*
X136083606Y-90081818D01*
X136049500Y-90209105D01*
X133563900Y-90209105D01*
X133616392Y-90118186D01*
X133650499Y-89990894D01*
X133650500Y-89990894D01*
X133650500Y-89859106D01*
X133650499Y-89859105D01*
X133627829Y-89774500D01*
X133616392Y-89731814D01*
X133550500Y-89617686D01*
X133457314Y-89524500D01*
X133427547Y-89507314D01*
X133343190Y-89458610D01*
X133343181Y-89458606D01*
X133215894Y-89424500D01*
X133215892Y-89424500D01*
X133084108Y-89424500D01*
X133084106Y-89424500D01*
X132956818Y-89458606D01*
X132956809Y-89458610D01*
X132842685Y-89524500D01*
X132749500Y-89617685D01*
X132683610Y-89731809D01*
X132683606Y-89731818D01*
X132649500Y-89859105D01*
X100590000Y-89859105D01*
X100590000Y-88109105D01*
X114574500Y-88109105D01*
X114574500Y-88240894D01*
X114608606Y-88368181D01*
X114608607Y-88368184D01*
X114608608Y-88368186D01*
X114674500Y-88482314D01*
X114767686Y-88575500D01*
X114863176Y-88630631D01*
X114897653Y-88675563D01*
X114890261Y-88731716D01*
X114863176Y-88758801D01*
X114792686Y-88799499D01*
X114699500Y-88892685D01*
X114633610Y-89006809D01*
X114633606Y-89006818D01*
X114599500Y-89134105D01*
X114599500Y-89265894D01*
X114633606Y-89393181D01*
X114633610Y-89393190D01*
X114671381Y-89458610D01*
X114699500Y-89507314D01*
X114792686Y-89600500D01*
X114906814Y-89666392D01*
X115034105Y-89700499D01*
X115034106Y-89700500D01*
X115034108Y-89700500D01*
X115165894Y-89700500D01*
X115165894Y-89700499D01*
X115293186Y-89666392D01*
X115407314Y-89600500D01*
X115500500Y-89507314D01*
X115566392Y-89393186D01*
X115600499Y-89265894D01*
X115600500Y-89265894D01*
X115600500Y-89134106D01*
X115600499Y-89134105D01*
X115566393Y-89006818D01*
X115566392Y-89006814D01*
X115500500Y-88892686D01*
X115407314Y-88799500D01*
X115311823Y-88744368D01*
X115277345Y-88699436D01*
X115284738Y-88643283D01*
X115311822Y-88616198D01*
X115382314Y-88575500D01*
X115475500Y-88482314D01*
X115541392Y-88368186D01*
X115575499Y-88240894D01*
X115575500Y-88240894D01*
X115575500Y-88109106D01*
X115575499Y-88109105D01*
X115541393Y-87981818D01*
X115541392Y-87981814D01*
X115475500Y-87867686D01*
X115382314Y-87774500D01*
X115293964Y-87723491D01*
X115268190Y-87708610D01*
X115268181Y-87708606D01*
X115140894Y-87674500D01*
X115140892Y-87674500D01*
X115009108Y-87674500D01*
X115009106Y-87674500D01*
X114881818Y-87708606D01*
X114881809Y-87708610D01*
X114767685Y-87774500D01*
X114674500Y-87867685D01*
X114608610Y-87981809D01*
X114608606Y-87981818D01*
X114574500Y-88109105D01*
X100590000Y-88109105D01*
X100590000Y-87334105D01*
X135974500Y-87334105D01*
X135974500Y-87465894D01*
X136008606Y-87593181D01*
X136008610Y-87593190D01*
X136074500Y-87707314D01*
X136090677Y-87723491D01*
X136112351Y-87775817D01*
X136099972Y-87812358D01*
X136101925Y-87813486D01*
X136033610Y-87931809D01*
X136033606Y-87931818D01*
X135999500Y-88059105D01*
X135999500Y-88190894D01*
X136033606Y-88318181D01*
X136033610Y-88318190D01*
X136062478Y-88368190D01*
X136099500Y-88432314D01*
X136192686Y-88525500D01*
X136306814Y-88591392D01*
X136434105Y-88625499D01*
X136434106Y-88625500D01*
X136434108Y-88625500D01*
X136565894Y-88625500D01*
X136565894Y-88625499D01*
X136693186Y-88591392D01*
X136807314Y-88525500D01*
X136900500Y-88432314D01*
X136966392Y-88318186D01*
X137000499Y-88190894D01*
X137000500Y-88190894D01*
X137000500Y-88059106D01*
X137000499Y-88059105D01*
X136966393Y-87931818D01*
X136966392Y-87931814D01*
X136900500Y-87817686D01*
X136884322Y-87801508D01*
X136862648Y-87749182D01*
X136875054Y-87712657D01*
X136873075Y-87711514D01*
X136894445Y-87674500D01*
X136941392Y-87593186D01*
X136975499Y-87465894D01*
X136975500Y-87465894D01*
X136975500Y-87334106D01*
X136975499Y-87334105D01*
X136941393Y-87206818D01*
X136941392Y-87206814D01*
X136875500Y-87092686D01*
X136782314Y-86999500D01*
X136723295Y-86965425D01*
X136668190Y-86933610D01*
X136668181Y-86933606D01*
X136540894Y-86899500D01*
X136540892Y-86899500D01*
X136409108Y-86899500D01*
X136409106Y-86899500D01*
X136281818Y-86933606D01*
X136281809Y-86933610D01*
X136167685Y-86999500D01*
X136074500Y-87092685D01*
X136008610Y-87206809D01*
X136008606Y-87206818D01*
X135974500Y-87334105D01*
X100590000Y-87334105D01*
X100590000Y-85959105D01*
X140974500Y-85959105D01*
X140974500Y-86090894D01*
X141008606Y-86218181D01*
X141008607Y-86218184D01*
X141008608Y-86218186D01*
X141074500Y-86332314D01*
X141167686Y-86425500D01*
X141281814Y-86491392D01*
X141409105Y-86525499D01*
X141409106Y-86525500D01*
X141409108Y-86525500D01*
X141540894Y-86525500D01*
X141540894Y-86525499D01*
X141668186Y-86491392D01*
X141782314Y-86425500D01*
X141875500Y-86332314D01*
X141941392Y-86218186D01*
X141975499Y-86090894D01*
X141975500Y-86090894D01*
X141975500Y-85959106D01*
X141975499Y-85959105D01*
X141970619Y-85940894D01*
X141941392Y-85831814D01*
X141875500Y-85717686D01*
X141782314Y-85624500D01*
X141681670Y-85566393D01*
X141668190Y-85558610D01*
X141668181Y-85558606D01*
X141540894Y-85524500D01*
X141540892Y-85524500D01*
X141409108Y-85524500D01*
X141409106Y-85524500D01*
X141281818Y-85558606D01*
X141281809Y-85558610D01*
X141167685Y-85624500D01*
X141074500Y-85717685D01*
X141008610Y-85831809D01*
X141008606Y-85831818D01*
X140974500Y-85959105D01*
X100590000Y-85959105D01*
X100590000Y-84859105D01*
X132499500Y-84859105D01*
X132499500Y-84990894D01*
X132533606Y-85118181D01*
X132533607Y-85118184D01*
X132533608Y-85118186D01*
X132599500Y-85232314D01*
X132692686Y-85325500D01*
X132806814Y-85391392D01*
X132934105Y-85425499D01*
X132934106Y-85425500D01*
X132934108Y-85425500D01*
X133065894Y-85425500D01*
X133065894Y-85425499D01*
X133193186Y-85391392D01*
X133307314Y-85325500D01*
X133400500Y-85232314D01*
X133466392Y-85118186D01*
X133500499Y-84990894D01*
X133500500Y-84990894D01*
X133500500Y-84859106D01*
X133500499Y-84859105D01*
X133480629Y-84784950D01*
X133466392Y-84731814D01*
X133400500Y-84617686D01*
X133307314Y-84524500D01*
X133275924Y-84506377D01*
X133193190Y-84458610D01*
X133193181Y-84458606D01*
X133065894Y-84424500D01*
X133065892Y-84424500D01*
X132934108Y-84424500D01*
X132934106Y-84424500D01*
X132806818Y-84458606D01*
X132806809Y-84458610D01*
X132692685Y-84524500D01*
X132599500Y-84617685D01*
X132533610Y-84731809D01*
X132533606Y-84731818D01*
X132499500Y-84859105D01*
X100590000Y-84859105D01*
X100590000Y-82734105D01*
X149174500Y-82734105D01*
X149174500Y-82865894D01*
X149208606Y-82993181D01*
X149208607Y-82993184D01*
X149208608Y-82993186D01*
X149274500Y-83107314D01*
X149367686Y-83200500D01*
X149481814Y-83266392D01*
X149609105Y-83300499D01*
X149609106Y-83300500D01*
X149609108Y-83300500D01*
X149740894Y-83300500D01*
X149740894Y-83300499D01*
X149868186Y-83266392D01*
X149982314Y-83200500D01*
X150075500Y-83107314D01*
X150141392Y-82993186D01*
X150175499Y-82865894D01*
X150175500Y-82865894D01*
X150175500Y-82734106D01*
X150175499Y-82734105D01*
X150141393Y-82606818D01*
X150141392Y-82606814D01*
X150075500Y-82492686D01*
X149982314Y-82399500D01*
X149921623Y-82364460D01*
X149868190Y-82333610D01*
X149868181Y-82333606D01*
X149740894Y-82299500D01*
X149740892Y-82299500D01*
X149609108Y-82299500D01*
X149609106Y-82299500D01*
X149481818Y-82333606D01*
X149481809Y-82333610D01*
X149367685Y-82399500D01*
X149274500Y-82492685D01*
X149208610Y-82606809D01*
X149208606Y-82606818D01*
X149174500Y-82734105D01*
X100590000Y-82734105D01*
X100590000Y-74536535D01*
X101109500Y-74536535D01*
X101109500Y-74743465D01*
X101117485Y-74783608D01*
X101149868Y-74946413D01*
X101149870Y-74946420D01*
X101229059Y-75137598D01*
X101343657Y-75309108D01*
X101344023Y-75309655D01*
X101490345Y-75455977D01*
X101662402Y-75570941D01*
X101853580Y-75650130D01*
X101922821Y-75663902D01*
X101969912Y-75695367D01*
X101980962Y-75750916D01*
X101949497Y-75798008D01*
X101927537Y-75807958D01*
X101831818Y-75833606D01*
X101831809Y-75833610D01*
X101717685Y-75899500D01*
X101624500Y-75992685D01*
X101558610Y-76106809D01*
X101558606Y-76106818D01*
X101524500Y-76234105D01*
X101524500Y-76365894D01*
X101558606Y-76493181D01*
X101558610Y-76493190D01*
X101587478Y-76543190D01*
X101624500Y-76607314D01*
X101717686Y-76700500D01*
X101831814Y-76766392D01*
X101959105Y-76800499D01*
X101959106Y-76800500D01*
X101959108Y-76800500D01*
X102090894Y-76800500D01*
X102090894Y-76800499D01*
X102218186Y-76766392D01*
X102332314Y-76700500D01*
X102425500Y-76607314D01*
X102491392Y-76493186D01*
X102525499Y-76365894D01*
X102525500Y-76365894D01*
X102525500Y-76234106D01*
X102525499Y-76234105D01*
X102491393Y-76106818D01*
X102491392Y-76106814D01*
X102425500Y-75992686D01*
X102332314Y-75899500D01*
X102231663Y-75841389D01*
X102218188Y-75833609D01*
X102216401Y-75832869D01*
X102215710Y-75832178D01*
X102213986Y-75831183D01*
X102214252Y-75830721D01*
X102176350Y-75792824D01*
X102176346Y-75736186D01*
X102216391Y-75696135D01*
X102244715Y-75690500D01*
X102263464Y-75690500D01*
X102263465Y-75690500D01*
X102466420Y-75650130D01*
X102657598Y-75570941D01*
X102829655Y-75455977D01*
X102975977Y-75309655D01*
X103090941Y-75137598D01*
X103170130Y-74946420D01*
X103210500Y-74743465D01*
X103210500Y-74536535D01*
X103649500Y-74536535D01*
X103649500Y-74743465D01*
X103657485Y-74783608D01*
X103689868Y-74946413D01*
X103689870Y-74946420D01*
X103769059Y-75137598D01*
X103883657Y-75309108D01*
X103884023Y-75309655D01*
X104030345Y-75455977D01*
X104202402Y-75570941D01*
X104393580Y-75650130D01*
X104596535Y-75690500D01*
X104596536Y-75690500D01*
X104803464Y-75690500D01*
X104803465Y-75690500D01*
X105006420Y-75650130D01*
X105197598Y-75570941D01*
X105369655Y-75455977D01*
X105515977Y-75309655D01*
X105630941Y-75137598D01*
X105710130Y-74946420D01*
X105750500Y-74743465D01*
X105750500Y-74536535D01*
X106189500Y-74536535D01*
X106189500Y-74743465D01*
X106197485Y-74783608D01*
X106229868Y-74946413D01*
X106229870Y-74946420D01*
X106309059Y-75137598D01*
X106423657Y-75309108D01*
X106424023Y-75309655D01*
X106570345Y-75455977D01*
X106742402Y-75570941D01*
X106933580Y-75650130D01*
X107136535Y-75690500D01*
X107136536Y-75690500D01*
X107343464Y-75690500D01*
X107343465Y-75690500D01*
X107546420Y-75650130D01*
X107737598Y-75570941D01*
X107909655Y-75455977D01*
X108055977Y-75309655D01*
X108170941Y-75137598D01*
X108250130Y-74946420D01*
X108290500Y-74743465D01*
X108290500Y-74536535D01*
X108250130Y-74333580D01*
X108170941Y-74142402D01*
X108055977Y-73970345D01*
X107909655Y-73824023D01*
X107737598Y-73709059D01*
X107546420Y-73629870D01*
X107546413Y-73629868D01*
X107393516Y-73599455D01*
X107343465Y-73589500D01*
X107136535Y-73589500D01*
X107096385Y-73597486D01*
X106933586Y-73629868D01*
X106933579Y-73629870D01*
X106742401Y-73709059D01*
X106570345Y-73824022D01*
X106570344Y-73824024D01*
X106424024Y-73970344D01*
X106424022Y-73970345D01*
X106309059Y-74142401D01*
X106229870Y-74333579D01*
X106229868Y-74333586D01*
X106213040Y-74418190D01*
X106189500Y-74536535D01*
X105750500Y-74536535D01*
X105710130Y-74333580D01*
X105630941Y-74142402D01*
X105515977Y-73970345D01*
X105369655Y-73824023D01*
X105197598Y-73709059D01*
X105006420Y-73629870D01*
X105006413Y-73629868D01*
X104853516Y-73599455D01*
X104803465Y-73589500D01*
X104596535Y-73589500D01*
X104556385Y-73597486D01*
X104393586Y-73629868D01*
X104393579Y-73629870D01*
X104202401Y-73709059D01*
X104030345Y-73824022D01*
X104030344Y-73824024D01*
X103884024Y-73970344D01*
X103884022Y-73970345D01*
X103769059Y-74142401D01*
X103689870Y-74333579D01*
X103689868Y-74333586D01*
X103673040Y-74418190D01*
X103649500Y-74536535D01*
X103210500Y-74536535D01*
X103170130Y-74333580D01*
X103090941Y-74142402D01*
X102975977Y-73970345D01*
X102829655Y-73824023D01*
X102657598Y-73709059D01*
X102466420Y-73629870D01*
X102466413Y-73629868D01*
X102313516Y-73599455D01*
X102263465Y-73589500D01*
X102056535Y-73589500D01*
X102016385Y-73597486D01*
X101853586Y-73629868D01*
X101853579Y-73629870D01*
X101662401Y-73709059D01*
X101490345Y-73824022D01*
X101490344Y-73824024D01*
X101344024Y-73970344D01*
X101344022Y-73970345D01*
X101229059Y-74142401D01*
X101149870Y-74333579D01*
X101149868Y-74333586D01*
X101133040Y-74418190D01*
X101109500Y-74536535D01*
X100590000Y-74536535D01*
X100590000Y-71996535D01*
X101109500Y-71996535D01*
X101109500Y-72203465D01*
X101113946Y-72225816D01*
X101149868Y-72406413D01*
X101149870Y-72406420D01*
X101229059Y-72597598D01*
X101296081Y-72697905D01*
X101344023Y-72769655D01*
X101490345Y-72915977D01*
X101662402Y-73030941D01*
X101853580Y-73110130D01*
X102056535Y-73150500D01*
X102056536Y-73150500D01*
X102263464Y-73150500D01*
X102263465Y-73150500D01*
X102466420Y-73110130D01*
X102657598Y-73030941D01*
X102829655Y-72915977D01*
X102975977Y-72769655D01*
X103090941Y-72597598D01*
X103170130Y-72406420D01*
X103210500Y-72203465D01*
X103210500Y-71996535D01*
X103649500Y-71996535D01*
X103649500Y-72203465D01*
X103653946Y-72225816D01*
X103689868Y-72406413D01*
X103689870Y-72406420D01*
X103769059Y-72597598D01*
X103836081Y-72697905D01*
X103884023Y-72769655D01*
X104030345Y-72915977D01*
X104202402Y-73030941D01*
X104393580Y-73110130D01*
X104596535Y-73150500D01*
X104596536Y-73150500D01*
X104803464Y-73150500D01*
X104803465Y-73150500D01*
X105006420Y-73110130D01*
X105197598Y-73030941D01*
X105369655Y-72915977D01*
X105515977Y-72769655D01*
X105630941Y-72597598D01*
X105710130Y-72406420D01*
X105750500Y-72203465D01*
X105750500Y-71996535D01*
X105710130Y-71793580D01*
X105630941Y-71602402D01*
X105515977Y-71430345D01*
X105369655Y-71284023D01*
X105197598Y-71169059D01*
X105006420Y-71089870D01*
X105006413Y-71089868D01*
X104853516Y-71059455D01*
X104803465Y-71049500D01*
X104596535Y-71049500D01*
X104556385Y-71057486D01*
X104393586Y-71089868D01*
X104393579Y-71089870D01*
X104202401Y-71169059D01*
X104030345Y-71284022D01*
X104030344Y-71284024D01*
X103884024Y-71430344D01*
X103884022Y-71430345D01*
X103769059Y-71602401D01*
X103689870Y-71793579D01*
X103689868Y-71793586D01*
X103649500Y-71996535D01*
X103210500Y-71996535D01*
X103170130Y-71793580D01*
X103090941Y-71602402D01*
X102975977Y-71430345D01*
X102829655Y-71284023D01*
X102657598Y-71169059D01*
X102466420Y-71089870D01*
X102466413Y-71089868D01*
X102313516Y-71059455D01*
X102263465Y-71049500D01*
X102056535Y-71049500D01*
X102016385Y-71057486D01*
X101853586Y-71089868D01*
X101853579Y-71089870D01*
X101662401Y-71169059D01*
X101490345Y-71284022D01*
X101490344Y-71284024D01*
X101344024Y-71430344D01*
X101344022Y-71430345D01*
X101229059Y-71602401D01*
X101149870Y-71793579D01*
X101149868Y-71793586D01*
X101109500Y-71996535D01*
X100590000Y-71996535D01*
X100590000Y-68146535D01*
X101059500Y-68146535D01*
X101059500Y-68353464D01*
X101099868Y-68556413D01*
X101099870Y-68556420D01*
X101179059Y-68747598D01*
X101258434Y-68866393D01*
X101294023Y-68919655D01*
X101440345Y-69065977D01*
X101612402Y-69180941D01*
X101803580Y-69260130D01*
X102006535Y-69300500D01*
X102006536Y-69300500D01*
X102213464Y-69300500D01*
X102213465Y-69300500D01*
X102416420Y-69260130D01*
X102607598Y-69180941D01*
X102779655Y-69065977D01*
X102925977Y-68919655D01*
X103040941Y-68747598D01*
X103120130Y-68556420D01*
X103160500Y-68353465D01*
X103160500Y-68146535D01*
X103599500Y-68146535D01*
X103599500Y-68353464D01*
X103639868Y-68556413D01*
X103639870Y-68556420D01*
X103719059Y-68747598D01*
X103798434Y-68866393D01*
X103834023Y-68919655D01*
X103980345Y-69065977D01*
X104152402Y-69180941D01*
X104343580Y-69260130D01*
X104546535Y-69300500D01*
X104546536Y-69300500D01*
X104753464Y-69300500D01*
X104753465Y-69300500D01*
X104956420Y-69260130D01*
X105147598Y-69180941D01*
X105319655Y-69065977D01*
X105465977Y-68919655D01*
X105580941Y-68747598D01*
X105645888Y-68590802D01*
X105685935Y-68550755D01*
X105742572Y-68550755D01*
X105780942Y-68589124D01*
X105781183Y-68588986D01*
X105781700Y-68589882D01*
X105782621Y-68590803D01*
X105782622Y-68590805D01*
X105783608Y-68593187D01*
X105814051Y-68645915D01*
X105849500Y-68707314D01*
X105942686Y-68800500D01*
X106056814Y-68866392D01*
X106184105Y-68900499D01*
X106184106Y-68900500D01*
X106184108Y-68900500D01*
X106315894Y-68900500D01*
X106315894Y-68900499D01*
X106443186Y-68866392D01*
X106557314Y-68800500D01*
X106650500Y-68707314D01*
X106716392Y-68593186D01*
X106750499Y-68465894D01*
X106750500Y-68465894D01*
X106750500Y-68334106D01*
X106750499Y-68334105D01*
X106747925Y-68324500D01*
X106716392Y-68206814D01*
X106650500Y-68092686D01*
X106557314Y-67999500D01*
X106443190Y-67933610D01*
X106443181Y-67933606D01*
X106315894Y-67899500D01*
X106315892Y-67899500D01*
X106184108Y-67899500D01*
X106184106Y-67899500D01*
X106056818Y-67933606D01*
X106056809Y-67933610D01*
X105942685Y-67999500D01*
X105849499Y-68092686D01*
X105829019Y-68128158D01*
X105784085Y-68162636D01*
X105727933Y-68155242D01*
X105693455Y-68110308D01*
X105692356Y-68105593D01*
X105689789Y-68092686D01*
X105660130Y-67943580D01*
X105580941Y-67752402D01*
X105465977Y-67580345D01*
X105319655Y-67434023D01*
X105241630Y-67381889D01*
X105147598Y-67319059D01*
X104956420Y-67239870D01*
X104956413Y-67239868D01*
X104803516Y-67209455D01*
X104753465Y-67199500D01*
X104546535Y-67199500D01*
X104506385Y-67207486D01*
X104343586Y-67239868D01*
X104343579Y-67239870D01*
X104152401Y-67319059D01*
X103980345Y-67434022D01*
X103980344Y-67434024D01*
X103834024Y-67580344D01*
X103834022Y-67580345D01*
X103719059Y-67752401D01*
X103639870Y-67943579D01*
X103639868Y-67943586D01*
X103599500Y-68146535D01*
X103160500Y-68146535D01*
X103120130Y-67943580D01*
X103040941Y-67752402D01*
X102925977Y-67580345D01*
X102779655Y-67434023D01*
X102701630Y-67381889D01*
X102607598Y-67319059D01*
X102416420Y-67239870D01*
X102416413Y-67239868D01*
X102263516Y-67209455D01*
X102213465Y-67199500D01*
X102006535Y-67199500D01*
X101966385Y-67207486D01*
X101803586Y-67239868D01*
X101803579Y-67239870D01*
X101612401Y-67319059D01*
X101440345Y-67434022D01*
X101440344Y-67434024D01*
X101294024Y-67580344D01*
X101294022Y-67580345D01*
X101179059Y-67752401D01*
X101099870Y-67943579D01*
X101099868Y-67943586D01*
X101059500Y-68146535D01*
X100590000Y-68146535D01*
X100590000Y-65606535D01*
X101059500Y-65606535D01*
X101059500Y-65813464D01*
X101099868Y-66016413D01*
X101099870Y-66016420D01*
X101179059Y-66207598D01*
X101294023Y-66379655D01*
X101440345Y-66525977D01*
X101612402Y-66640941D01*
X101803580Y-66720130D01*
X102006535Y-66760500D01*
X102006536Y-66760500D01*
X102213464Y-66760500D01*
X102213465Y-66760500D01*
X102416420Y-66720130D01*
X102607598Y-66640941D01*
X102779655Y-66525977D01*
X102925977Y-66379655D01*
X103040941Y-66207598D01*
X103120130Y-66016420D01*
X103160500Y-65813465D01*
X103160500Y-65606535D01*
X103599500Y-65606535D01*
X103599500Y-65813464D01*
X103639868Y-66016413D01*
X103639870Y-66016420D01*
X103719059Y-66207598D01*
X103834023Y-66379655D01*
X103980345Y-66525977D01*
X104152402Y-66640941D01*
X104343580Y-66720130D01*
X104546535Y-66760500D01*
X104546536Y-66760500D01*
X104753464Y-66760500D01*
X104753465Y-66760500D01*
X104956420Y-66720130D01*
X105147598Y-66640941D01*
X105319655Y-66525977D01*
X105465977Y-66379655D01*
X105580941Y-66207598D01*
X105660130Y-66016420D01*
X105700500Y-65813465D01*
X105700500Y-65606535D01*
X105660130Y-65403580D01*
X105580941Y-65212402D01*
X105465977Y-65040345D01*
X105319655Y-64894023D01*
X105253323Y-64849702D01*
X105147598Y-64779059D01*
X104956420Y-64699870D01*
X104956413Y-64699868D01*
X104801140Y-64668983D01*
X104753465Y-64659500D01*
X104546535Y-64659500D01*
X104506385Y-64667486D01*
X104343586Y-64699868D01*
X104343579Y-64699870D01*
X104152401Y-64779059D01*
X103980345Y-64894022D01*
X103980344Y-64894024D01*
X103834024Y-65040344D01*
X103834022Y-65040345D01*
X103719059Y-65212401D01*
X103639870Y-65403579D01*
X103639868Y-65403586D01*
X103599500Y-65606535D01*
X103160500Y-65606535D01*
X103120130Y-65403580D01*
X103040941Y-65212402D01*
X102925977Y-65040345D01*
X102779655Y-64894023D01*
X102713323Y-64849702D01*
X102607598Y-64779059D01*
X102416420Y-64699870D01*
X102416413Y-64699868D01*
X102261140Y-64668983D01*
X102213465Y-64659500D01*
X102006535Y-64659500D01*
X101966385Y-64667486D01*
X101803586Y-64699868D01*
X101803579Y-64699870D01*
X101612401Y-64779059D01*
X101440345Y-64894022D01*
X101440344Y-64894024D01*
X101294024Y-65040344D01*
X101294022Y-65040345D01*
X101179059Y-65212401D01*
X101099870Y-65403579D01*
X101099868Y-65403586D01*
X101059500Y-65606535D01*
X100590000Y-65606535D01*
X100590000Y-63066535D01*
X101059500Y-63066535D01*
X101059500Y-63273464D01*
X101099868Y-63476413D01*
X101099870Y-63476420D01*
X101179059Y-63667598D01*
X101196423Y-63693586D01*
X101294023Y-63839655D01*
X101440345Y-63985977D01*
X101612402Y-64100941D01*
X101803580Y-64180130D01*
X102006535Y-64220500D01*
X102006536Y-64220500D01*
X102213464Y-64220500D01*
X102213465Y-64220500D01*
X102416420Y-64180130D01*
X102607598Y-64100941D01*
X102779655Y-63985977D01*
X102925977Y-63839655D01*
X103040941Y-63667598D01*
X103120130Y-63476420D01*
X103160500Y-63273465D01*
X103160500Y-63066535D01*
X103599500Y-63066535D01*
X103599500Y-63273464D01*
X103639868Y-63476413D01*
X103639870Y-63476420D01*
X103719059Y-63667598D01*
X103736423Y-63693586D01*
X103834023Y-63839655D01*
X103980345Y-63985977D01*
X104152402Y-64100941D01*
X104343580Y-64180130D01*
X104546535Y-64220500D01*
X104546536Y-64220500D01*
X104753464Y-64220500D01*
X104753465Y-64220500D01*
X104956420Y-64180130D01*
X105147598Y-64100941D01*
X105319655Y-63985977D01*
X105465977Y-63839655D01*
X105580941Y-63667598D01*
X105660130Y-63476420D01*
X105700500Y-63273465D01*
X105700500Y-63066535D01*
X105660130Y-62863580D01*
X105580941Y-62672402D01*
X105465977Y-62500345D01*
X105319655Y-62354023D01*
X105308071Y-62346283D01*
X105147598Y-62239059D01*
X104956420Y-62159870D01*
X104956413Y-62159868D01*
X104803516Y-62129455D01*
X104753465Y-62119500D01*
X104546535Y-62119500D01*
X104506385Y-62127486D01*
X104343586Y-62159868D01*
X104343579Y-62159870D01*
X104152401Y-62239059D01*
X103980345Y-62354022D01*
X103980344Y-62354024D01*
X103834024Y-62500344D01*
X103834022Y-62500345D01*
X103719059Y-62672401D01*
X103639870Y-62863579D01*
X103639868Y-62863586D01*
X103599500Y-63066535D01*
X103160500Y-63066535D01*
X103120130Y-62863580D01*
X103040941Y-62672402D01*
X102925977Y-62500345D01*
X102779655Y-62354023D01*
X102768071Y-62346283D01*
X102607598Y-62239059D01*
X102416420Y-62159870D01*
X102416413Y-62159868D01*
X102263516Y-62129455D01*
X102213465Y-62119500D01*
X102006535Y-62119500D01*
X101966385Y-62127486D01*
X101803586Y-62159868D01*
X101803579Y-62159870D01*
X101612401Y-62239059D01*
X101440345Y-62354022D01*
X101440344Y-62354024D01*
X101294024Y-62500344D01*
X101294022Y-62500345D01*
X101179059Y-62672401D01*
X101099870Y-62863579D01*
X101099868Y-62863586D01*
X101059500Y-63066535D01*
X100590000Y-63066535D01*
X100590000Y-60526535D01*
X103599500Y-60526535D01*
X103599500Y-60733464D01*
X103639868Y-60936413D01*
X103639870Y-60936420D01*
X103719059Y-61127598D01*
X103784474Y-61225500D01*
X103834023Y-61299655D01*
X103980345Y-61445977D01*
X104152402Y-61560941D01*
X104343580Y-61640130D01*
X104546535Y-61680500D01*
X104546536Y-61680500D01*
X104753464Y-61680500D01*
X104753465Y-61680500D01*
X104956420Y-61640130D01*
X105147598Y-61560941D01*
X105319655Y-61445977D01*
X105465977Y-61299655D01*
X105580941Y-61127598D01*
X105660130Y-60936420D01*
X105700500Y-60733465D01*
X105700500Y-60526535D01*
X105660130Y-60323580D01*
X105580941Y-60132402D01*
X105465977Y-59960345D01*
X105319655Y-59814023D01*
X105147598Y-59699059D01*
X104956420Y-59619870D01*
X104956413Y-59619868D01*
X104803516Y-59589455D01*
X104753465Y-59579500D01*
X104546535Y-59579500D01*
X104506385Y-59587486D01*
X104343586Y-59619868D01*
X104343579Y-59619870D01*
X104152401Y-59699059D01*
X103980345Y-59814022D01*
X103980344Y-59814024D01*
X103834024Y-59960344D01*
X103834022Y-59960345D01*
X103719059Y-60132401D01*
X103639870Y-60323579D01*
X103639868Y-60323586D01*
X103599500Y-60526535D01*
X100590000Y-60526535D01*
X100590000Y-58259105D01*
X109949500Y-58259105D01*
X109949500Y-58390894D01*
X109983606Y-58518181D01*
X109983610Y-58518190D01*
X110049500Y-58632314D01*
X110127826Y-58710640D01*
X110149500Y-58762966D01*
X110149500Y-72989564D01*
X110169977Y-73065985D01*
X110169979Y-73065990D01*
X110205083Y-73126792D01*
X110205084Y-73126793D01*
X110209540Y-73134511D01*
X110209541Y-73134512D01*
X115227826Y-78152797D01*
X115249500Y-78205123D01*
X115249500Y-78315894D01*
X115283606Y-78443181D01*
X115283610Y-78443190D01*
X115339792Y-78540499D01*
X115349500Y-78557314D01*
X115442686Y-78650500D01*
X115556814Y-78716392D01*
X115684105Y-78750499D01*
X115684106Y-78750500D01*
X115684108Y-78750500D01*
X115815894Y-78750500D01*
X115815894Y-78750499D01*
X115943186Y-78716392D01*
X116057314Y-78650500D01*
X116150500Y-78557314D01*
X116216392Y-78443186D01*
X116250499Y-78315894D01*
X116250500Y-78315894D01*
X116250500Y-78184106D01*
X116250499Y-78184105D01*
X116226003Y-78092685D01*
X116216392Y-78056814D01*
X116150500Y-77942686D01*
X116057314Y-77849500D01*
X116030649Y-77834105D01*
X115943190Y-77783610D01*
X115943181Y-77783606D01*
X115815894Y-77749500D01*
X115815892Y-77749500D01*
X115705123Y-77749500D01*
X115652797Y-77727826D01*
X114209076Y-76284105D01*
X116274500Y-76284105D01*
X116274500Y-76415894D01*
X116308606Y-76543181D01*
X116308607Y-76543184D01*
X116308608Y-76543186D01*
X116374500Y-76657314D01*
X116467686Y-76750500D01*
X116581814Y-76816392D01*
X116709105Y-76850499D01*
X116709106Y-76850500D01*
X116709108Y-76850500D01*
X116840894Y-76850500D01*
X116840894Y-76850499D01*
X116968186Y-76816392D01*
X117082314Y-76750500D01*
X117175500Y-76657314D01*
X117241392Y-76543186D01*
X117275499Y-76415894D01*
X117275500Y-76415894D01*
X117275500Y-76284106D01*
X117275499Y-76284105D01*
X117274772Y-76281393D01*
X117241392Y-76156814D01*
X117175500Y-76042686D01*
X117082314Y-75949500D01*
X116995712Y-75899500D01*
X116968190Y-75883610D01*
X116968181Y-75883606D01*
X116840894Y-75849500D01*
X116840892Y-75849500D01*
X116709108Y-75849500D01*
X116709106Y-75849500D01*
X116581818Y-75883606D01*
X116581809Y-75883610D01*
X116467685Y-75949500D01*
X116374500Y-76042685D01*
X116308610Y-76156809D01*
X116308606Y-76156818D01*
X116274500Y-76284105D01*
X114209076Y-76284105D01*
X113109076Y-75184105D01*
X145499500Y-75184105D01*
X145499500Y-75315894D01*
X145533606Y-75443181D01*
X145533610Y-75443190D01*
X145570847Y-75507686D01*
X145599500Y-75557314D01*
X145692686Y-75650500D01*
X145806814Y-75716392D01*
X145934105Y-75750499D01*
X145934106Y-75750500D01*
X145934108Y-75750500D01*
X146065894Y-75750500D01*
X146065894Y-75750499D01*
X146193186Y-75716392D01*
X146307314Y-75650500D01*
X146385640Y-75572174D01*
X146437966Y-75550500D01*
X152037034Y-75550500D01*
X152079613Y-75563977D01*
X152084841Y-75567655D01*
X152117686Y-75600500D01*
X152194860Y-75645057D01*
X152197570Y-75646963D01*
X152211090Y-75668290D01*
X152226470Y-75688333D01*
X152226010Y-75691824D01*
X152227895Y-75694798D01*
X152222374Y-75719441D01*
X152219077Y-75744486D01*
X152216283Y-75746629D01*
X152215514Y-75750065D01*
X152194185Y-75763586D01*
X152174145Y-75778964D01*
X152156816Y-75783607D01*
X152156809Y-75783610D01*
X152042685Y-75849500D01*
X151949497Y-75942689D01*
X151938060Y-75962500D01*
X151893127Y-75996978D01*
X151873974Y-75999500D01*
X147639562Y-75999500D01*
X147560438Y-75999500D01*
X147484012Y-76019978D01*
X147484011Y-76019978D01*
X147484009Y-76019979D01*
X147484007Y-76019980D01*
X147415490Y-76059538D01*
X146172202Y-77302826D01*
X146119876Y-77324500D01*
X146009106Y-77324500D01*
X145881818Y-77358606D01*
X145881809Y-77358610D01*
X145767685Y-77424500D01*
X145674500Y-77517685D01*
X145608610Y-77631809D01*
X145608606Y-77631818D01*
X145574500Y-77759105D01*
X145574500Y-77890894D01*
X145608606Y-78018181D01*
X145608610Y-78018190D01*
X145652912Y-78094922D01*
X145674500Y-78132314D01*
X145767686Y-78225500D01*
X145881814Y-78291392D01*
X146009105Y-78325499D01*
X146009106Y-78325500D01*
X146009108Y-78325500D01*
X146140894Y-78325500D01*
X146140894Y-78325499D01*
X146268186Y-78291392D01*
X146382314Y-78225500D01*
X146475500Y-78132314D01*
X146541392Y-78018186D01*
X146575499Y-77890894D01*
X146575500Y-77890894D01*
X146575500Y-77780122D01*
X146597174Y-77727796D01*
X147199637Y-77125334D01*
X157304888Y-77125334D01*
X157304888Y-77257123D01*
X157338994Y-77384410D01*
X157338998Y-77384419D01*
X157404888Y-77498543D01*
X157483214Y-77576869D01*
X157504888Y-77629195D01*
X157504888Y-84784952D01*
X157525366Y-84861376D01*
X157564449Y-84929072D01*
X157564450Y-84929072D01*
X157564927Y-84929897D01*
X157564928Y-84929899D01*
X162627826Y-89992797D01*
X162649500Y-90045123D01*
X162649500Y-90155894D01*
X162683606Y-90283181D01*
X162683610Y-90283190D01*
X162749500Y-90397314D01*
X162842686Y-90490500D01*
X162956814Y-90556392D01*
X163084105Y-90590499D01*
X163084106Y-90590500D01*
X163084108Y-90590500D01*
X163215894Y-90590500D01*
X163215894Y-90590499D01*
X163343186Y-90556392D01*
X163457314Y-90490500D01*
X163550500Y-90397314D01*
X163616392Y-90283186D01*
X163650499Y-90155894D01*
X163650500Y-90155894D01*
X163650500Y-90024106D01*
X163650499Y-90024105D01*
X163616393Y-89896818D01*
X163616392Y-89896814D01*
X163550500Y-89782686D01*
X163457314Y-89689500D01*
X163417285Y-89666389D01*
X163343190Y-89623610D01*
X163343181Y-89623606D01*
X163215894Y-89589500D01*
X163215892Y-89589500D01*
X163105123Y-89589500D01*
X163052797Y-89567826D01*
X158594076Y-85109105D01*
X161049500Y-85109105D01*
X161049500Y-85240894D01*
X161083606Y-85368181D01*
X161083610Y-85368190D01*
X161144989Y-85474500D01*
X161149500Y-85482314D01*
X161242686Y-85575500D01*
X161356814Y-85641392D01*
X161484105Y-85675499D01*
X161484106Y-85675500D01*
X161484108Y-85675500D01*
X161615894Y-85675500D01*
X161615894Y-85675499D01*
X161743186Y-85641392D01*
X161857314Y-85575500D01*
X161950500Y-85482314D01*
X161976373Y-85437499D01*
X162021306Y-85403022D01*
X162040459Y-85400500D01*
X165029911Y-85400500D01*
X165082237Y-85422174D01*
X165160563Y-85500500D01*
X165274691Y-85566392D01*
X165401982Y-85600499D01*
X165401983Y-85600500D01*
X165401985Y-85600500D01*
X165533771Y-85600500D01*
X165533771Y-85600499D01*
X165661063Y-85566392D01*
X165775191Y-85500500D01*
X165868377Y-85407314D01*
X165934269Y-85293186D01*
X165968376Y-85165894D01*
X165968377Y-85165894D01*
X165968377Y-85034106D01*
X165968376Y-85034105D01*
X165940454Y-84929899D01*
X165934269Y-84906814D01*
X165868377Y-84792686D01*
X165775191Y-84699500D01*
X165676622Y-84642591D01*
X165661067Y-84633610D01*
X165661058Y-84633606D01*
X165533771Y-84599500D01*
X165533769Y-84599500D01*
X165401985Y-84599500D01*
X165401983Y-84599500D01*
X165274695Y-84633606D01*
X165274686Y-84633610D01*
X165160562Y-84699500D01*
X165082237Y-84777826D01*
X165029911Y-84799500D01*
X161912966Y-84799500D01*
X161860640Y-84777826D01*
X161857314Y-84774500D01*
X161743190Y-84708610D01*
X161743181Y-84708606D01*
X161615894Y-84674500D01*
X161615892Y-84674500D01*
X161484108Y-84674500D01*
X161484106Y-84674500D01*
X161356818Y-84708606D01*
X161356809Y-84708610D01*
X161242685Y-84774500D01*
X161149500Y-84867685D01*
X161083610Y-84981809D01*
X161083606Y-84981818D01*
X161049500Y-85109105D01*
X158594076Y-85109105D01*
X158127562Y-84642591D01*
X158105888Y-84590265D01*
X158105888Y-81333104D01*
X158127562Y-81280778D01*
X158179888Y-81259104D01*
X158208207Y-81264737D01*
X158212198Y-81266390D01*
X158212199Y-81266390D01*
X158212202Y-81266392D01*
X158339496Y-81300500D01*
X158339497Y-81300500D01*
X158471282Y-81300500D01*
X158471282Y-81300499D01*
X158598574Y-81266392D01*
X158712702Y-81200500D01*
X158805888Y-81107314D01*
X158871780Y-80993186D01*
X158905887Y-80865894D01*
X158905888Y-80865894D01*
X158905888Y-80734106D01*
X158905887Y-80734105D01*
X158871781Y-80606818D01*
X158871780Y-80606814D01*
X158805888Y-80492686D01*
X158712702Y-80399500D01*
X158704887Y-80394988D01*
X158598578Y-80333610D01*
X158598569Y-80333606D01*
X158471282Y-80299500D01*
X158471280Y-80299500D01*
X158339496Y-80299500D01*
X158339494Y-80299500D01*
X158212206Y-80333606D01*
X158208205Y-80335264D01*
X158151567Y-80335262D01*
X158111520Y-80295213D01*
X158105888Y-80266896D01*
X158105888Y-77629195D01*
X158127562Y-77576869D01*
X158205888Y-77498543D01*
X158271780Y-77384415D01*
X158305887Y-77257123D01*
X158305888Y-77257123D01*
X158305888Y-77125335D01*
X158305887Y-77125334D01*
X158271781Y-76998047D01*
X158271780Y-76998043D01*
X158205888Y-76883915D01*
X158112702Y-76790729D01*
X158059703Y-76760130D01*
X157998578Y-76724839D01*
X157998569Y-76724835D01*
X157871282Y-76690729D01*
X157871280Y-76690729D01*
X157739496Y-76690729D01*
X157739494Y-76690729D01*
X157612206Y-76724835D01*
X157612197Y-76724839D01*
X157498073Y-76790729D01*
X157404888Y-76883914D01*
X157338998Y-76998038D01*
X157338994Y-76998047D01*
X157304888Y-77125334D01*
X147199637Y-77125334D01*
X147256810Y-77068161D01*
X147702797Y-76622174D01*
X147755123Y-76600500D01*
X151962034Y-76600500D01*
X152014360Y-76622174D01*
X152042686Y-76650500D01*
X152156814Y-76716392D01*
X152284105Y-76750499D01*
X152284106Y-76750500D01*
X152284108Y-76750500D01*
X152415894Y-76750500D01*
X152415894Y-76750499D01*
X152543186Y-76716392D01*
X152657314Y-76650500D01*
X152750500Y-76557314D01*
X152816392Y-76443186D01*
X152850499Y-76315894D01*
X152850500Y-76315894D01*
X152850500Y-76184106D01*
X152850499Y-76184105D01*
X152843186Y-76156814D01*
X152816392Y-76056814D01*
X152750500Y-75942686D01*
X152657314Y-75849500D01*
X152629790Y-75833609D01*
X152583008Y-75806599D01*
X152548529Y-75761665D01*
X152555922Y-75705513D01*
X152600852Y-75671036D01*
X152618186Y-75666392D01*
X152732314Y-75600500D01*
X152825500Y-75507314D01*
X152891392Y-75393186D01*
X152925499Y-75265894D01*
X152925500Y-75265894D01*
X152925500Y-75134106D01*
X152925499Y-75134105D01*
X152891393Y-75006818D01*
X152891392Y-75006814D01*
X152825500Y-74892686D01*
X152732314Y-74799500D01*
X152635259Y-74743465D01*
X152618190Y-74733610D01*
X152618181Y-74733606D01*
X152490894Y-74699500D01*
X152490892Y-74699500D01*
X152359108Y-74699500D01*
X152359106Y-74699500D01*
X152231818Y-74733606D01*
X152231809Y-74733610D01*
X152117685Y-74799500D01*
X152024497Y-74892689D01*
X152013060Y-74912500D01*
X151968127Y-74946978D01*
X151948974Y-74949500D01*
X146437966Y-74949500D01*
X146385640Y-74927826D01*
X146307314Y-74849500D01*
X146193190Y-74783610D01*
X146193181Y-74783606D01*
X146065894Y-74749500D01*
X146065892Y-74749500D01*
X145934108Y-74749500D01*
X145934106Y-74749500D01*
X145806818Y-74783606D01*
X145806809Y-74783610D01*
X145692685Y-74849500D01*
X145599500Y-74942685D01*
X145533610Y-75056809D01*
X145533606Y-75056818D01*
X145499500Y-75184105D01*
X113109076Y-75184105D01*
X110772174Y-72847203D01*
X110750500Y-72794877D01*
X110750500Y-71044105D01*
X130089500Y-71044105D01*
X130089500Y-71175894D01*
X130123606Y-71303181D01*
X130123607Y-71303184D01*
X130123608Y-71303186D01*
X130189500Y-71417314D01*
X130282686Y-71510500D01*
X130396814Y-71576392D01*
X130524105Y-71610499D01*
X130524106Y-71610500D01*
X130524108Y-71610500D01*
X130655894Y-71610500D01*
X130655894Y-71610499D01*
X130783186Y-71576392D01*
X130897314Y-71510500D01*
X130990500Y-71417314D01*
X131056392Y-71303186D01*
X131090499Y-71175894D01*
X131090500Y-71175894D01*
X131090500Y-71044106D01*
X131090499Y-71044105D01*
X131089772Y-71041393D01*
X131056392Y-70916814D01*
X130990500Y-70802686D01*
X130912174Y-70724360D01*
X130890500Y-70672034D01*
X130890500Y-70115122D01*
X130912173Y-70062797D01*
X132626460Y-68348511D01*
X132666022Y-68279988D01*
X132686500Y-68203562D01*
X132686500Y-68124438D01*
X132686500Y-67109105D01*
X137599500Y-67109105D01*
X137599500Y-67240894D01*
X137633606Y-67368181D01*
X137633610Y-67368190D01*
X137671619Y-67434023D01*
X137699500Y-67482314D01*
X137792686Y-67575500D01*
X137906814Y-67641392D01*
X138034105Y-67675499D01*
X138034106Y-67675500D01*
X138034108Y-67675500D01*
X138165894Y-67675500D01*
X138165894Y-67675499D01*
X138293186Y-67641392D01*
X138338500Y-67615229D01*
X138394651Y-67607836D01*
X138439585Y-67642314D01*
X138449500Y-67679315D01*
X138449500Y-73039564D01*
X138469978Y-73115988D01*
X138509292Y-73184083D01*
X138509537Y-73184507D01*
X138509540Y-73184511D01*
X139259540Y-73934511D01*
X139315489Y-73990460D01*
X139332879Y-74000500D01*
X139377006Y-74025977D01*
X139384011Y-74030021D01*
X139384012Y-74030021D01*
X139384014Y-74030022D01*
X139390702Y-74031814D01*
X139460435Y-74050499D01*
X139460436Y-74050500D01*
X139460438Y-74050500D01*
X151789564Y-74050500D01*
X151789564Y-74050499D01*
X151865989Y-74030021D01*
X151934511Y-73990460D01*
X151990460Y-73934511D01*
X152152796Y-73772173D01*
X152205122Y-73750500D01*
X152315894Y-73750500D01*
X152315894Y-73750499D01*
X152443186Y-73716392D01*
X152557314Y-73650500D01*
X152650500Y-73557314D01*
X152716392Y-73443186D01*
X152750499Y-73315894D01*
X152750500Y-73315894D01*
X152750500Y-73184106D01*
X152750499Y-73184105D01*
X152735142Y-73126793D01*
X152716392Y-73056814D01*
X152650500Y-72942686D01*
X152557314Y-72849500D01*
X152443190Y-72783610D01*
X152443181Y-72783606D01*
X152315894Y-72749500D01*
X152315892Y-72749500D01*
X152184108Y-72749500D01*
X152184106Y-72749500D01*
X152056818Y-72783606D01*
X152056809Y-72783610D01*
X151942685Y-72849500D01*
X151849500Y-72942685D01*
X151783610Y-73056809D01*
X151783606Y-73056818D01*
X151749500Y-73184105D01*
X151749500Y-73294876D01*
X151727826Y-73347202D01*
X151647203Y-73427826D01*
X151594877Y-73449500D01*
X144795544Y-73449500D01*
X144743218Y-73427826D01*
X144721544Y-73375500D01*
X144743218Y-73323174D01*
X144745910Y-73320481D01*
X144745913Y-73320480D01*
X145394219Y-72672174D01*
X145446545Y-72650500D01*
X145904258Y-72650500D01*
X145904266Y-72650500D01*
X145934699Y-72647646D01*
X146062882Y-72602793D01*
X146172150Y-72522150D01*
X146252793Y-72412882D01*
X146297646Y-72284699D01*
X146300500Y-72254266D01*
X146300500Y-71245734D01*
X146699500Y-71245734D01*
X146699500Y-72254266D01*
X146702354Y-72284699D01*
X146702354Y-72284701D01*
X146702355Y-72284704D01*
X146747206Y-72412881D01*
X146747207Y-72412883D01*
X146827846Y-72522146D01*
X146827853Y-72522153D01*
X146937116Y-72602792D01*
X146937118Y-72602793D01*
X147065295Y-72647644D01*
X147065301Y-72647646D01*
X147095734Y-72650500D01*
X147095741Y-72650500D01*
X147904258Y-72650500D01*
X147904266Y-72650500D01*
X147934699Y-72647646D01*
X148062882Y-72602793D01*
X148172150Y-72522150D01*
X148252793Y-72412882D01*
X148297646Y-72284699D01*
X148300500Y-72254266D01*
X148300500Y-71546544D01*
X148322174Y-71494218D01*
X151157287Y-68659105D01*
X153399500Y-68659105D01*
X153399500Y-68790894D01*
X153433606Y-68918181D01*
X153433610Y-68918190D01*
X153449981Y-68946545D01*
X153499500Y-69032314D01*
X153592686Y-69125500D01*
X153706814Y-69191392D01*
X153834105Y-69225499D01*
X153834106Y-69225500D01*
X153834108Y-69225500D01*
X153965894Y-69225500D01*
X153965894Y-69225499D01*
X154093186Y-69191392D01*
X154207314Y-69125500D01*
X154300500Y-69032314D01*
X154366392Y-68918186D01*
X154400499Y-68790894D01*
X154400500Y-68790894D01*
X154400500Y-68659106D01*
X154400499Y-68659105D01*
X154383431Y-68595407D01*
X154366392Y-68531814D01*
X154300500Y-68417686D01*
X154207314Y-68324500D01*
X154130221Y-68279990D01*
X154093190Y-68258610D01*
X154093181Y-68258606D01*
X153965894Y-68224500D01*
X153965892Y-68224500D01*
X153834108Y-68224500D01*
X153834106Y-68224500D01*
X153706818Y-68258606D01*
X153706809Y-68258610D01*
X153592685Y-68324500D01*
X153499500Y-68417685D01*
X153433610Y-68531809D01*
X153433606Y-68531818D01*
X153399500Y-68659105D01*
X151157287Y-68659105D01*
X152344218Y-67472174D01*
X152396544Y-67450500D01*
X154519746Y-67450500D01*
X154519748Y-67450500D01*
X154578231Y-67438867D01*
X154644552Y-67394552D01*
X154688867Y-67328231D01*
X154700500Y-67269748D01*
X154700500Y-63005123D01*
X154722174Y-62952797D01*
X155352797Y-62322174D01*
X155405123Y-62300500D01*
X156675500Y-62300500D01*
X156727826Y-62322174D01*
X156749500Y-62374500D01*
X156749500Y-62620764D01*
X156759427Y-62688893D01*
X156759427Y-62688894D01*
X156810801Y-62793982D01*
X156810802Y-62793983D01*
X156893517Y-62876698D01*
X156998607Y-62928073D01*
X157066740Y-62938000D01*
X157066746Y-62938000D01*
X157433254Y-62938000D01*
X157433260Y-62938000D01*
X157501393Y-62928073D01*
X157606483Y-62876698D01*
X157689198Y-62793983D01*
X157740573Y-62688893D01*
X157750500Y-62620760D01*
X157750500Y-61379240D01*
X157740573Y-61311107D01*
X157689198Y-61206017D01*
X157606483Y-61123302D01*
X157606482Y-61123301D01*
X157501394Y-61071927D01*
X157433264Y-61062000D01*
X157433260Y-61062000D01*
X157066740Y-61062000D01*
X157066735Y-61062000D01*
X156998606Y-61071927D01*
X156998605Y-61071927D01*
X156893517Y-61123301D01*
X156810801Y-61206017D01*
X156759427Y-61311105D01*
X156759427Y-61311106D01*
X156749500Y-61379235D01*
X156749500Y-61625500D01*
X156727826Y-61677826D01*
X156675500Y-61699500D01*
X155289562Y-61699500D01*
X155210438Y-61699500D01*
X155134012Y-61719978D01*
X155134011Y-61719978D01*
X155134009Y-61719979D01*
X155134007Y-61719980D01*
X155065492Y-61759537D01*
X154826826Y-61998203D01*
X154774500Y-62019877D01*
X154722174Y-61998203D01*
X154700500Y-61945877D01*
X154700500Y-61230253D01*
X154695679Y-61206017D01*
X154688867Y-61171769D01*
X154644552Y-61105448D01*
X154622343Y-61090608D01*
X154578232Y-61061133D01*
X154578233Y-61061133D01*
X154548989Y-61055316D01*
X154519748Y-61049500D01*
X151480252Y-61049500D01*
X151451010Y-61055316D01*
X151421767Y-61061133D01*
X151355449Y-61105447D01*
X151355447Y-61105449D01*
X151311133Y-61171767D01*
X151299500Y-61230253D01*
X151299500Y-67269747D01*
X151310756Y-67326340D01*
X151299706Y-67381889D01*
X151290504Y-67393102D01*
X147855781Y-70827826D01*
X147803455Y-70849500D01*
X147095734Y-70849500D01*
X147065301Y-70852354D01*
X147065299Y-70852354D01*
X147065295Y-70852355D01*
X146937118Y-70897206D01*
X146937116Y-70897207D01*
X146827853Y-70977846D01*
X146827846Y-70977853D01*
X146747207Y-71087116D01*
X146747206Y-71087118D01*
X146702355Y-71215295D01*
X146702354Y-71215299D01*
X146702354Y-71215301D01*
X146699500Y-71245734D01*
X146300500Y-71245734D01*
X146297646Y-71215301D01*
X146252793Y-71087118D01*
X146225030Y-71049500D01*
X146172153Y-70977853D01*
X146172146Y-70977846D01*
X146062883Y-70897207D01*
X146062881Y-70897206D01*
X145950059Y-70857727D01*
X145907828Y-70819987D01*
X145900500Y-70787880D01*
X145900500Y-68697271D01*
X145893619Y-68671593D01*
X145886738Y-68645913D01*
X145873207Y-68595412D01*
X145836488Y-68531814D01*
X145820482Y-68504090D01*
X145820481Y-68504089D01*
X145820480Y-68504087D01*
X142722174Y-65405781D01*
X142700500Y-65353455D01*
X142700500Y-61230253D01*
X142695679Y-61206017D01*
X142688867Y-61171769D01*
X142644552Y-61105448D01*
X142622343Y-61090608D01*
X142578232Y-61061133D01*
X142578233Y-61061133D01*
X142548989Y-61055316D01*
X142519748Y-61049500D01*
X139480252Y-61049500D01*
X139451010Y-61055316D01*
X139421767Y-61061133D01*
X139355449Y-61105447D01*
X139355447Y-61105449D01*
X139311133Y-61171767D01*
X139299500Y-61230253D01*
X139299500Y-67269746D01*
X139311133Y-67328232D01*
X139337833Y-67368190D01*
X139355448Y-67394552D01*
X139399560Y-67424027D01*
X139421767Y-67438866D01*
X139421768Y-67438866D01*
X139421769Y-67438867D01*
X139480252Y-67450500D01*
X139480254Y-67450500D01*
X142519746Y-67450500D01*
X142519748Y-67450500D01*
X142578231Y-67438867D01*
X142644552Y-67394552D01*
X142688867Y-67328231D01*
X142700500Y-67269748D01*
X142700500Y-66695545D01*
X142722174Y-66643219D01*
X142774500Y-66621545D01*
X142826826Y-66643219D01*
X145077826Y-68894219D01*
X145099500Y-68946545D01*
X145099500Y-70787880D01*
X145077826Y-70840206D01*
X145049941Y-70857727D01*
X144937118Y-70897206D01*
X144937116Y-70897207D01*
X144827853Y-70977846D01*
X144827846Y-70977853D01*
X144747207Y-71087116D01*
X144747206Y-71087118D01*
X144702355Y-71215295D01*
X144702354Y-71215299D01*
X144702354Y-71215301D01*
X144699500Y-71245734D01*
X144699500Y-71245740D01*
X144699500Y-72203455D01*
X144677826Y-72255781D01*
X144355781Y-72577826D01*
X144303455Y-72599500D01*
X142827143Y-72599500D01*
X142790143Y-72589586D01*
X142693190Y-72533610D01*
X142693181Y-72533606D01*
X142565894Y-72499500D01*
X142565892Y-72499500D01*
X142434108Y-72499500D01*
X142434106Y-72499500D01*
X142306818Y-72533606D01*
X142306809Y-72533610D01*
X142192685Y-72599500D01*
X142099500Y-72692685D01*
X142033610Y-72806809D01*
X142033606Y-72806818D01*
X141999500Y-72934105D01*
X141999500Y-73065894D01*
X142033606Y-73193181D01*
X142033610Y-73193190D01*
X142099500Y-73307314D01*
X142115360Y-73323174D01*
X142137034Y-73375500D01*
X142115360Y-73427826D01*
X142063034Y-73449500D01*
X139655123Y-73449500D01*
X139602797Y-73427826D01*
X139072174Y-72897203D01*
X139050500Y-72844877D01*
X139050500Y-64710436D01*
X139050499Y-64710435D01*
X139030022Y-64634014D01*
X139030021Y-64634013D01*
X139030021Y-64634011D01*
X139010414Y-64600050D01*
X139000500Y-64563050D01*
X139000500Y-64434106D01*
X139000499Y-64434105D01*
X138966393Y-64306818D01*
X138966392Y-64306814D01*
X138900500Y-64192686D01*
X138807314Y-64099500D01*
X138693190Y-64033610D01*
X138693181Y-64033606D01*
X138565894Y-63999500D01*
X138565892Y-63999500D01*
X138434108Y-63999500D01*
X138434106Y-63999500D01*
X138306818Y-64033606D01*
X138306809Y-64033610D01*
X138192685Y-64099500D01*
X138099500Y-64192685D01*
X138033610Y-64306809D01*
X138033606Y-64306818D01*
X137999500Y-64434105D01*
X137999500Y-64565894D01*
X138033606Y-64693181D01*
X138033610Y-64693190D01*
X138099500Y-64807314D01*
X138192686Y-64900500D01*
X138306814Y-64966392D01*
X138394653Y-64989928D01*
X138439586Y-65024406D01*
X138449500Y-65061406D01*
X138449500Y-66670684D01*
X138427826Y-66723010D01*
X138375500Y-66744684D01*
X138338500Y-66734770D01*
X138293190Y-66708610D01*
X138293181Y-66708606D01*
X138165894Y-66674500D01*
X138165892Y-66674500D01*
X138034108Y-66674500D01*
X138034106Y-66674500D01*
X137906818Y-66708606D01*
X137906809Y-66708610D01*
X137792685Y-66774500D01*
X137699500Y-66867685D01*
X137633610Y-66981809D01*
X137633606Y-66981818D01*
X137599500Y-67109105D01*
X132686500Y-67109105D01*
X132686500Y-65371123D01*
X132708174Y-65318797D01*
X135742866Y-62284105D01*
X136949500Y-62284105D01*
X136949500Y-62415894D01*
X136983606Y-62543181D01*
X136983607Y-62543184D01*
X136983608Y-62543186D01*
X137049500Y-62657314D01*
X137142686Y-62750500D01*
X137256814Y-62816392D01*
X137384105Y-62850499D01*
X137384106Y-62850500D01*
X137384108Y-62850500D01*
X137515894Y-62850500D01*
X137515894Y-62850499D01*
X137643186Y-62816392D01*
X137757314Y-62750500D01*
X137850500Y-62657314D01*
X137916392Y-62543186D01*
X137950499Y-62415894D01*
X137950500Y-62415894D01*
X137950500Y-62284106D01*
X137950499Y-62284105D01*
X137949681Y-62281054D01*
X137916392Y-62156814D01*
X137850500Y-62042686D01*
X137757314Y-61949500D01*
X137702737Y-61917990D01*
X137643190Y-61883610D01*
X137643181Y-61883606D01*
X137515894Y-61849500D01*
X137515892Y-61849500D01*
X137384108Y-61849500D01*
X137384106Y-61849500D01*
X137256818Y-61883606D01*
X137256809Y-61883610D01*
X137142685Y-61949500D01*
X137049500Y-62042685D01*
X136983610Y-62156809D01*
X136983606Y-62156818D01*
X136949500Y-62284105D01*
X135742866Y-62284105D01*
X135800039Y-62226932D01*
X135907471Y-62119500D01*
X136040460Y-61986511D01*
X136061828Y-61949500D01*
X136080021Y-61917989D01*
X136100499Y-61841564D01*
X136100500Y-61841564D01*
X136100500Y-61262966D01*
X136122174Y-61210640D01*
X136161047Y-61171767D01*
X136200500Y-61132314D01*
X136266392Y-61018186D01*
X136300499Y-60890894D01*
X136300500Y-60890894D01*
X136300500Y-60759106D01*
X136300499Y-60759105D01*
X136266393Y-60631818D01*
X136266392Y-60631814D01*
X136200500Y-60517686D01*
X136107314Y-60424500D01*
X136056257Y-60395022D01*
X135993190Y-60358610D01*
X135993181Y-60358606D01*
X135865894Y-60324500D01*
X135865892Y-60324500D01*
X135734108Y-60324500D01*
X135734106Y-60324500D01*
X135606818Y-60358606D01*
X135606809Y-60358610D01*
X135492685Y-60424500D01*
X135399500Y-60517685D01*
X135333610Y-60631809D01*
X135333606Y-60631818D01*
X135299500Y-60759105D01*
X135299500Y-60890894D01*
X135333606Y-61018181D01*
X135333610Y-61018190D01*
X135399500Y-61132314D01*
X135477826Y-61210640D01*
X135499500Y-61262966D01*
X135499500Y-61646877D01*
X135477826Y-61699203D01*
X134426826Y-62750203D01*
X134374500Y-62771877D01*
X134322174Y-62750203D01*
X134300500Y-62697877D01*
X134300500Y-61180253D01*
X134300500Y-61180252D01*
X134288867Y-61121769D01*
X134277961Y-61105448D01*
X134255563Y-61071927D01*
X134244552Y-61055448D01*
X134222343Y-61040608D01*
X134178232Y-61011133D01*
X134178233Y-61011133D01*
X134148989Y-61005316D01*
X134119748Y-60999500D01*
X132380252Y-60999500D01*
X132351010Y-61005316D01*
X132321767Y-61011133D01*
X132255449Y-61055447D01*
X132255447Y-61055449D01*
X132211133Y-61121767D01*
X132209035Y-61132314D01*
X132199500Y-61180252D01*
X132199500Y-62919748D01*
X132203131Y-62938000D01*
X132211133Y-62978232D01*
X132224544Y-62998302D01*
X132255448Y-63044552D01*
X132292125Y-63069059D01*
X132321767Y-63088866D01*
X132321768Y-63088866D01*
X132321769Y-63088867D01*
X132380252Y-63100500D01*
X133897877Y-63100500D01*
X133950203Y-63122174D01*
X133971877Y-63174500D01*
X133950203Y-63226826D01*
X132145540Y-65031488D01*
X132105979Y-65100009D01*
X132105977Y-65100014D01*
X132085500Y-65176435D01*
X132085500Y-68008877D01*
X132063826Y-68061203D01*
X130349540Y-69775488D01*
X130309979Y-69844009D01*
X130309977Y-69844014D01*
X130289500Y-69920435D01*
X130289500Y-70672034D01*
X130267826Y-70724360D01*
X130189500Y-70802685D01*
X130123610Y-70916809D01*
X130123606Y-70916818D01*
X130089500Y-71044105D01*
X110750500Y-71044105D01*
X110750500Y-59406535D01*
X132199500Y-59406535D01*
X132199500Y-59613464D01*
X132239868Y-59816413D01*
X132239870Y-59816420D01*
X132319059Y-60007598D01*
X132434023Y-60179655D01*
X132580345Y-60325977D01*
X132752402Y-60440941D01*
X132943580Y-60520130D01*
X133146535Y-60560500D01*
X133146536Y-60560500D01*
X133353464Y-60560500D01*
X133353465Y-60560500D01*
X133556420Y-60520130D01*
X133747598Y-60440941D01*
X133919655Y-60325977D01*
X134065977Y-60179655D01*
X134180941Y-60007598D01*
X134260130Y-59816420D01*
X134300500Y-59613465D01*
X134300500Y-59406535D01*
X134260130Y-59203580D01*
X134180941Y-59012402D01*
X134065977Y-58840345D01*
X133919655Y-58694023D01*
X133827300Y-58632314D01*
X133747598Y-58579059D01*
X133556420Y-58499870D01*
X133556413Y-58499868D01*
X133403516Y-58469455D01*
X133353465Y-58459500D01*
X133146535Y-58459500D01*
X133106385Y-58467486D01*
X132943586Y-58499868D01*
X132943579Y-58499870D01*
X132752401Y-58579059D01*
X132580345Y-58694022D01*
X132580344Y-58694024D01*
X132434024Y-58840344D01*
X132434022Y-58840345D01*
X132319059Y-59012401D01*
X132239870Y-59203579D01*
X132239868Y-59203586D01*
X132199500Y-59406535D01*
X110750500Y-59406535D01*
X110750500Y-58762966D01*
X110772174Y-58710640D01*
X110788792Y-58694022D01*
X110850500Y-58632314D01*
X110916392Y-58518186D01*
X110950499Y-58390894D01*
X110950500Y-58390894D01*
X110950500Y-58259106D01*
X110950499Y-58259105D01*
X110934667Y-58200020D01*
X110916392Y-58131814D01*
X110850500Y-58017686D01*
X110757314Y-57924500D01*
X110703621Y-57893500D01*
X110643190Y-57858610D01*
X110643181Y-57858606D01*
X110515894Y-57824500D01*
X110515892Y-57824500D01*
X110384108Y-57824500D01*
X110384106Y-57824500D01*
X110256818Y-57858606D01*
X110256809Y-57858610D01*
X110142685Y-57924500D01*
X110049500Y-58017685D01*
X109983610Y-58131809D01*
X109983606Y-58131818D01*
X109949500Y-58259105D01*
X100590000Y-58259105D01*
X100590000Y-54359105D01*
X107099500Y-54359105D01*
X107099500Y-54490894D01*
X107133606Y-54618181D01*
X107133607Y-54618184D01*
X107133608Y-54618186D01*
X107199500Y-54732314D01*
X107292686Y-54825500D01*
X107406814Y-54891392D01*
X107534105Y-54925499D01*
X107534106Y-54925500D01*
X107534108Y-54925500D01*
X107665894Y-54925500D01*
X107665894Y-54925499D01*
X107793186Y-54891392D01*
X107907314Y-54825500D01*
X108000500Y-54732314D01*
X108066392Y-54618186D01*
X108100499Y-54490894D01*
X108100500Y-54490894D01*
X108100500Y-54359106D01*
X108100499Y-54359105D01*
X108066393Y-54231818D01*
X108066392Y-54231814D01*
X108000500Y-54117686D01*
X107907314Y-54024500D01*
X107857135Y-53995529D01*
X107793190Y-53958610D01*
X107793181Y-53958606D01*
X107665894Y-53924500D01*
X107665892Y-53924500D01*
X107534108Y-53924500D01*
X107534106Y-53924500D01*
X107406818Y-53958606D01*
X107406809Y-53958610D01*
X107292685Y-54024500D01*
X107199500Y-54117685D01*
X107133610Y-54231809D01*
X107133606Y-54231818D01*
X107099500Y-54359105D01*
X100590000Y-54359105D01*
X100590000Y-52439650D01*
X100611674Y-52387324D01*
X100664000Y-52365650D01*
X100686868Y-52369272D01*
X100867211Y-52427870D01*
X100867213Y-52427870D01*
X100867218Y-52427872D01*
X100992378Y-52447695D01*
X101054958Y-52457607D01*
X101054959Y-52457607D01*
X101245042Y-52457607D01*
X101291976Y-52450173D01*
X101432782Y-52427872D01*
X101432789Y-52427869D01*
X101432792Y-52427869D01*
X101613552Y-52369136D01*
X101613554Y-52369134D01*
X101613560Y-52369133D01*
X101782924Y-52282838D01*
X101936703Y-52171111D01*
X102071111Y-52036703D01*
X102182838Y-51882924D01*
X102269133Y-51713560D01*
X102285380Y-51663560D01*
X102327869Y-51532792D01*
X102327869Y-51532789D01*
X102327872Y-51532782D01*
X102357607Y-51345041D01*
X102357607Y-51154959D01*
X102327872Y-50967218D01*
X102327870Y-50967213D01*
X102327869Y-50967207D01*
X102269136Y-50786447D01*
X102269133Y-50786443D01*
X102269133Y-50786440D01*
X102196713Y-50644307D01*
X102182838Y-50617075D01*
X102071114Y-50463301D01*
X102071113Y-50463300D01*
X102071111Y-50463297D01*
X101936703Y-50328889D01*
X101936700Y-50328886D01*
X101936698Y-50328885D01*
X101875424Y-50284367D01*
X101845831Y-50236076D01*
X101859053Y-50181004D01*
X101907344Y-50151411D01*
X101918920Y-50150500D01*
X148415894Y-50150500D01*
X148415894Y-50150499D01*
X148543186Y-50116392D01*
X148606368Y-50079914D01*
X148643368Y-50070000D01*
X148720000Y-50070000D01*
X148720000Y-50018466D01*
X148741674Y-49966140D01*
X148800500Y-49907314D01*
X148866392Y-49793186D01*
X148900499Y-49665894D01*
X148900500Y-49665894D01*
X148900500Y-43344500D01*
X148922174Y-43292174D01*
X148974500Y-43270500D01*
X179425500Y-43270500D01*
X179477826Y-43292174D01*
G37*
%TD.AperFunction*%
%TD*%
M02*
