M48
; DRILL file {KiCad 9.0.0} date 2025-04-07T15:10:07+0200
; FORMAT={-:-/ absolute / inch / decimal}
; #@! TF.CreationDate,2025-04-07T15:10:07+02:00
; #@! TF.GenerationSoftware,Kicad,Pcbnew,9.0.0
; #@! TF.FileFunction,Plated,1,4,PTH
FMAT,2
INCH
; #@! TA.AperFunction,Plated,PTH,ViaDrill
T1C0.0118
; #@! TA.AperFunction,Plated,PTH,ComponentDrill
T2C0.0236
; #@! TA.AperFunction,Plated,PTH,ComponentDrill
T3C0.0287
; #@! TA.AperFunction,Plated,PTH,ComponentDrill
T4C0.0394
%
G90
G05
T1
X3.9764Y-3.7402
X4.0059Y-2.3228
X4.0157Y-3.0709
X4.0157Y-3.3858
X4.0167Y-3.0039
X4.0187Y-3.8317
X4.0276Y-3.7982
X4.0295Y-3.6496
X4.0295Y-3.6949
X4.0453Y-2.3228
X4.0551Y-2.0079
X4.0551Y-2.1654
X4.0896Y-3.6033
X4.0945Y-3.563
X4.1368Y-3.6004
X4.1506Y-3.3976
X4.1831Y-2.6929
X4.2283Y-2.7687
X4.2323Y-2.0669
X4.2362Y-2.1427
X4.2496Y-2.4154
X4.252Y-2.2343
X4.252Y-3.8976
X4.2598Y-2.7697
X4.2717Y-2.6173
X4.3012Y-3.7008
X4.3374Y-3.5984
X4.3484Y-2.2963
X4.3701Y-3.0709
X4.3996Y-3.6073
X4.4Y-2.6354
X4.439Y-2.0669
X4.4478Y-1.9921
X4.4478Y-2.0187
X4.4537Y-3.6476
X4.4577Y-3.69
X4.4577Y-3.8179
X4.4596Y-3.8602
X4.4636Y-3.503
X4.4892Y-2.5886
X4.4988Y-2.9571
X4.5305Y-3.4715
X4.5315Y-2.0364
X4.5315Y-3.5118
X4.5547Y-2.3756
X4.5571Y-3.0807
X4.565Y-2.0354
X4.5669Y-3.8976
X4.5689Y-3.6112
X4.5974Y-3.0059
X4.5994Y-2.0354
X4.6053Y-3.6919
X4.6299Y-3.1437
X4.6309Y-2.0354
X4.6457Y-2.2746
X4.6476Y-2.3396
X4.6486Y-2.2392
X4.6496Y-2.3022
X4.6516Y-2.2018
X4.6535Y-2.3839
X4.6555Y-2.1713
X4.6587Y-3.2535
X4.6654Y-2.0354
X4.686Y-3.6909
X4.69Y-2.1555
X4.6969Y-2.3878
X4.6998Y-2.0354
X4.7067Y-3.7963
X4.7067Y-3.8238
X4.7067Y-3.8533
X4.7087Y-2.9075
X4.7087Y-2.937
X4.7185Y-3.6102
X4.7323Y-2.1545
X4.7333Y-2.3907
X4.7343Y-2.0354
X4.7638Y-2.1545
X4.7657Y-2.3907
X4.7687Y-2.0344
X4.7972Y-2.1535
X4.8002Y-2.0354
X4.8002Y-2.3917
X4.8031Y-3.7008
X4.8287Y-3.6437
X4.8317Y-2.0354
X4.8346Y-2.3868
X4.8376Y-2.1535
X4.8593Y-3.6437
X4.8652Y-2.0344
X4.873Y-2.378
X4.877Y-2.1614
X4.8799Y-2.2697
X4.8799Y-2.3051
X4.8809Y-2.2028
X4.8809Y-2.2372
X4.8809Y-2.3406
X4.8819Y-2.6378
X4.8819Y-3.2677
X4.8986Y-2.0344
X4.9055Y-3.1437
X4.9222Y-3.8533
X4.9242Y-3.7844
X4.9262Y-3.815
X4.9331Y-2.0335
X4.9656Y-2.0335
X4.9734Y-3.6457
X4.9787Y-2.3787
X5.0Y-2.0354
X5.0128Y-3.3858
X5.0394Y-3.8976
X5.0413Y-2.5866
X5.0472Y-3.688
X5.0728Y-2.9075
X5.0728Y-2.937
X5.0748Y-3.689
X5.0797Y-1.9951
X5.0846Y-2.1053
X5.0886Y-2.1358
X5.0984Y-3.5994
X5.1398Y-3.7972
X5.1413Y-2.7996
X5.1476Y-2.1752
X5.186Y-3.7943
X5.1884Y-2.5636
X5.2037Y-3.4203
X5.2165Y-2.2441
X5.2362Y-3.3435
X5.2402Y-3.5994
X5.2421Y-3.5404
X5.2559Y-2.2441
X5.2967Y-2.5636
X5.3031Y-3.6801
X5.3159Y-3.3307
X5.3327Y-3.6801
X5.3459Y-2.5636
X5.3465Y-2.3947
X5.3642Y-2.0079
X5.373Y-3.4409
X5.374Y-3.4695
X5.376Y-3.5541
X5.4114Y-2.4547
X5.4291Y-3.1535
X5.437Y-2.6447
X5.4528Y-2.5394
X5.4724Y-2.2441
X5.4724Y-3.8976
X5.5118Y-2.2441
X5.5118Y-2.7953
X5.5689Y-3.4665
X5.5699Y-3.3868
X5.5699Y-3.5522
X5.6102Y-2.874
X5.6764Y-2.5339
X5.748Y-2.9626
X5.751Y-3.064
X5.8031Y-3.2539
X5.8051Y-3.063
X5.8287Y-2.528
X5.8476Y-2.0484
X5.8661Y-3.4252
X5.876Y-3.0463
X5.8927Y-3.2598
X5.8929Y-1.7366
X5.9252Y-2.3118
X5.9819Y-1.9752
X5.9941Y-2.8839
X5.9961Y-3.0394
X5.998Y-3.002
X6.001Y-2.9606
X6.0051Y-2.1319
X6.0256Y-3.6811
X6.0453Y-3.7057
X6.0591Y-2.7057
X6.065Y-3.7303
X6.0689Y-2.8445
X6.074Y-2.3256
X6.0886Y-2.8937
X6.0925Y-3.7795
X6.0965Y-3.7304
X6.0984Y-2.9508
X6.1083Y-3.0669
X6.1516Y-3.7598
X6.1743Y-2.8647
X6.187Y-3.0571
X6.187Y-3.1722
X6.2037Y-2.9222
X6.2057Y-2.8622
X6.2096Y-3.7913
X6.2128Y-3.039
X6.2181Y-2.1189
X6.2205Y-3.5827
X6.2364Y-3.1811
X6.2431Y-2.7785
X6.2431Y-3.7904
X6.2667Y-3.2756
X6.2882Y-3.0866
X6.3563Y-3.2717
X6.3602Y-3.3533
X6.3669Y-1.9508
X6.3777Y-3.6026
X6.378Y-2.5492
X6.4232Y-3.5469
X6.4272Y-2.7805
X6.433Y-3.1593
X6.4646Y-2.3355
X6.4665Y-2.5295
X6.4665Y-3.7402
X6.497Y-3.0059
X6.497Y-3.0433
X6.5Y-3.2992
X6.501Y-3.2569
X6.5098Y-2.1819
X6.5145Y-3.3504
X6.5244Y-1.8173
X6.585Y-2.5236
X6.6289Y-2.9675
X6.6352Y-2.5177
X6.6835Y-2.5177
X6.6854Y-2.7205
X6.6929Y-3.5236
X6.7236Y-1.9567
X6.7346Y-2.5207
X6.7346Y-2.8583
X6.7441Y-3.2332
X6.7697Y-3.3809
X6.811Y-3.7894
X6.8307Y-2.9429
X6.8346Y-3.0846
X6.8406Y-3.7894
X6.8504Y-3.4646
X6.8602Y-2.7559
X6.8661Y-2.3083
X6.8957Y-2.3083
X6.8996Y-2.1358
X6.9022Y-2.9848
X6.9144Y-3.7933
X6.9189Y-2.6626
X6.9189Y-2.6921
X6.938Y-3.0827
X6.939Y-2.335
X6.939Y-3.563
X6.9394Y-1.9961
X6.9439Y-3.7933
X6.9783Y-3.563
X6.9872Y-3.0807
X7.0315Y-1.728
X7.037Y-3.0764
X7.0374Y-3.8091
T3
X6.0728Y-2.0276
X6.0728Y-2.2146
X6.1319Y-2.0276
X6.1319Y-2.2146
X6.1909Y-2.0276
X6.1909Y-2.2146
X6.25Y-2.0276
X6.25Y-2.2146
X6.3091Y-2.0276
X6.3091Y-2.2146
X6.3681Y-2.0276
X6.3681Y-2.2146
X6.4272Y-2.0276
X6.4272Y-2.2146
X6.5748Y-2.0571
X6.5748Y-2.2441
X6.6339Y-2.0571
X6.6339Y-2.2441
X6.6929Y-2.0571
X6.6929Y-2.2441
X6.752Y-2.0571
X6.752Y-2.2441
X6.811Y-2.0571
X6.811Y-2.2441
X6.8701Y-2.0571
X6.8701Y-2.2441
X6.9291Y-2.0571
X6.9291Y-2.2441
T4
X4.0201Y-2.387
X4.0201Y-2.487
X4.0201Y-2.587
X4.0201Y-2.687
X4.022Y-2.8386
X4.022Y-2.9386
X4.1201Y-2.387
X4.1201Y-2.487
X4.1201Y-2.587
X4.1201Y-2.687
X4.122Y-2.8386
X4.122Y-2.9386
X4.222Y-2.8386
X4.222Y-2.9386
X4.7697Y-3.8248
X4.8681Y-3.8248
X5.1717Y-3.8583
X5.2461Y-2.3429
X5.2461Y-2.4429
X5.2717Y-3.8583
X5.6307Y-3.8543
X5.7307Y-3.8543
X5.8307Y-3.8543
X5.9307Y-3.8543
X5.9862Y-1.7748
X5.9862Y-1.8748
X6.0307Y-3.8543
X6.0862Y-1.7748
X6.0862Y-1.8748
X6.1307Y-3.8543
X6.1862Y-1.7748
X6.1862Y-1.8748
X6.2307Y-3.8543
X6.2862Y-1.7748
X6.2862Y-1.8748
X6.3307Y-3.8543
X6.3862Y-1.7748
X6.3862Y-1.8748
X6.4307Y-3.8543
X6.4862Y-1.7748
X6.4862Y-1.8748
X6.5307Y-3.8543
X6.5862Y-1.7748
X6.5862Y-1.8748
X6.6307Y-3.8543
X6.6567Y-3.626
X6.6862Y-1.7748
X6.6862Y-1.8748
X6.7307Y-3.8543
X6.7567Y-3.626
X6.7862Y-1.7748
X6.7862Y-1.8748
X6.8307Y-3.8543
X6.8567Y-3.626
X6.8862Y-1.7748
X6.8862Y-1.8748
X6.898Y-2.4197
X6.898Y-2.5197
X6.9307Y-3.8543
X6.9567Y-3.626
X6.9862Y-1.7748
X6.9862Y-1.8748
X6.998Y-2.4197
X6.998Y-2.5197
X7.0079Y-2.6823
X7.0079Y-2.7823
X7.0079Y-2.8823
X7.0079Y-2.9823
T2
G00X4.0748Y-3.6484
M15
G01X4.0748Y-3.6917
M16
G05
G00X4.0748Y-3.8189
M15
G01X4.0748Y-3.8504
M16
G05
G00X4.415Y-3.6484
M15
G01X4.415Y-3.6917
M16
G05
G00X4.415Y-3.8189
M15
G01X4.415Y-3.8504
M16
G05
M30
