%TF.GenerationSoftware,KiCad,Pcbnew,9.0.0*%
%TF.CreationDate,2025-04-07T15:09:55+02:00*%
%TF.ProjectId,BRAIN,42524149-4e2e-46b6-9963-61645f706362,rev?*%
%TF.SameCoordinates,Original*%
%TF.FileFunction,Copper,L1,Top*%
%TF.FilePolarity,Positive*%
%FSLAX46Y46*%
G04 Gerber Fmt 4.6, Leading zero omitted, Abs format (unit mm)*
G04 Created by KiCad (PCBNEW 9.0.0) date 2025-04-07 15:09:55*
%MOMM*%
%LPD*%
G01*
G04 APERTURE LIST*
G04 Aperture macros list*
%AMRoundRect*
0 Rectangle with rounded corners*
0 $1 Rounding radius*
0 $2 $3 $4 $5 $6 $7 $8 $9 X,Y pos of 4 corners*
0 Add a 4 corners polygon primitive as box body*
4,1,4,$2,$3,$4,$5,$6,$7,$8,$9,$2,$3,0*
0 Add four circle primitives for the rounded corners*
1,1,$1+$1,$2,$3*
1,1,$1+$1,$4,$5*
1,1,$1+$1,$6,$7*
1,1,$1+$1,$8,$9*
0 Add four rect primitives between the rounded corners*
20,1,$1+$1,$2,$3,$4,$5,0*
20,1,$1+$1,$4,$5,$6,$7,0*
20,1,$1+$1,$6,$7,$8,$9,0*
20,1,$1+$1,$8,$9,$2,$3,0*%
%AMFreePoly0*
4,1,14,0.603536,0.603536,0.605000,0.600000,0.605000,-0.600000,0.603536,-0.603536,0.600000,-0.605000,-0.600000,-0.605000,-0.603536,-0.603536,-0.605000,-0.600000,-0.605000,0.000000,-0.603536,0.003536,-0.003536,0.603536,0.000000,0.605000,0.600000,0.605000,0.603536,0.603536,0.603536,0.603536,$1*%
G04 Aperture macros list end*
%TA.AperFunction,SMDPad,CuDef*%
%ADD10R,0.800000X0.400000*%
%TD*%
%TA.AperFunction,SMDPad,CuDef*%
%ADD11R,0.400000X0.800000*%
%TD*%
%TA.AperFunction,SMDPad,CuDef*%
%ADD12R,1.200000X1.200000*%
%TD*%
%TA.AperFunction,SMDPad,CuDef*%
%ADD13FreePoly0,0.000000*%
%TD*%
%TA.AperFunction,SMDPad,CuDef*%
%ADD14R,0.800000X0.800000*%
%TD*%
%TA.AperFunction,SMDPad,CuDef*%
%ADD15RoundRect,0.250000X0.475000X-0.337500X0.475000X0.337500X-0.475000X0.337500X-0.475000X-0.337500X0*%
%TD*%
%TA.AperFunction,SMDPad,CuDef*%
%ADD16RoundRect,0.150000X-0.150000X-0.425000X0.150000X-0.425000X0.150000X0.425000X-0.150000X0.425000X0*%
%TD*%
%TA.AperFunction,SMDPad,CuDef*%
%ADD17RoundRect,0.075000X-0.075000X-0.500000X0.075000X-0.500000X0.075000X0.500000X-0.075000X0.500000X0*%
%TD*%
%TA.AperFunction,HeatsinkPad*%
%ADD18O,1.000000X2.100000*%
%TD*%
%TA.AperFunction,HeatsinkPad*%
%ADD19O,1.000000X1.800000*%
%TD*%
%TA.AperFunction,SMDPad,CuDef*%
%ADD20RoundRect,0.250000X-0.475000X0.337500X-0.475000X-0.337500X0.475000X-0.337500X0.475000X0.337500X0*%
%TD*%
%TA.AperFunction,SMDPad,CuDef*%
%ADD21RoundRect,0.250000X-0.450000X0.350000X-0.450000X-0.350000X0.450000X-0.350000X0.450000X0.350000X0*%
%TD*%
%TA.AperFunction,SMDPad,CuDef*%
%ADD22RoundRect,0.250000X0.450000X-0.350000X0.450000X0.350000X-0.450000X0.350000X-0.450000X-0.350000X0*%
%TD*%
%TA.AperFunction,SMDPad,CuDef*%
%ADD23RoundRect,0.150000X-0.150000X0.825000X-0.150000X-0.825000X0.150000X-0.825000X0.150000X0.825000X0*%
%TD*%
%TA.AperFunction,SMDPad,CuDef*%
%ADD24RoundRect,0.250000X-0.337500X-0.475000X0.337500X-0.475000X0.337500X0.475000X-0.337500X0.475000X0*%
%TD*%
%TA.AperFunction,SMDPad,CuDef*%
%ADD25R,1.750000X1.800000*%
%TD*%
%TA.AperFunction,ComponentPad*%
%ADD26R,1.700000X1.700000*%
%TD*%
%TA.AperFunction,ComponentPad*%
%ADD27O,1.700000X1.700000*%
%TD*%
%TA.AperFunction,SMDPad,CuDef*%
%ADD28RoundRect,0.150000X-0.512500X-0.150000X0.512500X-0.150000X0.512500X0.150000X-0.512500X0.150000X0*%
%TD*%
%TA.AperFunction,SMDPad,CuDef*%
%ADD29RoundRect,0.250000X-0.325000X-0.450000X0.325000X-0.450000X0.325000X0.450000X-0.325000X0.450000X0*%
%TD*%
%TA.AperFunction,SMDPad,CuDef*%
%ADD30RoundRect,0.250000X-0.450000X0.325000X-0.450000X-0.325000X0.450000X-0.325000X0.450000X0.325000X0*%
%TD*%
%TA.AperFunction,ComponentPad*%
%ADD31R,1.238000X1.238000*%
%TD*%
%TA.AperFunction,ComponentPad*%
%ADD32C,1.238000*%
%TD*%
%TA.AperFunction,SMDPad,CuDef*%
%ADD33RoundRect,0.250000X0.337500X0.475000X-0.337500X0.475000X-0.337500X-0.475000X0.337500X-0.475000X0*%
%TD*%
%TA.AperFunction,SMDPad,CuDef*%
%ADD34RoundRect,0.250000X0.350000X0.450000X-0.350000X0.450000X-0.350000X-0.450000X0.350000X-0.450000X0*%
%TD*%
%TA.AperFunction,SMDPad,CuDef*%
%ADD35RoundRect,0.250000X1.000000X0.650000X-1.000000X0.650000X-1.000000X-0.650000X1.000000X-0.650000X0*%
%TD*%
%TA.AperFunction,SMDPad,CuDef*%
%ADD36RoundRect,0.250000X-0.650000X1.000000X-0.650000X-1.000000X0.650000X-1.000000X0.650000X1.000000X0*%
%TD*%
%TA.AperFunction,SMDPad,CuDef*%
%ADD37R,1.700000X1.000000*%
%TD*%
%TA.AperFunction,SMDPad,CuDef*%
%ADD38RoundRect,0.200000X-0.200000X0.250000X-0.200000X-0.250000X0.200000X-0.250000X0.200000X0.250000X0*%
%TD*%
%TA.AperFunction,SMDPad,CuDef*%
%ADD39RoundRect,0.250000X-0.350000X-0.450000X0.350000X-0.450000X0.350000X0.450000X-0.350000X0.450000X0*%
%TD*%
%TA.AperFunction,SMDPad,CuDef*%
%ADD40RoundRect,0.127500X0.222500X0.127500X-0.222500X0.127500X-0.222500X-0.127500X0.222500X-0.127500X0*%
%TD*%
%TA.AperFunction,ComponentPad*%
%ADD41RoundRect,0.250000X-0.600000X-0.750000X0.600000X-0.750000X0.600000X0.750000X-0.600000X0.750000X0*%
%TD*%
%TA.AperFunction,ComponentPad*%
%ADD42O,1.700000X2.000000*%
%TD*%
%TA.AperFunction,SMDPad,CuDef*%
%ADD43R,0.740000X2.650000*%
%TD*%
%TA.AperFunction,SMDPad,CuDef*%
%ADD44RoundRect,0.075000X-0.075000X0.662500X-0.075000X-0.662500X0.075000X-0.662500X0.075000X0.662500X0*%
%TD*%
%TA.AperFunction,SMDPad,CuDef*%
%ADD45RoundRect,0.075000X-0.662500X0.075000X-0.662500X-0.075000X0.662500X-0.075000X0.662500X0.075000X0*%
%TD*%
%TA.AperFunction,SMDPad,CuDef*%
%ADD46R,1.000000X1.700000*%
%TD*%
%TA.AperFunction,ViaPad*%
%ADD47C,0.600000*%
%TD*%
%TA.AperFunction,Conductor*%
%ADD48C,0.200000*%
%TD*%
%TA.AperFunction,Conductor*%
%ADD49C,0.400000*%
%TD*%
%TA.AperFunction,Conductor*%
%ADD50C,0.600000*%
%TD*%
%TA.AperFunction,Conductor*%
%ADD51C,1.000000*%
%TD*%
G04 APERTURE END LIST*
D10*
%TO.P,U7,1,GND*%
%TO.N,GND*%
X114050000Y-51750000D03*
%TO.P,U7,2,GND*%
X114050000Y-52600000D03*
%TO.P,U7,3,3V3*%
%TO.N,+3V3*%
X114050000Y-53450000D03*
%TO.P,U7,4,IO0*%
%TO.N,ESP_DOWNLOAD*%
X114050000Y-54300000D03*
%TO.P,U7,5,IO1*%
%TO.N,ESP_FREE1*%
X114050000Y-55150000D03*
%TO.P,U7,6,IO2*%
%TO.N,unconnected-(U7-IO2-Pad6)*%
X114050000Y-56000000D03*
%TO.P,U7,7,IO3*%
%TO.N,ESP_FREE2*%
X114050000Y-56850000D03*
%TO.P,U7,8,IO4*%
%TO.N,ESP_FREE3*%
X114050000Y-57700000D03*
%TO.P,U7,9,IO5*%
%TO.N,ESP_FREE4*%
X114050000Y-58550000D03*
%TO.P,U7,10,IO6*%
%TO.N,ESP_FREE5*%
X114050000Y-59400000D03*
%TO.P,U7,11,IO7*%
%TO.N,ESP_FREE6*%
X114050000Y-60250000D03*
%TO.P,U7,12,IO8*%
%TO.N,unconnected-(U7-IO8-Pad12)*%
X114050000Y-61100000D03*
%TO.P,U7,13,IO9*%
%TO.N,unconnected-(U7-IO9-Pad13)*%
X114050000Y-61950000D03*
%TO.P,U7,14,IO10*%
%TO.N,ESP_SPI_CS*%
X114050000Y-62800000D03*
%TO.P,U7,15,IO11*%
%TO.N,ESP_SPI_MOSI*%
X114050000Y-63650000D03*
D11*
%TO.P,U7,16,IO12*%
%TO.N,ESP_SPI_SCK*%
X115100000Y-64700000D03*
%TO.P,U7,17,IO13*%
%TO.N,ESP_SPI_MISO*%
X115950000Y-64700000D03*
%TO.P,U7,18,IO14*%
%TO.N,unconnected-(U7-IO14-Pad18)*%
X116800000Y-64700000D03*
%TO.P,U7,19,IO15*%
%TO.N,unconnected-(U7-IO15-Pad19)*%
X117650000Y-64700000D03*
%TO.P,U7,20,IO16*%
%TO.N,unconnected-(U7-IO16-Pad20)*%
X118500000Y-64700000D03*
%TO.P,U7,21,IO17*%
%TO.N,unconnected-(U7-IO17-Pad21)*%
X119350000Y-64700000D03*
%TO.P,U7,22,IO18*%
%TO.N,unconnected-(U7-IO18-Pad22)*%
X120200000Y-64700000D03*
%TO.P,U7,23,IO19*%
%TO.N,USB_N*%
X121050000Y-64700000D03*
%TO.P,U7,24,IO20*%
%TO.N,USB_P*%
X121900000Y-64700000D03*
%TO.P,U7,25,IO21*%
%TO.N,unconnected-(U7-IO21-Pad25)*%
X122750000Y-64700000D03*
%TO.P,U7,26,IO26*%
%TO.N,unconnected-(U7-IO26-Pad26)*%
X123600000Y-64700000D03*
%TO.P,U7,27,IO47*%
%TO.N,unconnected-(U7-IO47-Pad27)*%
X124450000Y-64700000D03*
%TO.P,U7,28,IO33*%
%TO.N,unconnected-(U7-IO33-Pad28)*%
X125300000Y-64700000D03*
%TO.P,U7,29,IO34*%
%TO.N,unconnected-(U7-IO34-Pad29)*%
X126150000Y-64700000D03*
%TO.P,U7,30,IO48*%
%TO.N,unconnected-(U7-IO48-Pad30)*%
X127000000Y-64700000D03*
D10*
%TO.P,U7,31,IO35*%
%TO.N,unconnected-(U7-IO35-Pad31)*%
X128050000Y-63650000D03*
%TO.P,U7,32,IO36*%
%TO.N,unconnected-(U7-IO36-Pad32)*%
X128050000Y-62800000D03*
%TO.P,U7,33,IO37*%
%TO.N,unconnected-(U7-IO37-Pad33)*%
X128050000Y-61950000D03*
%TO.P,U7,34,IO38*%
%TO.N,unconnected-(U7-IO38-Pad34)*%
X128050000Y-61100000D03*
%TO.P,U7,35,IO39*%
%TO.N,ESP_TCK*%
X128050000Y-60250000D03*
%TO.P,U7,36,IO40*%
%TO.N,ESP_TDO*%
X128050000Y-59400000D03*
%TO.P,U7,37,IO41*%
%TO.N,ESP_TDI*%
X128050000Y-58550000D03*
%TO.P,U7,38,IO42*%
%TO.N,ESP_TMS*%
X128050000Y-57700000D03*
%TO.P,U7,39,TXD0*%
%TO.N,ESP_TX*%
X128050000Y-56850000D03*
%TO.P,U7,40,RXD0*%
%TO.N,ESP_RX*%
X128050000Y-56000000D03*
%TO.P,U7,41,IO45*%
%TO.N,unconnected-(U7-IO45-Pad41)*%
X128050000Y-55150000D03*
%TO.P,U7,42,GND*%
%TO.N,GND*%
X128050000Y-54300000D03*
%TO.P,U7,43,GND*%
X128050000Y-53450000D03*
%TO.P,U7,44,IO46*%
%TO.N,unconnected-(U7-IO46-Pad44)*%
X128050000Y-52600000D03*
%TO.P,U7,45,EN*%
%TO.N,ESP_EN*%
X128050000Y-51750000D03*
D11*
%TO.P,U7,46,GND*%
%TO.N,GND*%
X127000000Y-50700000D03*
%TO.P,U7,47,GND*%
X126150000Y-50700000D03*
%TO.P,U7,48,GND*%
X125300000Y-50700000D03*
%TO.P,U7,49,GND*%
X124450000Y-50700000D03*
%TO.P,U7,50,GND*%
X123600000Y-50700000D03*
%TO.P,U7,51,GND*%
X122750000Y-50700000D03*
%TO.P,U7,52,GND*%
X121900000Y-50700000D03*
%TO.P,U7,53,GND*%
X121050000Y-50700000D03*
%TO.P,U7,54,GND*%
X120200000Y-50700000D03*
%TO.P,U7,55,GND*%
X119350000Y-50700000D03*
%TO.P,U7,56,GND*%
X118500000Y-50700000D03*
%TO.P,U7,57,GND*%
X117650000Y-50700000D03*
%TO.P,U7,58,GND*%
X116800000Y-50700000D03*
%TO.P,U7,59,GND*%
X115950000Y-50700000D03*
%TO.P,U7,60,GND*%
X115100000Y-50700000D03*
D12*
%TO.P,U7,61,GND*%
X121050000Y-57700000D03*
D13*
%TO.P,U7,61_1,GND*%
X119400000Y-56050000D03*
D12*
%TO.P,U7,61_2,GND*%
X121050000Y-56050000D03*
%TO.P,U7,61_3,GND*%
X122700000Y-56050000D03*
%TO.P,U7,61_4,GND*%
X122700000Y-57700000D03*
%TO.P,U7,61_5,GND*%
X122700000Y-59350000D03*
%TO.P,U7,61_6,GND*%
X121050000Y-59350000D03*
%TO.P,U7,61_7,GND*%
X119400000Y-59350000D03*
%TO.P,U7,61_8,GND*%
X119400000Y-57700000D03*
D14*
%TO.P,U7,62,GND*%
X114050000Y-50700000D03*
%TO.P,U7,63,GND*%
X114050000Y-64700000D03*
%TO.P,U7,64,GND*%
X128050000Y-64700000D03*
%TO.P,U7,65,GND*%
X128050000Y-50700000D03*
%TD*%
D15*
%TO.P,C19,1*%
%TO.N,Net-(U2-PA3)*%
X148500000Y-67750000D03*
%TO.P,C19,2*%
%TO.N,GND*%
X148500000Y-65675000D03*
%TD*%
D16*
%TO.P,J1,A1,GND*%
%TO.N,GND*%
X104610000Y-92515000D03*
%TO.P,J1,A4,VBUS*%
%TO.N,5V_USB*%
X105420000Y-92545000D03*
D17*
%TO.P,J1,A5,CC1*%
%TO.N,Net-(J1-CC1)*%
X106570000Y-92645000D03*
%TO.P,J1,A6,D+*%
%TO.N,USB_P*%
X107570000Y-92645000D03*
%TO.P,J1,A7,D-*%
%TO.N,USB_N*%
X108070000Y-92645000D03*
%TO.P,J1,A8,SBU1*%
%TO.N,unconnected-(J1-SBU1-PadA8)*%
X109070000Y-92645000D03*
D16*
%TO.P,J1,A9,VBUS*%
%TO.N,5V_USB*%
X110220000Y-92565000D03*
%TO.P,J1,A12,GND*%
%TO.N,GND*%
X111020000Y-92545000D03*
%TO.P,J1,B1,GND*%
X111020000Y-92545000D03*
%TO.P,J1,B4,VBUS*%
%TO.N,5V_USB*%
X110220000Y-92565000D03*
D17*
%TO.P,J1,B5,CC2*%
%TO.N,Net-(J1-CC2)*%
X109570000Y-92645000D03*
%TO.P,J1,B6,D+*%
%TO.N,USB_P*%
X108570000Y-92645000D03*
%TO.P,J1,B7,D-*%
%TO.N,USB_N*%
X107070000Y-92645000D03*
%TO.P,J1,B8,SBU2*%
%TO.N,unconnected-(J1-SBU2-PadB8)*%
X106070000Y-92645000D03*
D16*
%TO.P,J1,B9,VBUS*%
%TO.N,5V_USB*%
X105420000Y-92545000D03*
%TO.P,J1,B12,GND*%
%TO.N,GND*%
X104610000Y-92515000D03*
D18*
%TO.P,J1,S1,SHIELD*%
X103500000Y-93220000D03*
D19*
X103500000Y-97400000D03*
D18*
X112140000Y-93220000D03*
D19*
X112140000Y-97400000D03*
%TD*%
D20*
%TO.P,C10,1*%
%TO.N,+3V3*%
X161412500Y-79800000D03*
%TO.P,C10,2*%
%TO.N,GND*%
X161412500Y-81875000D03*
%TD*%
%TO.P,C16,1*%
%TO.N,3V3_OUT*%
X135050000Y-90400000D03*
%TO.P,C16,2*%
%TO.N,GND*%
X135050000Y-92475000D03*
%TD*%
D21*
%TO.P,R13,1*%
%TO.N,+3V3*%
X118200000Y-76300000D03*
%TO.P,R13,2*%
%TO.N,ESP_DOWNLOAD*%
X118200000Y-78300000D03*
%TD*%
D22*
%TO.P,R10,1*%
%TO.N,3V3_OUT*%
X137875000Y-90112500D03*
%TO.P,R10,2*%
%TO.N,+3V3*%
X137875000Y-88112500D03*
%TD*%
D23*
%TO.P,U4,1,A0*%
%TO.N,GND*%
X171060000Y-65800000D03*
%TO.P,U4,2,A1*%
X169790000Y-65800000D03*
%TO.P,U4,3,A2*%
X168520000Y-65800000D03*
%TO.P,U4,4,GND*%
X167250000Y-65800000D03*
%TO.P,U4,5,SDA*%
%TO.N,I2C_DATA*%
X167250000Y-70750000D03*
%TO.P,U4,6,SCL*%
%TO.N,I2C_CLK*%
X168520000Y-70750000D03*
%TO.P,U4,7,WP*%
%TO.N,GND*%
X169790000Y-70750000D03*
%TO.P,U4,8,VCC*%
%TO.N,+3V3*%
X171060000Y-70750000D03*
%TD*%
D24*
%TO.P,C8,1*%
%TO.N,+3V3*%
X159850000Y-70650000D03*
%TO.P,C8,2*%
%TO.N,GND*%
X161925000Y-70650000D03*
%TD*%
D25*
%TO.P,Y1,1,1*%
%TO.N,Net-(U2-PC14)*%
X161925000Y-67200000D03*
%TO.P,Y1,2,2*%
%TO.N,Net-(U2-PC15)*%
X158675000Y-67200000D03*
%TD*%
D26*
%TO.P,J12,1,Pin_1*%
%TO.N,GND*%
X175210000Y-61460000D03*
D27*
%TO.P,J12,2,Pin_2*%
%TO.N,I2C_CLK*%
X177750000Y-61460000D03*
%TO.P,J12,3,Pin_3*%
%TO.N,I2C_DATA*%
X175210000Y-64000000D03*
%TO.P,J12,4,Pin_4*%
%TO.N,+3V3*%
X177750000Y-64000000D03*
%TD*%
D28*
%TO.P,U1,1,VIN*%
%TO.N,5V_IN*%
X130775000Y-90712500D03*
%TO.P,U1,2,GND*%
%TO.N,GND*%
X130775000Y-91662500D03*
%TO.P,U1,3,EN*%
%TO.N,3V3_OUT_EN*%
X130775000Y-92612500D03*
%TO.P,U1,4,NC*%
%TO.N,unconnected-(U1-NC-Pad4)*%
X133050000Y-92612500D03*
%TO.P,U1,5,VOUT*%
%TO.N,3V3_OUT*%
X133050000Y-90712500D03*
%TD*%
D21*
%TO.P,R18,1*%
%TO.N,SIG3*%
X150500000Y-65712500D03*
%TO.P,R18,2*%
%TO.N,Net-(U2-PA3)*%
X150500000Y-67712500D03*
%TD*%
D24*
%TO.P,C2,1*%
%TO.N,Net-(U2-PC15)*%
X158637500Y-64700000D03*
%TO.P,C2,2*%
%TO.N,GND*%
X160712500Y-64700000D03*
%TD*%
D21*
%TO.P,R16,1*%
%TO.N,SIG1*%
X156250000Y-60250000D03*
%TO.P,R16,2*%
%TO.N,Net-(U2-PA1)*%
X156250000Y-62250000D03*
%TD*%
D26*
%TO.P,J16,1,Pin_1*%
%TO.N,GND*%
X102110000Y-60630000D03*
D27*
%TO.P,J16,2,Pin_2*%
%TO.N,ESP_FREE1*%
X104650000Y-60630000D03*
%TO.P,J16,3,Pin_3*%
%TO.N,ESP_FREE2*%
X102110000Y-63170000D03*
%TO.P,J16,4,Pin_4*%
%TO.N,ESP_FREE3*%
X104650000Y-63170000D03*
%TO.P,J16,5,Pin_5*%
%TO.N,ESP_FREE4*%
X102110000Y-65710000D03*
%TO.P,J16,6,Pin_6*%
%TO.N,ESP_FREE5*%
X104650000Y-65710000D03*
%TO.P,J16,7,Pin_7*%
%TO.N,ESP_FREE6*%
X102110000Y-68250000D03*
%TO.P,J16,8,Pin_8*%
%TO.N,+3V3*%
X104650000Y-68250000D03*
%TD*%
D29*
%TO.P,D2,1,K*%
%TO.N,GND*%
X142825000Y-90400000D03*
%TO.P,D2,2,A*%
%TO.N,Net-(D2-A)*%
X144875000Y-90400000D03*
%TD*%
D30*
%TO.P,D4,1,K*%
%TO.N,Net-(D4-K)*%
X142000000Y-55975000D03*
%TO.P,D4,2,A*%
%TO.N,LED_ALIVE*%
X142000000Y-58025000D03*
%TD*%
D20*
%TO.P,C9,1*%
%TO.N,+3V3*%
X159200000Y-79800000D03*
%TO.P,C9,2*%
%TO.N,GND*%
X159200000Y-81875000D03*
%TD*%
D31*
%TO.P,J5,1,Pin_1*%
%TO.N,GND*%
X154250000Y-56250000D03*
D32*
%TO.P,J5,2,Pin_2*%
%TO.N,MUX4*%
X155750000Y-56250000D03*
%TO.P,J5,3,Pin_3*%
%TO.N,MUX3*%
X157250000Y-56250000D03*
%TO.P,J5,4,Pin_4*%
%TO.N,MUX2*%
X158750000Y-56250000D03*
%TO.P,J5,5,Pin_5*%
%TO.N,MUX1*%
X160250000Y-56250000D03*
%TO.P,J5,6,Pin_6*%
%TO.N,SIG4*%
X161750000Y-56250000D03*
%TO.P,J5,7,Pin_7*%
%TO.N,3V3_OUT*%
X163250000Y-56250000D03*
%TD*%
D33*
%TO.P,C1,1*%
%TO.N,GND*%
X172287500Y-74750000D03*
%TO.P,C1,2*%
%TO.N,NRST*%
X170212500Y-74750000D03*
%TD*%
D26*
%TO.P,J13,1,Pin_1*%
%TO.N,ESP_TX*%
X133250000Y-62050000D03*
D27*
%TO.P,J13,2,Pin_2*%
%TO.N,ESP_RX*%
X133250000Y-59510000D03*
%TD*%
D34*
%TO.P,R11,1*%
%TO.N,Net-(U2-PB1)*%
X131950000Y-78250000D03*
%TO.P,R11,2*%
%TO.N,ESP_DOWNLOAD*%
X129950000Y-78250000D03*
%TD*%
%TO.P,R14,1*%
%TO.N,+3V3*%
X170650000Y-85750000D03*
%TO.P,R14,2*%
%TO.N,NRST*%
X168650000Y-85750000D03*
%TD*%
D15*
%TO.P,C4,1*%
%TO.N,+3V3*%
X109012500Y-54450000D03*
%TO.P,C4,2*%
%TO.N,GND*%
X109012500Y-52375000D03*
%TD*%
%TO.P,C17,1*%
%TO.N,Net-(U2-PA1)*%
X154250000Y-62287500D03*
%TO.P,C17,2*%
%TO.N,GND*%
X154250000Y-60212500D03*
%TD*%
D22*
%TO.P,R4,1*%
%TO.N,Net-(D5-K)*%
X144500000Y-53975000D03*
%TO.P,R4,2*%
%TO.N,GND*%
X144500000Y-51975000D03*
%TD*%
D30*
%TO.P,D6,1,K*%
%TO.N,Net-(D6-K)*%
X147000000Y-55975000D03*
%TO.P,D6,2,A*%
%TO.N,LED_USER2*%
X147000000Y-58025000D03*
%TD*%
D35*
%TO.P,D8,1,K*%
%TO.N,5V_IN*%
X121000000Y-88850000D03*
%TO.P,D8,2,A*%
%TO.N,5V_USB*%
X117000000Y-88850000D03*
%TD*%
D36*
%TO.P,D9,1,K*%
%TO.N,5V_IN*%
X124950000Y-88750000D03*
%TO.P,D9,2,A*%
%TO.N,Net-(D7-A1)*%
X124950000Y-92750000D03*
%TD*%
D37*
%TO.P,SW2,1,1*%
%TO.N,GND*%
X139400000Y-55800000D03*
X133100000Y-55800000D03*
%TO.P,SW2,2,2*%
%TO.N,ESP_EN*%
X139400000Y-52000000D03*
X133100000Y-52000000D03*
%TD*%
D38*
%TO.P,D7,1,A1*%
%TO.N,Net-(D7-A1)*%
X118950000Y-91750000D03*
%TO.P,D7,2,A2*%
%TO.N,5V_USB*%
X117050000Y-91750000D03*
%TO.P,D7,3,Com*%
%TO.N,GND*%
X118000000Y-93750000D03*
%TD*%
D39*
%TO.P,R6,1*%
%TO.N,+3V3*%
X142750000Y-86000000D03*
%TO.P,R6,2*%
%TO.N,Net-(D1-A)*%
X144750000Y-86000000D03*
%TD*%
%TO.P,R2,1*%
%TO.N,3V3_OUT*%
X142850000Y-92550000D03*
%TO.P,R2,2*%
%TO.N,Net-(D2-A)*%
X144850000Y-92550000D03*
%TD*%
D20*
%TO.P,C14,1*%
%TO.N,ESP_EN*%
X130650000Y-51912500D03*
%TO.P,C14,2*%
%TO.N,GND*%
X130650000Y-53987500D03*
%TD*%
D31*
%TO.P,J7,1,Pin_1*%
%TO.N,GND*%
X176000000Y-57000000D03*
D32*
%TO.P,J7,2,Pin_2*%
%TO.N,MUX4*%
X174500000Y-57000000D03*
%TO.P,J7,3,Pin_3*%
%TO.N,MUX3*%
X173000000Y-57000000D03*
%TO.P,J7,4,Pin_4*%
%TO.N,MUX2*%
X171500000Y-57000000D03*
%TO.P,J7,5,Pin_5*%
%TO.N,MUX1*%
X170000000Y-57000000D03*
%TO.P,J7,6,Pin_6*%
%TO.N,SIG1*%
X168500000Y-57000000D03*
%TO.P,J7,7,Pin_7*%
%TO.N,3V3_OUT*%
X167000000Y-57000000D03*
%TD*%
D22*
%TO.P,R12,1*%
%TO.N,Net-(D6-K)*%
X147000000Y-53975000D03*
%TO.P,R12,2*%
%TO.N,GND*%
X147000000Y-51975000D03*
%TD*%
D15*
%TO.P,C5,1*%
%TO.N,+3V3*%
X111262500Y-54437500D03*
%TO.P,C5,2*%
%TO.N,GND*%
X111262500Y-52362500D03*
%TD*%
D26*
%TO.P,J15,1,Pin_1*%
%TO.N,GND*%
X107240000Y-72100000D03*
D27*
%TO.P,J15,2,Pin_2*%
%TO.N,ESP_SPI_SCK*%
X107240000Y-74640000D03*
%TO.P,J15,3,Pin_3*%
%TO.N,ESP_SPI_MOSI*%
X104700000Y-72100000D03*
%TO.P,J15,4,Pin_4*%
%TO.N,ESP_SPI_MISO*%
X104700000Y-74640000D03*
%TO.P,J15,5,Pin_5*%
%TO.N,ESP_SPI_CS*%
X102160000Y-72100000D03*
%TO.P,J15,6,Pin_6*%
%TO.N,+3V3*%
X102160000Y-74640000D03*
%TD*%
D29*
%TO.P,D1,1,K*%
%TO.N,GND*%
X142800000Y-88150000D03*
%TO.P,D1,2,A*%
%TO.N,Net-(D1-A)*%
X144850000Y-88150000D03*
%TD*%
D40*
%TO.P,D3,1,L1*%
%TO.N,USB_N*%
X112800000Y-84050000D03*
%TO.P,D3,2,VN*%
%TO.N,unconnected-(D3-VN-Pad2)*%
X112800000Y-83100000D03*
%TO.P,D3,3,L2*%
%TO.N,USB_P*%
X112800000Y-82150000D03*
%TO.P,D3,4,L3*%
%TO.N,USB_N*%
X110480000Y-82150000D03*
%TO.P,D3,5,NC*%
%TO.N,unconnected-(D3-NC-Pad5)*%
X110480000Y-83100000D03*
%TO.P,D3,6,L4*%
%TO.N,USB_P*%
X110480000Y-84050000D03*
%TD*%
D22*
%TO.P,R3,1*%
%TO.N,Net-(D4-K)*%
X142000000Y-53975000D03*
%TO.P,R3,2*%
%TO.N,GND*%
X142000000Y-51975000D03*
%TD*%
D20*
%TO.P,C15,1*%
%TO.N,5V_IN*%
X128550000Y-90400000D03*
%TO.P,C15,2*%
%TO.N,GND*%
X128550000Y-92475000D03*
%TD*%
D30*
%TO.P,D5,1,K*%
%TO.N,Net-(D5-K)*%
X144500000Y-55975000D03*
%TO.P,D5,2,A*%
%TO.N,LED_USER1*%
X144500000Y-58025000D03*
%TD*%
D33*
%TO.P,C13,1*%
%TO.N,ESP_DOWNLOAD*%
X111450000Y-56750000D03*
%TO.P,C13,2*%
%TO.N,GND*%
X109375000Y-56750000D03*
%TD*%
D15*
%TO.P,C20,1*%
%TO.N,Net-(U2-PA4)*%
X144250000Y-67750000D03*
%TO.P,C20,2*%
%TO.N,GND*%
X144250000Y-65675000D03*
%TD*%
D21*
%TO.P,R17,1*%
%TO.N,SIG2*%
X152175000Y-60175000D03*
%TO.P,R17,2*%
%TO.N,Net-(U2-PA2)*%
X152175000Y-62175000D03*
%TD*%
D37*
%TO.P,SW1,1,1*%
%TO.N,GND*%
X121100000Y-74350000D03*
X127400000Y-74350000D03*
%TO.P,SW1,2,2*%
%TO.N,ESP_DOWNLOAD*%
X121100000Y-78150000D03*
X127400000Y-78150000D03*
%TD*%
D22*
%TO.P,R5,1*%
%TO.N,Net-(U2-PA5)*%
X139750000Y-60950000D03*
%TO.P,R5,2*%
%TO.N,ESP_EN*%
X139750000Y-58950000D03*
%TD*%
D41*
%TO.P,J10,1,Pin_1*%
%TO.N,GND*%
X121150000Y-97150000D03*
D42*
%TO.P,J10,2,Pin_2*%
%TO.N,Net-(D7-A1)*%
X123650000Y-97150000D03*
%TD*%
D31*
%TO.P,J6,1,Pin_1*%
%TO.N,GND*%
X176000000Y-52250000D03*
D32*
%TO.P,J6,2,Pin_2*%
%TO.N,MUX4*%
X174500000Y-52250000D03*
%TO.P,J6,3,Pin_3*%
%TO.N,MUX3*%
X173000000Y-52250000D03*
%TO.P,J6,4,Pin_4*%
%TO.N,MUX2*%
X171500000Y-52250000D03*
%TO.P,J6,5,Pin_5*%
%TO.N,MUX1*%
X170000000Y-52250000D03*
%TO.P,J6,6,Pin_6*%
%TO.N,SIG2*%
X168500000Y-52250000D03*
%TO.P,J6,7,Pin_7*%
%TO.N,3V3_OUT*%
X167000000Y-52250000D03*
%TD*%
D26*
%TO.P,J8,1,Pin_1*%
%TO.N,MUX4*%
X152050000Y-45080000D03*
D27*
%TO.P,J8,2,Pin_2*%
X152050000Y-47620000D03*
%TO.P,J8,3,Pin_3*%
%TO.N,MUX3*%
X154590000Y-45080000D03*
%TO.P,J8,4,Pin_4*%
X154590000Y-47620000D03*
%TO.P,J8,5,Pin_5*%
%TO.N,MUX2*%
X157130000Y-45080000D03*
%TO.P,J8,6,Pin_6*%
X157130000Y-47620000D03*
%TO.P,J8,7,Pin_7*%
%TO.N,MUX1*%
X159670000Y-45080000D03*
%TO.P,J8,8,Pin_8*%
X159670000Y-47620000D03*
%TO.P,J8,9,Pin_9*%
%TO.N,SIG3*%
X162210000Y-45080000D03*
%TO.P,J8,10,Pin_10*%
%TO.N,SIG4*%
X162210000Y-47620000D03*
%TO.P,J8,11,Pin_11*%
%TO.N,GND*%
X164750000Y-45080000D03*
%TO.P,J8,12,Pin_12*%
%TO.N,3V3_OUT*%
X164750000Y-47620000D03*
%TO.P,J8,13,Pin_13*%
%TO.N,SIG2*%
X167290000Y-45080000D03*
%TO.P,J8,14,Pin_14*%
%TO.N,SIG1*%
X167290000Y-47620000D03*
%TO.P,J8,15,Pin_15*%
%TO.N,MUX1*%
X169830000Y-45080000D03*
%TO.P,J8,16,Pin_16*%
X169830000Y-47620000D03*
%TO.P,J8,17,Pin_17*%
%TO.N,MUX2*%
X172370000Y-45080000D03*
%TO.P,J8,18,Pin_18*%
X172370000Y-47620000D03*
%TO.P,J8,19,Pin_19*%
%TO.N,MUX3*%
X174910000Y-45080000D03*
%TO.P,J8,20,Pin_20*%
X174910000Y-47620000D03*
%TO.P,J8,21,Pin_21*%
%TO.N,MUX4*%
X177450000Y-45080000D03*
%TO.P,J8,22,Pin_22*%
X177450000Y-47620000D03*
%TD*%
D39*
%TO.P,R9,1*%
%TO.N,Net-(J1-CC2)*%
X111400000Y-90350000D03*
%TO.P,R9,2*%
%TO.N,GND*%
X113400000Y-90350000D03*
%TD*%
D31*
%TO.P,J3,1,Pin_1*%
%TO.N,GND*%
X154250000Y-51500000D03*
D32*
%TO.P,J3,2,Pin_2*%
%TO.N,MUX4*%
X155750000Y-51500000D03*
%TO.P,J3,3,Pin_3*%
%TO.N,MUX3*%
X157250000Y-51500000D03*
%TO.P,J3,4,Pin_4*%
%TO.N,MUX2*%
X158750000Y-51500000D03*
%TO.P,J3,5,Pin_5*%
%TO.N,MUX1*%
X160250000Y-51500000D03*
%TO.P,J3,6,Pin_6*%
%TO.N,SIG3*%
X161750000Y-51500000D03*
%TO.P,J3,7,Pin_7*%
%TO.N,3V3_OUT*%
X163250000Y-51500000D03*
%TD*%
D26*
%TO.P,J9,1,Pin_1*%
%TO.N,GND*%
X131360000Y-98000000D03*
D27*
%TO.P,J9,2,Pin_2*%
%TO.N,3V3_OUT*%
X133900000Y-98000000D03*
%TD*%
D15*
%TO.P,C3,1*%
%TO.N,Net-(U2-PC14)*%
X164300000Y-67737500D03*
%TO.P,C3,2*%
%TO.N,GND*%
X164300000Y-65662500D03*
%TD*%
D33*
%TO.P,C6,1*%
%TO.N,+3V3*%
X149650000Y-81262500D03*
%TO.P,C6,2*%
%TO.N,GND*%
X147575000Y-81262500D03*
%TD*%
%TO.P,C7,1*%
%TO.N,+3V3*%
X149650000Y-79250000D03*
%TO.P,C7,2*%
%TO.N,GND*%
X147575000Y-79250000D03*
%TD*%
D43*
%TO.P,J4,1,VTref*%
%TO.N,+3V3*%
X178760000Y-80400000D03*
%TO.P,J4,2,SWDIO/TMS*%
%TO.N,SWDIO*%
X178760000Y-84550000D03*
%TO.P,J4,3,GND*%
%TO.N,GND*%
X177490000Y-80400000D03*
%TO.P,J4,4,SWCLK/TCK*%
%TO.N,SWCLK*%
X177490000Y-84550000D03*
%TO.P,J4,5,GND*%
%TO.N,GND*%
X176220000Y-80400000D03*
%TO.P,J4,6,SWO/TDO*%
%TO.N,unconnected-(J4-SWO{slash}TDO-Pad6)*%
X176220000Y-84550000D03*
%TO.P,J4,7,KEY*%
%TO.N,unconnected-(J4-KEY-Pad7)*%
X174950000Y-80400000D03*
%TO.P,J4,8,NC/TDI*%
%TO.N,unconnected-(J4-NC{slash}TDI-Pad8)*%
X174950000Y-84550000D03*
%TO.P,J4,9,GNDDetect*%
%TO.N,GND*%
X173680000Y-80400000D03*
%TO.P,J4,10,~{RESET}*%
%TO.N,NRST*%
X173680000Y-84550000D03*
%TD*%
D15*
%TO.P,C18,1*%
%TO.N,Net-(U2-PA2)*%
X150175000Y-62212500D03*
%TO.P,C18,2*%
%TO.N,GND*%
X150175000Y-60137500D03*
%TD*%
D26*
%TO.P,J18,1,Pin_1*%
%TO.N,GND*%
X176700000Y-92100000D03*
D27*
%TO.P,J18,2,Pin_2*%
%TO.N,BUZZER_PWM*%
X174160000Y-92100000D03*
%TO.P,J18,3,Pin_3*%
%TO.N,CONN_FREE1*%
X171620000Y-92100000D03*
%TO.P,J18,4,Pin_4*%
%TO.N,CONN_FREE2*%
X169080000Y-92100000D03*
%TD*%
D43*
%TO.P,J2,1,VTref*%
%TO.N,+3V3*%
X136865000Y-67215000D03*
%TO.P,J2,2,SWDIO/TMS*%
%TO.N,ESP_TMS*%
X136865000Y-71365000D03*
%TO.P,J2,3,GND*%
%TO.N,GND*%
X135595000Y-67215000D03*
%TO.P,J2,4,SWCLK/TCK*%
%TO.N,ESP_TCK*%
X135595000Y-71365000D03*
%TO.P,J2,5,GND*%
%TO.N,GND*%
X134325000Y-67215000D03*
%TO.P,J2,6,SWO/TDO*%
%TO.N,ESP_TDO*%
X134325000Y-71365000D03*
%TO.P,J2,7,KEY*%
%TO.N,unconnected-(J2-KEY-Pad7)*%
X133055000Y-67215000D03*
%TO.P,J2,8,NC/TDI*%
%TO.N,ESP_TDI*%
X133055000Y-71365000D03*
%TO.P,J2,9,GNDDetect*%
%TO.N,GND*%
X131785000Y-67215000D03*
%TO.P,J2,10,~{RESET}*%
%TO.N,ESP_EN*%
X131785000Y-71365000D03*
%TD*%
D22*
%TO.P,R8,1*%
%TO.N,Net-(J1-CC1)*%
X105500000Y-89800000D03*
%TO.P,R8,2*%
%TO.N,GND*%
X105500000Y-87800000D03*
%TD*%
D44*
%TO.P,U2,1,VBAT*%
%TO.N,+3V3*%
X157650000Y-70787500D03*
%TO.P,U2,2,PC13*%
%TO.N,MUX4*%
X157150000Y-70787500D03*
%TO.P,U2,3,PC14*%
%TO.N,Net-(U2-PC14)*%
X156650000Y-70787500D03*
%TO.P,U2,4,PC15*%
%TO.N,Net-(U2-PC15)*%
X156150000Y-70787500D03*
%TO.P,U2,5,PH0*%
%TO.N,MUX3*%
X155650000Y-70787500D03*
%TO.P,U2,6,PH1*%
%TO.N,MUX2*%
X155150000Y-70787500D03*
%TO.P,U2,7,NRST*%
%TO.N,NRST*%
X154650000Y-70787500D03*
%TO.P,U2,8,VSSA*%
%TO.N,GND*%
X154150000Y-70787500D03*
%TO.P,U2,9,VDDA*%
%TO.N,+3V3*%
X153650000Y-70787500D03*
%TO.P,U2,10,PA0*%
%TO.N,MUX1*%
X153150000Y-70787500D03*
%TO.P,U2,11,PA1*%
%TO.N,Net-(U2-PA1)*%
X152650000Y-70787500D03*
%TO.P,U2,12,PA2*%
%TO.N,Net-(U2-PA2)*%
X152150000Y-70787500D03*
D45*
%TO.P,U2,13,PA3*%
%TO.N,Net-(U2-PA3)*%
X150737500Y-72200000D03*
%TO.P,U2,14,PA4*%
%TO.N,Net-(U2-PA4)*%
X150737500Y-72700000D03*
%TO.P,U2,15,PA5*%
%TO.N,Net-(U2-PA5)*%
X150737500Y-73200000D03*
%TO.P,U2,16,PA6*%
%TO.N,LED_USER2*%
X150737500Y-73700000D03*
%TO.P,U2,17,PA7*%
%TO.N,LED_USER1*%
X150737500Y-74200000D03*
%TO.P,U2,18,PB0*%
%TO.N,LED_ALIVE*%
X150737500Y-74700000D03*
%TO.P,U2,19,PB1*%
%TO.N,Net-(U2-PB1)*%
X150737500Y-75200000D03*
%TO.P,U2,20,PB2*%
%TO.N,3V3_OUT_EN*%
X150737500Y-75700000D03*
%TO.P,U2,21,PB10*%
%TO.N,ESP_RX*%
X150737500Y-76200000D03*
%TO.P,U2,22,PB11*%
%TO.N,ESP_TX*%
X150737500Y-76700000D03*
%TO.P,U2,23,VSS*%
%TO.N,GND*%
X150737500Y-77200000D03*
%TO.P,U2,24,VDD*%
%TO.N,+3V3*%
X150737500Y-77700000D03*
D44*
%TO.P,U2,25,PB12*%
%TO.N,TOUCH_IRQ*%
X152150000Y-79112500D03*
%TO.P,U2,26,PB13*%
%TO.N,TOUCH_CLK*%
X152650000Y-79112500D03*
%TO.P,U2,27,PB14*%
%TO.N,TOUCH_DO_MISO*%
X153150000Y-79112500D03*
%TO.P,U2,28,PB15*%
%TO.N,TOUCH_DIN_MOSI*%
X153650000Y-79112500D03*
%TO.P,U2,29,PA8*%
%TO.N,TOUCH_CS*%
X154150000Y-79112500D03*
%TO.P,U2,30,PA9*%
%TO.N,TFT_DC*%
X154650000Y-79112500D03*
%TO.P,U2,31,PA10*%
%TO.N,TFT_RESET*%
X155150000Y-79112500D03*
%TO.P,U2,32,PA11*%
%TO.N,TFT_SPI_MISO*%
X155650000Y-79112500D03*
%TO.P,U2,33,PA12*%
%TO.N,TFT_SPI_MOSI*%
X156150000Y-79112500D03*
%TO.P,U2,34,PA13*%
%TO.N,SWDIO*%
X156650000Y-79112500D03*
%TO.P,U2,35,VSS*%
%TO.N,GND*%
X157150000Y-79112500D03*
%TO.P,U2,36,VDDUSB*%
%TO.N,+3V3*%
X157650000Y-79112500D03*
D45*
%TO.P,U2,37,PA14*%
%TO.N,SWCLK*%
X159062500Y-77700000D03*
%TO.P,U2,38,PA15*%
%TO.N,TFT_SPI_CS*%
X159062500Y-77200000D03*
%TO.P,U2,39,PB3*%
%TO.N,TFT_SPI_SCK*%
X159062500Y-76700000D03*
%TO.P,U2,40,PB4*%
%TO.N,CONN_FREE1*%
X159062500Y-76200000D03*
%TO.P,U2,41,PB5*%
%TO.N,BUZZER_PWM*%
X159062500Y-75700000D03*
%TO.P,U2,42,PB6*%
%TO.N,UART_OUT_TX*%
X159062500Y-75200000D03*
%TO.P,U2,43,PB7*%
%TO.N,UART_OUT_RX*%
X159062500Y-74700000D03*
%TO.P,U2,44,PH3*%
%TO.N,CONN_FREE2*%
X159062500Y-74200000D03*
%TO.P,U2,45,PB8*%
%TO.N,I2C_CLK*%
X159062500Y-73700000D03*
%TO.P,U2,46,PB9*%
%TO.N,I2C_DATA*%
X159062500Y-73200000D03*
%TO.P,U2,47,VSS*%
%TO.N,GND*%
X159062500Y-72700000D03*
%TO.P,U2,48,VDD*%
%TO.N,+3V3*%
X159062500Y-72200000D03*
%TD*%
D28*
%TO.P,U3,1,VIN*%
%TO.N,5V_IN*%
X130850000Y-85950000D03*
%TO.P,U3,2,GND*%
%TO.N,GND*%
X130850000Y-86900000D03*
%TO.P,U3,3,EN*%
%TO.N,5V_IN*%
X130850000Y-87850000D03*
%TO.P,U3,4,NC*%
%TO.N,unconnected-(U3-NC-Pad4)*%
X133125000Y-87850000D03*
%TO.P,U3,5,VOUT*%
%TO.N,+3V3*%
X133125000Y-85950000D03*
%TD*%
D22*
%TO.P,R1,1*%
%TO.N,+3V3*%
X137500000Y-61000000D03*
%TO.P,R1,2*%
%TO.N,ESP_EN*%
X137500000Y-59000000D03*
%TD*%
D26*
%TO.P,J14,1,Pin_1*%
%TO.N,GND*%
X178000000Y-68130000D03*
D27*
%TO.P,J14,2,Pin_2*%
%TO.N,UART_OUT_RX*%
X178000000Y-70670000D03*
%TO.P,J14,3,Pin_3*%
%TO.N,UART_OUT_TX*%
X178000000Y-73210000D03*
%TO.P,J14,4,Pin_4*%
%TO.N,+3V3*%
X178000000Y-75750000D03*
%TD*%
D15*
%TO.P,C12,1*%
%TO.N,5V_IN*%
X128575000Y-87987500D03*
%TO.P,C12,2*%
%TO.N,GND*%
X128575000Y-85912500D03*
%TD*%
%TO.P,C11,1*%
%TO.N,+3V3*%
X135075000Y-87987500D03*
%TO.P,C11,2*%
%TO.N,GND*%
X135075000Y-85912500D03*
%TD*%
D21*
%TO.P,R19,1*%
%TO.N,SIG4*%
X146250000Y-65712500D03*
%TO.P,R19,2*%
%TO.N,Net-(U2-PA4)*%
X146250000Y-67712500D03*
%TD*%
D46*
%TO.P,SW3,1,1*%
%TO.N,GND*%
X166200000Y-83250000D03*
X166200000Y-76950000D03*
%TO.P,SW3,2,2*%
%TO.N,NRST*%
X170000000Y-83250000D03*
X170000000Y-76950000D03*
%TD*%
D26*
%TO.P,J11,1,Pin_1*%
%TO.N,TOUCH_IRQ*%
X143020000Y-97900000D03*
D27*
%TO.P,J11,2,Pin_2*%
%TO.N,TOUCH_DO_MISO*%
X145560000Y-97900000D03*
%TO.P,J11,3,Pin_3*%
%TO.N,TOUCH_DIN_MOSI*%
X148100000Y-97900000D03*
%TO.P,J11,4,Pin_4*%
%TO.N,TOUCH_CS*%
X150640000Y-97900000D03*
%TO.P,J11,5,Pin_5*%
%TO.N,TOUCH_CLK*%
X153180000Y-97900000D03*
%TO.P,J11,6,Pin_6*%
%TO.N,TFT_SPI_MISO*%
X155720000Y-97900000D03*
%TO.P,J11,7,Pin_7*%
%TO.N,+3V3*%
X158260000Y-97900000D03*
%TO.P,J11,8,Pin_8*%
%TO.N,TFT_SPI_SCK*%
X160800000Y-97900000D03*
%TO.P,J11,9,Pin_9*%
%TO.N,TFT_SPI_MOSI*%
X163340000Y-97900000D03*
%TO.P,J11,10,Pin_10*%
%TO.N,TFT_DC*%
X165880000Y-97900000D03*
%TO.P,J11,11,Pin_11*%
%TO.N,TFT_RESET*%
X168420000Y-97900000D03*
%TO.P,J11,12,Pin_12*%
%TO.N,TFT_SPI_CS*%
X170960000Y-97900000D03*
%TO.P,J11,13,Pin_13*%
%TO.N,GND*%
X173500000Y-97900000D03*
%TO.P,J11,14,Pin_14*%
%TO.N,+3V3*%
X176040000Y-97900000D03*
%TD*%
D47*
%TO.N,GND*%
X139000000Y-57000000D03*
X128850000Y-73850000D03*
X150500000Y-58720000D03*
X152530000Y-54150000D03*
X108500000Y-66480000D03*
X165125000Y-82725000D03*
X133500000Y-57000000D03*
X113275000Y-98050000D03*
X119125000Y-54750000D03*
X118500000Y-51700000D03*
X103875000Y-91525000D03*
X128900000Y-93700000D03*
X121925000Y-60750000D03*
X140000000Y-57000000D03*
X119600000Y-74600000D03*
X118100000Y-58475000D03*
X173750000Y-96250000D03*
X121000000Y-54725000D03*
X121125000Y-51675000D03*
X147400000Y-82650000D03*
X137900000Y-80100000D03*
X107940000Y-61350000D03*
X102000000Y-78000000D03*
X120225000Y-60725000D03*
X140000000Y-71000000D03*
X122000000Y-94000000D03*
X178750000Y-96750000D03*
X123975000Y-56825000D03*
X178600000Y-43890000D03*
X154150000Y-72250000D03*
X102300000Y-96475000D03*
X124000000Y-67000000D03*
X123575000Y-51675000D03*
X107500000Y-52500000D03*
X101000000Y-95000000D03*
X101750000Y-59000000D03*
X102350000Y-93850000D03*
X129150000Y-53475000D03*
X123950000Y-57650000D03*
X118330000Y-82640000D03*
X102750000Y-59000000D03*
X121925000Y-51700000D03*
X132500000Y-57000000D03*
X129250000Y-54250000D03*
X125300000Y-51650000D03*
X149250000Y-77375000D03*
X136250000Y-51000000D03*
X154900000Y-74950000D03*
X112975000Y-51275000D03*
X173000000Y-96250000D03*
X176250000Y-90500000D03*
X128050000Y-65700000D03*
X162000000Y-64750000D03*
X164250000Y-64250000D03*
X124600000Y-79850000D03*
X132175000Y-86875000D03*
X114025000Y-65750000D03*
X112750000Y-52500000D03*
X118150000Y-55925000D03*
X149000000Y-87000000D03*
X118250000Y-55150000D03*
X165025000Y-77300000D03*
X111760000Y-66940000D03*
X115100000Y-51725000D03*
X119600000Y-73850000D03*
X118200000Y-60550000D03*
X175740000Y-68380000D03*
X176225000Y-78300000D03*
X158000000Y-91000000D03*
X161450000Y-83100000D03*
X175740000Y-67630000D03*
X103000000Y-51000000D03*
X154750000Y-96000000D03*
X128850000Y-74600000D03*
X105425000Y-86300000D03*
X118000000Y-57775000D03*
X157150000Y-80575000D03*
X114270000Y-75110000D03*
X108000000Y-56750000D03*
X165100000Y-83800000D03*
X121850000Y-54700000D03*
X154280000Y-59070000D03*
X111000000Y-78000000D03*
X165720000Y-46160000D03*
X175250000Y-54250000D03*
X168535000Y-63950000D03*
X113125000Y-92650000D03*
X119550000Y-97125000D03*
X173600000Y-78350000D03*
X119550000Y-96425000D03*
X126460000Y-60420000D03*
X169760000Y-63950000D03*
X113375000Y-88975000D03*
X169810000Y-69100000D03*
X148050000Y-64210000D03*
X131785000Y-65115000D03*
X124425000Y-51675000D03*
X113225000Y-93725000D03*
X124000000Y-83000000D03*
X120200000Y-54725000D03*
X176250000Y-59310000D03*
X121050000Y-60725000D03*
X173500000Y-74750000D03*
X119025000Y-93750000D03*
X108200000Y-70350000D03*
X112975000Y-50600000D03*
X103000000Y-55000000D03*
X147450000Y-77800000D03*
X115950000Y-51700000D03*
X135025000Y-84600000D03*
X159175000Y-83200000D03*
X134535000Y-65115000D03*
X116825000Y-51700000D03*
X128000000Y-99000000D03*
X139000000Y-99000000D03*
X167260000Y-64100000D03*
X135450000Y-93475000D03*
X123950000Y-58550000D03*
X157150000Y-77650000D03*
X119300000Y-60650000D03*
X157940000Y-53820000D03*
X177475000Y-78250000D03*
X176260000Y-50700000D03*
X122800000Y-60625000D03*
X130750000Y-55250000D03*
X127000000Y-51700000D03*
X118075000Y-56875000D03*
X165025000Y-76350000D03*
X107400000Y-70325000D03*
X113225000Y-96975000D03*
X119550000Y-97875000D03*
X157625000Y-72700000D03*
X174250000Y-70000000D03*
X123875000Y-54900000D03*
X108000000Y-99000000D03*
X152300000Y-77200000D03*
X164200000Y-59322000D03*
X163250000Y-70625000D03*
X119375000Y-51700000D03*
X122875000Y-54700000D03*
X122725000Y-51700000D03*
X171060000Y-64025000D03*
X131725000Y-96375000D03*
X141475000Y-90225000D03*
X129025000Y-50675000D03*
X177250000Y-90500000D03*
X111750000Y-91625000D03*
X116975000Y-93775000D03*
X123975000Y-59450000D03*
X118050000Y-59425000D03*
X151940000Y-50170000D03*
X102350000Y-92700000D03*
X102000000Y-86000000D03*
X127325000Y-86000000D03*
X134700000Y-93475000D03*
X123975000Y-55950000D03*
X149680000Y-44110000D03*
X144180000Y-64360000D03*
X117600000Y-79850000D03*
X164250000Y-95000000D03*
X170780000Y-49700000D03*
X115690000Y-60340000D03*
X117625000Y-51700000D03*
X165350000Y-55420000D03*
X135785000Y-65115000D03*
X141450000Y-88050000D03*
X126125000Y-51650000D03*
X161720000Y-49550000D03*
X148530000Y-52030000D03*
X174000000Y-88000000D03*
X123775000Y-60400000D03*
X120250000Y-51700000D03*
X130550000Y-96450000D03*
X170000000Y-89500000D03*
X128200000Y-93675000D03*
X129500000Y-91425000D03*
X116000000Y-99000000D03*
X102075000Y-97325000D03*
%TO.N,NRST*%
X154650000Y-73500000D03*
X168375000Y-75375000D03*
%TO.N,+3V3*%
X157725000Y-96300000D03*
X136475000Y-87400000D03*
X107600000Y-54425000D03*
X153900000Y-68725000D03*
X178740000Y-78140000D03*
X142500000Y-73000000D03*
X116775000Y-76350000D03*
X102025000Y-76300000D03*
X138100000Y-67175000D03*
X141475000Y-86025000D03*
X171950000Y-85875000D03*
X158575000Y-96275000D03*
X175625000Y-96350000D03*
X158405388Y-80800000D03*
X136500000Y-88125000D03*
X133000000Y-84925000D03*
X106250000Y-68400000D03*
X158575000Y-70575000D03*
X137450000Y-62350000D03*
X175315000Y-75815000D03*
X176375000Y-96350000D03*
X149675000Y-82800000D03*
X171060000Y-72600000D03*
%TO.N,5V_USB*%
X110170000Y-91400000D03*
X104000000Y-90500000D03*
X109250000Y-94000000D03*
X115075000Y-88175000D03*
X116050000Y-91725000D03*
X115100000Y-89200000D03*
X105075000Y-91450000D03*
%TO.N,ESP_DOWNLOAD*%
X115750000Y-78250000D03*
X110450000Y-58325000D03*
%TO.N,ESP_EN*%
X130590000Y-71110000D03*
X135800000Y-60825000D03*
%TO.N,3V3_OUT*%
X175150000Y-58630000D03*
X133100000Y-91425000D03*
X136550000Y-90275000D03*
X174400000Y-58630000D03*
X133150000Y-89925000D03*
%TO.N,SWDIO*%
X161550000Y-85175000D03*
X165467877Y-85100000D03*
%TO.N,SWCLK*%
X159720000Y-78400000D03*
X171299000Y-82124000D03*
%TO.N,TOUCH_CS*%
X154050000Y-94749000D03*
%TO.N,TOUCH_DO_MISO*%
X153050000Y-93500000D03*
%TO.N,TFT_SPI_MOSI*%
X156250000Y-95500000D03*
%TO.N,TFT_SPI_CS*%
X163150000Y-90090000D03*
X157805388Y-77191229D03*
%TO.N,TFT_RESET*%
X161994250Y-91505750D03*
X155150000Y-77900000D03*
%TO.N,TFT_DC*%
X154849993Y-94753000D03*
%TO.N,TOUCH_DIN_MOSI*%
X153550000Y-94124501D03*
%TO.N,3V3_OUT_EN*%
X146075000Y-77825000D03*
X152350000Y-76250000D03*
%TO.N,Net-(U2-PA5)*%
X152250000Y-73250000D03*
X138500000Y-64500000D03*
%TO.N,CONN_FREE2*%
X157575000Y-74225000D03*
X163398924Y-80247454D03*
%TO.N,Net-(U2-PB1)*%
X146000000Y-75250000D03*
X152425000Y-75200000D03*
%TO.N,Net-(D7-A1)*%
X122650000Y-92550000D03*
X125025000Y-97875000D03*
X119850000Y-91700000D03*
X126325000Y-92600000D03*
X123425000Y-92550000D03*
X125075000Y-96125000D03*
X125125000Y-96900000D03*
%TO.N,BUZZER_PWM*%
X156827545Y-72763797D03*
%TD*%
D48*
%TO.N,GND*%
X147400000Y-82650000D02*
X147400000Y-81437500D01*
X157150000Y-77650000D02*
X157150000Y-79112500D01*
X130550000Y-97190000D02*
X131360000Y-98000000D01*
X129125000Y-53450000D02*
X129150000Y-53475000D01*
X102575000Y-96475000D02*
X103500000Y-97400000D01*
X113950000Y-50600000D02*
X114050000Y-50700000D01*
X102350000Y-92700000D02*
X102980000Y-92700000D01*
X139400000Y-56400000D02*
X140000000Y-57000000D01*
X111020000Y-92545000D02*
X111020000Y-92355000D01*
X173000000Y-97400000D02*
X173500000Y-97900000D01*
X176220000Y-78305000D02*
X176225000Y-78300000D01*
X128850000Y-74600000D02*
X127650000Y-74600000D01*
X105500000Y-86375000D02*
X105425000Y-86300000D01*
X127900000Y-73850000D02*
X127400000Y-74350000D01*
X164300000Y-65662500D02*
X164300000Y-64300000D01*
X169790000Y-69820000D02*
X169790000Y-70750000D01*
X107400000Y-70325000D02*
X107400000Y-71940000D01*
X129737500Y-91662500D02*
X129500000Y-91425000D01*
X161950000Y-64700000D02*
X162000000Y-64750000D01*
X102300000Y-96475000D02*
X102575000Y-96475000D01*
X150500000Y-58720000D02*
X150500000Y-59812500D01*
D49*
X119550000Y-97125000D02*
X121125000Y-97125000D01*
D48*
X112975000Y-50600000D02*
X113950000Y-50600000D01*
X163225000Y-70650000D02*
X163250000Y-70625000D01*
X102870000Y-93850000D02*
X103500000Y-93220000D01*
X120425000Y-96425000D02*
X121150000Y-97150000D01*
X165650000Y-83800000D02*
X166200000Y-83250000D01*
X148050000Y-64210000D02*
X148050000Y-65225000D01*
D49*
X175740000Y-68380000D02*
X177000000Y-68380000D01*
D48*
X130750000Y-55250000D02*
X130750000Y-54087500D01*
X177000000Y-68380000D02*
X177250000Y-68130000D01*
X173750000Y-96250000D02*
X173750000Y-97650000D01*
X112975000Y-51275000D02*
X113575000Y-51275000D01*
X130875000Y-86875000D02*
X130850000Y-86900000D01*
X161450000Y-83100000D02*
X161450000Y-81912500D01*
X112565000Y-96975000D02*
X112140000Y-97400000D01*
X128575000Y-85912500D02*
X128612500Y-85912500D01*
X111400000Y-52500000D02*
X111262500Y-52362500D01*
X113575000Y-51275000D02*
X114050000Y-51750000D01*
X149250000Y-77375000D02*
X149425000Y-77200000D01*
X141475000Y-90225000D02*
X142650000Y-90225000D01*
X165600000Y-76350000D02*
X166200000Y-76950000D01*
X113400000Y-89000000D02*
X113375000Y-88975000D01*
X173000000Y-96250000D02*
X173000000Y-97400000D01*
X128050000Y-53450000D02*
X129125000Y-53450000D01*
X108887500Y-52500000D02*
X109012500Y-52375000D01*
D49*
X128050000Y-65700000D02*
X128050000Y-64700000D01*
D48*
X120850000Y-74600000D02*
X121100000Y-74350000D01*
X127412500Y-85912500D02*
X127325000Y-86000000D01*
X128900000Y-92825000D02*
X128550000Y-92475000D01*
X108200000Y-70350000D02*
X108200000Y-71140000D01*
D49*
X130550000Y-96450000D02*
X130550000Y-97190000D01*
D48*
X111020000Y-92355000D02*
X111750000Y-91625000D01*
X165675000Y-82725000D02*
X166200000Y-83250000D01*
X103425000Y-97325000D02*
X103500000Y-97400000D01*
X159175000Y-83200000D02*
X159175000Y-81900000D01*
X102350000Y-93850000D02*
X102870000Y-93850000D01*
X177490000Y-78265000D02*
X177475000Y-78250000D01*
D49*
X175740000Y-67630000D02*
X176750000Y-67630000D01*
D48*
X161450000Y-81912500D02*
X161412500Y-81875000D01*
X135785000Y-65115000D02*
X135595000Y-65305000D01*
D49*
X114025000Y-65750000D02*
X114025000Y-64725000D01*
D48*
X152300000Y-77200000D02*
X150737500Y-77200000D01*
X167260000Y-65790000D02*
X167250000Y-65800000D01*
X157150000Y-80575000D02*
X157150000Y-79112500D01*
X168535000Y-63950000D02*
X168535000Y-65785000D01*
X147450000Y-77800000D02*
X147450000Y-79125000D01*
X108000000Y-56750000D02*
X109375000Y-56750000D01*
X135450000Y-92875000D02*
X135050000Y-92475000D01*
X176250000Y-91650000D02*
X176700000Y-92100000D01*
X108200000Y-71140000D02*
X107240000Y-72100000D01*
X144500000Y-51975000D02*
X142000000Y-51975000D01*
X114025000Y-64725000D02*
X114050000Y-64700000D01*
X127325000Y-86000000D02*
X128487500Y-86000000D01*
X173500000Y-74750000D02*
X172287500Y-74750000D01*
X167260000Y-64100000D02*
X167260000Y-65790000D01*
X154280000Y-60182500D02*
X154250000Y-60212500D01*
X161925000Y-70650000D02*
X163225000Y-70650000D01*
X101750000Y-59000000D02*
X101750000Y-60270000D01*
X117975000Y-93775000D02*
X118000000Y-93750000D01*
X107400000Y-71940000D02*
X107240000Y-72100000D01*
X177250000Y-91550000D02*
X176700000Y-92100000D01*
X142650000Y-90225000D02*
X142825000Y-90400000D01*
X173750000Y-97650000D02*
X173500000Y-97900000D01*
D49*
X113225000Y-96975000D02*
X112565000Y-96975000D01*
D48*
X119600000Y-73850000D02*
X120600000Y-73850000D01*
X148050000Y-65225000D02*
X148500000Y-65675000D01*
X134325000Y-65325000D02*
X134325000Y-67215000D01*
X176220000Y-80400000D02*
X176220000Y-78305000D01*
X134700000Y-92825000D02*
X135050000Y-92475000D01*
X157625000Y-72700000D02*
X159062500Y-72700000D01*
X139400000Y-55800000D02*
X139400000Y-56400000D01*
X142700000Y-88050000D02*
X142800000Y-88150000D01*
X177490000Y-80400000D02*
X177490000Y-78265000D01*
D50*
X177250000Y-90500000D02*
X177250000Y-91550000D01*
D48*
X113950000Y-52500000D02*
X114050000Y-52600000D01*
D50*
X119025000Y-93750000D02*
X118000000Y-93750000D01*
D48*
X173600000Y-78350000D02*
X173680000Y-78430000D01*
X120600000Y-73850000D02*
X121100000Y-74350000D01*
X165025000Y-77300000D02*
X165850000Y-77300000D01*
X139400000Y-55800000D02*
X139400000Y-56600000D01*
X129200000Y-54300000D02*
X129250000Y-54250000D01*
X133100000Y-56600000D02*
X133500000Y-57000000D01*
X102750000Y-59000000D02*
X102750000Y-59990000D01*
X135450000Y-93475000D02*
X135450000Y-92875000D01*
X112750000Y-52500000D02*
X113950000Y-52500000D01*
X128900000Y-93700000D02*
X128900000Y-92825000D01*
X128850000Y-73850000D02*
X127900000Y-73850000D01*
X144250000Y-64430000D02*
X144180000Y-64360000D01*
X113225000Y-93725000D02*
X112645000Y-93725000D01*
X147000000Y-51975000D02*
X144500000Y-51975000D01*
X165125000Y-82725000D02*
X165675000Y-82725000D01*
X135075000Y-85912500D02*
X135075000Y-84650000D01*
X128200000Y-92825000D02*
X128550000Y-92475000D01*
X131725000Y-97635000D02*
X131360000Y-98000000D01*
X147055000Y-52030000D02*
X147000000Y-51975000D01*
D49*
X119550000Y-97875000D02*
X120425000Y-97875000D01*
D48*
X113125000Y-92650000D02*
X112710000Y-92650000D01*
X173680000Y-78430000D02*
X173680000Y-80400000D01*
X102980000Y-92700000D02*
X103500000Y-93220000D01*
X131785000Y-65115000D02*
X131785000Y-67215000D01*
X120425000Y-97875000D02*
X121150000Y-97150000D01*
X176750000Y-67630000D02*
X177250000Y-68130000D01*
X130775000Y-91662500D02*
X129737500Y-91662500D01*
X154150000Y-72250000D02*
X154150000Y-70787500D01*
X128487500Y-86000000D02*
X128575000Y-85912500D01*
X149425000Y-77200000D02*
X150737500Y-77200000D01*
X147400000Y-81437500D02*
X147575000Y-81262500D01*
X107500000Y-52500000D02*
X108887500Y-52500000D01*
X154280000Y-59070000D02*
X154280000Y-60182500D01*
X112710000Y-92650000D02*
X112140000Y-93220000D01*
X128050000Y-54300000D02*
X129200000Y-54300000D01*
X130750000Y-54087500D02*
X130650000Y-53987500D01*
X141450000Y-88050000D02*
X142700000Y-88050000D01*
X112645000Y-93725000D02*
X112140000Y-93220000D01*
X135075000Y-84650000D02*
X135025000Y-84600000D01*
X101750000Y-60270000D02*
X102110000Y-60630000D01*
X165850000Y-77300000D02*
X166200000Y-76950000D01*
X128200000Y-93675000D02*
X128200000Y-92825000D01*
X133100000Y-55800000D02*
X133100000Y-56600000D01*
D49*
X131725000Y-96375000D02*
X131725000Y-97635000D01*
D48*
X139400000Y-56600000D02*
X139000000Y-57000000D01*
X169760000Y-70780000D02*
X169790000Y-70750000D01*
X135595000Y-65305000D02*
X135595000Y-67215000D01*
X132175000Y-86875000D02*
X130875000Y-86875000D01*
X128525000Y-85862500D02*
X128575000Y-85912500D01*
X104610000Y-92515000D02*
X104610000Y-92260000D01*
D50*
X176250000Y-90500000D02*
X176250000Y-91650000D01*
D48*
X165100000Y-83800000D02*
X165650000Y-83800000D01*
D50*
X116975000Y-93775000D02*
X117975000Y-93775000D01*
D48*
X112790000Y-98050000D02*
X112140000Y-97400000D01*
X168535000Y-65785000D02*
X168520000Y-65800000D01*
X164300000Y-64300000D02*
X164250000Y-64250000D01*
X113400000Y-90350000D02*
X113400000Y-89000000D01*
X169810000Y-69100000D02*
X169810000Y-69800000D01*
X113275000Y-98050000D02*
X112790000Y-98050000D01*
X119600000Y-74600000D02*
X120850000Y-74600000D01*
X159175000Y-81900000D02*
X159200000Y-81875000D01*
X104610000Y-92260000D02*
X103875000Y-91525000D01*
X150500000Y-59812500D02*
X150175000Y-60137500D01*
X169760000Y-65770000D02*
X169790000Y-65800000D01*
X121125000Y-97125000D02*
X121150000Y-97150000D01*
X147450000Y-79125000D02*
X147575000Y-79250000D01*
X129000000Y-50700000D02*
X129025000Y-50675000D01*
D49*
X119550000Y-96425000D02*
X120425000Y-96425000D01*
D48*
X102075000Y-97325000D02*
X103425000Y-97325000D01*
X165025000Y-76350000D02*
X165600000Y-76350000D01*
X102750000Y-59990000D02*
X102110000Y-60630000D01*
X127650000Y-74600000D02*
X127400000Y-74350000D01*
X112750000Y-52500000D02*
X111400000Y-52500000D01*
X105500000Y-87800000D02*
X105500000Y-86375000D01*
X128050000Y-50700000D02*
X129000000Y-50700000D01*
X134700000Y-93475000D02*
X134700000Y-92825000D01*
X160712500Y-64700000D02*
X161950000Y-64700000D01*
X132500000Y-57000000D02*
X132500000Y-56400000D01*
X132500000Y-56400000D02*
X133100000Y-55800000D01*
X169760000Y-63950000D02*
X169760000Y-65770000D01*
X169810000Y-69800000D02*
X169790000Y-69820000D01*
X144250000Y-65675000D02*
X144250000Y-64430000D01*
X148530000Y-52030000D02*
X147055000Y-52030000D01*
X134535000Y-65115000D02*
X134325000Y-65325000D01*
X171060000Y-64025000D02*
X171060000Y-65800000D01*
%TO.N,NRST*%
X154751000Y-72001057D02*
X154751000Y-73399000D01*
X170212500Y-74750000D02*
X170212500Y-76737500D01*
X168650000Y-84600000D02*
X170000000Y-83250000D01*
X168650000Y-85750000D02*
X168650000Y-84600000D01*
X173680000Y-84550000D02*
X171300000Y-84550000D01*
X154650000Y-71900057D02*
X154751000Y-72001057D01*
X169950000Y-76950000D02*
X170000000Y-76950000D01*
X168375000Y-75375000D02*
X169950000Y-76950000D01*
X170000000Y-83250000D02*
X170000000Y-76950000D01*
X170212500Y-76737500D02*
X170000000Y-76950000D01*
X154751000Y-73399000D02*
X154650000Y-73500000D01*
X154650000Y-70787500D02*
X154650000Y-71900057D01*
X171300000Y-84550000D02*
X170000000Y-83250000D01*
%TO.N,Net-(U2-PC14)*%
X156650000Y-70016176D02*
X156650000Y-70787500D01*
X161925000Y-67200000D02*
X160003000Y-69122000D01*
X157544176Y-69122000D02*
X156650000Y-70016176D01*
X163762500Y-67200000D02*
X164300000Y-67737500D01*
X161925000Y-67200000D02*
X163762500Y-67200000D01*
X160003000Y-69122000D02*
X157544176Y-69122000D01*
%TO.N,+3V3*%
X118150000Y-76350000D02*
X118200000Y-76300000D01*
X109012500Y-54450000D02*
X111250000Y-54450000D01*
X142750000Y-86000000D02*
X141500000Y-86000000D01*
X159200000Y-79800000D02*
X161412500Y-79800000D01*
X149650000Y-81262500D02*
X149650000Y-79250000D01*
X153650000Y-68975000D02*
X153650000Y-70787500D01*
X158405388Y-80594612D02*
X159200000Y-79800000D01*
X158575000Y-70575000D02*
X157862500Y-70575000D01*
X138100000Y-67175000D02*
X136905000Y-67175000D01*
X157725000Y-97365000D02*
X158260000Y-97900000D01*
X116775000Y-76350000D02*
X118150000Y-76350000D01*
X112250000Y-53450000D02*
X114050000Y-53450000D01*
X157862500Y-70575000D02*
X157650000Y-70787500D01*
X177825000Y-63925000D02*
X177785000Y-63885000D01*
X159200000Y-79800000D02*
X158337500Y-79800000D01*
D51*
X137875000Y-88112500D02*
X136512500Y-88112500D01*
D48*
X159775000Y-70575000D02*
X159850000Y-70650000D01*
X111262500Y-54437500D02*
X112250000Y-53450000D01*
X175315000Y-75815000D02*
X175380000Y-75750000D01*
X104800000Y-68400000D02*
X104650000Y-68250000D01*
X137500000Y-61000000D02*
X137500000Y-62300000D01*
X171950000Y-85875000D02*
X170775000Y-85875000D01*
X106250000Y-68400000D02*
X104800000Y-68400000D01*
X159850000Y-70650000D02*
X159850000Y-71412500D01*
X141500000Y-86000000D02*
X141475000Y-86025000D01*
X175625000Y-97485000D02*
X176040000Y-97900000D01*
X149675000Y-82800000D02*
X149675000Y-81287500D01*
X159850000Y-71412500D02*
X159062500Y-72200000D01*
X108987500Y-54425000D02*
X109012500Y-54450000D01*
X175625000Y-96350000D02*
X175625000Y-97485000D01*
X136905000Y-67175000D02*
X136865000Y-67215000D01*
X149650000Y-79250000D02*
X149650000Y-78787500D01*
X170775000Y-85875000D02*
X170650000Y-85750000D01*
D51*
X133125000Y-85950000D02*
X133125000Y-85050000D01*
X136500000Y-88125000D02*
X135212500Y-88125000D01*
D48*
X158575000Y-97585000D02*
X158260000Y-97900000D01*
D49*
X175380000Y-75750000D02*
X177250000Y-75750000D01*
D48*
X135212500Y-88125000D02*
X135075000Y-87987500D01*
X107600000Y-54425000D02*
X108987500Y-54425000D01*
X176375000Y-97565000D02*
X176040000Y-97900000D01*
D51*
X137187500Y-88112500D02*
X136475000Y-87400000D01*
D48*
X158337500Y-79800000D02*
X157650000Y-79112500D01*
X153900000Y-68725000D02*
X153650000Y-68975000D01*
X171060000Y-72600000D02*
X171060000Y-70750000D01*
D51*
X136475000Y-87400000D02*
X135662500Y-87400000D01*
D48*
X178760000Y-78160000D02*
X178760000Y-80400000D01*
X137875000Y-88112500D02*
X137187500Y-88112500D01*
X149675000Y-81287500D02*
X149650000Y-81262500D01*
D51*
X135662500Y-87400000D02*
X135075000Y-87987500D01*
D48*
X111250000Y-54450000D02*
X111262500Y-54437500D01*
X133125000Y-85050000D02*
X133000000Y-84925000D01*
X102025000Y-74775000D02*
X102160000Y-74640000D01*
X176375000Y-96350000D02*
X176375000Y-97565000D01*
X178740000Y-78140000D02*
X178760000Y-78160000D01*
X102025000Y-76300000D02*
X102025000Y-74775000D01*
X158405388Y-80800000D02*
X158405388Y-80594612D01*
X158575000Y-70575000D02*
X159775000Y-70575000D01*
X137500000Y-62300000D02*
X137450000Y-62350000D01*
X136512500Y-88112500D02*
X136500000Y-88125000D01*
X149650000Y-78787500D02*
X150737500Y-77700000D01*
%TO.N,5V_USB*%
X115750000Y-88850000D02*
X117000000Y-88850000D01*
X110225000Y-92560000D02*
X110220000Y-92565000D01*
D50*
X104950000Y-91325000D02*
X105075000Y-91450000D01*
X104950000Y-91325000D02*
X105420000Y-91795000D01*
X104650000Y-91025000D02*
X104950000Y-91325000D01*
X105420000Y-91795000D02*
X105420000Y-92545000D01*
X115450000Y-88850000D02*
X117000000Y-88850000D01*
X117025000Y-91725000D02*
X117050000Y-91750000D01*
X115075000Y-88175000D02*
X115750000Y-88850000D01*
X116050000Y-91725000D02*
X117025000Y-91725000D01*
D48*
X109250000Y-94000000D02*
X109640001Y-93609999D01*
X110220000Y-93139999D02*
X110220000Y-92565000D01*
X110170000Y-92515000D02*
X110220000Y-92565000D01*
D49*
X110170000Y-91400000D02*
X110170000Y-92515000D01*
D50*
X104000000Y-90500000D02*
X104525000Y-91025000D01*
D48*
X109640001Y-93609999D02*
X109750000Y-93609999D01*
X109750000Y-93609999D02*
X110220000Y-93139999D01*
D50*
X115100000Y-89200000D02*
X115450000Y-88850000D01*
D48*
%TO.N,ESP_DOWNLOAD*%
X118200000Y-78300000D02*
X115800000Y-78300000D01*
X111450000Y-56750000D02*
X111450000Y-56548000D01*
X113698000Y-54300000D02*
X114050000Y-54300000D01*
X121100000Y-78150000D02*
X120825000Y-78150000D01*
X129950000Y-78250000D02*
X127500000Y-78250000D01*
X110450000Y-57750000D02*
X111450000Y-56750000D01*
X127400000Y-78150000D02*
X121100000Y-78150000D01*
X115800000Y-78300000D02*
X115750000Y-78250000D01*
X120825000Y-78150000D02*
X120675000Y-78300000D01*
X118350000Y-78150000D02*
X118200000Y-78300000D01*
X111450000Y-56548000D02*
X113698000Y-54300000D01*
X127500000Y-78250000D02*
X127400000Y-78150000D01*
X121100000Y-78150000D02*
X118350000Y-78150000D01*
X110450000Y-58325000D02*
X110450000Y-57750000D01*
%TO.N,ESP_EN*%
X130590000Y-71110000D02*
X130810000Y-71110000D01*
X135800000Y-60700000D02*
X137500000Y-59000000D01*
X133012500Y-51912500D02*
X133100000Y-52000000D01*
X131065000Y-71365000D02*
X131785000Y-71365000D01*
X137500000Y-59000000D02*
X139700000Y-59000000D01*
X133100000Y-52000000D02*
X139400000Y-52000000D01*
X130487500Y-51750000D02*
X130650000Y-51912500D01*
X137500000Y-53900000D02*
X137500000Y-59000000D01*
X130810000Y-71110000D02*
X131065000Y-71365000D01*
X130650000Y-51912500D02*
X133012500Y-51912500D01*
X128050000Y-51750000D02*
X130487500Y-51750000D01*
X139400000Y-52000000D02*
X137500000Y-53900000D01*
X139700000Y-59000000D02*
X139750000Y-58950000D01*
X135800000Y-60825000D02*
X135800000Y-60700000D01*
D50*
%TO.N,3V3_OUT*%
X133050000Y-90712500D02*
X133050000Y-90025000D01*
X133050000Y-90025000D02*
X133150000Y-89925000D01*
X136550000Y-90275000D02*
X135175000Y-90275000D01*
D49*
X139350000Y-92550000D02*
X133900000Y-98000000D01*
D50*
X136712500Y-90112500D02*
X136550000Y-90275000D01*
D48*
X136425000Y-90400000D02*
X136550000Y-90275000D01*
D50*
X137875000Y-90112500D02*
X136712500Y-90112500D01*
X133050000Y-90712500D02*
X133050000Y-91375000D01*
D48*
X135175000Y-90275000D02*
X135050000Y-90400000D01*
X134737500Y-90712500D02*
X135050000Y-90400000D01*
D50*
X133050000Y-91375000D02*
X133100000Y-91425000D01*
D49*
X142850000Y-92550000D02*
X139350000Y-92550000D01*
D50*
X133050000Y-90712500D02*
X134737500Y-90712500D01*
D48*
%TO.N,USB_P*%
X107570000Y-91782499D02*
X107570000Y-92645000D01*
X111160000Y-84730000D02*
X110480000Y-84050000D01*
X107570000Y-92645000D02*
X107570000Y-92036176D01*
X107837176Y-91769000D02*
X108302824Y-91769000D01*
X107570000Y-92036176D02*
X107837176Y-91769000D01*
X112800000Y-82150000D02*
X113749943Y-82150000D01*
X112800000Y-73800000D02*
X121199000Y-65401000D01*
X108693198Y-83325000D02*
X107545000Y-84473198D01*
X112800000Y-82150000D02*
X112800000Y-73800000D01*
X110480000Y-84050000D02*
X109954999Y-84050000D01*
X108302824Y-91769000D02*
X108570000Y-92036176D01*
X121551000Y-65049000D02*
X121900000Y-64700000D01*
X109229999Y-83325000D02*
X108693198Y-83325000D01*
X113749943Y-84580057D02*
X113600000Y-84730000D01*
X113600000Y-84730000D02*
X111160000Y-84730000D01*
X121199000Y-65401000D02*
X121551000Y-65401000D01*
X113749943Y-82150000D02*
X113749943Y-84580057D01*
X107545000Y-91757499D02*
X107570000Y-91782499D01*
X109954999Y-84050000D02*
X109229999Y-83325000D01*
X121551000Y-65401000D02*
X121551000Y-65049000D01*
X108570000Y-92036176D02*
X108570000Y-92645000D01*
X107545000Y-84473198D02*
X107545000Y-91757499D01*
%TO.N,Net-(J1-CC2)*%
X111400000Y-90350000D02*
X110800000Y-90350000D01*
X111224000Y-90174000D02*
X111400000Y-90350000D01*
X109570000Y-90530057D02*
X109926057Y-90174000D01*
X109570000Y-92645000D02*
X109570000Y-90530057D01*
X109926057Y-90174000D02*
X111224000Y-90174000D01*
%TO.N,Net-(J1-CC1)*%
X105500000Y-89800000D02*
X106570000Y-90870000D01*
X106570000Y-90870000D02*
X106570000Y-92645000D01*
%TO.N,USB_N*%
X112350000Y-73613603D02*
X121050000Y-64913603D01*
X112149000Y-81841478D02*
X112350000Y-81640478D01*
X110480000Y-82150000D02*
X111840478Y-82150000D01*
X107337176Y-93521000D02*
X107070000Y-93253824D01*
X108070000Y-92645000D02*
X108070000Y-93253824D01*
X112406000Y-83656000D02*
X112396478Y-83656000D01*
X112396478Y-83656000D02*
X112149000Y-83408522D01*
X109954999Y-82150000D02*
X109229999Y-82875000D01*
X121050000Y-64913603D02*
X121050000Y-64700000D01*
X108506802Y-82875000D02*
X107095000Y-84286802D01*
X109229999Y-82875000D02*
X108506802Y-82875000D01*
X107070000Y-93253824D02*
X107070000Y-92645000D01*
X107070000Y-91782499D02*
X107070000Y-92645000D01*
X110480000Y-82150000D02*
X109954999Y-82150000D01*
X108070000Y-93253824D02*
X107802824Y-93521000D01*
X107095000Y-91757499D02*
X107070000Y-91782499D01*
X107095000Y-84286802D02*
X107095000Y-91757499D01*
X107802824Y-93521000D02*
X107337176Y-93521000D01*
X112350000Y-81640478D02*
X112350000Y-73613603D01*
X112149000Y-83408522D02*
X112149000Y-81841478D01*
X111840478Y-82150000D02*
X112149000Y-81841478D01*
X112800000Y-84050000D02*
X112406000Y-83656000D01*
%TO.N,SWDIO*%
X156650000Y-79883824D02*
X156650000Y-79112500D01*
X166929558Y-86529558D02*
X167151000Y-86751000D01*
X156549000Y-79984824D02*
X156650000Y-79883824D01*
X165467877Y-85100000D02*
X166897435Y-86529558D01*
X161550000Y-85175000D02*
X160300057Y-85175000D01*
X167151000Y-86751000D02*
X177586000Y-86751000D01*
X166897435Y-86529558D02*
X166929558Y-86529558D01*
X178760000Y-85577000D02*
X178760000Y-84550000D01*
X156549000Y-81423943D02*
X156549000Y-79984824D01*
X160300057Y-85175000D02*
X156549000Y-81423943D01*
X177586000Y-86751000D02*
X178760000Y-85577000D01*
%TO.N,SWCLK*%
X159637500Y-78275000D02*
X159062500Y-77700000D01*
X177490000Y-83523000D02*
X176891000Y-82924000D01*
X159720000Y-78400000D02*
X159637500Y-78317500D01*
X176891000Y-82924000D02*
X172151000Y-82924000D01*
X159637500Y-78317500D02*
X159637500Y-78275000D01*
X172151000Y-82924000D02*
X172099000Y-82924000D01*
X177490000Y-84550000D02*
X177490000Y-83523000D01*
X172099000Y-82924000D02*
X171299000Y-82124000D01*
X172151000Y-82924000D02*
X172125000Y-82950000D01*
%TO.N,MUX3*%
X157250000Y-56250000D02*
X157250000Y-51500000D01*
X168250000Y-61750000D02*
X173000000Y-57000000D01*
X155650000Y-70787500D02*
X155650000Y-66050000D01*
X155650000Y-66050000D02*
X159950000Y-61750000D01*
X159950000Y-61750000D02*
X168250000Y-61750000D01*
X173000000Y-52250000D02*
X173000000Y-57000000D01*
%TO.N,MUX1*%
X153150000Y-67600000D02*
X160500000Y-60250000D01*
X166750000Y-60250000D02*
X170000000Y-57000000D01*
X153150000Y-70787500D02*
X153150000Y-67600000D01*
X170000000Y-52250000D02*
X168330000Y-50580000D01*
X161170000Y-50580000D02*
X160250000Y-51500000D01*
X160250000Y-51500000D02*
X160250000Y-56250000D01*
X160500000Y-60250000D02*
X166750000Y-60250000D01*
X170000000Y-52250000D02*
X170000000Y-57000000D01*
X168330000Y-50580000D02*
X161170000Y-50580000D01*
%TO.N,MUX2*%
X169502000Y-50252000D02*
X171500000Y-52250000D01*
X155150000Y-70787500D02*
X155150000Y-66086138D01*
X160486138Y-60750000D02*
X167750000Y-60750000D01*
X171500000Y-57000000D02*
X171500000Y-52250000D01*
X158750000Y-51500000D02*
X158750000Y-56250000D01*
X155150000Y-66086138D02*
X160486138Y-60750000D01*
X167750000Y-60750000D02*
X171500000Y-57000000D01*
X158750000Y-51500000D02*
X159998000Y-50252000D01*
X159998000Y-50252000D02*
X169502000Y-50252000D01*
%TO.N,MUX4*%
X172260056Y-58250000D02*
X173250000Y-58250000D01*
X166250000Y-67386160D02*
X166250000Y-64260056D01*
X153250000Y-43880000D02*
X176250000Y-43880000D01*
X157716176Y-69450000D02*
X164186160Y-69450000D01*
X164186160Y-69450000D02*
X166250000Y-67386160D01*
X152050000Y-45080000D02*
X153250000Y-43880000D01*
X157150000Y-70016176D02*
X157716176Y-69450000D01*
X176250000Y-43880000D02*
X177450000Y-45080000D01*
X155750000Y-51500000D02*
X155750000Y-56250000D01*
X173250000Y-58250000D02*
X174500000Y-57000000D01*
X174500000Y-57000000D02*
X174500000Y-52250000D01*
X166250000Y-64260056D02*
X172260056Y-58250000D01*
X157150000Y-70787500D02*
X157150000Y-70016176D01*
%TO.N,SIG3*%
X163170000Y-58080000D02*
X150170000Y-58080000D01*
X161750000Y-51500000D02*
X164750000Y-54500000D01*
X148750000Y-59500000D02*
X148750000Y-63962500D01*
X164750000Y-56500000D02*
X163170000Y-58080000D01*
X148750000Y-63962500D02*
X150500000Y-65712500D01*
X164750000Y-54500000D02*
X164750000Y-56500000D01*
X150170000Y-58080000D02*
X148750000Y-59500000D01*
%TO.N,SIG4*%
X161750000Y-56250000D02*
X160290000Y-57710000D01*
X146250000Y-61500000D02*
X146250000Y-65712500D01*
X160290000Y-57710000D02*
X150040000Y-57710000D01*
X150040000Y-57710000D02*
X146250000Y-61500000D01*
%TO.N,SIG2*%
X168500000Y-53750000D02*
X163810000Y-58440000D01*
X152175000Y-59825000D02*
X152175000Y-60175000D01*
X168500000Y-52250000D02*
X168500000Y-53750000D01*
X163810000Y-58440000D02*
X153560000Y-58440000D01*
X153560000Y-58440000D02*
X152175000Y-59825000D01*
%TO.N,SIG1*%
X165578000Y-59922000D02*
X156578000Y-59922000D01*
X156578000Y-59922000D02*
X156250000Y-60250000D01*
X168500000Y-57000000D02*
X165578000Y-59922000D01*
%TO.N,TOUCH_CS*%
X154150000Y-94649000D02*
X154150000Y-79112500D01*
X154050000Y-94749000D02*
X154150000Y-94649000D01*
%TO.N,TOUCH_DO_MISO*%
X153150000Y-93400000D02*
X153150000Y-79112500D01*
X153050000Y-93500000D02*
X153150000Y-93400000D01*
%TO.N,TFT_SPI_SCK*%
X160800000Y-87450000D02*
X162750000Y-85500000D01*
X162750000Y-85500000D02*
X162750000Y-79213862D01*
X160236138Y-76700000D02*
X159062500Y-76700000D01*
X162750000Y-79213862D02*
X160236138Y-76700000D01*
X160800000Y-97900000D02*
X160800000Y-87450000D01*
%TO.N,TOUCH_IRQ*%
X143020000Y-97900000D02*
X143060000Y-97900000D01*
X143060000Y-97900000D02*
X151500000Y-89460000D01*
X151500000Y-89460000D02*
X151500000Y-79762500D01*
X151500000Y-79762500D02*
X152150000Y-79112500D01*
%TO.N,TFT_SPI_MOSI*%
X156250000Y-95500000D02*
X156150000Y-95400000D01*
X156150000Y-95400000D02*
X156150000Y-79112500D01*
%TO.N,TFT_SPI_MISO*%
X155720000Y-97900000D02*
X155650000Y-97830000D01*
X155650000Y-97830000D02*
X155650000Y-79112500D01*
%TO.N,TOUCH_CLK*%
X152601000Y-79161500D02*
X152650000Y-79112500D01*
X152399000Y-80134824D02*
X152399000Y-97119000D01*
X152601000Y-79932824D02*
X152399000Y-80134824D01*
X152399000Y-97119000D02*
X153180000Y-97900000D01*
X152601000Y-79161500D02*
X152601000Y-79932824D01*
%TO.N,TFT_SPI_CS*%
X163150000Y-90090000D02*
X170960000Y-97900000D01*
X157805388Y-77191229D02*
X159053729Y-77191229D01*
X159053729Y-77191229D02*
X159062500Y-77200000D01*
%TO.N,TFT_RESET*%
X161994250Y-91505750D02*
X163038500Y-92550000D01*
X163038500Y-92550000D02*
X163070000Y-92550000D01*
X163070000Y-92550000D02*
X168420000Y-97900000D01*
X155150000Y-77900000D02*
X155150000Y-79112500D01*
%TO.N,TFT_DC*%
X154849993Y-94753000D02*
X154650000Y-94553007D01*
X154650000Y-94553007D02*
X154650000Y-79112500D01*
%TO.N,I2C_CLK*%
X168520000Y-70750000D02*
X168520000Y-71551000D01*
X167500000Y-72571000D02*
X166015138Y-72571000D01*
X164886138Y-73700000D02*
X159062500Y-73700000D01*
X173500000Y-68000000D02*
X176599000Y-64901000D01*
X176599000Y-62611000D02*
X177750000Y-61460000D01*
X168520000Y-71551000D02*
X167500000Y-72571000D01*
X168520000Y-70750000D02*
X168520000Y-69540057D01*
X170060057Y-68000000D02*
X173500000Y-68000000D01*
X166015138Y-72571000D02*
X164886138Y-73700000D01*
X168520000Y-69540057D02*
X170060057Y-68000000D01*
X176599000Y-64901000D02*
X176599000Y-62611000D01*
%TO.N,I2C_DATA*%
X170000000Y-67500000D02*
X171710000Y-67500000D01*
X167250000Y-70250000D02*
X170000000Y-67500000D01*
X159062500Y-73200000D02*
X164800000Y-73200000D01*
X171710000Y-67500000D02*
X175210000Y-64000000D01*
X167250000Y-70750000D02*
X167250000Y-70250000D01*
X164800000Y-73200000D02*
X167250000Y-70750000D01*
%TO.N,LED_ALIVE*%
X141418000Y-68345724D02*
X147772276Y-74700000D01*
X141418000Y-58607000D02*
X141418000Y-68345724D01*
X147772276Y-74700000D02*
X150737500Y-74700000D01*
X142000000Y-58025000D02*
X141418000Y-58607000D01*
%TO.N,ESP_TX*%
X133250000Y-62050000D02*
X133250000Y-61850000D01*
X133250000Y-62050000D02*
X134050000Y-62050000D01*
X128250000Y-56850000D02*
X128050000Y-56850000D01*
X134050000Y-62050000D02*
X148700000Y-76700000D01*
X148700000Y-76700000D02*
X150737500Y-76700000D01*
X133250000Y-61850000D02*
X128250000Y-56850000D01*
%TO.N,TOUCH_DIN_MOSI*%
X153650000Y-94024501D02*
X153650000Y-79112500D01*
X153699000Y-79161500D02*
X153650000Y-79112500D01*
X153550000Y-94124501D02*
X153650000Y-94024501D01*
%TO.N,LED_USER1*%
X144500000Y-58025000D02*
X141746000Y-60779000D01*
X141746000Y-60779000D02*
X141746000Y-68209862D01*
X141746000Y-68209862D02*
X147736138Y-74200000D01*
X147736138Y-74200000D02*
X150737500Y-74200000D01*
%TO.N,ESP_RX*%
X135250000Y-62750000D02*
X148750000Y-76250000D01*
X129740000Y-56000000D02*
X128050000Y-56000000D01*
X133250000Y-59510000D02*
X129740000Y-56000000D01*
X148750000Y-76250000D02*
X148800000Y-76200000D01*
X135250000Y-61510000D02*
X135250000Y-62750000D01*
X133250000Y-59510000D02*
X135250000Y-61510000D01*
X148800000Y-76200000D02*
X150737500Y-76200000D01*
%TO.N,LED_USER2*%
X147700000Y-73700000D02*
X150737500Y-73700000D01*
X147000000Y-58025000D02*
X142074000Y-62951000D01*
X142074000Y-62951000D02*
X142074000Y-68074000D01*
X142074000Y-68074000D02*
X147700000Y-73700000D01*
%TO.N,3V3_OUT_EN*%
X139825000Y-90825000D02*
X136075000Y-94575000D01*
X151800000Y-75700000D02*
X152350000Y-76250000D01*
X130700000Y-94575000D02*
X130700000Y-94475000D01*
X150737500Y-75700000D02*
X151800000Y-75700000D01*
X130775000Y-94400000D02*
X130775000Y-92612500D01*
X139825000Y-84075000D02*
X139825000Y-90825000D01*
X146075000Y-77825000D02*
X139825000Y-84075000D01*
X130700000Y-94475000D02*
X130775000Y-94400000D01*
X136075000Y-94575000D02*
X130700000Y-94575000D01*
%TO.N,ESP_SPI_SCK*%
X107240000Y-74640000D02*
X115100000Y-66780000D01*
X115100000Y-66780000D02*
X115100000Y-64700000D01*
%TO.N,ESP_SPI_CS*%
X103710000Y-70550000D02*
X105350000Y-70550000D01*
X102160000Y-72100000D02*
X103710000Y-70550000D01*
X113100000Y-62800000D02*
X114050000Y-62800000D01*
X105350000Y-70550000D02*
X113100000Y-62800000D01*
%TO.N,ESP_SPI_MOSI*%
X104700000Y-72100000D02*
X113150000Y-63650000D01*
X113150000Y-63650000D02*
X114050000Y-63650000D01*
%TO.N,ESP_SPI_MISO*%
X107716760Y-75791000D02*
X115950000Y-67557760D01*
X104700000Y-74640000D02*
X105851000Y-75791000D01*
X105851000Y-75791000D02*
X107716760Y-75791000D01*
X115950000Y-67557760D02*
X115950000Y-64700000D01*
%TO.N,ESP_FREE5*%
X113698000Y-59400000D02*
X114050000Y-59400000D01*
X107388000Y-65710000D02*
X113698000Y-59400000D01*
X104650000Y-65710000D02*
X107388000Y-65710000D01*
%TO.N,ESP_FREE3*%
X108228000Y-63170000D02*
X113698000Y-57700000D01*
X113698000Y-57700000D02*
X114050000Y-57700000D01*
X104650000Y-63170000D02*
X108228000Y-63170000D01*
%TO.N,ESP_FREE1*%
X104650000Y-60630000D02*
X109168660Y-60630000D01*
X109168660Y-60630000D02*
X113349000Y-56449660D01*
X113349000Y-55651000D02*
X113850000Y-55150000D01*
X113850000Y-55150000D02*
X114050000Y-55150000D01*
X113349000Y-56449660D02*
X113349000Y-55651000D01*
%TO.N,ESP_FREE4*%
X102110000Y-65710000D02*
X103261000Y-64559000D01*
X107689000Y-64559000D02*
X113698000Y-58550000D01*
X113698000Y-58550000D02*
X114050000Y-58550000D01*
X103261000Y-64559000D02*
X107689000Y-64559000D01*
%TO.N,ESP_FREE2*%
X103261000Y-62019000D02*
X108529000Y-62019000D01*
X108529000Y-62019000D02*
X113698000Y-56850000D01*
X102110000Y-63170000D02*
X103261000Y-62019000D01*
X113698000Y-56850000D02*
X114050000Y-56850000D01*
%TO.N,Net-(D1-A)*%
X144750000Y-86000000D02*
X144750000Y-88050000D01*
X144750000Y-88050000D02*
X144850000Y-88150000D01*
%TO.N,Net-(D2-A)*%
X144875000Y-92525000D02*
X144850000Y-92550000D01*
X144875000Y-90400000D02*
X144875000Y-92525000D01*
%TO.N,ESP_FREE6*%
X107239000Y-66861000D02*
X113850000Y-60250000D01*
X102110000Y-68250000D02*
X103499000Y-66861000D01*
X113850000Y-60250000D02*
X114050000Y-60250000D01*
X103499000Y-66861000D02*
X107239000Y-66861000D01*
%TO.N,UART_OUT_RX*%
X167736195Y-74700000D02*
X169235195Y-73201000D01*
X175469000Y-73201000D02*
X178000000Y-70670000D01*
X169235195Y-73201000D02*
X175469000Y-73201000D01*
X159062500Y-74700000D02*
X167736195Y-74700000D01*
%TO.N,UART_OUT_TX*%
X169371057Y-73529000D02*
X177681000Y-73529000D01*
X167700057Y-75200000D02*
X169371057Y-73529000D01*
X177681000Y-73529000D02*
X178000000Y-73210000D01*
X159062500Y-75200000D02*
X167700057Y-75200000D01*
%TO.N,Net-(U2-PA5)*%
X138500000Y-62200000D02*
X138500000Y-64500000D01*
X152250000Y-73250000D02*
X150787500Y-73250000D01*
X150787500Y-73250000D02*
X150737500Y-73200000D01*
X139750000Y-60950000D02*
X138500000Y-62200000D01*
%TO.N,Net-(U2-PC15)*%
X156150000Y-69725000D02*
X156150000Y-70787500D01*
X158675000Y-67200000D02*
X158675000Y-64737500D01*
X158675000Y-64737500D02*
X158637500Y-64700000D01*
X158675000Y-67200000D02*
X156150000Y-69725000D01*
%TO.N,CONN_FREE2*%
X159037500Y-74225000D02*
X159062500Y-74200000D01*
X157575000Y-74225000D02*
X159037500Y-74225000D01*
X163475000Y-80323530D02*
X163475000Y-86495000D01*
X163398924Y-80247454D02*
X163475000Y-80323530D01*
X163475000Y-86495000D02*
X169080000Y-92100000D01*
%TO.N,CONN_FREE1*%
X164171000Y-85284862D02*
X170986138Y-92100000D01*
X170986138Y-92100000D02*
X171620000Y-92100000D01*
X159062500Y-76200000D02*
X160200000Y-76200000D01*
X164171000Y-80171000D02*
X164171000Y-85284862D01*
X160200000Y-76200000D02*
X164171000Y-80171000D01*
%TO.N,Net-(U2-PB1)*%
X146000000Y-75250000D02*
X143000000Y-78250000D01*
X150737500Y-75200000D02*
X152425000Y-75200000D01*
X143000000Y-78250000D02*
X131950000Y-78250000D01*
%TO.N,Net-(D4-K)*%
X142000000Y-55975000D02*
X142000000Y-53975000D01*
%TO.N,Net-(D5-K)*%
X144500000Y-53975000D02*
X144500000Y-55975000D01*
%TO.N,Net-(D6-K)*%
X147000000Y-55975000D02*
X147000000Y-53975000D01*
D50*
%TO.N,Net-(D7-A1)*%
X123650000Y-97150000D02*
X124875000Y-97150000D01*
X122650000Y-92550000D02*
X123425000Y-92550000D01*
X124675000Y-96125000D02*
X123650000Y-97150000D01*
X123425000Y-92550000D02*
X124750000Y-92550000D01*
D48*
X125075000Y-96125000D02*
X124675000Y-96125000D01*
D50*
X124750000Y-92550000D02*
X124950000Y-92750000D01*
D48*
X119800000Y-91750000D02*
X119850000Y-91700000D01*
D50*
X124950000Y-92750000D02*
X126175000Y-92750000D01*
X124875000Y-97150000D02*
X125125000Y-96900000D01*
X123650000Y-97150000D02*
X124300000Y-97150000D01*
X118950000Y-91750000D02*
X119800000Y-91750000D01*
X126175000Y-92750000D02*
X126325000Y-92600000D01*
X124300000Y-97150000D02*
X125025000Y-97875000D01*
D48*
%TO.N,BUZZER_PWM*%
X164499000Y-85149000D02*
X168125000Y-88775000D01*
X164499000Y-79597000D02*
X164499000Y-85149000D01*
X168125000Y-88775000D02*
X170835000Y-88775000D01*
X158200057Y-75700000D02*
X156827545Y-74327488D01*
X170835000Y-88775000D02*
X174160000Y-92100000D01*
X156827545Y-74327488D02*
X156827545Y-72763797D01*
X160602000Y-75700000D02*
X164499000Y-79597000D01*
X159062500Y-75700000D02*
X160602000Y-75700000D01*
X159062500Y-75700000D02*
X158200057Y-75700000D01*
%TO.N,Net-(U2-PA1)*%
X155000000Y-61962500D02*
X154962500Y-62000000D01*
X156212500Y-62287500D02*
X156250000Y-62250000D01*
X152650000Y-65850000D02*
X152650000Y-70787500D01*
X156250000Y-62250000D02*
X152650000Y-65850000D01*
D49*
X154250000Y-62287500D02*
X156212500Y-62287500D01*
D48*
%TO.N,Net-(U2-PA2)*%
X152175000Y-62175000D02*
X152175000Y-62425000D01*
X151675000Y-62175000D02*
X151637500Y-62212500D01*
D49*
X151637500Y-62212500D02*
X150175000Y-62212500D01*
D48*
X152175000Y-70762500D02*
X152150000Y-70787500D01*
X152175000Y-62175000D02*
X151675000Y-62175000D01*
X152175000Y-62425000D02*
X152250000Y-62500000D01*
X152175000Y-62175000D02*
X152175000Y-70762500D01*
%TO.N,Net-(U2-PA3)*%
X148537500Y-67712500D02*
X148500000Y-67750000D01*
X150500000Y-71962500D02*
X150737500Y-72200000D01*
X150500000Y-67712500D02*
X150500000Y-71962500D01*
D49*
X150500000Y-67712500D02*
X148537500Y-67712500D01*
D48*
%TO.N,Net-(U2-PA4)*%
X146250000Y-67712500D02*
X146250000Y-68983824D01*
X146212500Y-67750000D02*
X146250000Y-67712500D01*
D49*
X144250000Y-67750000D02*
X146212500Y-67750000D01*
D48*
X146250000Y-68983824D02*
X149966176Y-72700000D01*
X149966176Y-72700000D02*
X150737500Y-72700000D01*
%TO.N,ESP_TCK*%
X130978138Y-73319000D02*
X129540000Y-71880862D01*
X129540000Y-61330000D02*
X128460000Y-60250000D01*
X134668000Y-73319000D02*
X130978138Y-73319000D01*
X128460000Y-60250000D02*
X128050000Y-60250000D01*
X129540000Y-71880862D02*
X129540000Y-61330000D01*
X135595000Y-71365000D02*
X135595000Y-72392000D01*
X135595000Y-72392000D02*
X134668000Y-73319000D01*
%TO.N,ESP_TDO*%
X128402000Y-59400000D02*
X129920000Y-60918000D01*
X131114000Y-72991000D02*
X133654000Y-72991000D01*
X129920000Y-60918000D02*
X129920000Y-71797000D01*
X134325000Y-71365000D02*
X134325000Y-70410000D01*
X129920000Y-71797000D02*
X131114000Y-72991000D01*
X133654000Y-72991000D02*
X134325000Y-72320000D01*
X128050000Y-59400000D02*
X128402000Y-59400000D01*
X134325000Y-72320000D02*
X134325000Y-71365000D01*
%TO.N,ESP_TMS*%
X136865000Y-69865000D02*
X136865000Y-71365000D01*
X135841000Y-68841000D02*
X136865000Y-69865000D01*
X131114000Y-68841000D02*
X135841000Y-68841000D01*
X128050000Y-57700000D02*
X128250000Y-57700000D01*
X128250000Y-57700000D02*
X131114000Y-60564000D01*
X136865000Y-71365000D02*
X136865000Y-72320000D01*
X131114000Y-60564000D02*
X131114000Y-68841000D01*
%TO.N,ESP_TDI*%
X128250000Y-58550000D02*
X130640000Y-60940000D01*
X128050000Y-58550000D02*
X128250000Y-58550000D01*
X130640000Y-60940000D02*
X130640000Y-68859000D01*
X133055000Y-70410000D02*
X133055000Y-71365000D01*
X131520000Y-69739000D02*
X132384000Y-69739000D01*
X130640000Y-68859000D02*
X131520000Y-69739000D01*
X132384000Y-69739000D02*
X133055000Y-70410000D01*
%TD*%
%TA.AperFunction,Conductor*%
%TO.N,GND*%
G36*
X127428326Y-50172174D02*
G01*
X127450000Y-50224500D01*
X127450000Y-51521536D01*
X127449644Y-51528783D01*
X127449500Y-51530246D01*
X127449500Y-51969751D01*
X127449643Y-51971203D01*
X127450000Y-51978459D01*
X127450000Y-52019348D01*
X127428326Y-52071674D01*
X124450000Y-55050000D01*
X124450000Y-61426000D01*
X124428326Y-61478326D01*
X124376000Y-61500000D01*
X117599000Y-61500000D01*
X117546674Y-61478326D01*
X117525000Y-61426000D01*
X117525000Y-54650000D01*
X114771674Y-51896674D01*
X114750000Y-51844348D01*
X114750000Y-50224500D01*
X114771674Y-50172174D01*
X114824000Y-50150500D01*
X127376000Y-50150500D01*
X127428326Y-50172174D01*
G37*
%TD.AperFunction*%
%TD*%
%TA.AperFunction,Conductor*%
%TO.N,5V_IN*%
G36*
X127098160Y-85294962D02*
G01*
X127152698Y-85349500D01*
X127172660Y-85424000D01*
X127152698Y-85498500D01*
X127098160Y-85553038D01*
X127017689Y-85599497D01*
X126924497Y-85692689D01*
X126858609Y-85806812D01*
X126824500Y-85934106D01*
X126824500Y-85934108D01*
X126824500Y-86065892D01*
X126858608Y-86193186D01*
X126858609Y-86193187D01*
X126924497Y-86307310D01*
X126924498Y-86307311D01*
X126924500Y-86307314D01*
X127017686Y-86400500D01*
X127131814Y-86466392D01*
X127259108Y-86500500D01*
X127390892Y-86500500D01*
X127518186Y-86466392D01*
X127530216Y-86459445D01*
X127604712Y-86439482D01*
X127679213Y-86459441D01*
X127724603Y-86500003D01*
X127777848Y-86572148D01*
X127777851Y-86572151D01*
X127887116Y-86652792D01*
X127887117Y-86652792D01*
X127887118Y-86652793D01*
X128015301Y-86697646D01*
X128045734Y-86700500D01*
X128045741Y-86700500D01*
X129104259Y-86700500D01*
X129104266Y-86700500D01*
X129134699Y-86697646D01*
X129262882Y-86652793D01*
X129372150Y-86572150D01*
X129452793Y-86462882D01*
X129497646Y-86334699D01*
X129500500Y-86304266D01*
X129500500Y-85520734D01*
X129497646Y-85490301D01*
X129491666Y-85473210D01*
X129485903Y-85396298D01*
X129519368Y-85326808D01*
X129583095Y-85283361D01*
X129632305Y-85275000D01*
X131713500Y-85275000D01*
X131788000Y-85294962D01*
X131842538Y-85349500D01*
X131862500Y-85424000D01*
X131862500Y-86394601D01*
X131842538Y-86469101D01*
X131788000Y-86523639D01*
X131713500Y-86543601D01*
X131639000Y-86523639D01*
X131608141Y-86499960D01*
X131568981Y-86460800D01*
X131463894Y-86409426D01*
X131395768Y-86399500D01*
X131395760Y-86399500D01*
X130304240Y-86399500D01*
X130304231Y-86399500D01*
X130236106Y-86409426D01*
X130236105Y-86409426D01*
X130131018Y-86460800D01*
X130048300Y-86543518D01*
X129996926Y-86648605D01*
X129996926Y-86648606D01*
X129987000Y-86716731D01*
X129987000Y-87083268D01*
X129996926Y-87151393D01*
X129996926Y-87151394D01*
X130048300Y-87256481D01*
X130131018Y-87339199D01*
X130236105Y-87390573D01*
X130304231Y-87400499D01*
X130304237Y-87400499D01*
X130304240Y-87400500D01*
X130304241Y-87400500D01*
X131395759Y-87400500D01*
X131395760Y-87400500D01*
X131395763Y-87400499D01*
X131395768Y-87400499D01*
X131463893Y-87390573D01*
X131463894Y-87390573D01*
X131568981Y-87339199D01*
X131568981Y-87339198D01*
X131568983Y-87339198D01*
X131608141Y-87300040D01*
X131674936Y-87261476D01*
X131752064Y-87261476D01*
X131818859Y-87300040D01*
X131857423Y-87366835D01*
X131862500Y-87405399D01*
X131862500Y-90901000D01*
X131842538Y-90975500D01*
X131788000Y-91030038D01*
X131713500Y-91050000D01*
X129891126Y-91050000D01*
X129816626Y-91030038D01*
X129814839Y-91028844D01*
X129744885Y-90988456D01*
X129693186Y-90958608D01*
X129565892Y-90924500D01*
X129434108Y-90924500D01*
X129306814Y-90958608D01*
X129306812Y-90958608D01*
X129306812Y-90958609D01*
X129184228Y-91029383D01*
X129182453Y-91026308D01*
X129128290Y-91048730D01*
X129108874Y-91050000D01*
X127624000Y-91050000D01*
X127549500Y-91030038D01*
X127494962Y-90975500D01*
X127475000Y-90901000D01*
X127475000Y-90700000D01*
X119161718Y-90700000D01*
X119142770Y-90694923D01*
X119123154Y-90694923D01*
X119106166Y-90685115D01*
X119087218Y-90680038D01*
X119056359Y-90656359D01*
X119043641Y-90643641D01*
X119005077Y-90576846D01*
X119000000Y-90538282D01*
X119000000Y-85424000D01*
X119019962Y-85349500D01*
X119074500Y-85294962D01*
X119149000Y-85275000D01*
X127023660Y-85275000D01*
X127098160Y-85294962D01*
G37*
%TD.AperFunction*%
%TD*%
M02*
