%TF.GenerationSoftware,KiCad,Pcbnew,9.0.0*%
%TF.CreationDate,2025-04-06T01:03:20+02:00*%
%TF.ProjectId,CHESS PIECES DETECTION,43484553-5320-4504-9945-434553204445,rev?*%
%TF.SameCoordinates,Original*%
%TF.FileFunction,Copper,L1,Top*%
%TF.FilePolarity,Positive*%
%FSLAX46Y46*%
G04 Gerber Fmt 4.6, Leading zero omitted, Abs format (unit mm)*
G04 Created by KiCad (PCBNEW 9.0.0) date 2025-04-06 01:03:20*
%MOMM*%
%LPD*%
G01*
G04 APERTURE LIST*
G04 Aperture macros list*
%AMRoundRect*
0 Rectangle with rounded corners*
0 $1 Rounding radius*
0 $2 $3 $4 $5 $6 $7 $8 $9 X,Y pos of 4 corners*
0 Add a 4 corners polygon primitive as box body*
4,1,4,$2,$3,$4,$5,$6,$7,$8,$9,$2,$3,0*
0 Add four circle primitives for the rounded corners*
1,1,$1+$1,$2,$3*
1,1,$1+$1,$4,$5*
1,1,$1+$1,$6,$7*
1,1,$1+$1,$8,$9*
0 Add four rect primitives between the rounded corners*
20,1,$1+$1,$2,$3,$4,$5,0*
20,1,$1+$1,$4,$5,$6,$7,0*
20,1,$1+$1,$6,$7,$8,$9,0*
20,1,$1+$1,$8,$9,$2,$3,0*%
G04 Aperture macros list end*
%TA.AperFunction,NonConductor*%
%ADD10C,0.200000*%
%TD*%
%TA.AperFunction,Conductor*%
%ADD11C,0.200000*%
%TD*%
%TA.AperFunction,SMDPad,CuDef*%
%ADD12RoundRect,0.250000X-0.350000X-0.450000X0.350000X-0.450000X0.350000X0.450000X-0.350000X0.450000X0*%
%TD*%
%TA.AperFunction,ComponentPad*%
%ADD13R,1.500000X1.050000*%
%TD*%
%TA.AperFunction,ComponentPad*%
%ADD14O,1.500000X1.050000*%
%TD*%
%TA.AperFunction,SMDPad,CuDef*%
%ADD15RoundRect,0.250000X-0.337500X-0.475000X0.337500X-0.475000X0.337500X0.475000X-0.337500X0.475000X0*%
%TD*%
%TA.AperFunction,SMDPad,CuDef*%
%ADD16RoundRect,0.250000X0.475000X-0.337500X0.475000X0.337500X-0.475000X0.337500X-0.475000X-0.337500X0*%
%TD*%
%TA.AperFunction,SMDPad,CuDef*%
%ADD17RoundRect,0.250000X-0.475000X0.337500X-0.475000X-0.337500X0.475000X-0.337500X0.475000X0.337500X0*%
%TD*%
%TA.AperFunction,SMDPad,CuDef*%
%ADD18RoundRect,0.250000X0.325000X0.450000X-0.325000X0.450000X-0.325000X-0.450000X0.325000X-0.450000X0*%
%TD*%
%TA.AperFunction,ComponentPad*%
%ADD19R,1.238000X1.238000*%
%TD*%
%TA.AperFunction,ComponentPad*%
%ADD20C,1.238000*%
%TD*%
%TA.AperFunction,SMDPad,CuDef*%
%ADD21RoundRect,0.150000X-0.150000X0.875000X-0.150000X-0.875000X0.150000X-0.875000X0.150000X0.875000X0*%
%TD*%
%TA.AperFunction,SMDPad,CuDef*%
%ADD22RoundRect,0.250000X0.350000X0.450000X-0.350000X0.450000X-0.350000X-0.450000X0.350000X-0.450000X0*%
%TD*%
%TA.AperFunction,ViaPad*%
%ADD23C,0.600000*%
%TD*%
%TA.AperFunction,Conductor*%
%ADD24C,0.800000*%
%TD*%
%TA.AperFunction,Conductor*%
%ADD25C,0.600000*%
%TD*%
G04 APERTURE END LIST*
D10*
X276581139Y-194918862D02*
G75*
G02*
X273418861Y-194918862I-1581139J0D01*
G01*
X273418861Y-194918862D02*
G75*
G02*
X276581139Y-194918862I1581139J0D01*
G01*
X226500001Y-195000000D02*
G75*
G02*
X223337723Y-195000000I-1581139J0D01*
G01*
X223337723Y-195000000D02*
G75*
G02*
X226500001Y-195000000I1581139J0D01*
G01*
X476581139Y-194918862D02*
G75*
G02*
X473418861Y-194918862I-1581139J0D01*
G01*
X473418861Y-194918862D02*
G75*
G02*
X476581139Y-194918862I1581139J0D01*
G01*
X426581139Y-194918862D02*
G75*
G02*
X423418861Y-194918862I-1581139J0D01*
G01*
X423418861Y-194918862D02*
G75*
G02*
X426581139Y-194918862I1581139J0D01*
G01*
X176581139Y-144918862D02*
G75*
G02*
X173418861Y-144918862I-1581139J0D01*
G01*
X173418861Y-144918862D02*
G75*
G02*
X176581139Y-144918862I1581139J0D01*
G01*
X176500001Y-195000000D02*
G75*
G02*
X173337723Y-195000000I-1581139J0D01*
G01*
X173337723Y-195000000D02*
G75*
G02*
X176500001Y-195000000I1581139J0D01*
G01*
X126500001Y-195000000D02*
G75*
G02*
X123337723Y-195000000I-1581139J0D01*
G01*
X123337723Y-195000000D02*
G75*
G02*
X126500001Y-195000000I1581139J0D01*
G01*
X226581139Y-144918862D02*
G75*
G02*
X223418861Y-144918862I-1581139J0D01*
G01*
X223418861Y-144918862D02*
G75*
G02*
X226581139Y-144918862I1581139J0D01*
G01*
D11*
%TO.N,hall7*%
X426581139Y-144918862D02*
G75*
G02*
X423418861Y-144918862I-1581139J0D01*
G01*
X423418861Y-144918862D02*
G75*
G02*
X426581139Y-144918862I1581139J0D01*
G01*
D10*
X126581139Y-145000000D02*
G75*
G02*
X123418861Y-145000000I-1581139J0D01*
G01*
X123418861Y-145000000D02*
G75*
G02*
X126581139Y-145000000I1581139J0D01*
G01*
X476581139Y-144918862D02*
G75*
G02*
X473418861Y-144918862I-1581139J0D01*
G01*
X473418861Y-144918862D02*
G75*
G02*
X476581139Y-144918862I1581139J0D01*
G01*
D11*
%TO.N,hall6*%
X376581139Y-144918862D02*
G75*
G02*
X373418861Y-144918862I-1581139J0D01*
G01*
X373418861Y-144918862D02*
G75*
G02*
X376581139Y-144918862I1581139J0D01*
G01*
D10*
X326581139Y-194918862D02*
G75*
G02*
X323418861Y-194918862I-1581139J0D01*
G01*
X323418861Y-194918862D02*
G75*
G02*
X326581139Y-194918862I1581139J0D01*
G01*
X376581139Y-194918862D02*
G75*
G02*
X373418861Y-194918862I-1581139J0D01*
G01*
X373418861Y-194918862D02*
G75*
G02*
X376581139Y-194918862I1581139J0D01*
G01*
D11*
%TO.N,hall5*%
X326581139Y-144918862D02*
G75*
G02*
X323418861Y-144918862I-1581139J0D01*
G01*
X323418861Y-144918862D02*
G75*
G02*
X326581139Y-144918862I1581139J0D01*
G01*
%TO.N,hall4*%
X276581139Y-144918862D02*
G75*
G02*
X273418861Y-144918862I-1581139J0D01*
G01*
X273418861Y-144918862D02*
G75*
G02*
X276581139Y-144918862I1581139J0D01*
G01*
%TD*%
D12*
%TO.P,R6,1*%
%TO.N,+3V3*%
X104490000Y-152520000D03*
%TO.P,R6,2*%
%TO.N,Net-(D1-A)*%
X106490000Y-152520000D03*
%TD*%
D13*
%TO.P,U12,1,VCC*%
%TO.N,+3V3*%
X169640000Y-196000000D03*
D14*
%TO.P,U12,2,GND*%
%TO.N,GND*%
X169640000Y-194730000D03*
%TO.P,U12,3,OUT*%
%TO.N,hall10*%
X169640000Y-193460000D03*
%TD*%
D15*
%TO.P,C19,1*%
%TO.N,+3V3*%
X158212500Y-173780000D03*
%TO.P,C19,2*%
%TO.N,GND*%
X160287500Y-173780000D03*
%TD*%
D16*
%TO.P,C6,1*%
%TO.N,+3V3*%
X281050000Y-140937500D03*
%TO.P,C6,2*%
%TO.N,GND*%
X281050000Y-138862500D03*
%TD*%
D13*
%TO.P,U1,1,VCC*%
%TO.N,+3V3*%
X130640000Y-143730000D03*
D14*
%TO.P,U1,2,GND*%
%TO.N,GND*%
X130640000Y-145000000D03*
%TO.P,U1,3,OUT*%
%TO.N,hall1*%
X130640000Y-146270000D03*
%TD*%
D13*
%TO.P,U8,1,VCC*%
%TO.N,+3V3*%
X429640000Y-144230000D03*
D14*
%TO.P,U8,2,GND*%
%TO.N,GND*%
X429640000Y-145500000D03*
%TO.P,U8,3,OUT*%
%TO.N,hall7*%
X429640000Y-146770000D03*
%TD*%
D17*
%TO.P,C18,1*%
%TO.N,+3V3*%
X468980000Y-198562500D03*
%TO.P,C18,2*%
%TO.N,GND*%
X468980000Y-200637500D03*
%TD*%
D16*
%TO.P,C7,1*%
%TO.N,+3V3*%
X331030000Y-140937500D03*
%TO.P,C7,2*%
%TO.N,GND*%
X331030000Y-138862500D03*
%TD*%
D17*
%TO.P,C15,1*%
%TO.N,+3V3*%
X318430000Y-198582500D03*
%TO.P,C15,2*%
%TO.N,GND*%
X318430000Y-200657500D03*
%TD*%
D13*
%TO.P,U2,1,VCC*%
%TO.N,+3V3*%
X180000000Y-143730000D03*
D14*
%TO.P,U2,2,GND*%
%TO.N,GND*%
X180000000Y-145000000D03*
%TO.P,U2,3,OUT*%
%TO.N,hall2*%
X180000000Y-146270000D03*
%TD*%
D16*
%TO.P,C8,1*%
%TO.N,+3V3*%
X380220000Y-141617500D03*
%TO.P,C8,2*%
%TO.N,GND*%
X380220000Y-139542500D03*
%TD*%
D13*
%TO.P,U15,1,VCC*%
%TO.N,+3V3*%
X419500000Y-196000000D03*
D14*
%TO.P,U15,2,GND*%
%TO.N,GND*%
X419500000Y-194730000D03*
%TO.P,U15,3,OUT*%
%TO.N,hall15*%
X419500000Y-193460000D03*
%TD*%
D17*
%TO.P,C13,1*%
%TO.N,+3V3*%
X219000000Y-198862500D03*
%TO.P,C13,2*%
%TO.N,GND*%
X219000000Y-200937500D03*
%TD*%
D13*
%TO.P,U6,1,VCC*%
%TO.N,+3V3*%
X331000000Y-143500000D03*
D14*
%TO.P,U6,2,GND*%
%TO.N,GND*%
X331000000Y-144770000D03*
%TO.P,U6,3,OUT*%
%TO.N,hall5*%
X331000000Y-146040000D03*
%TD*%
D13*
%TO.P,U16,1,VCC*%
%TO.N,+3V3*%
X268500000Y-196500000D03*
D14*
%TO.P,U16,2,GND*%
%TO.N,GND*%
X268500000Y-195230000D03*
%TO.P,U16,3,OUT*%
%TO.N,hall12*%
X268500000Y-193960000D03*
%TD*%
D13*
%TO.P,U9,1,VCC*%
%TO.N,+3V3*%
X480730000Y-143860000D03*
D14*
%TO.P,U9,2,GND*%
%TO.N,GND*%
X480730000Y-145130000D03*
%TO.P,U9,3,OUT*%
%TO.N,hall8*%
X480730000Y-146400000D03*
%TD*%
D16*
%TO.P,C9,1*%
%TO.N,+3V3*%
X429730000Y-141717500D03*
%TO.P,C9,2*%
%TO.N,GND*%
X429730000Y-139642500D03*
%TD*%
%TO.P,C4,1*%
%TO.N,+3V3*%
X180040000Y-141157500D03*
%TO.P,C4,2*%
%TO.N,GND*%
X180040000Y-139082500D03*
%TD*%
D13*
%TO.P,U11,1,VCC*%
%TO.N,+3V3*%
X318500000Y-196000000D03*
D14*
%TO.P,U11,2,GND*%
%TO.N,GND*%
X318500000Y-194730000D03*
%TO.P,U11,3,OUT*%
%TO.N,hall13*%
X318500000Y-193460000D03*
%TD*%
D18*
%TO.P,D1,1,K*%
%TO.N,GND*%
X110500000Y-152500000D03*
%TO.P,D1,2,A*%
%TO.N,Net-(D1-A)*%
X108450000Y-152500000D03*
%TD*%
D16*
%TO.P,C3,1*%
%TO.N,+3V3*%
X130720000Y-141157500D03*
%TO.P,C3,2*%
%TO.N,GND*%
X130720000Y-139082500D03*
%TD*%
D13*
%TO.P,U4,1,VCC*%
%TO.N,+3V3*%
X281000000Y-143500000D03*
D14*
%TO.P,U4,2,GND*%
%TO.N,GND*%
X281000000Y-144770000D03*
%TO.P,U4,3,OUT*%
%TO.N,hall4*%
X281000000Y-146040000D03*
%TD*%
D15*
%TO.P,C20,1*%
%TO.N,+3V3*%
X93212500Y-157500000D03*
%TO.P,C20,2*%
%TO.N,GND*%
X95287500Y-157500000D03*
%TD*%
D13*
%TO.P,U7,1,VCC*%
%TO.N,+3V3*%
X380140000Y-144230000D03*
D14*
%TO.P,U7,2,GND*%
%TO.N,GND*%
X380140000Y-145500000D03*
%TO.P,U7,3,OUT*%
%TO.N,hall6*%
X380140000Y-146770000D03*
%TD*%
D17*
%TO.P,C12,1*%
%TO.N,+3V3*%
X169640000Y-198542500D03*
%TO.P,C12,2*%
%TO.N,GND*%
X169640000Y-200617500D03*
%TD*%
D19*
%TO.P,J4,1,Pin_1*%
%TO.N,GND*%
X91250000Y-169500000D03*
D20*
%TO.P,J4,2,Pin_2*%
%TO.N,MUX4*%
X91250000Y-168000000D03*
%TO.P,J4,3,Pin_3*%
%TO.N,MUX3*%
X91250000Y-166500000D03*
%TO.P,J4,4,Pin_4*%
%TO.N,MUX2*%
X91250000Y-165000000D03*
%TO.P,J4,5,Pin_5*%
%TO.N,MUX1*%
X91250000Y-163500000D03*
%TO.P,J4,6,Pin_6*%
%TO.N,Output*%
X91250000Y-162000000D03*
%TO.P,J4,7,Pin_7*%
%TO.N,+3V3*%
X91250000Y-160500000D03*
%TD*%
D13*
%TO.P,U10,1,VCC*%
%TO.N,+3V3*%
X118000000Y-196500000D03*
D14*
%TO.P,U10,2,GND*%
%TO.N,GND*%
X118000000Y-195230000D03*
%TO.P,U10,3,OUT*%
%TO.N,hall9*%
X118000000Y-193960000D03*
%TD*%
D16*
%TO.P,C5,1*%
%TO.N,+3V3*%
X231110000Y-141207500D03*
%TO.P,C5,2*%
%TO.N,GND*%
X231110000Y-139132500D03*
%TD*%
D17*
%TO.P,C16,1*%
%TO.N,+3V3*%
X369070000Y-199062500D03*
%TO.P,C16,2*%
%TO.N,GND*%
X369070000Y-201137500D03*
%TD*%
D21*
%TO.P,U5,1,COM*%
%TO.N,Output*%
X155985000Y-164350000D03*
%TO.P,U5,2,I7*%
%TO.N,hall8*%
X154715000Y-164350000D03*
%TO.P,U5,3,I6*%
%TO.N,hall7*%
X153445000Y-164350000D03*
%TO.P,U5,4,I5*%
%TO.N,hall6*%
X152175000Y-164350000D03*
%TO.P,U5,5,I4*%
%TO.N,hall5*%
X150905000Y-164350000D03*
%TO.P,U5,6,I3*%
%TO.N,hall4*%
X149635000Y-164350000D03*
%TO.P,U5,7,I2*%
%TO.N,hall3*%
X148365000Y-164350000D03*
%TO.P,U5,8,I1*%
%TO.N,hall2*%
X147095000Y-164350000D03*
%TO.P,U5,9,I0*%
%TO.N,hall1*%
X145825000Y-164350000D03*
%TO.P,U5,10,S0*%
%TO.N,MUX1*%
X144555000Y-164350000D03*
%TO.P,U5,11,S1*%
%TO.N,MUX2*%
X143285000Y-164350000D03*
%TO.P,U5,12,GND*%
%TO.N,GND*%
X142015000Y-164350000D03*
%TO.P,U5,13,S3*%
%TO.N,MUX4*%
X142015000Y-173650000D03*
%TO.P,U5,14,S2*%
%TO.N,MUX3*%
X143285000Y-173650000D03*
%TO.P,U5,15,~{E}*%
%TO.N,Net-(U5-~{E})*%
X144555000Y-173650000D03*
%TO.P,U5,16,I15*%
%TO.N,hall16*%
X145825000Y-173650000D03*
%TO.P,U5,17,I14*%
%TO.N,hall15*%
X147095000Y-173650000D03*
%TO.P,U5,18,I13*%
%TO.N,hall14*%
X148365000Y-173650000D03*
%TO.P,U5,19,I12*%
%TO.N,hall13*%
X149635000Y-173650000D03*
%TO.P,U5,20,I11*%
%TO.N,hall12*%
X150905000Y-173650000D03*
%TO.P,U5,21,I10*%
%TO.N,hall11*%
X152175000Y-173650000D03*
%TO.P,U5,22,I9*%
%TO.N,hall10*%
X153445000Y-173650000D03*
%TO.P,U5,23,I8*%
%TO.N,hall9*%
X154715000Y-173650000D03*
%TO.P,U5,24,VCC*%
%TO.N,+3V3*%
X155985000Y-173650000D03*
%TD*%
D13*
%TO.P,U13,1,VCC*%
%TO.N,+3V3*%
X369000000Y-196540000D03*
D14*
%TO.P,U13,2,GND*%
%TO.N,GND*%
X369000000Y-195270000D03*
%TO.P,U13,3,OUT*%
%TO.N,hall14*%
X369000000Y-194000000D03*
%TD*%
D13*
%TO.P,U14,1,VCC*%
%TO.N,+3V3*%
X219000000Y-196270000D03*
D14*
%TO.P,U14,2,GND*%
%TO.N,GND*%
X219000000Y-195000000D03*
%TO.P,U14,3,OUT*%
%TO.N,hall11*%
X219000000Y-193730000D03*
%TD*%
D15*
%TO.P,C22,1*%
%TO.N,+3V3*%
X158212500Y-176000000D03*
%TO.P,C22,2*%
%TO.N,GND*%
X160287500Y-176000000D03*
%TD*%
%TO.P,C21,1*%
%TO.N,+3V3*%
X93212500Y-155250000D03*
%TO.P,C21,2*%
%TO.N,GND*%
X95287500Y-155250000D03*
%TD*%
D16*
%TO.P,C10,1*%
%TO.N,+3V3*%
X480660000Y-141377500D03*
%TO.P,C10,2*%
%TO.N,GND*%
X480660000Y-139302500D03*
%TD*%
D17*
%TO.P,C14,1*%
%TO.N,+3V3*%
X268520000Y-199022500D03*
%TO.P,C14,2*%
%TO.N,GND*%
X268520000Y-201097500D03*
%TD*%
D13*
%TO.P,U17,1,VCC*%
%TO.N,+3V3*%
X469000000Y-196000000D03*
D14*
%TO.P,U17,2,GND*%
%TO.N,GND*%
X469000000Y-194730000D03*
%TO.P,U17,3,OUT*%
%TO.N,hall16*%
X469000000Y-193460000D03*
%TD*%
D17*
%TO.P,C17,1*%
%TO.N,+3V3*%
X419380000Y-198582500D03*
%TO.P,C17,2*%
%TO.N,GND*%
X419380000Y-200657500D03*
%TD*%
%TO.P,C11,1*%
%TO.N,+3V3*%
X117900000Y-199052500D03*
%TO.P,C11,2*%
%TO.N,GND*%
X117900000Y-201127500D03*
%TD*%
D13*
%TO.P,U3,1,VCC*%
%TO.N,+3V3*%
X231140000Y-143730000D03*
D14*
%TO.P,U3,2,GND*%
%TO.N,GND*%
X231140000Y-145000000D03*
%TO.P,U3,3,OUT*%
%TO.N,hall3*%
X231140000Y-146270000D03*
%TD*%
D22*
%TO.P,R1,1*%
%TO.N,Net-(U5-~{E})*%
X144500000Y-177750000D03*
%TO.P,R1,2*%
%TO.N,GND*%
X142500000Y-177750000D03*
%TD*%
D23*
%TO.N,GND*%
X410000000Y-215000000D03*
X330000000Y-195000000D03*
X310000000Y-135000000D03*
X349450000Y-144250000D03*
X120000000Y-215000000D03*
X400000000Y-165000000D03*
X400000000Y-215000000D03*
X510000000Y-155000000D03*
X280000000Y-125000000D03*
X450000000Y-125000000D03*
X310000000Y-195000000D03*
X90000000Y-185000000D03*
X510000000Y-145000000D03*
X500000000Y-125000000D03*
X320000000Y-165000000D03*
X450000000Y-205000000D03*
X94960000Y-166220000D03*
X240000000Y-135000000D03*
X430000000Y-135000000D03*
X340000000Y-215000000D03*
X209850000Y-173000000D03*
X100000000Y-205000000D03*
X119550000Y-176350000D03*
X410000000Y-185000000D03*
X470000000Y-135000000D03*
X370000000Y-185000000D03*
X360000000Y-205000000D03*
X330000000Y-205000000D03*
X289750000Y-173250000D03*
X359450000Y-153150000D03*
X120000000Y-135000000D03*
X409450000Y-153150000D03*
X500000000Y-185000000D03*
X140000000Y-135000000D03*
X106581139Y-145000000D03*
X200000000Y-205000000D03*
X520000000Y-185000000D03*
X142350000Y-152900000D03*
X90000000Y-125000000D03*
X219750000Y-169050000D03*
X309450000Y-144250000D03*
X460000000Y-165000000D03*
X330000000Y-125000000D03*
X500000000Y-135000000D03*
X439450000Y-153150000D03*
X90000000Y-205000000D03*
X420000000Y-125000000D03*
X289600000Y-177200000D03*
X460000000Y-205000000D03*
X340000000Y-125000000D03*
X299450000Y-144250000D03*
X280050000Y-169050000D03*
X140000000Y-215000000D03*
X240000000Y-164150000D03*
X132350000Y-152900000D03*
X429450000Y-153150000D03*
X520000000Y-125000000D03*
X190000000Y-135000000D03*
X210000000Y-185000000D03*
X350000000Y-205000000D03*
X299450000Y-153150000D03*
X430000000Y-175000000D03*
X150000000Y-195000000D03*
X120000000Y-125000000D03*
X210000000Y-125000000D03*
X520000000Y-175000000D03*
X150000000Y-205000000D03*
X152350000Y-152900000D03*
X510000000Y-195000000D03*
X250000000Y-180000000D03*
X150000000Y-215000000D03*
X170000000Y-125000000D03*
X131450000Y-144918862D03*
X399450000Y-144250000D03*
X349450000Y-153150000D03*
X410100000Y-169250000D03*
X290000000Y-185000000D03*
X161450000Y-144918862D03*
X460000000Y-195000000D03*
X80000000Y-215000000D03*
X370000000Y-135000000D03*
X470000000Y-165000000D03*
X230000000Y-180000000D03*
X162350000Y-152900000D03*
X520000000Y-145000000D03*
X510000000Y-125000000D03*
X79550000Y-176350000D03*
X110000000Y-215000000D03*
X380000000Y-185000000D03*
X180100000Y-164000000D03*
X440000000Y-205000000D03*
X380000000Y-135000000D03*
X260000000Y-177100000D03*
X80000000Y-125000000D03*
X510000000Y-205000000D03*
X380000000Y-125000000D03*
X480000000Y-165000000D03*
X279450000Y-153150000D03*
X269450000Y-153150000D03*
X190000000Y-195000000D03*
X90000000Y-135000000D03*
X470000000Y-215000000D03*
X400000000Y-175000000D03*
X80000000Y-135000000D03*
X260000000Y-195000000D03*
X369450000Y-153150000D03*
X340000000Y-195000000D03*
X100000000Y-215000000D03*
X240000000Y-180000000D03*
X140000000Y-205000000D03*
X450000000Y-185000000D03*
X239850000Y-173000000D03*
X200000000Y-195000000D03*
X480000000Y-215000000D03*
X280000000Y-177100000D03*
X150000000Y-185000000D03*
X120100000Y-164750000D03*
X110000000Y-135000000D03*
X420000000Y-165000000D03*
X140000000Y-195000000D03*
X469450000Y-153150000D03*
X380000000Y-175000000D03*
X250000000Y-164150000D03*
X259850000Y-173000000D03*
X280000000Y-205000000D03*
X260000000Y-135000000D03*
X269750000Y-169050000D03*
X350100000Y-169250000D03*
X490000000Y-175000000D03*
X520000000Y-215000000D03*
X489450000Y-144250000D03*
X249850000Y-173000000D03*
X280000000Y-215000000D03*
X180000000Y-125000000D03*
X270000000Y-215000000D03*
X420000000Y-185000000D03*
X340050000Y-169050000D03*
X140000000Y-125000000D03*
X419450000Y-153150000D03*
X390000000Y-195000000D03*
X230000000Y-135000000D03*
X140000000Y-185000000D03*
X440000000Y-165000000D03*
X269700000Y-145550000D03*
X139550000Y-176350000D03*
X330050000Y-169050000D03*
X289450000Y-144250000D03*
X510000000Y-175000000D03*
X80000000Y-195000000D03*
X270000000Y-185000000D03*
X330000000Y-185000000D03*
X240000000Y-176400000D03*
X410000000Y-175000000D03*
X419450000Y-144250000D03*
X430000000Y-165000000D03*
X190000000Y-215000000D03*
X340000000Y-185000000D03*
X490000000Y-205000000D03*
X470000000Y-175000000D03*
X370000000Y-175000000D03*
X260000000Y-205000000D03*
X259750000Y-169050000D03*
X370000000Y-165000000D03*
X150000000Y-125000000D03*
X500000000Y-155000000D03*
X100000000Y-195000000D03*
X102650000Y-157600000D03*
X270000000Y-205000000D03*
X360000000Y-195000000D03*
X360000000Y-175000000D03*
X180000000Y-176400000D03*
X100000000Y-125000000D03*
X96581139Y-145000000D03*
X250000000Y-125000000D03*
X229450000Y-153150000D03*
X420000000Y-175000000D03*
X89550000Y-176350000D03*
X80000000Y-143250000D03*
X160000000Y-125000000D03*
X329450000Y-153150000D03*
X160000000Y-185000000D03*
X209750000Y-169050000D03*
X170000000Y-135000000D03*
X399450000Y-153150000D03*
X330050000Y-173350000D03*
X360000000Y-135000000D03*
X180000000Y-195000000D03*
X320050000Y-169050000D03*
X190000000Y-125000000D03*
X459450000Y-153150000D03*
X290000000Y-125000000D03*
X390000000Y-205000000D03*
X309450000Y-153150000D03*
X230000000Y-205000000D03*
X520000000Y-155000000D03*
X220000000Y-176400000D03*
X360100000Y-169250000D03*
X200000000Y-176400000D03*
X389450000Y-144250000D03*
X359450000Y-144250000D03*
X350000000Y-165000000D03*
X500000000Y-195000000D03*
X260000000Y-125000000D03*
X390000000Y-185000000D03*
X260000000Y-164150000D03*
X339450000Y-153150000D03*
X279750000Y-173250000D03*
X250000000Y-177100000D03*
X390100000Y-169250000D03*
X239750000Y-169050000D03*
X202350000Y-152900000D03*
X460000000Y-175000000D03*
X500000000Y-145000000D03*
X109550000Y-176350000D03*
X500000000Y-215000000D03*
X450000000Y-135000000D03*
X390000000Y-165000000D03*
X360000000Y-165000000D03*
X319450000Y-153150000D03*
X200000000Y-215000000D03*
X170100000Y-164000000D03*
X440000000Y-135000000D03*
X180000000Y-135000000D03*
X380000000Y-195000000D03*
X310050000Y-169050000D03*
X439450000Y-144250000D03*
X219450000Y-153150000D03*
X350000000Y-185000000D03*
X370000000Y-125000000D03*
X230000000Y-185000000D03*
X170000000Y-205000000D03*
X330000000Y-165000000D03*
X80000000Y-205000000D03*
X339450000Y-144250000D03*
X470000000Y-185000000D03*
X250000000Y-195000000D03*
X320050000Y-173350000D03*
X510000000Y-215000000D03*
X410000000Y-165000000D03*
X130000000Y-125000000D03*
X200000000Y-180000000D03*
X390000000Y-175000000D03*
X230000000Y-125000000D03*
X380000000Y-165000000D03*
X239700000Y-145550000D03*
X249700000Y-145550000D03*
X520000000Y-165000000D03*
X240000000Y-195000000D03*
X380000000Y-215000000D03*
X200000000Y-135000000D03*
X160000000Y-205000000D03*
X249450000Y-153150000D03*
X450000000Y-215000000D03*
X410000000Y-205000000D03*
X270000000Y-177100000D03*
X510000000Y-135000000D03*
X440000000Y-185000000D03*
X360000000Y-125000000D03*
X190000000Y-205000000D03*
X450000000Y-165000000D03*
X200300000Y-145850000D03*
X310000000Y-205000000D03*
X138200000Y-164350000D03*
X210000000Y-180000000D03*
X320000000Y-185000000D03*
X410000000Y-195000000D03*
X350000000Y-195000000D03*
X220000000Y-125000000D03*
X350000000Y-125000000D03*
X310000000Y-215000000D03*
X420000000Y-135000000D03*
X340050000Y-173350000D03*
X143800000Y-169200000D03*
X299750000Y-173250000D03*
X469450000Y-144250000D03*
X369450000Y-144250000D03*
X490000000Y-165000000D03*
X400100000Y-169250000D03*
X430000000Y-185000000D03*
X220000000Y-205000000D03*
X269750000Y-173250000D03*
X192350000Y-152900000D03*
X250000000Y-215000000D03*
X490000000Y-185000000D03*
X110000000Y-205000000D03*
X110000000Y-185000000D03*
X270000000Y-195000000D03*
X240000000Y-205000000D03*
X200000000Y-125000000D03*
X350000000Y-215000000D03*
X309600000Y-177200000D03*
X270000000Y-135000000D03*
X229750000Y-169050000D03*
X490000000Y-195000000D03*
X480000000Y-185000000D03*
X240000000Y-125000000D03*
X510000000Y-185000000D03*
X430000000Y-195000000D03*
X480000000Y-195000000D03*
X300050000Y-169050000D03*
X220000000Y-195000000D03*
X80500000Y-165850000D03*
X210000000Y-215000000D03*
X220300000Y-145850000D03*
X210000000Y-176400000D03*
X130000000Y-195000000D03*
X250000000Y-205000000D03*
X88650000Y-143900000D03*
X239450000Y-153150000D03*
X141450000Y-144918862D03*
X210100000Y-164000000D03*
X330000000Y-135000000D03*
X320000000Y-205000000D03*
X290000000Y-205000000D03*
X440000000Y-125000000D03*
X349950000Y-177700000D03*
X280000000Y-195000000D03*
X290000000Y-215000000D03*
X299600000Y-177200000D03*
X329950000Y-177700000D03*
X180000000Y-205000000D03*
X319600000Y-177200000D03*
X229850000Y-173000000D03*
X230000000Y-164150000D03*
X130000000Y-185000000D03*
X390000000Y-125000000D03*
X160000000Y-135000000D03*
X249750000Y-169050000D03*
X120000000Y-205000000D03*
X440000000Y-215000000D03*
X210300000Y-145850000D03*
X490000000Y-215000000D03*
X370000000Y-205000000D03*
X490000000Y-125000000D03*
X199850000Y-173000000D03*
X240000000Y-185000000D03*
X300000000Y-215000000D03*
X210000000Y-135000000D03*
X510000000Y-165000000D03*
X489450000Y-153150000D03*
X479450000Y-153150000D03*
X190000000Y-176400000D03*
X120000000Y-185000000D03*
X430000000Y-215000000D03*
X99550000Y-176350000D03*
X130000000Y-215000000D03*
X102350000Y-164650000D03*
X100000000Y-185000000D03*
X420000000Y-215000000D03*
X370100000Y-169250000D03*
X90000000Y-215000000D03*
X370000000Y-215000000D03*
X340000000Y-165000000D03*
X175000000Y-185193338D03*
X400000000Y-125000000D03*
X500000000Y-175000000D03*
X300000000Y-185000000D03*
X390000000Y-135000000D03*
X280000000Y-185000000D03*
X172350000Y-152900000D03*
X290000000Y-135000000D03*
X289450000Y-153150000D03*
X80000000Y-185000000D03*
X380000000Y-205000000D03*
X129550000Y-176350000D03*
X320000000Y-135000000D03*
X339950000Y-177700000D03*
X400000000Y-195000000D03*
X259700000Y-145550000D03*
X360000000Y-215000000D03*
X160000000Y-195000000D03*
X500000000Y-165000000D03*
X430000000Y-205000000D03*
X480000000Y-135000000D03*
X400000000Y-205000000D03*
X182350000Y-152900000D03*
X130000000Y-135000000D03*
X280000000Y-164150000D03*
X450000000Y-195000000D03*
X110000000Y-195000000D03*
X190000000Y-180000000D03*
X230000000Y-215000000D03*
X151450000Y-144918862D03*
X470000000Y-205000000D03*
X310000000Y-125000000D03*
X290000000Y-195000000D03*
X160000000Y-215000000D03*
X470000000Y-125000000D03*
X220000000Y-180000000D03*
X260000000Y-215000000D03*
X449450000Y-153150000D03*
X240000000Y-215000000D03*
X190000000Y-185000000D03*
X220100000Y-164000000D03*
X180000000Y-215000000D03*
X290000000Y-164150000D03*
X200000000Y-185000000D03*
X389450000Y-153150000D03*
X90000000Y-195000000D03*
X340000000Y-205000000D03*
X440000000Y-175000000D03*
X210000000Y-205000000D03*
X410000000Y-135000000D03*
X230000000Y-195000000D03*
X520000000Y-195000000D03*
X480000000Y-175000000D03*
X250000000Y-185000000D03*
X520000000Y-205000000D03*
X300000000Y-205000000D03*
X520000000Y-135000000D03*
X460000000Y-125000000D03*
X190300000Y-145850000D03*
X300000000Y-135000000D03*
X280000000Y-135000000D03*
X259450000Y-153150000D03*
X449450000Y-144250000D03*
X160100000Y-164000000D03*
X340000000Y-135000000D03*
X350000000Y-135000000D03*
X220000000Y-135000000D03*
X319450000Y-144250000D03*
X460000000Y-215000000D03*
X138250000Y-168750000D03*
X300000000Y-125000000D03*
X250000000Y-135000000D03*
X259878038Y-180000000D03*
X120700000Y-157250000D03*
X220000000Y-185000000D03*
X270000000Y-164150000D03*
X460000000Y-135000000D03*
X409450000Y-144250000D03*
X490000000Y-135000000D03*
X310050000Y-173350000D03*
X110000000Y-125000000D03*
X480000000Y-205000000D03*
X219850000Y-173000000D03*
X500000000Y-205000000D03*
X390000000Y-215000000D03*
X420000000Y-205000000D03*
X320000000Y-125000000D03*
X400000000Y-135000000D03*
X130000000Y-205000000D03*
X150000000Y-135000000D03*
X459450000Y-144250000D03*
X290050000Y-169050000D03*
X320000000Y-215000000D03*
X430000000Y-125000000D03*
X210000000Y-195000000D03*
X80000000Y-153250000D03*
X190100000Y-164000000D03*
X410000000Y-125000000D03*
X379450000Y-153150000D03*
X330000000Y-215000000D03*
X380100000Y-169250000D03*
X440000000Y-195000000D03*
X270000000Y-125000000D03*
X220000000Y-215000000D03*
X300000000Y-195000000D03*
X480000000Y-125000000D03*
X170000000Y-215000000D03*
X100000000Y-135000000D03*
X116581139Y-145000000D03*
X400000000Y-185000000D03*
X230000000Y-176400000D03*
X200100000Y-164000000D03*
%TO.N,MUX2*%
X96750000Y-163500000D03*
%TO.N,MUX1*%
X96250000Y-162500000D03*
%TD*%
D11*
%TO.N,hall4*%
X149635000Y-164350000D02*
X149635000Y-163615000D01*
X149635000Y-163615000D02*
X159000000Y-154250000D01*
X159000000Y-154250000D02*
X272790000Y-154250000D01*
X272790000Y-154250000D02*
X281000000Y-146040000D01*
%TO.N,hall10*%
X154070001Y-172000000D02*
X162250000Y-172000000D01*
X162250000Y-172000000D02*
X169640000Y-179390000D01*
X154070001Y-172000000D02*
X153445000Y-172625001D01*
X169640000Y-179390000D02*
X169640000Y-193460000D01*
X153445000Y-172625001D02*
X153445000Y-173650000D01*
%TO.N,hall12*%
X152926001Y-170604000D02*
X150905000Y-172625001D01*
X172354000Y-170604000D02*
X152926001Y-170604000D01*
X268500000Y-193960000D02*
X268210000Y-193960000D01*
X150905000Y-172625001D02*
X150905000Y-173650000D01*
X257750000Y-183500000D02*
X185250000Y-183500000D01*
X185250000Y-183500000D02*
X172354000Y-170604000D01*
X268210000Y-193960000D02*
X257750000Y-183500000D01*
%TO.N,hall14*%
X369000000Y-194000000D02*
X350000000Y-175000000D01*
X190250000Y-175000000D02*
X184000000Y-168750000D01*
X148365000Y-172625001D02*
X148365000Y-173650000D01*
X184000000Y-168750000D02*
X152240001Y-168750000D01*
X152240001Y-168750000D02*
X148365000Y-172625001D01*
X350000000Y-175000000D02*
X190250000Y-175000000D01*
%TO.N,hall16*%
X145825000Y-172625001D02*
X151700001Y-166750000D01*
X145825000Y-173650000D02*
X145825000Y-172625001D01*
X442290000Y-166750000D02*
X469000000Y-193460000D01*
X151700001Y-166750000D02*
X442290000Y-166750000D01*
%TO.N,hall8*%
X156250000Y-162000000D02*
X154715000Y-163535000D01*
X154715000Y-163535000D02*
X154715000Y-164350000D01*
X465130000Y-162000000D02*
X156250000Y-162000000D01*
X480730000Y-146400000D02*
X465130000Y-162000000D01*
%TO.N,hall3*%
X148365000Y-164350000D02*
X148365000Y-163325001D01*
X160690001Y-151000000D02*
X226410000Y-151000000D01*
X148365000Y-163325001D02*
X160690001Y-151000000D01*
X226410000Y-151000000D02*
X231140000Y-146270000D01*
%TO.N,hall7*%
X153445000Y-162805000D02*
X156000000Y-160250000D01*
X156000000Y-160250000D02*
X416160000Y-160250000D01*
X416160000Y-160250000D02*
X429640000Y-146770000D01*
X153445000Y-164350000D02*
X153445000Y-162805000D01*
%TO.N,hall6*%
X368410000Y-158500000D02*
X380140000Y-146770000D01*
X152175000Y-163325001D02*
X157000001Y-158500000D01*
X157000001Y-158500000D02*
X368410000Y-158500000D01*
X152175000Y-164350000D02*
X152175000Y-163325001D01*
%TO.N,hall13*%
X186000000Y-179000000D02*
X176500000Y-169500000D01*
X176500000Y-169500000D02*
X152760001Y-169500000D01*
X304040000Y-179000000D02*
X186000000Y-179000000D01*
X318500000Y-193460000D02*
X304040000Y-179000000D01*
X152760001Y-169500000D02*
X149635000Y-172625001D01*
X149635000Y-172625001D02*
X149635000Y-173650000D01*
%TO.N,hall5*%
X150905000Y-164350000D02*
X150905000Y-163325001D01*
X150905000Y-163325001D02*
X157730001Y-156500000D01*
X157730001Y-156500000D02*
X320000000Y-156500000D01*
X330460000Y-146040000D02*
X331000000Y-146040000D01*
X320000000Y-156500000D02*
X330460000Y-146040000D01*
%TO.N,hall9*%
X143639999Y-185750000D02*
X126210000Y-185750000D01*
X126210000Y-185750000D02*
X118000000Y-193960000D01*
X154715000Y-173650000D02*
X154715000Y-174674999D01*
X154715000Y-174674999D02*
X143639999Y-185750000D01*
%TO.N,hall15*%
X147095000Y-172625001D02*
X147095000Y-173650000D01*
X397790000Y-171750000D02*
X198750000Y-171750000D01*
X419500000Y-193460000D02*
X397790000Y-171750000D01*
X198750000Y-171750000D02*
X195000000Y-168000000D01*
X195000000Y-168000000D02*
X151720001Y-168000000D01*
X151720001Y-168000000D02*
X147095000Y-172625001D01*
%TO.N,hall11*%
X219000000Y-193730000D02*
X188230000Y-193730000D01*
X165701077Y-171201077D02*
X153298923Y-171201077D01*
X152175000Y-172325000D02*
X152175000Y-173650000D01*
X153298923Y-171201077D02*
X152175000Y-172325000D01*
X188230000Y-193730000D02*
X165701077Y-171201077D01*
%TO.N,hall2*%
X180000000Y-146270000D02*
X177270000Y-149000000D01*
X159500000Y-149000000D02*
X147095000Y-161405000D01*
X177270000Y-149000000D02*
X159500000Y-149000000D01*
X147095000Y-161405000D02*
X147095000Y-164350000D01*
%TO.N,hall1*%
X130640000Y-146270000D02*
X145825000Y-161455000D01*
X145825000Y-161455000D02*
X145825000Y-164350000D01*
%TO.N,MUX4*%
X136365000Y-168000000D02*
X142015000Y-173650000D01*
X91250000Y-168000000D02*
X136365000Y-168000000D01*
%TO.N,Output*%
X137967099Y-166740000D02*
X137560999Y-166333900D01*
X96849000Y-166099000D02*
X92750000Y-162000000D01*
X151142901Y-166740000D02*
X137967099Y-166740000D01*
X155985000Y-164350000D02*
X155985000Y-164746968D01*
X155985000Y-164746968D02*
X154382968Y-166349000D01*
X154382968Y-166349000D02*
X151866101Y-166349000D01*
X137560999Y-166333900D02*
X137326099Y-166099000D01*
X151533901Y-166349000D02*
X151299001Y-166583900D01*
X137326099Y-166099000D02*
X136993899Y-166099000D01*
X151866101Y-166349000D02*
X151533901Y-166349000D01*
X92750000Y-162000000D02*
X91250000Y-162000000D01*
X136993899Y-166099000D02*
X96849000Y-166099000D01*
X155985000Y-165374999D02*
X155985000Y-164350000D01*
X151299001Y-166583900D02*
X151142901Y-166740000D01*
%TO.N,MUX3*%
X91250000Y-166500000D02*
X91850000Y-167100000D01*
X137759999Y-167100000D02*
X143285000Y-172625001D01*
X91850000Y-167100000D02*
X137759999Y-167100000D01*
X143285000Y-172625001D02*
X143285000Y-173650000D01*
%TO.N,MUX2*%
X142540984Y-163209016D02*
X142355968Y-163024000D01*
X97226000Y-163024000D02*
X96750000Y-163500000D01*
X142355968Y-163024000D02*
X97226000Y-163024000D01*
X143285000Y-163953032D02*
X142540984Y-163209016D01*
X143285000Y-164350000D02*
X143285000Y-163953032D01*
%TO.N,MUX1*%
X96500000Y-162250000D02*
X96250000Y-162500000D01*
X143479999Y-162250000D02*
X144555000Y-163325001D01*
X143479999Y-162250000D02*
X96500000Y-162250000D01*
X144555000Y-163325001D02*
X144555000Y-164350000D01*
%TO.N,Net-(U5-~{E})*%
X144500000Y-173705000D02*
X144555000Y-173650000D01*
X144500000Y-177750000D02*
X144500000Y-173705000D01*
D24*
%TO.N,+3V3*%
X158212500Y-176000000D02*
X158212500Y-173780000D01*
X88000000Y-178500000D02*
X88000000Y-158750000D01*
X142000000Y-199052500D02*
X158212500Y-182840000D01*
D25*
X218680000Y-198542500D02*
X219000000Y-198862500D01*
X231110000Y-141207500D02*
X280780000Y-141207500D01*
X142000000Y-199052500D02*
X169130000Y-199052500D01*
X318430000Y-198582500D02*
X318430000Y-196070000D01*
D24*
X88000000Y-158750000D02*
X89250000Y-157500000D01*
X93212500Y-152500000D02*
X93212500Y-155250000D01*
X93212500Y-155250000D02*
X92750000Y-155250000D01*
D25*
X430807500Y-141377500D02*
X480660000Y-141377500D01*
X369070000Y-199062500D02*
X418900000Y-199062500D01*
X332367500Y-141617500D02*
X380220000Y-141617500D01*
X219000000Y-196270000D02*
X219000000Y-198862500D01*
X180592500Y-141157500D02*
X180642500Y-141207500D01*
D24*
X158212500Y-182840000D02*
X158212500Y-176000000D01*
D25*
X369070000Y-199062500D02*
X369070000Y-196610000D01*
X118000000Y-196500000D02*
X118000000Y-198952500D01*
X331000000Y-143500000D02*
X331000000Y-140967500D01*
X419380000Y-198582500D02*
X420500000Y-198582500D01*
X480660000Y-143790000D02*
X480730000Y-143860000D01*
D24*
X93212500Y-155250000D02*
X93212500Y-157500000D01*
D25*
X130720000Y-141157500D02*
X130720000Y-143650000D01*
D24*
X88000000Y-178500000D02*
X108552500Y-199052500D01*
D25*
X118000000Y-198952500D02*
X117900000Y-199052500D01*
X281000000Y-143500000D02*
X281000000Y-140987500D01*
X418900000Y-199062500D02*
X419380000Y-198582500D01*
X429730000Y-141717500D02*
X430467500Y-141717500D01*
X180642500Y-141207500D02*
X231110000Y-141207500D01*
X169640000Y-196000000D02*
X169640000Y-198542500D01*
D24*
X158250000Y-173887500D02*
X158142500Y-173780000D01*
D25*
X180040000Y-141157500D02*
X180040000Y-143690000D01*
D24*
X156115000Y-173780000D02*
X155985000Y-173650000D01*
D25*
X331000000Y-140967500D02*
X331030000Y-140937500D01*
D24*
X108552500Y-199052500D02*
X117900000Y-199052500D01*
D25*
X231140000Y-141237500D02*
X231110000Y-141207500D01*
X331030000Y-140937500D02*
X331687500Y-140937500D01*
D24*
X104490000Y-152520000D02*
X104490000Y-152509576D01*
X104490000Y-152520000D02*
X93232500Y-152520000D01*
D25*
X281050000Y-140937500D02*
X331030000Y-140937500D01*
X380220000Y-141617500D02*
X380220000Y-144150000D01*
X429730000Y-141717500D02*
X429730000Y-144140000D01*
D24*
X93232500Y-152520000D02*
X93212500Y-152500000D01*
D25*
X480660000Y-141377500D02*
X480660000Y-143790000D01*
X468980000Y-196020000D02*
X469000000Y-196000000D01*
D24*
X158000000Y-176212500D02*
X158212500Y-176000000D01*
X93750000Y-158037500D02*
X93212500Y-157500000D01*
D25*
X318430000Y-198582500D02*
X369667500Y-198582500D01*
X130720000Y-143650000D02*
X130640000Y-143730000D01*
X180040000Y-141157500D02*
X180592500Y-141157500D01*
X130720000Y-141157500D02*
X180040000Y-141157500D01*
D24*
X158142500Y-173780000D02*
X156115000Y-173780000D01*
D25*
X468980000Y-198562500D02*
X468980000Y-196020000D01*
X380220000Y-141617500D02*
X429630000Y-141617500D01*
X419500000Y-196000000D02*
X419500000Y-197582500D01*
X268500000Y-196500000D02*
X268500000Y-199002500D01*
X468960000Y-198582500D02*
X468980000Y-198562500D01*
X420500000Y-198582500D02*
X468960000Y-198582500D01*
D24*
X91250000Y-160500000D02*
X91024659Y-160500000D01*
D25*
X429730000Y-144140000D02*
X429640000Y-144230000D01*
X268520000Y-199022500D02*
X317990000Y-199022500D01*
X231140000Y-143730000D02*
X231140000Y-141237500D01*
D24*
X96092500Y-141157500D02*
X93212500Y-144037500D01*
D25*
X268500000Y-199002500D02*
X268520000Y-199022500D01*
X280780000Y-141207500D02*
X281050000Y-140937500D01*
X369070000Y-196610000D02*
X369000000Y-196540000D01*
X219000000Y-198862500D02*
X268360000Y-198862500D01*
D24*
X93212500Y-149790000D02*
X93212500Y-152500000D01*
D25*
X317990000Y-199022500D02*
X318430000Y-198582500D01*
X117900000Y-199052500D02*
X142000000Y-199052500D01*
X281000000Y-140987500D02*
X281050000Y-140937500D01*
D24*
X104437500Y-152572500D02*
X104490000Y-152520000D01*
D25*
X318430000Y-196070000D02*
X318500000Y-196000000D01*
X180040000Y-143690000D02*
X180000000Y-143730000D01*
X430467500Y-141717500D02*
X430807500Y-141377500D01*
X268360000Y-198862500D02*
X268520000Y-199022500D01*
D24*
X89250000Y-157500000D02*
X93212500Y-157500000D01*
D25*
X331687500Y-140937500D02*
X332367500Y-141617500D01*
X419500000Y-197582500D02*
X420500000Y-198582500D01*
D24*
X130720000Y-141157500D02*
X96092500Y-141157500D01*
D25*
X169640000Y-198542500D02*
X218680000Y-198542500D01*
X380220000Y-144150000D02*
X380140000Y-144230000D01*
D24*
X93212500Y-149790000D02*
X93212500Y-144037500D01*
D25*
X169130000Y-199052500D02*
X169640000Y-198542500D01*
X429630000Y-141617500D02*
X429730000Y-141717500D01*
D24*
X93750000Y-158037500D02*
X93712500Y-158037500D01*
D11*
%TO.N,Net-(D1-A)*%
X108430000Y-152520000D02*
X108450000Y-152500000D01*
X106490000Y-152520000D02*
X108430000Y-152520000D01*
%TD*%
%TA.AperFunction,Conductor*%
%TO.N,+3V3*%
G36*
X94175500Y-149769962D02*
G01*
X94230038Y-149824500D01*
X94250000Y-149899000D01*
X94250000Y-161101000D01*
X94230038Y-161175500D01*
X94175500Y-161230038D01*
X94101000Y-161250000D01*
X91610434Y-161250000D01*
X91553415Y-161238658D01*
X91489040Y-161211993D01*
X91489036Y-161211992D01*
X91330714Y-161180500D01*
X91169286Y-161180500D01*
X91010963Y-161211992D01*
X91010959Y-161211993D01*
X90946585Y-161238658D01*
X90889566Y-161250000D01*
X86399000Y-161250000D01*
X86324500Y-161230038D01*
X86269962Y-161175500D01*
X86250000Y-161101000D01*
X86250000Y-149899000D01*
X86269962Y-149824500D01*
X86324500Y-149769962D01*
X86399000Y-149750000D01*
X94101000Y-149750000D01*
X94175500Y-149769962D01*
G37*
%TD.AperFunction*%
%TD*%
%TA.AperFunction,Conductor*%
%TO.N,GND*%
G36*
X522159163Y-120454845D02*
G01*
X522174842Y-120454845D01*
X522187527Y-120464061D01*
X522202442Y-120468907D01*
X522211658Y-120481592D01*
X522224343Y-120490808D01*
X522229188Y-120505720D01*
X522238406Y-120518407D01*
X522238406Y-120534087D01*
X522243251Y-120548998D01*
X522238406Y-120563910D01*
X522238406Y-120579593D01*
X522224345Y-120607190D01*
X522217160Y-120617078D01*
X522130865Y-120786443D01*
X522130863Y-120786446D01*
X522072128Y-120967212D01*
X522072127Y-120967216D01*
X522042393Y-121154955D01*
X522042393Y-121345044D01*
X522072127Y-121532783D01*
X522072128Y-121532787D01*
X522130863Y-121713553D01*
X522130865Y-121713556D01*
X522130866Y-121713559D01*
X522130867Y-121713560D01*
X522217162Y-121882924D01*
X522328889Y-122036703D01*
X522463297Y-122171111D01*
X522617076Y-122282838D01*
X522786440Y-122369133D01*
X522786442Y-122369133D01*
X522786443Y-122369134D01*
X522786446Y-122369136D01*
X522967212Y-122427871D01*
X522967216Y-122427872D01*
X523154956Y-122457607D01*
X523154959Y-122457607D01*
X523345044Y-122457607D01*
X523532783Y-122427872D01*
X523532787Y-122427871D01*
X523713553Y-122369136D01*
X523713555Y-122369134D01*
X523713560Y-122369133D01*
X523882924Y-122282838D01*
X524036703Y-122171111D01*
X524036705Y-122171108D01*
X524039850Y-122168824D01*
X524040401Y-122169582D01*
X524093218Y-122147695D01*
X524152715Y-122161970D01*
X524192458Y-122208489D01*
X524200000Y-122246389D01*
X524200000Y-217193555D01*
X524181093Y-217251746D01*
X524131593Y-217287710D01*
X524098931Y-217291582D01*
X524098931Y-217292393D01*
X523904956Y-217292393D01*
X523717216Y-217322127D01*
X523717212Y-217322128D01*
X523536446Y-217380863D01*
X523536443Y-217380865D01*
X523367078Y-217467160D01*
X523213298Y-217578888D01*
X523078888Y-217713298D01*
X522967160Y-217867078D01*
X522880865Y-218036443D01*
X522880863Y-218036446D01*
X522822128Y-218217212D01*
X522822127Y-218217216D01*
X522792393Y-218404955D01*
X522792393Y-218431000D01*
X522773486Y-218489191D01*
X522723986Y-218525155D01*
X522693393Y-218530000D01*
X77544227Y-218530000D01*
X77486036Y-218511093D01*
X77450072Y-218461593D01*
X77446446Y-218415513D01*
X77457607Y-218345044D01*
X77457607Y-218154955D01*
X77427872Y-217967216D01*
X77427871Y-217967212D01*
X77369136Y-217786446D01*
X77369134Y-217786443D01*
X77369133Y-217786442D01*
X77369133Y-217786440D01*
X77282838Y-217617076D01*
X77171111Y-217463297D01*
X77036703Y-217328889D01*
X76882924Y-217217162D01*
X76882923Y-217217161D01*
X76882921Y-217217160D01*
X76804055Y-217176976D01*
X76760790Y-217133711D01*
X76750000Y-217088766D01*
X76750000Y-161849000D01*
X76768907Y-161790809D01*
X76818407Y-161754845D01*
X76849000Y-161750000D01*
X87300500Y-161750000D01*
X87358691Y-161768907D01*
X87394655Y-161818407D01*
X87399500Y-161849000D01*
X87399500Y-178414863D01*
X87399499Y-178414881D01*
X87399499Y-178420943D01*
X87399499Y-178579057D01*
X87424003Y-178670504D01*
X87440423Y-178731785D01*
X87440424Y-178731787D01*
X87456447Y-178759538D01*
X87456448Y-178759541D01*
X87519478Y-178868713D01*
X87519480Y-178868716D01*
X87631284Y-178980520D01*
X87631286Y-178980521D01*
X108071978Y-199421213D01*
X108071980Y-199421216D01*
X108183784Y-199533020D01*
X108252828Y-199572882D01*
X108320715Y-199612077D01*
X108473442Y-199653000D01*
X108473443Y-199653000D01*
X117009218Y-199653000D01*
X117067409Y-199671907D01*
X117088873Y-199693212D01*
X117102850Y-199712150D01*
X117102851Y-199712152D01*
X117212116Y-199792792D01*
X117212117Y-199792792D01*
X117212118Y-199792793D01*
X117340301Y-199837646D01*
X117370725Y-199840499D01*
X117370727Y-199840500D01*
X117370734Y-199840500D01*
X118429273Y-199840500D01*
X118429273Y-199840499D01*
X118459699Y-199837646D01*
X118587882Y-199792793D01*
X118697150Y-199712150D01*
X118740804Y-199653001D01*
X118782199Y-199596913D01*
X118784004Y-199598245D01*
X118820189Y-199563128D01*
X118863810Y-199553000D01*
X141639365Y-199553000D01*
X141688865Y-199566263D01*
X141722020Y-199585406D01*
X141768211Y-199612075D01*
X141768212Y-199612075D01*
X141768215Y-199612077D01*
X141920943Y-199653001D01*
X141920945Y-199653001D01*
X142079055Y-199653001D01*
X142079057Y-199653001D01*
X142231785Y-199612077D01*
X142311134Y-199566263D01*
X142360635Y-199553000D01*
X169195890Y-199553000D01*
X169195892Y-199553000D01*
X169323186Y-199518892D01*
X169323188Y-199518890D01*
X169323190Y-199518890D01*
X169437309Y-199453003D01*
X169437309Y-199453002D01*
X169437314Y-199453000D01*
X169490818Y-199399496D01*
X169530819Y-199359496D01*
X169585335Y-199331719D01*
X169600822Y-199330500D01*
X170169273Y-199330500D01*
X170169273Y-199330499D01*
X170199699Y-199327646D01*
X170327882Y-199282793D01*
X170437150Y-199202150D01*
X170474600Y-199151407D01*
X170522199Y-199086913D01*
X170524004Y-199088245D01*
X170560189Y-199053128D01*
X170603810Y-199043000D01*
X217975500Y-199043000D01*
X218033691Y-199061907D01*
X218069655Y-199111407D01*
X218074500Y-199142000D01*
X218074500Y-199254274D01*
X218077353Y-199284694D01*
X218077355Y-199284703D01*
X218122207Y-199412883D01*
X218202845Y-199522144D01*
X218202847Y-199522146D01*
X218202850Y-199522150D01*
X218202853Y-199522152D01*
X218202854Y-199522153D01*
X218312116Y-199602792D01*
X218312117Y-199602792D01*
X218312118Y-199602793D01*
X218440301Y-199647646D01*
X218470725Y-199650499D01*
X218470727Y-199650500D01*
X218470734Y-199650500D01*
X219529273Y-199650500D01*
X219529273Y-199650499D01*
X219559699Y-199647646D01*
X219687882Y-199602793D01*
X219797150Y-199522150D01*
X219840802Y-199463003D01*
X219882199Y-199406913D01*
X219884004Y-199408245D01*
X219920189Y-199373128D01*
X219963810Y-199363000D01*
X267499799Y-199363000D01*
X267557990Y-199381907D01*
X267593954Y-199431407D01*
X267596519Y-199440875D01*
X267597355Y-199444703D01*
X267642207Y-199572882D01*
X267642207Y-199572883D01*
X267722845Y-199682144D01*
X267722847Y-199682146D01*
X267722850Y-199682150D01*
X267722853Y-199682152D01*
X267722855Y-199682154D01*
X267832116Y-199762792D01*
X267832117Y-199762792D01*
X267832118Y-199762793D01*
X267960301Y-199807646D01*
X267990725Y-199810499D01*
X267990727Y-199810500D01*
X267990734Y-199810500D01*
X269049273Y-199810500D01*
X269049273Y-199810499D01*
X269079699Y-199807646D01*
X269207882Y-199762793D01*
X269317150Y-199682150D01*
X269368867Y-199612076D01*
X269402199Y-199566913D01*
X269404004Y-199568245D01*
X269440189Y-199533128D01*
X269483810Y-199523000D01*
X318055890Y-199523000D01*
X318055892Y-199523000D01*
X318183186Y-199488892D01*
X318183188Y-199488890D01*
X318183190Y-199488890D01*
X318297309Y-199423003D01*
X318297309Y-199423002D01*
X318297314Y-199423000D01*
X318320819Y-199399494D01*
X318375334Y-199371719D01*
X318390821Y-199370500D01*
X318959273Y-199370500D01*
X318959273Y-199370499D01*
X318989699Y-199367646D01*
X319117882Y-199322793D01*
X319227150Y-199242150D01*
X319259364Y-199198500D01*
X319312199Y-199126913D01*
X319314004Y-199128245D01*
X319350189Y-199093128D01*
X319393810Y-199083000D01*
X368045500Y-199083000D01*
X368103691Y-199101907D01*
X368139655Y-199151407D01*
X368144500Y-199182000D01*
X368144500Y-199454274D01*
X368147353Y-199484694D01*
X368147355Y-199484703D01*
X368192207Y-199612883D01*
X368272845Y-199722144D01*
X368272847Y-199722146D01*
X368272850Y-199722150D01*
X368272853Y-199722152D01*
X368272855Y-199722154D01*
X368382116Y-199802792D01*
X368382117Y-199802792D01*
X368382118Y-199802793D01*
X368510301Y-199847646D01*
X368540725Y-199850499D01*
X368540727Y-199850500D01*
X368540734Y-199850500D01*
X369599273Y-199850500D01*
X369599273Y-199850499D01*
X369629699Y-199847646D01*
X369757882Y-199802793D01*
X369867150Y-199722150D01*
X369922138Y-199647644D01*
X369952199Y-199606913D01*
X369954004Y-199608245D01*
X369990189Y-199573128D01*
X370033810Y-199563000D01*
X418965890Y-199563000D01*
X418965892Y-199563000D01*
X419093186Y-199528892D01*
X419093188Y-199528890D01*
X419093190Y-199528890D01*
X419207309Y-199463003D01*
X419207309Y-199463002D01*
X419207314Y-199463000D01*
X419249101Y-199421213D01*
X419270819Y-199399496D01*
X419325336Y-199371719D01*
X419340822Y-199370500D01*
X419909273Y-199370500D01*
X419909273Y-199370499D01*
X419939699Y-199367646D01*
X420067882Y-199322793D01*
X420177150Y-199242150D01*
X420209364Y-199198500D01*
X420262199Y-199126913D01*
X420264004Y-199128245D01*
X420300189Y-199093128D01*
X420343810Y-199083000D01*
X420434108Y-199083000D01*
X420565893Y-199083000D01*
X468030175Y-199083000D01*
X468088366Y-199101907D01*
X468109830Y-199123212D01*
X468182845Y-199222144D01*
X468182847Y-199222146D01*
X468182850Y-199222150D01*
X468182853Y-199222152D01*
X468182855Y-199222154D01*
X468292116Y-199302792D01*
X468292117Y-199302792D01*
X468292118Y-199302793D01*
X468420301Y-199347646D01*
X468450725Y-199350499D01*
X468450727Y-199350500D01*
X468450734Y-199350500D01*
X469509273Y-199350500D01*
X469509273Y-199350499D01*
X469539699Y-199347646D01*
X469667882Y-199302793D01*
X469777150Y-199222150D01*
X469857793Y-199112882D01*
X469902646Y-198984699D01*
X469905499Y-198954273D01*
X469905500Y-198954273D01*
X469905500Y-198170727D01*
X469905499Y-198170725D01*
X469904522Y-198160305D01*
X469902646Y-198140301D01*
X469857793Y-198012118D01*
X469843032Y-197992118D01*
X469777154Y-197902855D01*
X469777152Y-197902853D01*
X469777150Y-197902850D01*
X469777146Y-197902847D01*
X469777144Y-197902845D01*
X469667883Y-197822207D01*
X469546802Y-197779839D01*
X469498122Y-197742774D01*
X469480500Y-197686395D01*
X469480500Y-196824500D01*
X469499407Y-196766309D01*
X469548907Y-196730345D01*
X469579500Y-196725500D01*
X469769747Y-196725500D01*
X469769748Y-196725500D01*
X469828231Y-196713867D01*
X469894552Y-196669552D01*
X469938867Y-196603231D01*
X469950500Y-196544748D01*
X469950500Y-195455252D01*
X469938867Y-195396769D01*
X469894552Y-195330448D01*
X469858510Y-195306365D01*
X469828233Y-195286134D01*
X469828231Y-195286133D01*
X469828228Y-195286132D01*
X469828227Y-195286132D01*
X469769758Y-195274501D01*
X469769748Y-195274500D01*
X468230252Y-195274500D01*
X468230251Y-195274500D01*
X468230241Y-195274501D01*
X468171772Y-195286132D01*
X468171766Y-195286134D01*
X468105451Y-195330445D01*
X468105445Y-195330451D01*
X468061134Y-195396766D01*
X468061132Y-195396772D01*
X468049501Y-195455241D01*
X468049500Y-195455253D01*
X468049500Y-196544746D01*
X468049501Y-196544758D01*
X468061132Y-196603227D01*
X468061134Y-196603233D01*
X468105445Y-196669548D01*
X468105448Y-196669552D01*
X468171769Y-196713867D01*
X468216231Y-196722711D01*
X468230241Y-196725498D01*
X468230246Y-196725498D01*
X468230252Y-196725500D01*
X468380500Y-196725500D01*
X468438691Y-196744407D01*
X468474655Y-196793907D01*
X468479500Y-196824500D01*
X468479500Y-197686395D01*
X468460593Y-197744586D01*
X468413198Y-197779839D01*
X468292116Y-197822207D01*
X468182855Y-197902845D01*
X468182845Y-197902855D01*
X468102207Y-198012115D01*
X468100954Y-198015699D01*
X468098862Y-198018445D01*
X468098742Y-198018674D01*
X468098704Y-198018653D01*
X468063888Y-198064379D01*
X468007510Y-198082000D01*
X420748322Y-198082000D01*
X420690131Y-198063093D01*
X420678318Y-198053004D01*
X420029496Y-197404182D01*
X420001719Y-197349665D01*
X420000500Y-197334178D01*
X420000500Y-196824500D01*
X420019407Y-196766309D01*
X420068907Y-196730345D01*
X420099500Y-196725500D01*
X420269747Y-196725500D01*
X420269748Y-196725500D01*
X420328231Y-196713867D01*
X420394552Y-196669552D01*
X420438867Y-196603231D01*
X420450500Y-196544748D01*
X420450500Y-195455252D01*
X420438867Y-195396769D01*
X420394552Y-195330448D01*
X420358510Y-195306365D01*
X420328233Y-195286134D01*
X420328231Y-195286133D01*
X420328228Y-195286132D01*
X420328227Y-195286132D01*
X420269758Y-195274501D01*
X420269748Y-195274500D01*
X418730252Y-195274500D01*
X418730251Y-195274500D01*
X418730241Y-195274501D01*
X418671772Y-195286132D01*
X418671766Y-195286134D01*
X418605451Y-195330445D01*
X418605445Y-195330451D01*
X418561134Y-195396766D01*
X418561132Y-195396772D01*
X418549501Y-195455241D01*
X418549500Y-195455253D01*
X418549500Y-196544746D01*
X418549501Y-196544758D01*
X418561132Y-196603227D01*
X418561134Y-196603233D01*
X418605445Y-196669548D01*
X418605448Y-196669552D01*
X418671769Y-196713867D01*
X418716231Y-196722711D01*
X418730241Y-196725498D01*
X418730246Y-196725498D01*
X418730252Y-196725500D01*
X418900500Y-196725500D01*
X418958691Y-196744407D01*
X418994655Y-196793907D01*
X418999500Y-196824500D01*
X418999500Y-197648391D01*
X419005257Y-197669878D01*
X419002054Y-197730980D01*
X418963548Y-197778529D01*
X418909630Y-197794500D01*
X418850725Y-197794500D01*
X418820305Y-197797353D01*
X418820296Y-197797355D01*
X418692116Y-197842207D01*
X418582855Y-197922845D01*
X418582845Y-197922855D01*
X418502207Y-198032116D01*
X418457355Y-198160296D01*
X418457353Y-198160305D01*
X418454500Y-198190725D01*
X418454500Y-198463000D01*
X418435593Y-198521191D01*
X418386093Y-198557155D01*
X418355500Y-198562000D01*
X370256128Y-198562000D01*
X370197937Y-198543093D01*
X370161973Y-198493593D01*
X370160506Y-198488641D01*
X370133892Y-198389314D01*
X370133890Y-198389311D01*
X370133890Y-198389309D01*
X370068003Y-198275190D01*
X370068001Y-198275188D01*
X370068000Y-198275186D01*
X369974814Y-198182000D01*
X369974811Y-198181998D01*
X369974809Y-198181996D01*
X369860689Y-198116109D01*
X369860691Y-198116109D01*
X369811299Y-198102875D01*
X369733392Y-198082000D01*
X369733390Y-198082000D01*
X369669500Y-198082000D01*
X369611309Y-198063093D01*
X369575345Y-198013593D01*
X369570500Y-197983000D01*
X369570500Y-197364500D01*
X369589407Y-197306309D01*
X369638907Y-197270345D01*
X369669500Y-197265500D01*
X369769747Y-197265500D01*
X369769748Y-197265500D01*
X369828231Y-197253867D01*
X369894552Y-197209552D01*
X369938867Y-197143231D01*
X369950500Y-197084748D01*
X369950500Y-195995252D01*
X369938867Y-195936769D01*
X369894552Y-195870448D01*
X369844818Y-195837216D01*
X369828233Y-195826134D01*
X369828231Y-195826133D01*
X369828228Y-195826132D01*
X369828227Y-195826132D01*
X369769758Y-195814501D01*
X369769748Y-195814500D01*
X368230252Y-195814500D01*
X368230251Y-195814500D01*
X368230241Y-195814501D01*
X368171772Y-195826132D01*
X368171766Y-195826134D01*
X368105451Y-195870445D01*
X368105445Y-195870451D01*
X368061134Y-195936766D01*
X368061132Y-195936772D01*
X368049501Y-195995241D01*
X368049500Y-195995253D01*
X368049500Y-197084746D01*
X368049501Y-197084758D01*
X368061132Y-197143227D01*
X368061134Y-197143233D01*
X368105445Y-197209548D01*
X368105448Y-197209552D01*
X368171769Y-197253867D01*
X368216231Y-197262711D01*
X368230241Y-197265498D01*
X368230246Y-197265498D01*
X368230252Y-197265500D01*
X368470500Y-197265500D01*
X368528691Y-197284407D01*
X368564655Y-197333907D01*
X368569500Y-197364500D01*
X368569500Y-197983000D01*
X368550593Y-198041191D01*
X368501093Y-198077155D01*
X368470500Y-198082000D01*
X319393810Y-198082000D01*
X319335619Y-198063093D01*
X319313258Y-198037304D01*
X319312199Y-198038087D01*
X319227154Y-197922855D01*
X319227152Y-197922853D01*
X319227150Y-197922850D01*
X319227146Y-197922847D01*
X319227144Y-197922845D01*
X319117883Y-197842207D01*
X318996802Y-197799839D01*
X318948122Y-197762774D01*
X318930500Y-197706395D01*
X318930500Y-196824500D01*
X318949407Y-196766309D01*
X318998907Y-196730345D01*
X319029500Y-196725500D01*
X319269747Y-196725500D01*
X319269748Y-196725500D01*
X319328231Y-196713867D01*
X319394552Y-196669552D01*
X319438867Y-196603231D01*
X319450500Y-196544748D01*
X319450500Y-195455252D01*
X319438867Y-195396769D01*
X319394552Y-195330448D01*
X319358510Y-195306365D01*
X319328233Y-195286134D01*
X319328231Y-195286133D01*
X319328228Y-195286132D01*
X319328227Y-195286132D01*
X319269758Y-195274501D01*
X319269748Y-195274500D01*
X317730252Y-195274500D01*
X317730251Y-195274500D01*
X317730241Y-195274501D01*
X317671772Y-195286132D01*
X317671766Y-195286134D01*
X317605451Y-195330445D01*
X317605445Y-195330451D01*
X317561134Y-195396766D01*
X317561132Y-195396772D01*
X317549501Y-195455241D01*
X317549500Y-195455253D01*
X317549500Y-196544746D01*
X317549501Y-196544758D01*
X317561132Y-196603227D01*
X317561134Y-196603233D01*
X317605445Y-196669548D01*
X317605448Y-196669552D01*
X317671769Y-196713867D01*
X317716231Y-196722711D01*
X317730241Y-196725498D01*
X317730246Y-196725498D01*
X317730252Y-196725500D01*
X317830500Y-196725500D01*
X317888691Y-196744407D01*
X317924655Y-196793907D01*
X317929500Y-196824500D01*
X317929500Y-197706395D01*
X317910593Y-197764586D01*
X317863198Y-197799839D01*
X317742116Y-197842207D01*
X317632855Y-197922845D01*
X317632845Y-197922855D01*
X317552207Y-198032116D01*
X317507355Y-198160296D01*
X317507353Y-198160305D01*
X317504500Y-198190725D01*
X317504500Y-198423000D01*
X317485593Y-198481191D01*
X317436093Y-198517155D01*
X317405500Y-198522000D01*
X269483810Y-198522000D01*
X269425619Y-198503093D01*
X269403258Y-198477304D01*
X269402199Y-198478087D01*
X269317154Y-198362855D01*
X269317152Y-198362853D01*
X269317150Y-198362850D01*
X269317146Y-198362847D01*
X269317144Y-198362845D01*
X269207883Y-198282207D01*
X269079695Y-198237352D01*
X269078362Y-198237061D01*
X269077616Y-198236625D01*
X269074013Y-198235364D01*
X269074259Y-198234660D01*
X269025550Y-198206165D01*
X269000985Y-198150128D01*
X269000500Y-198140344D01*
X269000500Y-197324500D01*
X269019407Y-197266309D01*
X269068907Y-197230345D01*
X269099500Y-197225500D01*
X269269747Y-197225500D01*
X269269748Y-197225500D01*
X269328231Y-197213867D01*
X269394552Y-197169552D01*
X269438867Y-197103231D01*
X269450500Y-197044748D01*
X269450500Y-195955252D01*
X269438867Y-195896769D01*
X269394552Y-195830448D01*
X269388096Y-195826134D01*
X269328233Y-195786134D01*
X269328231Y-195786133D01*
X269328228Y-195786132D01*
X269328227Y-195786132D01*
X269269758Y-195774501D01*
X269269748Y-195774500D01*
X267730252Y-195774500D01*
X267730251Y-195774500D01*
X267730241Y-195774501D01*
X267671772Y-195786132D01*
X267671766Y-195786134D01*
X267605451Y-195830445D01*
X267605445Y-195830451D01*
X267561134Y-195896766D01*
X267561132Y-195896772D01*
X267549501Y-195955241D01*
X267549500Y-195955253D01*
X267549500Y-197044746D01*
X267549501Y-197044758D01*
X267561132Y-197103227D01*
X267561134Y-197103233D01*
X267587862Y-197143233D01*
X267605448Y-197169552D01*
X267671769Y-197213867D01*
X267716231Y-197222711D01*
X267730241Y-197225498D01*
X267730246Y-197225498D01*
X267730252Y-197225500D01*
X267900500Y-197225500D01*
X267958691Y-197244407D01*
X267994655Y-197293907D01*
X267999500Y-197324500D01*
X267999500Y-198153393D01*
X267980593Y-198211584D01*
X267933198Y-198246837D01*
X267832116Y-198282207D01*
X267750213Y-198342655D01*
X267692166Y-198361997D01*
X267691425Y-198362000D01*
X219963810Y-198362000D01*
X219905619Y-198343093D01*
X219883258Y-198317304D01*
X219882199Y-198318087D01*
X219797154Y-198202855D01*
X219797152Y-198202853D01*
X219797150Y-198202850D01*
X219797146Y-198202847D01*
X219797144Y-198202845D01*
X219687883Y-198122207D01*
X219566802Y-198079839D01*
X219518122Y-198042774D01*
X219500500Y-197986395D01*
X219500500Y-197094500D01*
X219519407Y-197036309D01*
X219568907Y-197000345D01*
X219599500Y-196995500D01*
X219769747Y-196995500D01*
X219769748Y-196995500D01*
X219828231Y-196983867D01*
X219894552Y-196939552D01*
X219938867Y-196873231D01*
X219950500Y-196814748D01*
X219950500Y-195725252D01*
X219938867Y-195666769D01*
X219894552Y-195600448D01*
X219875914Y-195587994D01*
X219828233Y-195556134D01*
X219828231Y-195556133D01*
X219828228Y-195556132D01*
X219828227Y-195556132D01*
X219769758Y-195544501D01*
X219769748Y-195544500D01*
X218230252Y-195544500D01*
X218230251Y-195544500D01*
X218230241Y-195544501D01*
X218171772Y-195556132D01*
X218171766Y-195556134D01*
X218105451Y-195600445D01*
X218105445Y-195600451D01*
X218061134Y-195666766D01*
X218061132Y-195666772D01*
X218049501Y-195725241D01*
X218049500Y-195725253D01*
X218049500Y-196814746D01*
X218049501Y-196814758D01*
X218056401Y-196849443D01*
X218061133Y-196873231D01*
X218105448Y-196939552D01*
X218171769Y-196983867D01*
X218216231Y-196992711D01*
X218230241Y-196995498D01*
X218230246Y-196995498D01*
X218230252Y-196995500D01*
X218400500Y-196995500D01*
X218458691Y-197014407D01*
X218494655Y-197063907D01*
X218499500Y-197094500D01*
X218499500Y-197943000D01*
X218480593Y-198001191D01*
X218431093Y-198037155D01*
X218400500Y-198042000D01*
X170603810Y-198042000D01*
X170545619Y-198023093D01*
X170523258Y-197997304D01*
X170522199Y-197998087D01*
X170437154Y-197882855D01*
X170437152Y-197882853D01*
X170437150Y-197882850D01*
X170437146Y-197882847D01*
X170437144Y-197882845D01*
X170327883Y-197802207D01*
X170206802Y-197759839D01*
X170158122Y-197722774D01*
X170140500Y-197666395D01*
X170140500Y-196824500D01*
X170159407Y-196766309D01*
X170208907Y-196730345D01*
X170239500Y-196725500D01*
X170409747Y-196725500D01*
X170409748Y-196725500D01*
X170468231Y-196713867D01*
X170534552Y-196669552D01*
X170578867Y-196603231D01*
X170590500Y-196544748D01*
X170590500Y-195455252D01*
X170578867Y-195396769D01*
X170534552Y-195330448D01*
X170498510Y-195306365D01*
X170468233Y-195286134D01*
X170468231Y-195286133D01*
X170468228Y-195286132D01*
X170468227Y-195286132D01*
X170409758Y-195274501D01*
X170409748Y-195274500D01*
X168870252Y-195274500D01*
X168870251Y-195274500D01*
X168870241Y-195274501D01*
X168811772Y-195286132D01*
X168811766Y-195286134D01*
X168745451Y-195330445D01*
X168745445Y-195330451D01*
X168701134Y-195396766D01*
X168701132Y-195396772D01*
X168689501Y-195455241D01*
X168689500Y-195455253D01*
X168689500Y-196544746D01*
X168689501Y-196544758D01*
X168701132Y-196603227D01*
X168701134Y-196603233D01*
X168745445Y-196669548D01*
X168745448Y-196669552D01*
X168811769Y-196713867D01*
X168856231Y-196722711D01*
X168870241Y-196725498D01*
X168870246Y-196725498D01*
X168870252Y-196725500D01*
X169040500Y-196725500D01*
X169098691Y-196744407D01*
X169134655Y-196793907D01*
X169139500Y-196824500D01*
X169139500Y-197666395D01*
X169120593Y-197724586D01*
X169073198Y-197759839D01*
X168952116Y-197802207D01*
X168842855Y-197882845D01*
X168842845Y-197882855D01*
X168762207Y-197992116D01*
X168717355Y-198120296D01*
X168717353Y-198120305D01*
X168714500Y-198150725D01*
X168714500Y-198453000D01*
X168695593Y-198511191D01*
X168646093Y-198547155D01*
X168615500Y-198552000D01*
X143588743Y-198552000D01*
X143530552Y-198533093D01*
X143494588Y-198483593D01*
X143494588Y-198422407D01*
X143518739Y-198382996D01*
X147025065Y-194876670D01*
X173037223Y-194876670D01*
X173037223Y-195123329D01*
X173069418Y-195367869D01*
X173069418Y-195367874D01*
X173077161Y-195396772D01*
X173131735Y-195600445D01*
X173133257Y-195606123D01*
X173133261Y-195606136D01*
X173227647Y-195834005D01*
X173227649Y-195834009D01*
X173227651Y-195834013D01*
X173350980Y-196047625D01*
X173350982Y-196047628D01*
X173387685Y-196095460D01*
X173501136Y-196243313D01*
X173675549Y-196417726D01*
X173871237Y-196567882D01*
X174084849Y-196691211D01*
X174312731Y-196785603D01*
X174550985Y-196849443D01*
X174795533Y-196881639D01*
X174795534Y-196881639D01*
X175042190Y-196881639D01*
X175042191Y-196881639D01*
X175286739Y-196849443D01*
X175524993Y-196785603D01*
X175752875Y-196691211D01*
X175966487Y-196567882D01*
X176162175Y-196417726D01*
X176336588Y-196243313D01*
X176486744Y-196047625D01*
X176610073Y-195834013D01*
X176704465Y-195606131D01*
X176768305Y-195367877D01*
X176800501Y-195123329D01*
X176800501Y-194876671D01*
X176800501Y-194876670D01*
X223037223Y-194876670D01*
X223037223Y-195123329D01*
X223069418Y-195367869D01*
X223069418Y-195367874D01*
X223077161Y-195396772D01*
X223131735Y-195600445D01*
X223133257Y-195606123D01*
X223133261Y-195606136D01*
X223227647Y-195834005D01*
X223227649Y-195834009D01*
X223227651Y-195834013D01*
X223350980Y-196047625D01*
X223350982Y-196047628D01*
X223387685Y-196095460D01*
X223501136Y-196243313D01*
X223675549Y-196417726D01*
X223871237Y-196567882D01*
X224084849Y-196691211D01*
X224312731Y-196785603D01*
X224550985Y-196849443D01*
X224795533Y-196881639D01*
X224795534Y-196881639D01*
X225042190Y-196881639D01*
X225042191Y-196881639D01*
X225286739Y-196849443D01*
X225524993Y-196785603D01*
X225752875Y-196691211D01*
X225966487Y-196567882D01*
X226162175Y-196417726D01*
X226336588Y-196243313D01*
X226486744Y-196047625D01*
X226610073Y-195834013D01*
X226704465Y-195606131D01*
X226768305Y-195367877D01*
X226800501Y-195123329D01*
X226800501Y-194876671D01*
X226789819Y-194795532D01*
X273118361Y-194795532D01*
X273118361Y-195042191D01*
X273150556Y-195286731D01*
X273150556Y-195286736D01*
X273214395Y-195524985D01*
X273214399Y-195524998D01*
X273308785Y-195752867D01*
X273308787Y-195752871D01*
X273308789Y-195752875D01*
X273425632Y-195955253D01*
X273432120Y-195966490D01*
X273468823Y-196014322D01*
X273582274Y-196162175D01*
X273756687Y-196336588D01*
X273952375Y-196486744D01*
X274165987Y-196610073D01*
X274393869Y-196704465D01*
X274632123Y-196768305D01*
X274876671Y-196800501D01*
X274876672Y-196800501D01*
X275123328Y-196800501D01*
X275123329Y-196800501D01*
X275367877Y-196768305D01*
X275606131Y-196704465D01*
X275834013Y-196610073D01*
X276047625Y-196486744D01*
X276243313Y-196336588D01*
X276417726Y-196162175D01*
X276567882Y-195966487D01*
X276691211Y-195752875D01*
X276785603Y-195524993D01*
X276849443Y-195286739D01*
X276881639Y-195042191D01*
X276881639Y-194795533D01*
X276881639Y-194795532D01*
X323118361Y-194795532D01*
X323118361Y-195042191D01*
X323150556Y-195286731D01*
X323150556Y-195286736D01*
X323214395Y-195524985D01*
X323214399Y-195524998D01*
X323308785Y-195752867D01*
X323308787Y-195752871D01*
X323308789Y-195752875D01*
X323425632Y-195955253D01*
X323432120Y-195966490D01*
X323468823Y-196014322D01*
X323582274Y-196162175D01*
X323756687Y-196336588D01*
X323952375Y-196486744D01*
X324165987Y-196610073D01*
X324393869Y-196704465D01*
X324632123Y-196768305D01*
X324876671Y-196800501D01*
X324876672Y-196800501D01*
X325123328Y-196800501D01*
X325123329Y-196800501D01*
X325367877Y-196768305D01*
X325606131Y-196704465D01*
X325834013Y-196610073D01*
X326047625Y-196486744D01*
X326243313Y-196336588D01*
X326417726Y-196162175D01*
X326567882Y-195966487D01*
X326691211Y-195752875D01*
X326785603Y-195524993D01*
X326849443Y-195286739D01*
X326881639Y-195042191D01*
X326881639Y-194795533D01*
X326881639Y-194795532D01*
X373118361Y-194795532D01*
X373118361Y-195042191D01*
X373150556Y-195286731D01*
X373150556Y-195286736D01*
X373214395Y-195524985D01*
X373214399Y-195524998D01*
X373308785Y-195752867D01*
X373308787Y-195752871D01*
X373308789Y-195752875D01*
X373425632Y-195955253D01*
X373432120Y-195966490D01*
X373468823Y-196014322D01*
X373582274Y-196162175D01*
X373756687Y-196336588D01*
X373952375Y-196486744D01*
X374165987Y-196610073D01*
X374393869Y-196704465D01*
X374632123Y-196768305D01*
X374876671Y-196800501D01*
X374876672Y-196800501D01*
X375123328Y-196800501D01*
X375123329Y-196800501D01*
X375367877Y-196768305D01*
X375606131Y-196704465D01*
X375834013Y-196610073D01*
X376047625Y-196486744D01*
X376243313Y-196336588D01*
X376417726Y-196162175D01*
X376567882Y-195966487D01*
X376691211Y-195752875D01*
X376785603Y-195524993D01*
X376849443Y-195286739D01*
X376881639Y-195042191D01*
X376881639Y-194795533D01*
X376881639Y-194795532D01*
X423118361Y-194795532D01*
X423118361Y-195042191D01*
X423150556Y-195286731D01*
X423150556Y-195286736D01*
X423214395Y-195524985D01*
X423214399Y-195524998D01*
X423308785Y-195752867D01*
X423308787Y-195752871D01*
X423308789Y-195752875D01*
X423425632Y-195955253D01*
X423432120Y-195966490D01*
X423468823Y-196014322D01*
X423582274Y-196162175D01*
X423756687Y-196336588D01*
X423952375Y-196486744D01*
X424165987Y-196610073D01*
X424393869Y-196704465D01*
X424632123Y-196768305D01*
X424876671Y-196800501D01*
X424876672Y-196800501D01*
X425123328Y-196800501D01*
X425123329Y-196800501D01*
X425367877Y-196768305D01*
X425606131Y-196704465D01*
X425834013Y-196610073D01*
X426047625Y-196486744D01*
X426243313Y-196336588D01*
X426417726Y-196162175D01*
X426567882Y-195966487D01*
X426691211Y-195752875D01*
X426785603Y-195524993D01*
X426849443Y-195286739D01*
X426881639Y-195042191D01*
X426881639Y-194795533D01*
X426881639Y-194795532D01*
X473118361Y-194795532D01*
X473118361Y-195042191D01*
X473150556Y-195286731D01*
X473150556Y-195286736D01*
X473214395Y-195524985D01*
X473214399Y-195524998D01*
X473308785Y-195752867D01*
X473308787Y-195752871D01*
X473308789Y-195752875D01*
X473425632Y-195955253D01*
X473432120Y-195966490D01*
X473468823Y-196014322D01*
X473582274Y-196162175D01*
X473756687Y-196336588D01*
X473952375Y-196486744D01*
X474165987Y-196610073D01*
X474393869Y-196704465D01*
X474632123Y-196768305D01*
X474876671Y-196800501D01*
X474876672Y-196800501D01*
X475123328Y-196800501D01*
X475123329Y-196800501D01*
X475367877Y-196768305D01*
X475606131Y-196704465D01*
X475834013Y-196610073D01*
X476047625Y-196486744D01*
X476243313Y-196336588D01*
X476417726Y-196162175D01*
X476567882Y-195966487D01*
X476691211Y-195752875D01*
X476785603Y-195524993D01*
X476849443Y-195286739D01*
X476881639Y-195042191D01*
X476881639Y-194795533D01*
X476849443Y-194550985D01*
X476785603Y-194312731D01*
X476691211Y-194084849D01*
X476567882Y-193871237D01*
X476417726Y-193675549D01*
X476243313Y-193501136D01*
X476112166Y-193400504D01*
X476047628Y-193350982D01*
X476047625Y-193350980D01*
X475834013Y-193227651D01*
X475834009Y-193227649D01*
X475834005Y-193227647D01*
X475606136Y-193133261D01*
X475606135Y-193133260D01*
X475606131Y-193133259D01*
X475367877Y-193069419D01*
X475367874Y-193069418D01*
X475367872Y-193069418D01*
X475123329Y-193037223D01*
X474876671Y-193037223D01*
X474876670Y-193037223D01*
X474632130Y-193069418D01*
X474632125Y-193069418D01*
X474393876Y-193133257D01*
X474393863Y-193133261D01*
X474165994Y-193227647D01*
X473952371Y-193350982D01*
X473756690Y-193501133D01*
X473582271Y-193675552D01*
X473432120Y-193871233D01*
X473308785Y-194084856D01*
X473214399Y-194312725D01*
X473214395Y-194312738D01*
X473150556Y-194550987D01*
X473150556Y-194550992D01*
X473118361Y-194795532D01*
X426881639Y-194795532D01*
X426849443Y-194550985D01*
X426785603Y-194312731D01*
X426691211Y-194084849D01*
X426567882Y-193871237D01*
X426417726Y-193675549D01*
X426243313Y-193501136D01*
X426112166Y-193400504D01*
X426047628Y-193350982D01*
X426047625Y-193350980D01*
X425834013Y-193227651D01*
X425834009Y-193227649D01*
X425834005Y-193227647D01*
X425606136Y-193133261D01*
X425606135Y-193133260D01*
X425606131Y-193133259D01*
X425367877Y-193069419D01*
X425367874Y-193069418D01*
X425367872Y-193069418D01*
X425123329Y-193037223D01*
X424876671Y-193037223D01*
X424876670Y-193037223D01*
X424632130Y-193069418D01*
X424632125Y-193069418D01*
X424393876Y-193133257D01*
X424393863Y-193133261D01*
X424165994Y-193227647D01*
X423952371Y-193350982D01*
X423756690Y-193501133D01*
X423582271Y-193675552D01*
X423432120Y-193871233D01*
X423308785Y-194084856D01*
X423214399Y-194312725D01*
X423214395Y-194312738D01*
X423150556Y-194550987D01*
X423150556Y-194550992D01*
X423118361Y-194795532D01*
X376881639Y-194795532D01*
X376849443Y-194550985D01*
X376785603Y-194312731D01*
X376691211Y-194084849D01*
X376567882Y-193871237D01*
X376417726Y-193675549D01*
X376243313Y-193501136D01*
X376112166Y-193400504D01*
X376047628Y-193350982D01*
X376047625Y-193350980D01*
X375834013Y-193227651D01*
X375834009Y-193227649D01*
X375834005Y-193227647D01*
X375606136Y-193133261D01*
X375606135Y-193133260D01*
X375606131Y-193133259D01*
X375367877Y-193069419D01*
X375367874Y-193069418D01*
X375367872Y-193069418D01*
X375123329Y-193037223D01*
X374876671Y-193037223D01*
X374876670Y-193037223D01*
X374632130Y-193069418D01*
X374632125Y-193069418D01*
X374393876Y-193133257D01*
X374393863Y-193133261D01*
X374165994Y-193227647D01*
X373952371Y-193350982D01*
X373756690Y-193501133D01*
X373582271Y-193675552D01*
X373432120Y-193871233D01*
X373308785Y-194084856D01*
X373214399Y-194312725D01*
X373214395Y-194312738D01*
X373150556Y-194550987D01*
X373150556Y-194550992D01*
X373118361Y-194795532D01*
X326881639Y-194795532D01*
X326849443Y-194550985D01*
X326785603Y-194312731D01*
X326691211Y-194084849D01*
X326567882Y-193871237D01*
X326417726Y-193675549D01*
X326243313Y-193501136D01*
X326112166Y-193400504D01*
X326047628Y-193350982D01*
X326047625Y-193350980D01*
X325834013Y-193227651D01*
X325834009Y-193227649D01*
X325834005Y-193227647D01*
X325606136Y-193133261D01*
X325606135Y-193133260D01*
X325606131Y-193133259D01*
X325367877Y-193069419D01*
X325367874Y-193069418D01*
X325367872Y-193069418D01*
X325123329Y-193037223D01*
X324876671Y-193037223D01*
X324876670Y-193037223D01*
X324632130Y-193069418D01*
X324632125Y-193069418D01*
X324393876Y-193133257D01*
X324393863Y-193133261D01*
X324165994Y-193227647D01*
X323952371Y-193350982D01*
X323756690Y-193501133D01*
X323582271Y-193675552D01*
X323432120Y-193871233D01*
X323308785Y-194084856D01*
X323214399Y-194312725D01*
X323214395Y-194312738D01*
X323150556Y-194550987D01*
X323150556Y-194550992D01*
X323118361Y-194795532D01*
X276881639Y-194795532D01*
X276849443Y-194550985D01*
X276785603Y-194312731D01*
X276691211Y-194084849D01*
X276567882Y-193871237D01*
X276417726Y-193675549D01*
X276243313Y-193501136D01*
X276112166Y-193400504D01*
X276047628Y-193350982D01*
X276047625Y-193350980D01*
X275834013Y-193227651D01*
X275834009Y-193227649D01*
X275834005Y-193227647D01*
X275606136Y-193133261D01*
X275606135Y-193133260D01*
X275606131Y-193133259D01*
X275367877Y-193069419D01*
X275367874Y-193069418D01*
X275367872Y-193069418D01*
X275123329Y-193037223D01*
X274876671Y-193037223D01*
X274876670Y-193037223D01*
X274632130Y-193069418D01*
X274632125Y-193069418D01*
X274393876Y-193133257D01*
X274393863Y-193133261D01*
X274165994Y-193227647D01*
X273952371Y-193350982D01*
X273756690Y-193501133D01*
X273582271Y-193675552D01*
X273432120Y-193871233D01*
X273308785Y-194084856D01*
X273214399Y-194312725D01*
X273214395Y-194312738D01*
X273150556Y-194550987D01*
X273150556Y-194550992D01*
X273118361Y-194795532D01*
X226789819Y-194795532D01*
X226768305Y-194632123D01*
X226704465Y-194393869D01*
X226610073Y-194165987D01*
X226486744Y-193952375D01*
X226336588Y-193756687D01*
X226162175Y-193582274D01*
X226125648Y-193554246D01*
X225966490Y-193432120D01*
X225951354Y-193423381D01*
X225752875Y-193308789D01*
X225752871Y-193308787D01*
X225752867Y-193308785D01*
X225524998Y-193214399D01*
X225524997Y-193214398D01*
X225524993Y-193214397D01*
X225286739Y-193150557D01*
X225286736Y-193150556D01*
X225286734Y-193150556D01*
X225042191Y-193118361D01*
X224795533Y-193118361D01*
X224795532Y-193118361D01*
X224550992Y-193150556D01*
X224550987Y-193150556D01*
X224312738Y-193214395D01*
X224312725Y-193214399D01*
X224084856Y-193308785D01*
X223871233Y-193432120D01*
X223675552Y-193582271D01*
X223501133Y-193756690D01*
X223350982Y-193952371D01*
X223227647Y-194165994D01*
X223133261Y-194393863D01*
X223133257Y-194393876D01*
X223069418Y-194632125D01*
X223069418Y-194632130D01*
X223037223Y-194876670D01*
X176800501Y-194876670D01*
X176768305Y-194632123D01*
X176704465Y-194393869D01*
X176610073Y-194165987D01*
X176486744Y-193952375D01*
X176336588Y-193756687D01*
X176162175Y-193582274D01*
X176125648Y-193554246D01*
X175966490Y-193432120D01*
X175951354Y-193423381D01*
X175752875Y-193308789D01*
X175752871Y-193308787D01*
X175752867Y-193308785D01*
X175524998Y-193214399D01*
X175524997Y-193214398D01*
X175524993Y-193214397D01*
X175286739Y-193150557D01*
X175286736Y-193150556D01*
X175286734Y-193150556D01*
X175042191Y-193118361D01*
X174795533Y-193118361D01*
X174795532Y-193118361D01*
X174550992Y-193150556D01*
X174550987Y-193150556D01*
X174312738Y-193214395D01*
X174312725Y-193214399D01*
X174084856Y-193308785D01*
X173871233Y-193432120D01*
X173675552Y-193582271D01*
X173501133Y-193756690D01*
X173350982Y-193952371D01*
X173227647Y-194165994D01*
X173133261Y-194393863D01*
X173133257Y-194393876D01*
X173069418Y-194632125D01*
X173069418Y-194632130D01*
X173037223Y-194876670D01*
X147025065Y-194876670D01*
X147098309Y-194803426D01*
X149363608Y-192538126D01*
X158581213Y-183320521D01*
X158581216Y-183320520D01*
X158693020Y-183208716D01*
X158772077Y-183071784D01*
X158813000Y-182919057D01*
X158813000Y-176890782D01*
X158831907Y-176832591D01*
X158853212Y-176811127D01*
X158858014Y-176807582D01*
X158872150Y-176797150D01*
X158872151Y-176797148D01*
X158872152Y-176797148D01*
X158952792Y-176687883D01*
X158952791Y-176687883D01*
X158952793Y-176687882D01*
X158997646Y-176559699D01*
X159000499Y-176529273D01*
X159000500Y-176529273D01*
X159000500Y-175470727D01*
X159000499Y-175470725D01*
X158997646Y-175440305D01*
X158997646Y-175440301D01*
X158952793Y-175312118D01*
X158929105Y-175280022D01*
X158872154Y-175202855D01*
X158872152Y-175202853D01*
X158872150Y-175202850D01*
X158872146Y-175202847D01*
X158853210Y-175188871D01*
X158817618Y-175139102D01*
X158813000Y-175109217D01*
X158813000Y-174670782D01*
X158831907Y-174612591D01*
X158853212Y-174591127D01*
X158858014Y-174587582D01*
X158872150Y-174577150D01*
X158872151Y-174577148D01*
X158872152Y-174577148D01*
X158925912Y-174504304D01*
X158952793Y-174467882D01*
X158997646Y-174339699D01*
X159000499Y-174309273D01*
X159000500Y-174309273D01*
X159000500Y-173250727D01*
X159000499Y-173250725D01*
X158997646Y-173220305D01*
X158997646Y-173220301D01*
X158952793Y-173092118D01*
X158952790Y-173092114D01*
X158872154Y-172982855D01*
X158872152Y-172982853D01*
X158872150Y-172982850D01*
X158872146Y-172982847D01*
X158872144Y-172982845D01*
X158762883Y-172902207D01*
X158634703Y-172857355D01*
X158634694Y-172857353D01*
X158604274Y-172854500D01*
X158604266Y-172854500D01*
X157820734Y-172854500D01*
X157820725Y-172854500D01*
X157790305Y-172857353D01*
X157790296Y-172857355D01*
X157662116Y-172902207D01*
X157552855Y-172982845D01*
X157552845Y-172982855D01*
X157472208Y-173092114D01*
X157472207Y-173092118D01*
X157464830Y-173113198D01*
X157427767Y-173161878D01*
X157371387Y-173179500D01*
X156584500Y-173179500D01*
X156526309Y-173160593D01*
X156490345Y-173111093D01*
X156485500Y-173080500D01*
X156485500Y-172741743D01*
X156483311Y-172726717D01*
X156475573Y-172673607D01*
X156424198Y-172568517D01*
X156341483Y-172485802D01*
X156341481Y-172485801D01*
X156341480Y-172485800D01*
X156334806Y-172481035D01*
X156336611Y-172478505D01*
X156302908Y-172445899D01*
X156292337Y-172385634D01*
X156319208Y-172330665D01*
X156373257Y-172301989D01*
X156390361Y-172300500D01*
X162084521Y-172300500D01*
X162142712Y-172319407D01*
X162154525Y-172329496D01*
X169310504Y-179485475D01*
X169338281Y-179539992D01*
X169339500Y-179555479D01*
X169339500Y-192654057D01*
X169320593Y-192712248D01*
X169271093Y-192748212D01*
X169259815Y-192751155D01*
X169203379Y-192762381D01*
X169071348Y-192817070D01*
X169071340Y-192817074D01*
X168952521Y-192896468D01*
X168952517Y-192896471D01*
X168851471Y-192997517D01*
X168851468Y-192997521D01*
X168772074Y-193116340D01*
X168772068Y-193116351D01*
X168717381Y-193248378D01*
X168717381Y-193248380D01*
X168689500Y-193388542D01*
X168689500Y-193531457D01*
X168694412Y-193556149D01*
X168714780Y-193658546D01*
X168717381Y-193671619D01*
X168717381Y-193671621D01*
X168772068Y-193803648D01*
X168772074Y-193803659D01*
X168817229Y-193871237D01*
X168851468Y-193922479D01*
X168952521Y-194023532D01*
X168991246Y-194049407D01*
X169071340Y-194102925D01*
X169071351Y-194102931D01*
X169120121Y-194123132D01*
X169203380Y-194157619D01*
X169343545Y-194185500D01*
X169343546Y-194185500D01*
X169936454Y-194185500D01*
X169936455Y-194185500D01*
X170076620Y-194157619D01*
X170208653Y-194102929D01*
X170327479Y-194023532D01*
X170428532Y-193922479D01*
X170507929Y-193803653D01*
X170562619Y-193671620D01*
X170590500Y-193531455D01*
X170590500Y-193388545D01*
X170562619Y-193248380D01*
X170514934Y-193133259D01*
X170507931Y-193116351D01*
X170507925Y-193116340D01*
X170455060Y-193037223D01*
X170428532Y-192997521D01*
X170327479Y-192896468D01*
X170280143Y-192864839D01*
X170208659Y-192817074D01*
X170208651Y-192817070D01*
X170076620Y-192762381D01*
X170020185Y-192751155D01*
X169966801Y-192721258D01*
X169941186Y-192665692D01*
X169940500Y-192654057D01*
X169940500Y-179350437D01*
X169940499Y-179350435D01*
X169920021Y-179274011D01*
X169920019Y-179274007D01*
X169880460Y-179205489D01*
X169824511Y-179149539D01*
X169824511Y-179149540D01*
X162434511Y-171759540D01*
X162434508Y-171759538D01*
X162365992Y-171719980D01*
X162365988Y-171719978D01*
X162289564Y-171699500D01*
X162283714Y-171698730D01*
X162228489Y-171672389D01*
X162199294Y-171618618D01*
X162207280Y-171557956D01*
X162249398Y-171513574D01*
X162296636Y-171501577D01*
X165535598Y-171501577D01*
X165593789Y-171520484D01*
X165605602Y-171530573D01*
X187989540Y-193914511D01*
X187989539Y-193914511D01*
X188045489Y-193970460D01*
X188114007Y-194010019D01*
X188114011Y-194010021D01*
X188190435Y-194030499D01*
X188190437Y-194030500D01*
X188190438Y-194030500D01*
X188269562Y-194030500D01*
X218050321Y-194030500D01*
X218108512Y-194049407D01*
X218132634Y-194074496D01*
X218211468Y-194192479D01*
X218312521Y-194293532D01*
X218378789Y-194337811D01*
X218431340Y-194372925D01*
X218431351Y-194372931D01*
X218480121Y-194393132D01*
X218563380Y-194427619D01*
X218703545Y-194455500D01*
X218703546Y-194455500D01*
X219296454Y-194455500D01*
X219296455Y-194455500D01*
X219436620Y-194427619D01*
X219568653Y-194372929D01*
X219687479Y-194293532D01*
X219788532Y-194192479D01*
X219867929Y-194073653D01*
X219922619Y-193941620D01*
X219950500Y-193801455D01*
X219950500Y-193658545D01*
X219922619Y-193518380D01*
X219872123Y-193396471D01*
X219867931Y-193386351D01*
X219867925Y-193386340D01*
X219816106Y-193308789D01*
X219788532Y-193267521D01*
X219687479Y-193166468D01*
X219612462Y-193116343D01*
X219568659Y-193087074D01*
X219568648Y-193087068D01*
X219436620Y-193032381D01*
X219296457Y-193004500D01*
X219296455Y-193004500D01*
X218703545Y-193004500D01*
X218703542Y-193004500D01*
X218563380Y-193032381D01*
X218563378Y-193032381D01*
X218431351Y-193087068D01*
X218431340Y-193087074D01*
X218312521Y-193166468D01*
X218312517Y-193166471D01*
X218211471Y-193267517D01*
X218211468Y-193267521D01*
X218155703Y-193350980D01*
X218132636Y-193385502D01*
X218084586Y-193423381D01*
X218050321Y-193429500D01*
X188395479Y-193429500D01*
X188337288Y-193410593D01*
X188325475Y-193400504D01*
X177475228Y-182550257D01*
X165998472Y-171073501D01*
X165970697Y-171018987D01*
X165980268Y-170958555D01*
X166023533Y-170915290D01*
X166068478Y-170904500D01*
X172188521Y-170904500D01*
X172246712Y-170923407D01*
X172258525Y-170933496D01*
X185009540Y-183684511D01*
X185009539Y-183684511D01*
X185065489Y-183740460D01*
X185134007Y-183780019D01*
X185134011Y-183780021D01*
X185210435Y-183800499D01*
X185210437Y-183800500D01*
X185210438Y-183800500D01*
X185289562Y-183800500D01*
X257584521Y-183800500D01*
X257642712Y-183819407D01*
X257654525Y-183829496D01*
X267539303Y-193714274D01*
X267567080Y-193768791D01*
X267566397Y-193803591D01*
X267549500Y-193888540D01*
X267549500Y-194031457D01*
X267577381Y-194171619D01*
X267577381Y-194171621D01*
X267632068Y-194303648D01*
X267632074Y-194303659D01*
X267658798Y-194343653D01*
X267711468Y-194422479D01*
X267812521Y-194523532D01*
X267853618Y-194550992D01*
X267931340Y-194602925D01*
X267931351Y-194602931D01*
X267972326Y-194619903D01*
X268063380Y-194657619D01*
X268203545Y-194685500D01*
X268203546Y-194685500D01*
X268796454Y-194685500D01*
X268796455Y-194685500D01*
X268936620Y-194657619D01*
X269068653Y-194602929D01*
X269187479Y-194523532D01*
X269288532Y-194422479D01*
X269367929Y-194303653D01*
X269422619Y-194171620D01*
X269450500Y-194031455D01*
X269450500Y-193888545D01*
X269422619Y-193748380D01*
X269390824Y-193671620D01*
X269367931Y-193616351D01*
X269367925Y-193616340D01*
X269311207Y-193531457D01*
X269288532Y-193497521D01*
X269187479Y-193396468D01*
X269128513Y-193357068D01*
X269068659Y-193317074D01*
X269068648Y-193317068D01*
X268936620Y-193262381D01*
X268796457Y-193234500D01*
X268796455Y-193234500D01*
X268203545Y-193234500D01*
X268203542Y-193234500D01*
X268063383Y-193262380D01*
X268063381Y-193262380D01*
X268063380Y-193262381D01*
X268035376Y-193273980D01*
X267974382Y-193278779D01*
X267927490Y-193252519D01*
X267329028Y-192654057D01*
X257934511Y-183259540D01*
X257934508Y-183259538D01*
X257865992Y-183219980D01*
X257865988Y-183219978D01*
X257789564Y-183199500D01*
X257789562Y-183199500D01*
X185415479Y-183199500D01*
X185357288Y-183180593D01*
X185345475Y-183170504D01*
X178956064Y-176781093D01*
X172538511Y-170363540D01*
X172538508Y-170363538D01*
X172469992Y-170323980D01*
X172469988Y-170323978D01*
X172393564Y-170303500D01*
X172393562Y-170303500D01*
X152886439Y-170303500D01*
X152886436Y-170303500D01*
X152810012Y-170323978D01*
X152810008Y-170323980D01*
X152741492Y-170363538D01*
X152741490Y-170363540D01*
X150720489Y-172384541D01*
X150695544Y-172409484D01*
X150660345Y-172430707D01*
X150660513Y-172431051D01*
X150656616Y-172432955D01*
X150654777Y-172434065D01*
X150653609Y-172434425D01*
X150548518Y-172485801D01*
X150465801Y-172568518D01*
X150414427Y-172673604D01*
X150414427Y-172673607D01*
X150404500Y-172741740D01*
X150404500Y-174558260D01*
X150409289Y-174591127D01*
X150414427Y-174626395D01*
X150465801Y-174731481D01*
X150465802Y-174731483D01*
X150548517Y-174814198D01*
X150602285Y-174840483D01*
X150653604Y-174865572D01*
X150653605Y-174865572D01*
X150653607Y-174865573D01*
X150721740Y-174875500D01*
X150721743Y-174875500D01*
X151088257Y-174875500D01*
X151088260Y-174875500D01*
X151156393Y-174865573D01*
X151261483Y-174814198D01*
X151344198Y-174731483D01*
X151395573Y-174626393D01*
X151405500Y-174558260D01*
X151405500Y-172741740D01*
X151395573Y-172673607D01*
X151389117Y-172660400D01*
X151380546Y-172599818D01*
X151408055Y-172546916D01*
X151705497Y-172249475D01*
X151760013Y-172221698D01*
X151820445Y-172231269D01*
X151863710Y-172274534D01*
X151874500Y-172319479D01*
X151874500Y-172396635D01*
X151855593Y-172454826D01*
X151824889Y-172480612D01*
X151825192Y-172481036D01*
X151819817Y-172484873D01*
X151818982Y-172485574D01*
X151818800Y-172485663D01*
X151818518Y-172485801D01*
X151735801Y-172568518D01*
X151684427Y-172673604D01*
X151684427Y-172673607D01*
X151674500Y-172741740D01*
X151674500Y-174558260D01*
X151679289Y-174591127D01*
X151684427Y-174626395D01*
X151735801Y-174731481D01*
X151735802Y-174731483D01*
X151818517Y-174814198D01*
X151872285Y-174840483D01*
X151923604Y-174865572D01*
X151923605Y-174865572D01*
X151923607Y-174865573D01*
X151991740Y-174875500D01*
X151991743Y-174875500D01*
X152358257Y-174875500D01*
X152358260Y-174875500D01*
X152426393Y-174865573D01*
X152531483Y-174814198D01*
X152614198Y-174731483D01*
X152665573Y-174626393D01*
X152675500Y-174558260D01*
X152675500Y-172741740D01*
X152665573Y-172673607D01*
X152614198Y-172568517D01*
X152555327Y-172509646D01*
X152527552Y-172455132D01*
X152537123Y-172394700D01*
X152555326Y-172369644D01*
X153394398Y-171530573D01*
X153448915Y-171502796D01*
X153464402Y-171501577D01*
X154023365Y-171501577D01*
X154081556Y-171520484D01*
X154117520Y-171569984D01*
X154117520Y-171631170D01*
X154081556Y-171680670D01*
X154036287Y-171698730D01*
X154030436Y-171699500D01*
X153954012Y-171719978D01*
X153954008Y-171719980D01*
X153885492Y-171759538D01*
X153885490Y-171759540D01*
X153260489Y-172384541D01*
X153235544Y-172409484D01*
X153200345Y-172430707D01*
X153200513Y-172431051D01*
X153196616Y-172432955D01*
X153194777Y-172434065D01*
X153193609Y-172434425D01*
X153088518Y-172485801D01*
X153005801Y-172568518D01*
X152954427Y-172673604D01*
X152954427Y-172673607D01*
X152944500Y-172741740D01*
X152944500Y-174558260D01*
X152949289Y-174591127D01*
X152954427Y-174626395D01*
X153005801Y-174731481D01*
X153005802Y-174731483D01*
X153088517Y-174814198D01*
X153142285Y-174840483D01*
X153193604Y-174865572D01*
X153193605Y-174865572D01*
X153193607Y-174865573D01*
X153261740Y-174875500D01*
X153261743Y-174875500D01*
X153628257Y-174875500D01*
X153628260Y-174875500D01*
X153696393Y-174865573D01*
X153801483Y-174814198D01*
X153884198Y-174731483D01*
X153935573Y-174626393D01*
X153945500Y-174558260D01*
X153945500Y-172741740D01*
X153935573Y-172673607D01*
X153929117Y-172660400D01*
X153920546Y-172599818D01*
X153948055Y-172546916D01*
X154049073Y-172445899D01*
X154165476Y-172329496D01*
X154219992Y-172301719D01*
X154235479Y-172300500D01*
X154309639Y-172300500D01*
X154367830Y-172319407D01*
X154403794Y-172368907D01*
X154403794Y-172430093D01*
X154367830Y-172479593D01*
X154363918Y-172481945D01*
X154358519Y-172485800D01*
X154275801Y-172568518D01*
X154224427Y-172673604D01*
X154224427Y-172673607D01*
X154214500Y-172741740D01*
X154214500Y-174558260D01*
X154219289Y-174591127D01*
X154224427Y-174626394D01*
X154230882Y-174639597D01*
X154239453Y-174700179D01*
X154211945Y-174753081D01*
X143544524Y-185420504D01*
X143490007Y-185448281D01*
X143474520Y-185449500D01*
X126170435Y-185449500D01*
X126094011Y-185469978D01*
X126094007Y-185469980D01*
X126025491Y-185509538D01*
X118329524Y-193205504D01*
X118275007Y-193233281D01*
X118259520Y-193234500D01*
X117703542Y-193234500D01*
X117563380Y-193262381D01*
X117563378Y-193262381D01*
X117431351Y-193317068D01*
X117431340Y-193317074D01*
X117312521Y-193396468D01*
X117312517Y-193396471D01*
X117211471Y-193497517D01*
X117211468Y-193497521D01*
X117132074Y-193616340D01*
X117132068Y-193616351D01*
X117077381Y-193748378D01*
X117077381Y-193748380D01*
X117049500Y-193888542D01*
X117049500Y-194031457D01*
X117077381Y-194171619D01*
X117077381Y-194171621D01*
X117132068Y-194303648D01*
X117132074Y-194303659D01*
X117158798Y-194343653D01*
X117211468Y-194422479D01*
X117312521Y-194523532D01*
X117353618Y-194550992D01*
X117431340Y-194602925D01*
X117431351Y-194602931D01*
X117472326Y-194619903D01*
X117563380Y-194657619D01*
X117703545Y-194685500D01*
X117703546Y-194685500D01*
X118296454Y-194685500D01*
X118296455Y-194685500D01*
X118436620Y-194657619D01*
X118568653Y-194602929D01*
X118687479Y-194523532D01*
X118788532Y-194422479D01*
X118867929Y-194303653D01*
X118922619Y-194171620D01*
X118950500Y-194031455D01*
X118950500Y-193888545D01*
X118922619Y-193748380D01*
X118892453Y-193675552D01*
X118866068Y-193611853D01*
X118867065Y-193611439D01*
X118857194Y-193556149D01*
X118883898Y-193501099D01*
X118885207Y-193499762D01*
X126305475Y-186079496D01*
X126359992Y-186051719D01*
X126375479Y-186050500D01*
X143679562Y-186050500D01*
X143679562Y-186050499D01*
X143755988Y-186030021D01*
X143824510Y-185990460D01*
X143880459Y-185934511D01*
X154924455Y-174890513D01*
X154959653Y-174869295D01*
X154959485Y-174868950D01*
X154963412Y-174867029D01*
X154965239Y-174865929D01*
X154966384Y-174865574D01*
X154966393Y-174865573D01*
X155071483Y-174814198D01*
X155154198Y-174731483D01*
X155205573Y-174626393D01*
X155215500Y-174558260D01*
X155215500Y-173850322D01*
X155234407Y-173792131D01*
X155283907Y-173756167D01*
X155345093Y-173756167D01*
X155394593Y-173792131D01*
X155405020Y-173810232D01*
X155408134Y-173817263D01*
X155425423Y-173881785D01*
X155473883Y-173965719D01*
X155476020Y-173970544D01*
X155477435Y-173984268D01*
X155484500Y-174010634D01*
X155484500Y-174558260D01*
X155489289Y-174591127D01*
X155494427Y-174626395D01*
X155545801Y-174731481D01*
X155545802Y-174731483D01*
X155628517Y-174814198D01*
X155682285Y-174840483D01*
X155733604Y-174865572D01*
X155733605Y-174865572D01*
X155733607Y-174865573D01*
X155801740Y-174875500D01*
X155801743Y-174875500D01*
X156168257Y-174875500D01*
X156168260Y-174875500D01*
X156236393Y-174865573D01*
X156341483Y-174814198D01*
X156424198Y-174731483D01*
X156475573Y-174626393D01*
X156485500Y-174558260D01*
X156485500Y-174479500D01*
X156504407Y-174421309D01*
X156553907Y-174385345D01*
X156584500Y-174380500D01*
X157371387Y-174380500D01*
X157429578Y-174399407D01*
X157464830Y-174446800D01*
X157471772Y-174466640D01*
X157472208Y-174467885D01*
X157552847Y-174577148D01*
X157552849Y-174577149D01*
X157571788Y-174591127D01*
X157607381Y-174640894D01*
X157612000Y-174670782D01*
X157612000Y-175109217D01*
X157593093Y-175167408D01*
X157571790Y-175188871D01*
X157552853Y-175202847D01*
X157552845Y-175202855D01*
X157472207Y-175312116D01*
X157427355Y-175440296D01*
X157427353Y-175440305D01*
X157424500Y-175470725D01*
X157424500Y-176027104D01*
X157421127Y-176052727D01*
X157399499Y-176133443D01*
X157399499Y-176291556D01*
X157421127Y-176372272D01*
X157424500Y-176397895D01*
X157424500Y-176529274D01*
X157427353Y-176559694D01*
X157427355Y-176559703D01*
X157472207Y-176687883D01*
X157552847Y-176797148D01*
X157552849Y-176797149D01*
X157571788Y-176811127D01*
X157607381Y-176860894D01*
X157612000Y-176890782D01*
X157612000Y-182550257D01*
X157593093Y-182608448D01*
X157583004Y-182620261D01*
X141680261Y-198523004D01*
X141625744Y-198550781D01*
X141610257Y-198552000D01*
X118863810Y-198552000D01*
X118805619Y-198533093D01*
X118783258Y-198507304D01*
X118782199Y-198508087D01*
X118697154Y-198392855D01*
X118697152Y-198392853D01*
X118697150Y-198392850D01*
X118697146Y-198392847D01*
X118697144Y-198392845D01*
X118587885Y-198312208D01*
X118587881Y-198312206D01*
X118566801Y-198304830D01*
X118518121Y-198267764D01*
X118500500Y-198211386D01*
X118500500Y-197324500D01*
X118519407Y-197266309D01*
X118568907Y-197230345D01*
X118599500Y-197225500D01*
X118769747Y-197225500D01*
X118769748Y-197225500D01*
X118828231Y-197213867D01*
X118894552Y-197169552D01*
X118938867Y-197103231D01*
X118950500Y-197044748D01*
X118950500Y-195955252D01*
X118938867Y-195896769D01*
X118894552Y-195830448D01*
X118888096Y-195826134D01*
X118828233Y-195786134D01*
X118828231Y-195786133D01*
X118828228Y-195786132D01*
X118828227Y-195786132D01*
X118769758Y-195774501D01*
X118769748Y-195774500D01*
X117230252Y-195774500D01*
X117230251Y-195774500D01*
X117230241Y-195774501D01*
X117171772Y-195786132D01*
X117171766Y-195786134D01*
X117105451Y-195830445D01*
X117105445Y-195830451D01*
X117061134Y-195896766D01*
X117061132Y-195896772D01*
X117049501Y-195955241D01*
X117049500Y-195955253D01*
X117049500Y-197044746D01*
X117049501Y-197044758D01*
X117061132Y-197103227D01*
X117061134Y-197103233D01*
X117087862Y-197143233D01*
X117105448Y-197169552D01*
X117171769Y-197213867D01*
X117216231Y-197222711D01*
X117230241Y-197225498D01*
X117230246Y-197225498D01*
X117230252Y-197225500D01*
X117400500Y-197225500D01*
X117458691Y-197244407D01*
X117494655Y-197293907D01*
X117499500Y-197324500D01*
X117499500Y-198165500D01*
X117480593Y-198223691D01*
X117431093Y-198259655D01*
X117400500Y-198264500D01*
X117370725Y-198264500D01*
X117340305Y-198267353D01*
X117340296Y-198267355D01*
X117212116Y-198312207D01*
X117102851Y-198392847D01*
X117102850Y-198392849D01*
X117088873Y-198411788D01*
X117039106Y-198447381D01*
X117009218Y-198452000D01*
X108842243Y-198452000D01*
X108784052Y-198433093D01*
X108772239Y-198423004D01*
X105225905Y-194876670D01*
X123037223Y-194876670D01*
X123037223Y-195123329D01*
X123069418Y-195367869D01*
X123069418Y-195367874D01*
X123077161Y-195396772D01*
X123131735Y-195600445D01*
X123133257Y-195606123D01*
X123133261Y-195606136D01*
X123227647Y-195834005D01*
X123227649Y-195834009D01*
X123227651Y-195834013D01*
X123350980Y-196047625D01*
X123350982Y-196047628D01*
X123387685Y-196095460D01*
X123501136Y-196243313D01*
X123675549Y-196417726D01*
X123871237Y-196567882D01*
X124084849Y-196691211D01*
X124312731Y-196785603D01*
X124550985Y-196849443D01*
X124795533Y-196881639D01*
X124795534Y-196881639D01*
X125042190Y-196881639D01*
X125042191Y-196881639D01*
X125286739Y-196849443D01*
X125524993Y-196785603D01*
X125752875Y-196691211D01*
X125966487Y-196567882D01*
X126162175Y-196417726D01*
X126336588Y-196243313D01*
X126486744Y-196047625D01*
X126610073Y-195834013D01*
X126704465Y-195606131D01*
X126768305Y-195367877D01*
X126800501Y-195123329D01*
X126800501Y-194876671D01*
X126768305Y-194632123D01*
X126704465Y-194393869D01*
X126610073Y-194165987D01*
X126486744Y-193952375D01*
X126336588Y-193756687D01*
X126162175Y-193582274D01*
X126125648Y-193554246D01*
X125966490Y-193432120D01*
X125951354Y-193423381D01*
X125752875Y-193308789D01*
X125752871Y-193308787D01*
X125752867Y-193308785D01*
X125524998Y-193214399D01*
X125524997Y-193214398D01*
X125524993Y-193214397D01*
X125286739Y-193150557D01*
X125286736Y-193150556D01*
X125286734Y-193150556D01*
X125042191Y-193118361D01*
X124795533Y-193118361D01*
X124795532Y-193118361D01*
X124550992Y-193150556D01*
X124550987Y-193150556D01*
X124312738Y-193214395D01*
X124312725Y-193214399D01*
X124084856Y-193308785D01*
X123871233Y-193432120D01*
X123675552Y-193582271D01*
X123501133Y-193756690D01*
X123350982Y-193952371D01*
X123227647Y-194165994D01*
X123133261Y-194393863D01*
X123133257Y-194393876D01*
X123069418Y-194632125D01*
X123069418Y-194632130D01*
X123037223Y-194876670D01*
X105225905Y-194876670D01*
X88629496Y-178280261D01*
X88601719Y-178225744D01*
X88600500Y-178210257D01*
X88600500Y-177245725D01*
X143699500Y-177245725D01*
X143699500Y-178254274D01*
X143702353Y-178284694D01*
X143702355Y-178284703D01*
X143747207Y-178412883D01*
X143827845Y-178522144D01*
X143827847Y-178522146D01*
X143827850Y-178522150D01*
X143827853Y-178522152D01*
X143827855Y-178522154D01*
X143937116Y-178602792D01*
X143937117Y-178602792D01*
X143937118Y-178602793D01*
X144065301Y-178647646D01*
X144095725Y-178650499D01*
X144095727Y-178650500D01*
X144095734Y-178650500D01*
X144904273Y-178650500D01*
X144904273Y-178650499D01*
X144934699Y-178647646D01*
X145062882Y-178602793D01*
X145172150Y-178522150D01*
X145252793Y-178412882D01*
X145297646Y-178284699D01*
X145300499Y-178254273D01*
X145300500Y-178254273D01*
X145300500Y-177245727D01*
X145300499Y-177245725D01*
X145297646Y-177215305D01*
X145297646Y-177215301D01*
X145252793Y-177087118D01*
X145172150Y-176977850D01*
X145172146Y-176977847D01*
X145172144Y-176977845D01*
X145062883Y-176897207D01*
X144934703Y-176852355D01*
X144934694Y-176852353D01*
X144904274Y-176849500D01*
X144904266Y-176849500D01*
X144899500Y-176849500D01*
X144841309Y-176830593D01*
X144805345Y-176781093D01*
X144800500Y-176750500D01*
X144800500Y-174930253D01*
X144819407Y-174872062D01*
X144856020Y-174841312D01*
X144857270Y-174840701D01*
X144911483Y-174814198D01*
X144994198Y-174731483D01*
X145045573Y-174626393D01*
X145055500Y-174558260D01*
X145055500Y-172741740D01*
X145045573Y-172673607D01*
X144994198Y-172568517D01*
X144911483Y-172485802D01*
X144909583Y-172484873D01*
X144806395Y-172434427D01*
X144776647Y-172430093D01*
X144738260Y-172424500D01*
X144371740Y-172424500D01*
X144337673Y-172429463D01*
X144303604Y-172434427D01*
X144198518Y-172485801D01*
X144115801Y-172568518D01*
X144064427Y-172673604D01*
X144064427Y-172673607D01*
X144054500Y-172741740D01*
X144054500Y-174558260D01*
X144059289Y-174591127D01*
X144064427Y-174626395D01*
X144115801Y-174731481D01*
X144115802Y-174731483D01*
X144170505Y-174786186D01*
X144198281Y-174840701D01*
X144199500Y-174856188D01*
X144199500Y-176750500D01*
X144180593Y-176808691D01*
X144131093Y-176844655D01*
X144100500Y-176849500D01*
X144095725Y-176849500D01*
X144065305Y-176852353D01*
X144065296Y-176852355D01*
X143937116Y-176897207D01*
X143827855Y-176977845D01*
X143827845Y-176977855D01*
X143747207Y-177087116D01*
X143702355Y-177215296D01*
X143702353Y-177215305D01*
X143699500Y-177245725D01*
X88600500Y-177245725D01*
X88600500Y-161849000D01*
X88619407Y-161790809D01*
X88668907Y-161754845D01*
X88699500Y-161750000D01*
X90343541Y-161750000D01*
X90401732Y-161768907D01*
X90437696Y-161818407D01*
X90440639Y-161868314D01*
X90430500Y-161919283D01*
X90430500Y-162080716D01*
X90461993Y-162239038D01*
X90461993Y-162239040D01*
X90523767Y-162388176D01*
X90523768Y-162388178D01*
X90523769Y-162388179D01*
X90613453Y-162522401D01*
X90727599Y-162636547D01*
X90727602Y-162636549D01*
X90727603Y-162636550D01*
X90774199Y-162667685D01*
X90812078Y-162715735D01*
X90814480Y-162776873D01*
X90780487Y-162827747D01*
X90774199Y-162832315D01*
X90727603Y-162863449D01*
X90613450Y-162977602D01*
X90523767Y-163111823D01*
X90461993Y-163260959D01*
X90461993Y-163260961D01*
X90430500Y-163419283D01*
X90430500Y-163580716D01*
X90461993Y-163739038D01*
X90461993Y-163739040D01*
X90523767Y-163888176D01*
X90523768Y-163888178D01*
X90523769Y-163888179D01*
X90613453Y-164022401D01*
X90727599Y-164136547D01*
X90727602Y-164136549D01*
X90727603Y-164136550D01*
X90774199Y-164167685D01*
X90812078Y-164215735D01*
X90814480Y-164276873D01*
X90780487Y-164327747D01*
X90774199Y-164332315D01*
X90727603Y-164363449D01*
X90613450Y-164477602D01*
X90523767Y-164611823D01*
X90461993Y-164760959D01*
X90461993Y-164760961D01*
X90430500Y-164919283D01*
X90430500Y-165080716D01*
X90461993Y-165239038D01*
X90461993Y-165239040D01*
X90523767Y-165388176D01*
X90523768Y-165388178D01*
X90523769Y-165388179D01*
X90613453Y-165522401D01*
X90727599Y-165636547D01*
X90727602Y-165636549D01*
X90727603Y-165636550D01*
X90774199Y-165667685D01*
X90812078Y-165715735D01*
X90814480Y-165776873D01*
X90780487Y-165827747D01*
X90774199Y-165832315D01*
X90727603Y-165863449D01*
X90613450Y-165977602D01*
X90523767Y-166111823D01*
X90461993Y-166260959D01*
X90461993Y-166260961D01*
X90430500Y-166419283D01*
X90430500Y-166419286D01*
X90430500Y-166580714D01*
X90460412Y-166731093D01*
X90461993Y-166739038D01*
X90461993Y-166739040D01*
X90523767Y-166888176D01*
X90523768Y-166888178D01*
X90523769Y-166888179D01*
X90613453Y-167022401D01*
X90727599Y-167136547D01*
X90727602Y-167136549D01*
X90727603Y-167136550D01*
X90774199Y-167167685D01*
X90812078Y-167215735D01*
X90814480Y-167276873D01*
X90780487Y-167327747D01*
X90774199Y-167332315D01*
X90727603Y-167363449D01*
X90613450Y-167477602D01*
X90523767Y-167611823D01*
X90461993Y-167760959D01*
X90461993Y-167760961D01*
X90430500Y-167919283D01*
X90430500Y-168080716D01*
X90461993Y-168239038D01*
X90461993Y-168239040D01*
X90523767Y-168388176D01*
X90604859Y-168509540D01*
X90613453Y-168522401D01*
X90727599Y-168636547D01*
X90861821Y-168726231D01*
X91010961Y-168788007D01*
X91169286Y-168819500D01*
X91169287Y-168819500D01*
X91330713Y-168819500D01*
X91330714Y-168819500D01*
X91489039Y-168788007D01*
X91638179Y-168726231D01*
X91772401Y-168636547D01*
X91886547Y-168522401D01*
X91976231Y-168388179D01*
X91987235Y-168361612D01*
X92026972Y-168315088D01*
X92078699Y-168300500D01*
X136199521Y-168300500D01*
X136257712Y-168319407D01*
X136269525Y-168329496D01*
X141485504Y-173545475D01*
X141513281Y-173599992D01*
X141514500Y-173615479D01*
X141514500Y-174558260D01*
X141519289Y-174591127D01*
X141524427Y-174626395D01*
X141575801Y-174731481D01*
X141575802Y-174731483D01*
X141658517Y-174814198D01*
X141712285Y-174840483D01*
X141763604Y-174865572D01*
X141763605Y-174865572D01*
X141763607Y-174865573D01*
X141831740Y-174875500D01*
X141831743Y-174875500D01*
X142198257Y-174875500D01*
X142198260Y-174875500D01*
X142266393Y-174865573D01*
X142371483Y-174814198D01*
X142454198Y-174731483D01*
X142505573Y-174626393D01*
X142515500Y-174558260D01*
X142515500Y-172741740D01*
X142505573Y-172673607D01*
X142454198Y-172568517D01*
X142371483Y-172485802D01*
X142369583Y-172484873D01*
X142266395Y-172434427D01*
X142236647Y-172430093D01*
X142198260Y-172424500D01*
X141831740Y-172424500D01*
X141797673Y-172429463D01*
X141763604Y-172434427D01*
X141658518Y-172485801D01*
X141575800Y-172568519D01*
X141575798Y-172568522D01*
X141565343Y-172589908D01*
X141522799Y-172633881D01*
X141462533Y-172644448D01*
X141407565Y-172617574D01*
X141406400Y-172616429D01*
X139093471Y-170303500D01*
X136549511Y-167759540D01*
X136549508Y-167759538D01*
X136480992Y-167719980D01*
X136480988Y-167719978D01*
X136404564Y-167699500D01*
X136404562Y-167699500D01*
X92078699Y-167699500D01*
X92059062Y-167693119D01*
X92038526Y-167690983D01*
X92032051Y-167684343D01*
X92020508Y-167680593D01*
X91993014Y-167650089D01*
X91989736Y-167644425D01*
X91976231Y-167611821D01*
X91936160Y-167551851D01*
X91934562Y-167549089D01*
X91928805Y-167522145D01*
X91921323Y-167495613D01*
X91922472Y-167492498D01*
X91921779Y-167489254D01*
X91932961Y-167464066D01*
X91942501Y-167438210D01*
X91945259Y-167436366D01*
X91946607Y-167433332D01*
X91970467Y-167419523D01*
X91993375Y-167404217D01*
X91998027Y-167403573D01*
X91999563Y-167402685D01*
X92002352Y-167402975D01*
X92020247Y-167400500D01*
X137594520Y-167400500D01*
X137652711Y-167419407D01*
X137664524Y-167429496D01*
X142781945Y-172546917D01*
X142809722Y-172601434D01*
X142800884Y-172660397D01*
X142800883Y-172660400D01*
X142794427Y-172673607D01*
X142784500Y-172741740D01*
X142784500Y-174558260D01*
X142789289Y-174591127D01*
X142794427Y-174626395D01*
X142845801Y-174731481D01*
X142845802Y-174731483D01*
X142928517Y-174814198D01*
X142982285Y-174840483D01*
X143033604Y-174865572D01*
X143033605Y-174865572D01*
X143033607Y-174865573D01*
X143101740Y-174875500D01*
X143101743Y-174875500D01*
X143468257Y-174875500D01*
X143468260Y-174875500D01*
X143536393Y-174865573D01*
X143641483Y-174814198D01*
X143724198Y-174731483D01*
X143775573Y-174626393D01*
X143785500Y-174558260D01*
X143785500Y-172741740D01*
X143775573Y-172673607D01*
X143724198Y-172568517D01*
X143641483Y-172485802D01*
X143626557Y-172478505D01*
X143536387Y-172434424D01*
X143535220Y-172434064D01*
X143533380Y-172432954D01*
X143529486Y-172431051D01*
X143529653Y-172430707D01*
X143494454Y-172409484D01*
X138294474Y-167209504D01*
X138266697Y-167154987D01*
X138276268Y-167094555D01*
X138319533Y-167051290D01*
X138364478Y-167040500D01*
X150745522Y-167040500D01*
X150803713Y-167059407D01*
X150839677Y-167108907D01*
X150839677Y-167170093D01*
X150815526Y-167209504D01*
X145640489Y-172384541D01*
X145615544Y-172409484D01*
X145580345Y-172430707D01*
X145580513Y-172431051D01*
X145576616Y-172432955D01*
X145574777Y-172434065D01*
X145573609Y-172434425D01*
X145468518Y-172485801D01*
X145385801Y-172568518D01*
X145334427Y-172673604D01*
X145334427Y-172673607D01*
X145324500Y-172741740D01*
X145324500Y-174558260D01*
X145329289Y-174591127D01*
X145334427Y-174626395D01*
X145385801Y-174731481D01*
X145385802Y-174731483D01*
X145468517Y-174814198D01*
X145522285Y-174840483D01*
X145573604Y-174865572D01*
X145573605Y-174865572D01*
X145573607Y-174865573D01*
X145641740Y-174875500D01*
X145641743Y-174875500D01*
X146008257Y-174875500D01*
X146008260Y-174875500D01*
X146076393Y-174865573D01*
X146181483Y-174814198D01*
X146264198Y-174731483D01*
X146315573Y-174626393D01*
X146325500Y-174558260D01*
X146325500Y-172741740D01*
X146594500Y-172741740D01*
X146594500Y-174558260D01*
X146599289Y-174591127D01*
X146604427Y-174626395D01*
X146655801Y-174731481D01*
X146655802Y-174731483D01*
X146738517Y-174814198D01*
X146792285Y-174840483D01*
X146843604Y-174865572D01*
X146843605Y-174865572D01*
X146843607Y-174865573D01*
X146911740Y-174875500D01*
X146911743Y-174875500D01*
X147278257Y-174875500D01*
X147278260Y-174875500D01*
X147346393Y-174865573D01*
X147451483Y-174814198D01*
X147534198Y-174731483D01*
X147585573Y-174626393D01*
X147595500Y-174558260D01*
X147595500Y-172741740D01*
X147585573Y-172673607D01*
X147579117Y-172660400D01*
X147570546Y-172599818D01*
X147598052Y-172546918D01*
X151815476Y-168329496D01*
X151869993Y-168301719D01*
X151885480Y-168300500D01*
X152048085Y-168300500D01*
X152106276Y-168319407D01*
X152142240Y-168368907D01*
X152142240Y-168430093D01*
X152106276Y-168479593D01*
X152097585Y-168485236D01*
X152055492Y-168509538D01*
X152055490Y-168509540D01*
X148180489Y-172384541D01*
X148155544Y-172409484D01*
X148120345Y-172430707D01*
X148120513Y-172431051D01*
X148116616Y-172432955D01*
X148114777Y-172434065D01*
X148113609Y-172434425D01*
X148008518Y-172485801D01*
X147925801Y-172568518D01*
X147874427Y-172673604D01*
X147874427Y-172673607D01*
X147864500Y-172741740D01*
X147864500Y-174558260D01*
X147869289Y-174591127D01*
X147874427Y-174626395D01*
X147925801Y-174731481D01*
X147925802Y-174731483D01*
X148008517Y-174814198D01*
X148062285Y-174840483D01*
X148113604Y-174865572D01*
X148113605Y-174865572D01*
X148113607Y-174865573D01*
X148181740Y-174875500D01*
X148181743Y-174875500D01*
X148548257Y-174875500D01*
X148548260Y-174875500D01*
X148616393Y-174865573D01*
X148721483Y-174814198D01*
X148804198Y-174731483D01*
X148855573Y-174626393D01*
X148865500Y-174558260D01*
X148865500Y-172741740D01*
X148855573Y-172673607D01*
X148849117Y-172660400D01*
X148840546Y-172599818D01*
X148868052Y-172546918D01*
X152335476Y-169079496D01*
X152389993Y-169051719D01*
X152405480Y-169050500D01*
X152568084Y-169050500D01*
X152626275Y-169069407D01*
X152662239Y-169118907D01*
X152662239Y-169180093D01*
X152626275Y-169229593D01*
X152617584Y-169235236D01*
X152575494Y-169259536D01*
X152575490Y-169259540D01*
X149450489Y-172384541D01*
X149425544Y-172409484D01*
X149390345Y-172430707D01*
X149390513Y-172431051D01*
X149386616Y-172432955D01*
X149384777Y-172434065D01*
X149383609Y-172434425D01*
X149278518Y-172485801D01*
X149195801Y-172568518D01*
X149144427Y-172673604D01*
X149144427Y-172673607D01*
X149134500Y-172741740D01*
X149134500Y-174558260D01*
X149139289Y-174591127D01*
X149144427Y-174626395D01*
X149195801Y-174731481D01*
X149195802Y-174731483D01*
X149278517Y-174814198D01*
X149332285Y-174840483D01*
X149383604Y-174865572D01*
X149383605Y-174865572D01*
X149383607Y-174865573D01*
X149451740Y-174875500D01*
X149451743Y-174875500D01*
X149818257Y-174875500D01*
X149818260Y-174875500D01*
X149886393Y-174865573D01*
X149991483Y-174814198D01*
X150074198Y-174731483D01*
X150125573Y-174626393D01*
X150135500Y-174558260D01*
X150135500Y-172741740D01*
X150125573Y-172673607D01*
X150119117Y-172660400D01*
X150110546Y-172599818D01*
X150138052Y-172546918D01*
X152855476Y-169829496D01*
X152909993Y-169801719D01*
X152925480Y-169800500D01*
X176334521Y-169800500D01*
X176392712Y-169819407D01*
X176404525Y-169829496D01*
X185759540Y-179184511D01*
X185759539Y-179184511D01*
X185815489Y-179240460D01*
X185884007Y-179280019D01*
X185884011Y-179280021D01*
X185960435Y-179300499D01*
X185960437Y-179300500D01*
X185960438Y-179300500D01*
X303874521Y-179300500D01*
X303932712Y-179319407D01*
X303944525Y-179329496D01*
X317614743Y-192999714D01*
X317642520Y-193054231D01*
X317633427Y-193111643D01*
X317633932Y-193111853D01*
X317633061Y-193113955D01*
X317632949Y-193114663D01*
X317632072Y-193116343D01*
X317577381Y-193248378D01*
X317577381Y-193248380D01*
X317549500Y-193388542D01*
X317549500Y-193531457D01*
X317554412Y-193556149D01*
X317574780Y-193658546D01*
X317577381Y-193671619D01*
X317577381Y-193671621D01*
X317632068Y-193803648D01*
X317632074Y-193803659D01*
X317677229Y-193871237D01*
X317711468Y-193922479D01*
X317812521Y-194023532D01*
X317851246Y-194049407D01*
X317931340Y-194102925D01*
X317931351Y-194102931D01*
X317980121Y-194123132D01*
X318063380Y-194157619D01*
X318203545Y-194185500D01*
X318203546Y-194185500D01*
X318796454Y-194185500D01*
X318796455Y-194185500D01*
X318936620Y-194157619D01*
X319068653Y-194102929D01*
X319187479Y-194023532D01*
X319288532Y-193922479D01*
X319367929Y-193803653D01*
X319422619Y-193671620D01*
X319450500Y-193531455D01*
X319450500Y-193388545D01*
X319422619Y-193248380D01*
X319374934Y-193133259D01*
X319367931Y-193116351D01*
X319367925Y-193116340D01*
X319315060Y-193037223D01*
X319288532Y-192997521D01*
X319187479Y-192896468D01*
X319140143Y-192864839D01*
X319068659Y-192817074D01*
X319068648Y-192817068D01*
X318936620Y-192762381D01*
X318796457Y-192734500D01*
X318796455Y-192734500D01*
X318240479Y-192734500D01*
X318182288Y-192715593D01*
X318170475Y-192705504D01*
X311399482Y-185934511D01*
X304224511Y-178759540D01*
X304224508Y-178759538D01*
X304155992Y-178719980D01*
X304155988Y-178719978D01*
X304079564Y-178699500D01*
X304079562Y-178699500D01*
X186165479Y-178699500D01*
X186107288Y-178680593D01*
X186095475Y-178670504D01*
X181395515Y-173970544D01*
X176684511Y-169259540D01*
X176684508Y-169259538D01*
X176642416Y-169235236D01*
X176601475Y-169189766D01*
X176595079Y-169128916D01*
X176625672Y-169075928D01*
X176681568Y-169051042D01*
X176691916Y-169050500D01*
X183834521Y-169050500D01*
X183892712Y-169069407D01*
X183904525Y-169079496D01*
X190065489Y-175240460D01*
X190065491Y-175240461D01*
X190065492Y-175240462D01*
X190065493Y-175240463D01*
X190134008Y-175280020D01*
X190134006Y-175280020D01*
X190134010Y-175280021D01*
X190134012Y-175280022D01*
X190210438Y-175300500D01*
X349834521Y-175300500D01*
X349892712Y-175319407D01*
X349904525Y-175329496D01*
X368114743Y-193539714D01*
X368142520Y-193594231D01*
X368133427Y-193651643D01*
X368133932Y-193651853D01*
X368133061Y-193653955D01*
X368132949Y-193654663D01*
X368132072Y-193656343D01*
X368077381Y-193788378D01*
X368077381Y-193788380D01*
X368049500Y-193928542D01*
X368049500Y-194071457D01*
X368077381Y-194211619D01*
X368077381Y-194211621D01*
X368132068Y-194343648D01*
X368132074Y-194343659D01*
X368165620Y-194393863D01*
X368211468Y-194462479D01*
X368312521Y-194563532D01*
X368371477Y-194602925D01*
X368431340Y-194642925D01*
X368431351Y-194642931D01*
X368480121Y-194663132D01*
X368563380Y-194697619D01*
X368703545Y-194725500D01*
X368703546Y-194725500D01*
X369296454Y-194725500D01*
X369296455Y-194725500D01*
X369436620Y-194697619D01*
X369568653Y-194642929D01*
X369687479Y-194563532D01*
X369788532Y-194462479D01*
X369867929Y-194343653D01*
X369922619Y-194211620D01*
X369950500Y-194071455D01*
X369950500Y-193928545D01*
X369922619Y-193788380D01*
X369875883Y-193675549D01*
X369867931Y-193656351D01*
X369867925Y-193656340D01*
X369818433Y-193582271D01*
X369788532Y-193537521D01*
X369687479Y-193436468D01*
X369633655Y-193400504D01*
X369568659Y-193357074D01*
X369568648Y-193357068D01*
X369436620Y-193302381D01*
X369296457Y-193274500D01*
X369296455Y-193274500D01*
X368740479Y-193274500D01*
X368682288Y-193255593D01*
X368670475Y-193245504D01*
X360845475Y-185420504D01*
X350184511Y-174759540D01*
X350173324Y-174753081D01*
X350115992Y-174719980D01*
X350115988Y-174719978D01*
X350039564Y-174699500D01*
X350039562Y-174699500D01*
X190415479Y-174699500D01*
X190357288Y-174680593D01*
X190345475Y-174670504D01*
X187293589Y-171618618D01*
X184184511Y-168509540D01*
X184184508Y-168509538D01*
X184142416Y-168485236D01*
X184101475Y-168439766D01*
X184095079Y-168378916D01*
X184125672Y-168325928D01*
X184181568Y-168301042D01*
X184191916Y-168300500D01*
X194834521Y-168300500D01*
X194892712Y-168319407D01*
X194904525Y-168329496D01*
X198509540Y-171934511D01*
X198509539Y-171934511D01*
X198565489Y-171990460D01*
X198634007Y-172030019D01*
X198634011Y-172030021D01*
X198710435Y-172050499D01*
X198710437Y-172050500D01*
X198710438Y-172050500D01*
X198789562Y-172050500D01*
X397624521Y-172050500D01*
X397682712Y-172069407D01*
X397694525Y-172079496D01*
X418614743Y-192999714D01*
X418642520Y-193054231D01*
X418633427Y-193111643D01*
X418633932Y-193111853D01*
X418633061Y-193113955D01*
X418632949Y-193114663D01*
X418632072Y-193116343D01*
X418577381Y-193248378D01*
X418577381Y-193248380D01*
X418549500Y-193388542D01*
X418549500Y-193531457D01*
X418554412Y-193556149D01*
X418574780Y-193658546D01*
X418577381Y-193671619D01*
X418577381Y-193671621D01*
X418632068Y-193803648D01*
X418632074Y-193803659D01*
X418677229Y-193871237D01*
X418711468Y-193922479D01*
X418812521Y-194023532D01*
X418851246Y-194049407D01*
X418931340Y-194102925D01*
X418931351Y-194102931D01*
X418980121Y-194123132D01*
X419063380Y-194157619D01*
X419203545Y-194185500D01*
X419203546Y-194185500D01*
X419796454Y-194185500D01*
X419796455Y-194185500D01*
X419936620Y-194157619D01*
X420068653Y-194102929D01*
X420187479Y-194023532D01*
X420288532Y-193922479D01*
X420367929Y-193803653D01*
X420422619Y-193671620D01*
X420450500Y-193531455D01*
X420450500Y-193388545D01*
X420422619Y-193248380D01*
X420374934Y-193133259D01*
X420367931Y-193116351D01*
X420367925Y-193116340D01*
X420315060Y-193037223D01*
X420288532Y-192997521D01*
X420187479Y-192896468D01*
X420140143Y-192864839D01*
X420068659Y-192817074D01*
X420068648Y-192817068D01*
X419936620Y-192762381D01*
X419796457Y-192734500D01*
X419796455Y-192734500D01*
X419240479Y-192734500D01*
X419182288Y-192715593D01*
X419170475Y-192705504D01*
X409015228Y-182550257D01*
X397974511Y-171509540D01*
X397974508Y-171509538D01*
X397905992Y-171469980D01*
X397905988Y-171469978D01*
X397829564Y-171449500D01*
X397829562Y-171449500D01*
X198915479Y-171449500D01*
X198857288Y-171430593D01*
X198845475Y-171420504D01*
X197225471Y-169800500D01*
X195184511Y-167759540D01*
X195184508Y-167759538D01*
X195115992Y-167719980D01*
X195115988Y-167719978D01*
X195039564Y-167699500D01*
X195039562Y-167699500D01*
X151680439Y-167699500D01*
X151680436Y-167699500D01*
X151604012Y-167719978D01*
X151604008Y-167719980D01*
X151535492Y-167759538D01*
X151535490Y-167759540D01*
X146910489Y-172384541D01*
X146885544Y-172409484D01*
X146850345Y-172430707D01*
X146850513Y-172431051D01*
X146846616Y-172432955D01*
X146844777Y-172434065D01*
X146843609Y-172434425D01*
X146738518Y-172485801D01*
X146655801Y-172568518D01*
X146604427Y-172673604D01*
X146604427Y-172673607D01*
X146594500Y-172741740D01*
X146325500Y-172741740D01*
X146315573Y-172673607D01*
X146309117Y-172660400D01*
X146300546Y-172599818D01*
X146328052Y-172546918D01*
X151795476Y-167079496D01*
X151849993Y-167051719D01*
X151865480Y-167050500D01*
X442124521Y-167050500D01*
X442182712Y-167069407D01*
X442194525Y-167079496D01*
X468114743Y-192999714D01*
X468142520Y-193054231D01*
X468133427Y-193111643D01*
X468133932Y-193111853D01*
X468133061Y-193113955D01*
X468132949Y-193114663D01*
X468132072Y-193116343D01*
X468077381Y-193248378D01*
X468077381Y-193248380D01*
X468049500Y-193388542D01*
X468049500Y-193531457D01*
X468054412Y-193556149D01*
X468074780Y-193658546D01*
X468077381Y-193671619D01*
X468077381Y-193671621D01*
X468132068Y-193803648D01*
X468132074Y-193803659D01*
X468177229Y-193871237D01*
X468211468Y-193922479D01*
X468312521Y-194023532D01*
X468351246Y-194049407D01*
X468431340Y-194102925D01*
X468431351Y-194102931D01*
X468480121Y-194123132D01*
X468563380Y-194157619D01*
X468703545Y-194185500D01*
X468703546Y-194185500D01*
X469296454Y-194185500D01*
X469296455Y-194185500D01*
X469436620Y-194157619D01*
X469568653Y-194102929D01*
X469687479Y-194023532D01*
X469788532Y-193922479D01*
X469867929Y-193803653D01*
X469922619Y-193671620D01*
X469950500Y-193531455D01*
X469950500Y-193388545D01*
X469922619Y-193248380D01*
X469874934Y-193133259D01*
X469867931Y-193116351D01*
X469867925Y-193116340D01*
X469815060Y-193037223D01*
X469788532Y-192997521D01*
X469687479Y-192896468D01*
X469640143Y-192864839D01*
X469568659Y-192817074D01*
X469568648Y-192817068D01*
X469436620Y-192762381D01*
X469296457Y-192734500D01*
X469296455Y-192734500D01*
X468740479Y-192734500D01*
X468682288Y-192715593D01*
X468670475Y-192705504D01*
X458515228Y-182550257D01*
X442474511Y-166509540D01*
X442474508Y-166509538D01*
X442474507Y-166509537D01*
X442457192Y-166499541D01*
X442457192Y-166499540D01*
X442457188Y-166499539D01*
X442424728Y-166480798D01*
X442405988Y-166469978D01*
X442329564Y-166449500D01*
X442329562Y-166449500D01*
X154946447Y-166449500D01*
X154888256Y-166430593D01*
X154852292Y-166381093D01*
X154852292Y-166319907D01*
X154876443Y-166280497D01*
X155588088Y-165568850D01*
X155613534Y-165555884D01*
X155638425Y-165541826D01*
X155640582Y-165542102D01*
X155642605Y-165541072D01*
X155699212Y-165548797D01*
X155700409Y-165549343D01*
X155733607Y-165565573D01*
X155737051Y-165566074D01*
X155746662Y-165570463D01*
X155755047Y-165578157D01*
X155775543Y-165590513D01*
X155800489Y-165615459D01*
X155800491Y-165615460D01*
X155869007Y-165655018D01*
X155869011Y-165655020D01*
X155945435Y-165675498D01*
X155945437Y-165675499D01*
X155945438Y-165675499D01*
X156024563Y-165675499D01*
X156024563Y-165675498D01*
X156100989Y-165655020D01*
X156169511Y-165615459D01*
X156194452Y-165590517D01*
X156229653Y-165569294D01*
X156229485Y-165568950D01*
X156233398Y-165567036D01*
X156235231Y-165565932D01*
X156236391Y-165565573D01*
X156236393Y-165565573D01*
X156341483Y-165514198D01*
X156424198Y-165431483D01*
X156475573Y-165326393D01*
X156485500Y-165258260D01*
X156485500Y-163441740D01*
X156475573Y-163373607D01*
X156468240Y-163358608D01*
X156439500Y-163299818D01*
X156424198Y-163268517D01*
X156341483Y-163185802D01*
X156330867Y-163180612D01*
X156236395Y-163134427D01*
X156206647Y-163130093D01*
X156168260Y-163124500D01*
X155801740Y-163124500D01*
X155801738Y-163124500D01*
X155798168Y-163124759D01*
X155798078Y-163123517D01*
X155742552Y-163114000D01*
X155699839Y-163070190D01*
X155691034Y-163009642D01*
X155718605Y-162956365D01*
X156345475Y-162329496D01*
X156399992Y-162301719D01*
X156415479Y-162300500D01*
X465169563Y-162300500D01*
X465169563Y-162300499D01*
X465245989Y-162280021D01*
X465314511Y-162240460D01*
X465370460Y-162184511D01*
X480400474Y-147154495D01*
X480454991Y-147126719D01*
X480470478Y-147125500D01*
X481026454Y-147125500D01*
X481026455Y-147125500D01*
X481166620Y-147097619D01*
X481298653Y-147042929D01*
X481417479Y-146963532D01*
X481518532Y-146862479D01*
X481597929Y-146743653D01*
X481652619Y-146611620D01*
X481680500Y-146471455D01*
X481680500Y-146328545D01*
X481652619Y-146188380D01*
X481612666Y-146091924D01*
X481597931Y-146056351D01*
X481597925Y-146056340D01*
X481545837Y-145978386D01*
X481518532Y-145937521D01*
X481417479Y-145836468D01*
X481370143Y-145804839D01*
X481298659Y-145757074D01*
X481298648Y-145757068D01*
X481166620Y-145702381D01*
X481026457Y-145674500D01*
X481026455Y-145674500D01*
X480433545Y-145674500D01*
X480433542Y-145674500D01*
X480293380Y-145702381D01*
X480293378Y-145702381D01*
X480161351Y-145757068D01*
X480161340Y-145757074D01*
X480042521Y-145836468D01*
X480042517Y-145836471D01*
X479941471Y-145937517D01*
X479941468Y-145937521D01*
X479862074Y-146056340D01*
X479862068Y-146056351D01*
X479807381Y-146188378D01*
X479807381Y-146188380D01*
X479779500Y-146328542D01*
X479779500Y-146471457D01*
X479796790Y-146558378D01*
X479805771Y-146603528D01*
X479807381Y-146611619D01*
X479807381Y-146611621D01*
X479863932Y-146748147D01*
X479862931Y-146748561D01*
X479872806Y-146803837D01*
X479846108Y-146858890D01*
X479844743Y-146860284D01*
X465034525Y-161670504D01*
X464980008Y-161698281D01*
X464964521Y-161699500D01*
X156210435Y-161699500D01*
X156134011Y-161719978D01*
X156087027Y-161747104D01*
X156072487Y-161755500D01*
X156065493Y-161759537D01*
X156065489Y-161759540D01*
X154729525Y-163095504D01*
X154675008Y-163123281D01*
X154659521Y-163124500D01*
X154531740Y-163124500D01*
X154497673Y-163129463D01*
X154463604Y-163134427D01*
X154358518Y-163185801D01*
X154275801Y-163268518D01*
X154224427Y-163373604D01*
X154221241Y-163395473D01*
X154214500Y-163441740D01*
X154214500Y-165258260D01*
X154221118Y-165303682D01*
X154224427Y-165326395D01*
X154254632Y-165388179D01*
X154275802Y-165431483D01*
X154358517Y-165514198D01*
X154463607Y-165565573D01*
X154510842Y-165572455D01*
X154565698Y-165599553D01*
X154594149Y-165653721D01*
X154585329Y-165714267D01*
X154566572Y-165740423D01*
X154287493Y-166019503D01*
X154232976Y-166047281D01*
X154217489Y-166048500D01*
X151905663Y-166048500D01*
X151573463Y-166048500D01*
X151494339Y-166048500D01*
X151447562Y-166061033D01*
X151417908Y-166068979D01*
X151349394Y-166108536D01*
X151349389Y-166108540D01*
X151114489Y-166343439D01*
X151114490Y-166343440D01*
X151047426Y-166410504D01*
X150992909Y-166438281D01*
X150977422Y-166439500D01*
X138132578Y-166439500D01*
X138074387Y-166420593D01*
X138062574Y-166410504D01*
X137745510Y-166093440D01*
X137745510Y-166093439D01*
X137510609Y-165858539D01*
X137442091Y-165818980D01*
X137442087Y-165818978D01*
X137365663Y-165798500D01*
X137365661Y-165798500D01*
X137033461Y-165798500D01*
X97014479Y-165798500D01*
X96956288Y-165779593D01*
X96944475Y-165769504D01*
X95311518Y-164136547D01*
X93609079Y-162434108D01*
X95749500Y-162434108D01*
X95749500Y-162565892D01*
X95768433Y-162636550D01*
X95783609Y-162693190D01*
X95849496Y-162807309D01*
X95849498Y-162807311D01*
X95849500Y-162807314D01*
X95942686Y-162900500D01*
X95942688Y-162900501D01*
X95942690Y-162900503D01*
X96056810Y-162966390D01*
X96056808Y-162966390D01*
X96056812Y-162966391D01*
X96056814Y-162966392D01*
X96184108Y-163000500D01*
X96184110Y-163000500D01*
X96302679Y-163000500D01*
X96360870Y-163019407D01*
X96396834Y-163068907D01*
X96396834Y-163130093D01*
X96372684Y-163169501D01*
X96361055Y-163181131D01*
X96349497Y-163192689D01*
X96349496Y-163192690D01*
X96283609Y-163306809D01*
X96283608Y-163306814D01*
X96249500Y-163434108D01*
X96249500Y-163565892D01*
X96279579Y-163678151D01*
X96283609Y-163693190D01*
X96349496Y-163807309D01*
X96349498Y-163807311D01*
X96349500Y-163807314D01*
X96442686Y-163900500D01*
X96442688Y-163900501D01*
X96442690Y-163900503D01*
X96556810Y-163966390D01*
X96556808Y-163966390D01*
X96556812Y-163966391D01*
X96556814Y-163966392D01*
X96684108Y-164000500D01*
X96684110Y-164000500D01*
X96815890Y-164000500D01*
X96815892Y-164000500D01*
X96943186Y-163966392D01*
X96943188Y-163966390D01*
X96943190Y-163966390D01*
X97057309Y-163900503D01*
X97057309Y-163900502D01*
X97057314Y-163900500D01*
X97150500Y-163807314D01*
X97216392Y-163693186D01*
X97250500Y-163565892D01*
X97250500Y-163465477D01*
X97252968Y-163457879D01*
X97251719Y-163449989D01*
X97262242Y-163429335D01*
X97269407Y-163407286D01*
X97279497Y-163395473D01*
X97321475Y-163353496D01*
X97375992Y-163325719D01*
X97391478Y-163324500D01*
X142190489Y-163324500D01*
X142248680Y-163343407D01*
X142260493Y-163353496D01*
X142755504Y-163848507D01*
X142783281Y-163903024D01*
X142784500Y-163918511D01*
X142784500Y-165258260D01*
X142791118Y-165303682D01*
X142794427Y-165326395D01*
X142824632Y-165388179D01*
X142845802Y-165431483D01*
X142928517Y-165514198D01*
X142945297Y-165522401D01*
X143033604Y-165565572D01*
X143033605Y-165565572D01*
X143033607Y-165565573D01*
X143101740Y-165575500D01*
X143101743Y-165575500D01*
X143468257Y-165575500D01*
X143468260Y-165575500D01*
X143536393Y-165565573D01*
X143641483Y-165514198D01*
X143724198Y-165431483D01*
X143775573Y-165326393D01*
X143785500Y-165258260D01*
X143785500Y-163441740D01*
X143775573Y-163373607D01*
X143768240Y-163358608D01*
X143739500Y-163299818D01*
X143724198Y-163268517D01*
X143641483Y-163185802D01*
X143630867Y-163180612D01*
X143536395Y-163134427D01*
X143506647Y-163130093D01*
X143468260Y-163124500D01*
X143101740Y-163124500D01*
X143063353Y-163130093D01*
X143033604Y-163134427D01*
X143033602Y-163134428D01*
X143001570Y-163150087D01*
X142940987Y-163158656D01*
X142888088Y-163131149D01*
X142725495Y-162968556D01*
X142725495Y-162968555D01*
X142540479Y-162783540D01*
X142510621Y-162766301D01*
X142510605Y-162766292D01*
X142509125Y-162765438D01*
X142471957Y-162743979D01*
X142465330Y-162742203D01*
X142455361Y-162736899D01*
X142441571Y-162722612D01*
X142424922Y-162711798D01*
X142420820Y-162701111D01*
X142412870Y-162692874D01*
X142410112Y-162673212D01*
X142402998Y-162654676D01*
X142405961Y-162643617D01*
X142404372Y-162632281D01*
X142413698Y-162614753D01*
X142418838Y-162595576D01*
X142427734Y-162588372D01*
X142433112Y-162578266D01*
X142450960Y-162569567D01*
X142466390Y-162557074D01*
X142482854Y-162554022D01*
X142488113Y-162551460D01*
X142492501Y-162552234D01*
X142501863Y-162550500D01*
X143314520Y-162550500D01*
X143372711Y-162569407D01*
X143384524Y-162579496D01*
X144051945Y-163246917D01*
X144079722Y-163301434D01*
X144070884Y-163360397D01*
X144070883Y-163360400D01*
X144064427Y-163373607D01*
X144054500Y-163441740D01*
X144054500Y-165258260D01*
X144061118Y-165303682D01*
X144064427Y-165326395D01*
X144094632Y-165388179D01*
X144115802Y-165431483D01*
X144198517Y-165514198D01*
X144215297Y-165522401D01*
X144303604Y-165565572D01*
X144303605Y-165565572D01*
X144303607Y-165565573D01*
X144371740Y-165575500D01*
X144371743Y-165575500D01*
X144738257Y-165575500D01*
X144738260Y-165575500D01*
X144806393Y-165565573D01*
X144911483Y-165514198D01*
X144994198Y-165431483D01*
X145045573Y-165326393D01*
X145055500Y-165258260D01*
X145055500Y-163441740D01*
X145045573Y-163373607D01*
X145038240Y-163358608D01*
X145009500Y-163299818D01*
X144994198Y-163268517D01*
X144911483Y-163185802D01*
X144855955Y-163158656D01*
X144806387Y-163134424D01*
X144805220Y-163134064D01*
X144803380Y-163132954D01*
X144799486Y-163131051D01*
X144799653Y-163130707D01*
X144764454Y-163109484D01*
X144739511Y-163084541D01*
X144205470Y-162550500D01*
X143664510Y-162009540D01*
X143664507Y-162009538D01*
X143647120Y-161999499D01*
X143647120Y-161999500D01*
X143595988Y-161969979D01*
X143595987Y-161969978D01*
X143595986Y-161969978D01*
X143519563Y-161949500D01*
X143519561Y-161949500D01*
X96460438Y-161949500D01*
X96460435Y-161949500D01*
X96384011Y-161969978D01*
X96384009Y-161969979D01*
X96355850Y-161986237D01*
X96306351Y-161999500D01*
X96184108Y-161999500D01*
X96106200Y-162020375D01*
X96056809Y-162033609D01*
X95942690Y-162099496D01*
X95849496Y-162192690D01*
X95783609Y-162306809D01*
X95777530Y-162329496D01*
X95749500Y-162434108D01*
X93609079Y-162434108D01*
X93093972Y-161919001D01*
X93066197Y-161864487D01*
X93075768Y-161804055D01*
X93119033Y-161760790D01*
X93163978Y-161750000D01*
X94579999Y-161750000D01*
X94580000Y-161750000D01*
X94670000Y-161660000D01*
X94670000Y-153219500D01*
X94688907Y-153161309D01*
X94738407Y-153125345D01*
X94769000Y-153120500D01*
X103645135Y-153120500D01*
X103703326Y-153139407D01*
X103731618Y-153177448D01*
X103733742Y-153176326D01*
X103737207Y-153182883D01*
X103817845Y-153292144D01*
X103817847Y-153292146D01*
X103817850Y-153292150D01*
X103817853Y-153292152D01*
X103817855Y-153292154D01*
X103927116Y-153372792D01*
X103927117Y-153372792D01*
X103927118Y-153372793D01*
X104055301Y-153417646D01*
X104085725Y-153420499D01*
X104085727Y-153420500D01*
X104085734Y-153420500D01*
X104894273Y-153420500D01*
X104894273Y-153420499D01*
X104924699Y-153417646D01*
X105052882Y-153372793D01*
X105162150Y-153292150D01*
X105242793Y-153182882D01*
X105287646Y-153054699D01*
X105290499Y-153024273D01*
X105290500Y-153024273D01*
X105290500Y-152015727D01*
X105290499Y-152015725D01*
X105689500Y-152015725D01*
X105689500Y-153024274D01*
X105692353Y-153054694D01*
X105692355Y-153054703D01*
X105737207Y-153182883D01*
X105817845Y-153292144D01*
X105817847Y-153292146D01*
X105817850Y-153292150D01*
X105817853Y-153292152D01*
X105817855Y-153292154D01*
X105927116Y-153372792D01*
X105927117Y-153372792D01*
X105927118Y-153372793D01*
X106055301Y-153417646D01*
X106085725Y-153420499D01*
X106085727Y-153420500D01*
X106085734Y-153420500D01*
X106894273Y-153420500D01*
X106894273Y-153420499D01*
X106924699Y-153417646D01*
X107052882Y-153372793D01*
X107162150Y-153292150D01*
X107242793Y-153182882D01*
X107287646Y-153054699D01*
X107290499Y-153024273D01*
X107290500Y-153024273D01*
X107290500Y-152919500D01*
X107295345Y-152904588D01*
X107295345Y-152888907D01*
X107304561Y-152876221D01*
X107309407Y-152861309D01*
X107322092Y-152852092D01*
X107331309Y-152839407D01*
X107346221Y-152834561D01*
X107358907Y-152825345D01*
X107389500Y-152820500D01*
X107575500Y-152820500D01*
X107633691Y-152839407D01*
X107669655Y-152888907D01*
X107674500Y-152919500D01*
X107674500Y-153004274D01*
X107677353Y-153034694D01*
X107677355Y-153034703D01*
X107722207Y-153162883D01*
X107802845Y-153272144D01*
X107802847Y-153272146D01*
X107802850Y-153272150D01*
X107802853Y-153272152D01*
X107802855Y-153272154D01*
X107912116Y-153352792D01*
X107912117Y-153352792D01*
X107912118Y-153352793D01*
X108040301Y-153397646D01*
X108070725Y-153400499D01*
X108070727Y-153400500D01*
X108070734Y-153400500D01*
X108829273Y-153400500D01*
X108829273Y-153400499D01*
X108859699Y-153397646D01*
X108987882Y-153352793D01*
X109097150Y-153272150D01*
X109177793Y-153162882D01*
X109222646Y-153034699D01*
X109225499Y-153004273D01*
X109225500Y-153004273D01*
X109225500Y-151995727D01*
X109225499Y-151995725D01*
X109224522Y-151985305D01*
X109222646Y-151965301D01*
X109177793Y-151837118D01*
X109165528Y-151820500D01*
X109097154Y-151727855D01*
X109097152Y-151727853D01*
X109097150Y-151727850D01*
X109097146Y-151727847D01*
X109097144Y-151727845D01*
X108987883Y-151647207D01*
X108859703Y-151602355D01*
X108859694Y-151602353D01*
X108829274Y-151599500D01*
X108829266Y-151599500D01*
X108070734Y-151599500D01*
X108070725Y-151599500D01*
X108040305Y-151602353D01*
X108040296Y-151602355D01*
X107912116Y-151647207D01*
X107802855Y-151727845D01*
X107802845Y-151727855D01*
X107722207Y-151837116D01*
X107677355Y-151965296D01*
X107677353Y-151965305D01*
X107674500Y-151995725D01*
X107674500Y-152120500D01*
X107669655Y-152135411D01*
X107669655Y-152151093D01*
X107660438Y-152163778D01*
X107655593Y-152178691D01*
X107642907Y-152187907D01*
X107633691Y-152200593D01*
X107618778Y-152205438D01*
X107606093Y-152214655D01*
X107575500Y-152219500D01*
X107389500Y-152219500D01*
X107331309Y-152200593D01*
X107295345Y-152151093D01*
X107290500Y-152120500D01*
X107290500Y-152015727D01*
X107290499Y-152015725D01*
X107288624Y-151995734D01*
X107287646Y-151985301D01*
X107242793Y-151857118D01*
X107238346Y-151851093D01*
X107162154Y-151747855D01*
X107162152Y-151747853D01*
X107162150Y-151747850D01*
X107162146Y-151747847D01*
X107162144Y-151747845D01*
X107052883Y-151667207D01*
X106924703Y-151622355D01*
X106924694Y-151622353D01*
X106894274Y-151619500D01*
X106894266Y-151619500D01*
X106085734Y-151619500D01*
X106085725Y-151619500D01*
X106055305Y-151622353D01*
X106055296Y-151622355D01*
X105927116Y-151667207D01*
X105817855Y-151747845D01*
X105817845Y-151747855D01*
X105737207Y-151857116D01*
X105692355Y-151985296D01*
X105692353Y-151985305D01*
X105689500Y-152015725D01*
X105290499Y-152015725D01*
X105288624Y-151995734D01*
X105287646Y-151985301D01*
X105242793Y-151857118D01*
X105238346Y-151851093D01*
X105162154Y-151747855D01*
X105162152Y-151747853D01*
X105162150Y-151747850D01*
X105162146Y-151747847D01*
X105162144Y-151747845D01*
X105052883Y-151667207D01*
X104924703Y-151622355D01*
X104924694Y-151622353D01*
X104894274Y-151619500D01*
X104894266Y-151619500D01*
X104085734Y-151619500D01*
X104085725Y-151619500D01*
X104055305Y-151622353D01*
X104055296Y-151622355D01*
X103927116Y-151667207D01*
X103817855Y-151747845D01*
X103817845Y-151747855D01*
X103737207Y-151857116D01*
X103733742Y-151863674D01*
X103731501Y-151862490D01*
X103701524Y-151901871D01*
X103645135Y-151919500D01*
X94769000Y-151919500D01*
X94710809Y-151900593D01*
X94674845Y-151851093D01*
X94670000Y-151820500D01*
X94670000Y-148990001D01*
X94670000Y-148990000D01*
X94570000Y-148890000D01*
X94569999Y-148890000D01*
X93912000Y-148890000D01*
X93853809Y-148871093D01*
X93817845Y-148821593D01*
X93813000Y-148791000D01*
X93813000Y-144876670D01*
X123118361Y-144876670D01*
X123118361Y-145123329D01*
X123150556Y-145367869D01*
X123150556Y-145367874D01*
X123214395Y-145606123D01*
X123214399Y-145606136D01*
X123308785Y-145834005D01*
X123308787Y-145834009D01*
X123308789Y-145834013D01*
X123430314Y-146044500D01*
X123432120Y-146047628D01*
X123468823Y-146095460D01*
X123582274Y-146243313D01*
X123756687Y-146417726D01*
X123952375Y-146567882D01*
X124165987Y-146691211D01*
X124165993Y-146691213D01*
X124165994Y-146691214D01*
X124183693Y-146698545D01*
X124393869Y-146785603D01*
X124632123Y-146849443D01*
X124876671Y-146881639D01*
X124876672Y-146881639D01*
X125123328Y-146881639D01*
X125123329Y-146881639D01*
X125367877Y-146849443D01*
X125606131Y-146785603D01*
X125834013Y-146691211D01*
X126047625Y-146567882D01*
X126243313Y-146417726D01*
X126417726Y-146243313D01*
X126452080Y-146198542D01*
X129689500Y-146198542D01*
X129689500Y-146198545D01*
X129689500Y-146341455D01*
X129715359Y-146471457D01*
X129717381Y-146481619D01*
X129717381Y-146481621D01*
X129772068Y-146613648D01*
X129772074Y-146613659D01*
X129793917Y-146646348D01*
X129851468Y-146732479D01*
X129952521Y-146833532D01*
X129995848Y-146862482D01*
X130071340Y-146912925D01*
X130071351Y-146912931D01*
X130120121Y-146933132D01*
X130203380Y-146967619D01*
X130343545Y-146995500D01*
X130343546Y-146995500D01*
X130899521Y-146995500D01*
X130957712Y-147014407D01*
X130969525Y-147024496D01*
X145495504Y-161550475D01*
X145523281Y-161604992D01*
X145524500Y-161620479D01*
X145524500Y-163096635D01*
X145505593Y-163154826D01*
X145474889Y-163180612D01*
X145475192Y-163181036D01*
X145469817Y-163184873D01*
X145468982Y-163185574D01*
X145468800Y-163185663D01*
X145468518Y-163185801D01*
X145385801Y-163268518D01*
X145334427Y-163373604D01*
X145331241Y-163395473D01*
X145324500Y-163441740D01*
X145324500Y-165258260D01*
X145331118Y-165303682D01*
X145334427Y-165326395D01*
X145364632Y-165388179D01*
X145385802Y-165431483D01*
X145468517Y-165514198D01*
X145485297Y-165522401D01*
X145573604Y-165565572D01*
X145573605Y-165565572D01*
X145573607Y-165565573D01*
X145641740Y-165575500D01*
X145641743Y-165575500D01*
X146008257Y-165575500D01*
X146008260Y-165575500D01*
X146076393Y-165565573D01*
X146181483Y-165514198D01*
X146264198Y-165431483D01*
X146315573Y-165326393D01*
X146325500Y-165258260D01*
X146325500Y-163441740D01*
X146594500Y-163441740D01*
X146594500Y-165258260D01*
X146601118Y-165303682D01*
X146604427Y-165326395D01*
X146634632Y-165388179D01*
X146655802Y-165431483D01*
X146738517Y-165514198D01*
X146755297Y-165522401D01*
X146843604Y-165565572D01*
X146843605Y-165565572D01*
X146843607Y-165565573D01*
X146911740Y-165575500D01*
X146911743Y-165575500D01*
X147278257Y-165575500D01*
X147278260Y-165575500D01*
X147346393Y-165565573D01*
X147451483Y-165514198D01*
X147534198Y-165431483D01*
X147585573Y-165326393D01*
X147595500Y-165258260D01*
X147595500Y-163441740D01*
X147864500Y-163441740D01*
X147864500Y-165258260D01*
X147871118Y-165303682D01*
X147874427Y-165326395D01*
X147904632Y-165388179D01*
X147925802Y-165431483D01*
X148008517Y-165514198D01*
X148025297Y-165522401D01*
X148113604Y-165565572D01*
X148113605Y-165565572D01*
X148113607Y-165565573D01*
X148181740Y-165575500D01*
X148181743Y-165575500D01*
X148548257Y-165575500D01*
X148548260Y-165575500D01*
X148616393Y-165565573D01*
X148721483Y-165514198D01*
X148804198Y-165431483D01*
X148855573Y-165326393D01*
X148865500Y-165258260D01*
X148865500Y-163441740D01*
X149134500Y-163441740D01*
X149134500Y-165258260D01*
X149141118Y-165303682D01*
X149144427Y-165326395D01*
X149174632Y-165388179D01*
X149195802Y-165431483D01*
X149278517Y-165514198D01*
X149295297Y-165522401D01*
X149383604Y-165565572D01*
X149383605Y-165565572D01*
X149383607Y-165565573D01*
X149451740Y-165575500D01*
X149451743Y-165575500D01*
X149818257Y-165575500D01*
X149818260Y-165575500D01*
X149886393Y-165565573D01*
X149991483Y-165514198D01*
X150074198Y-165431483D01*
X150125573Y-165326393D01*
X150135500Y-165258260D01*
X150135500Y-163580479D01*
X150137968Y-163572881D01*
X150136719Y-163564992D01*
X150147243Y-163544336D01*
X150154407Y-163522288D01*
X150164496Y-163510475D01*
X150235496Y-163439475D01*
X150290013Y-163411698D01*
X150350445Y-163421269D01*
X150393710Y-163464534D01*
X150404500Y-163509479D01*
X150404500Y-165258260D01*
X150411118Y-165303682D01*
X150414427Y-165326395D01*
X150444632Y-165388179D01*
X150465802Y-165431483D01*
X150548517Y-165514198D01*
X150565297Y-165522401D01*
X150653604Y-165565572D01*
X150653605Y-165565572D01*
X150653607Y-165565573D01*
X150721740Y-165575500D01*
X150721743Y-165575500D01*
X151088257Y-165575500D01*
X151088260Y-165575500D01*
X151156393Y-165565573D01*
X151261483Y-165514198D01*
X151344198Y-165431483D01*
X151395573Y-165326393D01*
X151405500Y-165258260D01*
X151405500Y-163441740D01*
X151674500Y-163441740D01*
X151674500Y-165258260D01*
X151681118Y-165303682D01*
X151684427Y-165326395D01*
X151714632Y-165388179D01*
X151735802Y-165431483D01*
X151818517Y-165514198D01*
X151835297Y-165522401D01*
X151923604Y-165565572D01*
X151923605Y-165565572D01*
X151923607Y-165565573D01*
X151991740Y-165575500D01*
X151991743Y-165575500D01*
X152358257Y-165575500D01*
X152358260Y-165575500D01*
X152426393Y-165565573D01*
X152531483Y-165514198D01*
X152614198Y-165431483D01*
X152665573Y-165326393D01*
X152675500Y-165258260D01*
X152675500Y-163441740D01*
X152665573Y-163373607D01*
X152659117Y-163360400D01*
X152650546Y-163299818D01*
X152678055Y-163246916D01*
X152975497Y-162949475D01*
X153030013Y-162921698D01*
X153090445Y-162931269D01*
X153133710Y-162974534D01*
X153144500Y-163019479D01*
X153144500Y-163096635D01*
X153125593Y-163154826D01*
X153094889Y-163180612D01*
X153095192Y-163181036D01*
X153089817Y-163184873D01*
X153088982Y-163185574D01*
X153088800Y-163185663D01*
X153088518Y-163185801D01*
X153005801Y-163268518D01*
X152954427Y-163373604D01*
X152951241Y-163395473D01*
X152944500Y-163441740D01*
X152944500Y-165258260D01*
X152951118Y-165303682D01*
X152954427Y-165326395D01*
X152984632Y-165388179D01*
X153005802Y-165431483D01*
X153088517Y-165514198D01*
X153105297Y-165522401D01*
X153193604Y-165565572D01*
X153193605Y-165565572D01*
X153193607Y-165565573D01*
X153261740Y-165575500D01*
X153261743Y-165575500D01*
X153628257Y-165575500D01*
X153628260Y-165575500D01*
X153696393Y-165565573D01*
X153801483Y-165514198D01*
X153884198Y-165431483D01*
X153935573Y-165326393D01*
X153945500Y-165258260D01*
X153945500Y-163441740D01*
X153935573Y-163373607D01*
X153928240Y-163358608D01*
X153899500Y-163299818D01*
X153884198Y-163268517D01*
X153801483Y-163185802D01*
X153801017Y-163185574D01*
X153800603Y-163185173D01*
X153794808Y-163181036D01*
X153795428Y-163180167D01*
X153783797Y-163168913D01*
X153764407Y-163154826D01*
X153762192Y-163148011D01*
X153757045Y-163143031D01*
X153745500Y-163096635D01*
X153745500Y-162970479D01*
X153764407Y-162912288D01*
X153774496Y-162900475D01*
X156095475Y-160579496D01*
X156149992Y-160551719D01*
X156165479Y-160550500D01*
X416199563Y-160550500D01*
X416199563Y-160550499D01*
X416275989Y-160530021D01*
X416344511Y-160490460D01*
X416400460Y-160434511D01*
X429310474Y-147524495D01*
X429364991Y-147496719D01*
X429380478Y-147495500D01*
X429936454Y-147495500D01*
X429936455Y-147495500D01*
X430076620Y-147467619D01*
X430208653Y-147412929D01*
X430327479Y-147333532D01*
X430428532Y-147232479D01*
X430507929Y-147113653D01*
X430562619Y-146981620D01*
X430590500Y-146841455D01*
X430590500Y-146698545D01*
X430562619Y-146558380D01*
X430530824Y-146481620D01*
X430507931Y-146426351D01*
X430507925Y-146426340D01*
X430451207Y-146341457D01*
X430428532Y-146307521D01*
X430327479Y-146206468D01*
X430265921Y-146165336D01*
X430208659Y-146127074D01*
X430208648Y-146127068D01*
X430076620Y-146072381D01*
X429936457Y-146044500D01*
X429936455Y-146044500D01*
X429343545Y-146044500D01*
X429343542Y-146044500D01*
X429203380Y-146072381D01*
X429203378Y-146072381D01*
X429071351Y-146127068D01*
X429071340Y-146127074D01*
X428952521Y-146206468D01*
X428952517Y-146206471D01*
X428851471Y-146307517D01*
X428851468Y-146307521D01*
X428772074Y-146426340D01*
X428772068Y-146426351D01*
X428717381Y-146558378D01*
X428717381Y-146558380D01*
X428689500Y-146698542D01*
X428689500Y-146841457D01*
X428717381Y-146981619D01*
X428717381Y-146981621D01*
X428773932Y-147118147D01*
X428772931Y-147118561D01*
X428782806Y-147173837D01*
X428756108Y-147228890D01*
X428754743Y-147230284D01*
X416064525Y-159920504D01*
X416010008Y-159948281D01*
X415994521Y-159949500D01*
X156214480Y-159949500D01*
X156156289Y-159930593D01*
X156120325Y-159881093D01*
X156120325Y-159819907D01*
X156144476Y-159780496D01*
X157095476Y-158829496D01*
X157149993Y-158801719D01*
X157165480Y-158800500D01*
X368449563Y-158800500D01*
X368449563Y-158800499D01*
X368525989Y-158780021D01*
X368594511Y-158740460D01*
X368650460Y-158684511D01*
X379810474Y-147524495D01*
X379864991Y-147496719D01*
X379880478Y-147495500D01*
X380436454Y-147495500D01*
X380436455Y-147495500D01*
X380576620Y-147467619D01*
X380708653Y-147412929D01*
X380827479Y-147333532D01*
X380928532Y-147232479D01*
X381007929Y-147113653D01*
X381062619Y-146981620D01*
X381090500Y-146841455D01*
X381090500Y-146698545D01*
X381062619Y-146558380D01*
X381030824Y-146481620D01*
X381007931Y-146426351D01*
X381007925Y-146426340D01*
X380951207Y-146341457D01*
X380928532Y-146307521D01*
X380827479Y-146206468D01*
X380765921Y-146165336D01*
X380708659Y-146127074D01*
X380708648Y-146127068D01*
X380576620Y-146072381D01*
X380436457Y-146044500D01*
X380436455Y-146044500D01*
X379843545Y-146044500D01*
X379843542Y-146044500D01*
X379703380Y-146072381D01*
X379703378Y-146072381D01*
X379571351Y-146127068D01*
X379571340Y-146127074D01*
X379452521Y-146206468D01*
X379452517Y-146206471D01*
X379351471Y-146307517D01*
X379351468Y-146307521D01*
X379272074Y-146426340D01*
X379272068Y-146426351D01*
X379217381Y-146558378D01*
X379217381Y-146558380D01*
X379189500Y-146698542D01*
X379189500Y-146841457D01*
X379217381Y-146981619D01*
X379217381Y-146981621D01*
X379273932Y-147118147D01*
X379272931Y-147118561D01*
X379282806Y-147173837D01*
X379256108Y-147228890D01*
X379254743Y-147230284D01*
X368314525Y-158170504D01*
X368260008Y-158198281D01*
X368244521Y-158199500D01*
X156960436Y-158199500D01*
X156884012Y-158219978D01*
X156884008Y-158219980D01*
X156815492Y-158259538D01*
X156815490Y-158259540D01*
X151990489Y-163084541D01*
X151965544Y-163109484D01*
X151930345Y-163130707D01*
X151930513Y-163131051D01*
X151926616Y-163132955D01*
X151924777Y-163134065D01*
X151923609Y-163134425D01*
X151818518Y-163185801D01*
X151735801Y-163268518D01*
X151684427Y-163373604D01*
X151681241Y-163395473D01*
X151674500Y-163441740D01*
X151405500Y-163441740D01*
X151395573Y-163373607D01*
X151389117Y-163360400D01*
X151380546Y-163299818D01*
X151408052Y-163246918D01*
X157825476Y-156829496D01*
X157879993Y-156801719D01*
X157895480Y-156800500D01*
X320039563Y-156800500D01*
X320039563Y-156800499D01*
X320115989Y-156780021D01*
X320184511Y-156740460D01*
X320240460Y-156684511D01*
X330260417Y-146664552D01*
X330314932Y-146636777D01*
X330375364Y-146646348D01*
X330385420Y-146652242D01*
X330431347Y-146682929D01*
X330431348Y-146682929D01*
X330431349Y-146682930D01*
X330451341Y-146691211D01*
X330563380Y-146737619D01*
X330703545Y-146765500D01*
X330703546Y-146765500D01*
X331296454Y-146765500D01*
X331296455Y-146765500D01*
X331436620Y-146737619D01*
X331568653Y-146682929D01*
X331687479Y-146603532D01*
X331788532Y-146502479D01*
X331867929Y-146383653D01*
X331922619Y-146251620D01*
X331950500Y-146111455D01*
X331950500Y-145968545D01*
X331922619Y-145828380D01*
X331893081Y-145757068D01*
X331867931Y-145696351D01*
X331867925Y-145696340D01*
X331821638Y-145627068D01*
X331788532Y-145577521D01*
X331687479Y-145476468D01*
X331640143Y-145444839D01*
X331568659Y-145397074D01*
X331568648Y-145397068D01*
X331436620Y-145342381D01*
X331296457Y-145314500D01*
X331296455Y-145314500D01*
X330703545Y-145314500D01*
X330703542Y-145314500D01*
X330563380Y-145342381D01*
X330563378Y-145342381D01*
X330431351Y-145397068D01*
X330431340Y-145397074D01*
X330312521Y-145476468D01*
X330312517Y-145476471D01*
X330211471Y-145577517D01*
X330211468Y-145577521D01*
X330132074Y-145696340D01*
X330132068Y-145696351D01*
X330077381Y-145828378D01*
X330077381Y-145828380D01*
X330049500Y-145968542D01*
X330049500Y-145984521D01*
X330030593Y-146042712D01*
X330020504Y-146054525D01*
X319904525Y-156170504D01*
X319850008Y-156198281D01*
X319834521Y-156199500D01*
X157714479Y-156199500D01*
X157656288Y-156180593D01*
X157620324Y-156131093D01*
X157620324Y-156069907D01*
X157644475Y-156030496D01*
X159095475Y-154579496D01*
X159149992Y-154551719D01*
X159165479Y-154550500D01*
X272829563Y-154550500D01*
X272829563Y-154550499D01*
X272905989Y-154530021D01*
X272974511Y-154490460D01*
X273030460Y-154434511D01*
X280670474Y-146794495D01*
X280724991Y-146766719D01*
X280740478Y-146765500D01*
X281296454Y-146765500D01*
X281296455Y-146765500D01*
X281436620Y-146737619D01*
X281568653Y-146682929D01*
X281687479Y-146603532D01*
X281788532Y-146502479D01*
X281867929Y-146383653D01*
X281922619Y-146251620D01*
X281950500Y-146111455D01*
X281950500Y-145968545D01*
X281922619Y-145828380D01*
X281893081Y-145757068D01*
X281867931Y-145696351D01*
X281867925Y-145696340D01*
X281821638Y-145627068D01*
X281788532Y-145577521D01*
X281687479Y-145476468D01*
X281640143Y-145444839D01*
X281568659Y-145397074D01*
X281568648Y-145397068D01*
X281436620Y-145342381D01*
X281296457Y-145314500D01*
X281296455Y-145314500D01*
X280703545Y-145314500D01*
X280703542Y-145314500D01*
X280563380Y-145342381D01*
X280563378Y-145342381D01*
X280431351Y-145397068D01*
X280431340Y-145397074D01*
X280312521Y-145476468D01*
X280312517Y-145476471D01*
X280211471Y-145577517D01*
X280211468Y-145577521D01*
X280132074Y-145696340D01*
X280132068Y-145696351D01*
X280077381Y-145828378D01*
X280077381Y-145828380D01*
X280049500Y-145968542D01*
X280049500Y-146111457D01*
X280059588Y-146162171D01*
X280076357Y-146246474D01*
X280077381Y-146251619D01*
X280077381Y-146251621D01*
X280133932Y-146388147D01*
X280132931Y-146388561D01*
X280142806Y-146443837D01*
X280116108Y-146498890D01*
X280114743Y-146500284D01*
X272694525Y-153920504D01*
X272640008Y-153948281D01*
X272624521Y-153949500D01*
X158960435Y-153949500D01*
X158884011Y-153969978D01*
X158884007Y-153969980D01*
X158815491Y-154009538D01*
X149729525Y-163095504D01*
X149675008Y-163123281D01*
X149659521Y-163124500D01*
X149451740Y-163124500D01*
X149417673Y-163129463D01*
X149383604Y-163134427D01*
X149278518Y-163185801D01*
X149195801Y-163268518D01*
X149144427Y-163373604D01*
X149141241Y-163395473D01*
X149134500Y-163441740D01*
X148865500Y-163441740D01*
X148855573Y-163373607D01*
X148849117Y-163360400D01*
X148840546Y-163299818D01*
X148868052Y-163246918D01*
X160785476Y-151329496D01*
X160839993Y-151301719D01*
X160855480Y-151300500D01*
X226449563Y-151300500D01*
X226449563Y-151300499D01*
X226525989Y-151280021D01*
X226594511Y-151240460D01*
X226650460Y-151184511D01*
X230810474Y-147024495D01*
X230864991Y-146996719D01*
X230880478Y-146995500D01*
X231436454Y-146995500D01*
X231436455Y-146995500D01*
X231576620Y-146967619D01*
X231708653Y-146912929D01*
X231827479Y-146833532D01*
X231928532Y-146732479D01*
X232007929Y-146613653D01*
X232062619Y-146481620D01*
X232090500Y-146341455D01*
X232090500Y-146198545D01*
X232062619Y-146058380D01*
X232027587Y-145973806D01*
X232007931Y-145926351D01*
X232007925Y-145926340D01*
X231975866Y-145878362D01*
X231928532Y-145807521D01*
X231827479Y-145706468D01*
X231771602Y-145669132D01*
X231708659Y-145627074D01*
X231708648Y-145627068D01*
X231576620Y-145572381D01*
X231436457Y-145544500D01*
X231436455Y-145544500D01*
X230843545Y-145544500D01*
X230843542Y-145544500D01*
X230703380Y-145572381D01*
X230703378Y-145572381D01*
X230571351Y-145627068D01*
X230571340Y-145627074D01*
X230452521Y-145706468D01*
X230452517Y-145706471D01*
X230351471Y-145807517D01*
X230351468Y-145807521D01*
X230272074Y-145926340D01*
X230272068Y-145926351D01*
X230217381Y-146058378D01*
X230217381Y-146058380D01*
X230189500Y-146198542D01*
X230189500Y-146198545D01*
X230189500Y-146341455D01*
X230215359Y-146471457D01*
X230217381Y-146481619D01*
X230217381Y-146481621D01*
X230273932Y-146618147D01*
X230272931Y-146618561D01*
X230282806Y-146673837D01*
X230256108Y-146728890D01*
X230254743Y-146730284D01*
X226314525Y-150670504D01*
X226260008Y-150698281D01*
X226244521Y-150699500D01*
X160729563Y-150699500D01*
X160650439Y-150699500D01*
X160603662Y-150712033D01*
X160574008Y-150719979D01*
X160505494Y-150759536D01*
X160505490Y-150759540D01*
X148180489Y-163084541D01*
X148155544Y-163109484D01*
X148120345Y-163130707D01*
X148120513Y-163131051D01*
X148116616Y-163132955D01*
X148114777Y-163134065D01*
X148113609Y-163134425D01*
X148008518Y-163185801D01*
X147925801Y-163268518D01*
X147874427Y-163373604D01*
X147871241Y-163395473D01*
X147864500Y-163441740D01*
X147595500Y-163441740D01*
X147585573Y-163373607D01*
X147578240Y-163358608D01*
X147549500Y-163299818D01*
X147534198Y-163268517D01*
X147451483Y-163185802D01*
X147451017Y-163185574D01*
X147450603Y-163185173D01*
X147444808Y-163181036D01*
X147445428Y-163180167D01*
X147407045Y-163143031D01*
X147395500Y-163096635D01*
X147395500Y-161570479D01*
X147414407Y-161512288D01*
X147424496Y-161500475D01*
X159595475Y-149329496D01*
X159649992Y-149301719D01*
X159665479Y-149300500D01*
X177309563Y-149300500D01*
X177309563Y-149300499D01*
X177385989Y-149280021D01*
X177454511Y-149240460D01*
X177510460Y-149184511D01*
X179670474Y-147024495D01*
X179724991Y-146996719D01*
X179740478Y-146995500D01*
X180296454Y-146995500D01*
X180296455Y-146995500D01*
X180436620Y-146967619D01*
X180568653Y-146912929D01*
X180687479Y-146833532D01*
X180788532Y-146732479D01*
X180867929Y-146613653D01*
X180922619Y-146481620D01*
X180950500Y-146341455D01*
X180950500Y-146198545D01*
X180922619Y-146058380D01*
X180887587Y-145973806D01*
X180867931Y-145926351D01*
X180867925Y-145926340D01*
X180835866Y-145878362D01*
X180788532Y-145807521D01*
X180687479Y-145706468D01*
X180631602Y-145669132D01*
X180568659Y-145627074D01*
X180568648Y-145627068D01*
X180436620Y-145572381D01*
X180296457Y-145544500D01*
X180296455Y-145544500D01*
X179703545Y-145544500D01*
X179703542Y-145544500D01*
X179563380Y-145572381D01*
X179563378Y-145572381D01*
X179431351Y-145627068D01*
X179431340Y-145627074D01*
X179312521Y-145706468D01*
X179312517Y-145706471D01*
X179211471Y-145807517D01*
X179211468Y-145807521D01*
X179132074Y-145926340D01*
X179132068Y-145926351D01*
X179077381Y-146058378D01*
X179077381Y-146058380D01*
X179049500Y-146198542D01*
X179049500Y-146198545D01*
X179049500Y-146341455D01*
X179075359Y-146471457D01*
X179077381Y-146481619D01*
X179077381Y-146481621D01*
X179133932Y-146618147D01*
X179132931Y-146618561D01*
X179142806Y-146673837D01*
X179116108Y-146728890D01*
X179114743Y-146730284D01*
X177174525Y-148670504D01*
X177120008Y-148698281D01*
X177104521Y-148699500D01*
X159460435Y-148699500D01*
X159384011Y-148719978D01*
X159384007Y-148719980D01*
X159315491Y-148759538D01*
X146910489Y-161164540D01*
X146910488Y-161164539D01*
X146854539Y-161220489D01*
X146814980Y-161289007D01*
X146814978Y-161289011D01*
X146794500Y-161365435D01*
X146794500Y-163096635D01*
X146775593Y-163154826D01*
X146744889Y-163180612D01*
X146745192Y-163181036D01*
X146739817Y-163184873D01*
X146738982Y-163185574D01*
X146738800Y-163185663D01*
X146738518Y-163185801D01*
X146655801Y-163268518D01*
X146604427Y-163373604D01*
X146601241Y-163395473D01*
X146594500Y-163441740D01*
X146325500Y-163441740D01*
X146315573Y-163373607D01*
X146308240Y-163358608D01*
X146279500Y-163299818D01*
X146264198Y-163268517D01*
X146181483Y-163185802D01*
X146181017Y-163185574D01*
X146180603Y-163185173D01*
X146174808Y-163181036D01*
X146175428Y-163180167D01*
X146137045Y-163143031D01*
X146125500Y-163096635D01*
X146125500Y-161415437D01*
X146125499Y-161415435D01*
X146105021Y-161339011D01*
X146105019Y-161339007D01*
X146065460Y-161270489D01*
X146009511Y-161214539D01*
X146009511Y-161214540D01*
X131525256Y-146730285D01*
X131497479Y-146675768D01*
X131506571Y-146618356D01*
X131506068Y-146618148D01*
X131506936Y-146616050D01*
X131507050Y-146615336D01*
X131507925Y-146613659D01*
X131507929Y-146613653D01*
X131562619Y-146481620D01*
X131590500Y-146341455D01*
X131590500Y-146198545D01*
X131562619Y-146058380D01*
X131527587Y-145973806D01*
X131507931Y-145926351D01*
X131507925Y-145926340D01*
X131475866Y-145878362D01*
X131428532Y-145807521D01*
X131327479Y-145706468D01*
X131271602Y-145669132D01*
X131208659Y-145627074D01*
X131208648Y-145627068D01*
X131076620Y-145572381D01*
X130936457Y-145544500D01*
X130936455Y-145544500D01*
X130343545Y-145544500D01*
X130343542Y-145544500D01*
X130203380Y-145572381D01*
X130203378Y-145572381D01*
X130071351Y-145627068D01*
X130071340Y-145627074D01*
X129952521Y-145706468D01*
X129952517Y-145706471D01*
X129851471Y-145807517D01*
X129851468Y-145807521D01*
X129772074Y-145926340D01*
X129772068Y-145926351D01*
X129717381Y-146058378D01*
X129717381Y-146058380D01*
X129689500Y-146198542D01*
X126452080Y-146198542D01*
X126567882Y-146047625D01*
X126691211Y-145834013D01*
X126785603Y-145606131D01*
X126849443Y-145367877D01*
X126881639Y-145123329D01*
X126881639Y-144876671D01*
X126870957Y-144795532D01*
X173118361Y-144795532D01*
X173118361Y-145042191D01*
X173150556Y-145286731D01*
X173150556Y-145286736D01*
X173214395Y-145524985D01*
X173214399Y-145524998D01*
X173308785Y-145752867D01*
X173308787Y-145752871D01*
X173308789Y-145752875D01*
X173432118Y-145966487D01*
X173432120Y-145966490D01*
X173501064Y-146056340D01*
X173582274Y-146162175D01*
X173756687Y-146336588D01*
X173824420Y-146388561D01*
X173945698Y-146481621D01*
X173952375Y-146486744D01*
X174165987Y-146610073D01*
X174165993Y-146610075D01*
X174165994Y-146610076D01*
X174174618Y-146613648D01*
X174393869Y-146704465D01*
X174632123Y-146768305D01*
X174876671Y-146800501D01*
X174876672Y-146800501D01*
X175123328Y-146800501D01*
X175123329Y-146800501D01*
X175367877Y-146768305D01*
X175606131Y-146704465D01*
X175834013Y-146610073D01*
X176047625Y-146486744D01*
X176243313Y-146336588D01*
X176417726Y-146162175D01*
X176567882Y-145966487D01*
X176691211Y-145752875D01*
X176785603Y-145524993D01*
X176849443Y-145286739D01*
X176881639Y-145042191D01*
X176881639Y-144795533D01*
X176881639Y-144795532D01*
X223118361Y-144795532D01*
X223118361Y-145042191D01*
X223150556Y-145286731D01*
X223150556Y-145286736D01*
X223214395Y-145524985D01*
X223214399Y-145524998D01*
X223308785Y-145752867D01*
X223308787Y-145752871D01*
X223308789Y-145752875D01*
X223432118Y-145966487D01*
X223432120Y-145966490D01*
X223501064Y-146056340D01*
X223582274Y-146162175D01*
X223756687Y-146336588D01*
X223824420Y-146388561D01*
X223945698Y-146481621D01*
X223952375Y-146486744D01*
X224165987Y-146610073D01*
X224165993Y-146610075D01*
X224165994Y-146610076D01*
X224174618Y-146613648D01*
X224393869Y-146704465D01*
X224632123Y-146768305D01*
X224876671Y-146800501D01*
X224876672Y-146800501D01*
X225123328Y-146800501D01*
X225123329Y-146800501D01*
X225367877Y-146768305D01*
X225606131Y-146704465D01*
X225834013Y-146610073D01*
X226047625Y-146486744D01*
X226243313Y-146336588D01*
X226417726Y-146162175D01*
X226567882Y-145966487D01*
X226691211Y-145752875D01*
X226785603Y-145524993D01*
X226849443Y-145286739D01*
X226881639Y-145042191D01*
X226881639Y-144795533D01*
X226881639Y-144795532D01*
X273118361Y-144795532D01*
X273118361Y-145042191D01*
X273150556Y-145286731D01*
X273150556Y-145286736D01*
X273214395Y-145524985D01*
X273214399Y-145524998D01*
X273308785Y-145752867D01*
X273308787Y-145752871D01*
X273308789Y-145752875D01*
X273432118Y-145966487D01*
X273432120Y-145966490D01*
X273501064Y-146056340D01*
X273582274Y-146162175D01*
X273756687Y-146336588D01*
X273824420Y-146388561D01*
X273945698Y-146481621D01*
X273952375Y-146486744D01*
X274165987Y-146610073D01*
X274165993Y-146610075D01*
X274165994Y-146610076D01*
X274174618Y-146613648D01*
X274393869Y-146704465D01*
X274632123Y-146768305D01*
X274876671Y-146800501D01*
X274876672Y-146800501D01*
X275123328Y-146800501D01*
X275123329Y-146800501D01*
X275367877Y-146768305D01*
X275606131Y-146704465D01*
X275834013Y-146610073D01*
X276047625Y-146486744D01*
X276243313Y-146336588D01*
X276417726Y-146162175D01*
X276567882Y-145966487D01*
X276691211Y-145752875D01*
X276785603Y-145524993D01*
X276849443Y-145286739D01*
X276881639Y-145042191D01*
X276881639Y-144795533D01*
X276881639Y-144795532D01*
X323118361Y-144795532D01*
X323118361Y-145042191D01*
X323150556Y-145286731D01*
X323150556Y-145286736D01*
X323214395Y-145524985D01*
X323214399Y-145524998D01*
X323308785Y-145752867D01*
X323308787Y-145752871D01*
X323308789Y-145752875D01*
X323432118Y-145966487D01*
X323432120Y-145966490D01*
X323501064Y-146056340D01*
X323582274Y-146162175D01*
X323756687Y-146336588D01*
X323824420Y-146388561D01*
X323945698Y-146481621D01*
X323952375Y-146486744D01*
X324165987Y-146610073D01*
X324165993Y-146610075D01*
X324165994Y-146610076D01*
X324174618Y-146613648D01*
X324393869Y-146704465D01*
X324632123Y-146768305D01*
X324876671Y-146800501D01*
X324876672Y-146800501D01*
X325123328Y-146800501D01*
X325123329Y-146800501D01*
X325367877Y-146768305D01*
X325606131Y-146704465D01*
X325834013Y-146610073D01*
X326047625Y-146486744D01*
X326243313Y-146336588D01*
X326417726Y-146162175D01*
X326567882Y-145966487D01*
X326691211Y-145752875D01*
X326785603Y-145524993D01*
X326849443Y-145286739D01*
X326881639Y-145042191D01*
X326881639Y-144795533D01*
X326881639Y-144795532D01*
X373118361Y-144795532D01*
X373118361Y-145042191D01*
X373150556Y-145286731D01*
X373150556Y-145286736D01*
X373214395Y-145524985D01*
X373214399Y-145524998D01*
X373308785Y-145752867D01*
X373308787Y-145752871D01*
X373308789Y-145752875D01*
X373432118Y-145966487D01*
X373432120Y-145966490D01*
X373501064Y-146056340D01*
X373582274Y-146162175D01*
X373756687Y-146336588D01*
X373824420Y-146388561D01*
X373945698Y-146481621D01*
X373952375Y-146486744D01*
X374165987Y-146610073D01*
X374165993Y-146610075D01*
X374165994Y-146610076D01*
X374174618Y-146613648D01*
X374393869Y-146704465D01*
X374632123Y-146768305D01*
X374876671Y-146800501D01*
X374876672Y-146800501D01*
X375123328Y-146800501D01*
X375123329Y-146800501D01*
X375367877Y-146768305D01*
X375606131Y-146704465D01*
X375834013Y-146610073D01*
X376047625Y-146486744D01*
X376243313Y-146336588D01*
X376417726Y-146162175D01*
X376567882Y-145966487D01*
X376691211Y-145752875D01*
X376785603Y-145524993D01*
X376849443Y-145286739D01*
X376881639Y-145042191D01*
X376881639Y-144795533D01*
X376849443Y-144550985D01*
X376785603Y-144312731D01*
X376691211Y-144084849D01*
X376567882Y-143871237D01*
X376417726Y-143675549D01*
X376243313Y-143501136D01*
X376047625Y-143350980D01*
X375834013Y-143227651D01*
X375834009Y-143227649D01*
X375834005Y-143227647D01*
X375606136Y-143133261D01*
X375606135Y-143133260D01*
X375606131Y-143133259D01*
X375367877Y-143069419D01*
X375367874Y-143069418D01*
X375367872Y-143069418D01*
X375123329Y-143037223D01*
X374876671Y-143037223D01*
X374876670Y-143037223D01*
X374632130Y-143069418D01*
X374632125Y-143069418D01*
X374393876Y-143133257D01*
X374393863Y-143133261D01*
X374165994Y-143227647D01*
X373952371Y-143350982D01*
X373756690Y-143501133D01*
X373582271Y-143675552D01*
X373432120Y-143871233D01*
X373308785Y-144084856D01*
X373214399Y-144312725D01*
X373214395Y-144312738D01*
X373150556Y-144550987D01*
X373150556Y-144550992D01*
X373118361Y-144795532D01*
X326881639Y-144795532D01*
X326849443Y-144550985D01*
X326785603Y-144312731D01*
X326691211Y-144084849D01*
X326567882Y-143871237D01*
X326417726Y-143675549D01*
X326243313Y-143501136D01*
X326047625Y-143350980D01*
X325834013Y-143227651D01*
X325834009Y-143227649D01*
X325834005Y-143227647D01*
X325606136Y-143133261D01*
X325606135Y-143133260D01*
X325606131Y-143133259D01*
X325367877Y-143069419D01*
X325367874Y-143069418D01*
X325367872Y-143069418D01*
X325123329Y-143037223D01*
X324876671Y-143037223D01*
X324876670Y-143037223D01*
X324632130Y-143069418D01*
X324632125Y-143069418D01*
X324393876Y-143133257D01*
X324393863Y-143133261D01*
X324165994Y-143227647D01*
X323952371Y-143350982D01*
X323756690Y-143501133D01*
X323582271Y-143675552D01*
X323432120Y-143871233D01*
X323308785Y-144084856D01*
X323214399Y-144312725D01*
X323214395Y-144312738D01*
X323150556Y-144550987D01*
X323150556Y-144550992D01*
X323118361Y-144795532D01*
X276881639Y-144795532D01*
X276849443Y-144550985D01*
X276785603Y-144312731D01*
X276691211Y-144084849D01*
X276567882Y-143871237D01*
X276417726Y-143675549D01*
X276243313Y-143501136D01*
X276047625Y-143350980D01*
X275834013Y-143227651D01*
X275834009Y-143227649D01*
X275834005Y-143227647D01*
X275606136Y-143133261D01*
X275606135Y-143133260D01*
X275606131Y-143133259D01*
X275367877Y-143069419D01*
X275367874Y-143069418D01*
X275367872Y-143069418D01*
X275123329Y-143037223D01*
X274876671Y-143037223D01*
X274876670Y-143037223D01*
X274632130Y-143069418D01*
X274632125Y-143069418D01*
X274393876Y-143133257D01*
X274393863Y-143133261D01*
X274165994Y-143227647D01*
X273952371Y-143350982D01*
X273756690Y-143501133D01*
X273582271Y-143675552D01*
X273432120Y-143871233D01*
X273308785Y-144084856D01*
X273214399Y-144312725D01*
X273214395Y-144312738D01*
X273150556Y-144550987D01*
X273150556Y-144550992D01*
X273118361Y-144795532D01*
X226881639Y-144795532D01*
X226849443Y-144550985D01*
X226785603Y-144312731D01*
X226691211Y-144084849D01*
X226567882Y-143871237D01*
X226417726Y-143675549D01*
X226243313Y-143501136D01*
X226047625Y-143350980D01*
X225834013Y-143227651D01*
X225834009Y-143227649D01*
X225834005Y-143227647D01*
X225606136Y-143133261D01*
X225606135Y-143133260D01*
X225606131Y-143133259D01*
X225367877Y-143069419D01*
X225367874Y-143069418D01*
X225367872Y-143069418D01*
X225123329Y-143037223D01*
X224876671Y-143037223D01*
X224876670Y-143037223D01*
X224632130Y-143069418D01*
X224632125Y-143069418D01*
X224393876Y-143133257D01*
X224393863Y-143133261D01*
X224165994Y-143227647D01*
X223952371Y-143350982D01*
X223756690Y-143501133D01*
X223582271Y-143675552D01*
X223432120Y-143871233D01*
X223308785Y-144084856D01*
X223214399Y-144312725D01*
X223214395Y-144312738D01*
X223150556Y-144550987D01*
X223150556Y-144550992D01*
X223118361Y-144795532D01*
X176881639Y-144795532D01*
X176849443Y-144550985D01*
X176785603Y-144312731D01*
X176691211Y-144084849D01*
X176567882Y-143871237D01*
X176417726Y-143675549D01*
X176243313Y-143501136D01*
X176047625Y-143350980D01*
X175834013Y-143227651D01*
X175834009Y-143227649D01*
X175834005Y-143227647D01*
X175606136Y-143133261D01*
X175606135Y-143133260D01*
X175606131Y-143133259D01*
X175367877Y-143069419D01*
X175367874Y-143069418D01*
X175367872Y-143069418D01*
X175123329Y-143037223D01*
X174876671Y-143037223D01*
X174876670Y-143037223D01*
X174632130Y-143069418D01*
X174632125Y-143069418D01*
X174393876Y-143133257D01*
X174393863Y-143133261D01*
X174165994Y-143227647D01*
X173952371Y-143350982D01*
X173756690Y-143501133D01*
X173582271Y-143675552D01*
X173432120Y-143871233D01*
X173308785Y-144084856D01*
X173214399Y-144312725D01*
X173214395Y-144312738D01*
X173150556Y-144550987D01*
X173150556Y-144550992D01*
X173118361Y-144795532D01*
X126870957Y-144795532D01*
X126849443Y-144632123D01*
X126785603Y-144393869D01*
X126691211Y-144165987D01*
X126567882Y-143952375D01*
X126417726Y-143756687D01*
X126243313Y-143582274D01*
X126141957Y-143504501D01*
X126047628Y-143432120D01*
X125907093Y-143350982D01*
X125834013Y-143308789D01*
X125834009Y-143308787D01*
X125834005Y-143308785D01*
X125606136Y-143214399D01*
X125606135Y-143214398D01*
X125606131Y-143214397D01*
X125367877Y-143150557D01*
X125367874Y-143150556D01*
X125367872Y-143150556D01*
X125123329Y-143118361D01*
X124876671Y-143118361D01*
X124876670Y-143118361D01*
X124632130Y-143150556D01*
X124632125Y-143150556D01*
X124393876Y-143214395D01*
X124393863Y-143214399D01*
X124165994Y-143308785D01*
X123952371Y-143432120D01*
X123756690Y-143582271D01*
X123582271Y-143756690D01*
X123432120Y-143952371D01*
X123308785Y-144165994D01*
X123214399Y-144393863D01*
X123214395Y-144393876D01*
X123150556Y-144632125D01*
X123150556Y-144632130D01*
X123118361Y-144876670D01*
X93813000Y-144876670D01*
X93813000Y-144327243D01*
X93831907Y-144269052D01*
X93841996Y-144257239D01*
X96312239Y-141786996D01*
X96366756Y-141759219D01*
X96382243Y-141758000D01*
X129829218Y-141758000D01*
X129887409Y-141776907D01*
X129908873Y-141798212D01*
X129922850Y-141817150D01*
X129922851Y-141817152D01*
X130032114Y-141897791D01*
X130032116Y-141897791D01*
X130032118Y-141897793D01*
X130153199Y-141940161D01*
X130201878Y-141977225D01*
X130219500Y-142033604D01*
X130219500Y-142905500D01*
X130200593Y-142963691D01*
X130151093Y-142999655D01*
X130120500Y-143004500D01*
X129870252Y-143004500D01*
X129870251Y-143004500D01*
X129870241Y-143004501D01*
X129811772Y-143016132D01*
X129811766Y-143016134D01*
X129745451Y-143060445D01*
X129745445Y-143060451D01*
X129701134Y-143126766D01*
X129701132Y-143126772D01*
X129689501Y-143185241D01*
X129689500Y-143185253D01*
X129689500Y-144274746D01*
X129689501Y-144274758D01*
X129701132Y-144333227D01*
X129701134Y-144333233D01*
X129741655Y-144393876D01*
X129745448Y-144399552D01*
X129811769Y-144443867D01*
X129856231Y-144452711D01*
X129870241Y-144455498D01*
X129870246Y-144455498D01*
X129870252Y-144455500D01*
X129870253Y-144455500D01*
X131409747Y-144455500D01*
X131409748Y-144455500D01*
X131468231Y-144443867D01*
X131534552Y-144399552D01*
X131578867Y-144333231D01*
X131590500Y-144274748D01*
X131590500Y-143185252D01*
X131578867Y-143126769D01*
X131534552Y-143060448D01*
X131499794Y-143037223D01*
X131468233Y-143016134D01*
X131468231Y-143016133D01*
X131468228Y-143016132D01*
X131468227Y-143016132D01*
X131409758Y-143004501D01*
X131409748Y-143004500D01*
X131409747Y-143004500D01*
X131319500Y-143004500D01*
X131261309Y-142985593D01*
X131225345Y-142936093D01*
X131220500Y-142905500D01*
X131220500Y-142033604D01*
X131239407Y-141975413D01*
X131286799Y-141940161D01*
X131407882Y-141897793D01*
X131409083Y-141896907D01*
X131511715Y-141821161D01*
X131517150Y-141817150D01*
X131555752Y-141764846D01*
X131602199Y-141701913D01*
X131604004Y-141703245D01*
X131640189Y-141668128D01*
X131683810Y-141658000D01*
X179076190Y-141658000D01*
X179134381Y-141676907D01*
X179156741Y-141702695D01*
X179157801Y-141701913D01*
X179242845Y-141817144D01*
X179242847Y-141817146D01*
X179242850Y-141817150D01*
X179242853Y-141817152D01*
X179242855Y-141817154D01*
X179352114Y-141897791D01*
X179352116Y-141897791D01*
X179352118Y-141897793D01*
X179473199Y-141940161D01*
X179521878Y-141977225D01*
X179539500Y-142033604D01*
X179539500Y-142905500D01*
X179520593Y-142963691D01*
X179471093Y-142999655D01*
X179440500Y-143004500D01*
X179230252Y-143004500D01*
X179230251Y-143004500D01*
X179230241Y-143004501D01*
X179171772Y-143016132D01*
X179171766Y-143016134D01*
X179105451Y-143060445D01*
X179105445Y-143060451D01*
X179061134Y-143126766D01*
X179061132Y-143126772D01*
X179049501Y-143185241D01*
X179049500Y-143185253D01*
X179049500Y-144274746D01*
X179049501Y-144274758D01*
X179061132Y-144333227D01*
X179061134Y-144333233D01*
X179101655Y-144393876D01*
X179105448Y-144399552D01*
X179171769Y-144443867D01*
X179216231Y-144452711D01*
X179230241Y-144455498D01*
X179230246Y-144455498D01*
X179230252Y-144455500D01*
X179230253Y-144455500D01*
X180769747Y-144455500D01*
X180769748Y-144455500D01*
X180828231Y-144443867D01*
X180894552Y-144399552D01*
X180938867Y-144333231D01*
X180950500Y-144274748D01*
X180950500Y-143185252D01*
X180938867Y-143126769D01*
X180894552Y-143060448D01*
X180859794Y-143037223D01*
X180828233Y-143016134D01*
X180828231Y-143016133D01*
X180828228Y-143016132D01*
X180828227Y-143016132D01*
X180769758Y-143004501D01*
X180769748Y-143004500D01*
X180769747Y-143004500D01*
X180639500Y-143004500D01*
X180581309Y-142985593D01*
X180545345Y-142936093D01*
X180540500Y-142905500D01*
X180540500Y-142033604D01*
X180559407Y-141975413D01*
X180606799Y-141940161D01*
X180727882Y-141897793D01*
X180729083Y-141896907D01*
X180831715Y-141821161D01*
X180837150Y-141817150D01*
X180888029Y-141748209D01*
X180937795Y-141712619D01*
X180967683Y-141708000D01*
X230146190Y-141708000D01*
X230204381Y-141726907D01*
X230226741Y-141752695D01*
X230227801Y-141751913D01*
X230312845Y-141867144D01*
X230312847Y-141867146D01*
X230312850Y-141867150D01*
X230312853Y-141867152D01*
X230312855Y-141867154D01*
X230422116Y-141947792D01*
X230422117Y-141947792D01*
X230422118Y-141947793D01*
X230550301Y-141992646D01*
X230550308Y-141992646D01*
X230556185Y-141993931D01*
X230555896Y-141995251D01*
X230605913Y-142016850D01*
X230637099Y-142069490D01*
X230639500Y-142091161D01*
X230639500Y-142905500D01*
X230620593Y-142963691D01*
X230571093Y-142999655D01*
X230540500Y-143004500D01*
X230370252Y-143004500D01*
X230370251Y-143004500D01*
X230370241Y-143004501D01*
X230311772Y-143016132D01*
X230311766Y-143016134D01*
X230245451Y-143060445D01*
X230245445Y-143060451D01*
X230201134Y-143126766D01*
X230201132Y-143126772D01*
X230189501Y-143185241D01*
X230189500Y-143185253D01*
X230189500Y-144274746D01*
X230189501Y-144274758D01*
X230201132Y-144333227D01*
X230201134Y-144333233D01*
X230241655Y-144393876D01*
X230245448Y-144399552D01*
X230311769Y-144443867D01*
X230356231Y-144452711D01*
X230370241Y-144455498D01*
X230370246Y-144455498D01*
X230370252Y-144455500D01*
X230370253Y-144455500D01*
X231909747Y-144455500D01*
X231909748Y-144455500D01*
X231968231Y-144443867D01*
X232034552Y-144399552D01*
X232078867Y-144333231D01*
X232090500Y-144274748D01*
X232090500Y-143185252D01*
X232078867Y-143126769D01*
X232034552Y-143060448D01*
X231999794Y-143037223D01*
X231968233Y-143016134D01*
X231968231Y-143016133D01*
X231968228Y-143016132D01*
X231968227Y-143016132D01*
X231909758Y-143004501D01*
X231909748Y-143004500D01*
X231909747Y-143004500D01*
X231739500Y-143004500D01*
X231681309Y-142985593D01*
X231645345Y-142936093D01*
X231640500Y-142905500D01*
X231640500Y-142073107D01*
X231659407Y-142014916D01*
X231706800Y-141979663D01*
X231797882Y-141947793D01*
X231907150Y-141867150D01*
X231944050Y-141817152D01*
X231992199Y-141751913D01*
X231994004Y-141753245D01*
X232030189Y-141718128D01*
X232073810Y-141708000D01*
X280400500Y-141708000D01*
X280458691Y-141726907D01*
X280494655Y-141776407D01*
X280499500Y-141807000D01*
X280499500Y-142675500D01*
X280480593Y-142733691D01*
X280431093Y-142769655D01*
X280400500Y-142774500D01*
X280230252Y-142774500D01*
X280230251Y-142774500D01*
X280230241Y-142774501D01*
X280171772Y-142786132D01*
X280171766Y-142786134D01*
X280105451Y-142830445D01*
X280105445Y-142830451D01*
X280061134Y-142896766D01*
X280061132Y-142896772D01*
X280049501Y-142955241D01*
X280049500Y-142955253D01*
X280049500Y-144044746D01*
X280049501Y-144044758D01*
X280061132Y-144103227D01*
X280061134Y-144103233D01*
X280104606Y-144168292D01*
X280105448Y-144169552D01*
X280171769Y-144213867D01*
X280216231Y-144222711D01*
X280230241Y-144225498D01*
X280230246Y-144225498D01*
X280230252Y-144225500D01*
X280230253Y-144225500D01*
X281769747Y-144225500D01*
X281769748Y-144225500D01*
X281828231Y-144213867D01*
X281894552Y-144169552D01*
X281938867Y-144103231D01*
X281950500Y-144044748D01*
X281950500Y-142955252D01*
X281938867Y-142896769D01*
X281894552Y-142830448D01*
X281894548Y-142830445D01*
X281828233Y-142786134D01*
X281828231Y-142786133D01*
X281828228Y-142786132D01*
X281828227Y-142786132D01*
X281769758Y-142774501D01*
X281769748Y-142774500D01*
X281769747Y-142774500D01*
X281599500Y-142774500D01*
X281541309Y-142755593D01*
X281505345Y-142706093D01*
X281500500Y-142675500D01*
X281500500Y-141823037D01*
X281519407Y-141764846D01*
X281568907Y-141728882D01*
X281590255Y-141724470D01*
X281600712Y-141723488D01*
X281609699Y-141722646D01*
X281737882Y-141677793D01*
X281847150Y-141597150D01*
X281879364Y-141553500D01*
X281932199Y-141481913D01*
X281934004Y-141483245D01*
X281970189Y-141448128D01*
X282013810Y-141438000D01*
X330066190Y-141438000D01*
X330124381Y-141456907D01*
X330146741Y-141482695D01*
X330147801Y-141481913D01*
X330232845Y-141597144D01*
X330232847Y-141597146D01*
X330232850Y-141597150D01*
X330232853Y-141597152D01*
X330232855Y-141597154D01*
X330342114Y-141677791D01*
X330342116Y-141677791D01*
X330342118Y-141677793D01*
X330433198Y-141709663D01*
X330481878Y-141746728D01*
X330499500Y-141803107D01*
X330499500Y-142675500D01*
X330480593Y-142733691D01*
X330431093Y-142769655D01*
X330400500Y-142774500D01*
X330230252Y-142774500D01*
X330230251Y-142774500D01*
X330230241Y-142774501D01*
X330171772Y-142786132D01*
X330171766Y-142786134D01*
X330105451Y-142830445D01*
X330105445Y-142830451D01*
X330061134Y-142896766D01*
X330061132Y-142896772D01*
X330049501Y-142955241D01*
X330049500Y-142955253D01*
X330049500Y-144044746D01*
X330049501Y-144044758D01*
X330061132Y-144103227D01*
X330061134Y-144103233D01*
X330104606Y-144168292D01*
X330105448Y-144169552D01*
X330171769Y-144213867D01*
X330216231Y-144222711D01*
X330230241Y-144225498D01*
X330230246Y-144225498D01*
X330230252Y-144225500D01*
X330230253Y-144225500D01*
X331769747Y-144225500D01*
X331769748Y-144225500D01*
X331828231Y-144213867D01*
X331894552Y-144169552D01*
X331938867Y-144103231D01*
X331950500Y-144044748D01*
X331950500Y-142955252D01*
X331938867Y-142896769D01*
X331894552Y-142830448D01*
X331894548Y-142830445D01*
X331828233Y-142786134D01*
X331828231Y-142786133D01*
X331828228Y-142786132D01*
X331828227Y-142786132D01*
X331769758Y-142774501D01*
X331769748Y-142774500D01*
X331769747Y-142774500D01*
X331599500Y-142774500D01*
X331541309Y-142755593D01*
X331505345Y-142706093D01*
X331500500Y-142675500D01*
X331500500Y-141821161D01*
X331519407Y-141762970D01*
X331568907Y-141727006D01*
X331569447Y-141726833D01*
X331579623Y-141723590D01*
X331589699Y-141722646D01*
X331662031Y-141697335D01*
X331663365Y-141696911D01*
X331692642Y-141697078D01*
X331721890Y-141696422D01*
X331723282Y-141697253D01*
X331724550Y-141697261D01*
X331729991Y-141701262D01*
X331763421Y-141721235D01*
X331963537Y-141921350D01*
X331963542Y-141921356D01*
X331963543Y-141921356D01*
X331966998Y-141924811D01*
X331967000Y-141924814D01*
X332060186Y-142018000D01*
X332060188Y-142018001D01*
X332060190Y-142018003D01*
X332174310Y-142083890D01*
X332174308Y-142083890D01*
X332174312Y-142083891D01*
X332174314Y-142083892D01*
X332301607Y-142118000D01*
X332301608Y-142118000D01*
X379256190Y-142118000D01*
X379314381Y-142136907D01*
X379336741Y-142162695D01*
X379337801Y-142161913D01*
X379422845Y-142277144D01*
X379422847Y-142277146D01*
X379422850Y-142277150D01*
X379422853Y-142277152D01*
X379422855Y-142277154D01*
X379532114Y-142357791D01*
X379532116Y-142357791D01*
X379532118Y-142357793D01*
X379653199Y-142400161D01*
X379701878Y-142437225D01*
X379719500Y-142493604D01*
X379719500Y-143405500D01*
X379700593Y-143463691D01*
X379651093Y-143499655D01*
X379620500Y-143504500D01*
X379370252Y-143504500D01*
X379370251Y-143504500D01*
X379370241Y-143504501D01*
X379311772Y-143516132D01*
X379311766Y-143516134D01*
X379245451Y-143560445D01*
X379245445Y-143560451D01*
X379201134Y-143626766D01*
X379201132Y-143626772D01*
X379189501Y-143685241D01*
X379189500Y-143685253D01*
X379189500Y-144774746D01*
X379189501Y-144774758D01*
X379201132Y-144833227D01*
X379201134Y-144833233D01*
X379240285Y-144891825D01*
X379245448Y-144899552D01*
X379311769Y-144943867D01*
X379356231Y-144952711D01*
X379370241Y-144955498D01*
X379370246Y-144955498D01*
X379370252Y-144955500D01*
X379370253Y-144955500D01*
X380909747Y-144955500D01*
X380909748Y-144955500D01*
X380968231Y-144943867D01*
X381034552Y-144899552D01*
X381078867Y-144833231D01*
X381086366Y-144795532D01*
X423118361Y-144795532D01*
X423118361Y-145042191D01*
X423150556Y-145286731D01*
X423150556Y-145286736D01*
X423214395Y-145524985D01*
X423214399Y-145524998D01*
X423308785Y-145752867D01*
X423308787Y-145752871D01*
X423308789Y-145752875D01*
X423432118Y-145966487D01*
X423432120Y-145966490D01*
X423501064Y-146056340D01*
X423582274Y-146162175D01*
X423756687Y-146336588D01*
X423824420Y-146388561D01*
X423945698Y-146481621D01*
X423952375Y-146486744D01*
X424165987Y-146610073D01*
X424165993Y-146610075D01*
X424165994Y-146610076D01*
X424174618Y-146613648D01*
X424393869Y-146704465D01*
X424632123Y-146768305D01*
X424876671Y-146800501D01*
X424876672Y-146800501D01*
X425123328Y-146800501D01*
X425123329Y-146800501D01*
X425367877Y-146768305D01*
X425606131Y-146704465D01*
X425834013Y-146610073D01*
X426047625Y-146486744D01*
X426243313Y-146336588D01*
X426417726Y-146162175D01*
X426567882Y-145966487D01*
X426691211Y-145752875D01*
X426785603Y-145524993D01*
X426849443Y-145286739D01*
X426881639Y-145042191D01*
X426881639Y-144795533D01*
X426849443Y-144550985D01*
X426785603Y-144312731D01*
X426691211Y-144084849D01*
X426567882Y-143871237D01*
X426417726Y-143675549D01*
X426243313Y-143501136D01*
X426047625Y-143350980D01*
X425834013Y-143227651D01*
X425834009Y-143227649D01*
X425834005Y-143227647D01*
X425606136Y-143133261D01*
X425606135Y-143133260D01*
X425606131Y-143133259D01*
X425367877Y-143069419D01*
X425367874Y-143069418D01*
X425367872Y-143069418D01*
X425123329Y-143037223D01*
X424876671Y-143037223D01*
X424876670Y-143037223D01*
X424632130Y-143069418D01*
X424632125Y-143069418D01*
X424393876Y-143133257D01*
X424393863Y-143133261D01*
X424165994Y-143227647D01*
X423952371Y-143350982D01*
X423756690Y-143501133D01*
X423582271Y-143675552D01*
X423432120Y-143871233D01*
X423308785Y-144084856D01*
X423214399Y-144312725D01*
X423214395Y-144312738D01*
X423150556Y-144550987D01*
X423150556Y-144550992D01*
X423118361Y-144795532D01*
X381086366Y-144795532D01*
X381090500Y-144774748D01*
X381090500Y-143685252D01*
X381078867Y-143626769D01*
X381034552Y-143560448D01*
X381029362Y-143556980D01*
X380968233Y-143516134D01*
X380968231Y-143516133D01*
X380968228Y-143516132D01*
X380968227Y-143516132D01*
X380909758Y-143504501D01*
X380909748Y-143504500D01*
X380909747Y-143504500D01*
X380819500Y-143504500D01*
X380761309Y-143485593D01*
X380725345Y-143436093D01*
X380720500Y-143405500D01*
X380720500Y-142493604D01*
X380739407Y-142435413D01*
X380786799Y-142400161D01*
X380907882Y-142357793D01*
X381017150Y-142277150D01*
X381076137Y-142197225D01*
X381102199Y-142161913D01*
X381104004Y-142163245D01*
X381140189Y-142128128D01*
X381183810Y-142118000D01*
X428729517Y-142118000D01*
X428787708Y-142136907D01*
X428822961Y-142184302D01*
X428852207Y-142267883D01*
X428932845Y-142377144D01*
X428932847Y-142377146D01*
X428932850Y-142377150D01*
X428932853Y-142377152D01*
X428932855Y-142377154D01*
X429042114Y-142457791D01*
X429042116Y-142457791D01*
X429042118Y-142457793D01*
X429163199Y-142500161D01*
X429211878Y-142537225D01*
X429229500Y-142593604D01*
X429229500Y-143405500D01*
X429210593Y-143463691D01*
X429161093Y-143499655D01*
X429130500Y-143504500D01*
X428870252Y-143504500D01*
X428870251Y-143504500D01*
X428870241Y-143504501D01*
X428811772Y-143516132D01*
X428811766Y-143516134D01*
X428745451Y-143560445D01*
X428745445Y-143560451D01*
X428701134Y-143626766D01*
X428701132Y-143626772D01*
X428689501Y-143685241D01*
X428689500Y-143685253D01*
X428689500Y-144774746D01*
X428689501Y-144774758D01*
X428701132Y-144833227D01*
X428701134Y-144833233D01*
X428740285Y-144891825D01*
X428745448Y-144899552D01*
X428811769Y-144943867D01*
X428856231Y-144952711D01*
X428870241Y-144955498D01*
X428870246Y-144955498D01*
X428870252Y-144955500D01*
X428870253Y-144955500D01*
X430409747Y-144955500D01*
X430409748Y-144955500D01*
X430468231Y-144943867D01*
X430534552Y-144899552D01*
X430578867Y-144833231D01*
X430586366Y-144795532D01*
X473118361Y-144795532D01*
X473118361Y-145042191D01*
X473150556Y-145286731D01*
X473150556Y-145286736D01*
X473214395Y-145524985D01*
X473214399Y-145524998D01*
X473308785Y-145752867D01*
X473308787Y-145752871D01*
X473308789Y-145752875D01*
X473432118Y-145966487D01*
X473432120Y-145966490D01*
X473501064Y-146056340D01*
X473582274Y-146162175D01*
X473756687Y-146336588D01*
X473824420Y-146388561D01*
X473945698Y-146481621D01*
X473952375Y-146486744D01*
X474165987Y-146610073D01*
X474165993Y-146610075D01*
X474165994Y-146610076D01*
X474174618Y-146613648D01*
X474393869Y-146704465D01*
X474632123Y-146768305D01*
X474876671Y-146800501D01*
X474876672Y-146800501D01*
X475123328Y-146800501D01*
X475123329Y-146800501D01*
X475367877Y-146768305D01*
X475606131Y-146704465D01*
X475834013Y-146610073D01*
X476047625Y-146486744D01*
X476243313Y-146336588D01*
X476417726Y-146162175D01*
X476567882Y-145966487D01*
X476691211Y-145752875D01*
X476785603Y-145524993D01*
X476849443Y-145286739D01*
X476881639Y-145042191D01*
X476881639Y-144795533D01*
X476849443Y-144550985D01*
X476785603Y-144312731D01*
X476691211Y-144084849D01*
X476567882Y-143871237D01*
X476417726Y-143675549D01*
X476243313Y-143501136D01*
X476047625Y-143350980D01*
X475834013Y-143227651D01*
X475834009Y-143227649D01*
X475834005Y-143227647D01*
X475606136Y-143133261D01*
X475606135Y-143133260D01*
X475606131Y-143133259D01*
X475367877Y-143069419D01*
X475367874Y-143069418D01*
X475367872Y-143069418D01*
X475123329Y-143037223D01*
X474876671Y-143037223D01*
X474876670Y-143037223D01*
X474632130Y-143069418D01*
X474632125Y-143069418D01*
X474393876Y-143133257D01*
X474393863Y-143133261D01*
X474165994Y-143227647D01*
X473952371Y-143350982D01*
X473756690Y-143501133D01*
X473582271Y-143675552D01*
X473432120Y-143871233D01*
X473308785Y-144084856D01*
X473214399Y-144312725D01*
X473214395Y-144312738D01*
X473150556Y-144550987D01*
X473150556Y-144550992D01*
X473118361Y-144795532D01*
X430586366Y-144795532D01*
X430590500Y-144774748D01*
X430590500Y-143685252D01*
X430578867Y-143626769D01*
X430534552Y-143560448D01*
X430529362Y-143556980D01*
X430468233Y-143516134D01*
X430468231Y-143516133D01*
X430468228Y-143516132D01*
X430468227Y-143516132D01*
X430409758Y-143504501D01*
X430409748Y-143504500D01*
X430409747Y-143504500D01*
X430329500Y-143504500D01*
X430271309Y-143485593D01*
X430235345Y-143436093D01*
X430230500Y-143405500D01*
X430230500Y-142593604D01*
X430249407Y-142535413D01*
X430296799Y-142500161D01*
X430417882Y-142457793D01*
X430527150Y-142377150D01*
X430607793Y-142267882D01*
X430619099Y-142235569D01*
X430656162Y-142186890D01*
X430663021Y-142182543D01*
X430774814Y-142118000D01*
X430917401Y-141975413D01*
X430985819Y-141906996D01*
X431040335Y-141879219D01*
X431055822Y-141878000D01*
X479696190Y-141878000D01*
X479754381Y-141896907D01*
X479776741Y-141922695D01*
X479777801Y-141921913D01*
X479862845Y-142037144D01*
X479862847Y-142037146D01*
X479862850Y-142037150D01*
X479862853Y-142037152D01*
X479862855Y-142037154D01*
X479972114Y-142117791D01*
X479972116Y-142117791D01*
X479972118Y-142117793D01*
X480093199Y-142160161D01*
X480141878Y-142197225D01*
X480159500Y-142253604D01*
X480159500Y-143035500D01*
X480140593Y-143093691D01*
X480091093Y-143129655D01*
X480060500Y-143134500D01*
X479960252Y-143134500D01*
X479960251Y-143134500D01*
X479960241Y-143134501D01*
X479901772Y-143146132D01*
X479901766Y-143146134D01*
X479835451Y-143190445D01*
X479835445Y-143190451D01*
X479791134Y-143256766D01*
X479791132Y-143256772D01*
X479779501Y-143315241D01*
X479779500Y-143315253D01*
X479779500Y-144404746D01*
X479779501Y-144404758D01*
X479791132Y-144463227D01*
X479791134Y-144463233D01*
X479835445Y-144529548D01*
X479835448Y-144529552D01*
X479901769Y-144573867D01*
X479946231Y-144582711D01*
X479960241Y-144585498D01*
X479960246Y-144585498D01*
X479960252Y-144585500D01*
X479960253Y-144585500D01*
X481499747Y-144585500D01*
X481499748Y-144585500D01*
X481558231Y-144573867D01*
X481624552Y-144529552D01*
X481668867Y-144463231D01*
X481680500Y-144404748D01*
X481680500Y-143315252D01*
X481679214Y-143308789D01*
X481677711Y-143301231D01*
X481668867Y-143256769D01*
X481624552Y-143190448D01*
X481624548Y-143190445D01*
X481558233Y-143146134D01*
X481558231Y-143146133D01*
X481558228Y-143146132D01*
X481558227Y-143146132D01*
X481499758Y-143134501D01*
X481499748Y-143134500D01*
X481499747Y-143134500D01*
X481259500Y-143134500D01*
X481201309Y-143115593D01*
X481165345Y-143066093D01*
X481160500Y-143035500D01*
X481160500Y-142253604D01*
X481179407Y-142195413D01*
X481226799Y-142160161D01*
X481347882Y-142117793D01*
X481457150Y-142037150D01*
X481537793Y-141927882D01*
X481582646Y-141799699D01*
X481585499Y-141769273D01*
X481585500Y-141769273D01*
X481585500Y-140985727D01*
X481585499Y-140985725D01*
X481584255Y-140972460D01*
X481582646Y-140955301D01*
X481537793Y-140827118D01*
X481509501Y-140788784D01*
X481457154Y-140717855D01*
X481457152Y-140717853D01*
X481457150Y-140717850D01*
X481457146Y-140717847D01*
X481457144Y-140717845D01*
X481347883Y-140637207D01*
X481219703Y-140592355D01*
X481219694Y-140592353D01*
X481189274Y-140589500D01*
X481189266Y-140589500D01*
X480130734Y-140589500D01*
X480130725Y-140589500D01*
X480100305Y-140592353D01*
X480100296Y-140592355D01*
X479972116Y-140637207D01*
X479862855Y-140717845D01*
X479862845Y-140717855D01*
X479777801Y-140833087D01*
X479775995Y-140831754D01*
X479739811Y-140866872D01*
X479696190Y-140877000D01*
X430873393Y-140877000D01*
X430741608Y-140877000D01*
X430663700Y-140897875D01*
X430614309Y-140911109D01*
X430508049Y-140972460D01*
X430448201Y-140985182D01*
X430425380Y-140978236D01*
X430424884Y-140979657D01*
X430289703Y-140932355D01*
X430289694Y-140932353D01*
X430259274Y-140929500D01*
X430259266Y-140929500D01*
X429200734Y-140929500D01*
X429200725Y-140929500D01*
X429170305Y-140932353D01*
X429170296Y-140932355D01*
X429042116Y-140977207D01*
X428932851Y-141057847D01*
X428932850Y-141057849D01*
X428918873Y-141076788D01*
X428869106Y-141112381D01*
X428839218Y-141117000D01*
X381183810Y-141117000D01*
X381125619Y-141098093D01*
X381103258Y-141072304D01*
X381102199Y-141073087D01*
X381017154Y-140957855D01*
X381017152Y-140957853D01*
X381017150Y-140957850D01*
X381017146Y-140957847D01*
X381017144Y-140957845D01*
X380907883Y-140877207D01*
X380779703Y-140832355D01*
X380779694Y-140832353D01*
X380749274Y-140829500D01*
X380749266Y-140829500D01*
X379690734Y-140829500D01*
X379690725Y-140829500D01*
X379660305Y-140832353D01*
X379660296Y-140832355D01*
X379532116Y-140877207D01*
X379422855Y-140957845D01*
X379422845Y-140957855D01*
X379337801Y-141073087D01*
X379335995Y-141071754D01*
X379299811Y-141106872D01*
X379256190Y-141117000D01*
X332615821Y-141117000D01*
X332557630Y-141098093D01*
X332545817Y-141088004D01*
X332284929Y-140827116D01*
X331994814Y-140537000D01*
X331994811Y-140536998D01*
X331983295Y-140530349D01*
X331942355Y-140484879D01*
X331939356Y-140477322D01*
X331907793Y-140387118D01*
X331907791Y-140387116D01*
X331907791Y-140387114D01*
X331827154Y-140277855D01*
X331827152Y-140277853D01*
X331827150Y-140277850D01*
X331827146Y-140277847D01*
X331827144Y-140277845D01*
X331717883Y-140197207D01*
X331589703Y-140152355D01*
X331589694Y-140152353D01*
X331559274Y-140149500D01*
X331559266Y-140149500D01*
X330500734Y-140149500D01*
X330500725Y-140149500D01*
X330470305Y-140152353D01*
X330470296Y-140152355D01*
X330342116Y-140197207D01*
X330232855Y-140277845D01*
X330232845Y-140277855D01*
X330147801Y-140393087D01*
X330145995Y-140391754D01*
X330109811Y-140426872D01*
X330066190Y-140437000D01*
X282013810Y-140437000D01*
X281955619Y-140418093D01*
X281933258Y-140392304D01*
X281932199Y-140393087D01*
X281847154Y-140277855D01*
X281847152Y-140277853D01*
X281847150Y-140277850D01*
X281847146Y-140277847D01*
X281847144Y-140277845D01*
X281737883Y-140197207D01*
X281609703Y-140152355D01*
X281609694Y-140152353D01*
X281579274Y-140149500D01*
X281579266Y-140149500D01*
X280520734Y-140149500D01*
X280520725Y-140149500D01*
X280490305Y-140152353D01*
X280490296Y-140152355D01*
X280362116Y-140197207D01*
X280252855Y-140277845D01*
X280252845Y-140277855D01*
X280172207Y-140387116D01*
X280127355Y-140515296D01*
X280127353Y-140515305D01*
X280124500Y-140545725D01*
X280124500Y-140608000D01*
X280105593Y-140666191D01*
X280056093Y-140702155D01*
X280025500Y-140707000D01*
X232073810Y-140707000D01*
X232015619Y-140688093D01*
X231993258Y-140662304D01*
X231992199Y-140663087D01*
X231907154Y-140547855D01*
X231907152Y-140547853D01*
X231907150Y-140547850D01*
X231907146Y-140547847D01*
X231907144Y-140547845D01*
X231797883Y-140467207D01*
X231669703Y-140422355D01*
X231669694Y-140422353D01*
X231639274Y-140419500D01*
X231639266Y-140419500D01*
X230580734Y-140419500D01*
X230580725Y-140419500D01*
X230550305Y-140422353D01*
X230550296Y-140422355D01*
X230422116Y-140467207D01*
X230312855Y-140547845D01*
X230312845Y-140547855D01*
X230227801Y-140663087D01*
X230225995Y-140661754D01*
X230189811Y-140696872D01*
X230146190Y-140707000D01*
X181022987Y-140707000D01*
X180964796Y-140688093D01*
X180929543Y-140640698D01*
X180917793Y-140607118D01*
X180917791Y-140607116D01*
X180917791Y-140607114D01*
X180837154Y-140497855D01*
X180837152Y-140497853D01*
X180837150Y-140497850D01*
X180837146Y-140497847D01*
X180837144Y-140497845D01*
X180727883Y-140417207D01*
X180599703Y-140372355D01*
X180599694Y-140372353D01*
X180569274Y-140369500D01*
X180569266Y-140369500D01*
X179510734Y-140369500D01*
X179510725Y-140369500D01*
X179480305Y-140372353D01*
X179480296Y-140372355D01*
X179352116Y-140417207D01*
X179242855Y-140497845D01*
X179242845Y-140497855D01*
X179157801Y-140613087D01*
X179155995Y-140611754D01*
X179119811Y-140646872D01*
X179076190Y-140657000D01*
X131683810Y-140657000D01*
X131625619Y-140638093D01*
X131603258Y-140612304D01*
X131602199Y-140613087D01*
X131517154Y-140497855D01*
X131517152Y-140497853D01*
X131517150Y-140497850D01*
X131517146Y-140497847D01*
X131517144Y-140497845D01*
X131407883Y-140417207D01*
X131279703Y-140372355D01*
X131279694Y-140372353D01*
X131249274Y-140369500D01*
X131249266Y-140369500D01*
X130190734Y-140369500D01*
X130190725Y-140369500D01*
X130160305Y-140372353D01*
X130160296Y-140372355D01*
X130032116Y-140417207D01*
X129922851Y-140497847D01*
X129922850Y-140497849D01*
X129908873Y-140516788D01*
X129859106Y-140552381D01*
X129829218Y-140557000D01*
X96171557Y-140557000D01*
X96013443Y-140557000D01*
X95919969Y-140582045D01*
X95860710Y-140597924D01*
X95810595Y-140626859D01*
X95723784Y-140676979D01*
X95611979Y-140788783D01*
X95611980Y-140788784D01*
X95611978Y-140788786D01*
X92843786Y-143556978D01*
X92843784Y-143556980D01*
X92843783Y-143556979D01*
X92731979Y-143668784D01*
X92685378Y-143749500D01*
X92652925Y-143805709D01*
X92652923Y-143805713D01*
X92652923Y-143805715D01*
X92611999Y-143958443D01*
X92611999Y-143958445D01*
X92611999Y-144124531D01*
X92612000Y-144124544D01*
X92612000Y-148791000D01*
X92593093Y-148849191D01*
X92543593Y-148885155D01*
X92513000Y-148890000D01*
X85740001Y-148890000D01*
X85740000Y-148890000D01*
X85650000Y-148980000D01*
X85650000Y-148980001D01*
X85650000Y-161631000D01*
X85631093Y-161689191D01*
X85581593Y-161725155D01*
X85551000Y-161730000D01*
X76849000Y-161730000D01*
X76790809Y-161711093D01*
X76754845Y-161661593D01*
X76750000Y-161631000D01*
X76750000Y-122161232D01*
X76768907Y-122103041D01*
X76804052Y-122073024D01*
X76882924Y-122032838D01*
X77036703Y-121921111D01*
X77171111Y-121786703D01*
X77282838Y-121632924D01*
X77369133Y-121463560D01*
X77369134Y-121463555D01*
X77369136Y-121463553D01*
X77427871Y-121282787D01*
X77427872Y-121282783D01*
X77457607Y-121095044D01*
X77457607Y-120904955D01*
X77427872Y-120717216D01*
X77427871Y-120717212D01*
X77383155Y-120579593D01*
X77383154Y-120518408D01*
X77419118Y-120468908D01*
X77477308Y-120450000D01*
X522144251Y-120450000D01*
X522159163Y-120454845D01*
G37*
%TD.AperFunction*%
%TA.AperFunction,Conductor*%
G36*
X92642712Y-162319407D02*
G01*
X92654525Y-162329496D01*
X96608540Y-166283511D01*
X96608539Y-166283511D01*
X96664489Y-166339460D01*
X96733007Y-166379019D01*
X96733011Y-166379021D01*
X96809435Y-166399499D01*
X96809437Y-166399500D01*
X96809438Y-166399500D01*
X136954337Y-166399500D01*
X137160620Y-166399500D01*
X137218811Y-166418407D01*
X137230624Y-166428496D01*
X137432624Y-166630496D01*
X137460401Y-166685013D01*
X137450830Y-166745445D01*
X137407565Y-166788710D01*
X137362620Y-166799500D01*
X92146613Y-166799500D01*
X92088422Y-166780593D01*
X92052458Y-166731093D01*
X92049515Y-166681186D01*
X92059598Y-166630496D01*
X92069500Y-166580714D01*
X92069500Y-166419286D01*
X92038007Y-166260961D01*
X91976231Y-166111821D01*
X91886547Y-165977599D01*
X91772401Y-165863453D01*
X91772395Y-165863449D01*
X91725801Y-165832316D01*
X91687921Y-165784266D01*
X91685519Y-165723128D01*
X91719511Y-165672254D01*
X91725801Y-165667684D01*
X91746698Y-165653721D01*
X91772401Y-165636547D01*
X91886547Y-165522401D01*
X91976231Y-165388179D01*
X92038007Y-165239039D01*
X92069500Y-165080714D01*
X92069500Y-164919286D01*
X92038007Y-164760961D01*
X91976231Y-164611821D01*
X91886547Y-164477599D01*
X91772401Y-164363453D01*
X91772395Y-164363449D01*
X91725801Y-164332316D01*
X91687921Y-164284266D01*
X91685519Y-164223128D01*
X91719511Y-164172254D01*
X91725801Y-164167684D01*
X91772401Y-164136547D01*
X91886547Y-164022401D01*
X91976231Y-163888179D01*
X92038007Y-163739039D01*
X92069500Y-163580714D01*
X92069500Y-163419286D01*
X92038007Y-163260961D01*
X91992081Y-163150087D01*
X91976232Y-163111823D01*
X91886549Y-162977602D01*
X91886547Y-162977599D01*
X91772401Y-162863453D01*
X91772395Y-162863449D01*
X91725801Y-162832316D01*
X91687921Y-162784266D01*
X91685519Y-162723128D01*
X91719511Y-162672254D01*
X91725801Y-162667684D01*
X91745269Y-162654676D01*
X91772401Y-162636547D01*
X91886547Y-162522401D01*
X91976231Y-162388179D01*
X91987235Y-162361612D01*
X92026972Y-162315088D01*
X92078699Y-162300500D01*
X92584521Y-162300500D01*
X92642712Y-162319407D01*
G37*
%TD.AperFunction*%
%TD*%
M02*
