%TF.GenerationSoftware,KiCad,Pcbnew,9.0.0*%
%TF.CreationDate,2025-04-06T01:03:21+02:00*%
%TF.ProjectId,CHESS PIECES DETECTION,43484553-5320-4504-9945-434553204445,rev?*%
%TF.SameCoordinates,Original*%
%TF.FileFunction,Legend,Top*%
%TF.FilePolarity,Positive*%
%FSLAX46Y46*%
G04 Gerber Fmt 4.6, Leading zero omitted, Abs format (unit mm)*
G04 Created by KiCad (PCBNEW 9.0.0) date 2025-04-06 01:03:21*
%MOMM*%
%LPD*%
G01*
G04 APERTURE LIST*
%ADD10C,0.150000*%
%ADD11C,0.120000*%
%ADD12C,0.127000*%
%ADD13C,0.200000*%
G04 APERTURE END LIST*
D10*
X101783333Y-153134819D02*
X101450000Y-152658628D01*
X101211905Y-153134819D02*
X101211905Y-152134819D01*
X101211905Y-152134819D02*
X101592857Y-152134819D01*
X101592857Y-152134819D02*
X101688095Y-152182438D01*
X101688095Y-152182438D02*
X101735714Y-152230057D01*
X101735714Y-152230057D02*
X101783333Y-152325295D01*
X101783333Y-152325295D02*
X101783333Y-152468152D01*
X101783333Y-152468152D02*
X101735714Y-152563390D01*
X101735714Y-152563390D02*
X101688095Y-152611009D01*
X101688095Y-152611009D02*
X101592857Y-152658628D01*
X101592857Y-152658628D02*
X101211905Y-152658628D01*
X102640476Y-152134819D02*
X102450000Y-152134819D01*
X102450000Y-152134819D02*
X102354762Y-152182438D01*
X102354762Y-152182438D02*
X102307143Y-152230057D01*
X102307143Y-152230057D02*
X102211905Y-152372914D01*
X102211905Y-152372914D02*
X102164286Y-152563390D01*
X102164286Y-152563390D02*
X102164286Y-152944342D01*
X102164286Y-152944342D02*
X102211905Y-153039580D01*
X102211905Y-153039580D02*
X102259524Y-153087200D01*
X102259524Y-153087200D02*
X102354762Y-153134819D01*
X102354762Y-153134819D02*
X102545238Y-153134819D01*
X102545238Y-153134819D02*
X102640476Y-153087200D01*
X102640476Y-153087200D02*
X102688095Y-153039580D01*
X102688095Y-153039580D02*
X102735714Y-152944342D01*
X102735714Y-152944342D02*
X102735714Y-152706247D01*
X102735714Y-152706247D02*
X102688095Y-152611009D01*
X102688095Y-152611009D02*
X102640476Y-152563390D01*
X102640476Y-152563390D02*
X102545238Y-152515771D01*
X102545238Y-152515771D02*
X102354762Y-152515771D01*
X102354762Y-152515771D02*
X102259524Y-152563390D01*
X102259524Y-152563390D02*
X102211905Y-152611009D01*
X102211905Y-152611009D02*
X102164286Y-152706247D01*
X165534819Y-195968094D02*
X166344342Y-195968094D01*
X166344342Y-195968094D02*
X166439580Y-195920475D01*
X166439580Y-195920475D02*
X166487200Y-195872856D01*
X166487200Y-195872856D02*
X166534819Y-195777618D01*
X166534819Y-195777618D02*
X166534819Y-195587142D01*
X166534819Y-195587142D02*
X166487200Y-195491904D01*
X166487200Y-195491904D02*
X166439580Y-195444285D01*
X166439580Y-195444285D02*
X166344342Y-195396666D01*
X166344342Y-195396666D02*
X165534819Y-195396666D01*
X166534819Y-194396666D02*
X166534819Y-194968094D01*
X166534819Y-194682380D02*
X165534819Y-194682380D01*
X165534819Y-194682380D02*
X165677676Y-194777618D01*
X165677676Y-194777618D02*
X165772914Y-194872856D01*
X165772914Y-194872856D02*
X165820533Y-194968094D01*
X165630057Y-194015713D02*
X165582438Y-193968094D01*
X165582438Y-193968094D02*
X165534819Y-193872856D01*
X165534819Y-193872856D02*
X165534819Y-193634761D01*
X165534819Y-193634761D02*
X165582438Y-193539523D01*
X165582438Y-193539523D02*
X165630057Y-193491904D01*
X165630057Y-193491904D02*
X165725295Y-193444285D01*
X165725295Y-193444285D02*
X165820533Y-193444285D01*
X165820533Y-193444285D02*
X165963390Y-193491904D01*
X165963390Y-193491904D02*
X166534819Y-194063332D01*
X166534819Y-194063332D02*
X166534819Y-193444285D01*
X161927142Y-174109580D02*
X161879523Y-174157200D01*
X161879523Y-174157200D02*
X161736666Y-174204819D01*
X161736666Y-174204819D02*
X161641428Y-174204819D01*
X161641428Y-174204819D02*
X161498571Y-174157200D01*
X161498571Y-174157200D02*
X161403333Y-174061961D01*
X161403333Y-174061961D02*
X161355714Y-173966723D01*
X161355714Y-173966723D02*
X161308095Y-173776247D01*
X161308095Y-173776247D02*
X161308095Y-173633390D01*
X161308095Y-173633390D02*
X161355714Y-173442914D01*
X161355714Y-173442914D02*
X161403333Y-173347676D01*
X161403333Y-173347676D02*
X161498571Y-173252438D01*
X161498571Y-173252438D02*
X161641428Y-173204819D01*
X161641428Y-173204819D02*
X161736666Y-173204819D01*
X161736666Y-173204819D02*
X161879523Y-173252438D01*
X161879523Y-173252438D02*
X161927142Y-173300057D01*
X162879523Y-174204819D02*
X162308095Y-174204819D01*
X162593809Y-174204819D02*
X162593809Y-173204819D01*
X162593809Y-173204819D02*
X162498571Y-173347676D01*
X162498571Y-173347676D02*
X162403333Y-173442914D01*
X162403333Y-173442914D02*
X162308095Y-173490533D01*
X163355714Y-174204819D02*
X163546190Y-174204819D01*
X163546190Y-174204819D02*
X163641428Y-174157200D01*
X163641428Y-174157200D02*
X163689047Y-174109580D01*
X163689047Y-174109580D02*
X163784285Y-173966723D01*
X163784285Y-173966723D02*
X163831904Y-173776247D01*
X163831904Y-173776247D02*
X163831904Y-173395295D01*
X163831904Y-173395295D02*
X163784285Y-173300057D01*
X163784285Y-173300057D02*
X163736666Y-173252438D01*
X163736666Y-173252438D02*
X163641428Y-173204819D01*
X163641428Y-173204819D02*
X163450952Y-173204819D01*
X163450952Y-173204819D02*
X163355714Y-173252438D01*
X163355714Y-173252438D02*
X163308095Y-173300057D01*
X163308095Y-173300057D02*
X163260476Y-173395295D01*
X163260476Y-173395295D02*
X163260476Y-173633390D01*
X163260476Y-173633390D02*
X163308095Y-173728628D01*
X163308095Y-173728628D02*
X163355714Y-173776247D01*
X163355714Y-173776247D02*
X163450952Y-173823866D01*
X163450952Y-173823866D02*
X163641428Y-173823866D01*
X163641428Y-173823866D02*
X163736666Y-173776247D01*
X163736666Y-173776247D02*
X163784285Y-173728628D01*
X163784285Y-173728628D02*
X163831904Y-173633390D01*
X279729580Y-140066666D02*
X279777200Y-140114285D01*
X279777200Y-140114285D02*
X279824819Y-140257142D01*
X279824819Y-140257142D02*
X279824819Y-140352380D01*
X279824819Y-140352380D02*
X279777200Y-140495237D01*
X279777200Y-140495237D02*
X279681961Y-140590475D01*
X279681961Y-140590475D02*
X279586723Y-140638094D01*
X279586723Y-140638094D02*
X279396247Y-140685713D01*
X279396247Y-140685713D02*
X279253390Y-140685713D01*
X279253390Y-140685713D02*
X279062914Y-140638094D01*
X279062914Y-140638094D02*
X278967676Y-140590475D01*
X278967676Y-140590475D02*
X278872438Y-140495237D01*
X278872438Y-140495237D02*
X278824819Y-140352380D01*
X278824819Y-140352380D02*
X278824819Y-140257142D01*
X278824819Y-140257142D02*
X278872438Y-140114285D01*
X278872438Y-140114285D02*
X278920057Y-140066666D01*
X278824819Y-139209523D02*
X278824819Y-139399999D01*
X278824819Y-139399999D02*
X278872438Y-139495237D01*
X278872438Y-139495237D02*
X278920057Y-139542856D01*
X278920057Y-139542856D02*
X279062914Y-139638094D01*
X279062914Y-139638094D02*
X279253390Y-139685713D01*
X279253390Y-139685713D02*
X279634342Y-139685713D01*
X279634342Y-139685713D02*
X279729580Y-139638094D01*
X279729580Y-139638094D02*
X279777200Y-139590475D01*
X279777200Y-139590475D02*
X279824819Y-139495237D01*
X279824819Y-139495237D02*
X279824819Y-139304761D01*
X279824819Y-139304761D02*
X279777200Y-139209523D01*
X279777200Y-139209523D02*
X279729580Y-139161904D01*
X279729580Y-139161904D02*
X279634342Y-139114285D01*
X279634342Y-139114285D02*
X279396247Y-139114285D01*
X279396247Y-139114285D02*
X279301009Y-139161904D01*
X279301009Y-139161904D02*
X279253390Y-139209523D01*
X279253390Y-139209523D02*
X279205771Y-139304761D01*
X279205771Y-139304761D02*
X279205771Y-139495237D01*
X279205771Y-139495237D02*
X279253390Y-139590475D01*
X279253390Y-139590475D02*
X279301009Y-139638094D01*
X279301009Y-139638094D02*
X279396247Y-139685713D01*
X133654819Y-145761904D02*
X134464342Y-145761904D01*
X134464342Y-145761904D02*
X134559580Y-145714285D01*
X134559580Y-145714285D02*
X134607200Y-145666666D01*
X134607200Y-145666666D02*
X134654819Y-145571428D01*
X134654819Y-145571428D02*
X134654819Y-145380952D01*
X134654819Y-145380952D02*
X134607200Y-145285714D01*
X134607200Y-145285714D02*
X134559580Y-145238095D01*
X134559580Y-145238095D02*
X134464342Y-145190476D01*
X134464342Y-145190476D02*
X133654819Y-145190476D01*
X134654819Y-144190476D02*
X134654819Y-144761904D01*
X134654819Y-144476190D02*
X133654819Y-144476190D01*
X133654819Y-144476190D02*
X133797676Y-144571428D01*
X133797676Y-144571428D02*
X133892914Y-144666666D01*
X133892914Y-144666666D02*
X133940533Y-144761904D01*
X433204819Y-146261904D02*
X434014342Y-146261904D01*
X434014342Y-146261904D02*
X434109580Y-146214285D01*
X434109580Y-146214285D02*
X434157200Y-146166666D01*
X434157200Y-146166666D02*
X434204819Y-146071428D01*
X434204819Y-146071428D02*
X434204819Y-145880952D01*
X434204819Y-145880952D02*
X434157200Y-145785714D01*
X434157200Y-145785714D02*
X434109580Y-145738095D01*
X434109580Y-145738095D02*
X434014342Y-145690476D01*
X434014342Y-145690476D02*
X433204819Y-145690476D01*
X433633390Y-145071428D02*
X433585771Y-145166666D01*
X433585771Y-145166666D02*
X433538152Y-145214285D01*
X433538152Y-145214285D02*
X433442914Y-145261904D01*
X433442914Y-145261904D02*
X433395295Y-145261904D01*
X433395295Y-145261904D02*
X433300057Y-145214285D01*
X433300057Y-145214285D02*
X433252438Y-145166666D01*
X433252438Y-145166666D02*
X433204819Y-145071428D01*
X433204819Y-145071428D02*
X433204819Y-144880952D01*
X433204819Y-144880952D02*
X433252438Y-144785714D01*
X433252438Y-144785714D02*
X433300057Y-144738095D01*
X433300057Y-144738095D02*
X433395295Y-144690476D01*
X433395295Y-144690476D02*
X433442914Y-144690476D01*
X433442914Y-144690476D02*
X433538152Y-144738095D01*
X433538152Y-144738095D02*
X433585771Y-144785714D01*
X433585771Y-144785714D02*
X433633390Y-144880952D01*
X433633390Y-144880952D02*
X433633390Y-145071428D01*
X433633390Y-145071428D02*
X433681009Y-145166666D01*
X433681009Y-145166666D02*
X433728628Y-145214285D01*
X433728628Y-145214285D02*
X433823866Y-145261904D01*
X433823866Y-145261904D02*
X434014342Y-145261904D01*
X434014342Y-145261904D02*
X434109580Y-145214285D01*
X434109580Y-145214285D02*
X434157200Y-145166666D01*
X434157200Y-145166666D02*
X434204819Y-145071428D01*
X434204819Y-145071428D02*
X434204819Y-144880952D01*
X434204819Y-144880952D02*
X434157200Y-144785714D01*
X434157200Y-144785714D02*
X434109580Y-144738095D01*
X434109580Y-144738095D02*
X434014342Y-144690476D01*
X434014342Y-144690476D02*
X433823866Y-144690476D01*
X433823866Y-144690476D02*
X433728628Y-144738095D01*
X433728628Y-144738095D02*
X433681009Y-144785714D01*
X433681009Y-144785714D02*
X433633390Y-144880952D01*
X471019580Y-200242857D02*
X471067200Y-200290476D01*
X471067200Y-200290476D02*
X471114819Y-200433333D01*
X471114819Y-200433333D02*
X471114819Y-200528571D01*
X471114819Y-200528571D02*
X471067200Y-200671428D01*
X471067200Y-200671428D02*
X470971961Y-200766666D01*
X470971961Y-200766666D02*
X470876723Y-200814285D01*
X470876723Y-200814285D02*
X470686247Y-200861904D01*
X470686247Y-200861904D02*
X470543390Y-200861904D01*
X470543390Y-200861904D02*
X470352914Y-200814285D01*
X470352914Y-200814285D02*
X470257676Y-200766666D01*
X470257676Y-200766666D02*
X470162438Y-200671428D01*
X470162438Y-200671428D02*
X470114819Y-200528571D01*
X470114819Y-200528571D02*
X470114819Y-200433333D01*
X470114819Y-200433333D02*
X470162438Y-200290476D01*
X470162438Y-200290476D02*
X470210057Y-200242857D01*
X471114819Y-199290476D02*
X471114819Y-199861904D01*
X471114819Y-199576190D02*
X470114819Y-199576190D01*
X470114819Y-199576190D02*
X470257676Y-199671428D01*
X470257676Y-199671428D02*
X470352914Y-199766666D01*
X470352914Y-199766666D02*
X470400533Y-199861904D01*
X470543390Y-198719047D02*
X470495771Y-198814285D01*
X470495771Y-198814285D02*
X470448152Y-198861904D01*
X470448152Y-198861904D02*
X470352914Y-198909523D01*
X470352914Y-198909523D02*
X470305295Y-198909523D01*
X470305295Y-198909523D02*
X470210057Y-198861904D01*
X470210057Y-198861904D02*
X470162438Y-198814285D01*
X470162438Y-198814285D02*
X470114819Y-198719047D01*
X470114819Y-198719047D02*
X470114819Y-198528571D01*
X470114819Y-198528571D02*
X470162438Y-198433333D01*
X470162438Y-198433333D02*
X470210057Y-198385714D01*
X470210057Y-198385714D02*
X470305295Y-198338095D01*
X470305295Y-198338095D02*
X470352914Y-198338095D01*
X470352914Y-198338095D02*
X470448152Y-198385714D01*
X470448152Y-198385714D02*
X470495771Y-198433333D01*
X470495771Y-198433333D02*
X470543390Y-198528571D01*
X470543390Y-198528571D02*
X470543390Y-198719047D01*
X470543390Y-198719047D02*
X470591009Y-198814285D01*
X470591009Y-198814285D02*
X470638628Y-198861904D01*
X470638628Y-198861904D02*
X470733866Y-198909523D01*
X470733866Y-198909523D02*
X470924342Y-198909523D01*
X470924342Y-198909523D02*
X471019580Y-198861904D01*
X471019580Y-198861904D02*
X471067200Y-198814285D01*
X471067200Y-198814285D02*
X471114819Y-198719047D01*
X471114819Y-198719047D02*
X471114819Y-198528571D01*
X471114819Y-198528571D02*
X471067200Y-198433333D01*
X471067200Y-198433333D02*
X471019580Y-198385714D01*
X471019580Y-198385714D02*
X470924342Y-198338095D01*
X470924342Y-198338095D02*
X470733866Y-198338095D01*
X470733866Y-198338095D02*
X470638628Y-198385714D01*
X470638628Y-198385714D02*
X470591009Y-198433333D01*
X470591009Y-198433333D02*
X470543390Y-198528571D01*
X329709580Y-140066666D02*
X329757200Y-140114285D01*
X329757200Y-140114285D02*
X329804819Y-140257142D01*
X329804819Y-140257142D02*
X329804819Y-140352380D01*
X329804819Y-140352380D02*
X329757200Y-140495237D01*
X329757200Y-140495237D02*
X329661961Y-140590475D01*
X329661961Y-140590475D02*
X329566723Y-140638094D01*
X329566723Y-140638094D02*
X329376247Y-140685713D01*
X329376247Y-140685713D02*
X329233390Y-140685713D01*
X329233390Y-140685713D02*
X329042914Y-140638094D01*
X329042914Y-140638094D02*
X328947676Y-140590475D01*
X328947676Y-140590475D02*
X328852438Y-140495237D01*
X328852438Y-140495237D02*
X328804819Y-140352380D01*
X328804819Y-140352380D02*
X328804819Y-140257142D01*
X328804819Y-140257142D02*
X328852438Y-140114285D01*
X328852438Y-140114285D02*
X328900057Y-140066666D01*
X328804819Y-139733332D02*
X328804819Y-139066666D01*
X328804819Y-139066666D02*
X329804819Y-139495237D01*
X320469580Y-200262857D02*
X320517200Y-200310476D01*
X320517200Y-200310476D02*
X320564819Y-200453333D01*
X320564819Y-200453333D02*
X320564819Y-200548571D01*
X320564819Y-200548571D02*
X320517200Y-200691428D01*
X320517200Y-200691428D02*
X320421961Y-200786666D01*
X320421961Y-200786666D02*
X320326723Y-200834285D01*
X320326723Y-200834285D02*
X320136247Y-200881904D01*
X320136247Y-200881904D02*
X319993390Y-200881904D01*
X319993390Y-200881904D02*
X319802914Y-200834285D01*
X319802914Y-200834285D02*
X319707676Y-200786666D01*
X319707676Y-200786666D02*
X319612438Y-200691428D01*
X319612438Y-200691428D02*
X319564819Y-200548571D01*
X319564819Y-200548571D02*
X319564819Y-200453333D01*
X319564819Y-200453333D02*
X319612438Y-200310476D01*
X319612438Y-200310476D02*
X319660057Y-200262857D01*
X320564819Y-199310476D02*
X320564819Y-199881904D01*
X320564819Y-199596190D02*
X319564819Y-199596190D01*
X319564819Y-199596190D02*
X319707676Y-199691428D01*
X319707676Y-199691428D02*
X319802914Y-199786666D01*
X319802914Y-199786666D02*
X319850533Y-199881904D01*
X319564819Y-198405714D02*
X319564819Y-198881904D01*
X319564819Y-198881904D02*
X320041009Y-198929523D01*
X320041009Y-198929523D02*
X319993390Y-198881904D01*
X319993390Y-198881904D02*
X319945771Y-198786666D01*
X319945771Y-198786666D02*
X319945771Y-198548571D01*
X319945771Y-198548571D02*
X319993390Y-198453333D01*
X319993390Y-198453333D02*
X320041009Y-198405714D01*
X320041009Y-198405714D02*
X320136247Y-198358095D01*
X320136247Y-198358095D02*
X320374342Y-198358095D01*
X320374342Y-198358095D02*
X320469580Y-198405714D01*
X320469580Y-198405714D02*
X320517200Y-198453333D01*
X320517200Y-198453333D02*
X320564819Y-198548571D01*
X320564819Y-198548571D02*
X320564819Y-198786666D01*
X320564819Y-198786666D02*
X320517200Y-198881904D01*
X320517200Y-198881904D02*
X320469580Y-198929523D01*
X183014819Y-145761904D02*
X183824342Y-145761904D01*
X183824342Y-145761904D02*
X183919580Y-145714285D01*
X183919580Y-145714285D02*
X183967200Y-145666666D01*
X183967200Y-145666666D02*
X184014819Y-145571428D01*
X184014819Y-145571428D02*
X184014819Y-145380952D01*
X184014819Y-145380952D02*
X183967200Y-145285714D01*
X183967200Y-145285714D02*
X183919580Y-145238095D01*
X183919580Y-145238095D02*
X183824342Y-145190476D01*
X183824342Y-145190476D02*
X183014819Y-145190476D01*
X183110057Y-144761904D02*
X183062438Y-144714285D01*
X183062438Y-144714285D02*
X183014819Y-144619047D01*
X183014819Y-144619047D02*
X183014819Y-144380952D01*
X183014819Y-144380952D02*
X183062438Y-144285714D01*
X183062438Y-144285714D02*
X183110057Y-144238095D01*
X183110057Y-144238095D02*
X183205295Y-144190476D01*
X183205295Y-144190476D02*
X183300533Y-144190476D01*
X183300533Y-144190476D02*
X183443390Y-144238095D01*
X183443390Y-144238095D02*
X184014819Y-144809523D01*
X184014819Y-144809523D02*
X184014819Y-144190476D01*
X378899580Y-140746666D02*
X378947200Y-140794285D01*
X378947200Y-140794285D02*
X378994819Y-140937142D01*
X378994819Y-140937142D02*
X378994819Y-141032380D01*
X378994819Y-141032380D02*
X378947200Y-141175237D01*
X378947200Y-141175237D02*
X378851961Y-141270475D01*
X378851961Y-141270475D02*
X378756723Y-141318094D01*
X378756723Y-141318094D02*
X378566247Y-141365713D01*
X378566247Y-141365713D02*
X378423390Y-141365713D01*
X378423390Y-141365713D02*
X378232914Y-141318094D01*
X378232914Y-141318094D02*
X378137676Y-141270475D01*
X378137676Y-141270475D02*
X378042438Y-141175237D01*
X378042438Y-141175237D02*
X377994819Y-141032380D01*
X377994819Y-141032380D02*
X377994819Y-140937142D01*
X377994819Y-140937142D02*
X378042438Y-140794285D01*
X378042438Y-140794285D02*
X378090057Y-140746666D01*
X378423390Y-140175237D02*
X378375771Y-140270475D01*
X378375771Y-140270475D02*
X378328152Y-140318094D01*
X378328152Y-140318094D02*
X378232914Y-140365713D01*
X378232914Y-140365713D02*
X378185295Y-140365713D01*
X378185295Y-140365713D02*
X378090057Y-140318094D01*
X378090057Y-140318094D02*
X378042438Y-140270475D01*
X378042438Y-140270475D02*
X377994819Y-140175237D01*
X377994819Y-140175237D02*
X377994819Y-139984761D01*
X377994819Y-139984761D02*
X378042438Y-139889523D01*
X378042438Y-139889523D02*
X378090057Y-139841904D01*
X378090057Y-139841904D02*
X378185295Y-139794285D01*
X378185295Y-139794285D02*
X378232914Y-139794285D01*
X378232914Y-139794285D02*
X378328152Y-139841904D01*
X378328152Y-139841904D02*
X378375771Y-139889523D01*
X378375771Y-139889523D02*
X378423390Y-139984761D01*
X378423390Y-139984761D02*
X378423390Y-140175237D01*
X378423390Y-140175237D02*
X378471009Y-140270475D01*
X378471009Y-140270475D02*
X378518628Y-140318094D01*
X378518628Y-140318094D02*
X378613866Y-140365713D01*
X378613866Y-140365713D02*
X378804342Y-140365713D01*
X378804342Y-140365713D02*
X378899580Y-140318094D01*
X378899580Y-140318094D02*
X378947200Y-140270475D01*
X378947200Y-140270475D02*
X378994819Y-140175237D01*
X378994819Y-140175237D02*
X378994819Y-139984761D01*
X378994819Y-139984761D02*
X378947200Y-139889523D01*
X378947200Y-139889523D02*
X378899580Y-139841904D01*
X378899580Y-139841904D02*
X378804342Y-139794285D01*
X378804342Y-139794285D02*
X378613866Y-139794285D01*
X378613866Y-139794285D02*
X378518628Y-139841904D01*
X378518628Y-139841904D02*
X378471009Y-139889523D01*
X378471009Y-139889523D02*
X378423390Y-139984761D01*
X415394819Y-195968094D02*
X416204342Y-195968094D01*
X416204342Y-195968094D02*
X416299580Y-195920475D01*
X416299580Y-195920475D02*
X416347200Y-195872856D01*
X416347200Y-195872856D02*
X416394819Y-195777618D01*
X416394819Y-195777618D02*
X416394819Y-195587142D01*
X416394819Y-195587142D02*
X416347200Y-195491904D01*
X416347200Y-195491904D02*
X416299580Y-195444285D01*
X416299580Y-195444285D02*
X416204342Y-195396666D01*
X416204342Y-195396666D02*
X415394819Y-195396666D01*
X416394819Y-194396666D02*
X416394819Y-194968094D01*
X416394819Y-194682380D02*
X415394819Y-194682380D01*
X415394819Y-194682380D02*
X415537676Y-194777618D01*
X415537676Y-194777618D02*
X415632914Y-194872856D01*
X415632914Y-194872856D02*
X415680533Y-194968094D01*
X415394819Y-193491904D02*
X415394819Y-193968094D01*
X415394819Y-193968094D02*
X415871009Y-194015713D01*
X415871009Y-194015713D02*
X415823390Y-193968094D01*
X415823390Y-193968094D02*
X415775771Y-193872856D01*
X415775771Y-193872856D02*
X415775771Y-193634761D01*
X415775771Y-193634761D02*
X415823390Y-193539523D01*
X415823390Y-193539523D02*
X415871009Y-193491904D01*
X415871009Y-193491904D02*
X415966247Y-193444285D01*
X415966247Y-193444285D02*
X416204342Y-193444285D01*
X416204342Y-193444285D02*
X416299580Y-193491904D01*
X416299580Y-193491904D02*
X416347200Y-193539523D01*
X416347200Y-193539523D02*
X416394819Y-193634761D01*
X416394819Y-193634761D02*
X416394819Y-193872856D01*
X416394819Y-193872856D02*
X416347200Y-193968094D01*
X416347200Y-193968094D02*
X416299580Y-194015713D01*
X221039580Y-200542857D02*
X221087200Y-200590476D01*
X221087200Y-200590476D02*
X221134819Y-200733333D01*
X221134819Y-200733333D02*
X221134819Y-200828571D01*
X221134819Y-200828571D02*
X221087200Y-200971428D01*
X221087200Y-200971428D02*
X220991961Y-201066666D01*
X220991961Y-201066666D02*
X220896723Y-201114285D01*
X220896723Y-201114285D02*
X220706247Y-201161904D01*
X220706247Y-201161904D02*
X220563390Y-201161904D01*
X220563390Y-201161904D02*
X220372914Y-201114285D01*
X220372914Y-201114285D02*
X220277676Y-201066666D01*
X220277676Y-201066666D02*
X220182438Y-200971428D01*
X220182438Y-200971428D02*
X220134819Y-200828571D01*
X220134819Y-200828571D02*
X220134819Y-200733333D01*
X220134819Y-200733333D02*
X220182438Y-200590476D01*
X220182438Y-200590476D02*
X220230057Y-200542857D01*
X221134819Y-199590476D02*
X221134819Y-200161904D01*
X221134819Y-199876190D02*
X220134819Y-199876190D01*
X220134819Y-199876190D02*
X220277676Y-199971428D01*
X220277676Y-199971428D02*
X220372914Y-200066666D01*
X220372914Y-200066666D02*
X220420533Y-200161904D01*
X220134819Y-199257142D02*
X220134819Y-198638095D01*
X220134819Y-198638095D02*
X220515771Y-198971428D01*
X220515771Y-198971428D02*
X220515771Y-198828571D01*
X220515771Y-198828571D02*
X220563390Y-198733333D01*
X220563390Y-198733333D02*
X220611009Y-198685714D01*
X220611009Y-198685714D02*
X220706247Y-198638095D01*
X220706247Y-198638095D02*
X220944342Y-198638095D01*
X220944342Y-198638095D02*
X221039580Y-198685714D01*
X221039580Y-198685714D02*
X221087200Y-198733333D01*
X221087200Y-198733333D02*
X221134819Y-198828571D01*
X221134819Y-198828571D02*
X221134819Y-199114285D01*
X221134819Y-199114285D02*
X221087200Y-199209523D01*
X221087200Y-199209523D02*
X221039580Y-199257142D01*
X334014819Y-145531904D02*
X334824342Y-145531904D01*
X334824342Y-145531904D02*
X334919580Y-145484285D01*
X334919580Y-145484285D02*
X334967200Y-145436666D01*
X334967200Y-145436666D02*
X335014819Y-145341428D01*
X335014819Y-145341428D02*
X335014819Y-145150952D01*
X335014819Y-145150952D02*
X334967200Y-145055714D01*
X334967200Y-145055714D02*
X334919580Y-145008095D01*
X334919580Y-145008095D02*
X334824342Y-144960476D01*
X334824342Y-144960476D02*
X334014819Y-144960476D01*
X334014819Y-144055714D02*
X334014819Y-144246190D01*
X334014819Y-144246190D02*
X334062438Y-144341428D01*
X334062438Y-144341428D02*
X334110057Y-144389047D01*
X334110057Y-144389047D02*
X334252914Y-144484285D01*
X334252914Y-144484285D02*
X334443390Y-144531904D01*
X334443390Y-144531904D02*
X334824342Y-144531904D01*
X334824342Y-144531904D02*
X334919580Y-144484285D01*
X334919580Y-144484285D02*
X334967200Y-144436666D01*
X334967200Y-144436666D02*
X335014819Y-144341428D01*
X335014819Y-144341428D02*
X335014819Y-144150952D01*
X335014819Y-144150952D02*
X334967200Y-144055714D01*
X334967200Y-144055714D02*
X334919580Y-144008095D01*
X334919580Y-144008095D02*
X334824342Y-143960476D01*
X334824342Y-143960476D02*
X334586247Y-143960476D01*
X334586247Y-143960476D02*
X334491009Y-144008095D01*
X334491009Y-144008095D02*
X334443390Y-144055714D01*
X334443390Y-144055714D02*
X334395771Y-144150952D01*
X334395771Y-144150952D02*
X334395771Y-144341428D01*
X334395771Y-144341428D02*
X334443390Y-144436666D01*
X334443390Y-144436666D02*
X334491009Y-144484285D01*
X334491009Y-144484285D02*
X334586247Y-144531904D01*
X264394819Y-196468094D02*
X265204342Y-196468094D01*
X265204342Y-196468094D02*
X265299580Y-196420475D01*
X265299580Y-196420475D02*
X265347200Y-196372856D01*
X265347200Y-196372856D02*
X265394819Y-196277618D01*
X265394819Y-196277618D02*
X265394819Y-196087142D01*
X265394819Y-196087142D02*
X265347200Y-195991904D01*
X265347200Y-195991904D02*
X265299580Y-195944285D01*
X265299580Y-195944285D02*
X265204342Y-195896666D01*
X265204342Y-195896666D02*
X264394819Y-195896666D01*
X265394819Y-194896666D02*
X265394819Y-195468094D01*
X265394819Y-195182380D02*
X264394819Y-195182380D01*
X264394819Y-195182380D02*
X264537676Y-195277618D01*
X264537676Y-195277618D02*
X264632914Y-195372856D01*
X264632914Y-195372856D02*
X264680533Y-195468094D01*
X264394819Y-194039523D02*
X264394819Y-194229999D01*
X264394819Y-194229999D02*
X264442438Y-194325237D01*
X264442438Y-194325237D02*
X264490057Y-194372856D01*
X264490057Y-194372856D02*
X264632914Y-194468094D01*
X264632914Y-194468094D02*
X264823390Y-194515713D01*
X264823390Y-194515713D02*
X265204342Y-194515713D01*
X265204342Y-194515713D02*
X265299580Y-194468094D01*
X265299580Y-194468094D02*
X265347200Y-194420475D01*
X265347200Y-194420475D02*
X265394819Y-194325237D01*
X265394819Y-194325237D02*
X265394819Y-194134761D01*
X265394819Y-194134761D02*
X265347200Y-194039523D01*
X265347200Y-194039523D02*
X265299580Y-193991904D01*
X265299580Y-193991904D02*
X265204342Y-193944285D01*
X265204342Y-193944285D02*
X264966247Y-193944285D01*
X264966247Y-193944285D02*
X264871009Y-193991904D01*
X264871009Y-193991904D02*
X264823390Y-194039523D01*
X264823390Y-194039523D02*
X264775771Y-194134761D01*
X264775771Y-194134761D02*
X264775771Y-194325237D01*
X264775771Y-194325237D02*
X264823390Y-194420475D01*
X264823390Y-194420475D02*
X264871009Y-194468094D01*
X264871009Y-194468094D02*
X264966247Y-194515713D01*
X483744819Y-145891904D02*
X484554342Y-145891904D01*
X484554342Y-145891904D02*
X484649580Y-145844285D01*
X484649580Y-145844285D02*
X484697200Y-145796666D01*
X484697200Y-145796666D02*
X484744819Y-145701428D01*
X484744819Y-145701428D02*
X484744819Y-145510952D01*
X484744819Y-145510952D02*
X484697200Y-145415714D01*
X484697200Y-145415714D02*
X484649580Y-145368095D01*
X484649580Y-145368095D02*
X484554342Y-145320476D01*
X484554342Y-145320476D02*
X483744819Y-145320476D01*
X484744819Y-144796666D02*
X484744819Y-144606190D01*
X484744819Y-144606190D02*
X484697200Y-144510952D01*
X484697200Y-144510952D02*
X484649580Y-144463333D01*
X484649580Y-144463333D02*
X484506723Y-144368095D01*
X484506723Y-144368095D02*
X484316247Y-144320476D01*
X484316247Y-144320476D02*
X483935295Y-144320476D01*
X483935295Y-144320476D02*
X483840057Y-144368095D01*
X483840057Y-144368095D02*
X483792438Y-144415714D01*
X483792438Y-144415714D02*
X483744819Y-144510952D01*
X483744819Y-144510952D02*
X483744819Y-144701428D01*
X483744819Y-144701428D02*
X483792438Y-144796666D01*
X483792438Y-144796666D02*
X483840057Y-144844285D01*
X483840057Y-144844285D02*
X483935295Y-144891904D01*
X483935295Y-144891904D02*
X484173390Y-144891904D01*
X484173390Y-144891904D02*
X484268628Y-144844285D01*
X484268628Y-144844285D02*
X484316247Y-144796666D01*
X484316247Y-144796666D02*
X484363866Y-144701428D01*
X484363866Y-144701428D02*
X484363866Y-144510952D01*
X484363866Y-144510952D02*
X484316247Y-144415714D01*
X484316247Y-144415714D02*
X484268628Y-144368095D01*
X484268628Y-144368095D02*
X484173390Y-144320476D01*
X428409580Y-140846666D02*
X428457200Y-140894285D01*
X428457200Y-140894285D02*
X428504819Y-141037142D01*
X428504819Y-141037142D02*
X428504819Y-141132380D01*
X428504819Y-141132380D02*
X428457200Y-141275237D01*
X428457200Y-141275237D02*
X428361961Y-141370475D01*
X428361961Y-141370475D02*
X428266723Y-141418094D01*
X428266723Y-141418094D02*
X428076247Y-141465713D01*
X428076247Y-141465713D02*
X427933390Y-141465713D01*
X427933390Y-141465713D02*
X427742914Y-141418094D01*
X427742914Y-141418094D02*
X427647676Y-141370475D01*
X427647676Y-141370475D02*
X427552438Y-141275237D01*
X427552438Y-141275237D02*
X427504819Y-141132380D01*
X427504819Y-141132380D02*
X427504819Y-141037142D01*
X427504819Y-141037142D02*
X427552438Y-140894285D01*
X427552438Y-140894285D02*
X427600057Y-140846666D01*
X428504819Y-140370475D02*
X428504819Y-140179999D01*
X428504819Y-140179999D02*
X428457200Y-140084761D01*
X428457200Y-140084761D02*
X428409580Y-140037142D01*
X428409580Y-140037142D02*
X428266723Y-139941904D01*
X428266723Y-139941904D02*
X428076247Y-139894285D01*
X428076247Y-139894285D02*
X427695295Y-139894285D01*
X427695295Y-139894285D02*
X427600057Y-139941904D01*
X427600057Y-139941904D02*
X427552438Y-139989523D01*
X427552438Y-139989523D02*
X427504819Y-140084761D01*
X427504819Y-140084761D02*
X427504819Y-140275237D01*
X427504819Y-140275237D02*
X427552438Y-140370475D01*
X427552438Y-140370475D02*
X427600057Y-140418094D01*
X427600057Y-140418094D02*
X427695295Y-140465713D01*
X427695295Y-140465713D02*
X427933390Y-140465713D01*
X427933390Y-140465713D02*
X428028628Y-140418094D01*
X428028628Y-140418094D02*
X428076247Y-140370475D01*
X428076247Y-140370475D02*
X428123866Y-140275237D01*
X428123866Y-140275237D02*
X428123866Y-140084761D01*
X428123866Y-140084761D02*
X428076247Y-139989523D01*
X428076247Y-139989523D02*
X428028628Y-139941904D01*
X428028628Y-139941904D02*
X427933390Y-139894285D01*
X178719580Y-140286666D02*
X178767200Y-140334285D01*
X178767200Y-140334285D02*
X178814819Y-140477142D01*
X178814819Y-140477142D02*
X178814819Y-140572380D01*
X178814819Y-140572380D02*
X178767200Y-140715237D01*
X178767200Y-140715237D02*
X178671961Y-140810475D01*
X178671961Y-140810475D02*
X178576723Y-140858094D01*
X178576723Y-140858094D02*
X178386247Y-140905713D01*
X178386247Y-140905713D02*
X178243390Y-140905713D01*
X178243390Y-140905713D02*
X178052914Y-140858094D01*
X178052914Y-140858094D02*
X177957676Y-140810475D01*
X177957676Y-140810475D02*
X177862438Y-140715237D01*
X177862438Y-140715237D02*
X177814819Y-140572380D01*
X177814819Y-140572380D02*
X177814819Y-140477142D01*
X177814819Y-140477142D02*
X177862438Y-140334285D01*
X177862438Y-140334285D02*
X177910057Y-140286666D01*
X178148152Y-139429523D02*
X178814819Y-139429523D01*
X177767200Y-139667618D02*
X178481485Y-139905713D01*
X178481485Y-139905713D02*
X178481485Y-139286666D01*
X313534819Y-200468094D02*
X314344342Y-200468094D01*
X314344342Y-200468094D02*
X314439580Y-200420475D01*
X314439580Y-200420475D02*
X314487200Y-200372856D01*
X314487200Y-200372856D02*
X314534819Y-200277618D01*
X314534819Y-200277618D02*
X314534819Y-200087142D01*
X314534819Y-200087142D02*
X314487200Y-199991904D01*
X314487200Y-199991904D02*
X314439580Y-199944285D01*
X314439580Y-199944285D02*
X314344342Y-199896666D01*
X314344342Y-199896666D02*
X313534819Y-199896666D01*
X314534819Y-198896666D02*
X314534819Y-199468094D01*
X314534819Y-199182380D02*
X313534819Y-199182380D01*
X313534819Y-199182380D02*
X313677676Y-199277618D01*
X313677676Y-199277618D02*
X313772914Y-199372856D01*
X313772914Y-199372856D02*
X313820533Y-199468094D01*
X314534819Y-197944285D02*
X314534819Y-198515713D01*
X314534819Y-198229999D02*
X313534819Y-198229999D01*
X313534819Y-198229999D02*
X313677676Y-198325237D01*
X313677676Y-198325237D02*
X313772914Y-198420475D01*
X313772914Y-198420475D02*
X313820533Y-198515713D01*
X111986905Y-152954819D02*
X111986905Y-151954819D01*
X111986905Y-151954819D02*
X112225000Y-151954819D01*
X112225000Y-151954819D02*
X112367857Y-152002438D01*
X112367857Y-152002438D02*
X112463095Y-152097676D01*
X112463095Y-152097676D02*
X112510714Y-152192914D01*
X112510714Y-152192914D02*
X112558333Y-152383390D01*
X112558333Y-152383390D02*
X112558333Y-152526247D01*
X112558333Y-152526247D02*
X112510714Y-152716723D01*
X112510714Y-152716723D02*
X112463095Y-152811961D01*
X112463095Y-152811961D02*
X112367857Y-152907200D01*
X112367857Y-152907200D02*
X112225000Y-152954819D01*
X112225000Y-152954819D02*
X111986905Y-152954819D01*
X113510714Y-152954819D02*
X112939286Y-152954819D01*
X113225000Y-152954819D02*
X113225000Y-151954819D01*
X113225000Y-151954819D02*
X113129762Y-152097676D01*
X113129762Y-152097676D02*
X113034524Y-152192914D01*
X113034524Y-152192914D02*
X112939286Y-152240533D01*
X129399580Y-140286666D02*
X129447200Y-140334285D01*
X129447200Y-140334285D02*
X129494819Y-140477142D01*
X129494819Y-140477142D02*
X129494819Y-140572380D01*
X129494819Y-140572380D02*
X129447200Y-140715237D01*
X129447200Y-140715237D02*
X129351961Y-140810475D01*
X129351961Y-140810475D02*
X129256723Y-140858094D01*
X129256723Y-140858094D02*
X129066247Y-140905713D01*
X129066247Y-140905713D02*
X128923390Y-140905713D01*
X128923390Y-140905713D02*
X128732914Y-140858094D01*
X128732914Y-140858094D02*
X128637676Y-140810475D01*
X128637676Y-140810475D02*
X128542438Y-140715237D01*
X128542438Y-140715237D02*
X128494819Y-140572380D01*
X128494819Y-140572380D02*
X128494819Y-140477142D01*
X128494819Y-140477142D02*
X128542438Y-140334285D01*
X128542438Y-140334285D02*
X128590057Y-140286666D01*
X128494819Y-139953332D02*
X128494819Y-139334285D01*
X128494819Y-139334285D02*
X128875771Y-139667618D01*
X128875771Y-139667618D02*
X128875771Y-139524761D01*
X128875771Y-139524761D02*
X128923390Y-139429523D01*
X128923390Y-139429523D02*
X128971009Y-139381904D01*
X128971009Y-139381904D02*
X129066247Y-139334285D01*
X129066247Y-139334285D02*
X129304342Y-139334285D01*
X129304342Y-139334285D02*
X129399580Y-139381904D01*
X129399580Y-139381904D02*
X129447200Y-139429523D01*
X129447200Y-139429523D02*
X129494819Y-139524761D01*
X129494819Y-139524761D02*
X129494819Y-139810475D01*
X129494819Y-139810475D02*
X129447200Y-139905713D01*
X129447200Y-139905713D02*
X129399580Y-139953332D01*
X285238095Y-143224819D02*
X285238095Y-144034342D01*
X285238095Y-144034342D02*
X285285714Y-144129580D01*
X285285714Y-144129580D02*
X285333333Y-144177200D01*
X285333333Y-144177200D02*
X285428571Y-144224819D01*
X285428571Y-144224819D02*
X285619047Y-144224819D01*
X285619047Y-144224819D02*
X285714285Y-144177200D01*
X285714285Y-144177200D02*
X285761904Y-144129580D01*
X285761904Y-144129580D02*
X285809523Y-144034342D01*
X285809523Y-144034342D02*
X285809523Y-143224819D01*
X286714285Y-143558152D02*
X286714285Y-144224819D01*
X286476190Y-143177200D02*
X286238095Y-143891485D01*
X286238095Y-143891485D02*
X286857142Y-143891485D01*
X90107142Y-157859580D02*
X90059523Y-157907200D01*
X90059523Y-157907200D02*
X89916666Y-157954819D01*
X89916666Y-157954819D02*
X89821428Y-157954819D01*
X89821428Y-157954819D02*
X89678571Y-157907200D01*
X89678571Y-157907200D02*
X89583333Y-157811961D01*
X89583333Y-157811961D02*
X89535714Y-157716723D01*
X89535714Y-157716723D02*
X89488095Y-157526247D01*
X89488095Y-157526247D02*
X89488095Y-157383390D01*
X89488095Y-157383390D02*
X89535714Y-157192914D01*
X89535714Y-157192914D02*
X89583333Y-157097676D01*
X89583333Y-157097676D02*
X89678571Y-157002438D01*
X89678571Y-157002438D02*
X89821428Y-156954819D01*
X89821428Y-156954819D02*
X89916666Y-156954819D01*
X89916666Y-156954819D02*
X90059523Y-157002438D01*
X90059523Y-157002438D02*
X90107142Y-157050057D01*
X90488095Y-157050057D02*
X90535714Y-157002438D01*
X90535714Y-157002438D02*
X90630952Y-156954819D01*
X90630952Y-156954819D02*
X90869047Y-156954819D01*
X90869047Y-156954819D02*
X90964285Y-157002438D01*
X90964285Y-157002438D02*
X91011904Y-157050057D01*
X91011904Y-157050057D02*
X91059523Y-157145295D01*
X91059523Y-157145295D02*
X91059523Y-157240533D01*
X91059523Y-157240533D02*
X91011904Y-157383390D01*
X91011904Y-157383390D02*
X90440476Y-157954819D01*
X90440476Y-157954819D02*
X91059523Y-157954819D01*
X91678571Y-156954819D02*
X91773809Y-156954819D01*
X91773809Y-156954819D02*
X91869047Y-157002438D01*
X91869047Y-157002438D02*
X91916666Y-157050057D01*
X91916666Y-157050057D02*
X91964285Y-157145295D01*
X91964285Y-157145295D02*
X92011904Y-157335771D01*
X92011904Y-157335771D02*
X92011904Y-157573866D01*
X92011904Y-157573866D02*
X91964285Y-157764342D01*
X91964285Y-157764342D02*
X91916666Y-157859580D01*
X91916666Y-157859580D02*
X91869047Y-157907200D01*
X91869047Y-157907200D02*
X91773809Y-157954819D01*
X91773809Y-157954819D02*
X91678571Y-157954819D01*
X91678571Y-157954819D02*
X91583333Y-157907200D01*
X91583333Y-157907200D02*
X91535714Y-157859580D01*
X91535714Y-157859580D02*
X91488095Y-157764342D01*
X91488095Y-157764342D02*
X91440476Y-157573866D01*
X91440476Y-157573866D02*
X91440476Y-157335771D01*
X91440476Y-157335771D02*
X91488095Y-157145295D01*
X91488095Y-157145295D02*
X91535714Y-157050057D01*
X91535714Y-157050057D02*
X91583333Y-157002438D01*
X91583333Y-157002438D02*
X91678571Y-156954819D01*
X383154819Y-146261904D02*
X383964342Y-146261904D01*
X383964342Y-146261904D02*
X384059580Y-146214285D01*
X384059580Y-146214285D02*
X384107200Y-146166666D01*
X384107200Y-146166666D02*
X384154819Y-146071428D01*
X384154819Y-146071428D02*
X384154819Y-145880952D01*
X384154819Y-145880952D02*
X384107200Y-145785714D01*
X384107200Y-145785714D02*
X384059580Y-145738095D01*
X384059580Y-145738095D02*
X383964342Y-145690476D01*
X383964342Y-145690476D02*
X383154819Y-145690476D01*
X383154819Y-145309523D02*
X383154819Y-144642857D01*
X383154819Y-144642857D02*
X384154819Y-145071428D01*
X171679580Y-200222857D02*
X171727200Y-200270476D01*
X171727200Y-200270476D02*
X171774819Y-200413333D01*
X171774819Y-200413333D02*
X171774819Y-200508571D01*
X171774819Y-200508571D02*
X171727200Y-200651428D01*
X171727200Y-200651428D02*
X171631961Y-200746666D01*
X171631961Y-200746666D02*
X171536723Y-200794285D01*
X171536723Y-200794285D02*
X171346247Y-200841904D01*
X171346247Y-200841904D02*
X171203390Y-200841904D01*
X171203390Y-200841904D02*
X171012914Y-200794285D01*
X171012914Y-200794285D02*
X170917676Y-200746666D01*
X170917676Y-200746666D02*
X170822438Y-200651428D01*
X170822438Y-200651428D02*
X170774819Y-200508571D01*
X170774819Y-200508571D02*
X170774819Y-200413333D01*
X170774819Y-200413333D02*
X170822438Y-200270476D01*
X170822438Y-200270476D02*
X170870057Y-200222857D01*
X171774819Y-199270476D02*
X171774819Y-199841904D01*
X171774819Y-199556190D02*
X170774819Y-199556190D01*
X170774819Y-199556190D02*
X170917676Y-199651428D01*
X170917676Y-199651428D02*
X171012914Y-199746666D01*
X171012914Y-199746666D02*
X171060533Y-199841904D01*
X170870057Y-198889523D02*
X170822438Y-198841904D01*
X170822438Y-198841904D02*
X170774819Y-198746666D01*
X170774819Y-198746666D02*
X170774819Y-198508571D01*
X170774819Y-198508571D02*
X170822438Y-198413333D01*
X170822438Y-198413333D02*
X170870057Y-198365714D01*
X170870057Y-198365714D02*
X170965295Y-198318095D01*
X170965295Y-198318095D02*
X171060533Y-198318095D01*
X171060533Y-198318095D02*
X171203390Y-198365714D01*
X171203390Y-198365714D02*
X171774819Y-198937142D01*
X171774819Y-198937142D02*
X171774819Y-198318095D01*
X94339819Y-162508333D02*
X95054104Y-162508333D01*
X95054104Y-162508333D02*
X95196961Y-162555952D01*
X95196961Y-162555952D02*
X95292200Y-162651190D01*
X95292200Y-162651190D02*
X95339819Y-162794047D01*
X95339819Y-162794047D02*
X95339819Y-162889285D01*
X94673152Y-161603571D02*
X95339819Y-161603571D01*
X94292200Y-161841666D02*
X95006485Y-162079761D01*
X95006485Y-162079761D02*
X95006485Y-161460714D01*
X113894819Y-196468094D02*
X114704342Y-196468094D01*
X114704342Y-196468094D02*
X114799580Y-196420475D01*
X114799580Y-196420475D02*
X114847200Y-196372856D01*
X114847200Y-196372856D02*
X114894819Y-196277618D01*
X114894819Y-196277618D02*
X114894819Y-196087142D01*
X114894819Y-196087142D02*
X114847200Y-195991904D01*
X114847200Y-195991904D02*
X114799580Y-195944285D01*
X114799580Y-195944285D02*
X114704342Y-195896666D01*
X114704342Y-195896666D02*
X113894819Y-195896666D01*
X114894819Y-194896666D02*
X114894819Y-195468094D01*
X114894819Y-195182380D02*
X113894819Y-195182380D01*
X113894819Y-195182380D02*
X114037676Y-195277618D01*
X114037676Y-195277618D02*
X114132914Y-195372856D01*
X114132914Y-195372856D02*
X114180533Y-195468094D01*
X113894819Y-194277618D02*
X113894819Y-194182380D01*
X113894819Y-194182380D02*
X113942438Y-194087142D01*
X113942438Y-194087142D02*
X113990057Y-194039523D01*
X113990057Y-194039523D02*
X114085295Y-193991904D01*
X114085295Y-193991904D02*
X114275771Y-193944285D01*
X114275771Y-193944285D02*
X114513866Y-193944285D01*
X114513866Y-193944285D02*
X114704342Y-193991904D01*
X114704342Y-193991904D02*
X114799580Y-194039523D01*
X114799580Y-194039523D02*
X114847200Y-194087142D01*
X114847200Y-194087142D02*
X114894819Y-194182380D01*
X114894819Y-194182380D02*
X114894819Y-194277618D01*
X114894819Y-194277618D02*
X114847200Y-194372856D01*
X114847200Y-194372856D02*
X114799580Y-194420475D01*
X114799580Y-194420475D02*
X114704342Y-194468094D01*
X114704342Y-194468094D02*
X114513866Y-194515713D01*
X114513866Y-194515713D02*
X114275771Y-194515713D01*
X114275771Y-194515713D02*
X114085295Y-194468094D01*
X114085295Y-194468094D02*
X113990057Y-194420475D01*
X113990057Y-194420475D02*
X113942438Y-194372856D01*
X113942438Y-194372856D02*
X113894819Y-194277618D01*
X229789580Y-140336666D02*
X229837200Y-140384285D01*
X229837200Y-140384285D02*
X229884819Y-140527142D01*
X229884819Y-140527142D02*
X229884819Y-140622380D01*
X229884819Y-140622380D02*
X229837200Y-140765237D01*
X229837200Y-140765237D02*
X229741961Y-140860475D01*
X229741961Y-140860475D02*
X229646723Y-140908094D01*
X229646723Y-140908094D02*
X229456247Y-140955713D01*
X229456247Y-140955713D02*
X229313390Y-140955713D01*
X229313390Y-140955713D02*
X229122914Y-140908094D01*
X229122914Y-140908094D02*
X229027676Y-140860475D01*
X229027676Y-140860475D02*
X228932438Y-140765237D01*
X228932438Y-140765237D02*
X228884819Y-140622380D01*
X228884819Y-140622380D02*
X228884819Y-140527142D01*
X228884819Y-140527142D02*
X228932438Y-140384285D01*
X228932438Y-140384285D02*
X228980057Y-140336666D01*
X228884819Y-139431904D02*
X228884819Y-139908094D01*
X228884819Y-139908094D02*
X229361009Y-139955713D01*
X229361009Y-139955713D02*
X229313390Y-139908094D01*
X229313390Y-139908094D02*
X229265771Y-139812856D01*
X229265771Y-139812856D02*
X229265771Y-139574761D01*
X229265771Y-139574761D02*
X229313390Y-139479523D01*
X229313390Y-139479523D02*
X229361009Y-139431904D01*
X229361009Y-139431904D02*
X229456247Y-139384285D01*
X229456247Y-139384285D02*
X229694342Y-139384285D01*
X229694342Y-139384285D02*
X229789580Y-139431904D01*
X229789580Y-139431904D02*
X229837200Y-139479523D01*
X229837200Y-139479523D02*
X229884819Y-139574761D01*
X229884819Y-139574761D02*
X229884819Y-139812856D01*
X229884819Y-139812856D02*
X229837200Y-139908094D01*
X229837200Y-139908094D02*
X229789580Y-139955713D01*
X371109580Y-200742857D02*
X371157200Y-200790476D01*
X371157200Y-200790476D02*
X371204819Y-200933333D01*
X371204819Y-200933333D02*
X371204819Y-201028571D01*
X371204819Y-201028571D02*
X371157200Y-201171428D01*
X371157200Y-201171428D02*
X371061961Y-201266666D01*
X371061961Y-201266666D02*
X370966723Y-201314285D01*
X370966723Y-201314285D02*
X370776247Y-201361904D01*
X370776247Y-201361904D02*
X370633390Y-201361904D01*
X370633390Y-201361904D02*
X370442914Y-201314285D01*
X370442914Y-201314285D02*
X370347676Y-201266666D01*
X370347676Y-201266666D02*
X370252438Y-201171428D01*
X370252438Y-201171428D02*
X370204819Y-201028571D01*
X370204819Y-201028571D02*
X370204819Y-200933333D01*
X370204819Y-200933333D02*
X370252438Y-200790476D01*
X370252438Y-200790476D02*
X370300057Y-200742857D01*
X371204819Y-199790476D02*
X371204819Y-200361904D01*
X371204819Y-200076190D02*
X370204819Y-200076190D01*
X370204819Y-200076190D02*
X370347676Y-200171428D01*
X370347676Y-200171428D02*
X370442914Y-200266666D01*
X370442914Y-200266666D02*
X370490533Y-200361904D01*
X370204819Y-198933333D02*
X370204819Y-199123809D01*
X370204819Y-199123809D02*
X370252438Y-199219047D01*
X370252438Y-199219047D02*
X370300057Y-199266666D01*
X370300057Y-199266666D02*
X370442914Y-199361904D01*
X370442914Y-199361904D02*
X370633390Y-199409523D01*
X370633390Y-199409523D02*
X371014342Y-199409523D01*
X371014342Y-199409523D02*
X371109580Y-199361904D01*
X371109580Y-199361904D02*
X371157200Y-199314285D01*
X371157200Y-199314285D02*
X371204819Y-199219047D01*
X371204819Y-199219047D02*
X371204819Y-199028571D01*
X371204819Y-199028571D02*
X371157200Y-198933333D01*
X371157200Y-198933333D02*
X371109580Y-198885714D01*
X371109580Y-198885714D02*
X371014342Y-198838095D01*
X371014342Y-198838095D02*
X370776247Y-198838095D01*
X370776247Y-198838095D02*
X370681009Y-198885714D01*
X370681009Y-198885714D02*
X370633390Y-198933333D01*
X370633390Y-198933333D02*
X370585771Y-199028571D01*
X370585771Y-199028571D02*
X370585771Y-199219047D01*
X370585771Y-199219047D02*
X370633390Y-199314285D01*
X370633390Y-199314285D02*
X370681009Y-199361904D01*
X370681009Y-199361904D02*
X370776247Y-199409523D01*
X141129819Y-162611904D02*
X141939342Y-162611904D01*
X141939342Y-162611904D02*
X142034580Y-162564285D01*
X142034580Y-162564285D02*
X142082200Y-162516666D01*
X142082200Y-162516666D02*
X142129819Y-162421428D01*
X142129819Y-162421428D02*
X142129819Y-162230952D01*
X142129819Y-162230952D02*
X142082200Y-162135714D01*
X142082200Y-162135714D02*
X142034580Y-162088095D01*
X142034580Y-162088095D02*
X141939342Y-162040476D01*
X141939342Y-162040476D02*
X141129819Y-162040476D01*
X141129819Y-161088095D02*
X141129819Y-161564285D01*
X141129819Y-161564285D02*
X141606009Y-161611904D01*
X141606009Y-161611904D02*
X141558390Y-161564285D01*
X141558390Y-161564285D02*
X141510771Y-161469047D01*
X141510771Y-161469047D02*
X141510771Y-161230952D01*
X141510771Y-161230952D02*
X141558390Y-161135714D01*
X141558390Y-161135714D02*
X141606009Y-161088095D01*
X141606009Y-161088095D02*
X141701247Y-161040476D01*
X141701247Y-161040476D02*
X141939342Y-161040476D01*
X141939342Y-161040476D02*
X142034580Y-161088095D01*
X142034580Y-161088095D02*
X142082200Y-161135714D01*
X142082200Y-161135714D02*
X142129819Y-161230952D01*
X142129819Y-161230952D02*
X142129819Y-161469047D01*
X142129819Y-161469047D02*
X142082200Y-161564285D01*
X142082200Y-161564285D02*
X142034580Y-161611904D01*
X364894819Y-196508094D02*
X365704342Y-196508094D01*
X365704342Y-196508094D02*
X365799580Y-196460475D01*
X365799580Y-196460475D02*
X365847200Y-196412856D01*
X365847200Y-196412856D02*
X365894819Y-196317618D01*
X365894819Y-196317618D02*
X365894819Y-196127142D01*
X365894819Y-196127142D02*
X365847200Y-196031904D01*
X365847200Y-196031904D02*
X365799580Y-195984285D01*
X365799580Y-195984285D02*
X365704342Y-195936666D01*
X365704342Y-195936666D02*
X364894819Y-195936666D01*
X365894819Y-194936666D02*
X365894819Y-195508094D01*
X365894819Y-195222380D02*
X364894819Y-195222380D01*
X364894819Y-195222380D02*
X365037676Y-195317618D01*
X365037676Y-195317618D02*
X365132914Y-195412856D01*
X365132914Y-195412856D02*
X365180533Y-195508094D01*
X364894819Y-194603332D02*
X364894819Y-193984285D01*
X364894819Y-193984285D02*
X365275771Y-194317618D01*
X365275771Y-194317618D02*
X365275771Y-194174761D01*
X365275771Y-194174761D02*
X365323390Y-194079523D01*
X365323390Y-194079523D02*
X365371009Y-194031904D01*
X365371009Y-194031904D02*
X365466247Y-193984285D01*
X365466247Y-193984285D02*
X365704342Y-193984285D01*
X365704342Y-193984285D02*
X365799580Y-194031904D01*
X365799580Y-194031904D02*
X365847200Y-194079523D01*
X365847200Y-194079523D02*
X365894819Y-194174761D01*
X365894819Y-194174761D02*
X365894819Y-194460475D01*
X365894819Y-194460475D02*
X365847200Y-194555713D01*
X365847200Y-194555713D02*
X365799580Y-194603332D01*
X214534819Y-196238094D02*
X215344342Y-196238094D01*
X215344342Y-196238094D02*
X215439580Y-196190475D01*
X215439580Y-196190475D02*
X215487200Y-196142856D01*
X215487200Y-196142856D02*
X215534819Y-196047618D01*
X215534819Y-196047618D02*
X215534819Y-195857142D01*
X215534819Y-195857142D02*
X215487200Y-195761904D01*
X215487200Y-195761904D02*
X215439580Y-195714285D01*
X215439580Y-195714285D02*
X215344342Y-195666666D01*
X215344342Y-195666666D02*
X214534819Y-195666666D01*
X215534819Y-194666666D02*
X215534819Y-195238094D01*
X215534819Y-194952380D02*
X214534819Y-194952380D01*
X214534819Y-194952380D02*
X214677676Y-195047618D01*
X214677676Y-195047618D02*
X214772914Y-195142856D01*
X214772914Y-195142856D02*
X214820533Y-195238094D01*
X214868152Y-193809523D02*
X215534819Y-193809523D01*
X214487200Y-194047618D02*
X215201485Y-194285713D01*
X215201485Y-194285713D02*
X215201485Y-193666666D01*
X162107142Y-176359580D02*
X162059523Y-176407200D01*
X162059523Y-176407200D02*
X161916666Y-176454819D01*
X161916666Y-176454819D02*
X161821428Y-176454819D01*
X161821428Y-176454819D02*
X161678571Y-176407200D01*
X161678571Y-176407200D02*
X161583333Y-176311961D01*
X161583333Y-176311961D02*
X161535714Y-176216723D01*
X161535714Y-176216723D02*
X161488095Y-176026247D01*
X161488095Y-176026247D02*
X161488095Y-175883390D01*
X161488095Y-175883390D02*
X161535714Y-175692914D01*
X161535714Y-175692914D02*
X161583333Y-175597676D01*
X161583333Y-175597676D02*
X161678571Y-175502438D01*
X161678571Y-175502438D02*
X161821428Y-175454819D01*
X161821428Y-175454819D02*
X161916666Y-175454819D01*
X161916666Y-175454819D02*
X162059523Y-175502438D01*
X162059523Y-175502438D02*
X162107142Y-175550057D01*
X162488095Y-175550057D02*
X162535714Y-175502438D01*
X162535714Y-175502438D02*
X162630952Y-175454819D01*
X162630952Y-175454819D02*
X162869047Y-175454819D01*
X162869047Y-175454819D02*
X162964285Y-175502438D01*
X162964285Y-175502438D02*
X163011904Y-175550057D01*
X163011904Y-175550057D02*
X163059523Y-175645295D01*
X163059523Y-175645295D02*
X163059523Y-175740533D01*
X163059523Y-175740533D02*
X163011904Y-175883390D01*
X163011904Y-175883390D02*
X162440476Y-176454819D01*
X162440476Y-176454819D02*
X163059523Y-176454819D01*
X163440476Y-175550057D02*
X163488095Y-175502438D01*
X163488095Y-175502438D02*
X163583333Y-175454819D01*
X163583333Y-175454819D02*
X163821428Y-175454819D01*
X163821428Y-175454819D02*
X163916666Y-175502438D01*
X163916666Y-175502438D02*
X163964285Y-175550057D01*
X163964285Y-175550057D02*
X164011904Y-175645295D01*
X164011904Y-175645295D02*
X164011904Y-175740533D01*
X164011904Y-175740533D02*
X163964285Y-175883390D01*
X163964285Y-175883390D02*
X163392857Y-176454819D01*
X163392857Y-176454819D02*
X164011904Y-176454819D01*
X93607142Y-153929580D02*
X93559523Y-153977200D01*
X93559523Y-153977200D02*
X93416666Y-154024819D01*
X93416666Y-154024819D02*
X93321428Y-154024819D01*
X93321428Y-154024819D02*
X93178571Y-153977200D01*
X93178571Y-153977200D02*
X93083333Y-153881961D01*
X93083333Y-153881961D02*
X93035714Y-153786723D01*
X93035714Y-153786723D02*
X92988095Y-153596247D01*
X92988095Y-153596247D02*
X92988095Y-153453390D01*
X92988095Y-153453390D02*
X93035714Y-153262914D01*
X93035714Y-153262914D02*
X93083333Y-153167676D01*
X93083333Y-153167676D02*
X93178571Y-153072438D01*
X93178571Y-153072438D02*
X93321428Y-153024819D01*
X93321428Y-153024819D02*
X93416666Y-153024819D01*
X93416666Y-153024819D02*
X93559523Y-153072438D01*
X93559523Y-153072438D02*
X93607142Y-153120057D01*
X93988095Y-153120057D02*
X94035714Y-153072438D01*
X94035714Y-153072438D02*
X94130952Y-153024819D01*
X94130952Y-153024819D02*
X94369047Y-153024819D01*
X94369047Y-153024819D02*
X94464285Y-153072438D01*
X94464285Y-153072438D02*
X94511904Y-153120057D01*
X94511904Y-153120057D02*
X94559523Y-153215295D01*
X94559523Y-153215295D02*
X94559523Y-153310533D01*
X94559523Y-153310533D02*
X94511904Y-153453390D01*
X94511904Y-153453390D02*
X93940476Y-154024819D01*
X93940476Y-154024819D02*
X94559523Y-154024819D01*
X95511904Y-154024819D02*
X94940476Y-154024819D01*
X95226190Y-154024819D02*
X95226190Y-153024819D01*
X95226190Y-153024819D02*
X95130952Y-153167676D01*
X95130952Y-153167676D02*
X95035714Y-153262914D01*
X95035714Y-153262914D02*
X94940476Y-153310533D01*
X479339580Y-140982857D02*
X479387200Y-141030476D01*
X479387200Y-141030476D02*
X479434819Y-141173333D01*
X479434819Y-141173333D02*
X479434819Y-141268571D01*
X479434819Y-141268571D02*
X479387200Y-141411428D01*
X479387200Y-141411428D02*
X479291961Y-141506666D01*
X479291961Y-141506666D02*
X479196723Y-141554285D01*
X479196723Y-141554285D02*
X479006247Y-141601904D01*
X479006247Y-141601904D02*
X478863390Y-141601904D01*
X478863390Y-141601904D02*
X478672914Y-141554285D01*
X478672914Y-141554285D02*
X478577676Y-141506666D01*
X478577676Y-141506666D02*
X478482438Y-141411428D01*
X478482438Y-141411428D02*
X478434819Y-141268571D01*
X478434819Y-141268571D02*
X478434819Y-141173333D01*
X478434819Y-141173333D02*
X478482438Y-141030476D01*
X478482438Y-141030476D02*
X478530057Y-140982857D01*
X479434819Y-140030476D02*
X479434819Y-140601904D01*
X479434819Y-140316190D02*
X478434819Y-140316190D01*
X478434819Y-140316190D02*
X478577676Y-140411428D01*
X478577676Y-140411428D02*
X478672914Y-140506666D01*
X478672914Y-140506666D02*
X478720533Y-140601904D01*
X478434819Y-139411428D02*
X478434819Y-139316190D01*
X478434819Y-139316190D02*
X478482438Y-139220952D01*
X478482438Y-139220952D02*
X478530057Y-139173333D01*
X478530057Y-139173333D02*
X478625295Y-139125714D01*
X478625295Y-139125714D02*
X478815771Y-139078095D01*
X478815771Y-139078095D02*
X479053866Y-139078095D01*
X479053866Y-139078095D02*
X479244342Y-139125714D01*
X479244342Y-139125714D02*
X479339580Y-139173333D01*
X479339580Y-139173333D02*
X479387200Y-139220952D01*
X479387200Y-139220952D02*
X479434819Y-139316190D01*
X479434819Y-139316190D02*
X479434819Y-139411428D01*
X479434819Y-139411428D02*
X479387200Y-139506666D01*
X479387200Y-139506666D02*
X479339580Y-139554285D01*
X479339580Y-139554285D02*
X479244342Y-139601904D01*
X479244342Y-139601904D02*
X479053866Y-139649523D01*
X479053866Y-139649523D02*
X478815771Y-139649523D01*
X478815771Y-139649523D02*
X478625295Y-139601904D01*
X478625295Y-139601904D02*
X478530057Y-139554285D01*
X478530057Y-139554285D02*
X478482438Y-139506666D01*
X478482438Y-139506666D02*
X478434819Y-139411428D01*
X270559580Y-200702857D02*
X270607200Y-200750476D01*
X270607200Y-200750476D02*
X270654819Y-200893333D01*
X270654819Y-200893333D02*
X270654819Y-200988571D01*
X270654819Y-200988571D02*
X270607200Y-201131428D01*
X270607200Y-201131428D02*
X270511961Y-201226666D01*
X270511961Y-201226666D02*
X270416723Y-201274285D01*
X270416723Y-201274285D02*
X270226247Y-201321904D01*
X270226247Y-201321904D02*
X270083390Y-201321904D01*
X270083390Y-201321904D02*
X269892914Y-201274285D01*
X269892914Y-201274285D02*
X269797676Y-201226666D01*
X269797676Y-201226666D02*
X269702438Y-201131428D01*
X269702438Y-201131428D02*
X269654819Y-200988571D01*
X269654819Y-200988571D02*
X269654819Y-200893333D01*
X269654819Y-200893333D02*
X269702438Y-200750476D01*
X269702438Y-200750476D02*
X269750057Y-200702857D01*
X270654819Y-199750476D02*
X270654819Y-200321904D01*
X270654819Y-200036190D02*
X269654819Y-200036190D01*
X269654819Y-200036190D02*
X269797676Y-200131428D01*
X269797676Y-200131428D02*
X269892914Y-200226666D01*
X269892914Y-200226666D02*
X269940533Y-200321904D01*
X269988152Y-198893333D02*
X270654819Y-198893333D01*
X269607200Y-199131428D02*
X270321485Y-199369523D01*
X270321485Y-199369523D02*
X270321485Y-198750476D01*
X464534819Y-195968094D02*
X465344342Y-195968094D01*
X465344342Y-195968094D02*
X465439580Y-195920475D01*
X465439580Y-195920475D02*
X465487200Y-195872856D01*
X465487200Y-195872856D02*
X465534819Y-195777618D01*
X465534819Y-195777618D02*
X465534819Y-195587142D01*
X465534819Y-195587142D02*
X465487200Y-195491904D01*
X465487200Y-195491904D02*
X465439580Y-195444285D01*
X465439580Y-195444285D02*
X465344342Y-195396666D01*
X465344342Y-195396666D02*
X464534819Y-195396666D01*
X465534819Y-194396666D02*
X465534819Y-194968094D01*
X465534819Y-194682380D02*
X464534819Y-194682380D01*
X464534819Y-194682380D02*
X464677676Y-194777618D01*
X464677676Y-194777618D02*
X464772914Y-194872856D01*
X464772914Y-194872856D02*
X464820533Y-194968094D01*
X464534819Y-194063332D02*
X464534819Y-193396666D01*
X464534819Y-193396666D02*
X465534819Y-193825237D01*
X421419580Y-200262857D02*
X421467200Y-200310476D01*
X421467200Y-200310476D02*
X421514819Y-200453333D01*
X421514819Y-200453333D02*
X421514819Y-200548571D01*
X421514819Y-200548571D02*
X421467200Y-200691428D01*
X421467200Y-200691428D02*
X421371961Y-200786666D01*
X421371961Y-200786666D02*
X421276723Y-200834285D01*
X421276723Y-200834285D02*
X421086247Y-200881904D01*
X421086247Y-200881904D02*
X420943390Y-200881904D01*
X420943390Y-200881904D02*
X420752914Y-200834285D01*
X420752914Y-200834285D02*
X420657676Y-200786666D01*
X420657676Y-200786666D02*
X420562438Y-200691428D01*
X420562438Y-200691428D02*
X420514819Y-200548571D01*
X420514819Y-200548571D02*
X420514819Y-200453333D01*
X420514819Y-200453333D02*
X420562438Y-200310476D01*
X420562438Y-200310476D02*
X420610057Y-200262857D01*
X421514819Y-199310476D02*
X421514819Y-199881904D01*
X421514819Y-199596190D02*
X420514819Y-199596190D01*
X420514819Y-199596190D02*
X420657676Y-199691428D01*
X420657676Y-199691428D02*
X420752914Y-199786666D01*
X420752914Y-199786666D02*
X420800533Y-199881904D01*
X420514819Y-198977142D02*
X420514819Y-198310476D01*
X420514819Y-198310476D02*
X421514819Y-198739047D01*
X119939580Y-200732857D02*
X119987200Y-200780476D01*
X119987200Y-200780476D02*
X120034819Y-200923333D01*
X120034819Y-200923333D02*
X120034819Y-201018571D01*
X120034819Y-201018571D02*
X119987200Y-201161428D01*
X119987200Y-201161428D02*
X119891961Y-201256666D01*
X119891961Y-201256666D02*
X119796723Y-201304285D01*
X119796723Y-201304285D02*
X119606247Y-201351904D01*
X119606247Y-201351904D02*
X119463390Y-201351904D01*
X119463390Y-201351904D02*
X119272914Y-201304285D01*
X119272914Y-201304285D02*
X119177676Y-201256666D01*
X119177676Y-201256666D02*
X119082438Y-201161428D01*
X119082438Y-201161428D02*
X119034819Y-201018571D01*
X119034819Y-201018571D02*
X119034819Y-200923333D01*
X119034819Y-200923333D02*
X119082438Y-200780476D01*
X119082438Y-200780476D02*
X119130057Y-200732857D01*
X120034819Y-199780476D02*
X120034819Y-200351904D01*
X120034819Y-200066190D02*
X119034819Y-200066190D01*
X119034819Y-200066190D02*
X119177676Y-200161428D01*
X119177676Y-200161428D02*
X119272914Y-200256666D01*
X119272914Y-200256666D02*
X119320533Y-200351904D01*
X120034819Y-198828095D02*
X120034819Y-199399523D01*
X120034819Y-199113809D02*
X119034819Y-199113809D01*
X119034819Y-199113809D02*
X119177676Y-199209047D01*
X119177676Y-199209047D02*
X119272914Y-199304285D01*
X119272914Y-199304285D02*
X119320533Y-199399523D01*
X234154819Y-145761904D02*
X234964342Y-145761904D01*
X234964342Y-145761904D02*
X235059580Y-145714285D01*
X235059580Y-145714285D02*
X235107200Y-145666666D01*
X235107200Y-145666666D02*
X235154819Y-145571428D01*
X235154819Y-145571428D02*
X235154819Y-145380952D01*
X235154819Y-145380952D02*
X235107200Y-145285714D01*
X235107200Y-145285714D02*
X235059580Y-145238095D01*
X235059580Y-145238095D02*
X234964342Y-145190476D01*
X234964342Y-145190476D02*
X234154819Y-145190476D01*
X234154819Y-144809523D02*
X234154819Y-144190476D01*
X234154819Y-144190476D02*
X234535771Y-144523809D01*
X234535771Y-144523809D02*
X234535771Y-144380952D01*
X234535771Y-144380952D02*
X234583390Y-144285714D01*
X234583390Y-144285714D02*
X234631009Y-144238095D01*
X234631009Y-144238095D02*
X234726247Y-144190476D01*
X234726247Y-144190476D02*
X234964342Y-144190476D01*
X234964342Y-144190476D02*
X235059580Y-144238095D01*
X235059580Y-144238095D02*
X235107200Y-144285714D01*
X235107200Y-144285714D02*
X235154819Y-144380952D01*
X235154819Y-144380952D02*
X235154819Y-144666666D01*
X235154819Y-144666666D02*
X235107200Y-144761904D01*
X235107200Y-144761904D02*
X235059580Y-144809523D01*
X143333333Y-179854819D02*
X143000000Y-179378628D01*
X142761905Y-179854819D02*
X142761905Y-178854819D01*
X142761905Y-178854819D02*
X143142857Y-178854819D01*
X143142857Y-178854819D02*
X143238095Y-178902438D01*
X143238095Y-178902438D02*
X143285714Y-178950057D01*
X143285714Y-178950057D02*
X143333333Y-179045295D01*
X143333333Y-179045295D02*
X143333333Y-179188152D01*
X143333333Y-179188152D02*
X143285714Y-179283390D01*
X143285714Y-179283390D02*
X143238095Y-179331009D01*
X143238095Y-179331009D02*
X143142857Y-179378628D01*
X143142857Y-179378628D02*
X142761905Y-179378628D01*
X144285714Y-179854819D02*
X143714286Y-179854819D01*
X144000000Y-179854819D02*
X144000000Y-178854819D01*
X144000000Y-178854819D02*
X143904762Y-178997676D01*
X143904762Y-178997676D02*
X143809524Y-179092914D01*
X143809524Y-179092914D02*
X143714286Y-179140533D01*
D11*
%TO.C,R6*%
X105262936Y-151785000D02*
X105717064Y-151785000D01*
X105262936Y-153255000D02*
X105717064Y-153255000D01*
%TO.C,U12*%
X171490000Y-196530000D02*
X171490000Y-192930000D01*
X167040000Y-194730000D02*
G75*
G02*
X171478478Y-192891522I2600000J0D01*
G01*
X171478478Y-196568478D02*
G75*
G02*
X167039999Y-194730000I-1838478J1838478D01*
G01*
%TO.C,C19*%
X158988748Y-173045000D02*
X159511252Y-173045000D01*
X158988748Y-174515000D02*
X159511252Y-174515000D01*
%TO.C,C6*%
X280315000Y-140161252D02*
X280315000Y-139638748D01*
X281785000Y-140161252D02*
X281785000Y-139638748D01*
%TO.C,U1*%
X128790000Y-143200000D02*
X128790000Y-146800000D01*
X128801522Y-143161522D02*
G75*
G02*
X133240001Y-145000000I1838478J-1838478D01*
G01*
X133240000Y-145000000D02*
G75*
G02*
X128801522Y-146838478I-2600000J0D01*
G01*
%TO.C,U8*%
X427790000Y-143700000D02*
X427790000Y-147300000D01*
X427801522Y-143661522D02*
G75*
G02*
X432240001Y-145500000I1838478J-1838478D01*
G01*
X432240000Y-145500000D02*
G75*
G02*
X427801522Y-147338478I-2600000J0D01*
G01*
%TO.C,C18*%
X468245000Y-199338748D02*
X468245000Y-199861252D01*
X469715000Y-199338748D02*
X469715000Y-199861252D01*
%TO.C,C7*%
X330295000Y-140161252D02*
X330295000Y-139638748D01*
X331765000Y-140161252D02*
X331765000Y-139638748D01*
%TO.C,C15*%
X317695000Y-199358748D02*
X317695000Y-199881252D01*
X319165000Y-199358748D02*
X319165000Y-199881252D01*
%TO.C,U2*%
X178150000Y-143200000D02*
X178150000Y-146800000D01*
X178161522Y-143161522D02*
G75*
G02*
X182600001Y-145000000I1838478J-1838478D01*
G01*
X182600000Y-145000000D02*
G75*
G02*
X178161522Y-146838478I-2600000J0D01*
G01*
%TO.C,C8*%
X379485000Y-140841252D02*
X379485000Y-140318748D01*
X380955000Y-140841252D02*
X380955000Y-140318748D01*
%TO.C,U15*%
X421350000Y-196530000D02*
X421350000Y-192930000D01*
X416900000Y-194730000D02*
G75*
G02*
X421338478Y-192891522I2600000J0D01*
G01*
X421338478Y-196568478D02*
G75*
G02*
X416899999Y-194730000I-1838478J1838478D01*
G01*
%TO.C,C13*%
X218265000Y-199638748D02*
X218265000Y-200161252D01*
X219735000Y-199638748D02*
X219735000Y-200161252D01*
%TO.C,U6*%
X329150000Y-142970000D02*
X329150000Y-146570000D01*
X329161522Y-142931522D02*
G75*
G02*
X333600001Y-144770000I1838478J-1838478D01*
G01*
X333600000Y-144770000D02*
G75*
G02*
X329161522Y-146608478I-2600000J0D01*
G01*
%TO.C,U16*%
X270350000Y-197030000D02*
X270350000Y-193430000D01*
X265900000Y-195230000D02*
G75*
G02*
X270338478Y-193391522I2600000J0D01*
G01*
X270338478Y-197068478D02*
G75*
G02*
X265899999Y-195230000I-1838478J1838478D01*
G01*
%TO.C,U9*%
X478880000Y-143330000D02*
X478880000Y-146930000D01*
X478891522Y-143291522D02*
G75*
G02*
X483330001Y-145130000I1838478J-1838478D01*
G01*
X483330000Y-145130000D02*
G75*
G02*
X478891522Y-146968478I-2600000J0D01*
G01*
%TO.C,C9*%
X428995000Y-140941252D02*
X428995000Y-140418748D01*
X430465000Y-140941252D02*
X430465000Y-140418748D01*
%TO.C,C4*%
X179305000Y-140381252D02*
X179305000Y-139858748D01*
X180775000Y-140381252D02*
X180775000Y-139858748D01*
%TO.C,U11*%
X320350000Y-196530000D02*
X320350000Y-192930000D01*
X315900000Y-194730000D02*
G75*
G02*
X320338478Y-192891522I2600000J0D01*
G01*
X320338478Y-196568478D02*
G75*
G02*
X315899999Y-194730000I-1838478J1838478D01*
G01*
%TO.C,D1*%
X108475000Y-153460000D02*
X111335000Y-153460000D01*
X111335000Y-151540000D02*
X108475000Y-151540000D01*
X111335000Y-153460000D02*
X111335000Y-151540000D01*
%TO.C,C3*%
X129985000Y-140381252D02*
X129985000Y-139858748D01*
X131455000Y-140381252D02*
X131455000Y-139858748D01*
%TO.C,U4*%
X279150000Y-142970000D02*
X279150000Y-146570000D01*
X279161522Y-142931522D02*
G75*
G02*
X283600001Y-144770000I1838478J-1838478D01*
G01*
X283600000Y-144770000D02*
G75*
G02*
X279161522Y-146608478I-2600000J0D01*
G01*
%TO.C,C20*%
X93988748Y-156765000D02*
X94511252Y-156765000D01*
X93988748Y-158235000D02*
X94511252Y-158235000D01*
%TO.C,U7*%
X378290000Y-143700000D02*
X378290000Y-147300000D01*
X378301522Y-143661522D02*
G75*
G02*
X382740001Y-145500000I1838478J-1838478D01*
G01*
X382740000Y-145500000D02*
G75*
G02*
X378301522Y-147338478I-2600000J0D01*
G01*
%TO.C,C12*%
X168905000Y-199318748D02*
X168905000Y-199841252D01*
X170375000Y-199318748D02*
X170375000Y-199841252D01*
D12*
%TO.C,J4*%
X89950000Y-171000000D02*
X89950000Y-159000000D01*
X89950000Y-171000000D02*
X93450000Y-171000000D01*
X93450000Y-159000000D02*
X89950000Y-159000000D01*
X93450000Y-171000000D02*
X93450000Y-159000000D01*
D13*
X89392000Y-169523000D02*
G75*
G02*
X89192000Y-169523000I-100000J0D01*
G01*
X89192000Y-169523000D02*
G75*
G02*
X89392000Y-169523000I100000J0D01*
G01*
D11*
%TO.C,U10*%
X119850000Y-197030000D02*
X119850000Y-193430000D01*
X115400000Y-195230000D02*
G75*
G02*
X119838478Y-193391522I2600000J0D01*
G01*
X119838478Y-197068478D02*
G75*
G02*
X115399999Y-195230000I-1838478J1838478D01*
G01*
%TO.C,C5*%
X230375000Y-140431252D02*
X230375000Y-139908748D01*
X231845000Y-140431252D02*
X231845000Y-139908748D01*
%TO.C,C16*%
X368335000Y-199838748D02*
X368335000Y-200361252D01*
X369805000Y-199838748D02*
X369805000Y-200361252D01*
%TO.C,U5*%
X141190000Y-165140000D02*
X141455000Y-165140000D01*
X141190000Y-169000000D02*
X141190000Y-165140000D01*
X141190000Y-169000000D02*
X141190000Y-172860000D01*
X141190000Y-172860000D02*
X141455000Y-172860000D01*
X156810000Y-165140000D02*
X156545000Y-165140000D01*
X156810000Y-169000000D02*
X156810000Y-165140000D01*
X156810000Y-169000000D02*
X156810000Y-172860000D01*
X156810000Y-172860000D02*
X156545000Y-172860000D01*
X157015000Y-164627500D02*
X156545000Y-164287500D01*
X157015000Y-163947500D01*
X157015000Y-164627500D01*
G36*
X157015000Y-164627500D02*
G01*
X156545000Y-164287500D01*
X157015000Y-163947500D01*
X157015000Y-164627500D01*
G37*
%TO.C,U13*%
X370850000Y-197070000D02*
X370850000Y-193470000D01*
X366400000Y-195270000D02*
G75*
G02*
X370838478Y-193431522I2600000J0D01*
G01*
X370838478Y-197108478D02*
G75*
G02*
X366399999Y-195270000I-1838478J1838478D01*
G01*
%TO.C,U14*%
X220850000Y-196800000D02*
X220850000Y-193200000D01*
X216400000Y-195000000D02*
G75*
G02*
X220838478Y-193161522I2600000J0D01*
G01*
X220838478Y-196838478D02*
G75*
G02*
X216399999Y-195000000I-1838478J1838478D01*
G01*
%TO.C,C22*%
X158988748Y-175265000D02*
X159511252Y-175265000D01*
X158988748Y-176735000D02*
X159511252Y-176735000D01*
%TO.C,C21*%
X93988748Y-154515000D02*
X94511252Y-154515000D01*
X93988748Y-155985000D02*
X94511252Y-155985000D01*
%TO.C,C10*%
X479925000Y-140601252D02*
X479925000Y-140078748D01*
X481395000Y-140601252D02*
X481395000Y-140078748D01*
%TO.C,C14*%
X267785000Y-199798748D02*
X267785000Y-200321252D01*
X269255000Y-199798748D02*
X269255000Y-200321252D01*
%TO.C,U17*%
X470850000Y-196530000D02*
X470850000Y-192930000D01*
X466400000Y-194730000D02*
G75*
G02*
X470838478Y-192891522I2600000J0D01*
G01*
X470838478Y-196568478D02*
G75*
G02*
X466399999Y-194730000I-1838478J1838478D01*
G01*
%TO.C,C17*%
X418645000Y-199358748D02*
X418645000Y-199881252D01*
X420115000Y-199358748D02*
X420115000Y-199881252D01*
%TO.C,C11*%
X117165000Y-199828748D02*
X117165000Y-200351252D01*
X118635000Y-199828748D02*
X118635000Y-200351252D01*
%TO.C,U3*%
X229290000Y-143200000D02*
X229290000Y-146800000D01*
X229301522Y-143161522D02*
G75*
G02*
X233740001Y-145000000I1838478J-1838478D01*
G01*
X233740000Y-145000000D02*
G75*
G02*
X229301522Y-146838478I-2600000J0D01*
G01*
%TO.C,R1*%
X143727064Y-177015000D02*
X143272936Y-177015000D01*
X143727064Y-178485000D02*
X143272936Y-178485000D01*
%TD*%
M02*
