%TF.GenerationSoftware,KiCad,Pcbnew,9.0.0*%
%TF.CreationDate,2025-04-06T01:03:21+02:00*%
%TF.ProjectId,CHESS PIECES DETECTION,43484553-5320-4504-9945-434553204445,rev?*%
%TF.SameCoordinates,Original*%
%TF.FileFunction,Soldermask,Bot*%
%TF.FilePolarity,Negative*%
%FSLAX46Y46*%
G04 Gerber Fmt 4.6, Leading zero omitted, Abs format (unit mm)*
G04 Created by KiCad (PCBNEW 9.0.0) date 2025-04-06 01:03:21*
%MOMM*%
%LPD*%
G01*
G04 APERTURE LIST*
%ADD10R,1.500000X1.050000*%
%ADD11O,1.500000X1.050000*%
%ADD12R,1.238000X1.238000*%
%ADD13C,1.238000*%
G04 APERTURE END LIST*
D10*
%TO.C,U12*%
X169640000Y-196000000D03*
D11*
X169640000Y-194730000D03*
X169640000Y-193460000D03*
%TD*%
D10*
%TO.C,U1*%
X130640000Y-143730000D03*
D11*
X130640000Y-145000000D03*
X130640000Y-146270000D03*
%TD*%
D10*
%TO.C,U8*%
X429640000Y-144230000D03*
D11*
X429640000Y-145500000D03*
X429640000Y-146770000D03*
%TD*%
D10*
%TO.C,U2*%
X180000000Y-143730000D03*
D11*
X180000000Y-145000000D03*
X180000000Y-146270000D03*
%TD*%
D10*
%TO.C,U15*%
X419500000Y-196000000D03*
D11*
X419500000Y-194730000D03*
X419500000Y-193460000D03*
%TD*%
D10*
%TO.C,U6*%
X331000000Y-143500000D03*
D11*
X331000000Y-144770000D03*
X331000000Y-146040000D03*
%TD*%
D10*
%TO.C,U16*%
X268500000Y-196500000D03*
D11*
X268500000Y-195230000D03*
X268500000Y-193960000D03*
%TD*%
D10*
%TO.C,U9*%
X480730000Y-143860000D03*
D11*
X480730000Y-145130000D03*
X480730000Y-146400000D03*
%TD*%
D10*
%TO.C,U11*%
X318500000Y-196000000D03*
D11*
X318500000Y-194730000D03*
X318500000Y-193460000D03*
%TD*%
D10*
%TO.C,U4*%
X281000000Y-143500000D03*
D11*
X281000000Y-144770000D03*
X281000000Y-146040000D03*
%TD*%
D10*
%TO.C,U7*%
X380140000Y-144230000D03*
D11*
X380140000Y-145500000D03*
X380140000Y-146770000D03*
%TD*%
D12*
%TO.C,J4*%
X91250000Y-169500000D03*
D13*
X91250000Y-168000000D03*
X91250000Y-166500000D03*
X91250000Y-165000000D03*
X91250000Y-163500000D03*
X91250000Y-162000000D03*
X91250000Y-160500000D03*
%TD*%
D10*
%TO.C,U10*%
X118000000Y-196500000D03*
D11*
X118000000Y-195230000D03*
X118000000Y-193960000D03*
%TD*%
D10*
%TO.C,U13*%
X369000000Y-196540000D03*
D11*
X369000000Y-195270000D03*
X369000000Y-194000000D03*
%TD*%
D10*
%TO.C,U14*%
X219000000Y-196270000D03*
D11*
X219000000Y-195000000D03*
X219000000Y-193730000D03*
%TD*%
D10*
%TO.C,U17*%
X469000000Y-196000000D03*
D11*
X469000000Y-194730000D03*
X469000000Y-193460000D03*
%TD*%
D10*
%TO.C,U3*%
X231140000Y-143730000D03*
D11*
X231140000Y-145000000D03*
X231140000Y-146270000D03*
%TD*%
M02*
