%TF.GenerationSoftware,KiCad,Pcbnew,9.0.0*%
%TF.CreationDate,2025-04-09T17:46:57+02:00*%
%TF.ProjectId,TEST_SENSORS,54455354-5f53-4454-9e53-4f52532e6b69,rev?*%
%TF.SameCoordinates,Original*%
%TF.FileFunction,Copper,L1,Top*%
%TF.FilePolarity,Positive*%
%FSLAX46Y46*%
G04 Gerber Fmt 4.6, Leading zero omitted, Abs format (unit mm)*
G04 Created by KiCad (PCBNEW 9.0.0) date 2025-04-09 17:46:57*
%MOMM*%
%LPD*%
G01*
G04 APERTURE LIST*
G04 Aperture macros list*
%AMRoundRect*
0 Rectangle with rounded corners*
0 $1 Rounding radius*
0 $2 $3 $4 $5 $6 $7 $8 $9 X,Y pos of 4 corners*
0 Add a 4 corners polygon primitive as box body*
4,1,4,$2,$3,$4,$5,$6,$7,$8,$9,$2,$3,0*
0 Add four circle primitives for the rounded corners*
1,1,$1+$1,$2,$3*
1,1,$1+$1,$4,$5*
1,1,$1+$1,$6,$7*
1,1,$1+$1,$8,$9*
0 Add four rect primitives between the rounded corners*
20,1,$1+$1,$2,$3,$4,$5,0*
20,1,$1+$1,$4,$5,$6,$7,0*
20,1,$1+$1,$6,$7,$8,$9,0*
20,1,$1+$1,$8,$9,$2,$3,0*%
G04 Aperture macros list end*
%TA.AperFunction,SMDPad,CuDef*%
%ADD10RoundRect,0.250000X-0.337500X-0.475000X0.337500X-0.475000X0.337500X0.475000X-0.337500X0.475000X0*%
%TD*%
%TA.AperFunction,ComponentPad*%
%ADD11O,1.500000X1.050000*%
%TD*%
%TA.AperFunction,ComponentPad*%
%ADD12R,1.500000X1.050000*%
%TD*%
%TA.AperFunction,SMDPad,CuDef*%
%ADD13RoundRect,0.250000X0.337500X0.475000X-0.337500X0.475000X-0.337500X-0.475000X0.337500X-0.475000X0*%
%TD*%
%TA.AperFunction,ComponentPad*%
%ADD14R,1.700000X1.700000*%
%TD*%
%TA.AperFunction,ComponentPad*%
%ADD15O,1.700000X1.700000*%
%TD*%
%TA.AperFunction,ViaPad*%
%ADD16C,0.600000*%
%TD*%
%TA.AperFunction,Conductor*%
%ADD17C,0.200000*%
%TD*%
%TA.AperFunction,Conductor*%
%ADD18C,0.800000*%
%TD*%
G04 APERTURE END LIST*
D10*
%TO.P,C9,2*%
%TO.N,GND*%
X140360000Y-98530000D03*
%TO.P,C9,1*%
%TO.N,+3V3*%
X138285000Y-98530000D03*
%TD*%
D11*
%TO.P,U7,3,OUT*%
%TO.N,hall_sensor1*%
X145587500Y-56601250D03*
%TO.P,U7,2,GND*%
%TO.N,GND*%
X145587500Y-55331250D03*
D12*
%TO.P,U7,1,VCC*%
%TO.N,+3V3*%
X145587500Y-54061250D03*
%TD*%
D13*
%TO.P,C21,1*%
%TO.N,+3V3*%
X103375000Y-78700000D03*
%TO.P,C21,2*%
%TO.N,GND*%
X101300000Y-78700000D03*
%TD*%
D14*
%TO.P,J1,1,Pin_1*%
%TO.N,+3V3*%
X102290000Y-75510000D03*
D15*
%TO.P,J1,2,Pin_2*%
%TO.N,hall_sensor2*%
X102290000Y-72970000D03*
%TO.P,J1,3,Pin_3*%
%TO.N,hall_sensor1*%
X102290000Y-70430000D03*
%TO.P,J1,4,Pin_4*%
%TO.N,GND*%
X102290000Y-67890000D03*
%TD*%
D12*
%TO.P,U8,1,VCC*%
%TO.N,+3V3*%
X139410000Y-95940000D03*
D11*
%TO.P,U8,2,GND*%
%TO.N,GND*%
X139410000Y-94670000D03*
%TO.P,U8,3,OUT*%
%TO.N,hall_sensor2*%
X139410000Y-93400000D03*
%TD*%
D10*
%TO.P,C8,1*%
%TO.N,+3V3*%
X146060000Y-51231250D03*
%TO.P,C8,2*%
%TO.N,GND*%
X148135000Y-51231250D03*
%TD*%
D13*
%TO.P,C20,1*%
%TO.N,+3V3*%
X103375000Y-80880000D03*
%TO.P,C20,2*%
%TO.N,GND*%
X101300000Y-80880000D03*
%TD*%
D16*
%TO.N,GND*%
X115920000Y-98570000D03*
X103410000Y-85620000D03*
X102440000Y-98140000D03*
X110420000Y-84760000D03*
X126170000Y-96090000D03*
X146780000Y-97600000D03*
X145270000Y-89290000D03*
X125850000Y-88970000D03*
X145740000Y-75660000D03*
X125670000Y-74660000D03*
X102080000Y-64080000D03*
X145230000Y-62790000D03*
X126100000Y-62140000D03*
X149040000Y-53000000D03*
X126780000Y-52140000D03*
X101810000Y-52030000D03*
%TD*%
D17*
%TO.N,hall_sensor2*%
X122720000Y-93400000D02*
X102290000Y-72970000D01*
X139410000Y-93400000D02*
X122720000Y-93400000D01*
D18*
%TO.N,+3V3*%
X141200000Y-95940000D02*
X148187810Y-88952190D01*
X139410000Y-95940000D02*
X141200000Y-95940000D01*
X138285000Y-97065000D02*
X139410000Y-95940000D01*
X138285000Y-98530000D02*
X138285000Y-97065000D01*
X121025000Y-98530000D02*
X138285000Y-98530000D01*
X103375000Y-80880000D02*
X121025000Y-98530000D01*
X146060000Y-52250000D02*
X146060000Y-51231250D01*
X148187810Y-88952190D02*
X148187810Y-54377810D01*
X148187810Y-54377810D02*
X146060000Y-52250000D01*
X146060000Y-53588750D02*
X145587500Y-54061250D01*
X146060000Y-51231250D02*
X146060000Y-53588750D01*
X103375000Y-78700000D02*
X103375000Y-80880000D01*
X102290000Y-77615000D02*
X103375000Y-78700000D01*
X102290000Y-75510000D02*
X102290000Y-77615000D01*
D17*
%TO.N,hall_sensor1*%
X116118750Y-56601250D02*
X145587500Y-56601250D01*
X102290000Y-70430000D02*
X116118750Y-56601250D01*
%TD*%
%TA.AperFunction,Conductor*%
%TO.N,GND*%
G36*
X145282740Y-50522174D02*
G01*
X145304414Y-50574500D01*
X145300261Y-50598941D01*
X145274855Y-50671545D01*
X145274854Y-50671549D01*
X145274854Y-50671551D01*
X145272000Y-50701984D01*
X145272000Y-51760516D01*
X145274854Y-51790949D01*
X145274854Y-51790951D01*
X145274855Y-51790954D01*
X145319706Y-51919131D01*
X145319707Y-51919133D01*
X145400345Y-52028394D01*
X145400349Y-52028399D01*
X145429443Y-52049871D01*
X145432447Y-52054857D01*
X145437826Y-52057085D01*
X145446703Y-52078516D01*
X145458673Y-52098382D01*
X145459500Y-52109411D01*
X145459500Y-52166396D01*
X145459499Y-52166414D01*
X145459499Y-52335015D01*
X145459500Y-52335028D01*
X145459500Y-53261750D01*
X145437826Y-53314076D01*
X145385500Y-53335750D01*
X144817752Y-53335750D01*
X144788510Y-53341566D01*
X144759267Y-53347383D01*
X144692949Y-53391697D01*
X144692947Y-53391699D01*
X144648633Y-53458017D01*
X144637000Y-53516503D01*
X144637000Y-54605996D01*
X144648633Y-54664482D01*
X144678108Y-54708593D01*
X144692948Y-54730802D01*
X144737060Y-54760277D01*
X144759267Y-54775116D01*
X144759268Y-54775116D01*
X144759269Y-54775117D01*
X144817752Y-54786750D01*
X144817754Y-54786750D01*
X146357246Y-54786750D01*
X146357248Y-54786750D01*
X146415731Y-54775117D01*
X146482052Y-54730802D01*
X146526367Y-54664481D01*
X146538000Y-54605998D01*
X146538000Y-53981658D01*
X146547914Y-53944659D01*
X146614421Y-53829465D01*
X146619577Y-53820535D01*
X146620579Y-53816794D01*
X146655056Y-53771860D01*
X146711208Y-53764466D01*
X146744384Y-53783619D01*
X147565636Y-54604871D01*
X147587310Y-54657197D01*
X147587310Y-88672802D01*
X147565636Y-88725128D01*
X140972939Y-95317826D01*
X140920613Y-95339500D01*
X140390245Y-95339500D01*
X140337919Y-95317826D01*
X140328717Y-95306613D01*
X140304552Y-95270448D01*
X140282343Y-95255608D01*
X140238232Y-95226133D01*
X140238233Y-95226133D01*
X140208989Y-95220316D01*
X140179748Y-95214500D01*
X138640252Y-95214500D01*
X138611010Y-95220316D01*
X138581767Y-95226133D01*
X138515449Y-95270447D01*
X138515447Y-95270449D01*
X138471133Y-95336767D01*
X138459500Y-95395253D01*
X138459500Y-96010612D01*
X138437826Y-96062938D01*
X137804480Y-96696283D01*
X137754360Y-96783095D01*
X137725423Y-96833213D01*
X137725421Y-96833218D01*
X137684499Y-96985940D01*
X137684499Y-97150015D01*
X137684500Y-97150028D01*
X137684500Y-97651838D01*
X137662826Y-97704164D01*
X137654443Y-97711378D01*
X137625352Y-97732848D01*
X137625350Y-97732849D01*
X137544707Y-97842117D01*
X137531473Y-97879940D01*
X137493733Y-97922171D01*
X137461625Y-97929500D01*
X121304387Y-97929500D01*
X121252061Y-97907826D01*
X104184674Y-80840439D01*
X104163000Y-80788113D01*
X104163000Y-80350740D01*
X104163000Y-80350734D01*
X104160146Y-80320301D01*
X104115293Y-80192118D01*
X104034650Y-80082850D01*
X104005557Y-80061378D01*
X103976326Y-80012867D01*
X103975500Y-80001838D01*
X103975500Y-79578161D01*
X103997174Y-79525835D01*
X104005557Y-79518621D01*
X104034650Y-79497150D01*
X104115293Y-79387882D01*
X104160146Y-79259699D01*
X104163000Y-79229266D01*
X104163000Y-78170734D01*
X104160146Y-78140301D01*
X104115293Y-78012118D01*
X104115292Y-78012116D01*
X104034653Y-77902853D01*
X104034646Y-77902846D01*
X103925383Y-77822207D01*
X103925381Y-77822206D01*
X103797204Y-77777355D01*
X103797205Y-77777355D01*
X103797200Y-77777354D01*
X103797199Y-77777354D01*
X103766766Y-77774500D01*
X103766760Y-77774500D01*
X103329388Y-77774500D01*
X103277062Y-77752826D01*
X102912174Y-77387938D01*
X102890500Y-77335612D01*
X102890500Y-76634500D01*
X102912174Y-76582174D01*
X102964500Y-76560500D01*
X103159746Y-76560500D01*
X103159748Y-76560500D01*
X103218231Y-76548867D01*
X103284552Y-76504552D01*
X103328867Y-76438231D01*
X103340500Y-76379748D01*
X103340500Y-74640252D01*
X103339726Y-74636363D01*
X103350774Y-74580817D01*
X103397864Y-74549349D01*
X103453414Y-74560397D01*
X103464630Y-74569601D01*
X122479540Y-93584511D01*
X122535489Y-93640460D01*
X122604011Y-93680021D01*
X122604012Y-93680021D01*
X122604014Y-93680022D01*
X122642224Y-93690260D01*
X122680435Y-93700499D01*
X122680436Y-93700500D01*
X122680438Y-93700500D01*
X138474751Y-93700500D01*
X138527077Y-93722174D01*
X138539562Y-93740864D01*
X138540354Y-93740442D01*
X138542068Y-93743648D01*
X138542069Y-93743649D01*
X138542071Y-93743653D01*
X138621468Y-93862479D01*
X138722521Y-93963532D01*
X138841347Y-94042929D01*
X138973380Y-94097619D01*
X139113545Y-94125500D01*
X139113547Y-94125500D01*
X139706453Y-94125500D01*
X139706455Y-94125500D01*
X139846620Y-94097619D01*
X139978653Y-94042929D01*
X140097479Y-93963532D01*
X140198532Y-93862479D01*
X140277929Y-93743653D01*
X140332619Y-93611620D01*
X140360500Y-93471455D01*
X140360500Y-93328545D01*
X140332619Y-93188380D01*
X140277929Y-93056347D01*
X140198532Y-92937521D01*
X140097479Y-92836468D01*
X139978653Y-92757071D01*
X139978650Y-92757069D01*
X139978649Y-92757069D01*
X139846620Y-92702381D01*
X139846614Y-92702379D01*
X139752752Y-92683709D01*
X139706455Y-92674500D01*
X139113545Y-92674500D01*
X139073810Y-92682403D01*
X138973385Y-92702379D01*
X138973379Y-92702381D01*
X138841350Y-92757069D01*
X138722521Y-92836467D01*
X138722520Y-92836469D01*
X138621469Y-92937520D01*
X138621467Y-92937521D01*
X138542068Y-93056351D01*
X138540354Y-93059558D01*
X138538410Y-93058519D01*
X138503084Y-93093861D01*
X138474751Y-93099500D01*
X122875123Y-93099500D01*
X122822797Y-93077826D01*
X103253452Y-73508481D01*
X103231778Y-73456155D01*
X103237411Y-73427836D01*
X103300130Y-73276420D01*
X103340500Y-73073465D01*
X103340500Y-72866535D01*
X103300130Y-72663580D01*
X103220941Y-72472402D01*
X103105977Y-72300345D01*
X102959655Y-72154023D01*
X102787598Y-72039059D01*
X102596420Y-71959870D01*
X102596413Y-71959868D01*
X102443516Y-71929455D01*
X102393465Y-71919500D01*
X102186535Y-71919500D01*
X102146385Y-71927486D01*
X101983586Y-71959868D01*
X101983579Y-71959870D01*
X101792401Y-72039059D01*
X101620345Y-72154022D01*
X101620344Y-72154024D01*
X101474024Y-72300344D01*
X101474022Y-72300345D01*
X101359059Y-72472401D01*
X101279870Y-72663579D01*
X101279868Y-72663586D01*
X101239500Y-72866535D01*
X101239500Y-73073464D01*
X101279868Y-73276413D01*
X101279870Y-73276420D01*
X101359059Y-73467598D01*
X101474023Y-73639655D01*
X101620345Y-73785977D01*
X101792402Y-73900941D01*
X101983580Y-73980130D01*
X102186535Y-74020500D01*
X102186536Y-74020500D01*
X102393464Y-74020500D01*
X102393465Y-74020500D01*
X102596420Y-73980130D01*
X102747836Y-73917411D01*
X102804474Y-73917411D01*
X102828481Y-73933452D01*
X103230398Y-74335369D01*
X103252072Y-74387695D01*
X103230398Y-74440021D01*
X103178072Y-74461695D01*
X103163640Y-74460274D01*
X103159748Y-74459500D01*
X101420252Y-74459500D01*
X101391010Y-74465316D01*
X101361767Y-74471133D01*
X101295449Y-74515447D01*
X101295447Y-74515449D01*
X101251133Y-74581767D01*
X101239500Y-74640253D01*
X101239500Y-76379746D01*
X101251133Y-76438232D01*
X101280608Y-76482343D01*
X101295448Y-76504552D01*
X101339560Y-76534027D01*
X101361767Y-76548866D01*
X101361768Y-76548866D01*
X101361769Y-76548867D01*
X101420252Y-76560500D01*
X101615500Y-76560500D01*
X101667826Y-76582174D01*
X101689500Y-76634500D01*
X101689500Y-77531396D01*
X101689499Y-77531414D01*
X101689499Y-77694059D01*
X101730421Y-77846781D01*
X101730424Y-77846788D01*
X101759360Y-77896904D01*
X101759361Y-77896906D01*
X101809479Y-77983715D01*
X101925499Y-78099735D01*
X101925505Y-78099740D01*
X102565326Y-78739561D01*
X102587000Y-78791887D01*
X102587000Y-79229266D01*
X102589854Y-79259699D01*
X102589854Y-79259701D01*
X102589855Y-79259704D01*
X102634706Y-79387881D01*
X102634707Y-79387883D01*
X102715345Y-79497144D01*
X102715349Y-79497149D01*
X102744443Y-79518621D01*
X102773673Y-79567132D01*
X102774500Y-79578161D01*
X102774500Y-80001838D01*
X102752826Y-80054164D01*
X102744443Y-80061378D01*
X102715352Y-80082848D01*
X102715350Y-80082849D01*
X102634706Y-80192119D01*
X102589855Y-80320295D01*
X102589854Y-80320299D01*
X102589854Y-80320301D01*
X102587000Y-80350734D01*
X102587000Y-81409266D01*
X102589854Y-81439699D01*
X102589854Y-81439701D01*
X102589855Y-81439704D01*
X102634706Y-81567881D01*
X102634707Y-81567883D01*
X102715346Y-81677146D01*
X102715353Y-81677153D01*
X102824616Y-81757792D01*
X102824618Y-81757793D01*
X102952795Y-81802644D01*
X102952801Y-81802646D01*
X102983234Y-81805500D01*
X103420613Y-81805500D01*
X103472939Y-81827174D01*
X120541891Y-98896126D01*
X120541896Y-98896132D01*
X120544480Y-98898716D01*
X120656284Y-99010520D01*
X120793216Y-99089577D01*
X120793690Y-99089704D01*
X120905010Y-99119532D01*
X120905014Y-99119532D01*
X120905019Y-99119534D01*
X120935711Y-99127758D01*
X120945941Y-99130500D01*
X120945942Y-99130500D01*
X120945943Y-99130500D01*
X137461625Y-99130500D01*
X137513951Y-99152174D01*
X137531473Y-99180060D01*
X137544708Y-99217884D01*
X137625346Y-99327146D01*
X137625353Y-99327153D01*
X137677935Y-99365960D01*
X137707166Y-99414471D01*
X137693533Y-99469442D01*
X137645022Y-99498673D01*
X137633993Y-99499500D01*
X100574500Y-99499500D01*
X100522174Y-99477826D01*
X100500500Y-99425500D01*
X100500500Y-70326535D01*
X101239500Y-70326535D01*
X101239500Y-70533464D01*
X101279868Y-70736413D01*
X101279870Y-70736420D01*
X101359059Y-70927598D01*
X101474023Y-71099655D01*
X101620345Y-71245977D01*
X101792402Y-71360941D01*
X101983580Y-71440130D01*
X102186535Y-71480500D01*
X102186536Y-71480500D01*
X102393464Y-71480500D01*
X102393465Y-71480500D01*
X102596420Y-71440130D01*
X102787598Y-71360941D01*
X102959655Y-71245977D01*
X103105977Y-71099655D01*
X103220941Y-70927598D01*
X103300130Y-70736420D01*
X103340500Y-70533465D01*
X103340500Y-70326535D01*
X103300130Y-70123580D01*
X103237410Y-69972161D01*
X103237410Y-69915526D01*
X103253448Y-69891521D01*
X116221547Y-56923424D01*
X116273873Y-56901750D01*
X144652251Y-56901750D01*
X144704577Y-56923424D01*
X144717062Y-56942114D01*
X144717854Y-56941692D01*
X144719568Y-56944898D01*
X144719569Y-56944899D01*
X144719571Y-56944903D01*
X144798968Y-57063729D01*
X144900021Y-57164782D01*
X145018847Y-57244179D01*
X145150880Y-57298869D01*
X145291045Y-57326750D01*
X145291047Y-57326750D01*
X145883953Y-57326750D01*
X145883955Y-57326750D01*
X146024120Y-57298869D01*
X146156153Y-57244179D01*
X146274979Y-57164782D01*
X146376032Y-57063729D01*
X146455429Y-56944903D01*
X146510119Y-56812870D01*
X146538000Y-56672705D01*
X146538000Y-56529795D01*
X146510119Y-56389630D01*
X146455429Y-56257597D01*
X146376032Y-56138771D01*
X146274979Y-56037718D01*
X146156153Y-55958321D01*
X146156150Y-55958319D01*
X146156149Y-55958319D01*
X146024120Y-55903631D01*
X146024114Y-55903629D01*
X145930252Y-55884959D01*
X145883955Y-55875750D01*
X145291045Y-55875750D01*
X145251310Y-55883653D01*
X145150885Y-55903629D01*
X145150879Y-55903631D01*
X145018850Y-55958319D01*
X144900021Y-56037717D01*
X144900020Y-56037719D01*
X144798969Y-56138770D01*
X144798967Y-56138771D01*
X144719568Y-56257601D01*
X144717854Y-56260808D01*
X144715910Y-56259769D01*
X144680584Y-56295111D01*
X144652251Y-56300750D01*
X116079186Y-56300750D01*
X116002764Y-56321227D01*
X116002759Y-56321229D01*
X115934238Y-56360790D01*
X102828480Y-69466547D01*
X102776154Y-69488221D01*
X102747836Y-69482588D01*
X102596424Y-69419871D01*
X102596413Y-69419868D01*
X102443516Y-69389455D01*
X102393465Y-69379500D01*
X102186535Y-69379500D01*
X102146385Y-69387486D01*
X101983586Y-69419868D01*
X101983579Y-69419870D01*
X101792401Y-69499059D01*
X101620345Y-69614022D01*
X101620344Y-69614024D01*
X101474024Y-69760344D01*
X101474022Y-69760345D01*
X101359059Y-69932401D01*
X101279870Y-70123579D01*
X101279868Y-70123586D01*
X101239500Y-70326535D01*
X100500500Y-70326535D01*
X100500500Y-50574500D01*
X100522174Y-50522174D01*
X100574500Y-50500500D01*
X145230414Y-50500500D01*
X145282740Y-50522174D01*
G37*
%TD.AperFunction*%
%TA.AperFunction,Conductor*%
G36*
X149477826Y-50522174D02*
G01*
X149499500Y-50574500D01*
X149499500Y-99425500D01*
X149477826Y-99477826D01*
X149425500Y-99499500D01*
X138936007Y-99499500D01*
X138883681Y-99477826D01*
X138862007Y-99425500D01*
X138883681Y-99373174D01*
X138892065Y-99365960D01*
X138944646Y-99327153D01*
X138944646Y-99327152D01*
X138944650Y-99327150D01*
X139025293Y-99217882D01*
X139070146Y-99089699D01*
X139073000Y-99059266D01*
X139073000Y-98000734D01*
X139070146Y-97970301D01*
X139025293Y-97842118D01*
X138944650Y-97732850D01*
X138915557Y-97711378D01*
X138886326Y-97662867D01*
X138885500Y-97651838D01*
X138885500Y-97344387D01*
X138907174Y-97292061D01*
X139512061Y-96687174D01*
X139564387Y-96665500D01*
X140179746Y-96665500D01*
X140179748Y-96665500D01*
X140238231Y-96653867D01*
X140304552Y-96609552D01*
X140328717Y-96573386D01*
X140375809Y-96541922D01*
X140390245Y-96540500D01*
X141116397Y-96540500D01*
X141116413Y-96540501D01*
X141120943Y-96540501D01*
X141279059Y-96540501D01*
X141279059Y-96540500D01*
X141431785Y-96499577D01*
X141481904Y-96470639D01*
X141568716Y-96420520D01*
X141680520Y-96308716D01*
X141680521Y-96308713D01*
X148668330Y-89320906D01*
X148747387Y-89183974D01*
X148788310Y-89031249D01*
X148788311Y-89031249D01*
X148788311Y-88868603D01*
X148788310Y-88868585D01*
X148788310Y-54462839D01*
X148788311Y-54462826D01*
X148788311Y-54298751D01*
X148788310Y-54298750D01*
X148747388Y-54146028D01*
X148668329Y-54009093D01*
X146751085Y-52091850D01*
X146729411Y-52039524D01*
X146743871Y-51995581D01*
X146800293Y-51919132D01*
X146845146Y-51790949D01*
X146848000Y-51760516D01*
X146848000Y-50701984D01*
X146845146Y-50671551D01*
X146819739Y-50598941D01*
X146822914Y-50542393D01*
X146865145Y-50504653D01*
X146889586Y-50500500D01*
X149425500Y-50500500D01*
X149477826Y-50522174D01*
G37*
%TD.AperFunction*%
%TD*%
M02*
