M48
; DRILL file {KiCad 9.0.0} date 2025-04-09T17:47:06+0200
; FORMAT={-:-/ absolute / inch / decimal}
; #@! TF.CreationDate,2025-04-09T17:47:06+02:00
; #@! TF.GenerationSoftware,Kicad,Pcbnew,9.0.0
; #@! TF.FileFunction,Plated,1,2,PTH
FMAT,2
INCH
; #@! TA.AperFunction,Plated,PTH,ViaDrill
T1C0.0118
; #@! TA.AperFunction,Plated,PTH,ComponentDrill
T2C0.0295
; #@! TA.AperFunction,Plated,PTH,ComponentDrill
T3C0.0394
%
G90
G05
T1
X4.0083Y-2.0484
X4.0189Y-2.5228
X4.0331Y-3.8638
X4.0713Y-3.3709
X4.3472Y-3.337
X4.5638Y-3.8807
X4.9476Y-2.9394
X4.9547Y-3.5028
X4.9646Y-2.4465
X4.9673Y-3.7831
X4.9913Y-2.0528
X5.7177Y-2.472
X5.7193Y-3.5154
X5.7378Y-2.9787
X5.7787Y-3.8425
X5.8677Y-2.0866
T2
X5.4886Y-3.6772
X5.4886Y-3.7272
X5.4886Y-3.7772
X5.7318Y-2.1284
X5.7318Y-2.1784
X5.7318Y-2.2284
T3
X4.0272Y-2.6728
X4.0272Y-2.7728
X4.0272Y-2.8728
X4.0272Y-2.9728
M30
