%TF.GenerationSoftware,KiCad,Pcbnew,9.0.0*%
%TF.CreationDate,2025-04-09T17:46:57+02:00*%
%TF.ProjectId,TEST_SENSORS,54455354-5f53-4454-9e53-4f52532e6b69,rev?*%
%TF.SameCoordinates,Original*%
%TF.FileFunction,Copper,L2,Bot*%
%TF.FilePolarity,Positive*%
%FSLAX46Y46*%
G04 Gerber Fmt 4.6, Leading zero omitted, Abs format (unit mm)*
G04 Created by KiCad (PCBNEW 9.0.0) date 2025-04-09 17:46:57*
%MOMM*%
%LPD*%
G01*
G04 APERTURE LIST*
%TA.AperFunction,ComponentPad*%
%ADD10O,1.500000X1.050000*%
%TD*%
%TA.AperFunction,ComponentPad*%
%ADD11R,1.500000X1.050000*%
%TD*%
%TA.AperFunction,ComponentPad*%
%ADD12R,1.700000X1.700000*%
%TD*%
%TA.AperFunction,ComponentPad*%
%ADD13O,1.700000X1.700000*%
%TD*%
%TA.AperFunction,ViaPad*%
%ADD14C,0.600000*%
%TD*%
G04 APERTURE END LIST*
D10*
%TO.P,U7,3,OUT*%
%TO.N,hall_sensor1*%
X145587500Y-56601250D03*
%TO.P,U7,2,GND*%
%TO.N,GND*%
X145587500Y-55331250D03*
D11*
%TO.P,U7,1,VCC*%
%TO.N,+3V3*%
X145587500Y-54061250D03*
%TD*%
D12*
%TO.P,J1,1,Pin_1*%
%TO.N,+3V3*%
X102290000Y-75510000D03*
D13*
%TO.P,J1,2,Pin_2*%
%TO.N,hall_sensor2*%
X102290000Y-72970000D03*
%TO.P,J1,3,Pin_3*%
%TO.N,hall_sensor1*%
X102290000Y-70430000D03*
%TO.P,J1,4,Pin_4*%
%TO.N,GND*%
X102290000Y-67890000D03*
%TD*%
D11*
%TO.P,U8,1,VCC*%
%TO.N,+3V3*%
X139410000Y-95940000D03*
D10*
%TO.P,U8,2,GND*%
%TO.N,GND*%
X139410000Y-94670000D03*
%TO.P,U8,3,OUT*%
%TO.N,hall_sensor2*%
X139410000Y-93400000D03*
%TD*%
D14*
%TO.N,GND*%
X115920000Y-98570000D03*
X103410000Y-85620000D03*
X102440000Y-98140000D03*
X110420000Y-84760000D03*
X126170000Y-96090000D03*
X146780000Y-97600000D03*
X145270000Y-89290000D03*
X125850000Y-88970000D03*
X145740000Y-75660000D03*
X125670000Y-74660000D03*
X102080000Y-64080000D03*
X145230000Y-62790000D03*
X126100000Y-62140000D03*
X149040000Y-53000000D03*
X126780000Y-52140000D03*
X101810000Y-52030000D03*
%TD*%
%TA.AperFunction,Conductor*%
%TO.N,GND*%
G36*
X149477826Y-50522174D02*
G01*
X149499500Y-50574500D01*
X149499500Y-99425500D01*
X149477826Y-99477826D01*
X149425500Y-99499500D01*
X100574500Y-99499500D01*
X100522174Y-99477826D01*
X100500500Y-99425500D01*
X100500500Y-95395253D01*
X138459500Y-95395253D01*
X138459500Y-96484746D01*
X138471133Y-96543232D01*
X138500608Y-96587343D01*
X138515448Y-96609552D01*
X138559560Y-96639027D01*
X138581767Y-96653866D01*
X138581768Y-96653866D01*
X138581769Y-96653867D01*
X138640252Y-96665500D01*
X138640254Y-96665500D01*
X140179746Y-96665500D01*
X140179748Y-96665500D01*
X140238231Y-96653867D01*
X140304552Y-96609552D01*
X140348867Y-96543231D01*
X140360500Y-96484748D01*
X140360500Y-95395252D01*
X140348867Y-95336769D01*
X140304552Y-95270448D01*
X140282343Y-95255608D01*
X140238232Y-95226133D01*
X140238233Y-95226133D01*
X140208989Y-95220316D01*
X140179748Y-95214500D01*
X138640252Y-95214500D01*
X138611010Y-95220316D01*
X138581767Y-95226133D01*
X138515449Y-95270447D01*
X138515447Y-95270449D01*
X138471133Y-95336767D01*
X138459500Y-95395253D01*
X100500500Y-95395253D01*
X100500500Y-93328546D01*
X138459500Y-93328546D01*
X138459500Y-93471453D01*
X138487379Y-93611614D01*
X138487381Y-93611620D01*
X138542071Y-93743653D01*
X138621468Y-93862479D01*
X138722521Y-93963532D01*
X138841347Y-94042929D01*
X138973380Y-94097619D01*
X139113545Y-94125500D01*
X139113547Y-94125500D01*
X139706453Y-94125500D01*
X139706455Y-94125500D01*
X139846620Y-94097619D01*
X139978653Y-94042929D01*
X140097479Y-93963532D01*
X140198532Y-93862479D01*
X140277929Y-93743653D01*
X140332619Y-93611620D01*
X140360500Y-93471455D01*
X140360500Y-93328545D01*
X140332619Y-93188380D01*
X140277929Y-93056347D01*
X140198532Y-92937521D01*
X140097479Y-92836468D01*
X139978653Y-92757071D01*
X139978650Y-92757069D01*
X139978649Y-92757069D01*
X139846620Y-92702381D01*
X139846614Y-92702379D01*
X139752752Y-92683709D01*
X139706455Y-92674500D01*
X139113545Y-92674500D01*
X139073810Y-92682403D01*
X138973385Y-92702379D01*
X138973379Y-92702381D01*
X138841350Y-92757069D01*
X138722521Y-92836467D01*
X138722520Y-92836469D01*
X138621469Y-92937520D01*
X138621467Y-92937521D01*
X138542069Y-93056350D01*
X138487381Y-93188379D01*
X138487379Y-93188385D01*
X138459500Y-93328546D01*
X100500500Y-93328546D01*
X100500500Y-74640253D01*
X101239500Y-74640253D01*
X101239500Y-76379746D01*
X101251133Y-76438232D01*
X101280608Y-76482343D01*
X101295448Y-76504552D01*
X101339560Y-76534027D01*
X101361767Y-76548866D01*
X101361768Y-76548866D01*
X101361769Y-76548867D01*
X101420252Y-76560500D01*
X101420254Y-76560500D01*
X103159746Y-76560500D01*
X103159748Y-76560500D01*
X103218231Y-76548867D01*
X103284552Y-76504552D01*
X103328867Y-76438231D01*
X103340500Y-76379748D01*
X103340500Y-74640252D01*
X103328867Y-74581769D01*
X103284552Y-74515448D01*
X103262343Y-74500608D01*
X103218232Y-74471133D01*
X103218233Y-74471133D01*
X103188989Y-74465316D01*
X103159748Y-74459500D01*
X101420252Y-74459500D01*
X101391010Y-74465316D01*
X101361767Y-74471133D01*
X101295449Y-74515447D01*
X101295447Y-74515449D01*
X101251133Y-74581767D01*
X101239500Y-74640253D01*
X100500500Y-74640253D01*
X100500500Y-72866535D01*
X101239500Y-72866535D01*
X101239500Y-73073464D01*
X101279868Y-73276413D01*
X101279870Y-73276420D01*
X101359059Y-73467598D01*
X101474023Y-73639655D01*
X101620345Y-73785977D01*
X101792402Y-73900941D01*
X101983580Y-73980130D01*
X102186535Y-74020500D01*
X102186536Y-74020500D01*
X102393464Y-74020500D01*
X102393465Y-74020500D01*
X102596420Y-73980130D01*
X102787598Y-73900941D01*
X102959655Y-73785977D01*
X103105977Y-73639655D01*
X103220941Y-73467598D01*
X103300130Y-73276420D01*
X103340500Y-73073465D01*
X103340500Y-72866535D01*
X103300130Y-72663580D01*
X103220941Y-72472402D01*
X103105977Y-72300345D01*
X102959655Y-72154023D01*
X102787598Y-72039059D01*
X102596420Y-71959870D01*
X102596413Y-71959868D01*
X102443516Y-71929455D01*
X102393465Y-71919500D01*
X102186535Y-71919500D01*
X102146385Y-71927486D01*
X101983586Y-71959868D01*
X101983579Y-71959870D01*
X101792401Y-72039059D01*
X101620345Y-72154022D01*
X101620344Y-72154024D01*
X101474024Y-72300344D01*
X101474022Y-72300345D01*
X101359059Y-72472401D01*
X101279870Y-72663579D01*
X101279868Y-72663586D01*
X101239500Y-72866535D01*
X100500500Y-72866535D01*
X100500500Y-70326535D01*
X101239500Y-70326535D01*
X101239500Y-70533464D01*
X101279868Y-70736413D01*
X101279870Y-70736420D01*
X101359059Y-70927598D01*
X101474023Y-71099655D01*
X101620345Y-71245977D01*
X101792402Y-71360941D01*
X101983580Y-71440130D01*
X102186535Y-71480500D01*
X102186536Y-71480500D01*
X102393464Y-71480500D01*
X102393465Y-71480500D01*
X102596420Y-71440130D01*
X102787598Y-71360941D01*
X102959655Y-71245977D01*
X103105977Y-71099655D01*
X103220941Y-70927598D01*
X103300130Y-70736420D01*
X103340500Y-70533465D01*
X103340500Y-70326535D01*
X103300130Y-70123580D01*
X103220941Y-69932402D01*
X103105977Y-69760345D01*
X102959655Y-69614023D01*
X102787598Y-69499059D01*
X102596420Y-69419870D01*
X102596413Y-69419868D01*
X102443516Y-69389455D01*
X102393465Y-69379500D01*
X102186535Y-69379500D01*
X102146385Y-69387486D01*
X101983586Y-69419868D01*
X101983579Y-69419870D01*
X101792401Y-69499059D01*
X101620345Y-69614022D01*
X101620344Y-69614024D01*
X101474024Y-69760344D01*
X101474022Y-69760345D01*
X101359059Y-69932401D01*
X101279870Y-70123579D01*
X101279868Y-70123586D01*
X101239500Y-70326535D01*
X100500500Y-70326535D01*
X100500500Y-56529796D01*
X144637000Y-56529796D01*
X144637000Y-56672703D01*
X144664879Y-56812864D01*
X144664881Y-56812870D01*
X144719571Y-56944903D01*
X144798968Y-57063729D01*
X144900021Y-57164782D01*
X145018847Y-57244179D01*
X145150880Y-57298869D01*
X145291045Y-57326750D01*
X145291047Y-57326750D01*
X145883953Y-57326750D01*
X145883955Y-57326750D01*
X146024120Y-57298869D01*
X146156153Y-57244179D01*
X146274979Y-57164782D01*
X146376032Y-57063729D01*
X146455429Y-56944903D01*
X146510119Y-56812870D01*
X146538000Y-56672705D01*
X146538000Y-56529795D01*
X146510119Y-56389630D01*
X146455429Y-56257597D01*
X146376032Y-56138771D01*
X146274979Y-56037718D01*
X146156153Y-55958321D01*
X146156150Y-55958319D01*
X146156149Y-55958319D01*
X146024120Y-55903631D01*
X146024114Y-55903629D01*
X145930252Y-55884959D01*
X145883955Y-55875750D01*
X145291045Y-55875750D01*
X145251310Y-55883653D01*
X145150885Y-55903629D01*
X145150879Y-55903631D01*
X145018850Y-55958319D01*
X144900021Y-56037717D01*
X144900020Y-56037719D01*
X144798969Y-56138770D01*
X144798967Y-56138771D01*
X144719569Y-56257600D01*
X144664881Y-56389629D01*
X144664879Y-56389635D01*
X144637000Y-56529796D01*
X100500500Y-56529796D01*
X100500500Y-53516503D01*
X144637000Y-53516503D01*
X144637000Y-54605996D01*
X144648633Y-54664482D01*
X144678108Y-54708593D01*
X144692948Y-54730802D01*
X144737060Y-54760277D01*
X144759267Y-54775116D01*
X144759268Y-54775116D01*
X144759269Y-54775117D01*
X144817752Y-54786750D01*
X144817754Y-54786750D01*
X146357246Y-54786750D01*
X146357248Y-54786750D01*
X146415731Y-54775117D01*
X146482052Y-54730802D01*
X146526367Y-54664481D01*
X146538000Y-54605998D01*
X146538000Y-53516502D01*
X146526367Y-53458019D01*
X146482052Y-53391698D01*
X146459843Y-53376858D01*
X146415732Y-53347383D01*
X146415733Y-53347383D01*
X146386489Y-53341566D01*
X146357248Y-53335750D01*
X144817752Y-53335750D01*
X144788510Y-53341566D01*
X144759267Y-53347383D01*
X144692949Y-53391697D01*
X144692947Y-53391699D01*
X144648633Y-53458017D01*
X144637000Y-53516503D01*
X100500500Y-53516503D01*
X100500500Y-50574500D01*
X100522174Y-50522174D01*
X100574500Y-50500500D01*
X149425500Y-50500500D01*
X149477826Y-50522174D01*
G37*
%TD.AperFunction*%
%TD*%
M02*
