%TF.GenerationSoftware,KiCad,Pcbnew,9.0.0*%
%TF.CreationDate,2025-04-09T17:46:58+02:00*%
%TF.ProjectId,TEST_SENSORS,54455354-5f53-4454-9e53-4f52532e6b69,rev?*%
%TF.SameCoordinates,Original*%
%TF.FileFunction,Legend,Top*%
%TF.FilePolarity,Positive*%
%FSLAX46Y46*%
G04 Gerber Fmt 4.6, Leading zero omitted, Abs format (unit mm)*
G04 Created by KiCad (PCBNEW 9.0.0) date 2025-04-09 17:46:58*
%MOMM*%
%LPD*%
G01*
G04 APERTURE LIST*
%ADD10C,0.100000*%
%ADD11C,0.150000*%
%ADD12C,0.120000*%
G04 APERTURE END LIST*
D10*
X143905097Y-95000000D02*
G75*
G02*
X142094903Y-95000000I-905097J0D01*
G01*
X142094903Y-95000000D02*
G75*
G02*
X143905097Y-95000000I905097J0D01*
G01*
X142905097Y-55000000D02*
G75*
G02*
X141094903Y-55000000I-905097J0D01*
G01*
X141094903Y-55000000D02*
G75*
G02*
X142905097Y-55000000I905097J0D01*
G01*
D11*
X142085833Y-98829580D02*
X142038214Y-98877200D01*
X142038214Y-98877200D02*
X141895357Y-98924819D01*
X141895357Y-98924819D02*
X141800119Y-98924819D01*
X141800119Y-98924819D02*
X141657262Y-98877200D01*
X141657262Y-98877200D02*
X141562024Y-98781961D01*
X141562024Y-98781961D02*
X141514405Y-98686723D01*
X141514405Y-98686723D02*
X141466786Y-98496247D01*
X141466786Y-98496247D02*
X141466786Y-98353390D01*
X141466786Y-98353390D02*
X141514405Y-98162914D01*
X141514405Y-98162914D02*
X141562024Y-98067676D01*
X141562024Y-98067676D02*
X141657262Y-97972438D01*
X141657262Y-97972438D02*
X141800119Y-97924819D01*
X141800119Y-97924819D02*
X141895357Y-97924819D01*
X141895357Y-97924819D02*
X142038214Y-97972438D01*
X142038214Y-97972438D02*
X142085833Y-98020057D01*
X142562024Y-98924819D02*
X142752500Y-98924819D01*
X142752500Y-98924819D02*
X142847738Y-98877200D01*
X142847738Y-98877200D02*
X142895357Y-98829580D01*
X142895357Y-98829580D02*
X142990595Y-98686723D01*
X142990595Y-98686723D02*
X143038214Y-98496247D01*
X143038214Y-98496247D02*
X143038214Y-98115295D01*
X143038214Y-98115295D02*
X142990595Y-98020057D01*
X142990595Y-98020057D02*
X142942976Y-97972438D01*
X142942976Y-97972438D02*
X142847738Y-97924819D01*
X142847738Y-97924819D02*
X142657262Y-97924819D01*
X142657262Y-97924819D02*
X142562024Y-97972438D01*
X142562024Y-97972438D02*
X142514405Y-98020057D01*
X142514405Y-98020057D02*
X142466786Y-98115295D01*
X142466786Y-98115295D02*
X142466786Y-98353390D01*
X142466786Y-98353390D02*
X142514405Y-98448628D01*
X142514405Y-98448628D02*
X142562024Y-98496247D01*
X142562024Y-98496247D02*
X142657262Y-98543866D01*
X142657262Y-98543866D02*
X142847738Y-98543866D01*
X142847738Y-98543866D02*
X142942976Y-98496247D01*
X142942976Y-98496247D02*
X142990595Y-98448628D01*
X142990595Y-98448628D02*
X143038214Y-98353390D01*
X148602319Y-56093154D02*
X149411842Y-56093154D01*
X149411842Y-56093154D02*
X149507080Y-56045535D01*
X149507080Y-56045535D02*
X149554700Y-55997916D01*
X149554700Y-55997916D02*
X149602319Y-55902678D01*
X149602319Y-55902678D02*
X149602319Y-55712202D01*
X149602319Y-55712202D02*
X149554700Y-55616964D01*
X149554700Y-55616964D02*
X149507080Y-55569345D01*
X149507080Y-55569345D02*
X149411842Y-55521726D01*
X149411842Y-55521726D02*
X148602319Y-55521726D01*
X148602319Y-55140773D02*
X148602319Y-54474107D01*
X148602319Y-54474107D02*
X149602319Y-54902678D01*
X105174642Y-78949580D02*
X105127023Y-78997200D01*
X105127023Y-78997200D02*
X104984166Y-79044819D01*
X104984166Y-79044819D02*
X104888928Y-79044819D01*
X104888928Y-79044819D02*
X104746071Y-78997200D01*
X104746071Y-78997200D02*
X104650833Y-78901961D01*
X104650833Y-78901961D02*
X104603214Y-78806723D01*
X104603214Y-78806723D02*
X104555595Y-78616247D01*
X104555595Y-78616247D02*
X104555595Y-78473390D01*
X104555595Y-78473390D02*
X104603214Y-78282914D01*
X104603214Y-78282914D02*
X104650833Y-78187676D01*
X104650833Y-78187676D02*
X104746071Y-78092438D01*
X104746071Y-78092438D02*
X104888928Y-78044819D01*
X104888928Y-78044819D02*
X104984166Y-78044819D01*
X104984166Y-78044819D02*
X105127023Y-78092438D01*
X105127023Y-78092438D02*
X105174642Y-78140057D01*
X105555595Y-78140057D02*
X105603214Y-78092438D01*
X105603214Y-78092438D02*
X105698452Y-78044819D01*
X105698452Y-78044819D02*
X105936547Y-78044819D01*
X105936547Y-78044819D02*
X106031785Y-78092438D01*
X106031785Y-78092438D02*
X106079404Y-78140057D01*
X106079404Y-78140057D02*
X106127023Y-78235295D01*
X106127023Y-78235295D02*
X106127023Y-78330533D01*
X106127023Y-78330533D02*
X106079404Y-78473390D01*
X106079404Y-78473390D02*
X105507976Y-79044819D01*
X105507976Y-79044819D02*
X106127023Y-79044819D01*
X107079404Y-79044819D02*
X106507976Y-79044819D01*
X106793690Y-79044819D02*
X106793690Y-78044819D01*
X106793690Y-78044819D02*
X106698452Y-78187676D01*
X106698452Y-78187676D02*
X106603214Y-78282914D01*
X106603214Y-78282914D02*
X106507976Y-78330533D01*
X138438095Y-90344819D02*
X138438095Y-91154342D01*
X138438095Y-91154342D02*
X138485714Y-91249580D01*
X138485714Y-91249580D02*
X138533333Y-91297200D01*
X138533333Y-91297200D02*
X138628571Y-91344819D01*
X138628571Y-91344819D02*
X138819047Y-91344819D01*
X138819047Y-91344819D02*
X138914285Y-91297200D01*
X138914285Y-91297200D02*
X138961904Y-91249580D01*
X138961904Y-91249580D02*
X139009523Y-91154342D01*
X139009523Y-91154342D02*
X139009523Y-90344819D01*
X139628571Y-90773390D02*
X139533333Y-90725771D01*
X139533333Y-90725771D02*
X139485714Y-90678152D01*
X139485714Y-90678152D02*
X139438095Y-90582914D01*
X139438095Y-90582914D02*
X139438095Y-90535295D01*
X139438095Y-90535295D02*
X139485714Y-90440057D01*
X139485714Y-90440057D02*
X139533333Y-90392438D01*
X139533333Y-90392438D02*
X139628571Y-90344819D01*
X139628571Y-90344819D02*
X139819047Y-90344819D01*
X139819047Y-90344819D02*
X139914285Y-90392438D01*
X139914285Y-90392438D02*
X139961904Y-90440057D01*
X139961904Y-90440057D02*
X140009523Y-90535295D01*
X140009523Y-90535295D02*
X140009523Y-90582914D01*
X140009523Y-90582914D02*
X139961904Y-90678152D01*
X139961904Y-90678152D02*
X139914285Y-90725771D01*
X139914285Y-90725771D02*
X139819047Y-90773390D01*
X139819047Y-90773390D02*
X139628571Y-90773390D01*
X139628571Y-90773390D02*
X139533333Y-90821009D01*
X139533333Y-90821009D02*
X139485714Y-90868628D01*
X139485714Y-90868628D02*
X139438095Y-90963866D01*
X139438095Y-90963866D02*
X139438095Y-91154342D01*
X139438095Y-91154342D02*
X139485714Y-91249580D01*
X139485714Y-91249580D02*
X139533333Y-91297200D01*
X139533333Y-91297200D02*
X139628571Y-91344819D01*
X139628571Y-91344819D02*
X139819047Y-91344819D01*
X139819047Y-91344819D02*
X139914285Y-91297200D01*
X139914285Y-91297200D02*
X139961904Y-91249580D01*
X139961904Y-91249580D02*
X140009523Y-91154342D01*
X140009523Y-91154342D02*
X140009523Y-90963866D01*
X140009523Y-90963866D02*
X139961904Y-90868628D01*
X139961904Y-90868628D02*
X139914285Y-90821009D01*
X139914285Y-90821009D02*
X139819047Y-90773390D01*
X143843333Y-51689580D02*
X143795714Y-51737200D01*
X143795714Y-51737200D02*
X143652857Y-51784819D01*
X143652857Y-51784819D02*
X143557619Y-51784819D01*
X143557619Y-51784819D02*
X143414762Y-51737200D01*
X143414762Y-51737200D02*
X143319524Y-51641961D01*
X143319524Y-51641961D02*
X143271905Y-51546723D01*
X143271905Y-51546723D02*
X143224286Y-51356247D01*
X143224286Y-51356247D02*
X143224286Y-51213390D01*
X143224286Y-51213390D02*
X143271905Y-51022914D01*
X143271905Y-51022914D02*
X143319524Y-50927676D01*
X143319524Y-50927676D02*
X143414762Y-50832438D01*
X143414762Y-50832438D02*
X143557619Y-50784819D01*
X143557619Y-50784819D02*
X143652857Y-50784819D01*
X143652857Y-50784819D02*
X143795714Y-50832438D01*
X143795714Y-50832438D02*
X143843333Y-50880057D01*
X144414762Y-51213390D02*
X144319524Y-51165771D01*
X144319524Y-51165771D02*
X144271905Y-51118152D01*
X144271905Y-51118152D02*
X144224286Y-51022914D01*
X144224286Y-51022914D02*
X144224286Y-50975295D01*
X144224286Y-50975295D02*
X144271905Y-50880057D01*
X144271905Y-50880057D02*
X144319524Y-50832438D01*
X144319524Y-50832438D02*
X144414762Y-50784819D01*
X144414762Y-50784819D02*
X144605238Y-50784819D01*
X144605238Y-50784819D02*
X144700476Y-50832438D01*
X144700476Y-50832438D02*
X144748095Y-50880057D01*
X144748095Y-50880057D02*
X144795714Y-50975295D01*
X144795714Y-50975295D02*
X144795714Y-51022914D01*
X144795714Y-51022914D02*
X144748095Y-51118152D01*
X144748095Y-51118152D02*
X144700476Y-51165771D01*
X144700476Y-51165771D02*
X144605238Y-51213390D01*
X144605238Y-51213390D02*
X144414762Y-51213390D01*
X144414762Y-51213390D02*
X144319524Y-51261009D01*
X144319524Y-51261009D02*
X144271905Y-51308628D01*
X144271905Y-51308628D02*
X144224286Y-51403866D01*
X144224286Y-51403866D02*
X144224286Y-51594342D01*
X144224286Y-51594342D02*
X144271905Y-51689580D01*
X144271905Y-51689580D02*
X144319524Y-51737200D01*
X144319524Y-51737200D02*
X144414762Y-51784819D01*
X144414762Y-51784819D02*
X144605238Y-51784819D01*
X144605238Y-51784819D02*
X144700476Y-51737200D01*
X144700476Y-51737200D02*
X144748095Y-51689580D01*
X144748095Y-51689580D02*
X144795714Y-51594342D01*
X144795714Y-51594342D02*
X144795714Y-51403866D01*
X144795714Y-51403866D02*
X144748095Y-51308628D01*
X144748095Y-51308628D02*
X144700476Y-51261009D01*
X144700476Y-51261009D02*
X144605238Y-51213390D01*
X105084642Y-81319580D02*
X105037023Y-81367200D01*
X105037023Y-81367200D02*
X104894166Y-81414819D01*
X104894166Y-81414819D02*
X104798928Y-81414819D01*
X104798928Y-81414819D02*
X104656071Y-81367200D01*
X104656071Y-81367200D02*
X104560833Y-81271961D01*
X104560833Y-81271961D02*
X104513214Y-81176723D01*
X104513214Y-81176723D02*
X104465595Y-80986247D01*
X104465595Y-80986247D02*
X104465595Y-80843390D01*
X104465595Y-80843390D02*
X104513214Y-80652914D01*
X104513214Y-80652914D02*
X104560833Y-80557676D01*
X104560833Y-80557676D02*
X104656071Y-80462438D01*
X104656071Y-80462438D02*
X104798928Y-80414819D01*
X104798928Y-80414819D02*
X104894166Y-80414819D01*
X104894166Y-80414819D02*
X105037023Y-80462438D01*
X105037023Y-80462438D02*
X105084642Y-80510057D01*
X105465595Y-80510057D02*
X105513214Y-80462438D01*
X105513214Y-80462438D02*
X105608452Y-80414819D01*
X105608452Y-80414819D02*
X105846547Y-80414819D01*
X105846547Y-80414819D02*
X105941785Y-80462438D01*
X105941785Y-80462438D02*
X105989404Y-80510057D01*
X105989404Y-80510057D02*
X106037023Y-80605295D01*
X106037023Y-80605295D02*
X106037023Y-80700533D01*
X106037023Y-80700533D02*
X105989404Y-80843390D01*
X105989404Y-80843390D02*
X105417976Y-81414819D01*
X105417976Y-81414819D02*
X106037023Y-81414819D01*
X106656071Y-80414819D02*
X106751309Y-80414819D01*
X106751309Y-80414819D02*
X106846547Y-80462438D01*
X106846547Y-80462438D02*
X106894166Y-80510057D01*
X106894166Y-80510057D02*
X106941785Y-80605295D01*
X106941785Y-80605295D02*
X106989404Y-80795771D01*
X106989404Y-80795771D02*
X106989404Y-81033866D01*
X106989404Y-81033866D02*
X106941785Y-81224342D01*
X106941785Y-81224342D02*
X106894166Y-81319580D01*
X106894166Y-81319580D02*
X106846547Y-81367200D01*
X106846547Y-81367200D02*
X106751309Y-81414819D01*
X106751309Y-81414819D02*
X106656071Y-81414819D01*
X106656071Y-81414819D02*
X106560833Y-81367200D01*
X106560833Y-81367200D02*
X106513214Y-81319580D01*
X106513214Y-81319580D02*
X106465595Y-81224342D01*
X106465595Y-81224342D02*
X106417976Y-81033866D01*
X106417976Y-81033866D02*
X106417976Y-80795771D01*
X106417976Y-80795771D02*
X106465595Y-80605295D01*
X106465595Y-80605295D02*
X106513214Y-80510057D01*
X106513214Y-80510057D02*
X106560833Y-80462438D01*
X106560833Y-80462438D02*
X106656071Y-80414819D01*
D12*
%TO.C,C9*%
X139061248Y-99265000D02*
X139583752Y-99265000D01*
X139061248Y-97795000D02*
X139583752Y-97795000D01*
%TO.C,U7*%
X148187500Y-55331250D02*
G75*
G02*
X143749022Y-57169728I-2600000J0D01*
G01*
X143749022Y-53492772D02*
G75*
G02*
X148187501Y-55331250I1838478J-1838478D01*
G01*
X143737500Y-53531250D02*
X143737500Y-57131250D01*
%TO.C,C21*%
X102598752Y-79435000D02*
X102076248Y-79435000D01*
X102598752Y-77965000D02*
X102076248Y-77965000D01*
%TO.C,U8*%
X141260000Y-96470000D02*
X141260000Y-92870000D01*
X141248478Y-96508478D02*
G75*
G02*
X136809999Y-94670000I-1838478J1838478D01*
G01*
X136810000Y-94670000D02*
G75*
G02*
X141248478Y-92831522I2600000J0D01*
G01*
%TO.C,C8*%
X146836248Y-50496250D02*
X147358752Y-50496250D01*
X146836248Y-51966250D02*
X147358752Y-51966250D01*
%TO.C,C20*%
X102598752Y-81615000D02*
X102076248Y-81615000D01*
X102598752Y-80145000D02*
X102076248Y-80145000D01*
%TD*%
M02*
