%TF.GenerationSoftware,KiCad,Pcbnew,9.0.0*%
%TF.CreationDate,2025-04-01T22:00:14+02:00*%
%TF.ProjectId,BRAIN,42524149-4e2e-46b6-9963-61645f706362,rev?*%
%TF.SameCoordinates,Original*%
%TF.FileFunction,Legend,Bot*%
%TF.FilePolarity,Positive*%
%FSLAX46Y46*%
G04 Gerber Fmt 4.6, Leading zero omitted, Abs format (unit mm)*
G04 Created by KiCad (PCBNEW 9.0.0) date 2025-04-01 22:00:14*
%MOMM*%
%LPD*%
G01*
G04 APERTURE LIST*
%ADD10C,0.150000*%
%ADD11C,0.200000*%
%ADD12C,0.120000*%
%ADD13C,0.127000*%
G04 APERTURE END LIST*
D10*
X160372016Y-95429819D02*
X160372016Y-94429819D01*
X159419636Y-95429819D02*
X159895826Y-95429819D01*
X159895826Y-95429819D02*
X159895826Y-94429819D01*
X159086302Y-95429819D02*
X159086302Y-94429819D01*
X158562493Y-95429819D02*
X158372017Y-95429819D01*
X158372017Y-95429819D02*
X158276779Y-95382200D01*
X158276779Y-95382200D02*
X158229160Y-95334580D01*
X158229160Y-95334580D02*
X158133922Y-95191723D01*
X158133922Y-95191723D02*
X158086303Y-95001247D01*
X158086303Y-95001247D02*
X158086303Y-94620295D01*
X158086303Y-94620295D02*
X158133922Y-94525057D01*
X158133922Y-94525057D02*
X158181541Y-94477438D01*
X158181541Y-94477438D02*
X158276779Y-94429819D01*
X158276779Y-94429819D02*
X158467255Y-94429819D01*
X158467255Y-94429819D02*
X158562493Y-94477438D01*
X158562493Y-94477438D02*
X158610112Y-94525057D01*
X158610112Y-94525057D02*
X158657731Y-94620295D01*
X158657731Y-94620295D02*
X158657731Y-94858390D01*
X158657731Y-94858390D02*
X158610112Y-94953628D01*
X158610112Y-94953628D02*
X158562493Y-95001247D01*
X158562493Y-95001247D02*
X158467255Y-95048866D01*
X158467255Y-95048866D02*
X158276779Y-95048866D01*
X158276779Y-95048866D02*
X158181541Y-95001247D01*
X158181541Y-95001247D02*
X158133922Y-94953628D01*
X158133922Y-94953628D02*
X158086303Y-94858390D01*
X157752969Y-94429819D02*
X157133922Y-94429819D01*
X157133922Y-94429819D02*
X157467255Y-94810771D01*
X157467255Y-94810771D02*
X157324398Y-94810771D01*
X157324398Y-94810771D02*
X157229160Y-94858390D01*
X157229160Y-94858390D02*
X157181541Y-94906009D01*
X157181541Y-94906009D02*
X157133922Y-95001247D01*
X157133922Y-95001247D02*
X157133922Y-95239342D01*
X157133922Y-95239342D02*
X157181541Y-95334580D01*
X157181541Y-95334580D02*
X157229160Y-95382200D01*
X157229160Y-95382200D02*
X157324398Y-95429819D01*
X157324398Y-95429819D02*
X157610112Y-95429819D01*
X157610112Y-95429819D02*
X157705350Y-95382200D01*
X157705350Y-95382200D02*
X157752969Y-95334580D01*
X156276779Y-94763152D02*
X156276779Y-95429819D01*
X156514874Y-94382200D02*
X156752969Y-95096485D01*
X156752969Y-95096485D02*
X156133922Y-95096485D01*
X155229160Y-95429819D02*
X155800588Y-95429819D01*
X155514874Y-95429819D02*
X155514874Y-94429819D01*
X155514874Y-94429819D02*
X155610112Y-94572676D01*
X155610112Y-94572676D02*
X155705350Y-94667914D01*
X155705350Y-94667914D02*
X155800588Y-94715533D01*
X128444875Y-80516009D02*
X128111542Y-80516009D01*
X127968685Y-81039819D02*
X128444875Y-81039819D01*
X128444875Y-81039819D02*
X128444875Y-80039819D01*
X128444875Y-80039819D02*
X127968685Y-80039819D01*
X127587732Y-80992200D02*
X127444875Y-81039819D01*
X127444875Y-81039819D02*
X127206780Y-81039819D01*
X127206780Y-81039819D02*
X127111542Y-80992200D01*
X127111542Y-80992200D02*
X127063923Y-80944580D01*
X127063923Y-80944580D02*
X127016304Y-80849342D01*
X127016304Y-80849342D02*
X127016304Y-80754104D01*
X127016304Y-80754104D02*
X127063923Y-80658866D01*
X127063923Y-80658866D02*
X127111542Y-80611247D01*
X127111542Y-80611247D02*
X127206780Y-80563628D01*
X127206780Y-80563628D02*
X127397256Y-80516009D01*
X127397256Y-80516009D02*
X127492494Y-80468390D01*
X127492494Y-80468390D02*
X127540113Y-80420771D01*
X127540113Y-80420771D02*
X127587732Y-80325533D01*
X127587732Y-80325533D02*
X127587732Y-80230295D01*
X127587732Y-80230295D02*
X127540113Y-80135057D01*
X127540113Y-80135057D02*
X127492494Y-80087438D01*
X127492494Y-80087438D02*
X127397256Y-80039819D01*
X127397256Y-80039819D02*
X127159161Y-80039819D01*
X127159161Y-80039819D02*
X127016304Y-80087438D01*
X126587732Y-81039819D02*
X126587732Y-80039819D01*
X126587732Y-80039819D02*
X126206780Y-80039819D01*
X126206780Y-80039819D02*
X126111542Y-80087438D01*
X126111542Y-80087438D02*
X126063923Y-80135057D01*
X126063923Y-80135057D02*
X126016304Y-80230295D01*
X126016304Y-80230295D02*
X126016304Y-80373152D01*
X126016304Y-80373152D02*
X126063923Y-80468390D01*
X126063923Y-80468390D02*
X126111542Y-80516009D01*
X126111542Y-80516009D02*
X126206780Y-80563628D01*
X126206780Y-80563628D02*
X126587732Y-80563628D01*
X124825827Y-81039819D02*
X124825827Y-80039819D01*
X124825827Y-80039819D02*
X124587732Y-80039819D01*
X124587732Y-80039819D02*
X124444875Y-80087438D01*
X124444875Y-80087438D02*
X124349637Y-80182676D01*
X124349637Y-80182676D02*
X124302018Y-80277914D01*
X124302018Y-80277914D02*
X124254399Y-80468390D01*
X124254399Y-80468390D02*
X124254399Y-80611247D01*
X124254399Y-80611247D02*
X124302018Y-80801723D01*
X124302018Y-80801723D02*
X124349637Y-80896961D01*
X124349637Y-80896961D02*
X124444875Y-80992200D01*
X124444875Y-80992200D02*
X124587732Y-81039819D01*
X124587732Y-81039819D02*
X124825827Y-81039819D01*
X123682970Y-81039819D02*
X123778208Y-80992200D01*
X123778208Y-80992200D02*
X123825827Y-80944580D01*
X123825827Y-80944580D02*
X123873446Y-80849342D01*
X123873446Y-80849342D02*
X123873446Y-80563628D01*
X123873446Y-80563628D02*
X123825827Y-80468390D01*
X123825827Y-80468390D02*
X123778208Y-80420771D01*
X123778208Y-80420771D02*
X123682970Y-80373152D01*
X123682970Y-80373152D02*
X123540113Y-80373152D01*
X123540113Y-80373152D02*
X123444875Y-80420771D01*
X123444875Y-80420771D02*
X123397256Y-80468390D01*
X123397256Y-80468390D02*
X123349637Y-80563628D01*
X123349637Y-80563628D02*
X123349637Y-80849342D01*
X123349637Y-80849342D02*
X123397256Y-80944580D01*
X123397256Y-80944580D02*
X123444875Y-80992200D01*
X123444875Y-80992200D02*
X123540113Y-81039819D01*
X123540113Y-81039819D02*
X123682970Y-81039819D01*
X123016303Y-80373152D02*
X122825827Y-81039819D01*
X122825827Y-81039819D02*
X122635351Y-80563628D01*
X122635351Y-80563628D02*
X122444875Y-81039819D01*
X122444875Y-81039819D02*
X122254399Y-80373152D01*
X121873446Y-80373152D02*
X121873446Y-81039819D01*
X121873446Y-80468390D02*
X121825827Y-80420771D01*
X121825827Y-80420771D02*
X121730589Y-80373152D01*
X121730589Y-80373152D02*
X121587732Y-80373152D01*
X121587732Y-80373152D02*
X121492494Y-80420771D01*
X121492494Y-80420771D02*
X121444875Y-80516009D01*
X121444875Y-80516009D02*
X121444875Y-81039819D01*
X120825827Y-81039819D02*
X120921065Y-80992200D01*
X120921065Y-80992200D02*
X120968684Y-80896961D01*
X120968684Y-80896961D02*
X120968684Y-80039819D01*
X120302017Y-81039819D02*
X120397255Y-80992200D01*
X120397255Y-80992200D02*
X120444874Y-80944580D01*
X120444874Y-80944580D02*
X120492493Y-80849342D01*
X120492493Y-80849342D02*
X120492493Y-80563628D01*
X120492493Y-80563628D02*
X120444874Y-80468390D01*
X120444874Y-80468390D02*
X120397255Y-80420771D01*
X120397255Y-80420771D02*
X120302017Y-80373152D01*
X120302017Y-80373152D02*
X120159160Y-80373152D01*
X120159160Y-80373152D02*
X120063922Y-80420771D01*
X120063922Y-80420771D02*
X120016303Y-80468390D01*
X120016303Y-80468390D02*
X119968684Y-80563628D01*
X119968684Y-80563628D02*
X119968684Y-80849342D01*
X119968684Y-80849342D02*
X120016303Y-80944580D01*
X120016303Y-80944580D02*
X120063922Y-80992200D01*
X120063922Y-80992200D02*
X120159160Y-81039819D01*
X120159160Y-81039819D02*
X120302017Y-81039819D01*
X119111541Y-81039819D02*
X119111541Y-80516009D01*
X119111541Y-80516009D02*
X119159160Y-80420771D01*
X119159160Y-80420771D02*
X119254398Y-80373152D01*
X119254398Y-80373152D02*
X119444874Y-80373152D01*
X119444874Y-80373152D02*
X119540112Y-80420771D01*
X119111541Y-80992200D02*
X119206779Y-81039819D01*
X119206779Y-81039819D02*
X119444874Y-81039819D01*
X119444874Y-81039819D02*
X119540112Y-80992200D01*
X119540112Y-80992200D02*
X119587731Y-80896961D01*
X119587731Y-80896961D02*
X119587731Y-80801723D01*
X119587731Y-80801723D02*
X119540112Y-80706485D01*
X119540112Y-80706485D02*
X119444874Y-80658866D01*
X119444874Y-80658866D02*
X119206779Y-80658866D01*
X119206779Y-80658866D02*
X119111541Y-80611247D01*
X118206779Y-81039819D02*
X118206779Y-80039819D01*
X118206779Y-80992200D02*
X118302017Y-81039819D01*
X118302017Y-81039819D02*
X118492493Y-81039819D01*
X118492493Y-81039819D02*
X118587731Y-80992200D01*
X118587731Y-80992200D02*
X118635350Y-80944580D01*
X118635350Y-80944580D02*
X118682969Y-80849342D01*
X118682969Y-80849342D02*
X118682969Y-80563628D01*
X118682969Y-80563628D02*
X118635350Y-80468390D01*
X118635350Y-80468390D02*
X118587731Y-80420771D01*
X118587731Y-80420771D02*
X118492493Y-80373152D01*
X118492493Y-80373152D02*
X118302017Y-80373152D01*
X118302017Y-80373152D02*
X118206779Y-80420771D01*
D11*
X122154911Y-51689600D02*
X122250149Y-51737219D01*
X122250149Y-51737219D02*
X122440625Y-51737219D01*
X122440625Y-51737219D02*
X122535863Y-51689600D01*
X122535863Y-51689600D02*
X122583482Y-51594361D01*
X122583482Y-51594361D02*
X122583482Y-51213409D01*
X122583482Y-51213409D02*
X122535863Y-51118171D01*
X122535863Y-51118171D02*
X122440625Y-51070552D01*
X122440625Y-51070552D02*
X122250149Y-51070552D01*
X122250149Y-51070552D02*
X122154911Y-51118171D01*
X122154911Y-51118171D02*
X122107292Y-51213409D01*
X122107292Y-51213409D02*
X122107292Y-51308647D01*
X122107292Y-51308647D02*
X122583482Y-51403885D01*
X121535863Y-51737219D02*
X121631101Y-51689600D01*
X121631101Y-51689600D02*
X121678720Y-51594361D01*
X121678720Y-51594361D02*
X121678720Y-50737219D01*
X121297767Y-51070552D02*
X120916815Y-51070552D01*
X121154910Y-50737219D02*
X121154910Y-51594361D01*
X121154910Y-51594361D02*
X121107291Y-51689600D01*
X121107291Y-51689600D02*
X121012053Y-51737219D01*
X121012053Y-51737219D02*
X120916815Y-51737219D01*
X120583481Y-51737219D02*
X120583481Y-51070552D01*
X120583481Y-50737219D02*
X120631100Y-50784838D01*
X120631100Y-50784838D02*
X120583481Y-50832457D01*
X120583481Y-50832457D02*
X120535862Y-50784838D01*
X120535862Y-50784838D02*
X120583481Y-50737219D01*
X120583481Y-50737219D02*
X120583481Y-50832457D01*
X119726339Y-51689600D02*
X119821577Y-51737219D01*
X119821577Y-51737219D02*
X120012053Y-51737219D01*
X120012053Y-51737219D02*
X120107291Y-51689600D01*
X120107291Y-51689600D02*
X120154910Y-51594361D01*
X120154910Y-51594361D02*
X120154910Y-51213409D01*
X120154910Y-51213409D02*
X120107291Y-51118171D01*
X120107291Y-51118171D02*
X120012053Y-51070552D01*
X120012053Y-51070552D02*
X119821577Y-51070552D01*
X119821577Y-51070552D02*
X119726339Y-51118171D01*
X119726339Y-51118171D02*
X119678720Y-51213409D01*
X119678720Y-51213409D02*
X119678720Y-51308647D01*
X119678720Y-51308647D02*
X120154910Y-51403885D01*
X119250148Y-51737219D02*
X119250148Y-51070552D01*
X119250148Y-51165790D02*
X119202529Y-51118171D01*
X119202529Y-51118171D02*
X119107291Y-51070552D01*
X119107291Y-51070552D02*
X118964434Y-51070552D01*
X118964434Y-51070552D02*
X118869196Y-51118171D01*
X118869196Y-51118171D02*
X118821577Y-51213409D01*
X118821577Y-51213409D02*
X118821577Y-51737219D01*
X118821577Y-51213409D02*
X118773958Y-51118171D01*
X118773958Y-51118171D02*
X118678720Y-51070552D01*
X118678720Y-51070552D02*
X118535863Y-51070552D01*
X118535863Y-51070552D02*
X118440624Y-51118171D01*
X118440624Y-51118171D02*
X118393005Y-51213409D01*
X118393005Y-51213409D02*
X118393005Y-51737219D01*
X117916815Y-51070552D02*
X117916815Y-52070552D01*
X117916815Y-51118171D02*
X117821577Y-51070552D01*
X117821577Y-51070552D02*
X117631101Y-51070552D01*
X117631101Y-51070552D02*
X117535863Y-51118171D01*
X117535863Y-51118171D02*
X117488244Y-51165790D01*
X117488244Y-51165790D02*
X117440625Y-51261028D01*
X117440625Y-51261028D02*
X117440625Y-51546742D01*
X117440625Y-51546742D02*
X117488244Y-51641980D01*
X117488244Y-51641980D02*
X117535863Y-51689600D01*
X117535863Y-51689600D02*
X117631101Y-51737219D01*
X117631101Y-51737219D02*
X117821577Y-51737219D01*
X117821577Y-51737219D02*
X117916815Y-51689600D01*
X116869196Y-51737219D02*
X116964434Y-51689600D01*
X116964434Y-51689600D02*
X117012053Y-51641980D01*
X117012053Y-51641980D02*
X117059672Y-51546742D01*
X117059672Y-51546742D02*
X117059672Y-51261028D01*
X117059672Y-51261028D02*
X117012053Y-51165790D01*
X117012053Y-51165790D02*
X116964434Y-51118171D01*
X116964434Y-51118171D02*
X116869196Y-51070552D01*
X116869196Y-51070552D02*
X116726339Y-51070552D01*
X116726339Y-51070552D02*
X116631101Y-51118171D01*
X116631101Y-51118171D02*
X116583482Y-51165790D01*
X116583482Y-51165790D02*
X116535863Y-51261028D01*
X116535863Y-51261028D02*
X116535863Y-51546742D01*
X116535863Y-51546742D02*
X116583482Y-51641980D01*
X116583482Y-51641980D02*
X116631101Y-51689600D01*
X116631101Y-51689600D02*
X116726339Y-51737219D01*
X116726339Y-51737219D02*
X116869196Y-51737219D01*
X116107291Y-51070552D02*
X116107291Y-52070552D01*
X116107291Y-51118171D02*
X116012053Y-51070552D01*
X116012053Y-51070552D02*
X115821577Y-51070552D01*
X115821577Y-51070552D02*
X115726339Y-51118171D01*
X115726339Y-51118171D02*
X115678720Y-51165790D01*
X115678720Y-51165790D02*
X115631101Y-51261028D01*
X115631101Y-51261028D02*
X115631101Y-51546742D01*
X115631101Y-51546742D02*
X115678720Y-51641980D01*
X115678720Y-51641980D02*
X115726339Y-51689600D01*
X115726339Y-51689600D02*
X115821577Y-51737219D01*
X115821577Y-51737219D02*
X116012053Y-51737219D01*
X116012053Y-51737219D02*
X116107291Y-51689600D01*
X114773958Y-51737219D02*
X114773958Y-51213409D01*
X114773958Y-51213409D02*
X114821577Y-51118171D01*
X114821577Y-51118171D02*
X114916815Y-51070552D01*
X114916815Y-51070552D02*
X115107291Y-51070552D01*
X115107291Y-51070552D02*
X115202529Y-51118171D01*
X114773958Y-51689600D02*
X114869196Y-51737219D01*
X114869196Y-51737219D02*
X115107291Y-51737219D01*
X115107291Y-51737219D02*
X115202529Y-51689600D01*
X115202529Y-51689600D02*
X115250148Y-51594361D01*
X115250148Y-51594361D02*
X115250148Y-51499123D01*
X115250148Y-51499123D02*
X115202529Y-51403885D01*
X115202529Y-51403885D02*
X115107291Y-51356266D01*
X115107291Y-51356266D02*
X114869196Y-51356266D01*
X114869196Y-51356266D02*
X114773958Y-51308647D01*
X114345386Y-51689600D02*
X114250148Y-51737219D01*
X114250148Y-51737219D02*
X114059672Y-51737219D01*
X114059672Y-51737219D02*
X113964434Y-51689600D01*
X113964434Y-51689600D02*
X113916815Y-51594361D01*
X113916815Y-51594361D02*
X113916815Y-51546742D01*
X113916815Y-51546742D02*
X113964434Y-51451504D01*
X113964434Y-51451504D02*
X114059672Y-51403885D01*
X114059672Y-51403885D02*
X114202529Y-51403885D01*
X114202529Y-51403885D02*
X114297767Y-51356266D01*
X114297767Y-51356266D02*
X114345386Y-51261028D01*
X114345386Y-51261028D02*
X114345386Y-51213409D01*
X114345386Y-51213409D02*
X114297767Y-51118171D01*
X114297767Y-51118171D02*
X114202529Y-51070552D01*
X114202529Y-51070552D02*
X114059672Y-51070552D01*
X114059672Y-51070552D02*
X113964434Y-51118171D01*
X113345386Y-51737219D02*
X113440624Y-51689600D01*
X113440624Y-51689600D02*
X113488243Y-51641980D01*
X113488243Y-51641980D02*
X113535862Y-51546742D01*
X113535862Y-51546742D02*
X113535862Y-51261028D01*
X113535862Y-51261028D02*
X113488243Y-51165790D01*
X113488243Y-51165790D02*
X113440624Y-51118171D01*
X113440624Y-51118171D02*
X113345386Y-51070552D01*
X113345386Y-51070552D02*
X113202529Y-51070552D01*
X113202529Y-51070552D02*
X113107291Y-51118171D01*
X113107291Y-51118171D02*
X113059672Y-51165790D01*
X113059672Y-51165790D02*
X113012053Y-51261028D01*
X113012053Y-51261028D02*
X113012053Y-51546742D01*
X113012053Y-51546742D02*
X113059672Y-51641980D01*
X113059672Y-51641980D02*
X113107291Y-51689600D01*
X113107291Y-51689600D02*
X113202529Y-51737219D01*
X113202529Y-51737219D02*
X113345386Y-51737219D01*
X111964434Y-51261028D02*
X112012053Y-51213409D01*
X112012053Y-51213409D02*
X112107291Y-51165790D01*
X112107291Y-51165790D02*
X112202529Y-51165790D01*
X112202529Y-51165790D02*
X112297767Y-51213409D01*
X112297767Y-51213409D02*
X112345386Y-51261028D01*
X112345386Y-51261028D02*
X112393005Y-51356266D01*
X112393005Y-51356266D02*
X112393005Y-51451504D01*
X112393005Y-51451504D02*
X112345386Y-51546742D01*
X112345386Y-51546742D02*
X112297767Y-51594361D01*
X112297767Y-51594361D02*
X112202529Y-51641980D01*
X112202529Y-51641980D02*
X112107291Y-51641980D01*
X112107291Y-51641980D02*
X112012053Y-51594361D01*
X112012053Y-51594361D02*
X111964434Y-51546742D01*
X111964434Y-51165790D02*
X111964434Y-51546742D01*
X111964434Y-51546742D02*
X111916815Y-51594361D01*
X111916815Y-51594361D02*
X111869196Y-51594361D01*
X111869196Y-51594361D02*
X111773957Y-51546742D01*
X111773957Y-51546742D02*
X111726338Y-51451504D01*
X111726338Y-51451504D02*
X111726338Y-51213409D01*
X111726338Y-51213409D02*
X111821577Y-51070552D01*
X111821577Y-51070552D02*
X111964434Y-50975314D01*
X111964434Y-50975314D02*
X112154910Y-50927695D01*
X112154910Y-50927695D02*
X112345386Y-50975314D01*
X112345386Y-50975314D02*
X112488243Y-51070552D01*
X112488243Y-51070552D02*
X112583481Y-51213409D01*
X112583481Y-51213409D02*
X112631100Y-51403885D01*
X112631100Y-51403885D02*
X112583481Y-51594361D01*
X112583481Y-51594361D02*
X112488243Y-51737219D01*
X112488243Y-51737219D02*
X112345386Y-51832457D01*
X112345386Y-51832457D02*
X112154910Y-51880076D01*
X112154910Y-51880076D02*
X111964434Y-51832457D01*
X111964434Y-51832457D02*
X111821577Y-51737219D01*
X110869196Y-51070552D02*
X110869196Y-51880076D01*
X110869196Y-51880076D02*
X110916815Y-51975314D01*
X110916815Y-51975314D02*
X110964434Y-52022933D01*
X110964434Y-52022933D02*
X111059672Y-52070552D01*
X111059672Y-52070552D02*
X111202529Y-52070552D01*
X111202529Y-52070552D02*
X111297767Y-52022933D01*
X110869196Y-51689600D02*
X110964434Y-51737219D01*
X110964434Y-51737219D02*
X111154910Y-51737219D01*
X111154910Y-51737219D02*
X111250148Y-51689600D01*
X111250148Y-51689600D02*
X111297767Y-51641980D01*
X111297767Y-51641980D02*
X111345386Y-51546742D01*
X111345386Y-51546742D02*
X111345386Y-51261028D01*
X111345386Y-51261028D02*
X111297767Y-51165790D01*
X111297767Y-51165790D02*
X111250148Y-51118171D01*
X111250148Y-51118171D02*
X111154910Y-51070552D01*
X111154910Y-51070552D02*
X110964434Y-51070552D01*
X110964434Y-51070552D02*
X110869196Y-51118171D01*
X110393005Y-51737219D02*
X110393005Y-51070552D01*
X110393005Y-51165790D02*
X110345386Y-51118171D01*
X110345386Y-51118171D02*
X110250148Y-51070552D01*
X110250148Y-51070552D02*
X110107291Y-51070552D01*
X110107291Y-51070552D02*
X110012053Y-51118171D01*
X110012053Y-51118171D02*
X109964434Y-51213409D01*
X109964434Y-51213409D02*
X109964434Y-51737219D01*
X109964434Y-51213409D02*
X109916815Y-51118171D01*
X109916815Y-51118171D02*
X109821577Y-51070552D01*
X109821577Y-51070552D02*
X109678720Y-51070552D01*
X109678720Y-51070552D02*
X109583481Y-51118171D01*
X109583481Y-51118171D02*
X109535862Y-51213409D01*
X109535862Y-51213409D02*
X109535862Y-51737219D01*
X108631101Y-51737219D02*
X108631101Y-51213409D01*
X108631101Y-51213409D02*
X108678720Y-51118171D01*
X108678720Y-51118171D02*
X108773958Y-51070552D01*
X108773958Y-51070552D02*
X108964434Y-51070552D01*
X108964434Y-51070552D02*
X109059672Y-51118171D01*
X108631101Y-51689600D02*
X108726339Y-51737219D01*
X108726339Y-51737219D02*
X108964434Y-51737219D01*
X108964434Y-51737219D02*
X109059672Y-51689600D01*
X109059672Y-51689600D02*
X109107291Y-51594361D01*
X109107291Y-51594361D02*
X109107291Y-51499123D01*
X109107291Y-51499123D02*
X109059672Y-51403885D01*
X109059672Y-51403885D02*
X108964434Y-51356266D01*
X108964434Y-51356266D02*
X108726339Y-51356266D01*
X108726339Y-51356266D02*
X108631101Y-51308647D01*
X108154910Y-51737219D02*
X108154910Y-51070552D01*
X108154910Y-50737219D02*
X108202529Y-50784838D01*
X108202529Y-50784838D02*
X108154910Y-50832457D01*
X108154910Y-50832457D02*
X108107291Y-50784838D01*
X108107291Y-50784838D02*
X108154910Y-50737219D01*
X108154910Y-50737219D02*
X108154910Y-50832457D01*
X107535863Y-51737219D02*
X107631101Y-51689600D01*
X107631101Y-51689600D02*
X107678720Y-51594361D01*
X107678720Y-51594361D02*
X107678720Y-50737219D01*
X107154910Y-51641980D02*
X107107291Y-51689600D01*
X107107291Y-51689600D02*
X107154910Y-51737219D01*
X107154910Y-51737219D02*
X107202529Y-51689600D01*
X107202529Y-51689600D02*
X107154910Y-51641980D01*
X107154910Y-51641980D02*
X107154910Y-51737219D01*
X106250149Y-51689600D02*
X106345387Y-51737219D01*
X106345387Y-51737219D02*
X106535863Y-51737219D01*
X106535863Y-51737219D02*
X106631101Y-51689600D01*
X106631101Y-51689600D02*
X106678720Y-51641980D01*
X106678720Y-51641980D02*
X106726339Y-51546742D01*
X106726339Y-51546742D02*
X106726339Y-51261028D01*
X106726339Y-51261028D02*
X106678720Y-51165790D01*
X106678720Y-51165790D02*
X106631101Y-51118171D01*
X106631101Y-51118171D02*
X106535863Y-51070552D01*
X106535863Y-51070552D02*
X106345387Y-51070552D01*
X106345387Y-51070552D02*
X106250149Y-51118171D01*
X105678720Y-51737219D02*
X105773958Y-51689600D01*
X105773958Y-51689600D02*
X105821577Y-51641980D01*
X105821577Y-51641980D02*
X105869196Y-51546742D01*
X105869196Y-51546742D02*
X105869196Y-51261028D01*
X105869196Y-51261028D02*
X105821577Y-51165790D01*
X105821577Y-51165790D02*
X105773958Y-51118171D01*
X105773958Y-51118171D02*
X105678720Y-51070552D01*
X105678720Y-51070552D02*
X105535863Y-51070552D01*
X105535863Y-51070552D02*
X105440625Y-51118171D01*
X105440625Y-51118171D02*
X105393006Y-51165790D01*
X105393006Y-51165790D02*
X105345387Y-51261028D01*
X105345387Y-51261028D02*
X105345387Y-51546742D01*
X105345387Y-51546742D02*
X105393006Y-51641980D01*
X105393006Y-51641980D02*
X105440625Y-51689600D01*
X105440625Y-51689600D02*
X105535863Y-51737219D01*
X105535863Y-51737219D02*
X105678720Y-51737219D01*
X104916815Y-51737219D02*
X104916815Y-51070552D01*
X104916815Y-51165790D02*
X104869196Y-51118171D01*
X104869196Y-51118171D02*
X104773958Y-51070552D01*
X104773958Y-51070552D02*
X104631101Y-51070552D01*
X104631101Y-51070552D02*
X104535863Y-51118171D01*
X104535863Y-51118171D02*
X104488244Y-51213409D01*
X104488244Y-51213409D02*
X104488244Y-51737219D01*
X104488244Y-51213409D02*
X104440625Y-51118171D01*
X104440625Y-51118171D02*
X104345387Y-51070552D01*
X104345387Y-51070552D02*
X104202530Y-51070552D01*
X104202530Y-51070552D02*
X104107291Y-51118171D01*
X104107291Y-51118171D02*
X104059672Y-51213409D01*
X104059672Y-51213409D02*
X104059672Y-51737219D01*
D10*
X147142857Y-73954819D02*
X147476190Y-73478628D01*
X147714285Y-73954819D02*
X147714285Y-72954819D01*
X147714285Y-72954819D02*
X147333333Y-72954819D01*
X147333333Y-72954819D02*
X147238095Y-73002438D01*
X147238095Y-73002438D02*
X147190476Y-73050057D01*
X147190476Y-73050057D02*
X147142857Y-73145295D01*
X147142857Y-73145295D02*
X147142857Y-73288152D01*
X147142857Y-73288152D02*
X147190476Y-73383390D01*
X147190476Y-73383390D02*
X147238095Y-73431009D01*
X147238095Y-73431009D02*
X147333333Y-73478628D01*
X147333333Y-73478628D02*
X147714285Y-73478628D01*
X146190476Y-73954819D02*
X146761904Y-73954819D01*
X146476190Y-73954819D02*
X146476190Y-72954819D01*
X146476190Y-72954819D02*
X146571428Y-73097676D01*
X146571428Y-73097676D02*
X146666666Y-73192914D01*
X146666666Y-73192914D02*
X146761904Y-73240533D01*
X145285714Y-72954819D02*
X145761904Y-72954819D01*
X145761904Y-72954819D02*
X145809523Y-73431009D01*
X145809523Y-73431009D02*
X145761904Y-73383390D01*
X145761904Y-73383390D02*
X145666666Y-73335771D01*
X145666666Y-73335771D02*
X145428571Y-73335771D01*
X145428571Y-73335771D02*
X145333333Y-73383390D01*
X145333333Y-73383390D02*
X145285714Y-73431009D01*
X145285714Y-73431009D02*
X145238095Y-73526247D01*
X145238095Y-73526247D02*
X145238095Y-73764342D01*
X145238095Y-73764342D02*
X145285714Y-73859580D01*
X145285714Y-73859580D02*
X145333333Y-73907200D01*
X145333333Y-73907200D02*
X145428571Y-73954819D01*
X145428571Y-73954819D02*
X145666666Y-73954819D01*
X145666666Y-73954819D02*
X145761904Y-73907200D01*
X145761904Y-73907200D02*
X145809523Y-73859580D01*
X138948564Y-60791721D02*
X138948564Y-60315459D01*
X138948564Y-60315459D02*
X137948414Y-60315459D01*
X138900938Y-61077478D02*
X138948564Y-61220357D01*
X138948564Y-61220357D02*
X138948564Y-61458488D01*
X138948564Y-61458488D02*
X138900938Y-61553740D01*
X138900938Y-61553740D02*
X138853311Y-61601366D01*
X138853311Y-61601366D02*
X138758059Y-61648993D01*
X138758059Y-61648993D02*
X138662807Y-61648993D01*
X138662807Y-61648993D02*
X138567554Y-61601366D01*
X138567554Y-61601366D02*
X138519928Y-61553740D01*
X138519928Y-61553740D02*
X138472302Y-61458488D01*
X138472302Y-61458488D02*
X138424676Y-61267983D01*
X138424676Y-61267983D02*
X138377049Y-61172731D01*
X138377049Y-61172731D02*
X138329423Y-61125104D01*
X138329423Y-61125104D02*
X138234171Y-61077478D01*
X138234171Y-61077478D02*
X138138918Y-61077478D01*
X138138918Y-61077478D02*
X138043666Y-61125104D01*
X138043666Y-61125104D02*
X137996040Y-61172731D01*
X137996040Y-61172731D02*
X137948414Y-61267983D01*
X137948414Y-61267983D02*
X137948414Y-61506114D01*
X137948414Y-61506114D02*
X137996040Y-61648993D01*
X138948564Y-62601517D02*
X138948564Y-62030002D01*
X138948564Y-62315759D02*
X137948414Y-62315759D01*
X137948414Y-62315759D02*
X138091292Y-62220507D01*
X138091292Y-62220507D02*
X138186545Y-62125255D01*
X138186545Y-62125255D02*
X138234171Y-62030002D01*
X160550057Y-62654761D02*
X160502438Y-62559523D01*
X160502438Y-62559523D02*
X160407200Y-62464285D01*
X160407200Y-62464285D02*
X160264342Y-62321428D01*
X160264342Y-62321428D02*
X160216723Y-62226190D01*
X160216723Y-62226190D02*
X160216723Y-62130952D01*
X160454819Y-62178571D02*
X160407200Y-62083333D01*
X160407200Y-62083333D02*
X160311961Y-61988095D01*
X160311961Y-61988095D02*
X160121485Y-61940476D01*
X160121485Y-61940476D02*
X159788152Y-61940476D01*
X159788152Y-61940476D02*
X159597676Y-61988095D01*
X159597676Y-61988095D02*
X159502438Y-62083333D01*
X159502438Y-62083333D02*
X159454819Y-62178571D01*
X159454819Y-62178571D02*
X159454819Y-62369047D01*
X159454819Y-62369047D02*
X159502438Y-62464285D01*
X159502438Y-62464285D02*
X159597676Y-62559523D01*
X159597676Y-62559523D02*
X159788152Y-62607142D01*
X159788152Y-62607142D02*
X160121485Y-62607142D01*
X160121485Y-62607142D02*
X160311961Y-62559523D01*
X160311961Y-62559523D02*
X160407200Y-62464285D01*
X160407200Y-62464285D02*
X160454819Y-62369047D01*
X160454819Y-62369047D02*
X160454819Y-62178571D01*
X159550057Y-62988095D02*
X159502438Y-63035714D01*
X159502438Y-63035714D02*
X159454819Y-63130952D01*
X159454819Y-63130952D02*
X159454819Y-63369047D01*
X159454819Y-63369047D02*
X159502438Y-63464285D01*
X159502438Y-63464285D02*
X159550057Y-63511904D01*
X159550057Y-63511904D02*
X159645295Y-63559523D01*
X159645295Y-63559523D02*
X159740533Y-63559523D01*
X159740533Y-63559523D02*
X159883390Y-63511904D01*
X159883390Y-63511904D02*
X160454819Y-62940476D01*
X160454819Y-62940476D02*
X160454819Y-63559523D01*
X160416666Y-66704819D02*
X160749999Y-66228628D01*
X160988094Y-66704819D02*
X160988094Y-65704819D01*
X160988094Y-65704819D02*
X160607142Y-65704819D01*
X160607142Y-65704819D02*
X160511904Y-65752438D01*
X160511904Y-65752438D02*
X160464285Y-65800057D01*
X160464285Y-65800057D02*
X160416666Y-65895295D01*
X160416666Y-65895295D02*
X160416666Y-66038152D01*
X160416666Y-66038152D02*
X160464285Y-66133390D01*
X160464285Y-66133390D02*
X160511904Y-66181009D01*
X160511904Y-66181009D02*
X160607142Y-66228628D01*
X160607142Y-66228628D02*
X160988094Y-66228628D01*
X160083332Y-65704819D02*
X159416666Y-65704819D01*
X159416666Y-65704819D02*
X159845237Y-66704819D01*
X116204819Y-75107142D02*
X115728628Y-74773809D01*
X116204819Y-74535714D02*
X115204819Y-74535714D01*
X115204819Y-74535714D02*
X115204819Y-74916666D01*
X115204819Y-74916666D02*
X115252438Y-75011904D01*
X115252438Y-75011904D02*
X115300057Y-75059523D01*
X115300057Y-75059523D02*
X115395295Y-75107142D01*
X115395295Y-75107142D02*
X115538152Y-75107142D01*
X115538152Y-75107142D02*
X115633390Y-75059523D01*
X115633390Y-75059523D02*
X115681009Y-75011904D01*
X115681009Y-75011904D02*
X115728628Y-74916666D01*
X115728628Y-74916666D02*
X115728628Y-74535714D01*
X116204819Y-76059523D02*
X116204819Y-75488095D01*
X116204819Y-75773809D02*
X115204819Y-75773809D01*
X115204819Y-75773809D02*
X115347676Y-75678571D01*
X115347676Y-75678571D02*
X115442914Y-75583333D01*
X115442914Y-75583333D02*
X115490533Y-75488095D01*
X115204819Y-76392857D02*
X115204819Y-77011904D01*
X115204819Y-77011904D02*
X115585771Y-76678571D01*
X115585771Y-76678571D02*
X115585771Y-76821428D01*
X115585771Y-76821428D02*
X115633390Y-76916666D01*
X115633390Y-76916666D02*
X115681009Y-76964285D01*
X115681009Y-76964285D02*
X115776247Y-77011904D01*
X115776247Y-77011904D02*
X116014342Y-77011904D01*
X116014342Y-77011904D02*
X116109580Y-76964285D01*
X116109580Y-76964285D02*
X116157200Y-76916666D01*
X116157200Y-76916666D02*
X116204819Y-76821428D01*
X116204819Y-76821428D02*
X116204819Y-76535714D01*
X116204819Y-76535714D02*
X116157200Y-76440476D01*
X116157200Y-76440476D02*
X116109580Y-76392857D01*
X130992857Y-73554819D02*
X131326190Y-73078628D01*
X131564285Y-73554819D02*
X131564285Y-72554819D01*
X131564285Y-72554819D02*
X131183333Y-72554819D01*
X131183333Y-72554819D02*
X131088095Y-72602438D01*
X131088095Y-72602438D02*
X131040476Y-72650057D01*
X131040476Y-72650057D02*
X130992857Y-72745295D01*
X130992857Y-72745295D02*
X130992857Y-72888152D01*
X130992857Y-72888152D02*
X131040476Y-72983390D01*
X131040476Y-72983390D02*
X131088095Y-73031009D01*
X131088095Y-73031009D02*
X131183333Y-73078628D01*
X131183333Y-73078628D02*
X131564285Y-73078628D01*
X130040476Y-73554819D02*
X130611904Y-73554819D01*
X130326190Y-73554819D02*
X130326190Y-72554819D01*
X130326190Y-72554819D02*
X130421428Y-72697676D01*
X130421428Y-72697676D02*
X130516666Y-72792914D01*
X130516666Y-72792914D02*
X130611904Y-72840533D01*
X129088095Y-73554819D02*
X129659523Y-73554819D01*
X129373809Y-73554819D02*
X129373809Y-72554819D01*
X129373809Y-72554819D02*
X129469047Y-72697676D01*
X129469047Y-72697676D02*
X129564285Y-72792914D01*
X129564285Y-72792914D02*
X129659523Y-72840533D01*
X124948332Y-73107200D02*
X124805475Y-73154819D01*
X124805475Y-73154819D02*
X124567380Y-73154819D01*
X124567380Y-73154819D02*
X124472142Y-73107200D01*
X124472142Y-73107200D02*
X124424523Y-73059580D01*
X124424523Y-73059580D02*
X124376904Y-72964342D01*
X124376904Y-72964342D02*
X124376904Y-72869104D01*
X124376904Y-72869104D02*
X124424523Y-72773866D01*
X124424523Y-72773866D02*
X124472142Y-72726247D01*
X124472142Y-72726247D02*
X124567380Y-72678628D01*
X124567380Y-72678628D02*
X124757856Y-72631009D01*
X124757856Y-72631009D02*
X124853094Y-72583390D01*
X124853094Y-72583390D02*
X124900713Y-72535771D01*
X124900713Y-72535771D02*
X124948332Y-72440533D01*
X124948332Y-72440533D02*
X124948332Y-72345295D01*
X124948332Y-72345295D02*
X124900713Y-72250057D01*
X124900713Y-72250057D02*
X124853094Y-72202438D01*
X124853094Y-72202438D02*
X124757856Y-72154819D01*
X124757856Y-72154819D02*
X124519761Y-72154819D01*
X124519761Y-72154819D02*
X124376904Y-72202438D01*
X124043570Y-72154819D02*
X123805475Y-73154819D01*
X123805475Y-73154819D02*
X123614999Y-72440533D01*
X123614999Y-72440533D02*
X123424523Y-73154819D01*
X123424523Y-73154819D02*
X123186428Y-72154819D01*
X122281666Y-73154819D02*
X122853094Y-73154819D01*
X122567380Y-73154819D02*
X122567380Y-72154819D01*
X122567380Y-72154819D02*
X122662618Y-72297676D01*
X122662618Y-72297676D02*
X122757856Y-72392914D01*
X122757856Y-72392914D02*
X122853094Y-72440533D01*
X152629523Y-94414819D02*
X152629523Y-95129104D01*
X152629523Y-95129104D02*
X152677142Y-95271961D01*
X152677142Y-95271961D02*
X152772380Y-95367200D01*
X152772380Y-95367200D02*
X152915237Y-95414819D01*
X152915237Y-95414819D02*
X153010475Y-95414819D01*
X151629523Y-95414819D02*
X152200951Y-95414819D01*
X151915237Y-95414819D02*
X151915237Y-94414819D01*
X151915237Y-94414819D02*
X152010475Y-94557676D01*
X152010475Y-94557676D02*
X152105713Y-94652914D01*
X152105713Y-94652914D02*
X152200951Y-94700533D01*
X150677142Y-95414819D02*
X151248570Y-95414819D01*
X150962856Y-95414819D02*
X150962856Y-94414819D01*
X150962856Y-94414819D02*
X151058094Y-94557676D01*
X151058094Y-94557676D02*
X151153332Y-94652914D01*
X151153332Y-94652914D02*
X151248570Y-94700533D01*
D12*
%TO.C,R15*%
X146727064Y-71015000D02*
X146272936Y-71015000D01*
X146727064Y-72485000D02*
X146272936Y-72485000D01*
D13*
%TO.C,LS1*%
X153300000Y-57600000D02*
X141300000Y-57600000D01*
X141300000Y-60100000D02*
X141300000Y-57600000D01*
X153300000Y-60100000D02*
X153300000Y-57600000D01*
X141300000Y-69600000D02*
X141300000Y-67100000D01*
X141300000Y-69600000D02*
X153300000Y-69600000D01*
X153300000Y-69600000D02*
X153300000Y-67100000D01*
D12*
%TO.C,Q2*%
X158810000Y-62937500D02*
X158810000Y-63587500D01*
X158810000Y-62937500D02*
X158810000Y-62287500D01*
X155690000Y-62937500D02*
X155690000Y-63587500D01*
X155690000Y-62937500D02*
X155690000Y-62287500D01*
X159090000Y-64340000D02*
X158760000Y-64100000D01*
X159090000Y-63860000D01*
X159090000Y-64340000D01*
G36*
X159090000Y-64340000D02*
G01*
X158760000Y-64100000D01*
X159090000Y-63860000D01*
X159090000Y-64340000D01*
G37*
%TO.C,R7*%
X157022936Y-66985000D02*
X157477064Y-66985000D01*
X157022936Y-65515000D02*
X157477064Y-65515000D01*
%TO.C,R13*%
X116865000Y-75777064D02*
X116865000Y-75322936D01*
X118335000Y-75777064D02*
X118335000Y-75322936D01*
%TO.C,R11*%
X130577064Y-73865000D02*
X130122936Y-73865000D01*
X130577064Y-75335000D02*
X130122936Y-75335000D01*
%TO.C,SW1*%
X120900000Y-77600000D02*
X120900000Y-75600000D01*
X121950000Y-74300000D02*
X122400000Y-73850000D01*
X121950000Y-78900000D02*
X122400000Y-79350000D01*
X122400000Y-73850000D02*
X124900000Y-73850000D01*
X122400000Y-79350000D02*
X124900000Y-79350000D01*
X125350000Y-74300000D02*
X124900000Y-73850000D01*
X125350000Y-78900000D02*
X124900000Y-79350000D01*
X126400000Y-77600000D02*
X126400000Y-75600000D01*
%TO.C,J11*%
X141690000Y-97900000D02*
X141690000Y-99230000D01*
X141690000Y-99230000D02*
X143020000Y-99230000D01*
X144290000Y-96570000D02*
X144290000Y-99230000D01*
X144290000Y-96570000D02*
X177370000Y-96570000D01*
X144290000Y-99230000D02*
X177370000Y-99230000D01*
X177370000Y-96570000D02*
X177370000Y-99230000D01*
%TD*%
M02*
