%TF.GenerationSoftware,KiCad,Pcbnew,9.0.0*%
%TF.CreationDate,2025-04-01T22:00:14+02:00*%
%TF.ProjectId,BRAIN,42524149-4e2e-46b6-9963-61645f706362,rev?*%
%TF.SameCoordinates,Original*%
%TF.FileFunction,Paste,Top*%
%TF.FilePolarity,Positive*%
%FSLAX46Y46*%
G04 Gerber Fmt 4.6, Leading zero omitted, Abs format (unit mm)*
G04 Created by KiCad (PCBNEW 9.0.0) date 2025-04-01 22:00:14*
%MOMM*%
%LPD*%
G01*
G04 APERTURE LIST*
G04 Aperture macros list*
%AMRoundRect*
0 Rectangle with rounded corners*
0 $1 Rounding radius*
0 $2 $3 $4 $5 $6 $7 $8 $9 X,Y pos of 4 corners*
0 Add a 4 corners polygon primitive as box body*
4,1,4,$2,$3,$4,$5,$6,$7,$8,$9,$2,$3,0*
0 Add four circle primitives for the rounded corners*
1,1,$1+$1,$2,$3*
1,1,$1+$1,$4,$5*
1,1,$1+$1,$6,$7*
1,1,$1+$1,$8,$9*
0 Add four rect primitives between the rounded corners*
20,1,$1+$1,$2,$3,$4,$5,0*
20,1,$1+$1,$4,$5,$6,$7,0*
20,1,$1+$1,$6,$7,$8,$9,0*
20,1,$1+$1,$8,$9,$2,$3,0*%
G04 Aperture macros list end*
%ADD10C,0.010000*%
%ADD11RoundRect,0.150000X-0.150000X-0.425000X0.150000X-0.425000X0.150000X0.425000X-0.150000X0.425000X0*%
%ADD12RoundRect,0.075000X-0.075000X-0.500000X0.075000X-0.500000X0.075000X0.500000X-0.075000X0.500000X0*%
%ADD13O,1.000000X2.100000*%
%ADD14O,1.000000X1.800000*%
%ADD15R,0.800000X0.400000*%
%ADD16R,0.400000X0.800000*%
%ADD17R,1.200000X1.200000*%
%ADD18R,0.800000X0.800000*%
%ADD19RoundRect,0.250000X-0.475000X0.337500X-0.475000X-0.337500X0.475000X-0.337500X0.475000X0.337500X0*%
%ADD20RoundRect,0.250000X0.450000X-0.350000X0.450000X0.350000X-0.450000X0.350000X-0.450000X-0.350000X0*%
%ADD21RoundRect,0.150000X-0.150000X0.825000X-0.150000X-0.825000X0.150000X-0.825000X0.150000X0.825000X0*%
%ADD22RoundRect,0.250000X-0.337500X-0.475000X0.337500X-0.475000X0.337500X0.475000X-0.337500X0.475000X0*%
%ADD23R,1.750000X1.800000*%
%ADD24RoundRect,0.150000X-0.512500X-0.150000X0.512500X-0.150000X0.512500X0.150000X-0.512500X0.150000X0*%
%ADD25RoundRect,0.250000X-0.325000X-0.450000X0.325000X-0.450000X0.325000X0.450000X-0.325000X0.450000X0*%
%ADD26RoundRect,0.250000X-0.450000X0.325000X-0.450000X-0.325000X0.450000X-0.325000X0.450000X0.325000X0*%
%ADD27RoundRect,0.250000X0.350000X0.450000X-0.350000X0.450000X-0.350000X-0.450000X0.350000X-0.450000X0*%
%ADD28RoundRect,0.250000X0.475000X-0.337500X0.475000X0.337500X-0.475000X0.337500X-0.475000X-0.337500X0*%
%ADD29RoundRect,0.250000X1.000000X0.650000X-1.000000X0.650000X-1.000000X-0.650000X1.000000X-0.650000X0*%
%ADD30RoundRect,0.250000X-0.650000X1.000000X-0.650000X-1.000000X0.650000X-1.000000X0.650000X1.000000X0*%
%ADD31R,1.700000X1.000000*%
%ADD32RoundRect,0.200000X-0.200000X0.250000X-0.200000X-0.250000X0.200000X-0.250000X0.200000X0.250000X0*%
%ADD33RoundRect,0.250000X-0.350000X-0.450000X0.350000X-0.450000X0.350000X0.450000X-0.350000X0.450000X0*%
%ADD34RoundRect,0.127500X0.222500X0.127500X-0.222500X0.127500X-0.222500X-0.127500X0.222500X-0.127500X0*%
%ADD35RoundRect,0.250000X0.337500X0.475000X-0.337500X0.475000X-0.337500X-0.475000X0.337500X-0.475000X0*%
%ADD36R,0.740000X2.650000*%
%ADD37RoundRect,0.075000X-0.075000X0.662500X-0.075000X-0.662500X0.075000X-0.662500X0.075000X0.662500X0*%
%ADD38RoundRect,0.075000X-0.662500X0.075000X-0.662500X-0.075000X0.662500X-0.075000X0.662500X0.075000X0*%
%ADD39R,1.000000X1.700000*%
G04 APERTURE END LIST*
D10*
%TO.C,U7*%
X120000000Y-56650000D02*
X118800000Y-56650000D01*
X118800000Y-56050000D01*
X119400000Y-55450000D01*
X120000000Y-55450000D01*
X120000000Y-56650000D01*
G36*
X120000000Y-56650000D02*
G01*
X118800000Y-56650000D01*
X118800000Y-56050000D01*
X119400000Y-55450000D01*
X120000000Y-55450000D01*
X120000000Y-56650000D01*
G37*
%TD*%
D11*
%TO.C,J1*%
X104610000Y-92515000D03*
X105420000Y-92545000D03*
D12*
X106570000Y-92645000D03*
X107570000Y-92645000D03*
X108070000Y-92645000D03*
X109070000Y-92645000D03*
D11*
X110220000Y-92565000D03*
X111020000Y-92545000D03*
X111020000Y-92545000D03*
X110220000Y-92565000D03*
D12*
X109570000Y-92645000D03*
X108570000Y-92645000D03*
X107070000Y-92645000D03*
X106070000Y-92645000D03*
D11*
X105420000Y-92545000D03*
X104610000Y-92515000D03*
D13*
X103500000Y-93220000D03*
D14*
X103500000Y-97400000D03*
D13*
X112140000Y-93220000D03*
D14*
X112140000Y-97400000D03*
%TD*%
D15*
%TO.C,U7*%
X114050000Y-51750000D03*
X114050000Y-52600000D03*
X114050000Y-53450000D03*
X114050000Y-54300000D03*
X114050000Y-55150000D03*
X114050000Y-56000000D03*
X114050000Y-56850000D03*
X114050000Y-57700000D03*
X114050000Y-58550000D03*
X114050000Y-59400000D03*
X114050000Y-60250000D03*
X114050000Y-61100000D03*
X114050000Y-61950000D03*
X114050000Y-62800000D03*
X114050000Y-63650000D03*
D16*
X115100000Y-64700000D03*
X115950000Y-64700000D03*
X116800000Y-64700000D03*
X117650000Y-64700000D03*
X118500000Y-64700000D03*
X119350000Y-64700000D03*
X120200000Y-64700000D03*
X121050000Y-64700000D03*
X121900000Y-64700000D03*
X122750000Y-64700000D03*
X123600000Y-64700000D03*
X124450000Y-64700000D03*
X125300000Y-64700000D03*
X126150000Y-64700000D03*
X127000000Y-64700000D03*
D15*
X128050000Y-63650000D03*
X128050000Y-62800000D03*
X128050000Y-61950000D03*
X128050000Y-61100000D03*
X128050000Y-60250000D03*
X128050000Y-59400000D03*
X128050000Y-58550000D03*
X128050000Y-57700000D03*
X128050000Y-56850000D03*
X128050000Y-56000000D03*
X128050000Y-55150000D03*
X128050000Y-54300000D03*
X128050000Y-53450000D03*
X128050000Y-52600000D03*
X128050000Y-51750000D03*
D16*
X127000000Y-50700000D03*
X126150000Y-50700000D03*
X125300000Y-50700000D03*
X124450000Y-50700000D03*
X123600000Y-50700000D03*
X122750000Y-50700000D03*
X121900000Y-50700000D03*
X121050000Y-50700000D03*
X120200000Y-50700000D03*
X119350000Y-50700000D03*
X118500000Y-50700000D03*
X117650000Y-50700000D03*
X116800000Y-50700000D03*
X115950000Y-50700000D03*
X115100000Y-50700000D03*
D17*
X121050000Y-57700000D03*
X121050000Y-56050000D03*
X122700000Y-56050000D03*
X122700000Y-57700000D03*
X122700000Y-59350000D03*
X121050000Y-59350000D03*
X119400000Y-59350000D03*
X119400000Y-57700000D03*
D18*
X114050000Y-50700000D03*
X114050000Y-64700000D03*
X128050000Y-64700000D03*
X128050000Y-50700000D03*
%TD*%
D19*
%TO.C,C10*%
X161412500Y-79800000D03*
X161412500Y-81875000D03*
%TD*%
%TO.C,C16*%
X135050000Y-90400000D03*
X135050000Y-92475000D03*
%TD*%
D20*
%TO.C,R10*%
X137875000Y-90112500D03*
X137875000Y-88112500D03*
%TD*%
D21*
%TO.C,U4*%
X171750000Y-62950000D03*
X170480000Y-62950000D03*
X169210000Y-62950000D03*
X167940000Y-62950000D03*
X167940000Y-67900000D03*
X169210000Y-67900000D03*
X170480000Y-67900000D03*
X171750000Y-67900000D03*
%TD*%
D22*
%TO.C,C8*%
X159850000Y-70650000D03*
X161925000Y-70650000D03*
%TD*%
D23*
%TO.C,Y1*%
X161925000Y-67200000D03*
X158675000Y-67200000D03*
%TD*%
D24*
%TO.C,U1*%
X130775000Y-90712500D03*
X130775000Y-91662500D03*
X130775000Y-92612500D03*
X133050000Y-92612500D03*
X133050000Y-90712500D03*
%TD*%
D22*
%TO.C,C2*%
X158637500Y-64700000D03*
X160712500Y-64700000D03*
%TD*%
D25*
%TO.C,D2*%
X142825000Y-90400000D03*
X144875000Y-90400000D03*
%TD*%
D26*
%TO.C,D4*%
X144900000Y-63250000D03*
X144900000Y-65300000D03*
%TD*%
D19*
%TO.C,C9*%
X159200000Y-79800000D03*
X159200000Y-81875000D03*
%TD*%
D22*
%TO.C,C1*%
X168212500Y-74500000D03*
X170287500Y-74500000D03*
%TD*%
D27*
%TO.C,R14*%
X170650000Y-85750000D03*
X168650000Y-85750000D03*
%TD*%
D28*
%TO.C,C4*%
X109012500Y-54450000D03*
X109012500Y-52375000D03*
%TD*%
D20*
%TO.C,R4*%
X147400000Y-61250000D03*
X147400000Y-59250000D03*
%TD*%
D26*
%TO.C,D6*%
X149900000Y-63250000D03*
X149900000Y-65300000D03*
%TD*%
D29*
%TO.C,D8*%
X121000000Y-88850000D03*
X117000000Y-88850000D03*
%TD*%
D30*
%TO.C,D9*%
X124950000Y-88750000D03*
X124950000Y-92750000D03*
%TD*%
D31*
%TO.C,SW2*%
X139400000Y-55800000D03*
X133100000Y-55800000D03*
X139400000Y-52000000D03*
X133100000Y-52000000D03*
%TD*%
D32*
%TO.C,D7*%
X118950000Y-91750000D03*
X117050000Y-91750000D03*
X118000000Y-93750000D03*
%TD*%
D33*
%TO.C,R6*%
X142750000Y-86000000D03*
X144750000Y-86000000D03*
%TD*%
%TO.C,R2*%
X142850000Y-92550000D03*
X144850000Y-92550000D03*
%TD*%
D19*
%TO.C,C14*%
X130650000Y-51912500D03*
X130650000Y-53987500D03*
%TD*%
D20*
%TO.C,R12*%
X149900000Y-61250000D03*
X149900000Y-59250000D03*
%TD*%
D28*
%TO.C,C5*%
X111262500Y-54437500D03*
X111262500Y-52362500D03*
%TD*%
D25*
%TO.C,D1*%
X142800000Y-88150000D03*
X144850000Y-88150000D03*
%TD*%
D34*
%TO.C,D3*%
X112800000Y-84050000D03*
X112800000Y-83100000D03*
X112800000Y-82150000D03*
X110480000Y-82150000D03*
X110480000Y-83100000D03*
X110480000Y-84050000D03*
%TD*%
D20*
%TO.C,R3*%
X144900000Y-61250000D03*
X144900000Y-59250000D03*
%TD*%
D19*
%TO.C,C15*%
X128550000Y-90400000D03*
X128550000Y-92475000D03*
%TD*%
D26*
%TO.C,D5*%
X147400000Y-63250000D03*
X147400000Y-65300000D03*
%TD*%
D35*
%TO.C,C13*%
X111450000Y-56750000D03*
X109375000Y-56750000D03*
%TD*%
D20*
%TO.C,R5*%
X144050000Y-53700000D03*
X144050000Y-51700000D03*
%TD*%
D33*
%TO.C,R9*%
X111400000Y-90350000D03*
X113400000Y-90350000D03*
%TD*%
D28*
%TO.C,C3*%
X164300000Y-67737500D03*
X164300000Y-65662500D03*
%TD*%
D35*
%TO.C,C6*%
X149650000Y-81262500D03*
X147575000Y-81262500D03*
%TD*%
%TO.C,C7*%
X149650000Y-79250000D03*
X147575000Y-79250000D03*
%TD*%
D36*
%TO.C,J4*%
X178760000Y-80400000D03*
X178760000Y-84550000D03*
X177490000Y-80400000D03*
X177490000Y-84550000D03*
X176220000Y-80400000D03*
X176220000Y-84550000D03*
X174950000Y-80400000D03*
X174950000Y-84550000D03*
X173680000Y-80400000D03*
X173680000Y-84550000D03*
%TD*%
%TO.C,J2*%
X136865000Y-67215000D03*
X136865000Y-71365000D03*
X135595000Y-67215000D03*
X135595000Y-71365000D03*
X134325000Y-67215000D03*
X134325000Y-71365000D03*
X133055000Y-67215000D03*
X133055000Y-71365000D03*
X131785000Y-67215000D03*
X131785000Y-71365000D03*
%TD*%
D20*
%TO.C,R8*%
X105500000Y-89800000D03*
X105500000Y-87800000D03*
%TD*%
D37*
%TO.C,U2*%
X157650000Y-70787500D03*
X157150000Y-70787500D03*
X156650000Y-70787500D03*
X156150000Y-70787500D03*
X155650000Y-70787500D03*
X155150000Y-70787500D03*
X154650000Y-70787500D03*
X154150000Y-70787500D03*
X153650000Y-70787500D03*
X153150000Y-70787500D03*
X152650000Y-70787500D03*
X152150000Y-70787500D03*
D38*
X150737500Y-72200000D03*
X150737500Y-72700000D03*
X150737500Y-73200000D03*
X150737500Y-73700000D03*
X150737500Y-74200000D03*
X150737500Y-74700000D03*
X150737500Y-75200000D03*
X150737500Y-75700000D03*
X150737500Y-76200000D03*
X150737500Y-76700000D03*
X150737500Y-77200000D03*
X150737500Y-77700000D03*
D37*
X152150000Y-79112500D03*
X152650000Y-79112500D03*
X153150000Y-79112500D03*
X153650000Y-79112500D03*
X154150000Y-79112500D03*
X154650000Y-79112500D03*
X155150000Y-79112500D03*
X155650000Y-79112500D03*
X156150000Y-79112500D03*
X156650000Y-79112500D03*
X157150000Y-79112500D03*
X157650000Y-79112500D03*
D38*
X159062500Y-77700000D03*
X159062500Y-77200000D03*
X159062500Y-76700000D03*
X159062500Y-76200000D03*
X159062500Y-75700000D03*
X159062500Y-75200000D03*
X159062500Y-74700000D03*
X159062500Y-74200000D03*
X159062500Y-73700000D03*
X159062500Y-73200000D03*
X159062500Y-72700000D03*
X159062500Y-72200000D03*
%TD*%
D24*
%TO.C,U3*%
X130850000Y-85950000D03*
X130850000Y-86900000D03*
X130850000Y-87850000D03*
X133125000Y-87850000D03*
X133125000Y-85950000D03*
%TD*%
D20*
%TO.C,R1*%
X141800000Y-53750000D03*
X141800000Y-51750000D03*
%TD*%
D28*
%TO.C,C12*%
X128575000Y-87987500D03*
X128575000Y-85912500D03*
%TD*%
%TO.C,C11*%
X135075000Y-87987500D03*
X135075000Y-85912500D03*
%TD*%
D39*
%TO.C,SW3*%
X166200000Y-83250000D03*
X166200000Y-76950000D03*
X170000000Y-83250000D03*
X170000000Y-76950000D03*
%TD*%
M02*
