%TF.GenerationSoftware,KiCad,Pcbnew,9.0.0*%
%TF.CreationDate,2025-04-01T22:00:14+02:00*%
%TF.ProjectId,BRAIN,42524149-4e2e-46b6-9963-61645f706362,rev?*%
%TF.SameCoordinates,Original*%
%TF.FileFunction,Copper,L1,Top*%
%TF.FilePolarity,Positive*%
%FSLAX46Y46*%
G04 Gerber Fmt 4.6, Leading zero omitted, Abs format (unit mm)*
G04 Created by KiCad (PCBNEW 9.0.0) date 2025-04-01 22:00:14*
%MOMM*%
%LPD*%
G01*
G04 APERTURE LIST*
G04 Aperture macros list*
%AMRoundRect*
0 Rectangle with rounded corners*
0 $1 Rounding radius*
0 $2 $3 $4 $5 $6 $7 $8 $9 X,Y pos of 4 corners*
0 Add a 4 corners polygon primitive as box body*
4,1,4,$2,$3,$4,$5,$6,$7,$8,$9,$2,$3,0*
0 Add four circle primitives for the rounded corners*
1,1,$1+$1,$2,$3*
1,1,$1+$1,$4,$5*
1,1,$1+$1,$6,$7*
1,1,$1+$1,$8,$9*
0 Add four rect primitives between the rounded corners*
20,1,$1+$1,$2,$3,$4,$5,0*
20,1,$1+$1,$4,$5,$6,$7,0*
20,1,$1+$1,$6,$7,$8,$9,0*
20,1,$1+$1,$8,$9,$2,$3,0*%
%AMFreePoly0*
4,1,14,0.603536,0.603536,0.605000,0.600000,0.605000,-0.600000,0.603536,-0.603536,0.600000,-0.605000,-0.600000,-0.605000,-0.603536,-0.603536,-0.605000,-0.600000,-0.605000,0.000000,-0.603536,0.003536,-0.003536,0.603536,0.000000,0.605000,0.600000,0.605000,0.603536,0.603536,0.603536,0.603536,$1*%
G04 Aperture macros list end*
%TA.AperFunction,SMDPad,CuDef*%
%ADD10RoundRect,0.150000X-0.150000X-0.425000X0.150000X-0.425000X0.150000X0.425000X-0.150000X0.425000X0*%
%TD*%
%TA.AperFunction,SMDPad,CuDef*%
%ADD11RoundRect,0.075000X-0.075000X-0.500000X0.075000X-0.500000X0.075000X0.500000X-0.075000X0.500000X0*%
%TD*%
%TA.AperFunction,HeatsinkPad*%
%ADD12O,1.000000X2.100000*%
%TD*%
%TA.AperFunction,HeatsinkPad*%
%ADD13O,1.000000X1.800000*%
%TD*%
%TA.AperFunction,SMDPad,CuDef*%
%ADD14R,0.800000X0.400000*%
%TD*%
%TA.AperFunction,SMDPad,CuDef*%
%ADD15R,0.400000X0.800000*%
%TD*%
%TA.AperFunction,SMDPad,CuDef*%
%ADD16R,1.200000X1.200000*%
%TD*%
%TA.AperFunction,SMDPad,CuDef*%
%ADD17FreePoly0,0.000000*%
%TD*%
%TA.AperFunction,SMDPad,CuDef*%
%ADD18R,0.800000X0.800000*%
%TD*%
%TA.AperFunction,SMDPad,CuDef*%
%ADD19RoundRect,0.250000X-0.475000X0.337500X-0.475000X-0.337500X0.475000X-0.337500X0.475000X0.337500X0*%
%TD*%
%TA.AperFunction,SMDPad,CuDef*%
%ADD20RoundRect,0.250000X0.450000X-0.350000X0.450000X0.350000X-0.450000X0.350000X-0.450000X-0.350000X0*%
%TD*%
%TA.AperFunction,SMDPad,CuDef*%
%ADD21RoundRect,0.150000X-0.150000X0.825000X-0.150000X-0.825000X0.150000X-0.825000X0.150000X0.825000X0*%
%TD*%
%TA.AperFunction,SMDPad,CuDef*%
%ADD22RoundRect,0.250000X-0.337500X-0.475000X0.337500X-0.475000X0.337500X0.475000X-0.337500X0.475000X0*%
%TD*%
%TA.AperFunction,SMDPad,CuDef*%
%ADD23R,1.750000X1.800000*%
%TD*%
%TA.AperFunction,ComponentPad*%
%ADD24R,1.700000X1.700000*%
%TD*%
%TA.AperFunction,ComponentPad*%
%ADD25O,1.700000X1.700000*%
%TD*%
%TA.AperFunction,SMDPad,CuDef*%
%ADD26RoundRect,0.150000X-0.512500X-0.150000X0.512500X-0.150000X0.512500X0.150000X-0.512500X0.150000X0*%
%TD*%
%TA.AperFunction,SMDPad,CuDef*%
%ADD27RoundRect,0.250000X-0.325000X-0.450000X0.325000X-0.450000X0.325000X0.450000X-0.325000X0.450000X0*%
%TD*%
%TA.AperFunction,SMDPad,CuDef*%
%ADD28RoundRect,0.250000X-0.450000X0.325000X-0.450000X-0.325000X0.450000X-0.325000X0.450000X0.325000X0*%
%TD*%
%TA.AperFunction,SMDPad,CuDef*%
%ADD29RoundRect,0.250000X0.350000X0.450000X-0.350000X0.450000X-0.350000X-0.450000X0.350000X-0.450000X0*%
%TD*%
%TA.AperFunction,SMDPad,CuDef*%
%ADD30RoundRect,0.250000X0.475000X-0.337500X0.475000X0.337500X-0.475000X0.337500X-0.475000X-0.337500X0*%
%TD*%
%TA.AperFunction,SMDPad,CuDef*%
%ADD31RoundRect,0.250000X1.000000X0.650000X-1.000000X0.650000X-1.000000X-0.650000X1.000000X-0.650000X0*%
%TD*%
%TA.AperFunction,SMDPad,CuDef*%
%ADD32RoundRect,0.250000X-0.650000X1.000000X-0.650000X-1.000000X0.650000X-1.000000X0.650000X1.000000X0*%
%TD*%
%TA.AperFunction,SMDPad,CuDef*%
%ADD33R,1.700000X1.000000*%
%TD*%
%TA.AperFunction,SMDPad,CuDef*%
%ADD34RoundRect,0.200000X-0.200000X0.250000X-0.200000X-0.250000X0.200000X-0.250000X0.200000X0.250000X0*%
%TD*%
%TA.AperFunction,SMDPad,CuDef*%
%ADD35RoundRect,0.250000X-0.350000X-0.450000X0.350000X-0.450000X0.350000X0.450000X-0.350000X0.450000X0*%
%TD*%
%TA.AperFunction,SMDPad,CuDef*%
%ADD36RoundRect,0.127500X0.222500X0.127500X-0.222500X0.127500X-0.222500X-0.127500X0.222500X-0.127500X0*%
%TD*%
%TA.AperFunction,SMDPad,CuDef*%
%ADD37RoundRect,0.250000X0.337500X0.475000X-0.337500X0.475000X-0.337500X-0.475000X0.337500X-0.475000X0*%
%TD*%
%TA.AperFunction,ComponentPad*%
%ADD38RoundRect,0.250000X-0.600000X-0.750000X0.600000X-0.750000X0.600000X0.750000X-0.600000X0.750000X0*%
%TD*%
%TA.AperFunction,ComponentPad*%
%ADD39O,1.700000X2.000000*%
%TD*%
%TA.AperFunction,SMDPad,CuDef*%
%ADD40R,0.740000X2.650000*%
%TD*%
%TA.AperFunction,SMDPad,CuDef*%
%ADD41RoundRect,0.075000X-0.075000X0.662500X-0.075000X-0.662500X0.075000X-0.662500X0.075000X0.662500X0*%
%TD*%
%TA.AperFunction,SMDPad,CuDef*%
%ADD42RoundRect,0.075000X-0.662500X0.075000X-0.662500X-0.075000X0.662500X-0.075000X0.662500X0.075000X0*%
%TD*%
%TA.AperFunction,SMDPad,CuDef*%
%ADD43R,1.000000X1.700000*%
%TD*%
%TA.AperFunction,ViaPad*%
%ADD44C,0.600000*%
%TD*%
%TA.AperFunction,Conductor*%
%ADD45C,0.200000*%
%TD*%
%TA.AperFunction,Conductor*%
%ADD46C,0.400000*%
%TD*%
%TA.AperFunction,Conductor*%
%ADD47C,0.500000*%
%TD*%
%TA.AperFunction,Conductor*%
%ADD48C,0.600000*%
%TD*%
G04 APERTURE END LIST*
D10*
%TO.P,J1,A1,GND*%
%TO.N,GND*%
X104610000Y-92515000D03*
%TO.P,J1,A4,VBUS*%
%TO.N,5V_USB*%
X105420000Y-92545000D03*
D11*
%TO.P,J1,A5,CC1*%
%TO.N,Net-(J1-CC1)*%
X106570000Y-92645000D03*
%TO.P,J1,A6,D+*%
%TO.N,USB_P*%
X107570000Y-92645000D03*
%TO.P,J1,A7,D-*%
%TO.N,USB_N*%
X108070000Y-92645000D03*
%TO.P,J1,A8,SBU1*%
%TO.N,unconnected-(J1-SBU1-PadA8)*%
X109070000Y-92645000D03*
D10*
%TO.P,J1,A9,VBUS*%
%TO.N,5V_USB*%
X110220000Y-92565000D03*
%TO.P,J1,A12,GND*%
%TO.N,GND*%
X111020000Y-92545000D03*
%TO.P,J1,B1,GND*%
X111020000Y-92545000D03*
%TO.P,J1,B4,VBUS*%
%TO.N,5V_USB*%
X110220000Y-92565000D03*
D11*
%TO.P,J1,B5,CC2*%
%TO.N,Net-(J1-CC2)*%
X109570000Y-92645000D03*
%TO.P,J1,B6,D+*%
%TO.N,USB_P*%
X108570000Y-92645000D03*
%TO.P,J1,B7,D-*%
%TO.N,USB_N*%
X107070000Y-92645000D03*
%TO.P,J1,B8,SBU2*%
%TO.N,unconnected-(J1-SBU2-PadB8)*%
X106070000Y-92645000D03*
D10*
%TO.P,J1,B9,VBUS*%
%TO.N,5V_USB*%
X105420000Y-92545000D03*
%TO.P,J1,B12,GND*%
%TO.N,GND*%
X104610000Y-92515000D03*
D12*
%TO.P,J1,S1,SHIELD*%
X103500000Y-93220000D03*
D13*
X103500000Y-97400000D03*
D12*
X112140000Y-93220000D03*
D13*
X112140000Y-97400000D03*
%TD*%
D14*
%TO.P,U7,1,GND*%
%TO.N,GND*%
X114050000Y-51750000D03*
%TO.P,U7,2,GND*%
X114050000Y-52600000D03*
%TO.P,U7,3,3V3*%
%TO.N,+3V3*%
X114050000Y-53450000D03*
%TO.P,U7,4,IO0*%
%TO.N,ESP_DOWNLOAD*%
X114050000Y-54300000D03*
%TO.P,U7,5,IO1*%
%TO.N,ESP_FREE1*%
X114050000Y-55150000D03*
%TO.P,U7,6,IO2*%
%TO.N,unconnected-(U7-IO2-Pad6)*%
X114050000Y-56000000D03*
%TO.P,U7,7,IO3*%
%TO.N,ESP_FREE2*%
X114050000Y-56850000D03*
%TO.P,U7,8,IO4*%
%TO.N,ESP_FREE3*%
X114050000Y-57700000D03*
%TO.P,U7,9,IO5*%
%TO.N,ESP_FREE4*%
X114050000Y-58550000D03*
%TO.P,U7,10,IO6*%
%TO.N,ESP_FREE5*%
X114050000Y-59400000D03*
%TO.P,U7,11,IO7*%
%TO.N,ESP_FREE6*%
X114050000Y-60250000D03*
%TO.P,U7,12,IO8*%
%TO.N,unconnected-(U7-IO8-Pad12)*%
X114050000Y-61100000D03*
%TO.P,U7,13,IO9*%
%TO.N,unconnected-(U7-IO9-Pad13)*%
X114050000Y-61950000D03*
%TO.P,U7,14,IO10*%
%TO.N,ESP_SPI_CS*%
X114050000Y-62800000D03*
%TO.P,U7,15,IO11*%
%TO.N,ESP_SPI_MOSI*%
X114050000Y-63650000D03*
D15*
%TO.P,U7,16,IO12*%
%TO.N,ESP_SPI_SCK*%
X115100000Y-64700000D03*
%TO.P,U7,17,IO13*%
%TO.N,ESP_SPI_MISO*%
X115950000Y-64700000D03*
%TO.P,U7,18,IO14*%
%TO.N,unconnected-(U7-IO14-Pad18)*%
X116800000Y-64700000D03*
%TO.P,U7,19,IO15*%
%TO.N,unconnected-(U7-IO15-Pad19)*%
X117650000Y-64700000D03*
%TO.P,U7,20,IO16*%
%TO.N,unconnected-(U7-IO16-Pad20)*%
X118500000Y-64700000D03*
%TO.P,U7,21,IO17*%
%TO.N,unconnected-(U7-IO17-Pad21)*%
X119350000Y-64700000D03*
%TO.P,U7,22,IO18*%
%TO.N,unconnected-(U7-IO18-Pad22)*%
X120200000Y-64700000D03*
%TO.P,U7,23,IO19*%
%TO.N,USB_N*%
X121050000Y-64700000D03*
%TO.P,U7,24,IO20*%
%TO.N,USB_P*%
X121900000Y-64700000D03*
%TO.P,U7,25,IO21*%
%TO.N,unconnected-(U7-IO21-Pad25)*%
X122750000Y-64700000D03*
%TO.P,U7,26,IO26*%
%TO.N,unconnected-(U7-IO26-Pad26)*%
X123600000Y-64700000D03*
%TO.P,U7,27,IO47*%
%TO.N,unconnected-(U7-IO47-Pad27)*%
X124450000Y-64700000D03*
%TO.P,U7,28,IO33*%
%TO.N,unconnected-(U7-IO33-Pad28)*%
X125300000Y-64700000D03*
%TO.P,U7,29,IO34*%
%TO.N,unconnected-(U7-IO34-Pad29)*%
X126150000Y-64700000D03*
%TO.P,U7,30,IO48*%
%TO.N,unconnected-(U7-IO48-Pad30)*%
X127000000Y-64700000D03*
D14*
%TO.P,U7,31,IO35*%
%TO.N,unconnected-(U7-IO35-Pad31)*%
X128050000Y-63650000D03*
%TO.P,U7,32,IO36*%
%TO.N,unconnected-(U7-IO36-Pad32)*%
X128050000Y-62800000D03*
%TO.P,U7,33,IO37*%
%TO.N,unconnected-(U7-IO37-Pad33)*%
X128050000Y-61950000D03*
%TO.P,U7,34,IO38*%
%TO.N,unconnected-(U7-IO38-Pad34)*%
X128050000Y-61100000D03*
%TO.P,U7,35,IO39*%
%TO.N,ESP_GPIO39*%
X128050000Y-60250000D03*
%TO.P,U7,36,IO40*%
%TO.N,ESP_GPIO40*%
X128050000Y-59400000D03*
%TO.P,U7,37,IO41*%
%TO.N,ESP_GPIO41*%
X128050000Y-58550000D03*
%TO.P,U7,38,IO42*%
%TO.N,ESP_GPIO42*%
X128050000Y-57700000D03*
%TO.P,U7,39,TXD0*%
%TO.N,ESP_TX*%
X128050000Y-56850000D03*
%TO.P,U7,40,RXD0*%
%TO.N,ESP_RX*%
X128050000Y-56000000D03*
%TO.P,U7,41,IO45*%
%TO.N,unconnected-(U7-IO45-Pad41)*%
X128050000Y-55150000D03*
%TO.P,U7,42,GND*%
%TO.N,GND*%
X128050000Y-54300000D03*
%TO.P,U7,43,GND*%
X128050000Y-53450000D03*
%TO.P,U7,44,IO46*%
%TO.N,unconnected-(U7-IO46-Pad44)*%
X128050000Y-52600000D03*
%TO.P,U7,45,EN*%
%TO.N,ESP_EN*%
X128050000Y-51750000D03*
D15*
%TO.P,U7,46,GND*%
%TO.N,GND*%
X127000000Y-50700000D03*
%TO.P,U7,47,GND*%
X126150000Y-50700000D03*
%TO.P,U7,48,GND*%
X125300000Y-50700000D03*
%TO.P,U7,49,GND*%
X124450000Y-50700000D03*
%TO.P,U7,50,GND*%
X123600000Y-50700000D03*
%TO.P,U7,51,GND*%
X122750000Y-50700000D03*
%TO.P,U7,52,GND*%
X121900000Y-50700000D03*
%TO.P,U7,53,GND*%
X121050000Y-50700000D03*
%TO.P,U7,54,GND*%
X120200000Y-50700000D03*
%TO.P,U7,55,GND*%
X119350000Y-50700000D03*
%TO.P,U7,56,GND*%
X118500000Y-50700000D03*
%TO.P,U7,57,GND*%
X117650000Y-50700000D03*
%TO.P,U7,58,GND*%
X116800000Y-50700000D03*
%TO.P,U7,59,GND*%
X115950000Y-50700000D03*
%TO.P,U7,60,GND*%
X115100000Y-50700000D03*
D16*
%TO.P,U7,61,GND*%
X121050000Y-57700000D03*
D17*
%TO.P,U7,61_1,GND*%
X119400000Y-56050000D03*
D16*
%TO.P,U7,61_2,GND*%
X121050000Y-56050000D03*
%TO.P,U7,61_3,GND*%
X122700000Y-56050000D03*
%TO.P,U7,61_4,GND*%
X122700000Y-57700000D03*
%TO.P,U7,61_5,GND*%
X122700000Y-59350000D03*
%TO.P,U7,61_6,GND*%
X121050000Y-59350000D03*
%TO.P,U7,61_7,GND*%
X119400000Y-59350000D03*
%TO.P,U7,61_8,GND*%
X119400000Y-57700000D03*
D18*
%TO.P,U7,62,GND*%
X114050000Y-50700000D03*
%TO.P,U7,63,GND*%
X114050000Y-64700000D03*
%TO.P,U7,64,GND*%
X128050000Y-64700000D03*
%TO.P,U7,65,GND*%
X128050000Y-50700000D03*
%TD*%
D19*
%TO.P,C10,1*%
%TO.N,+3V3*%
X161412500Y-79800000D03*
%TO.P,C10,2*%
%TO.N,GND*%
X161412500Y-81875000D03*
%TD*%
%TO.P,C16,1*%
%TO.N,3V3_OUT*%
X135050000Y-90400000D03*
%TO.P,C16,2*%
%TO.N,GND*%
X135050000Y-92475000D03*
%TD*%
D20*
%TO.P,R10,1*%
%TO.N,3V3_OUT*%
X137875000Y-90112500D03*
%TO.P,R10,2*%
%TO.N,+3V3*%
X137875000Y-88112500D03*
%TD*%
D21*
%TO.P,U4,1,A0*%
%TO.N,GND*%
X171750000Y-62950000D03*
%TO.P,U4,2,A1*%
X170480000Y-62950000D03*
%TO.P,U4,3,A2*%
X169210000Y-62950000D03*
%TO.P,U4,4,GND*%
X167940000Y-62950000D03*
%TO.P,U4,5,SDA*%
%TO.N,I2C_DATA*%
X167940000Y-67900000D03*
%TO.P,U4,6,SCL*%
%TO.N,I2C_CLK*%
X169210000Y-67900000D03*
%TO.P,U4,7,WP*%
%TO.N,GND*%
X170480000Y-67900000D03*
%TO.P,U4,8,VCC*%
%TO.N,+3V3*%
X171750000Y-67900000D03*
%TD*%
D22*
%TO.P,C8,1*%
%TO.N,+3V3*%
X159850000Y-70650000D03*
%TO.P,C8,2*%
%TO.N,GND*%
X161925000Y-70650000D03*
%TD*%
D23*
%TO.P,Y1,1,1*%
%TO.N,Net-(U2-PC14)*%
X161925000Y-67200000D03*
%TO.P,Y1,2,2*%
%TO.N,Net-(U2-PC15)*%
X158675000Y-67200000D03*
%TD*%
D24*
%TO.P,J12,1,Pin_1*%
%TO.N,GND*%
X175070000Y-58780000D03*
D25*
%TO.P,J12,2,Pin_2*%
%TO.N,I2C_CLK*%
X177610000Y-58780000D03*
%TO.P,J12,3,Pin_3*%
%TO.N,I2C_DATA*%
X175070000Y-61320000D03*
%TO.P,J12,4,Pin_4*%
%TO.N,+3V3*%
X177610000Y-61320000D03*
%TD*%
D26*
%TO.P,U1,1,VIN*%
%TO.N,5V_IN*%
X130775000Y-90712500D03*
%TO.P,U1,2,GND*%
%TO.N,GND*%
X130775000Y-91662500D03*
%TO.P,U1,3,EN*%
%TO.N,3V3_OUT_EN*%
X130775000Y-92612500D03*
%TO.P,U1,4,NC*%
%TO.N,unconnected-(U1-NC-Pad4)*%
X133050000Y-92612500D03*
%TO.P,U1,5,VOUT*%
%TO.N,3V3_OUT*%
X133050000Y-90712500D03*
%TD*%
D22*
%TO.P,C2,1*%
%TO.N,Net-(U2-PC15)*%
X158637500Y-64700000D03*
%TO.P,C2,2*%
%TO.N,GND*%
X160712500Y-64700000D03*
%TD*%
D24*
%TO.P,J16,1,Pin_1*%
%TO.N,GND*%
X102110000Y-60630000D03*
D25*
%TO.P,J16,2,Pin_2*%
%TO.N,ESP_FREE1*%
X104650000Y-60630000D03*
%TO.P,J16,3,Pin_3*%
%TO.N,ESP_FREE2*%
X102110000Y-63170000D03*
%TO.P,J16,4,Pin_4*%
%TO.N,ESP_FREE3*%
X104650000Y-63170000D03*
%TO.P,J16,5,Pin_5*%
%TO.N,ESP_FREE4*%
X102110000Y-65710000D03*
%TO.P,J16,6,Pin_6*%
%TO.N,ESP_FREE5*%
X104650000Y-65710000D03*
%TO.P,J16,7,Pin_7*%
%TO.N,ESP_FREE6*%
X102110000Y-68250000D03*
%TO.P,J16,8,Pin_8*%
%TO.N,+3V3*%
X104650000Y-68250000D03*
%TD*%
D27*
%TO.P,D2,1,K*%
%TO.N,GND*%
X142825000Y-90400000D03*
%TO.P,D2,2,A*%
%TO.N,Net-(D2-A)*%
X144875000Y-90400000D03*
%TD*%
D28*
%TO.P,D4,1,K*%
%TO.N,Net-(D4-K)*%
X144900000Y-63250000D03*
%TO.P,D4,2,A*%
%TO.N,LED_ALIVE*%
X144900000Y-65300000D03*
%TD*%
D19*
%TO.P,C9,1*%
%TO.N,+3V3*%
X159200000Y-79800000D03*
%TO.P,C9,2*%
%TO.N,GND*%
X159200000Y-81875000D03*
%TD*%
D22*
%TO.P,C1,1*%
%TO.N,GND*%
X168212500Y-74500000D03*
%TO.P,C1,2*%
%TO.N,NRST*%
X170287500Y-74500000D03*
%TD*%
D24*
%TO.P,J13,1,Pin_1*%
%TO.N,ESP_TX*%
X133250000Y-62050000D03*
D25*
%TO.P,J13,2,Pin_2*%
%TO.N,ESP_RX*%
X133250000Y-59510000D03*
%TD*%
D29*
%TO.P,R14,1*%
%TO.N,+3V3*%
X170650000Y-85750000D03*
%TO.P,R14,2*%
%TO.N,NRST*%
X168650000Y-85750000D03*
%TD*%
D30*
%TO.P,C4,1*%
%TO.N,+3V3*%
X109012500Y-54450000D03*
%TO.P,C4,2*%
%TO.N,GND*%
X109012500Y-52375000D03*
%TD*%
D20*
%TO.P,R4,1*%
%TO.N,Net-(D5-K)*%
X147400000Y-61250000D03*
%TO.P,R4,2*%
%TO.N,GND*%
X147400000Y-59250000D03*
%TD*%
D28*
%TO.P,D6,1,K*%
%TO.N,Net-(D6-K)*%
X149900000Y-63250000D03*
%TO.P,D6,2,A*%
%TO.N,LED_USER2*%
X149900000Y-65300000D03*
%TD*%
D31*
%TO.P,D8,1,K*%
%TO.N,5V_IN*%
X121000000Y-88850000D03*
%TO.P,D8,2,A*%
%TO.N,5V_USB*%
X117000000Y-88850000D03*
%TD*%
D32*
%TO.P,D9,1,K*%
%TO.N,5V_IN*%
X124950000Y-88750000D03*
%TO.P,D9,2,A*%
%TO.N,5V_CONN*%
X124950000Y-92750000D03*
%TD*%
D33*
%TO.P,SW2,1,1*%
%TO.N,GND*%
X139400000Y-55800000D03*
X133100000Y-55800000D03*
%TO.P,SW2,2,2*%
%TO.N,ESP_EN*%
X139400000Y-52000000D03*
X133100000Y-52000000D03*
%TD*%
D34*
%TO.P,D7,1,A1*%
%TO.N,5V_CONN*%
X118950000Y-91750000D03*
%TO.P,D7,2,A2*%
%TO.N,5V_USB*%
X117050000Y-91750000D03*
%TO.P,D7,3,Com*%
%TO.N,GND*%
X118000000Y-93750000D03*
%TD*%
D35*
%TO.P,R6,1*%
%TO.N,+3V3*%
X142750000Y-86000000D03*
%TO.P,R6,2*%
%TO.N,Net-(D1-A)*%
X144750000Y-86000000D03*
%TD*%
%TO.P,R2,1*%
%TO.N,3V3_OUT*%
X142850000Y-92550000D03*
%TO.P,R2,2*%
%TO.N,Net-(D2-A)*%
X144850000Y-92550000D03*
%TD*%
D19*
%TO.P,C14,1*%
%TO.N,ESP_EN*%
X130650000Y-51912500D03*
%TO.P,C14,2*%
%TO.N,GND*%
X130650000Y-53987500D03*
%TD*%
D20*
%TO.P,R12,1*%
%TO.N,Net-(D6-K)*%
X149900000Y-61250000D03*
%TO.P,R12,2*%
%TO.N,GND*%
X149900000Y-59250000D03*
%TD*%
D30*
%TO.P,C5,1*%
%TO.N,+3V3*%
X111262500Y-54437500D03*
%TO.P,C5,2*%
%TO.N,GND*%
X111262500Y-52362500D03*
%TD*%
D24*
%TO.P,J15,1,Pin_1*%
%TO.N,GND*%
X107240000Y-72100000D03*
D25*
%TO.P,J15,2,Pin_2*%
%TO.N,ESP_SPI_SCK*%
X107240000Y-74640000D03*
%TO.P,J15,3,Pin_3*%
%TO.N,ESP_SPI_MOSI*%
X104700000Y-72100000D03*
%TO.P,J15,4,Pin_4*%
%TO.N,ESP_SPI_MISO*%
X104700000Y-74640000D03*
%TO.P,J15,5,Pin_5*%
%TO.N,ESP_SPI_CS*%
X102160000Y-72100000D03*
%TO.P,J15,6,Pin_6*%
%TO.N,+3V3*%
X102160000Y-74640000D03*
%TD*%
D27*
%TO.P,D1,1,K*%
%TO.N,GND*%
X142800000Y-88150000D03*
%TO.P,D1,2,A*%
%TO.N,Net-(D1-A)*%
X144850000Y-88150000D03*
%TD*%
D36*
%TO.P,D3,1,L1*%
%TO.N,USB_N*%
X112800000Y-84050000D03*
%TO.P,D3,2,VN*%
%TO.N,unconnected-(D3-VN-Pad2)*%
X112800000Y-83100000D03*
%TO.P,D3,3,L2*%
%TO.N,USB_P*%
X112800000Y-82150000D03*
%TO.P,D3,4,L3*%
%TO.N,USB_N*%
X110480000Y-82150000D03*
%TO.P,D3,5,NC*%
%TO.N,unconnected-(D3-NC-Pad5)*%
X110480000Y-83100000D03*
%TO.P,D3,6,L4*%
%TO.N,USB_P*%
X110480000Y-84050000D03*
%TD*%
D20*
%TO.P,R3,1*%
%TO.N,Net-(D4-K)*%
X144900000Y-61250000D03*
%TO.P,R3,2*%
%TO.N,GND*%
X144900000Y-59250000D03*
%TD*%
D19*
%TO.P,C15,1*%
%TO.N,5V_IN*%
X128550000Y-90400000D03*
%TO.P,C15,2*%
%TO.N,GND*%
X128550000Y-92475000D03*
%TD*%
D28*
%TO.P,D5,1,K*%
%TO.N,Net-(D5-K)*%
X147400000Y-63250000D03*
%TO.P,D5,2,A*%
%TO.N,LED_USER1*%
X147400000Y-65300000D03*
%TD*%
D37*
%TO.P,C13,1*%
%TO.N,ESP_DOWNLOAD*%
X111450000Y-56750000D03*
%TO.P,C13,2*%
%TO.N,GND*%
X109375000Y-56750000D03*
%TD*%
D20*
%TO.P,R5,1*%
%TO.N,Net-(U2-PA5)*%
X144050000Y-53700000D03*
%TO.P,R5,2*%
%TO.N,ESP_EN*%
X144050000Y-51700000D03*
%TD*%
D38*
%TO.P,J10,1,Pin_1*%
%TO.N,GND*%
X121150000Y-97150000D03*
D39*
%TO.P,J10,2,Pin_2*%
%TO.N,5V_CONN*%
X123650000Y-97150000D03*
%TD*%
D35*
%TO.P,R9,1*%
%TO.N,Net-(J1-CC2)*%
X111400000Y-90350000D03*
%TO.P,R9,2*%
%TO.N,GND*%
X113400000Y-90350000D03*
%TD*%
D24*
%TO.P,J9,1,Pin_1*%
%TO.N,GND*%
X131360000Y-98000000D03*
D25*
%TO.P,J9,2,Pin_2*%
%TO.N,3V3_OUT*%
X133900000Y-98000000D03*
%TD*%
D30*
%TO.P,C3,1*%
%TO.N,Net-(U2-PC14)*%
X164300000Y-67737500D03*
%TO.P,C3,2*%
%TO.N,GND*%
X164300000Y-65662500D03*
%TD*%
D37*
%TO.P,C6,1*%
%TO.N,+3V3*%
X149650000Y-81262500D03*
%TO.P,C6,2*%
%TO.N,GND*%
X147575000Y-81262500D03*
%TD*%
%TO.P,C7,1*%
%TO.N,+3V3*%
X149650000Y-79250000D03*
%TO.P,C7,2*%
%TO.N,GND*%
X147575000Y-79250000D03*
%TD*%
D24*
%TO.P,J17,1,Pin_1*%
%TO.N,GND*%
X175950000Y-51910000D03*
D25*
%TO.P,J17,2,Pin_2*%
%TO.N,3V3_OUT*%
X175950000Y-54450000D03*
%TO.P,J17,3,Pin_3*%
%TO.N,MUX4*%
X173410000Y-51910000D03*
%TO.P,J17,4,Pin_4*%
X173410000Y-54450000D03*
%TO.P,J17,5,Pin_5*%
%TO.N,MUX3*%
X170870000Y-51910000D03*
%TO.P,J17,6,Pin_6*%
X170870000Y-54450000D03*
%TO.P,J17,7,Pin_7*%
%TO.N,MUX2*%
X168330000Y-51910000D03*
%TO.P,J17,8,Pin_8*%
X168330000Y-54450000D03*
%TO.P,J17,9,Pin_9*%
%TO.N,MUX1*%
X165790000Y-51910000D03*
%TO.P,J17,10,Pin_10*%
X165790000Y-54450000D03*
%TO.P,J17,11,Pin_11*%
%TO.N,SIG2*%
X163250000Y-51910000D03*
%TO.P,J17,12,Pin_12*%
%TO.N,SIG1*%
X163250000Y-54450000D03*
%TO.P,J17,13,Pin_13*%
%TO.N,SIG4*%
X160710000Y-51910000D03*
%TO.P,J17,14,Pin_14*%
%TO.N,SIG3*%
X160710000Y-54450000D03*
%TO.P,J17,15,Pin_15*%
%TO.N,MUX1*%
X158170000Y-51910000D03*
%TO.P,J17,16,Pin_16*%
X158170000Y-54450000D03*
%TO.P,J17,17,Pin_17*%
%TO.N,MUX2*%
X155630000Y-51910000D03*
%TO.P,J17,18,Pin_18*%
X155630000Y-54450000D03*
%TO.P,J17,19,Pin_19*%
%TO.N,MUX3*%
X153090000Y-51910000D03*
%TO.P,J17,20,Pin_20*%
X153090000Y-54450000D03*
%TO.P,J17,21,Pin_21*%
%TO.N,MUX4*%
X150550000Y-51910000D03*
%TO.P,J17,22,Pin_22*%
X150550000Y-54450000D03*
%TD*%
D40*
%TO.P,J4,1,VTref*%
%TO.N,+3V3*%
X178760000Y-80400000D03*
%TO.P,J4,2,SWDIO/TMS*%
%TO.N,SWDIO*%
X178760000Y-84550000D03*
%TO.P,J4,3,GND*%
%TO.N,GND*%
X177490000Y-80400000D03*
%TO.P,J4,4,SWCLK/TCK*%
%TO.N,SWCLK*%
X177490000Y-84550000D03*
%TO.P,J4,5,GND*%
%TO.N,GND*%
X176220000Y-80400000D03*
%TO.P,J4,6,SWO/TDO*%
%TO.N,unconnected-(J4-SWO{slash}TDO-Pad6)*%
X176220000Y-84550000D03*
%TO.P,J4,7,KEY*%
%TO.N,unconnected-(J4-KEY-Pad7)*%
X174950000Y-80400000D03*
%TO.P,J4,8,NC/TDI*%
%TO.N,unconnected-(J4-NC{slash}TDI-Pad8)*%
X174950000Y-84550000D03*
%TO.P,J4,9,GNDDetect*%
%TO.N,GND*%
X173680000Y-80400000D03*
%TO.P,J4,10,~{RESET}*%
%TO.N,NRST*%
X173680000Y-84550000D03*
%TD*%
D24*
%TO.P,J18,1,Pin_1*%
%TO.N,GND*%
X176700000Y-92100000D03*
D25*
%TO.P,J18,2,Pin_2*%
%TO.N,BUZZER_PWM*%
X174160000Y-92100000D03*
%TO.P,J18,3,Pin_3*%
%TO.N,CONN_FREE1*%
X171620000Y-92100000D03*
%TO.P,J18,4,Pin_4*%
%TO.N,CONN_FREE2*%
X169080000Y-92100000D03*
%TD*%
D40*
%TO.P,J2,1,VTref*%
%TO.N,+3V3*%
X136865000Y-67215000D03*
%TO.P,J2,2,SWDIO/TMS*%
%TO.N,ESP_GPIO39*%
X136865000Y-71365000D03*
%TO.P,J2,3,GND*%
%TO.N,GND*%
X135595000Y-67215000D03*
%TO.P,J2,4,SWCLK/TCK*%
%TO.N,ESP_GPIO42*%
X135595000Y-71365000D03*
%TO.P,J2,5,GND*%
%TO.N,GND*%
X134325000Y-67215000D03*
%TO.P,J2,6,SWO/TDO*%
%TO.N,ESP_GPIO41*%
X134325000Y-71365000D03*
%TO.P,J2,7,KEY*%
%TO.N,unconnected-(J2-KEY-Pad7)*%
X133055000Y-67215000D03*
%TO.P,J2,8,NC/TDI*%
%TO.N,ESP_GPIO40*%
X133055000Y-71365000D03*
%TO.P,J2,9,GNDDetect*%
%TO.N,GND*%
X131785000Y-67215000D03*
%TO.P,J2,10,~{RESET}*%
%TO.N,ESP_EN*%
X131785000Y-71365000D03*
%TD*%
D20*
%TO.P,R8,1*%
%TO.N,Net-(J1-CC1)*%
X105500000Y-89800000D03*
%TO.P,R8,2*%
%TO.N,GND*%
X105500000Y-87800000D03*
%TD*%
D41*
%TO.P,U2,1,VBAT*%
%TO.N,+3V3*%
X157650000Y-70787500D03*
%TO.P,U2,2,PC13*%
%TO.N,MUX4*%
X157150000Y-70787500D03*
%TO.P,U2,3,PC14*%
%TO.N,Net-(U2-PC14)*%
X156650000Y-70787500D03*
%TO.P,U2,4,PC15*%
%TO.N,Net-(U2-PC15)*%
X156150000Y-70787500D03*
%TO.P,U2,5,PH0*%
%TO.N,MUX3*%
X155650000Y-70787500D03*
%TO.P,U2,6,PH1*%
%TO.N,MUX2*%
X155150000Y-70787500D03*
%TO.P,U2,7,NRST*%
%TO.N,NRST*%
X154650000Y-70787500D03*
%TO.P,U2,8,VSSA*%
%TO.N,GND*%
X154150000Y-70787500D03*
%TO.P,U2,9,VDDA*%
%TO.N,+3V3*%
X153650000Y-70787500D03*
%TO.P,U2,10,PA0*%
%TO.N,MUX1*%
X153150000Y-70787500D03*
%TO.P,U2,11,PA1*%
%TO.N,SIG1*%
X152650000Y-70787500D03*
%TO.P,U2,12,PA2*%
%TO.N,SIG2*%
X152150000Y-70787500D03*
D42*
%TO.P,U2,13,PA3*%
%TO.N,SIG3*%
X150737500Y-72200000D03*
%TO.P,U2,14,PA4*%
%TO.N,SIG4*%
X150737500Y-72700000D03*
%TO.P,U2,15,PA5*%
%TO.N,Net-(U2-PA5)*%
X150737500Y-73200000D03*
%TO.P,U2,16,PA6*%
%TO.N,LED_USER2*%
X150737500Y-73700000D03*
%TO.P,U2,17,PA7*%
%TO.N,LED_USER1*%
X150737500Y-74200000D03*
%TO.P,U2,18,PB0*%
%TO.N,LED_ALIVE*%
X150737500Y-74700000D03*
%TO.P,U2,19,PB1*%
%TO.N,Net-(U2-PB1)*%
X150737500Y-75200000D03*
%TO.P,U2,20,PB2*%
%TO.N,3V3_OUT_EN*%
X150737500Y-75700000D03*
%TO.P,U2,21,PB10*%
%TO.N,ESP_RX*%
X150737500Y-76200000D03*
%TO.P,U2,22,PB11*%
%TO.N,ESP_TX*%
X150737500Y-76700000D03*
%TO.P,U2,23,VSS*%
%TO.N,GND*%
X150737500Y-77200000D03*
%TO.P,U2,24,VDD*%
%TO.N,+3V3*%
X150737500Y-77700000D03*
D41*
%TO.P,U2,25,PB12*%
%TO.N,TOUCH_IRQ*%
X152150000Y-79112500D03*
%TO.P,U2,26,PB13*%
%TO.N,TOUCH_CLK*%
X152650000Y-79112500D03*
%TO.P,U2,27,PB14*%
%TO.N,TOUCH_DO_MISO*%
X153150000Y-79112500D03*
%TO.P,U2,28,PB15*%
%TO.N,TOUCH_DIN_MOSI*%
X153650000Y-79112500D03*
%TO.P,U2,29,PA8*%
%TO.N,TOUCH_CS*%
X154150000Y-79112500D03*
%TO.P,U2,30,PA9*%
%TO.N,TFT_DC*%
X154650000Y-79112500D03*
%TO.P,U2,31,PA10*%
%TO.N,TFT_RESET*%
X155150000Y-79112500D03*
%TO.P,U2,32,PA11*%
%TO.N,TFT_SPI_MISO*%
X155650000Y-79112500D03*
%TO.P,U2,33,PA12*%
%TO.N,TFT_SPI_MOSI*%
X156150000Y-79112500D03*
%TO.P,U2,34,PA13*%
%TO.N,SWDIO*%
X156650000Y-79112500D03*
%TO.P,U2,35,VSS*%
%TO.N,GND*%
X157150000Y-79112500D03*
%TO.P,U2,36,VDDUSB*%
%TO.N,+3V3*%
X157650000Y-79112500D03*
D42*
%TO.P,U2,37,PA14*%
%TO.N,SWCLK*%
X159062500Y-77700000D03*
%TO.P,U2,38,PA15*%
%TO.N,TFT_SPI_CS*%
X159062500Y-77200000D03*
%TO.P,U2,39,PB3*%
%TO.N,TFT_SPI_SCK*%
X159062500Y-76700000D03*
%TO.P,U2,40,PB4*%
%TO.N,CONN_FREE1*%
X159062500Y-76200000D03*
%TO.P,U2,41,PB5*%
%TO.N,BUZZER_PWM*%
X159062500Y-75700000D03*
%TO.P,U2,42,PB6*%
%TO.N,UART_OUT_TX*%
X159062500Y-75200000D03*
%TO.P,U2,43,PB7*%
%TO.N,UART_OUT_RX*%
X159062500Y-74700000D03*
%TO.P,U2,44,PH3*%
%TO.N,CONN_FREE2*%
X159062500Y-74200000D03*
%TO.P,U2,45,PB8*%
%TO.N,I2C_CLK*%
X159062500Y-73700000D03*
%TO.P,U2,46,PB9*%
%TO.N,I2C_DATA*%
X159062500Y-73200000D03*
%TO.P,U2,47,VSS*%
%TO.N,GND*%
X159062500Y-72700000D03*
%TO.P,U2,48,VDD*%
%TO.N,+3V3*%
X159062500Y-72200000D03*
%TD*%
D26*
%TO.P,U3,1,VIN*%
%TO.N,5V_IN*%
X130850000Y-85950000D03*
%TO.P,U3,2,GND*%
%TO.N,GND*%
X130850000Y-86900000D03*
%TO.P,U3,3,EN*%
%TO.N,5V_IN*%
X130850000Y-87850000D03*
%TO.P,U3,4,NC*%
%TO.N,unconnected-(U3-NC-Pad4)*%
X133125000Y-87850000D03*
%TO.P,U3,5,VOUT*%
%TO.N,+3V3*%
X133125000Y-85950000D03*
%TD*%
D20*
%TO.P,R1,1*%
%TO.N,+3V3*%
X141800000Y-53750000D03*
%TO.P,R1,2*%
%TO.N,ESP_EN*%
X141800000Y-51750000D03*
%TD*%
D24*
%TO.P,J14,1,Pin_1*%
%TO.N,GND*%
X177510000Y-65500000D03*
D25*
%TO.P,J14,2,Pin_2*%
%TO.N,UART_OUT_RX*%
X177510000Y-68040000D03*
%TO.P,J14,3,Pin_3*%
%TO.N,UART_OUT_TX*%
X177510000Y-70580000D03*
%TO.P,J14,4,Pin_4*%
%TO.N,+3V3*%
X177510000Y-73120000D03*
%TD*%
D30*
%TO.P,C12,1*%
%TO.N,5V_IN*%
X128575000Y-87987500D03*
%TO.P,C12,2*%
%TO.N,GND*%
X128575000Y-85912500D03*
%TD*%
%TO.P,C11,1*%
%TO.N,+3V3*%
X135075000Y-87987500D03*
%TO.P,C11,2*%
%TO.N,GND*%
X135075000Y-85912500D03*
%TD*%
D43*
%TO.P,SW3,1,1*%
%TO.N,GND*%
X166200000Y-83250000D03*
X166200000Y-76950000D03*
%TO.P,SW3,2,2*%
%TO.N,NRST*%
X170000000Y-83250000D03*
X170000000Y-76950000D03*
%TD*%
D24*
%TO.P,J11,1,Pin_1*%
%TO.N,TOUCH_IRQ*%
X143020000Y-97900000D03*
D25*
%TO.P,J11,2,Pin_2*%
%TO.N,TOUCH_DO_MISO*%
X145560000Y-97900000D03*
%TO.P,J11,3,Pin_3*%
%TO.N,TOUCH_DIN_MOSI*%
X148100000Y-97900000D03*
%TO.P,J11,4,Pin_4*%
%TO.N,TOUCH_CS*%
X150640000Y-97900000D03*
%TO.P,J11,5,Pin_5*%
%TO.N,TOUCH_CLK*%
X153180000Y-97900000D03*
%TO.P,J11,6,Pin_6*%
%TO.N,TFT_SPI_MISO*%
X155720000Y-97900000D03*
%TO.P,J11,7,Pin_7*%
%TO.N,+3V3*%
X158260000Y-97900000D03*
%TO.P,J11,8,Pin_8*%
%TO.N,TFT_SPI_SCK*%
X160800000Y-97900000D03*
%TO.P,J11,9,Pin_9*%
%TO.N,TFT_SPI_MOSI*%
X163340000Y-97900000D03*
%TO.P,J11,10,Pin_10*%
%TO.N,TFT_DC*%
X165880000Y-97900000D03*
%TO.P,J11,11,Pin_11*%
%TO.N,TFT_RESET*%
X168420000Y-97900000D03*
%TO.P,J11,12,Pin_12*%
%TO.N,TFT_SPI_CS*%
X170960000Y-97900000D03*
%TO.P,J11,13,Pin_13*%
%TO.N,GND*%
X173500000Y-97900000D03*
%TO.P,J11,14,Pin_14*%
%TO.N,+3V3*%
X176040000Y-97900000D03*
%TD*%
D44*
%TO.N,GND*%
X162000000Y-56750000D03*
X178750000Y-96750000D03*
X170000000Y-89500000D03*
X164000000Y-95500000D03*
%TO.N,+3V3*%
X144750000Y-72750000D03*
%TO.N,BUZZER_PWM*%
X156827545Y-72763797D03*
%TO.N,NRST*%
X154650000Y-73500000D03*
X166700000Y-73500000D03*
%TO.N,GND*%
X139000000Y-57000000D03*
X128250000Y-79000000D03*
X108500000Y-66480000D03*
X165125000Y-82725000D03*
X133500000Y-57000000D03*
X113275000Y-98050000D03*
X119125000Y-54750000D03*
X118500000Y-51700000D03*
X103875000Y-91525000D03*
X128900000Y-93700000D03*
X121925000Y-60750000D03*
X140000000Y-57000000D03*
X119000000Y-78250000D03*
X118100000Y-58475000D03*
X140000000Y-59000000D03*
X173750000Y-96250000D03*
X121000000Y-54725000D03*
X147000000Y-51000000D03*
X121125000Y-51675000D03*
X147400000Y-82650000D03*
X137900000Y-80100000D03*
X107940000Y-61350000D03*
X102000000Y-78000000D03*
X120225000Y-60725000D03*
X140000000Y-71000000D03*
X122000000Y-94000000D03*
X123975000Y-56825000D03*
X154150000Y-72250000D03*
X102300000Y-96475000D03*
X124000000Y-67000000D03*
X175250000Y-50500000D03*
X123575000Y-51675000D03*
X107500000Y-52500000D03*
X101000000Y-95000000D03*
X101750000Y-59000000D03*
X102350000Y-93850000D03*
X129150000Y-53475000D03*
X123950000Y-57650000D03*
X118330000Y-82640000D03*
X102750000Y-59000000D03*
X121925000Y-51700000D03*
X132500000Y-57000000D03*
X129250000Y-54250000D03*
X125300000Y-51650000D03*
X149250000Y-77375000D03*
X136250000Y-51000000D03*
X154900000Y-74950000D03*
X112975000Y-51275000D03*
X173000000Y-96250000D03*
X176250000Y-90500000D03*
X175500000Y-57250000D03*
X128050000Y-65700000D03*
X155000000Y-58000000D03*
X162000000Y-64750000D03*
X147250000Y-58000000D03*
X164250000Y-64250000D03*
X124000000Y-73000000D03*
X132175000Y-86875000D03*
X114025000Y-65750000D03*
X112750000Y-52500000D03*
X118150000Y-55925000D03*
X149000000Y-87000000D03*
X118250000Y-55150000D03*
X165025000Y-77300000D03*
X111760000Y-66940000D03*
X115100000Y-51725000D03*
X119000000Y-79000000D03*
X174750000Y-57250000D03*
X164000000Y-62000000D03*
X118200000Y-60550000D03*
X176000000Y-65750000D03*
X176225000Y-78300000D03*
X158000000Y-91000000D03*
X161450000Y-83100000D03*
X176000000Y-65000000D03*
X103000000Y-51000000D03*
X128250000Y-78250000D03*
X105425000Y-86300000D03*
X118000000Y-57775000D03*
X157150000Y-80575000D03*
X114270000Y-75110000D03*
X108000000Y-56750000D03*
X165100000Y-83800000D03*
X121850000Y-54700000D03*
X111000000Y-78000000D03*
X169225000Y-61100000D03*
X113125000Y-92650000D03*
X119550000Y-97125000D03*
X173600000Y-78350000D03*
X119550000Y-96425000D03*
X126460000Y-60420000D03*
X170450000Y-61100000D03*
X113375000Y-88975000D03*
X171300000Y-66150000D03*
X177500000Y-52500000D03*
X131785000Y-65115000D03*
X124425000Y-51675000D03*
X113225000Y-93725000D03*
X124000000Y-83000000D03*
X120200000Y-54725000D03*
X121050000Y-60725000D03*
X119025000Y-93750000D03*
X108200000Y-70350000D03*
X112975000Y-50600000D03*
X103000000Y-55000000D03*
X147450000Y-77800000D03*
X166875000Y-74550000D03*
X115950000Y-51700000D03*
X135025000Y-84600000D03*
X159175000Y-83200000D03*
X134535000Y-65115000D03*
X116825000Y-51700000D03*
X128000000Y-99000000D03*
X139000000Y-99000000D03*
X167950000Y-61250000D03*
X135450000Y-93475000D03*
X123950000Y-58550000D03*
X157150000Y-77650000D03*
X119300000Y-60650000D03*
X149250000Y-58000000D03*
X177475000Y-78250000D03*
X122800000Y-60625000D03*
X130750000Y-55250000D03*
X127000000Y-51700000D03*
X118075000Y-56875000D03*
X165025000Y-76350000D03*
X107400000Y-70325000D03*
X113225000Y-96975000D03*
X119550000Y-97875000D03*
X157625000Y-72700000D03*
X170340000Y-71190000D03*
X123875000Y-54900000D03*
X108000000Y-99000000D03*
X152300000Y-77200000D03*
X163250000Y-70625000D03*
X144750000Y-58000000D03*
X119375000Y-51700000D03*
X122875000Y-54700000D03*
X122725000Y-51700000D03*
X171750000Y-61175000D03*
X131725000Y-96375000D03*
X141475000Y-90225000D03*
X129025000Y-50675000D03*
X177250000Y-90500000D03*
X111750000Y-91625000D03*
X116975000Y-93775000D03*
X123975000Y-59450000D03*
X118050000Y-59425000D03*
X102350000Y-92700000D03*
X102000000Y-86000000D03*
X127325000Y-86000000D03*
X134700000Y-93475000D03*
X123975000Y-55950000D03*
X117000000Y-73000000D03*
X171750000Y-57000000D03*
X115690000Y-60340000D03*
X117625000Y-51700000D03*
X135785000Y-65115000D03*
X141450000Y-88050000D03*
X126125000Y-51650000D03*
X174000000Y-88000000D03*
X123775000Y-60400000D03*
X120250000Y-51700000D03*
X130550000Y-96450000D03*
X128200000Y-93675000D03*
X129500000Y-91425000D03*
X116000000Y-99000000D03*
X102075000Y-97325000D03*
%TO.N,+3V3*%
X157725000Y-96300000D03*
X136475000Y-87400000D03*
X107600000Y-54425000D03*
X153900000Y-68725000D03*
X178775000Y-82375000D03*
X116175000Y-76500000D03*
X102025000Y-76300000D03*
X138100000Y-67175000D03*
X141475000Y-86025000D03*
X171950000Y-85875000D03*
X158575000Y-96275000D03*
X175625000Y-96350000D03*
X158405388Y-80800000D03*
X136500000Y-88125000D03*
X133000000Y-84925000D03*
X177650000Y-63050000D03*
X106250000Y-68400000D03*
X158575000Y-70575000D03*
X141750000Y-55100000D03*
X177575000Y-74950000D03*
X176375000Y-96350000D03*
X149675000Y-82800000D03*
X172850000Y-67900000D03*
%TO.N,5V_USB*%
X110170000Y-91400000D03*
X104650000Y-91000000D03*
X115075000Y-88175000D03*
X116050000Y-91725000D03*
X115100000Y-89200000D03*
X105075000Y-91450000D03*
X110200000Y-90775000D03*
%TO.N,ESP_DOWNLOAD*%
X110450000Y-58325000D03*
%TO.N,ESP_EN*%
X130125000Y-70425000D03*
X135800000Y-60825000D03*
%TO.N,3V3_OUT*%
X133100000Y-91425000D03*
X136550000Y-90275000D03*
X141575000Y-92400000D03*
X133150000Y-89925000D03*
X135675000Y-97275000D03*
X135575000Y-98625000D03*
%TO.N,SWDIO*%
X161550000Y-85175000D03*
X165500000Y-85100000D03*
%TO.N,SWCLK*%
X160575000Y-78275000D03*
X171299000Y-82124000D03*
%TO.N,TFT_SPI_CS*%
X163150000Y-88200000D03*
X157805388Y-77191229D03*
%TO.N,TFT_RESET*%
X163038500Y-92550000D03*
X155150000Y-77900000D03*
%TO.N,CONN_FREE2*%
X157575000Y-74225000D03*
X163475000Y-80425000D03*
%TO.N,3V3_OUT_EN*%
X147600000Y-76300000D03*
X152350000Y-76250000D03*
%TO.N,Net-(U2-PB1)*%
X152425000Y-75200000D03*
%TO.N,5V_CONN*%
X122650000Y-92550000D03*
X125025000Y-97875000D03*
X119850000Y-91700000D03*
X126325000Y-92600000D03*
X123425000Y-92550000D03*
X125075000Y-96125000D03*
X125125000Y-96900000D03*
%TD*%
D45*
%TO.N,BUZZER_PWM*%
X156827545Y-74327488D02*
X156827545Y-72763797D01*
X158200057Y-75700000D02*
X156827545Y-74327488D01*
X159062500Y-75700000D02*
X158200057Y-75700000D01*
%TO.N,NRST*%
X154751000Y-72001057D02*
X154751000Y-73399000D01*
X154751000Y-73399000D02*
X154650000Y-73500000D01*
X154650000Y-70787500D02*
X154650000Y-71900057D01*
X154650000Y-71900057D02*
X154751000Y-72001057D01*
X166726000Y-73474000D02*
X166700000Y-73500000D01*
X169261500Y-73474000D02*
X166726000Y-73474000D01*
X170287500Y-74500000D02*
X169261500Y-73474000D01*
%TO.N,GND*%
X147400000Y-82650000D02*
X147400000Y-81437500D01*
X157150000Y-77650000D02*
X157150000Y-79112500D01*
X130550000Y-97190000D02*
X131360000Y-98000000D01*
X129125000Y-53450000D02*
X129150000Y-53475000D01*
X102575000Y-96475000D02*
X103500000Y-97400000D01*
X113950000Y-50600000D02*
X114050000Y-50700000D01*
X102350000Y-92700000D02*
X102980000Y-92700000D01*
X139400000Y-56400000D02*
X140000000Y-57000000D01*
X166875000Y-74550000D02*
X168162500Y-74550000D01*
X111020000Y-92545000D02*
X111020000Y-92355000D01*
X173000000Y-97400000D02*
X173500000Y-97900000D01*
X176220000Y-78305000D02*
X176225000Y-78300000D01*
X105500000Y-86375000D02*
X105425000Y-86300000D01*
X164300000Y-65662500D02*
X164300000Y-64300000D01*
X107400000Y-70325000D02*
X107400000Y-71940000D01*
X129737500Y-91662500D02*
X129500000Y-91425000D01*
X161950000Y-64700000D02*
X162000000Y-64750000D01*
X144900000Y-58150000D02*
X144750000Y-58000000D01*
X102300000Y-96475000D02*
X102575000Y-96475000D01*
D46*
X119550000Y-97125000D02*
X121125000Y-97125000D01*
D45*
X176540000Y-52500000D02*
X175950000Y-51910000D01*
X112975000Y-50600000D02*
X113950000Y-50600000D01*
X163225000Y-70650000D02*
X163250000Y-70625000D01*
X102870000Y-93850000D02*
X103500000Y-93220000D01*
X171300000Y-66150000D02*
X170480000Y-66970000D01*
X120425000Y-96425000D02*
X121150000Y-97150000D01*
X165650000Y-83800000D02*
X166200000Y-83250000D01*
X175500000Y-58350000D02*
X175070000Y-58780000D01*
D46*
X176000000Y-65750000D02*
X177260000Y-65750000D01*
D45*
X130750000Y-55250000D02*
X130750000Y-54087500D01*
X177260000Y-65750000D02*
X177510000Y-65500000D01*
X173750000Y-96250000D02*
X173750000Y-97650000D01*
X112975000Y-51275000D02*
X113575000Y-51275000D01*
X130875000Y-86875000D02*
X130850000Y-86900000D01*
X161450000Y-83100000D02*
X161450000Y-81912500D01*
D46*
X174750000Y-57250000D02*
X174750000Y-58460000D01*
D45*
X112565000Y-96975000D02*
X112140000Y-97400000D01*
X128575000Y-85912500D02*
X128612500Y-85912500D01*
X149900000Y-58650000D02*
X149250000Y-58000000D01*
X111400000Y-52500000D02*
X111262500Y-52362500D01*
X113575000Y-51275000D02*
X114050000Y-51750000D01*
X149250000Y-77375000D02*
X149425000Y-77200000D01*
X141475000Y-90225000D02*
X142650000Y-90225000D01*
X165600000Y-76350000D02*
X166200000Y-76950000D01*
X113400000Y-89000000D02*
X113375000Y-88975000D01*
X173000000Y-96250000D02*
X173000000Y-97400000D01*
X128050000Y-53450000D02*
X129125000Y-53450000D01*
X108887500Y-52500000D02*
X109012500Y-52375000D01*
D46*
X128050000Y-65700000D02*
X128050000Y-64700000D01*
D45*
X127412500Y-85912500D02*
X127325000Y-86000000D01*
X128900000Y-92825000D02*
X128550000Y-92475000D01*
X108200000Y-70350000D02*
X108200000Y-71140000D01*
D47*
X175250000Y-50500000D02*
X175250000Y-51210000D01*
D46*
X130550000Y-96450000D02*
X130550000Y-97190000D01*
D45*
X111020000Y-92355000D02*
X111750000Y-91625000D01*
X147400000Y-58150000D02*
X147250000Y-58000000D01*
X165675000Y-82725000D02*
X166200000Y-83250000D01*
X103425000Y-97325000D02*
X103500000Y-97400000D01*
X159175000Y-83200000D02*
X159175000Y-81900000D01*
X102350000Y-93850000D02*
X102870000Y-93850000D01*
X177490000Y-78265000D02*
X177475000Y-78250000D01*
D46*
X176000000Y-65000000D02*
X177010000Y-65000000D01*
D45*
X161450000Y-81912500D02*
X161412500Y-81875000D01*
X170480000Y-66970000D02*
X170480000Y-67900000D01*
X135785000Y-65115000D02*
X135595000Y-65305000D01*
D46*
X114025000Y-65750000D02*
X114025000Y-64725000D01*
D45*
X152300000Y-77200000D02*
X150737500Y-77200000D01*
X167950000Y-62940000D02*
X167940000Y-62950000D01*
X157150000Y-80575000D02*
X157150000Y-79112500D01*
X169225000Y-61100000D02*
X169225000Y-62935000D01*
X147450000Y-77800000D02*
X147450000Y-79125000D01*
X108000000Y-56750000D02*
X109375000Y-56750000D01*
X135450000Y-92875000D02*
X135050000Y-92475000D01*
X176250000Y-91650000D02*
X176700000Y-92100000D01*
X108200000Y-71140000D02*
X107240000Y-72100000D01*
X114025000Y-64725000D02*
X114050000Y-64700000D01*
X127325000Y-86000000D02*
X128487500Y-86000000D01*
X149900000Y-59250000D02*
X149900000Y-58650000D01*
X167950000Y-61250000D02*
X167950000Y-62940000D01*
X161925000Y-70650000D02*
X163225000Y-70650000D01*
X101750000Y-59000000D02*
X101750000Y-60270000D01*
X117975000Y-93775000D02*
X118000000Y-93750000D01*
X107400000Y-71940000D02*
X107240000Y-72100000D01*
X168162500Y-74550000D02*
X168212500Y-74500000D01*
X177250000Y-91550000D02*
X176700000Y-92100000D01*
X142650000Y-90225000D02*
X142825000Y-90400000D01*
X173750000Y-97650000D02*
X173500000Y-97900000D01*
D46*
X113225000Y-96975000D02*
X112565000Y-96975000D01*
D45*
X134325000Y-65325000D02*
X134325000Y-67215000D01*
X176220000Y-80400000D02*
X176220000Y-78305000D01*
X134700000Y-92825000D02*
X135050000Y-92475000D01*
X157625000Y-72700000D02*
X159062500Y-72700000D01*
X139400000Y-55800000D02*
X139400000Y-56400000D01*
X142700000Y-88050000D02*
X142800000Y-88150000D01*
X177490000Y-80400000D02*
X177490000Y-78265000D01*
D46*
X177250000Y-90500000D02*
X177250000Y-91550000D01*
D45*
X113950000Y-52500000D02*
X114050000Y-52600000D01*
D48*
X119025000Y-93750000D02*
X118000000Y-93750000D01*
D45*
X173600000Y-78350000D02*
X173680000Y-78430000D01*
X165025000Y-77300000D02*
X165850000Y-77300000D01*
X139400000Y-55800000D02*
X139400000Y-56600000D01*
D47*
X177500000Y-52500000D02*
X176540000Y-52500000D01*
D45*
X129200000Y-54300000D02*
X129250000Y-54250000D01*
X133100000Y-56600000D02*
X133500000Y-57000000D01*
X147400000Y-59250000D02*
X147400000Y-58150000D01*
X102750000Y-59000000D02*
X102750000Y-59990000D01*
X135450000Y-93475000D02*
X135450000Y-92875000D01*
X112750000Y-52500000D02*
X113950000Y-52500000D01*
X128900000Y-93700000D02*
X128900000Y-92825000D01*
X113225000Y-93725000D02*
X112645000Y-93725000D01*
X175250000Y-51210000D02*
X175950000Y-51910000D01*
X165125000Y-82725000D02*
X165675000Y-82725000D01*
D46*
X175500000Y-57250000D02*
X175500000Y-58350000D01*
D45*
X135075000Y-85912500D02*
X135075000Y-84650000D01*
X128200000Y-92825000D02*
X128550000Y-92475000D01*
X131725000Y-97635000D02*
X131360000Y-98000000D01*
D46*
X119550000Y-97875000D02*
X120425000Y-97875000D01*
D45*
X113125000Y-92650000D02*
X112710000Y-92650000D01*
X173680000Y-78430000D02*
X173680000Y-80400000D01*
X102980000Y-92700000D02*
X103500000Y-93220000D01*
X131785000Y-65115000D02*
X131785000Y-67215000D01*
X120425000Y-97875000D02*
X121150000Y-97150000D01*
X177010000Y-65000000D02*
X177510000Y-65500000D01*
X130775000Y-91662500D02*
X129737500Y-91662500D01*
X154150000Y-72250000D02*
X154150000Y-70787500D01*
X128487500Y-86000000D02*
X128575000Y-85912500D01*
X149425000Y-77200000D02*
X150737500Y-77200000D01*
X147400000Y-81437500D02*
X147575000Y-81262500D01*
X107500000Y-52500000D02*
X108887500Y-52500000D01*
X112710000Y-92650000D02*
X112140000Y-93220000D01*
X128050000Y-54300000D02*
X129200000Y-54300000D01*
X130750000Y-54087500D02*
X130650000Y-53987500D01*
X141450000Y-88050000D02*
X142700000Y-88050000D01*
X112645000Y-93725000D02*
X112140000Y-93220000D01*
X135075000Y-84650000D02*
X135025000Y-84600000D01*
X101750000Y-60270000D02*
X102110000Y-60630000D01*
X165850000Y-77300000D02*
X166200000Y-76950000D01*
X128200000Y-93675000D02*
X128200000Y-92825000D01*
X133100000Y-55800000D02*
X133100000Y-56600000D01*
D46*
X131725000Y-96375000D02*
X131725000Y-97635000D01*
D45*
X139400000Y-56600000D02*
X139000000Y-57000000D01*
X170450000Y-67930000D02*
X170480000Y-67900000D01*
X135595000Y-65305000D02*
X135595000Y-67215000D01*
X132175000Y-86875000D02*
X130875000Y-86875000D01*
X128525000Y-85862500D02*
X128575000Y-85912500D01*
X104610000Y-92515000D02*
X104610000Y-92260000D01*
D46*
X176250000Y-90500000D02*
X176250000Y-91650000D01*
D45*
X165100000Y-83800000D02*
X165650000Y-83800000D01*
D48*
X116975000Y-93775000D02*
X117975000Y-93775000D01*
D45*
X112790000Y-98050000D02*
X112140000Y-97400000D01*
X169225000Y-62935000D02*
X169210000Y-62950000D01*
X164300000Y-64300000D02*
X164250000Y-64250000D01*
X113400000Y-90350000D02*
X113400000Y-89000000D01*
X113275000Y-98050000D02*
X112790000Y-98050000D01*
X159175000Y-81900000D02*
X159200000Y-81875000D01*
X104610000Y-92260000D02*
X103875000Y-91525000D01*
X170450000Y-62920000D02*
X170480000Y-62950000D01*
X121125000Y-97125000D02*
X121150000Y-97150000D01*
X144900000Y-59250000D02*
X144900000Y-58150000D01*
X147450000Y-79125000D02*
X147575000Y-79250000D01*
X129000000Y-50700000D02*
X129025000Y-50675000D01*
X174750000Y-58460000D02*
X175070000Y-58780000D01*
D46*
X119550000Y-96425000D02*
X120425000Y-96425000D01*
D45*
X102075000Y-97325000D02*
X103425000Y-97325000D01*
X165025000Y-76350000D02*
X165600000Y-76350000D01*
X102750000Y-59990000D02*
X102110000Y-60630000D01*
X112750000Y-52500000D02*
X111400000Y-52500000D01*
X105500000Y-87800000D02*
X105500000Y-86375000D01*
X128050000Y-50700000D02*
X129000000Y-50700000D01*
X134700000Y-93475000D02*
X134700000Y-92825000D01*
X160712500Y-64700000D02*
X161950000Y-64700000D01*
X132500000Y-57000000D02*
X132500000Y-56400000D01*
X132500000Y-56400000D02*
X133100000Y-55800000D01*
X170450000Y-61100000D02*
X170450000Y-62920000D01*
X134535000Y-65115000D02*
X134325000Y-65325000D01*
X171750000Y-61175000D02*
X171750000Y-62950000D01*
%TO.N,NRST*%
X168650000Y-84600000D02*
X170000000Y-83250000D01*
X168650000Y-85750000D02*
X168650000Y-84600000D01*
X173680000Y-84550000D02*
X171300000Y-84550000D01*
X170000000Y-83250000D02*
X170000000Y-76950000D01*
X170000000Y-76950000D02*
X170000000Y-74787500D01*
X170000000Y-74787500D02*
X170287500Y-74500000D01*
X171300000Y-84550000D02*
X170000000Y-83250000D01*
%TO.N,Net-(U2-PC14)*%
X156650000Y-70016176D02*
X156650000Y-70787500D01*
X161925000Y-67200000D02*
X160003000Y-69122000D01*
X157544176Y-69122000D02*
X156650000Y-70016176D01*
X163762500Y-67200000D02*
X164300000Y-67737500D01*
X161925000Y-67200000D02*
X163762500Y-67200000D01*
X160003000Y-69122000D02*
X157544176Y-69122000D01*
%TO.N,+3V3*%
X109012500Y-54450000D02*
X111250000Y-54450000D01*
X142750000Y-86000000D02*
X141500000Y-86000000D01*
X159200000Y-79800000D02*
X161412500Y-79800000D01*
X149650000Y-81262500D02*
X149650000Y-79250000D01*
X153650000Y-68975000D02*
X153650000Y-70787500D01*
X158405388Y-80594612D02*
X159200000Y-79800000D01*
X158575000Y-70575000D02*
X157862500Y-70575000D01*
X138100000Y-67175000D02*
X136905000Y-67175000D01*
X157725000Y-96300000D02*
X157725000Y-97365000D01*
X157725000Y-97365000D02*
X158260000Y-97900000D01*
X112250000Y-53450000D02*
X114050000Y-53450000D01*
X157862500Y-70575000D02*
X157650000Y-70787500D01*
X177650000Y-61360000D02*
X177610000Y-61320000D01*
X178775000Y-82375000D02*
X178775000Y-80415000D01*
X159200000Y-79800000D02*
X158337500Y-79800000D01*
X137875000Y-88112500D02*
X136512500Y-88112500D01*
X159775000Y-70575000D02*
X159850000Y-70650000D01*
X111262500Y-54437500D02*
X112250000Y-53450000D01*
X104800000Y-68400000D02*
X104650000Y-68250000D01*
X141800000Y-53750000D02*
X141800000Y-55050000D01*
X171950000Y-85875000D02*
X170775000Y-85875000D01*
X106250000Y-68400000D02*
X104800000Y-68400000D01*
X172850000Y-67900000D02*
X171750000Y-67900000D01*
X159850000Y-70650000D02*
X159850000Y-71412500D01*
X141500000Y-86000000D02*
X141475000Y-86025000D01*
X175625000Y-97485000D02*
X176040000Y-97900000D01*
X149675000Y-82800000D02*
X149675000Y-81287500D01*
X159850000Y-71412500D02*
X159062500Y-72200000D01*
X108987500Y-54425000D02*
X109012500Y-54450000D01*
X175625000Y-96350000D02*
X175625000Y-97485000D01*
X136905000Y-67175000D02*
X136865000Y-67215000D01*
X149650000Y-79250000D02*
X149650000Y-78787500D01*
X170775000Y-85875000D02*
X170650000Y-85750000D01*
X133125000Y-85950000D02*
X133125000Y-85050000D01*
X136500000Y-88125000D02*
X135212500Y-88125000D01*
X158575000Y-97585000D02*
X158260000Y-97900000D01*
X135212500Y-88125000D02*
X135075000Y-87987500D01*
X107600000Y-54425000D02*
X108987500Y-54425000D01*
X176375000Y-97565000D02*
X176040000Y-97900000D01*
X178775000Y-80415000D02*
X178760000Y-80400000D01*
X137187500Y-88112500D02*
X136475000Y-87400000D01*
X158337500Y-79800000D02*
X157650000Y-79112500D01*
X153900000Y-68725000D02*
X153650000Y-68975000D01*
X136475000Y-87400000D02*
X135662500Y-87400000D01*
X177575000Y-74950000D02*
X177575000Y-73185000D01*
X137875000Y-88112500D02*
X137187500Y-88112500D01*
X177650000Y-63050000D02*
X177650000Y-61360000D01*
X149675000Y-81287500D02*
X149650000Y-81262500D01*
X135662500Y-87400000D02*
X135075000Y-87987500D01*
X111250000Y-54450000D02*
X111262500Y-54437500D01*
X133125000Y-85050000D02*
X133000000Y-84925000D01*
X102025000Y-74775000D02*
X102160000Y-74640000D01*
X176375000Y-96350000D02*
X176375000Y-97565000D01*
X158575000Y-96275000D02*
X158575000Y-97585000D01*
X102025000Y-76300000D02*
X102025000Y-74775000D01*
X158405388Y-80800000D02*
X158405388Y-80594612D01*
X158575000Y-70575000D02*
X159775000Y-70575000D01*
X141800000Y-55050000D02*
X141750000Y-55100000D01*
X177575000Y-73185000D02*
X177510000Y-73120000D01*
X136512500Y-88112500D02*
X136500000Y-88125000D01*
X149650000Y-78787500D02*
X150737500Y-77700000D01*
%TO.N,5V_USB*%
X115750000Y-88850000D02*
X117000000Y-88850000D01*
X110225000Y-92560000D02*
X110220000Y-92565000D01*
D48*
X104950000Y-91325000D02*
X105075000Y-91450000D01*
X104950000Y-91325000D02*
X105420000Y-91795000D01*
X104650000Y-91025000D02*
X104950000Y-91325000D01*
X105420000Y-91795000D02*
X105420000Y-92545000D01*
X115450000Y-88850000D02*
X117000000Y-88850000D01*
X117025000Y-91725000D02*
X117050000Y-91750000D01*
X115075000Y-88175000D02*
X115750000Y-88850000D01*
X116050000Y-91725000D02*
X117025000Y-91725000D01*
D46*
X110170000Y-91400000D02*
X110170000Y-90805000D01*
D45*
X110170000Y-92515000D02*
X110220000Y-92565000D01*
D48*
X110170000Y-90805000D02*
X110200000Y-90775000D01*
D46*
X110170000Y-91400000D02*
X110170000Y-92515000D01*
D45*
X104650000Y-91000000D02*
X104650000Y-91025000D01*
D48*
X115100000Y-89200000D02*
X115450000Y-88850000D01*
D45*
%TO.N,ESP_DOWNLOAD*%
X111450000Y-56750000D02*
X111450000Y-56548000D01*
X113698000Y-54300000D02*
X114050000Y-54300000D01*
X110450000Y-57750000D02*
X111450000Y-56750000D01*
X111450000Y-56548000D02*
X113698000Y-54300000D01*
X110450000Y-58325000D02*
X110450000Y-57750000D01*
%TO.N,ESP_EN*%
X133012500Y-51912500D02*
X133100000Y-52000000D01*
X141800000Y-51750000D02*
X144000000Y-51750000D01*
X133100000Y-52000000D02*
X139400000Y-52000000D01*
X131785000Y-71365000D02*
X131065000Y-71365000D01*
X130487500Y-51750000D02*
X130650000Y-51912500D01*
X135800000Y-60825000D02*
X135800000Y-54700000D01*
X130650000Y-51912500D02*
X133012500Y-51912500D01*
X128050000Y-51750000D02*
X130487500Y-51750000D01*
X135800000Y-54700000D02*
X133100000Y-52000000D01*
X144000000Y-51750000D02*
X144050000Y-51700000D01*
X139400000Y-52000000D02*
X141550000Y-52000000D01*
X141550000Y-52000000D02*
X141800000Y-51750000D01*
X131065000Y-71365000D02*
X130125000Y-70425000D01*
D48*
%TO.N,3V3_OUT*%
X135575000Y-98625000D02*
X134525000Y-98625000D01*
X133050000Y-90712500D02*
X133050000Y-90025000D01*
X133050000Y-90025000D02*
X133150000Y-89925000D01*
D45*
X142850000Y-92550000D02*
X141725000Y-92550000D01*
X134525000Y-98625000D02*
X133900000Y-98000000D01*
D48*
X136550000Y-90275000D02*
X135175000Y-90275000D01*
X135675000Y-97275000D02*
X134625000Y-97275000D01*
X136712500Y-90112500D02*
X136550000Y-90275000D01*
D45*
X136425000Y-90400000D02*
X136550000Y-90275000D01*
D48*
X137875000Y-90112500D02*
X136712500Y-90112500D01*
D45*
X141725000Y-92550000D02*
X141575000Y-92400000D01*
D48*
X133050000Y-90712500D02*
X133050000Y-91375000D01*
D45*
X135175000Y-90275000D02*
X135050000Y-90400000D01*
X134625000Y-97275000D02*
X133900000Y-98000000D01*
X134737500Y-90712500D02*
X135050000Y-90400000D01*
D48*
X133050000Y-91375000D02*
X133100000Y-91425000D01*
X133050000Y-90712500D02*
X134737500Y-90712500D01*
D45*
%TO.N,USB_P*%
X107570000Y-91782499D02*
X107570000Y-92645000D01*
X107570000Y-92645000D02*
X107570000Y-92036176D01*
X107837176Y-91769000D02*
X108302824Y-91769000D01*
X107570000Y-92036176D02*
X107837176Y-91769000D01*
X112800000Y-73800000D02*
X121199000Y-65401000D01*
X108693198Y-83325000D02*
X107545000Y-84473198D01*
X111160000Y-84730000D02*
X113600000Y-84730000D01*
X112800000Y-82150000D02*
X112800000Y-73800000D01*
X113749943Y-82150000D02*
X113749943Y-84580057D01*
X110480000Y-84050000D02*
X111160000Y-84730000D01*
X113749943Y-84580057D02*
X113600000Y-84730000D01*
X110480000Y-84050000D02*
X109954999Y-84050000D01*
X108302824Y-91769000D02*
X108570000Y-92036176D01*
X121551000Y-65049000D02*
X121900000Y-64700000D01*
X109229999Y-83325000D02*
X108693198Y-83325000D01*
X113749943Y-82150000D02*
X112800000Y-82150000D01*
X121199000Y-65401000D02*
X121551000Y-65401000D01*
X107545000Y-91757499D02*
X107570000Y-91782499D01*
X109954999Y-84050000D02*
X109229999Y-83325000D01*
X121551000Y-65401000D02*
X121551000Y-65049000D01*
X108570000Y-92036176D02*
X108570000Y-92645000D01*
X107545000Y-84473198D02*
X107545000Y-91757499D01*
%TO.N,Net-(J1-CC2)*%
X111400000Y-90350000D02*
X110800000Y-90350000D01*
X111224000Y-90174000D02*
X111400000Y-90350000D01*
X109570000Y-90530057D02*
X109926057Y-90174000D01*
X109570000Y-92645000D02*
X109570000Y-90530057D01*
X109926057Y-90174000D02*
X111224000Y-90174000D01*
%TO.N,Net-(J1-CC1)*%
X105500000Y-89800000D02*
X106570000Y-90870000D01*
X106570000Y-90870000D02*
X106570000Y-92645000D01*
%TO.N,USB_N*%
X112350000Y-73613603D02*
X121050000Y-64913603D01*
X112149000Y-81841478D02*
X112350000Y-81640478D01*
X110480000Y-82150000D02*
X111840478Y-82150000D01*
X107337176Y-93521000D02*
X107070000Y-93253824D01*
X108070000Y-92645000D02*
X108070000Y-93253824D01*
X112406000Y-83656000D02*
X112396478Y-83656000D01*
X112396478Y-83656000D02*
X112149000Y-83408522D01*
X109954999Y-82150000D02*
X109229999Y-82875000D01*
X121050000Y-64913603D02*
X121050000Y-64700000D01*
X108506802Y-82875000D02*
X107095000Y-84286802D01*
X109229999Y-82875000D02*
X108506802Y-82875000D01*
X107070000Y-93253824D02*
X107070000Y-92645000D01*
X107070000Y-91782499D02*
X107070000Y-92645000D01*
X110480000Y-82150000D02*
X109954999Y-82150000D01*
X108070000Y-93253824D02*
X107802824Y-93521000D01*
X107095000Y-91757499D02*
X107070000Y-91782499D01*
X107095000Y-84286802D02*
X107095000Y-91757499D01*
X107802824Y-93521000D02*
X107337176Y-93521000D01*
X112350000Y-81640478D02*
X112350000Y-73613603D01*
X112149000Y-83408522D02*
X112149000Y-81841478D01*
X111840478Y-82150000D02*
X112149000Y-81841478D01*
X112800000Y-84050000D02*
X112406000Y-83656000D01*
%TO.N,SWDIO*%
X167151000Y-86751000D02*
X165500000Y-85100000D01*
X156650000Y-79883824D02*
X156650000Y-79112500D01*
X156549000Y-79984824D02*
X156650000Y-79883824D01*
X161550000Y-85175000D02*
X160300057Y-85175000D01*
X178760000Y-84550000D02*
X178760000Y-85577000D01*
X156549000Y-81423943D02*
X156549000Y-79984824D01*
X160300057Y-85175000D02*
X156549000Y-81423943D01*
X177586000Y-86751000D02*
X167151000Y-86751000D01*
X178760000Y-85577000D02*
X177586000Y-86751000D01*
%TO.N,SWCLK*%
X177490000Y-83523000D02*
X176891000Y-82924000D01*
X159637500Y-78275000D02*
X159062500Y-77700000D01*
X176891000Y-82924000D02*
X172151000Y-82924000D01*
X172151000Y-82924000D02*
X172099000Y-82924000D01*
X177490000Y-84550000D02*
X177490000Y-83523000D01*
X172099000Y-82924000D02*
X171299000Y-82124000D01*
X160575000Y-78275000D02*
X159637500Y-78275000D01*
X172151000Y-82924000D02*
X172125000Y-82950000D01*
%TO.N,MUX3*%
X155650000Y-66050000D02*
X160400000Y-61300000D01*
X164020000Y-61300000D02*
X170870000Y-54450000D01*
X160400000Y-61300000D02*
X164020000Y-61300000D01*
X155650000Y-70787500D02*
X155650000Y-66050000D01*
X170870000Y-51910000D02*
X170870000Y-54450000D01*
X153090000Y-51910000D02*
X153090000Y-54450000D01*
%TO.N,MUX1*%
X164639000Y-50759000D02*
X159321000Y-50759000D01*
X159321000Y-50759000D02*
X158170000Y-51910000D01*
X165790000Y-51910000D02*
X164639000Y-50759000D01*
X165790000Y-54450000D02*
X153150000Y-67090000D01*
X165790000Y-51910000D02*
X165790000Y-54450000D01*
X158170000Y-54450000D02*
X158170000Y-51910000D01*
X153150000Y-67090000D02*
X153150000Y-70787500D01*
%TO.N,MUX2*%
X155630000Y-54450000D02*
X155630000Y-51910000D01*
X161808000Y-60972000D02*
X160264138Y-60972000D01*
X155630000Y-51910000D02*
X157109000Y-50431000D01*
X157109000Y-50431000D02*
X166851000Y-50431000D01*
X168330000Y-54450000D02*
X161808000Y-60972000D01*
X166851000Y-50431000D02*
X168330000Y-51910000D01*
X168330000Y-54450000D02*
X168330000Y-51910000D01*
X160264138Y-60972000D02*
X155150000Y-66086138D01*
X155150000Y-66086138D02*
X155150000Y-70787500D01*
%TO.N,MUX4*%
X157716176Y-69450000D02*
X164186160Y-69450000D01*
X166350000Y-61350000D02*
X166510000Y-61350000D01*
X150550000Y-51910000D02*
X150550000Y-54450000D01*
X164186160Y-69450000D02*
X166350000Y-67286160D01*
X173410000Y-54450000D02*
X173410000Y-51910000D01*
X157150000Y-70016176D02*
X157716176Y-69450000D01*
X157150000Y-70787500D02*
X157150000Y-70016176D01*
X166510000Y-61350000D02*
X173410000Y-54450000D01*
X166350000Y-67286160D02*
X166350000Y-61350000D01*
%TO.N,SIG3*%
X151699000Y-71238500D02*
X150737500Y-72200000D01*
X151699000Y-63461000D02*
X151699000Y-71238500D01*
X160710000Y-54450000D02*
X151699000Y-63461000D01*
%TO.N,SIG4*%
X149966176Y-72700000D02*
X150737500Y-72700000D01*
X151371000Y-63325138D02*
X151371000Y-70295176D01*
X149699000Y-71967176D02*
X149699000Y-72432824D01*
X149699000Y-72432824D02*
X149966176Y-72700000D01*
X159321000Y-55375138D02*
X151371000Y-63325138D01*
X159321000Y-53299000D02*
X159321000Y-55375138D01*
X151371000Y-70295176D02*
X149699000Y-71967176D01*
X160710000Y-51910000D02*
X159321000Y-53299000D01*
%TO.N,SIG2*%
X162099000Y-54926760D02*
X152150000Y-64875760D01*
X163250000Y-51910000D02*
X162099000Y-53061000D01*
X162099000Y-53061000D02*
X162099000Y-54926760D01*
X152150000Y-64875760D02*
X152150000Y-70787500D01*
%TO.N,SIG1*%
X152650000Y-65050000D02*
X152650000Y-70787500D01*
X163250000Y-54450000D02*
X152650000Y-65050000D01*
%TO.N,TOUCH_CS*%
X150640000Y-97900000D02*
X154150000Y-94390000D01*
X154150000Y-94390000D02*
X154150000Y-79112500D01*
%TO.N,TOUCH_DO_MISO*%
X145560000Y-97900000D02*
X153150000Y-90310000D01*
X153150000Y-90310000D02*
X153150000Y-79112500D01*
%TO.N,TFT_SPI_SCK*%
X160800000Y-97900000D02*
X162438500Y-96261500D01*
X159911160Y-76700000D02*
X159062500Y-76700000D01*
X162438500Y-79227340D02*
X159911160Y-76700000D01*
X162438500Y-96261500D02*
X162438500Y-79227340D01*
%TO.N,TOUCH_IRQ*%
X143020000Y-97900000D02*
X152150000Y-88770000D01*
X152150000Y-88770000D02*
X152150000Y-79112500D01*
%TO.N,TFT_SPI_MOSI*%
X156900000Y-93800000D02*
X156150000Y-93050000D01*
X163340000Y-97900000D02*
X162189000Y-99051000D01*
X156150000Y-93050000D02*
X156150000Y-79112500D01*
X157545240Y-99051000D02*
X156900000Y-98405760D01*
X162189000Y-99051000D02*
X157545240Y-99051000D01*
X156900000Y-98405760D02*
X156900000Y-93800000D01*
%TO.N,TFT_SPI_MISO*%
X155720000Y-97900000D02*
X155650000Y-97830000D01*
X155650000Y-97830000D02*
X155650000Y-79112500D01*
%TO.N,TOUCH_CLK*%
X152650000Y-89182240D02*
X152650000Y-79112500D01*
X152029000Y-99051000D02*
X145083240Y-99051000D01*
X144409000Y-97423240D02*
X152650000Y-89182240D01*
X153180000Y-97900000D02*
X152029000Y-99051000D01*
X144409000Y-98376760D02*
X144409000Y-97423240D01*
X145083240Y-99051000D02*
X144409000Y-98376760D01*
%TO.N,TFT_SPI_CS*%
X157805388Y-77191229D02*
X159053729Y-77191229D01*
X170960000Y-97900000D02*
X163150000Y-90090000D01*
X163150000Y-90090000D02*
X163150000Y-88200000D01*
X159053729Y-77191229D02*
X159062500Y-77200000D01*
%TO.N,TFT_RESET*%
X155150000Y-77900000D02*
X155150000Y-79112500D01*
X168420000Y-97900000D02*
X163070000Y-92550000D01*
X163070000Y-92550000D02*
X163038500Y-92550000D01*
%TO.N,TFT_DC*%
X164401000Y-99379000D02*
X155571240Y-99379000D01*
X165880000Y-97900000D02*
X164401000Y-99379000D01*
X154569000Y-79964824D02*
X154650000Y-79883824D01*
X154650000Y-79883824D02*
X154650000Y-79112500D01*
X154569000Y-98376760D02*
X154569000Y-79964824D01*
X155571240Y-99379000D02*
X154569000Y-98376760D01*
%TO.N,I2C_CLK*%
X176459000Y-61558760D02*
X176459000Y-59931000D01*
X169210000Y-66925001D02*
X170807001Y-65328000D01*
X163756968Y-73700000D02*
X169210000Y-68246968D01*
X169210000Y-67900000D02*
X169210000Y-66925001D01*
X172689760Y-65328000D02*
X176459000Y-61558760D01*
X176459000Y-59931000D02*
X177610000Y-58780000D01*
X169210000Y-68246968D02*
X169210000Y-67900000D01*
X170807001Y-65328000D02*
X172689760Y-65328000D01*
X159062500Y-73700000D02*
X163756968Y-73700000D01*
%TO.N,I2C_DATA*%
X167940000Y-66925001D02*
X169865001Y-65000000D01*
X169865001Y-65000000D02*
X171390000Y-65000000D01*
X167940000Y-67900000D02*
X167940000Y-66925001D01*
X159062500Y-73200000D02*
X162640000Y-73200000D01*
X162640000Y-73200000D02*
X167940000Y-67900000D01*
X171390000Y-65000000D02*
X175070000Y-61320000D01*
%TO.N,LED_ALIVE*%
X150737500Y-74700000D02*
X149966176Y-74700000D01*
X144900000Y-69633824D02*
X144900000Y-65300000D01*
X149966176Y-74700000D02*
X144900000Y-69633824D01*
%TO.N,ESP_TX*%
X149617000Y-76700000D02*
X150737500Y-76700000D01*
X133250000Y-62050000D02*
X133250000Y-61850000D01*
X128250000Y-56850000D02*
X128050000Y-56850000D01*
X133250000Y-62050000D02*
X134967000Y-62050000D01*
X134967000Y-62050000D02*
X149617000Y-76700000D01*
X133250000Y-61850000D02*
X128250000Y-56850000D01*
%TO.N,TOUCH_DIN_MOSI*%
X148100000Y-97900000D02*
X153650000Y-92350000D01*
X153650000Y-92350000D02*
X153650000Y-79112500D01*
%TO.N,LED_USER1*%
X150737500Y-74200000D02*
X149966176Y-74200000D01*
X147400000Y-71633824D02*
X147400000Y-65300000D01*
X149966176Y-74200000D02*
X147400000Y-71633824D01*
%TO.N,CONN_FREE2*%
X169080000Y-92100000D02*
X163475000Y-86495000D01*
X159037500Y-74225000D02*
X159062500Y-74200000D01*
X157575000Y-74225000D02*
X159037500Y-74225000D01*
X163475000Y-86495000D02*
X163475000Y-80425000D01*
%TO.N,ESP_RX*%
X150737500Y-76200000D02*
X149940000Y-76200000D01*
X129740000Y-56000000D02*
X128050000Y-56000000D01*
X133250000Y-59510000D02*
X129740000Y-56000000D01*
X149940000Y-76200000D02*
X133250000Y-59510000D01*
%TO.N,ESP_GPIO40*%
X132276000Y-69631000D02*
X130976276Y-69631000D01*
X130275000Y-60825000D02*
X128850000Y-59400000D01*
X133055000Y-71365000D02*
X133055000Y-70410000D01*
X130275000Y-68929724D02*
X130275000Y-60825000D01*
X130976276Y-69631000D02*
X130275000Y-68929724D01*
X128850000Y-59400000D02*
X128050000Y-59400000D01*
X133055000Y-70410000D02*
X132276000Y-69631000D01*
%TO.N,ESP_GPIO41*%
X131112138Y-69303000D02*
X130786000Y-68976862D01*
X133218000Y-69303000D02*
X131112138Y-69303000D01*
X134325000Y-71365000D02*
X134325000Y-70410000D01*
X130786000Y-68976862D02*
X130786000Y-60675000D01*
X128661000Y-58550000D02*
X128050000Y-58550000D01*
X134325000Y-70410000D02*
X133218000Y-69303000D01*
X130786000Y-60675000D02*
X128661000Y-58550000D01*
%TO.N,ESP_GPIO42*%
X131248000Y-68975000D02*
X135225000Y-68975000D01*
X128050000Y-57700000D02*
X128402000Y-57700000D01*
X135595000Y-69395000D02*
X135595000Y-71365000D01*
X131114000Y-60412000D02*
X131114000Y-68841000D01*
X135225000Y-68975000D02*
X135225000Y-69025000D01*
X131114000Y-68841000D02*
X131248000Y-68975000D01*
X128402000Y-57700000D02*
X131114000Y-60412000D01*
X135225000Y-69025000D02*
X135595000Y-69395000D01*
%TO.N,LED_USER2*%
X148800000Y-67700000D02*
X149900000Y-66600000D01*
X149966176Y-73700000D02*
X148800000Y-72533824D01*
X150737500Y-73700000D02*
X149966176Y-73700000D01*
X148800000Y-72533824D02*
X148800000Y-67700000D01*
X149900000Y-66600000D02*
X149900000Y-65300000D01*
%TO.N,3V3_OUT_EN*%
X130775000Y-94400000D02*
X130775000Y-92612500D01*
X151800000Y-75700000D02*
X152350000Y-76250000D01*
X136075000Y-94575000D02*
X130700000Y-94575000D01*
X150737500Y-75700000D02*
X151800000Y-75700000D01*
X139825000Y-90825000D02*
X136075000Y-94575000D01*
X147600000Y-76300000D02*
X139825000Y-84075000D01*
X139825000Y-84075000D02*
X139825000Y-90825000D01*
X130700000Y-94575000D02*
X130700000Y-94475000D01*
X130700000Y-94475000D02*
X130775000Y-94400000D01*
%TO.N,ESP_SPI_SCK*%
X107240000Y-74640000D02*
X115100000Y-66780000D01*
X115100000Y-66780000D02*
X115100000Y-64700000D01*
%TO.N,ESP_SPI_CS*%
X103710000Y-70550000D02*
X105350000Y-70550000D01*
X102160000Y-72100000D02*
X103710000Y-70550000D01*
X113100000Y-62800000D02*
X114050000Y-62800000D01*
X105350000Y-70550000D02*
X113100000Y-62800000D01*
%TO.N,ESP_SPI_MOSI*%
X104700000Y-72100000D02*
X113150000Y-63650000D01*
X113150000Y-63650000D02*
X114050000Y-63650000D01*
%TO.N,ESP_SPI_MISO*%
X107716760Y-75791000D02*
X115950000Y-67557760D01*
X104700000Y-74640000D02*
X105851000Y-75791000D01*
X105851000Y-75791000D02*
X107716760Y-75791000D01*
X115950000Y-67557760D02*
X115950000Y-64700000D01*
%TO.N,ESP_FREE5*%
X113698000Y-59400000D02*
X114050000Y-59400000D01*
X107388000Y-65710000D02*
X113698000Y-59400000D01*
X104650000Y-65710000D02*
X107388000Y-65710000D01*
%TO.N,ESP_FREE3*%
X108228000Y-63170000D02*
X113698000Y-57700000D01*
X113698000Y-57700000D02*
X114050000Y-57700000D01*
X104650000Y-63170000D02*
X108228000Y-63170000D01*
%TO.N,ESP_FREE1*%
X104650000Y-60630000D02*
X109168660Y-60630000D01*
X109168660Y-60630000D02*
X113349000Y-56449660D01*
X113349000Y-55651000D02*
X113850000Y-55150000D01*
X113850000Y-55150000D02*
X114050000Y-55150000D01*
X113349000Y-56449660D02*
X113349000Y-55651000D01*
%TO.N,ESP_FREE4*%
X102110000Y-65710000D02*
X103261000Y-64559000D01*
X107689000Y-64559000D02*
X113698000Y-58550000D01*
X113698000Y-58550000D02*
X114050000Y-58550000D01*
X103261000Y-64559000D02*
X107689000Y-64559000D01*
%TO.N,ESP_FREE2*%
X103261000Y-62019000D02*
X108529000Y-62019000D01*
X108529000Y-62019000D02*
X113698000Y-56850000D01*
X102110000Y-63170000D02*
X103261000Y-62019000D01*
X113698000Y-56850000D02*
X114050000Y-56850000D01*
%TO.N,Net-(D1-A)*%
X144750000Y-86000000D02*
X144750000Y-88050000D01*
X144750000Y-88050000D02*
X144850000Y-88150000D01*
%TO.N,Net-(D2-A)*%
X144875000Y-92525000D02*
X144850000Y-92550000D01*
X144875000Y-90400000D02*
X144875000Y-92525000D01*
%TO.N,ESP_FREE6*%
X107239000Y-66861000D02*
X113850000Y-60250000D01*
X102110000Y-68250000D02*
X103499000Y-66861000D01*
X113850000Y-60250000D02*
X114050000Y-60250000D01*
X103499000Y-66861000D02*
X107239000Y-66861000D01*
%TO.N,UART_OUT_RX*%
X177510000Y-68040000D02*
X175500000Y-70050000D01*
X163400000Y-74700000D02*
X159062500Y-74700000D01*
X168050000Y-70050000D02*
X163400000Y-74700000D01*
X175500000Y-70050000D02*
X168050000Y-70050000D01*
%TO.N,UART_OUT_TX*%
X168470000Y-70580000D02*
X163850000Y-75200000D01*
X163850000Y-75200000D02*
X159062500Y-75200000D01*
X177510000Y-70580000D02*
X168470000Y-70580000D01*
%TO.N,Net-(U2-PA5)*%
X150737500Y-73200000D02*
X149966176Y-73200000D01*
X150901000Y-58664840D02*
X145936160Y-53700000D01*
X149371000Y-72604824D02*
X149371000Y-67822000D01*
X149966176Y-73200000D02*
X149371000Y-72604824D01*
X149371000Y-67822000D02*
X150901000Y-66292000D01*
X145936160Y-53700000D02*
X144050000Y-53700000D01*
X150901000Y-66292000D02*
X150901000Y-58664840D01*
%TO.N,Net-(U2-PC15)*%
X156150000Y-69725000D02*
X156150000Y-70787500D01*
X158675000Y-67200000D02*
X158675000Y-64737500D01*
X158675000Y-64737500D02*
X158637500Y-64700000D01*
X158675000Y-67200000D02*
X156150000Y-69725000D01*
%TO.N,BUZZER_PWM*%
X164499000Y-85149000D02*
X168125000Y-88775000D01*
X164499000Y-79597000D02*
X164499000Y-85149000D01*
X168125000Y-88775000D02*
X170835000Y-88775000D01*
X170835000Y-88775000D02*
X174160000Y-92100000D01*
X160602000Y-75700000D02*
X164499000Y-79597000D01*
X159062500Y-75700000D02*
X160602000Y-75700000D01*
%TO.N,CONN_FREE1*%
X164171000Y-85284862D02*
X170986138Y-92100000D01*
X170986138Y-92100000D02*
X171620000Y-92100000D01*
X159062500Y-76200000D02*
X160200000Y-76200000D01*
X164171000Y-80171000D02*
X164171000Y-85284862D01*
X160200000Y-76200000D02*
X164171000Y-80171000D01*
%TO.N,Net-(U2-PB1)*%
X150737500Y-75200000D02*
X152425000Y-75200000D01*
%TO.N,ESP_GPIO39*%
X128751000Y-60751000D02*
X128250000Y-60250000D01*
X128250000Y-60250000D02*
X128050000Y-60250000D01*
X136194000Y-72991000D02*
X131114000Y-72991000D01*
X131114000Y-72991000D02*
X128751000Y-70628000D01*
X136865000Y-71365000D02*
X136865000Y-72320000D01*
X136865000Y-72320000D02*
X136194000Y-72991000D01*
X128751000Y-70628000D02*
X128751000Y-60751000D01*
%TO.N,Net-(D4-K)*%
X144900000Y-63250000D02*
X144900000Y-61250000D01*
%TO.N,Net-(D5-K)*%
X147400000Y-61250000D02*
X147400000Y-63250000D01*
%TO.N,Net-(D6-K)*%
X149900000Y-63250000D02*
X149900000Y-61250000D01*
D48*
%TO.N,5V_CONN*%
X123650000Y-97150000D02*
X124875000Y-97150000D01*
X122650000Y-92550000D02*
X123425000Y-92550000D01*
X124675000Y-96125000D02*
X123650000Y-97150000D01*
X123425000Y-92550000D02*
X124750000Y-92550000D01*
D45*
X125075000Y-96125000D02*
X124675000Y-96125000D01*
D48*
X124750000Y-92550000D02*
X124950000Y-92750000D01*
D45*
X119800000Y-91750000D02*
X119850000Y-91700000D01*
D48*
X124950000Y-92750000D02*
X126175000Y-92750000D01*
X124875000Y-97150000D02*
X125125000Y-96900000D01*
X123650000Y-97150000D02*
X124300000Y-97150000D01*
X118950000Y-91750000D02*
X119800000Y-91750000D01*
X126175000Y-92750000D02*
X126325000Y-92600000D01*
X124300000Y-97150000D02*
X125025000Y-97875000D01*
%TD*%
%TA.AperFunction,Conductor*%
%TO.N,5V_IN*%
G36*
X127098160Y-85294962D02*
G01*
X127152698Y-85349500D01*
X127172660Y-85424000D01*
X127152698Y-85498500D01*
X127098160Y-85553038D01*
X127017689Y-85599497D01*
X126924497Y-85692689D01*
X126858609Y-85806812D01*
X126824500Y-85934106D01*
X126824500Y-85934108D01*
X126824500Y-86065892D01*
X126858608Y-86193186D01*
X126858609Y-86193187D01*
X126924497Y-86307310D01*
X126924498Y-86307311D01*
X126924500Y-86307314D01*
X127017686Y-86400500D01*
X127131814Y-86466392D01*
X127259108Y-86500500D01*
X127390892Y-86500500D01*
X127518186Y-86466392D01*
X127530216Y-86459445D01*
X127604712Y-86439482D01*
X127679213Y-86459441D01*
X127724603Y-86500003D01*
X127777848Y-86572148D01*
X127777851Y-86572151D01*
X127887116Y-86652792D01*
X127887117Y-86652792D01*
X127887118Y-86652793D01*
X128015301Y-86697646D01*
X128045734Y-86700500D01*
X128045741Y-86700500D01*
X129104259Y-86700500D01*
X129104266Y-86700500D01*
X129134699Y-86697646D01*
X129262882Y-86652793D01*
X129372150Y-86572150D01*
X129452793Y-86462882D01*
X129497646Y-86334699D01*
X129500500Y-86304266D01*
X129500500Y-85520734D01*
X129497646Y-85490301D01*
X129491666Y-85473210D01*
X129485903Y-85396298D01*
X129519368Y-85326808D01*
X129583095Y-85283361D01*
X129632305Y-85275000D01*
X131713500Y-85275000D01*
X131788000Y-85294962D01*
X131842538Y-85349500D01*
X131862500Y-85424000D01*
X131862500Y-86394601D01*
X131842538Y-86469101D01*
X131788000Y-86523639D01*
X131713500Y-86543601D01*
X131639000Y-86523639D01*
X131608141Y-86499960D01*
X131568981Y-86460800D01*
X131463894Y-86409426D01*
X131395768Y-86399500D01*
X131395760Y-86399500D01*
X130304240Y-86399500D01*
X130304231Y-86399500D01*
X130236106Y-86409426D01*
X130236105Y-86409426D01*
X130131018Y-86460800D01*
X130048300Y-86543518D01*
X129996926Y-86648605D01*
X129996926Y-86648606D01*
X129987000Y-86716731D01*
X129987000Y-87083268D01*
X129996926Y-87151393D01*
X129996926Y-87151394D01*
X130048300Y-87256481D01*
X130131018Y-87339199D01*
X130236105Y-87390573D01*
X130304231Y-87400499D01*
X130304237Y-87400499D01*
X130304240Y-87400500D01*
X130304241Y-87400500D01*
X131395759Y-87400500D01*
X131395760Y-87400500D01*
X131395763Y-87400499D01*
X131395768Y-87400499D01*
X131463893Y-87390573D01*
X131463894Y-87390573D01*
X131568981Y-87339199D01*
X131568981Y-87339198D01*
X131568983Y-87339198D01*
X131608141Y-87300040D01*
X131674936Y-87261476D01*
X131752064Y-87261476D01*
X131818859Y-87300040D01*
X131857423Y-87366835D01*
X131862500Y-87405399D01*
X131862500Y-90901000D01*
X131842538Y-90975500D01*
X131788000Y-91030038D01*
X131713500Y-91050000D01*
X129891126Y-91050000D01*
X129816626Y-91030038D01*
X129814839Y-91028844D01*
X129744885Y-90988456D01*
X129693186Y-90958608D01*
X129565892Y-90924500D01*
X129434108Y-90924500D01*
X129306814Y-90958608D01*
X129306812Y-90958608D01*
X129306812Y-90958609D01*
X129184228Y-91029383D01*
X129182453Y-91026308D01*
X129128290Y-91048730D01*
X129108874Y-91050000D01*
X127624000Y-91050000D01*
X127549500Y-91030038D01*
X127494962Y-90975500D01*
X127475000Y-90901000D01*
X127475000Y-90700000D01*
X119161718Y-90700000D01*
X119142770Y-90694923D01*
X119123154Y-90694923D01*
X119106166Y-90685115D01*
X119087218Y-90680038D01*
X119056359Y-90656359D01*
X119043641Y-90643641D01*
X119005077Y-90576846D01*
X119000000Y-90538282D01*
X119000000Y-85424000D01*
X119019962Y-85349500D01*
X119074500Y-85294962D01*
X119149000Y-85275000D01*
X127023660Y-85275000D01*
X127098160Y-85294962D01*
G37*
%TD.AperFunction*%
%TD*%
%TA.AperFunction,Conductor*%
%TO.N,GND*%
G36*
X127428326Y-50172174D02*
G01*
X127450000Y-50224500D01*
X127450000Y-51521536D01*
X127449644Y-51528783D01*
X127449500Y-51530246D01*
X127449500Y-51969751D01*
X127449643Y-51971203D01*
X127450000Y-51978459D01*
X127450000Y-52019348D01*
X127428326Y-52071674D01*
X124450000Y-55050000D01*
X124450000Y-61426000D01*
X124428326Y-61478326D01*
X124376000Y-61500000D01*
X117599000Y-61500000D01*
X117546674Y-61478326D01*
X117525000Y-61426000D01*
X117525000Y-54650000D01*
X114771674Y-51896674D01*
X114750000Y-51844348D01*
X114750000Y-50224500D01*
X114771674Y-50172174D01*
X114824000Y-50150500D01*
X127376000Y-50150500D01*
X127428326Y-50172174D01*
G37*
%TD.AperFunction*%
%TD*%
M02*
