%TF.GenerationSoftware,KiCad,Pcbnew,9.0.0*%
%TF.CreationDate,2025-04-01T22:00:14+02:00*%
%TF.ProjectId,BRAIN,42524149-4e2e-46b6-9963-61645f706362,rev?*%
%TF.SameCoordinates,Original*%
%TF.FileFunction,Copper,L4,Bot*%
%TF.FilePolarity,Positive*%
%FSLAX46Y46*%
G04 Gerber Fmt 4.6, Leading zero omitted, Abs format (unit mm)*
G04 Created by KiCad (PCBNEW 9.0.0) date 2025-04-01 22:00:14*
%MOMM*%
%LPD*%
G01*
G04 APERTURE LIST*
G04 Aperture macros list*
%AMRoundRect*
0 Rectangle with rounded corners*
0 $1 Rounding radius*
0 $2 $3 $4 $5 $6 $7 $8 $9 X,Y pos of 4 corners*
0 Add a 4 corners polygon primitive as box body*
4,1,4,$2,$3,$4,$5,$6,$7,$8,$9,$2,$3,0*
0 Add four circle primitives for the rounded corners*
1,1,$1+$1,$2,$3*
1,1,$1+$1,$4,$5*
1,1,$1+$1,$6,$7*
1,1,$1+$1,$8,$9*
0 Add four rect primitives between the rounded corners*
20,1,$1+$1,$2,$3,$4,$5,0*
20,1,$1+$1,$4,$5,$6,$7,0*
20,1,$1+$1,$6,$7,$8,$9,0*
20,1,$1+$1,$8,$9,$2,$3,0*%
G04 Aperture macros list end*
%TA.AperFunction,HeatsinkPad*%
%ADD10O,1.000000X2.100000*%
%TD*%
%TA.AperFunction,HeatsinkPad*%
%ADD11O,1.000000X1.800000*%
%TD*%
%TA.AperFunction,SMDPad,CuDef*%
%ADD12RoundRect,0.250000X0.350000X0.450000X-0.350000X0.450000X-0.350000X-0.450000X0.350000X-0.450000X0*%
%TD*%
%TA.AperFunction,SMDPad,CuDef*%
%ADD13R,3.000000X6.000000*%
%TD*%
%TA.AperFunction,SMDPad,CuDef*%
%ADD14RoundRect,0.150000X0.150000X-0.587500X0.150000X0.587500X-0.150000X0.587500X-0.150000X-0.587500X0*%
%TD*%
%TA.AperFunction,SMDPad,CuDef*%
%ADD15RoundRect,0.250000X-0.350000X-0.450000X0.350000X-0.450000X0.350000X0.450000X-0.350000X0.450000X0*%
%TD*%
%TA.AperFunction,ComponentPad*%
%ADD16R,1.700000X1.700000*%
%TD*%
%TA.AperFunction,ComponentPad*%
%ADD17O,1.700000X1.700000*%
%TD*%
%TA.AperFunction,ComponentPad*%
%ADD18RoundRect,0.250000X-0.600000X-0.750000X0.600000X-0.750000X0.600000X0.750000X-0.600000X0.750000X0*%
%TD*%
%TA.AperFunction,ComponentPad*%
%ADD19O,1.700000X2.000000*%
%TD*%
%TA.AperFunction,SMDPad,CuDef*%
%ADD20RoundRect,0.250000X0.450000X-0.350000X0.450000X0.350000X-0.450000X0.350000X-0.450000X-0.350000X0*%
%TD*%
%TA.AperFunction,SMDPad,CuDef*%
%ADD21R,1.700000X1.000000*%
%TD*%
%TA.AperFunction,ViaPad*%
%ADD22C,0.600000*%
%TD*%
%TA.AperFunction,Conductor*%
%ADD23C,0.400000*%
%TD*%
%TA.AperFunction,Conductor*%
%ADD24C,0.200000*%
%TD*%
%TA.AperFunction,Conductor*%
%ADD25C,0.800000*%
%TD*%
G04 APERTURE END LIST*
D10*
%TO.P,J1,S1,SHIELD*%
%TO.N,GND*%
X103500000Y-93220000D03*
D11*
X103500000Y-97400000D03*
D10*
X112140000Y-93220000D03*
D11*
X112140000Y-97400000D03*
%TD*%
D12*
%TO.P,R15,1*%
%TO.N,Net-(Q2-C)*%
X147500000Y-71750000D03*
%TO.P,R15,2*%
%TO.N,+3V3*%
X145500000Y-71750000D03*
%TD*%
D13*
%TO.P,LS1,1*%
%TO.N,+3V3*%
X141300000Y-63600000D03*
%TO.P,LS1,2*%
%TO.N,Net-(Q2-C)*%
X153300000Y-63600000D03*
%TD*%
D14*
%TO.P,Q2,1,B*%
%TO.N,Net-(Q2-B)*%
X158200000Y-63875000D03*
%TO.P,Q2,2,E*%
%TO.N,GND*%
X156300000Y-63875000D03*
%TO.P,Q2,3,C*%
%TO.N,Net-(Q2-C)*%
X157250000Y-62000000D03*
%TD*%
D15*
%TO.P,R7,1*%
%TO.N,BUZZER_PWM*%
X156250000Y-66250000D03*
%TO.P,R7,2*%
%TO.N,Net-(Q2-B)*%
X158250000Y-66250000D03*
%TD*%
D16*
%TO.P,J12,1,Pin_1*%
%TO.N,GND*%
X175070000Y-58780000D03*
D17*
%TO.P,J12,2,Pin_2*%
%TO.N,I2C_CLK*%
X177610000Y-58780000D03*
%TO.P,J12,3,Pin_3*%
%TO.N,I2C_DATA*%
X175070000Y-61320000D03*
%TO.P,J12,4,Pin_4*%
%TO.N,+3V3*%
X177610000Y-61320000D03*
%TD*%
D16*
%TO.P,J16,1,Pin_1*%
%TO.N,GND*%
X102110000Y-60630000D03*
D17*
%TO.P,J16,2,Pin_2*%
%TO.N,ESP_FREE1*%
X104650000Y-60630000D03*
%TO.P,J16,3,Pin_3*%
%TO.N,ESP_FREE2*%
X102110000Y-63170000D03*
%TO.P,J16,4,Pin_4*%
%TO.N,ESP_FREE3*%
X104650000Y-63170000D03*
%TO.P,J16,5,Pin_5*%
%TO.N,ESP_FREE4*%
X102110000Y-65710000D03*
%TO.P,J16,6,Pin_6*%
%TO.N,ESP_FREE5*%
X104650000Y-65710000D03*
%TO.P,J16,7,Pin_7*%
%TO.N,ESP_FREE6*%
X102110000Y-68250000D03*
%TO.P,J16,8,Pin_8*%
%TO.N,+3V3*%
X104650000Y-68250000D03*
%TD*%
D16*
%TO.P,J13,1,Pin_1*%
%TO.N,ESP_TX*%
X133250000Y-62050000D03*
D17*
%TO.P,J13,2,Pin_2*%
%TO.N,ESP_RX*%
X133250000Y-59510000D03*
%TD*%
D16*
%TO.P,J15,1,Pin_1*%
%TO.N,GND*%
X107240000Y-72100000D03*
D17*
%TO.P,J15,2,Pin_2*%
%TO.N,ESP_SPI_SCK*%
X107240000Y-74640000D03*
%TO.P,J15,3,Pin_3*%
%TO.N,ESP_SPI_MOSI*%
X104700000Y-72100000D03*
%TO.P,J15,4,Pin_4*%
%TO.N,ESP_SPI_MISO*%
X104700000Y-74640000D03*
%TO.P,J15,5,Pin_5*%
%TO.N,ESP_SPI_CS*%
X102160000Y-72100000D03*
%TO.P,J15,6,Pin_6*%
%TO.N,+3V3*%
X102160000Y-74640000D03*
%TD*%
D18*
%TO.P,J10,1,Pin_1*%
%TO.N,GND*%
X121150000Y-97150000D03*
D19*
%TO.P,J10,2,Pin_2*%
%TO.N,5V_CONN*%
X123650000Y-97150000D03*
%TD*%
D16*
%TO.P,J9,1,Pin_1*%
%TO.N,GND*%
X131360000Y-98000000D03*
D17*
%TO.P,J9,2,Pin_2*%
%TO.N,3V3_OUT*%
X133900000Y-98000000D03*
%TD*%
D16*
%TO.P,J17,1,Pin_1*%
%TO.N,GND*%
X175950000Y-51910000D03*
D17*
%TO.P,J17,2,Pin_2*%
%TO.N,3V3_OUT*%
X175950000Y-54450000D03*
%TO.P,J17,3,Pin_3*%
%TO.N,MUX4*%
X173410000Y-51910000D03*
%TO.P,J17,4,Pin_4*%
X173410000Y-54450000D03*
%TO.P,J17,5,Pin_5*%
%TO.N,MUX3*%
X170870000Y-51910000D03*
%TO.P,J17,6,Pin_6*%
X170870000Y-54450000D03*
%TO.P,J17,7,Pin_7*%
%TO.N,MUX2*%
X168330000Y-51910000D03*
%TO.P,J17,8,Pin_8*%
X168330000Y-54450000D03*
%TO.P,J17,9,Pin_9*%
%TO.N,MUX1*%
X165790000Y-51910000D03*
%TO.P,J17,10,Pin_10*%
X165790000Y-54450000D03*
%TO.P,J17,11,Pin_11*%
%TO.N,SIG2*%
X163250000Y-51910000D03*
%TO.P,J17,12,Pin_12*%
%TO.N,SIG1*%
X163250000Y-54450000D03*
%TO.P,J17,13,Pin_13*%
%TO.N,SIG4*%
X160710000Y-51910000D03*
%TO.P,J17,14,Pin_14*%
%TO.N,SIG3*%
X160710000Y-54450000D03*
%TO.P,J17,15,Pin_15*%
%TO.N,MUX1*%
X158170000Y-51910000D03*
%TO.P,J17,16,Pin_16*%
X158170000Y-54450000D03*
%TO.P,J17,17,Pin_17*%
%TO.N,MUX2*%
X155630000Y-51910000D03*
%TO.P,J17,18,Pin_18*%
X155630000Y-54450000D03*
%TO.P,J17,19,Pin_19*%
%TO.N,MUX3*%
X153090000Y-51910000D03*
%TO.P,J17,20,Pin_20*%
X153090000Y-54450000D03*
%TO.P,J17,21,Pin_21*%
%TO.N,MUX4*%
X150550000Y-51910000D03*
%TO.P,J17,22,Pin_22*%
X150550000Y-54450000D03*
%TD*%
D16*
%TO.P,J18,1,Pin_1*%
%TO.N,GND*%
X176700000Y-92100000D03*
D17*
%TO.P,J18,2,Pin_2*%
%TO.N,BUZZER_PWM*%
X174160000Y-92100000D03*
%TO.P,J18,3,Pin_3*%
%TO.N,CONN_FREE1*%
X171620000Y-92100000D03*
%TO.P,J18,4,Pin_4*%
%TO.N,CONN_FREE2*%
X169080000Y-92100000D03*
%TD*%
D16*
%TO.P,J14,1,Pin_1*%
%TO.N,GND*%
X177510000Y-65500000D03*
D17*
%TO.P,J14,2,Pin_2*%
%TO.N,UART_OUT_RX*%
X177510000Y-68040000D03*
%TO.P,J14,3,Pin_3*%
%TO.N,UART_OUT_TX*%
X177510000Y-70580000D03*
%TO.P,J14,4,Pin_4*%
%TO.N,+3V3*%
X177510000Y-73120000D03*
%TD*%
D20*
%TO.P,R13,1*%
%TO.N,+3V3*%
X117600000Y-76550000D03*
%TO.P,R13,2*%
%TO.N,ESP_DOWNLOAD*%
X117600000Y-74550000D03*
%TD*%
D12*
%TO.P,R11,1*%
%TO.N,Net-(U2-PB1)*%
X131350000Y-74600000D03*
%TO.P,R11,2*%
%TO.N,ESP_DOWNLOAD*%
X129350000Y-74600000D03*
%TD*%
D21*
%TO.P,SW1,1,1*%
%TO.N,GND*%
X120500000Y-78500000D03*
X126800000Y-78500000D03*
%TO.P,SW1,2,2*%
%TO.N,ESP_DOWNLOAD*%
X120500000Y-74700000D03*
X126800000Y-74700000D03*
%TD*%
D16*
%TO.P,J11,1,Pin_1*%
%TO.N,TOUCH_IRQ*%
X143020000Y-97900000D03*
D17*
%TO.P,J11,2,Pin_2*%
%TO.N,TOUCH_DO_MISO*%
X145560000Y-97900000D03*
%TO.P,J11,3,Pin_3*%
%TO.N,TOUCH_DIN_MOSI*%
X148100000Y-97900000D03*
%TO.P,J11,4,Pin_4*%
%TO.N,TOUCH_CS*%
X150640000Y-97900000D03*
%TO.P,J11,5,Pin_5*%
%TO.N,TOUCH_CLK*%
X153180000Y-97900000D03*
%TO.P,J11,6,Pin_6*%
%TO.N,TFT_SPI_MISO*%
X155720000Y-97900000D03*
%TO.P,J11,7,Pin_7*%
%TO.N,+3V3*%
X158260000Y-97900000D03*
%TO.P,J11,8,Pin_8*%
%TO.N,TFT_SPI_SCK*%
X160800000Y-97900000D03*
%TO.P,J11,9,Pin_9*%
%TO.N,TFT_SPI_MOSI*%
X163340000Y-97900000D03*
%TO.P,J11,10,Pin_10*%
%TO.N,TFT_DC*%
X165880000Y-97900000D03*
%TO.P,J11,11,Pin_11*%
%TO.N,TFT_RESET*%
X168420000Y-97900000D03*
%TO.P,J11,12,Pin_12*%
%TO.N,TFT_SPI_CS*%
X170960000Y-97900000D03*
%TO.P,J11,13,Pin_13*%
%TO.N,GND*%
X173500000Y-97900000D03*
%TO.P,J11,14,Pin_14*%
%TO.N,+3V3*%
X176040000Y-97900000D03*
%TD*%
D22*
%TO.N,GND*%
X162000000Y-56750000D03*
X178750000Y-96750000D03*
X170000000Y-89500000D03*
X164000000Y-95500000D03*
%TO.N,+3V3*%
X144750000Y-72750000D03*
%TO.N,BUZZER_PWM*%
X156827545Y-72763797D03*
%TO.N,NRST*%
X154650000Y-73500000D03*
X166700000Y-73500000D03*
%TO.N,GND*%
X139000000Y-57000000D03*
X128250000Y-79000000D03*
X108500000Y-66480000D03*
X165125000Y-82725000D03*
X133500000Y-57000000D03*
X113275000Y-98050000D03*
X119125000Y-54750000D03*
X118500000Y-51700000D03*
X103875000Y-91525000D03*
X128900000Y-93700000D03*
X121925000Y-60750000D03*
X140000000Y-57000000D03*
X119000000Y-78250000D03*
X118100000Y-58475000D03*
X140000000Y-59000000D03*
X173750000Y-96250000D03*
X121000000Y-54725000D03*
X147000000Y-51000000D03*
X121125000Y-51675000D03*
X147400000Y-82650000D03*
X137900000Y-80100000D03*
X107940000Y-61350000D03*
X102000000Y-78000000D03*
X120225000Y-60725000D03*
X140000000Y-71000000D03*
X122000000Y-94000000D03*
X123975000Y-56825000D03*
X154150000Y-72250000D03*
X102300000Y-96475000D03*
X124000000Y-67000000D03*
X175250000Y-50500000D03*
X123575000Y-51675000D03*
X107500000Y-52500000D03*
X101000000Y-95000000D03*
X101750000Y-59000000D03*
X102350000Y-93850000D03*
X129150000Y-53475000D03*
X123950000Y-57650000D03*
X118330000Y-82640000D03*
X102750000Y-59000000D03*
X121925000Y-51700000D03*
X132500000Y-57000000D03*
X129250000Y-54250000D03*
X125300000Y-51650000D03*
X149250000Y-77375000D03*
X136250000Y-51000000D03*
X154900000Y-74950000D03*
X112975000Y-51275000D03*
X173000000Y-96250000D03*
X176250000Y-90500000D03*
X175500000Y-57250000D03*
X128050000Y-65700000D03*
X155000000Y-58000000D03*
X162000000Y-64750000D03*
X147250000Y-58000000D03*
X164250000Y-64250000D03*
X124000000Y-73000000D03*
X132175000Y-86875000D03*
X114025000Y-65750000D03*
X112750000Y-52500000D03*
X118150000Y-55925000D03*
X149000000Y-87000000D03*
X118250000Y-55150000D03*
X165025000Y-77300000D03*
X111760000Y-66940000D03*
X115100000Y-51725000D03*
X119000000Y-79000000D03*
X174750000Y-57250000D03*
X164000000Y-62000000D03*
X118200000Y-60550000D03*
X176000000Y-65750000D03*
X176225000Y-78300000D03*
X158000000Y-91000000D03*
X161450000Y-83100000D03*
X176000000Y-65000000D03*
X103000000Y-51000000D03*
X128250000Y-78250000D03*
X105425000Y-86300000D03*
X118000000Y-57775000D03*
X157150000Y-80575000D03*
X114270000Y-75110000D03*
X108000000Y-56750000D03*
X165100000Y-83800000D03*
X121850000Y-54700000D03*
X111000000Y-78000000D03*
X169225000Y-61100000D03*
X113125000Y-92650000D03*
X119550000Y-97125000D03*
X173600000Y-78350000D03*
X119550000Y-96425000D03*
X126460000Y-60420000D03*
X170450000Y-61100000D03*
X113375000Y-88975000D03*
X171300000Y-66150000D03*
X177500000Y-52500000D03*
X131785000Y-65115000D03*
X124425000Y-51675000D03*
X113225000Y-93725000D03*
X124000000Y-83000000D03*
X120200000Y-54725000D03*
X121050000Y-60725000D03*
X119025000Y-93750000D03*
X108200000Y-70350000D03*
X112975000Y-50600000D03*
X103000000Y-55000000D03*
X147450000Y-77800000D03*
X166875000Y-74550000D03*
X115950000Y-51700000D03*
X135025000Y-84600000D03*
X159175000Y-83200000D03*
X134535000Y-65115000D03*
X116825000Y-51700000D03*
X128000000Y-99000000D03*
X139000000Y-99000000D03*
X167950000Y-61250000D03*
X135450000Y-93475000D03*
X123950000Y-58550000D03*
X157150000Y-77650000D03*
X119300000Y-60650000D03*
X149250000Y-58000000D03*
X177475000Y-78250000D03*
X122800000Y-60625000D03*
X130750000Y-55250000D03*
X127000000Y-51700000D03*
X118075000Y-56875000D03*
X165025000Y-76350000D03*
X107400000Y-70325000D03*
X113225000Y-96975000D03*
X119550000Y-97875000D03*
X157625000Y-72700000D03*
X170340000Y-71190000D03*
X123875000Y-54900000D03*
X108000000Y-99000000D03*
X152300000Y-77200000D03*
X163250000Y-70625000D03*
X144750000Y-58000000D03*
X119375000Y-51700000D03*
X122875000Y-54700000D03*
X122725000Y-51700000D03*
X171750000Y-61175000D03*
X131725000Y-96375000D03*
X141475000Y-90225000D03*
X129025000Y-50675000D03*
X177250000Y-90500000D03*
X111750000Y-91625000D03*
X116975000Y-93775000D03*
X123975000Y-59450000D03*
X118050000Y-59425000D03*
X102350000Y-92700000D03*
X102000000Y-86000000D03*
X127325000Y-86000000D03*
X134700000Y-93475000D03*
X123975000Y-55950000D03*
X117000000Y-73000000D03*
X171750000Y-57000000D03*
X115690000Y-60340000D03*
X117625000Y-51700000D03*
X135785000Y-65115000D03*
X141450000Y-88050000D03*
X126125000Y-51650000D03*
X174000000Y-88000000D03*
X123775000Y-60400000D03*
X120250000Y-51700000D03*
X130550000Y-96450000D03*
X128200000Y-93675000D03*
X129500000Y-91425000D03*
X116000000Y-99000000D03*
X102075000Y-97325000D03*
%TO.N,+3V3*%
X157725000Y-96300000D03*
X136475000Y-87400000D03*
X107600000Y-54425000D03*
X153900000Y-68725000D03*
X178775000Y-82375000D03*
X116175000Y-76500000D03*
X102025000Y-76300000D03*
X138100000Y-67175000D03*
X141475000Y-86025000D03*
X171950000Y-85875000D03*
X158575000Y-96275000D03*
X175625000Y-96350000D03*
X158405388Y-80800000D03*
X136500000Y-88125000D03*
X133000000Y-84925000D03*
X177650000Y-63050000D03*
X106250000Y-68400000D03*
X158575000Y-70575000D03*
X141750000Y-55100000D03*
X177575000Y-74950000D03*
X176375000Y-96350000D03*
X149675000Y-82800000D03*
X172850000Y-67900000D03*
%TO.N,5V_USB*%
X110170000Y-91400000D03*
X104650000Y-91000000D03*
X115075000Y-88175000D03*
X116050000Y-91725000D03*
X115100000Y-89200000D03*
X105075000Y-91450000D03*
X110200000Y-90775000D03*
%TO.N,ESP_DOWNLOAD*%
X110450000Y-58325000D03*
%TO.N,ESP_EN*%
X130125000Y-70425000D03*
X135800000Y-60825000D03*
%TO.N,3V3_OUT*%
X133100000Y-91425000D03*
X136550000Y-90275000D03*
X141575000Y-92400000D03*
X133150000Y-89925000D03*
X135675000Y-97275000D03*
X135575000Y-98625000D03*
%TO.N,SWDIO*%
X161550000Y-85175000D03*
X165500000Y-85100000D03*
%TO.N,SWCLK*%
X160575000Y-78275000D03*
X171299000Y-82124000D03*
%TO.N,TFT_SPI_CS*%
X163150000Y-88200000D03*
X157805388Y-77191229D03*
%TO.N,TFT_RESET*%
X163038500Y-92550000D03*
X155150000Y-77900000D03*
%TO.N,CONN_FREE2*%
X157575000Y-74225000D03*
X163475000Y-80425000D03*
%TO.N,3V3_OUT_EN*%
X147600000Y-76300000D03*
X152350000Y-76250000D03*
%TO.N,Net-(U2-PB1)*%
X152425000Y-75200000D03*
%TO.N,5V_CONN*%
X122650000Y-92550000D03*
X125025000Y-97875000D03*
X119850000Y-91700000D03*
X126325000Y-92600000D03*
X123425000Y-92550000D03*
X125075000Y-96125000D03*
X125125000Y-96900000D03*
%TD*%
D23*
%TO.N,+3V3*%
X145450000Y-65850000D02*
X143200000Y-63600000D01*
X145450000Y-72050000D02*
X145450000Y-65850000D01*
X144750000Y-72750000D02*
X145450000Y-72050000D01*
X143200000Y-63600000D02*
X141300000Y-63600000D01*
%TO.N,Net-(Q2-C)*%
X148750000Y-68150000D02*
X153300000Y-63600000D01*
X148750000Y-70500000D02*
X148750000Y-68150000D01*
X147500000Y-71750000D02*
X148750000Y-70500000D01*
D24*
X154900000Y-62000000D02*
X153300000Y-63600000D01*
X157250000Y-62000000D02*
X154900000Y-62000000D01*
%TO.N,Net-(Q2-B)*%
X158250000Y-66250000D02*
X158250000Y-63925000D01*
X158250000Y-63925000D02*
X158200000Y-63875000D01*
%TO.N,BUZZER_PWM*%
X156250000Y-72186252D02*
X156250000Y-66250000D01*
X156827545Y-72763797D02*
X156250000Y-72186252D01*
%TO.N,NRST*%
X166700000Y-73500000D02*
X154650000Y-73500000D01*
%TO.N,GND*%
X128250000Y-78250000D02*
X127050000Y-78250000D01*
X127300000Y-79000000D02*
X126800000Y-78500000D01*
X120250000Y-78250000D02*
X120500000Y-78500000D01*
X119000000Y-79000000D02*
X120000000Y-79000000D01*
X120000000Y-79000000D02*
X120500000Y-78500000D01*
X128250000Y-79000000D02*
X127300000Y-79000000D01*
X119000000Y-78250000D02*
X120250000Y-78250000D01*
X127050000Y-78250000D02*
X126800000Y-78500000D01*
%TO.N,+3V3*%
X117550000Y-76500000D02*
X117600000Y-76550000D01*
X116175000Y-76500000D02*
X117550000Y-76500000D01*
%TO.N,ESP_DOWNLOAD*%
X126900000Y-74600000D02*
X126800000Y-74700000D01*
X126800000Y-74700000D02*
X120500000Y-74700000D01*
X110450000Y-67400000D02*
X110450000Y-58325000D01*
X120500000Y-74700000D02*
X120225000Y-74700000D01*
X129350000Y-74600000D02*
X126900000Y-74600000D01*
X117600000Y-74550000D02*
X110450000Y-67400000D01*
X120075000Y-74550000D02*
X117600000Y-74550000D01*
X120225000Y-74700000D02*
X120075000Y-74550000D01*
%TO.N,ESP_EN*%
X132386000Y-65216000D02*
X135800000Y-61802000D01*
X130125000Y-70425000D02*
X132386000Y-68164000D01*
X135800000Y-61802000D02*
X135800000Y-60825000D01*
X132386000Y-68164000D02*
X132386000Y-65216000D01*
%TO.N,SWDIO*%
X165500000Y-85100000D02*
X161625000Y-85100000D01*
X161625000Y-85100000D02*
X161550000Y-85175000D01*
%TO.N,SWCLK*%
X171299000Y-82124000D02*
X164324057Y-82124000D01*
X160575000Y-78374943D02*
X160575000Y-78275000D01*
X164324057Y-82124000D02*
X160575000Y-78374943D01*
%TO.N,MUX3*%
X169719000Y-53299000D02*
X170870000Y-54450000D01*
X154241000Y-53299000D02*
X169719000Y-53299000D01*
X153090000Y-54450000D02*
X154241000Y-53299000D01*
%TO.N,MUX4*%
X172259000Y-50759000D02*
X173410000Y-51910000D01*
X151701000Y-50759000D02*
X172259000Y-50759000D01*
X150550000Y-51910000D02*
X151701000Y-50759000D01*
%TO.N,TFT_SPI_CS*%
X163150000Y-88200000D02*
X157805388Y-82855388D01*
X157805388Y-82855388D02*
X157805388Y-77191229D01*
%TO.N,TFT_RESET*%
X163038500Y-92550000D02*
X155150000Y-84661500D01*
X155150000Y-84661500D02*
X155150000Y-77900000D01*
%TO.N,CONN_FREE2*%
X163475000Y-80125000D02*
X157575000Y-74225000D01*
X163475000Y-80425000D02*
X163475000Y-80125000D01*
%TO.N,3V3_OUT_EN*%
X152300000Y-76300000D02*
X147600000Y-76300000D01*
X152350000Y-76250000D02*
X152300000Y-76300000D01*
%TO.N,Net-(U2-PB1)*%
X151825000Y-74600000D02*
X131350000Y-74600000D01*
X152425000Y-75200000D02*
X151825000Y-74600000D01*
D25*
%TO.N,3V3_OUT*%
X136526000Y-95374000D02*
X133900000Y-98000000D01*
X161488707Y-95374000D02*
X136526000Y-95374000D01*
X163939500Y-92923207D02*
X161488707Y-95374000D01*
X163939500Y-92176793D02*
X163939500Y-92923207D01*
X172200000Y-83916293D02*
X163939500Y-92176793D01*
X172200000Y-78475793D02*
X172200000Y-83916293D01*
X173751000Y-76924793D02*
X172200000Y-78475793D01*
X173299000Y-67074793D02*
X173751000Y-67526793D01*
X173751000Y-67526793D02*
X173751000Y-76924793D01*
X173299000Y-57101000D02*
X173299000Y-67074793D01*
X175950000Y-54450000D02*
X173299000Y-57101000D01*
%TD*%
%TA.AperFunction,Conductor*%
%TO.N,GND*%
G36*
X177915465Y-50151506D02*
G01*
X177917957Y-50150664D01*
X177941297Y-50162206D01*
X177965361Y-50172174D01*
X177966367Y-50174604D01*
X177968726Y-50175771D01*
X177977069Y-50200441D01*
X177987035Y-50224500D01*
X177986028Y-50226930D01*
X177986871Y-50229422D01*
X177975328Y-50252762D01*
X177965361Y-50276826D01*
X177965345Y-50276840D01*
X177828894Y-50413292D01*
X177828885Y-50413301D01*
X177717161Y-50567075D01*
X177630863Y-50736447D01*
X177572130Y-50917207D01*
X177572127Y-50917220D01*
X177542393Y-51104958D01*
X177542393Y-51295041D01*
X177572127Y-51482779D01*
X177572130Y-51482792D01*
X177630863Y-51663552D01*
X177717161Y-51832924D01*
X177828885Y-51986698D01*
X177828889Y-51986703D01*
X177963297Y-52121111D01*
X177963300Y-52121113D01*
X177963301Y-52121114D01*
X178117075Y-52232838D01*
X178191569Y-52270794D01*
X178286440Y-52319133D01*
X178286443Y-52319133D01*
X178286447Y-52319136D01*
X178467207Y-52377869D01*
X178467213Y-52377870D01*
X178467218Y-52377872D01*
X178592378Y-52397695D01*
X178654958Y-52407607D01*
X178654959Y-52407607D01*
X178845042Y-52407607D01*
X178891976Y-52400173D01*
X179032782Y-52377872D01*
X179032789Y-52377869D01*
X179032792Y-52377869D01*
X179213552Y-52319136D01*
X179213554Y-52319134D01*
X179213560Y-52319133D01*
X179382924Y-52232838D01*
X179382932Y-52232831D01*
X179385396Y-52231323D01*
X179386130Y-52232521D01*
X179437056Y-52220281D01*
X179485356Y-52249861D01*
X179499500Y-52293373D01*
X179499500Y-97656626D01*
X179477826Y-97708952D01*
X179425500Y-97730626D01*
X179385946Y-97717778D01*
X179385396Y-97718677D01*
X179382924Y-97717162D01*
X179301157Y-97675500D01*
X179213560Y-97630867D01*
X179213559Y-97630866D01*
X179213552Y-97630863D01*
X179032792Y-97572130D01*
X179032779Y-97572127D01*
X178845042Y-97542393D01*
X178845041Y-97542393D01*
X178654959Y-97542393D01*
X178654958Y-97542393D01*
X178467220Y-97572127D01*
X178467207Y-97572130D01*
X178286447Y-97630863D01*
X178117075Y-97717161D01*
X177963301Y-97828885D01*
X177828885Y-97963301D01*
X177717161Y-98117075D01*
X177630863Y-98286447D01*
X177572130Y-98467207D01*
X177572127Y-98467220D01*
X177542393Y-98654958D01*
X177542393Y-98845041D01*
X177572127Y-99032779D01*
X177572130Y-99032792D01*
X177630863Y-99213552D01*
X177717162Y-99382924D01*
X177718677Y-99385396D01*
X177717487Y-99386125D01*
X177729713Y-99437090D01*
X177700111Y-99485375D01*
X177656626Y-99499500D01*
X102369673Y-99499500D01*
X102317347Y-99477826D01*
X102295673Y-99425500D01*
X102303738Y-99391905D01*
X102306683Y-99386125D01*
X102369133Y-99263560D01*
X102385380Y-99213560D01*
X102427869Y-99082792D01*
X102427869Y-99082789D01*
X102427872Y-99082782D01*
X102457607Y-98895041D01*
X102457607Y-98704959D01*
X102452015Y-98669655D01*
X102445452Y-98628213D01*
X102427872Y-98517218D01*
X102427870Y-98517213D01*
X102427869Y-98517207D01*
X102369136Y-98336447D01*
X102369133Y-98336443D01*
X102369133Y-98336440D01*
X102302881Y-98206413D01*
X102282838Y-98167075D01*
X102171114Y-98013301D01*
X102171113Y-98013300D01*
X102171111Y-98013297D01*
X102036703Y-97878889D01*
X102036700Y-97878886D01*
X102036698Y-97878885D01*
X101882924Y-97767161D01*
X101715426Y-97681818D01*
X101713560Y-97680867D01*
X101713559Y-97680866D01*
X101713552Y-97680863D01*
X101532792Y-97622130D01*
X101532779Y-97622127D01*
X101345042Y-97592393D01*
X101345041Y-97592393D01*
X101154959Y-97592393D01*
X101154958Y-97592393D01*
X100967220Y-97622127D01*
X100967207Y-97622130D01*
X100786447Y-97680863D01*
X100717595Y-97715945D01*
X100661132Y-97720388D01*
X100618065Y-97683605D01*
X100610000Y-97650010D01*
X100610000Y-96896535D01*
X122599500Y-96896535D01*
X122599500Y-97403465D01*
X122609455Y-97453516D01*
X122639868Y-97606413D01*
X122639870Y-97606420D01*
X122719059Y-97797598D01*
X122829774Y-97963297D01*
X122834023Y-97969655D01*
X122980345Y-98115977D01*
X123152402Y-98230941D01*
X123343580Y-98310130D01*
X123546535Y-98350500D01*
X123546536Y-98350500D01*
X123753464Y-98350500D01*
X123753465Y-98350500D01*
X123956420Y-98310130D01*
X124147598Y-98230941D01*
X124319655Y-98115977D01*
X124427580Y-98008051D01*
X124479905Y-97986378D01*
X124532231Y-98008052D01*
X124551383Y-98041224D01*
X124557860Y-98065395D01*
X124558608Y-98068186D01*
X124624500Y-98182314D01*
X124717686Y-98275500D01*
X124831814Y-98341392D01*
X124959105Y-98375499D01*
X124959106Y-98375500D01*
X124959108Y-98375500D01*
X125090894Y-98375500D01*
X125090894Y-98375499D01*
X125218186Y-98341392D01*
X125332314Y-98275500D01*
X125425500Y-98182314D01*
X125491392Y-98068186D01*
X125525499Y-97940894D01*
X125525500Y-97940894D01*
X125525500Y-97896535D01*
X132849500Y-97896535D01*
X132849500Y-98103465D01*
X132853684Y-98124500D01*
X132889868Y-98306413D01*
X132889870Y-98306420D01*
X132969059Y-98497598D01*
X133074203Y-98654959D01*
X133084023Y-98669655D01*
X133230345Y-98815977D01*
X133402402Y-98930941D01*
X133593580Y-99010130D01*
X133796535Y-99050500D01*
X133796536Y-99050500D01*
X134003464Y-99050500D01*
X134003465Y-99050500D01*
X134206420Y-99010130D01*
X134397598Y-98930941D01*
X134569655Y-98815977D01*
X134715977Y-98669655D01*
X134789844Y-98559105D01*
X135074500Y-98559105D01*
X135074500Y-98690894D01*
X135108606Y-98818181D01*
X135108610Y-98818190D01*
X135124113Y-98845041D01*
X135174500Y-98932314D01*
X135267686Y-99025500D01*
X135381814Y-99091392D01*
X135509105Y-99125499D01*
X135509106Y-99125500D01*
X135509108Y-99125500D01*
X135640894Y-99125500D01*
X135640894Y-99125499D01*
X135768186Y-99091392D01*
X135882314Y-99025500D01*
X135975500Y-98932314D01*
X136041392Y-98818186D01*
X136075499Y-98690894D01*
X136075500Y-98690894D01*
X136075500Y-98559106D01*
X136075499Y-98559105D01*
X136063184Y-98513146D01*
X136041392Y-98431814D01*
X135975500Y-98317686D01*
X135882314Y-98224500D01*
X135850999Y-98206420D01*
X135768190Y-98158610D01*
X135768181Y-98158606D01*
X135640894Y-98124500D01*
X135640892Y-98124500D01*
X135509108Y-98124500D01*
X135509106Y-98124500D01*
X135381818Y-98158606D01*
X135381809Y-98158610D01*
X135267685Y-98224500D01*
X135174500Y-98317685D01*
X135108610Y-98431809D01*
X135108606Y-98431818D01*
X135074500Y-98559105D01*
X134789844Y-98559105D01*
X134830941Y-98497598D01*
X134910130Y-98306420D01*
X134950500Y-98103465D01*
X134950500Y-97896535D01*
X134941990Y-97853752D01*
X134953039Y-97798205D01*
X134962237Y-97786996D01*
X135168384Y-97580850D01*
X135220710Y-97559176D01*
X135273036Y-97580850D01*
X135274500Y-97582314D01*
X135367686Y-97675500D01*
X135481814Y-97741392D01*
X135609105Y-97775499D01*
X135609106Y-97775500D01*
X135609108Y-97775500D01*
X135740894Y-97775500D01*
X135740894Y-97775499D01*
X135868186Y-97741392D01*
X135982314Y-97675500D01*
X136075500Y-97582314D01*
X136141392Y-97468186D01*
X136175499Y-97340894D01*
X136175500Y-97340894D01*
X136175500Y-97209106D01*
X136175499Y-97209105D01*
X136168778Y-97184023D01*
X136141392Y-97081814D01*
X136111623Y-97030252D01*
X141969500Y-97030252D01*
X141969500Y-98769748D01*
X141977255Y-98808736D01*
X141981133Y-98828232D01*
X141989202Y-98840307D01*
X142025448Y-98894552D01*
X142066207Y-98921787D01*
X142091767Y-98938866D01*
X142091768Y-98938866D01*
X142091769Y-98938867D01*
X142150252Y-98950500D01*
X142150254Y-98950500D01*
X143889746Y-98950500D01*
X143889748Y-98950500D01*
X143948231Y-98938867D01*
X144014552Y-98894552D01*
X144058867Y-98828231D01*
X144070500Y-98769748D01*
X144070500Y-97796535D01*
X144509500Y-97796535D01*
X144509500Y-98003465D01*
X144517011Y-98041224D01*
X144549868Y-98206413D01*
X144549870Y-98206420D01*
X144629059Y-98397598D01*
X144736975Y-98559108D01*
X144744023Y-98569655D01*
X144890345Y-98715977D01*
X145062402Y-98830941D01*
X145253580Y-98910130D01*
X145456535Y-98950500D01*
X145456536Y-98950500D01*
X145663464Y-98950500D01*
X145663465Y-98950500D01*
X145866420Y-98910130D01*
X146057598Y-98830941D01*
X146229655Y-98715977D01*
X146375977Y-98569655D01*
X146490941Y-98397598D01*
X146570130Y-98206420D01*
X146610500Y-98003465D01*
X146610500Y-97796535D01*
X147049500Y-97796535D01*
X147049500Y-98003465D01*
X147057011Y-98041224D01*
X147089868Y-98206413D01*
X147089870Y-98206420D01*
X147169059Y-98397598D01*
X147276975Y-98559108D01*
X147284023Y-98569655D01*
X147430345Y-98715977D01*
X147602402Y-98830941D01*
X147793580Y-98910130D01*
X147996535Y-98950500D01*
X147996536Y-98950500D01*
X148203464Y-98950500D01*
X148203465Y-98950500D01*
X148406420Y-98910130D01*
X148597598Y-98830941D01*
X148769655Y-98715977D01*
X148915977Y-98569655D01*
X149030941Y-98397598D01*
X149110130Y-98206420D01*
X149150500Y-98003465D01*
X149150500Y-97796535D01*
X149589500Y-97796535D01*
X149589500Y-98003465D01*
X149597011Y-98041224D01*
X149629868Y-98206413D01*
X149629870Y-98206420D01*
X149709059Y-98397598D01*
X149816975Y-98559108D01*
X149824023Y-98569655D01*
X149970345Y-98715977D01*
X150142402Y-98830941D01*
X150333580Y-98910130D01*
X150536535Y-98950500D01*
X150536536Y-98950500D01*
X150743464Y-98950500D01*
X150743465Y-98950500D01*
X150946420Y-98910130D01*
X151137598Y-98830941D01*
X151309655Y-98715977D01*
X151455977Y-98569655D01*
X151570941Y-98397598D01*
X151650130Y-98206420D01*
X151690500Y-98003465D01*
X151690500Y-97796535D01*
X152129500Y-97796535D01*
X152129500Y-98003465D01*
X152137011Y-98041224D01*
X152169868Y-98206413D01*
X152169870Y-98206420D01*
X152249059Y-98397598D01*
X152356975Y-98559108D01*
X152364023Y-98569655D01*
X152510345Y-98715977D01*
X152682402Y-98830941D01*
X152873580Y-98910130D01*
X153076535Y-98950500D01*
X153076536Y-98950500D01*
X153283464Y-98950500D01*
X153283465Y-98950500D01*
X153486420Y-98910130D01*
X153677598Y-98830941D01*
X153849655Y-98715977D01*
X153995977Y-98569655D01*
X154110941Y-98397598D01*
X154190130Y-98206420D01*
X154230500Y-98003465D01*
X154230500Y-97796535D01*
X154669500Y-97796535D01*
X154669500Y-98003465D01*
X154677011Y-98041224D01*
X154709868Y-98206413D01*
X154709870Y-98206420D01*
X154789059Y-98397598D01*
X154896975Y-98559108D01*
X154904023Y-98569655D01*
X155050345Y-98715977D01*
X155222402Y-98830941D01*
X155413580Y-98910130D01*
X155616535Y-98950500D01*
X155616536Y-98950500D01*
X155823464Y-98950500D01*
X155823465Y-98950500D01*
X156026420Y-98910130D01*
X156217598Y-98830941D01*
X156389655Y-98715977D01*
X156535977Y-98569655D01*
X156650941Y-98397598D01*
X156730130Y-98206420D01*
X156770500Y-98003465D01*
X156770500Y-97796535D01*
X156730130Y-97593580D01*
X156650941Y-97402402D01*
X156535977Y-97230345D01*
X156389655Y-97084023D01*
X156386341Y-97081809D01*
X156217598Y-96969059D01*
X156026420Y-96889870D01*
X156026413Y-96889868D01*
X155873516Y-96859455D01*
X155823465Y-96849500D01*
X155616535Y-96849500D01*
X155576385Y-96857486D01*
X155413586Y-96889868D01*
X155413579Y-96889870D01*
X155222401Y-96969059D01*
X155050345Y-97084022D01*
X155050344Y-97084024D01*
X154904024Y-97230344D01*
X154904022Y-97230345D01*
X154789059Y-97402401D01*
X154709870Y-97593579D01*
X154709868Y-97593586D01*
X154673684Y-97775499D01*
X154669500Y-97796535D01*
X154230500Y-97796535D01*
X154190130Y-97593580D01*
X154110941Y-97402402D01*
X153995977Y-97230345D01*
X153849655Y-97084023D01*
X153846341Y-97081809D01*
X153677598Y-96969059D01*
X153486420Y-96889870D01*
X153486413Y-96889868D01*
X153333516Y-96859455D01*
X153283465Y-96849500D01*
X153076535Y-96849500D01*
X153036385Y-96857486D01*
X152873586Y-96889868D01*
X152873579Y-96889870D01*
X152682401Y-96969059D01*
X152510345Y-97084022D01*
X152510344Y-97084024D01*
X152364024Y-97230344D01*
X152364022Y-97230345D01*
X152249059Y-97402401D01*
X152169870Y-97593579D01*
X152169868Y-97593586D01*
X152133684Y-97775499D01*
X152129500Y-97796535D01*
X151690500Y-97796535D01*
X151650130Y-97593580D01*
X151570941Y-97402402D01*
X151455977Y-97230345D01*
X151309655Y-97084023D01*
X151306341Y-97081809D01*
X151137598Y-96969059D01*
X150946420Y-96889870D01*
X150946413Y-96889868D01*
X150793516Y-96859455D01*
X150743465Y-96849500D01*
X150536535Y-96849500D01*
X150496385Y-96857486D01*
X150333586Y-96889868D01*
X150333579Y-96889870D01*
X150142401Y-96969059D01*
X149970345Y-97084022D01*
X149970344Y-97084024D01*
X149824024Y-97230344D01*
X149824022Y-97230345D01*
X149709059Y-97402401D01*
X149629870Y-97593579D01*
X149629868Y-97593586D01*
X149593684Y-97775499D01*
X149589500Y-97796535D01*
X149150500Y-97796535D01*
X149110130Y-97593580D01*
X149030941Y-97402402D01*
X148915977Y-97230345D01*
X148769655Y-97084023D01*
X148766341Y-97081809D01*
X148597598Y-96969059D01*
X148406420Y-96889870D01*
X148406413Y-96889868D01*
X148253516Y-96859455D01*
X148203465Y-96849500D01*
X147996535Y-96849500D01*
X147956385Y-96857486D01*
X147793586Y-96889868D01*
X147793579Y-96889870D01*
X147602401Y-96969059D01*
X147430345Y-97084022D01*
X147430344Y-97084024D01*
X147284024Y-97230344D01*
X147284022Y-97230345D01*
X147169059Y-97402401D01*
X147089870Y-97593579D01*
X147089868Y-97593586D01*
X147053684Y-97775499D01*
X147049500Y-97796535D01*
X146610500Y-97796535D01*
X146570130Y-97593580D01*
X146490941Y-97402402D01*
X146375977Y-97230345D01*
X146229655Y-97084023D01*
X146226341Y-97081809D01*
X146057598Y-96969059D01*
X145866420Y-96889870D01*
X145866413Y-96889868D01*
X145713516Y-96859455D01*
X145663465Y-96849500D01*
X145456535Y-96849500D01*
X145416385Y-96857486D01*
X145253586Y-96889868D01*
X145253579Y-96889870D01*
X145062401Y-96969059D01*
X144890345Y-97084022D01*
X144890344Y-97084024D01*
X144744024Y-97230344D01*
X144744022Y-97230345D01*
X144629059Y-97402401D01*
X144549870Y-97593579D01*
X144549868Y-97593586D01*
X144513684Y-97775499D01*
X144509500Y-97796535D01*
X144070500Y-97796535D01*
X144070500Y-97030252D01*
X144058867Y-96971769D01*
X144057056Y-96969059D01*
X144039352Y-96942563D01*
X144014552Y-96905448D01*
X143973579Y-96878070D01*
X143948232Y-96861133D01*
X143948233Y-96861133D01*
X143918989Y-96855316D01*
X143889748Y-96849500D01*
X142150252Y-96849500D01*
X142121010Y-96855316D01*
X142091767Y-96861133D01*
X142025449Y-96905447D01*
X142025447Y-96905449D01*
X141981133Y-96971767D01*
X141977533Y-96989868D01*
X141969500Y-97030252D01*
X136111623Y-97030252D01*
X136075500Y-96967686D01*
X135982314Y-96874500D01*
X135980850Y-96873036D01*
X135959176Y-96820710D01*
X135980850Y-96768384D01*
X136753061Y-95996174D01*
X136805387Y-95974500D01*
X157206828Y-95974500D01*
X157259154Y-95996174D01*
X157280828Y-96048500D01*
X157270913Y-96085501D01*
X157258611Y-96106807D01*
X157258606Y-96106818D01*
X157224500Y-96234105D01*
X157224500Y-96365894D01*
X157258606Y-96493181D01*
X157258610Y-96493190D01*
X157310066Y-96582314D01*
X157324500Y-96607314D01*
X157417686Y-96700500D01*
X157531814Y-96766392D01*
X157659105Y-96800499D01*
X157659106Y-96800500D01*
X157795742Y-96800500D01*
X157795742Y-96802801D01*
X157843090Y-96815483D01*
X157871415Y-96864528D01*
X157856762Y-96919237D01*
X157826368Y-96942563D01*
X157762401Y-96969059D01*
X157590345Y-97084022D01*
X157590344Y-97084024D01*
X157444024Y-97230344D01*
X157444022Y-97230345D01*
X157329059Y-97402401D01*
X157249870Y-97593579D01*
X157249868Y-97593586D01*
X157213684Y-97775499D01*
X157209500Y-97796535D01*
X157209500Y-98003465D01*
X157217011Y-98041224D01*
X157249868Y-98206413D01*
X157249870Y-98206420D01*
X157329059Y-98397598D01*
X157436975Y-98559108D01*
X157444023Y-98569655D01*
X157590345Y-98715977D01*
X157762402Y-98830941D01*
X157953580Y-98910130D01*
X158156535Y-98950500D01*
X158156536Y-98950500D01*
X158363464Y-98950500D01*
X158363465Y-98950500D01*
X158566420Y-98910130D01*
X158757598Y-98830941D01*
X158929655Y-98715977D01*
X159075977Y-98569655D01*
X159190941Y-98397598D01*
X159270130Y-98206420D01*
X159310500Y-98003465D01*
X159310500Y-97796535D01*
X159749500Y-97796535D01*
X159749500Y-98003465D01*
X159757011Y-98041224D01*
X159789868Y-98206413D01*
X159789870Y-98206420D01*
X159869059Y-98397598D01*
X159976975Y-98559108D01*
X159984023Y-98569655D01*
X160130345Y-98715977D01*
X160302402Y-98830941D01*
X160493580Y-98910130D01*
X160696535Y-98950500D01*
X160696536Y-98950500D01*
X160903464Y-98950500D01*
X160903465Y-98950500D01*
X161106420Y-98910130D01*
X161297598Y-98830941D01*
X161469655Y-98715977D01*
X161615977Y-98569655D01*
X161730941Y-98397598D01*
X161810130Y-98206420D01*
X161850500Y-98003465D01*
X161850500Y-97796535D01*
X162289500Y-97796535D01*
X162289500Y-98003465D01*
X162297011Y-98041224D01*
X162329868Y-98206413D01*
X162329870Y-98206420D01*
X162409059Y-98397598D01*
X162516975Y-98559108D01*
X162524023Y-98569655D01*
X162670345Y-98715977D01*
X162842402Y-98830941D01*
X163033580Y-98910130D01*
X163236535Y-98950500D01*
X163236536Y-98950500D01*
X163443464Y-98950500D01*
X163443465Y-98950500D01*
X163646420Y-98910130D01*
X163837598Y-98830941D01*
X164009655Y-98715977D01*
X164155977Y-98569655D01*
X164270941Y-98397598D01*
X164350130Y-98206420D01*
X164390500Y-98003465D01*
X164390500Y-97796535D01*
X164829500Y-97796535D01*
X164829500Y-98003465D01*
X164837011Y-98041224D01*
X164869868Y-98206413D01*
X164869870Y-98206420D01*
X164949059Y-98397598D01*
X165056975Y-98559108D01*
X165064023Y-98569655D01*
X165210345Y-98715977D01*
X165382402Y-98830941D01*
X165573580Y-98910130D01*
X165776535Y-98950500D01*
X165776536Y-98950500D01*
X165983464Y-98950500D01*
X165983465Y-98950500D01*
X166186420Y-98910130D01*
X166377598Y-98830941D01*
X166549655Y-98715977D01*
X166695977Y-98569655D01*
X166810941Y-98397598D01*
X166890130Y-98206420D01*
X166930500Y-98003465D01*
X166930500Y-97796535D01*
X167369500Y-97796535D01*
X167369500Y-98003465D01*
X167377011Y-98041224D01*
X167409868Y-98206413D01*
X167409870Y-98206420D01*
X167489059Y-98397598D01*
X167596975Y-98559108D01*
X167604023Y-98569655D01*
X167750345Y-98715977D01*
X167922402Y-98830941D01*
X168113580Y-98910130D01*
X168316535Y-98950500D01*
X168316536Y-98950500D01*
X168523464Y-98950500D01*
X168523465Y-98950500D01*
X168726420Y-98910130D01*
X168917598Y-98830941D01*
X169089655Y-98715977D01*
X169235977Y-98569655D01*
X169350941Y-98397598D01*
X169430130Y-98206420D01*
X169470500Y-98003465D01*
X169470500Y-97796535D01*
X169909500Y-97796535D01*
X169909500Y-98003465D01*
X169917011Y-98041224D01*
X169949868Y-98206413D01*
X169949870Y-98206420D01*
X170029059Y-98397598D01*
X170136975Y-98559108D01*
X170144023Y-98569655D01*
X170290345Y-98715977D01*
X170462402Y-98830941D01*
X170653580Y-98910130D01*
X170856535Y-98950500D01*
X170856536Y-98950500D01*
X171063464Y-98950500D01*
X171063465Y-98950500D01*
X171266420Y-98910130D01*
X171457598Y-98830941D01*
X171629655Y-98715977D01*
X171775977Y-98569655D01*
X171890941Y-98397598D01*
X171970130Y-98206420D01*
X172010500Y-98003465D01*
X172010500Y-97796535D01*
X174989500Y-97796535D01*
X174989500Y-98003465D01*
X174997011Y-98041224D01*
X175029868Y-98206413D01*
X175029870Y-98206420D01*
X175109059Y-98397598D01*
X175216975Y-98559108D01*
X175224023Y-98569655D01*
X175370345Y-98715977D01*
X175542402Y-98830941D01*
X175733580Y-98910130D01*
X175936535Y-98950500D01*
X175936536Y-98950500D01*
X176143464Y-98950500D01*
X176143465Y-98950500D01*
X176346420Y-98910130D01*
X176537598Y-98830941D01*
X176709655Y-98715977D01*
X176855977Y-98569655D01*
X176970941Y-98397598D01*
X177050130Y-98206420D01*
X177090500Y-98003465D01*
X177090500Y-97796535D01*
X177050130Y-97593580D01*
X176970941Y-97402402D01*
X176855977Y-97230345D01*
X176709655Y-97084023D01*
X176706341Y-97081809D01*
X176537598Y-96969059D01*
X176527213Y-96964757D01*
X176487167Y-96924707D01*
X176487169Y-96868069D01*
X176527219Y-96828023D01*
X176536366Y-96824917D01*
X176568186Y-96816392D01*
X176682314Y-96750500D01*
X176775500Y-96657314D01*
X176841392Y-96543186D01*
X176875499Y-96415894D01*
X176875500Y-96415894D01*
X176875500Y-96284106D01*
X176875499Y-96284105D01*
X176848682Y-96184023D01*
X176841392Y-96156814D01*
X176775500Y-96042686D01*
X176682314Y-95949500D01*
X176651681Y-95931814D01*
X176568190Y-95883610D01*
X176568181Y-95883606D01*
X176440894Y-95849500D01*
X176440892Y-95849500D01*
X176309108Y-95849500D01*
X176309106Y-95849500D01*
X176181818Y-95883606D01*
X176181809Y-95883610D01*
X176067685Y-95949500D01*
X176052326Y-95964860D01*
X176000000Y-95986534D01*
X175947674Y-95964860D01*
X175932314Y-95949500D01*
X175818190Y-95883610D01*
X175818181Y-95883606D01*
X175690894Y-95849500D01*
X175690892Y-95849500D01*
X175559108Y-95849500D01*
X175559106Y-95849500D01*
X175431818Y-95883606D01*
X175431809Y-95883610D01*
X175317685Y-95949500D01*
X175224500Y-96042685D01*
X175158610Y-96156809D01*
X175158606Y-96156818D01*
X175124500Y-96284105D01*
X175124500Y-96415894D01*
X175158606Y-96543181D01*
X175158610Y-96543190D01*
X175187185Y-96592683D01*
X175224500Y-96657314D01*
X175317686Y-96750500D01*
X175431814Y-96816392D01*
X175431818Y-96816393D01*
X175516075Y-96838970D01*
X175561008Y-96873448D01*
X175568400Y-96929601D01*
X175538034Y-96971977D01*
X175370345Y-97084022D01*
X175370344Y-97084024D01*
X175224024Y-97230344D01*
X175224022Y-97230345D01*
X175109059Y-97402401D01*
X175029870Y-97593579D01*
X175029868Y-97593586D01*
X174993684Y-97775499D01*
X174989500Y-97796535D01*
X172010500Y-97796535D01*
X171970130Y-97593580D01*
X171890941Y-97402402D01*
X171775977Y-97230345D01*
X171629655Y-97084023D01*
X171626341Y-97081809D01*
X171457598Y-96969059D01*
X171266420Y-96889870D01*
X171266413Y-96889868D01*
X171113516Y-96859455D01*
X171063465Y-96849500D01*
X170856535Y-96849500D01*
X170816385Y-96857486D01*
X170653586Y-96889868D01*
X170653579Y-96889870D01*
X170462401Y-96969059D01*
X170290345Y-97084022D01*
X170290344Y-97084024D01*
X170144024Y-97230344D01*
X170144022Y-97230345D01*
X170029059Y-97402401D01*
X169949870Y-97593579D01*
X169949868Y-97593586D01*
X169913684Y-97775499D01*
X169909500Y-97796535D01*
X169470500Y-97796535D01*
X169430130Y-97593580D01*
X169350941Y-97402402D01*
X169235977Y-97230345D01*
X169089655Y-97084023D01*
X169086341Y-97081809D01*
X168917598Y-96969059D01*
X168726420Y-96889870D01*
X168726413Y-96889868D01*
X168573516Y-96859455D01*
X168523465Y-96849500D01*
X168316535Y-96849500D01*
X168276385Y-96857486D01*
X168113586Y-96889868D01*
X168113579Y-96889870D01*
X167922401Y-96969059D01*
X167750345Y-97084022D01*
X167750344Y-97084024D01*
X167604024Y-97230344D01*
X167604022Y-97230345D01*
X167489059Y-97402401D01*
X167409870Y-97593579D01*
X167409868Y-97593586D01*
X167373684Y-97775499D01*
X167369500Y-97796535D01*
X166930500Y-97796535D01*
X166890130Y-97593580D01*
X166810941Y-97402402D01*
X166695977Y-97230345D01*
X166549655Y-97084023D01*
X166546341Y-97081809D01*
X166377598Y-96969059D01*
X166186420Y-96889870D01*
X166186413Y-96889868D01*
X166033516Y-96859455D01*
X165983465Y-96849500D01*
X165776535Y-96849500D01*
X165736385Y-96857486D01*
X165573586Y-96889868D01*
X165573579Y-96889870D01*
X165382401Y-96969059D01*
X165210345Y-97084022D01*
X165210344Y-97084024D01*
X165064024Y-97230344D01*
X165064022Y-97230345D01*
X164949059Y-97402401D01*
X164869870Y-97593579D01*
X164869868Y-97593586D01*
X164833684Y-97775499D01*
X164829500Y-97796535D01*
X164390500Y-97796535D01*
X164350130Y-97593580D01*
X164270941Y-97402402D01*
X164155977Y-97230345D01*
X164009655Y-97084023D01*
X164006341Y-97081809D01*
X163837598Y-96969059D01*
X163646420Y-96889870D01*
X163646413Y-96889868D01*
X163493516Y-96859455D01*
X163443465Y-96849500D01*
X163236535Y-96849500D01*
X163196385Y-96857486D01*
X163033586Y-96889868D01*
X163033579Y-96889870D01*
X162842401Y-96969059D01*
X162670345Y-97084022D01*
X162670344Y-97084024D01*
X162524024Y-97230344D01*
X162524022Y-97230345D01*
X162409059Y-97402401D01*
X162329870Y-97593579D01*
X162329868Y-97593586D01*
X162293684Y-97775499D01*
X162289500Y-97796535D01*
X161850500Y-97796535D01*
X161810130Y-97593580D01*
X161730941Y-97402402D01*
X161615977Y-97230345D01*
X161469655Y-97084023D01*
X161466341Y-97081809D01*
X161297598Y-96969059D01*
X161106420Y-96889870D01*
X161106413Y-96889868D01*
X160953516Y-96859455D01*
X160903465Y-96849500D01*
X160696535Y-96849500D01*
X160656385Y-96857486D01*
X160493586Y-96889868D01*
X160493579Y-96889870D01*
X160302401Y-96969059D01*
X160130345Y-97084022D01*
X160130344Y-97084024D01*
X159984024Y-97230344D01*
X159984022Y-97230345D01*
X159869059Y-97402401D01*
X159789870Y-97593579D01*
X159789868Y-97593586D01*
X159753684Y-97775499D01*
X159749500Y-97796535D01*
X159310500Y-97796535D01*
X159270130Y-97593580D01*
X159190941Y-97402402D01*
X159075977Y-97230345D01*
X158929655Y-97084023D01*
X158926341Y-97081809D01*
X158757598Y-96969059D01*
X158682029Y-96937757D01*
X158629415Y-96915963D01*
X158589368Y-96875915D01*
X158589368Y-96819278D01*
X158629417Y-96779230D01*
X158638583Y-96776118D01*
X158640889Y-96775500D01*
X158640892Y-96775500D01*
X158768186Y-96741392D01*
X158882314Y-96675500D01*
X158975500Y-96582314D01*
X159041392Y-96468186D01*
X159075499Y-96340894D01*
X159075500Y-96340894D01*
X159075500Y-96209106D01*
X159075499Y-96209105D01*
X159070619Y-96190894D01*
X159041392Y-96081814D01*
X159041389Y-96081809D01*
X159039534Y-96077329D01*
X159042300Y-96076183D01*
X159036121Y-96029373D01*
X159070583Y-95984427D01*
X159107606Y-95974500D01*
X161405104Y-95974500D01*
X161405120Y-95974501D01*
X161409650Y-95974501D01*
X161567766Y-95974501D01*
X161567766Y-95974500D01*
X161720492Y-95933577D01*
X161775543Y-95901793D01*
X161857423Y-95854520D01*
X161969227Y-95742716D01*
X161969228Y-95742713D01*
X164420020Y-93291923D01*
X164499077Y-93154991D01*
X164500281Y-93150500D01*
X164522817Y-93066393D01*
X164540000Y-93002266D01*
X164540001Y-93002266D01*
X164540001Y-92839620D01*
X164540000Y-92839602D01*
X164540000Y-92456179D01*
X164561673Y-92403854D01*
X164968992Y-91996535D01*
X168029500Y-91996535D01*
X168029500Y-92203465D01*
X168039455Y-92253516D01*
X168069868Y-92406413D01*
X168069870Y-92406420D01*
X168149059Y-92597598D01*
X168246339Y-92743190D01*
X168264023Y-92769655D01*
X168410345Y-92915977D01*
X168582402Y-93030941D01*
X168773580Y-93110130D01*
X168976535Y-93150500D01*
X168976536Y-93150500D01*
X169183464Y-93150500D01*
X169183465Y-93150500D01*
X169386420Y-93110130D01*
X169577598Y-93030941D01*
X169749655Y-92915977D01*
X169895977Y-92769655D01*
X170010941Y-92597598D01*
X170090130Y-92406420D01*
X170130500Y-92203465D01*
X170130500Y-91996535D01*
X170569500Y-91996535D01*
X170569500Y-92203465D01*
X170579455Y-92253516D01*
X170609868Y-92406413D01*
X170609870Y-92406420D01*
X170689059Y-92597598D01*
X170786339Y-92743190D01*
X170804023Y-92769655D01*
X170950345Y-92915977D01*
X171122402Y-93030941D01*
X171313580Y-93110130D01*
X171516535Y-93150500D01*
X171516536Y-93150500D01*
X171723464Y-93150500D01*
X171723465Y-93150500D01*
X171926420Y-93110130D01*
X172117598Y-93030941D01*
X172289655Y-92915977D01*
X172435977Y-92769655D01*
X172550941Y-92597598D01*
X172630130Y-92406420D01*
X172670500Y-92203465D01*
X172670500Y-91996535D01*
X173109500Y-91996535D01*
X173109500Y-92203465D01*
X173119455Y-92253516D01*
X173149868Y-92406413D01*
X173149870Y-92406420D01*
X173229059Y-92597598D01*
X173326339Y-92743190D01*
X173344023Y-92769655D01*
X173490345Y-92915977D01*
X173662402Y-93030941D01*
X173853580Y-93110130D01*
X174056535Y-93150500D01*
X174056536Y-93150500D01*
X174263464Y-93150500D01*
X174263465Y-93150500D01*
X174466420Y-93110130D01*
X174657598Y-93030941D01*
X174829655Y-92915977D01*
X174975977Y-92769655D01*
X175090941Y-92597598D01*
X175170130Y-92406420D01*
X175210500Y-92203465D01*
X175210500Y-91996535D01*
X175170130Y-91793580D01*
X175090941Y-91602402D01*
X174975977Y-91430345D01*
X174829655Y-91284023D01*
X174791621Y-91258610D01*
X174657598Y-91169059D01*
X174466420Y-91089870D01*
X174466413Y-91089868D01*
X174313516Y-91059455D01*
X174263465Y-91049500D01*
X174056535Y-91049500D01*
X174016385Y-91057486D01*
X173853586Y-91089868D01*
X173853579Y-91089870D01*
X173662401Y-91169059D01*
X173490345Y-91284022D01*
X173490344Y-91284024D01*
X173344024Y-91430344D01*
X173344022Y-91430345D01*
X173229059Y-91602401D01*
X173149870Y-91793579D01*
X173149868Y-91793586D01*
X173119749Y-91945008D01*
X173109500Y-91996535D01*
X172670500Y-91996535D01*
X172630130Y-91793580D01*
X172550941Y-91602402D01*
X172435977Y-91430345D01*
X172289655Y-91284023D01*
X172251621Y-91258610D01*
X172117598Y-91169059D01*
X171926420Y-91089870D01*
X171926413Y-91089868D01*
X171773516Y-91059455D01*
X171723465Y-91049500D01*
X171516535Y-91049500D01*
X171476385Y-91057486D01*
X171313586Y-91089868D01*
X171313579Y-91089870D01*
X171122401Y-91169059D01*
X170950345Y-91284022D01*
X170950344Y-91284024D01*
X170804024Y-91430344D01*
X170804022Y-91430345D01*
X170689059Y-91602401D01*
X170609870Y-91793579D01*
X170609868Y-91793586D01*
X170579749Y-91945008D01*
X170569500Y-91996535D01*
X170130500Y-91996535D01*
X170090130Y-91793580D01*
X170010941Y-91602402D01*
X169895977Y-91430345D01*
X169749655Y-91284023D01*
X169711621Y-91258610D01*
X169577598Y-91169059D01*
X169386420Y-91089870D01*
X169386413Y-91089868D01*
X169233516Y-91059455D01*
X169183465Y-91049500D01*
X168976535Y-91049500D01*
X168936385Y-91057486D01*
X168773586Y-91089868D01*
X168773579Y-91089870D01*
X168582401Y-91169059D01*
X168410345Y-91284022D01*
X168410344Y-91284024D01*
X168264024Y-91430344D01*
X168264022Y-91430345D01*
X168149059Y-91602401D01*
X168069870Y-91793579D01*
X168069868Y-91793586D01*
X168039749Y-91945008D01*
X168029500Y-91996535D01*
X164968992Y-91996535D01*
X171361896Y-85603630D01*
X171414221Y-85581957D01*
X171466547Y-85603631D01*
X171488221Y-85655957D01*
X171484056Y-85676913D01*
X171484863Y-85677130D01*
X171449500Y-85809105D01*
X171449500Y-85940894D01*
X171483606Y-86068181D01*
X171483610Y-86068190D01*
X171549500Y-86182314D01*
X171642686Y-86275500D01*
X171756814Y-86341392D01*
X171884105Y-86375499D01*
X171884106Y-86375500D01*
X171884108Y-86375500D01*
X172015894Y-86375500D01*
X172015894Y-86375499D01*
X172143186Y-86341392D01*
X172257314Y-86275500D01*
X172350500Y-86182314D01*
X172416392Y-86068186D01*
X172450499Y-85940894D01*
X172450500Y-85940894D01*
X172450500Y-85809106D01*
X172450499Y-85809105D01*
X172426003Y-85717685D01*
X172416392Y-85681814D01*
X172350500Y-85567686D01*
X172257314Y-85474500D01*
X172143190Y-85408610D01*
X172143181Y-85408606D01*
X172015894Y-85374500D01*
X172015892Y-85374500D01*
X171884108Y-85374500D01*
X171884106Y-85374500D01*
X171752130Y-85409863D01*
X171751522Y-85407594D01*
X171702618Y-85407580D01*
X171662581Y-85367519D01*
X171662598Y-85310882D01*
X171678628Y-85286898D01*
X172568713Y-84396814D01*
X172568716Y-84396813D01*
X172680520Y-84285009D01*
X172730639Y-84198197D01*
X172759577Y-84148078D01*
X172800500Y-83995350D01*
X172800500Y-83837236D01*
X172800500Y-82309105D01*
X178274500Y-82309105D01*
X178274500Y-82440894D01*
X178308606Y-82568181D01*
X178308610Y-82568190D01*
X178321429Y-82590393D01*
X178374500Y-82682314D01*
X178467686Y-82775500D01*
X178581814Y-82841392D01*
X178709105Y-82875499D01*
X178709106Y-82875500D01*
X178709108Y-82875500D01*
X178840894Y-82875500D01*
X178840894Y-82875499D01*
X178968186Y-82841392D01*
X179082314Y-82775500D01*
X179175500Y-82682314D01*
X179241392Y-82568186D01*
X179275499Y-82440894D01*
X179275500Y-82440894D01*
X179275500Y-82309106D01*
X179275499Y-82309105D01*
X179272925Y-82299500D01*
X179241392Y-82181814D01*
X179175500Y-82067686D01*
X179082314Y-81974500D01*
X178968190Y-81908610D01*
X178968181Y-81908606D01*
X178840894Y-81874500D01*
X178840892Y-81874500D01*
X178709108Y-81874500D01*
X178709106Y-81874500D01*
X178581818Y-81908606D01*
X178581809Y-81908610D01*
X178467685Y-81974500D01*
X178374500Y-82067685D01*
X178308610Y-82181809D01*
X178308606Y-82181818D01*
X178274500Y-82309105D01*
X172800500Y-82309105D01*
X172800500Y-78755179D01*
X172822173Y-78702854D01*
X174119713Y-77405314D01*
X174119716Y-77405313D01*
X174231520Y-77293509D01*
X174281639Y-77206697D01*
X174310577Y-77156578D01*
X174351499Y-77003853D01*
X174351500Y-77003853D01*
X174351500Y-74884105D01*
X177074500Y-74884105D01*
X177074500Y-75015894D01*
X177108606Y-75143181D01*
X177108607Y-75143184D01*
X177108608Y-75143186D01*
X177174500Y-75257314D01*
X177267686Y-75350500D01*
X177381814Y-75416392D01*
X177509105Y-75450499D01*
X177509106Y-75450500D01*
X177509108Y-75450500D01*
X177640894Y-75450500D01*
X177640894Y-75450499D01*
X177768186Y-75416392D01*
X177882314Y-75350500D01*
X177975500Y-75257314D01*
X178041392Y-75143186D01*
X178075499Y-75015894D01*
X178075500Y-75015894D01*
X178075500Y-74884106D01*
X178075499Y-74884105D01*
X178052829Y-74799500D01*
X178041392Y-74756814D01*
X177975500Y-74642686D01*
X177882314Y-74549500D01*
X177852547Y-74532314D01*
X177768190Y-74483610D01*
X177768181Y-74483606D01*
X177640894Y-74449500D01*
X177640892Y-74449500D01*
X177509108Y-74449500D01*
X177509106Y-74449500D01*
X177381818Y-74483606D01*
X177381809Y-74483610D01*
X177267685Y-74549500D01*
X177174500Y-74642685D01*
X177108610Y-74756809D01*
X177108606Y-74756818D01*
X177074500Y-74884105D01*
X174351500Y-74884105D01*
X174351500Y-73016535D01*
X176459500Y-73016535D01*
X176459500Y-73223464D01*
X176499868Y-73426413D01*
X176499870Y-73426420D01*
X176579059Y-73617598D01*
X176665659Y-73747206D01*
X176694023Y-73789655D01*
X176840345Y-73935977D01*
X177012402Y-74050941D01*
X177203580Y-74130130D01*
X177406535Y-74170500D01*
X177406536Y-74170500D01*
X177613464Y-74170500D01*
X177613465Y-74170500D01*
X177816420Y-74130130D01*
X178007598Y-74050941D01*
X178179655Y-73935977D01*
X178325977Y-73789655D01*
X178440941Y-73617598D01*
X178520130Y-73426420D01*
X178560500Y-73223465D01*
X178560500Y-73016535D01*
X178520130Y-72813580D01*
X178440941Y-72622402D01*
X178325977Y-72450345D01*
X178179655Y-72304023D01*
X178179646Y-72304017D01*
X178007598Y-72189059D01*
X177816420Y-72109870D01*
X177816413Y-72109868D01*
X177663516Y-72079455D01*
X177613465Y-72069500D01*
X177406535Y-72069500D01*
X177366385Y-72077486D01*
X177203586Y-72109868D01*
X177203579Y-72109870D01*
X177012401Y-72189059D01*
X176840345Y-72304022D01*
X176840345Y-72304023D01*
X176694024Y-72450344D01*
X176694022Y-72450345D01*
X176579059Y-72622401D01*
X176499870Y-72813579D01*
X176499868Y-72813586D01*
X176459500Y-73016535D01*
X174351500Y-73016535D01*
X174351500Y-70476535D01*
X176459500Y-70476535D01*
X176459500Y-70683464D01*
X176499868Y-70886413D01*
X176499870Y-70886420D01*
X176579059Y-71077598D01*
X176671068Y-71215301D01*
X176694023Y-71249655D01*
X176840345Y-71395977D01*
X177012402Y-71510941D01*
X177203580Y-71590130D01*
X177406535Y-71630500D01*
X177406536Y-71630500D01*
X177613464Y-71630500D01*
X177613465Y-71630500D01*
X177816420Y-71590130D01*
X178007598Y-71510941D01*
X178179655Y-71395977D01*
X178325977Y-71249655D01*
X178440941Y-71077598D01*
X178520130Y-70886420D01*
X178560500Y-70683465D01*
X178560500Y-70476535D01*
X178520130Y-70273580D01*
X178440941Y-70082402D01*
X178325977Y-69910345D01*
X178179655Y-69764023D01*
X178007598Y-69649059D01*
X177816420Y-69569870D01*
X177816413Y-69569868D01*
X177663516Y-69539455D01*
X177613465Y-69529500D01*
X177406535Y-69529500D01*
X177366385Y-69537486D01*
X177203586Y-69569868D01*
X177203579Y-69569870D01*
X177012401Y-69649059D01*
X176840345Y-69764022D01*
X176840344Y-69764024D01*
X176694024Y-69910344D01*
X176694022Y-69910345D01*
X176579059Y-70082401D01*
X176499870Y-70273579D01*
X176499868Y-70273586D01*
X176459500Y-70476535D01*
X174351500Y-70476535D01*
X174351500Y-67936535D01*
X176459500Y-67936535D01*
X176459500Y-68143464D01*
X176499868Y-68346413D01*
X176499870Y-68346420D01*
X176579059Y-68537598D01*
X176692458Y-68707314D01*
X176694023Y-68709655D01*
X176840345Y-68855977D01*
X177012402Y-68970941D01*
X177203580Y-69050130D01*
X177406535Y-69090500D01*
X177406536Y-69090500D01*
X177613464Y-69090500D01*
X177613465Y-69090500D01*
X177816420Y-69050130D01*
X178007598Y-68970941D01*
X178179655Y-68855977D01*
X178325977Y-68709655D01*
X178440941Y-68537598D01*
X178520130Y-68346420D01*
X178560500Y-68143465D01*
X178560500Y-67936535D01*
X178520130Y-67733580D01*
X178440941Y-67542402D01*
X178325977Y-67370345D01*
X178179655Y-67224023D01*
X178142953Y-67199500D01*
X178007598Y-67109059D01*
X177816420Y-67029870D01*
X177816413Y-67029868D01*
X177663516Y-66999455D01*
X177613465Y-66989500D01*
X177406535Y-66989500D01*
X177366385Y-66997486D01*
X177203586Y-67029868D01*
X177203579Y-67029870D01*
X177012401Y-67109059D01*
X176840345Y-67224022D01*
X176840344Y-67224024D01*
X176694024Y-67370344D01*
X176694022Y-67370345D01*
X176579059Y-67542401D01*
X176499870Y-67733579D01*
X176499868Y-67733586D01*
X176459500Y-67936535D01*
X174351500Y-67936535D01*
X174351500Y-67611822D01*
X174351501Y-67611809D01*
X174351501Y-67447734D01*
X174351500Y-67447733D01*
X174347826Y-67434023D01*
X174330764Y-67370345D01*
X174310578Y-67295011D01*
X174299330Y-67275529D01*
X174231520Y-67158077D01*
X173921174Y-66847731D01*
X173899500Y-66795405D01*
X173899500Y-62984105D01*
X177149500Y-62984105D01*
X177149500Y-63115894D01*
X177183606Y-63243181D01*
X177183610Y-63243190D01*
X177204584Y-63279517D01*
X177249500Y-63357314D01*
X177342686Y-63450500D01*
X177456814Y-63516392D01*
X177584105Y-63550499D01*
X177584106Y-63550500D01*
X177584108Y-63550500D01*
X177715894Y-63550500D01*
X177715894Y-63550499D01*
X177843186Y-63516392D01*
X177957314Y-63450500D01*
X178050500Y-63357314D01*
X178116392Y-63243186D01*
X178150499Y-63115894D01*
X178150500Y-63115894D01*
X178150500Y-62984106D01*
X178150499Y-62984105D01*
X178148925Y-62978232D01*
X178116392Y-62856814D01*
X178050500Y-62742686D01*
X177957314Y-62649500D01*
X177907523Y-62620753D01*
X177843190Y-62583610D01*
X177843181Y-62583606D01*
X177715894Y-62549500D01*
X177715892Y-62549500D01*
X177584108Y-62549500D01*
X177584106Y-62549500D01*
X177456818Y-62583606D01*
X177456809Y-62583610D01*
X177342685Y-62649500D01*
X177249500Y-62742685D01*
X177183610Y-62856809D01*
X177183606Y-62856818D01*
X177149500Y-62984105D01*
X173899500Y-62984105D01*
X173899500Y-61571519D01*
X173921174Y-61519193D01*
X173973500Y-61497519D01*
X174025826Y-61519193D01*
X174046078Y-61557083D01*
X174059868Y-61626413D01*
X174059870Y-61626420D01*
X174139059Y-61817598D01*
X174206137Y-61917989D01*
X174254023Y-61989655D01*
X174400345Y-62135977D01*
X174572402Y-62250941D01*
X174763580Y-62330130D01*
X174966535Y-62370500D01*
X174966536Y-62370500D01*
X175173464Y-62370500D01*
X175173465Y-62370500D01*
X175376420Y-62330130D01*
X175567598Y-62250941D01*
X175739655Y-62135977D01*
X175885977Y-61989655D01*
X176000941Y-61817598D01*
X176080130Y-61626420D01*
X176120500Y-61423465D01*
X176120500Y-61216535D01*
X176559500Y-61216535D01*
X176559500Y-61423464D01*
X176599868Y-61626413D01*
X176599870Y-61626420D01*
X176679059Y-61817598D01*
X176746137Y-61917989D01*
X176794023Y-61989655D01*
X176940345Y-62135977D01*
X177112402Y-62250941D01*
X177303580Y-62330130D01*
X177506535Y-62370500D01*
X177506536Y-62370500D01*
X177713464Y-62370500D01*
X177713465Y-62370500D01*
X177916420Y-62330130D01*
X178107598Y-62250941D01*
X178279655Y-62135977D01*
X178425977Y-61989655D01*
X178540941Y-61817598D01*
X178620130Y-61626420D01*
X178660500Y-61423465D01*
X178660500Y-61216535D01*
X178620130Y-61013580D01*
X178540941Y-60822402D01*
X178425977Y-60650345D01*
X178279655Y-60504023D01*
X178206958Y-60455449D01*
X178107598Y-60389059D01*
X177916420Y-60309870D01*
X177916413Y-60309868D01*
X177763516Y-60279455D01*
X177713465Y-60269500D01*
X177506535Y-60269500D01*
X177466385Y-60277486D01*
X177303586Y-60309868D01*
X177303579Y-60309870D01*
X177112401Y-60389059D01*
X176940345Y-60504022D01*
X176940344Y-60504024D01*
X176794024Y-60650344D01*
X176794022Y-60650345D01*
X176679059Y-60822401D01*
X176599870Y-61013579D01*
X176599868Y-61013586D01*
X176559500Y-61216535D01*
X176120500Y-61216535D01*
X176080130Y-61013580D01*
X176000941Y-60822402D01*
X175885977Y-60650345D01*
X175739655Y-60504023D01*
X175666958Y-60455449D01*
X175567598Y-60389059D01*
X175376420Y-60309870D01*
X175376413Y-60309868D01*
X175223516Y-60279455D01*
X175173465Y-60269500D01*
X174966535Y-60269500D01*
X174926385Y-60277486D01*
X174763586Y-60309868D01*
X174763579Y-60309870D01*
X174572401Y-60389059D01*
X174400345Y-60504022D01*
X174400344Y-60504024D01*
X174254024Y-60650344D01*
X174254022Y-60650345D01*
X174139059Y-60822401D01*
X174059870Y-61013579D01*
X174059868Y-61013585D01*
X174046078Y-61082917D01*
X174014612Y-61130009D01*
X173959063Y-61141058D01*
X173911971Y-61109592D01*
X173899500Y-61068480D01*
X173899500Y-58676535D01*
X176559500Y-58676535D01*
X176559500Y-58883464D01*
X176599868Y-59086413D01*
X176599870Y-59086420D01*
X176679059Y-59277598D01*
X176794023Y-59449655D01*
X176940345Y-59595977D01*
X177112402Y-59710941D01*
X177303580Y-59790130D01*
X177506535Y-59830500D01*
X177506536Y-59830500D01*
X177713464Y-59830500D01*
X177713465Y-59830500D01*
X177916420Y-59790130D01*
X178107598Y-59710941D01*
X178279655Y-59595977D01*
X178425977Y-59449655D01*
X178540941Y-59277598D01*
X178620130Y-59086420D01*
X178660500Y-58883465D01*
X178660500Y-58676535D01*
X178620130Y-58473580D01*
X178540941Y-58282402D01*
X178425977Y-58110345D01*
X178279655Y-57964023D01*
X178220504Y-57924500D01*
X178107598Y-57849059D01*
X177916420Y-57769870D01*
X177916413Y-57769868D01*
X177763516Y-57739455D01*
X177713465Y-57729500D01*
X177506535Y-57729500D01*
X177466385Y-57737486D01*
X177303586Y-57769868D01*
X177303579Y-57769870D01*
X177112401Y-57849059D01*
X176940345Y-57964022D01*
X176940344Y-57964024D01*
X176794024Y-58110344D01*
X176794022Y-58110345D01*
X176679059Y-58282401D01*
X176599870Y-58473579D01*
X176599868Y-58473586D01*
X176559500Y-58676535D01*
X173899500Y-58676535D01*
X173899500Y-57380386D01*
X173921173Y-57328061D01*
X175736992Y-55512241D01*
X175789317Y-55490568D01*
X175803749Y-55491989D01*
X175846535Y-55500500D01*
X175846537Y-55500500D01*
X176053464Y-55500500D01*
X176053465Y-55500500D01*
X176256420Y-55460130D01*
X176447598Y-55380941D01*
X176619655Y-55265977D01*
X176765977Y-55119655D01*
X176880941Y-54947598D01*
X176960130Y-54756420D01*
X177000500Y-54553465D01*
X177000500Y-54346535D01*
X176960130Y-54143580D01*
X176880941Y-53952402D01*
X176765977Y-53780345D01*
X176619655Y-53634023D01*
X176567987Y-53599500D01*
X176447598Y-53519059D01*
X176256420Y-53439870D01*
X176256413Y-53439868D01*
X176103516Y-53409455D01*
X176053465Y-53399500D01*
X175846535Y-53399500D01*
X175806385Y-53407486D01*
X175643586Y-53439868D01*
X175643579Y-53439870D01*
X175452401Y-53519059D01*
X175280345Y-53634022D01*
X175280344Y-53634024D01*
X175134024Y-53780344D01*
X175134022Y-53780345D01*
X175019059Y-53952401D01*
X174939870Y-54143579D01*
X174939868Y-54143586D01*
X174899500Y-54346535D01*
X174899500Y-54553463D01*
X174908009Y-54596244D01*
X174896959Y-54651793D01*
X174887757Y-54663006D01*
X174344183Y-55206580D01*
X174291857Y-55228254D01*
X174239531Y-55206580D01*
X174217857Y-55154254D01*
X174230327Y-55113144D01*
X174340941Y-54947598D01*
X174420130Y-54756420D01*
X174460500Y-54553465D01*
X174460500Y-54346535D01*
X174420130Y-54143580D01*
X174340941Y-53952402D01*
X174225977Y-53780345D01*
X174079655Y-53634023D01*
X174027987Y-53599500D01*
X173907598Y-53519059D01*
X173716420Y-53439870D01*
X173716413Y-53439868D01*
X173563516Y-53409455D01*
X173513465Y-53399500D01*
X173306535Y-53399500D01*
X173266385Y-53407486D01*
X173103586Y-53439868D01*
X173103579Y-53439870D01*
X172912401Y-53519059D01*
X172740345Y-53634022D01*
X172740344Y-53634024D01*
X172594024Y-53780344D01*
X172594022Y-53780345D01*
X172479059Y-53952401D01*
X172399870Y-54143579D01*
X172399868Y-54143586D01*
X172359500Y-54346535D01*
X172359500Y-54553464D01*
X172399868Y-54756413D01*
X172399870Y-54756420D01*
X172479059Y-54947598D01*
X172594023Y-55119655D01*
X172740345Y-55265977D01*
X172912402Y-55380941D01*
X173103580Y-55460130D01*
X173306535Y-55500500D01*
X173306536Y-55500500D01*
X173513464Y-55500500D01*
X173513465Y-55500500D01*
X173716420Y-55460130D01*
X173907598Y-55380941D01*
X174073143Y-55270327D01*
X174128691Y-55259279D01*
X174175783Y-55290745D01*
X174186832Y-55346294D01*
X174166580Y-55384183D01*
X172930286Y-56620478D01*
X172818480Y-56732283D01*
X172768360Y-56819095D01*
X172739423Y-56869213D01*
X172739421Y-56869218D01*
X172698499Y-57021940D01*
X172698499Y-57186015D01*
X172698500Y-57186028D01*
X172698500Y-66991189D01*
X172698499Y-66991207D01*
X172698499Y-67153852D01*
X172739421Y-67306574D01*
X172739424Y-67306582D01*
X172743650Y-67313900D01*
X172751044Y-67370053D01*
X172716566Y-67414986D01*
X172698719Y-67422379D01*
X172656816Y-67433607D01*
X172656809Y-67433610D01*
X172542685Y-67499500D01*
X172449500Y-67592685D01*
X172383610Y-67706809D01*
X172383606Y-67706818D01*
X172349500Y-67834105D01*
X172349500Y-67965894D01*
X172383606Y-68093181D01*
X172383610Y-68093190D01*
X172414409Y-68146535D01*
X172449500Y-68207314D01*
X172542686Y-68300500D01*
X172656814Y-68366392D01*
X172784105Y-68400499D01*
X172784106Y-68400500D01*
X172784108Y-68400500D01*
X172915894Y-68400500D01*
X172915894Y-68400499D01*
X173043186Y-68366392D01*
X173043192Y-68366388D01*
X173047671Y-68364534D01*
X173048816Y-68367300D01*
X173095627Y-68361121D01*
X173140573Y-68395583D01*
X173150500Y-68432606D01*
X173150500Y-76645405D01*
X173128826Y-76697731D01*
X171719480Y-78107076D01*
X171671355Y-78190432D01*
X171640423Y-78244006D01*
X171640421Y-78244011D01*
X171599499Y-78396733D01*
X171599499Y-78560808D01*
X171599500Y-78560821D01*
X171599500Y-81591394D01*
X171577826Y-81643720D01*
X171525500Y-81665394D01*
X171497334Y-81657854D01*
X171496668Y-81659465D01*
X171492181Y-81657606D01*
X171364894Y-81623500D01*
X171364892Y-81623500D01*
X171233108Y-81623500D01*
X171233106Y-81623500D01*
X171105818Y-81657606D01*
X171105809Y-81657610D01*
X170991685Y-81723500D01*
X170913360Y-81801826D01*
X170861034Y-81823500D01*
X164479180Y-81823500D01*
X164426854Y-81801826D01*
X163639122Y-81014094D01*
X163617448Y-80961768D01*
X163639122Y-80909442D01*
X163664384Y-80894885D01*
X163663706Y-80893247D01*
X163668179Y-80891393D01*
X163668186Y-80891392D01*
X163782314Y-80825500D01*
X163875500Y-80732314D01*
X163941392Y-80618186D01*
X163975499Y-80490894D01*
X163975500Y-80490894D01*
X163975500Y-80359106D01*
X163975499Y-80359105D01*
X163973463Y-80351508D01*
X163941392Y-80231814D01*
X163875500Y-80117686D01*
X163782314Y-80024500D01*
X163771958Y-80018521D01*
X163744873Y-79991435D01*
X163715460Y-79940489D01*
X158097174Y-74322203D01*
X158075500Y-74269877D01*
X158075500Y-74159106D01*
X158075499Y-74159105D01*
X158071917Y-74145738D01*
X158041392Y-74031814D01*
X157975500Y-73917686D01*
X157975499Y-73917685D01*
X157973075Y-73913486D01*
X157975006Y-73912371D01*
X157962270Y-73864843D01*
X157990587Y-73815793D01*
X158035637Y-73800500D01*
X166262034Y-73800500D01*
X166314360Y-73822174D01*
X166392686Y-73900500D01*
X166506814Y-73966392D01*
X166634105Y-74000499D01*
X166634106Y-74000500D01*
X166634108Y-74000500D01*
X166765894Y-74000500D01*
X166765894Y-74000499D01*
X166893186Y-73966392D01*
X167007314Y-73900500D01*
X167100500Y-73807314D01*
X167166392Y-73693186D01*
X167200499Y-73565894D01*
X167200500Y-73565894D01*
X167200500Y-73434106D01*
X167200499Y-73434105D01*
X167166393Y-73306818D01*
X167166392Y-73306814D01*
X167100500Y-73192686D01*
X167007314Y-73099500D01*
X166934246Y-73057314D01*
X166893190Y-73033610D01*
X166893181Y-73033606D01*
X166765894Y-72999500D01*
X166765892Y-72999500D01*
X166634108Y-72999500D01*
X166634106Y-72999500D01*
X166506818Y-73033606D01*
X166506809Y-73033610D01*
X166392685Y-73099500D01*
X166314360Y-73177826D01*
X166262034Y-73199500D01*
X157278308Y-73199500D01*
X157225982Y-73177826D01*
X157204308Y-73125500D01*
X157225205Y-73075047D01*
X157225092Y-73074960D01*
X157225418Y-73074534D01*
X157225982Y-73073174D01*
X157228045Y-73071111D01*
X157293937Y-72956983D01*
X157328044Y-72829691D01*
X157328045Y-72829691D01*
X157328045Y-72697903D01*
X157328044Y-72697902D01*
X157293938Y-72570615D01*
X157293937Y-72570611D01*
X157228045Y-72456483D01*
X157134859Y-72363297D01*
X157032192Y-72304022D01*
X157020735Y-72297407D01*
X157020726Y-72297403D01*
X156893439Y-72263297D01*
X156893437Y-72263297D01*
X156782668Y-72263297D01*
X156730342Y-72241623D01*
X156572174Y-72083455D01*
X156550500Y-72031129D01*
X156550500Y-70509105D01*
X158074500Y-70509105D01*
X158074500Y-70640894D01*
X158108606Y-70768181D01*
X158108610Y-70768190D01*
X158157203Y-70852355D01*
X158174500Y-70882314D01*
X158267686Y-70975500D01*
X158381814Y-71041392D01*
X158509105Y-71075499D01*
X158509106Y-71075500D01*
X158509108Y-71075500D01*
X158640894Y-71075500D01*
X158640894Y-71075499D01*
X158768186Y-71041392D01*
X158882314Y-70975500D01*
X158975500Y-70882314D01*
X159041392Y-70768186D01*
X159075499Y-70640894D01*
X159075500Y-70640894D01*
X159075500Y-70509106D01*
X159075499Y-70509105D01*
X159070619Y-70490894D01*
X159041392Y-70381814D01*
X158975500Y-70267686D01*
X158882314Y-70174500D01*
X158783908Y-70117685D01*
X158768190Y-70108610D01*
X158768181Y-70108606D01*
X158640894Y-70074500D01*
X158640892Y-70074500D01*
X158509108Y-70074500D01*
X158509106Y-70074500D01*
X158381818Y-70108606D01*
X158381809Y-70108610D01*
X158267685Y-70174500D01*
X158174500Y-70267685D01*
X158108610Y-70381809D01*
X158108606Y-70381818D01*
X158074500Y-70509105D01*
X156550500Y-70509105D01*
X156550500Y-67224500D01*
X156572174Y-67172174D01*
X156624500Y-67150500D01*
X156654258Y-67150500D01*
X156654266Y-67150500D01*
X156684699Y-67147646D01*
X156812882Y-67102793D01*
X156922150Y-67022150D01*
X157002793Y-66912882D01*
X157047646Y-66784699D01*
X157050500Y-66754266D01*
X157050500Y-65745734D01*
X157449500Y-65745734D01*
X157449500Y-66754266D01*
X157452354Y-66784699D01*
X157452354Y-66784701D01*
X157452355Y-66784704D01*
X157497206Y-66912881D01*
X157497207Y-66912883D01*
X157577846Y-67022146D01*
X157577853Y-67022153D01*
X157687116Y-67102792D01*
X157687118Y-67102793D01*
X157815295Y-67147644D01*
X157815301Y-67147646D01*
X157845734Y-67150500D01*
X157845741Y-67150500D01*
X158654258Y-67150500D01*
X158654266Y-67150500D01*
X158684699Y-67147646D01*
X158812882Y-67102793D01*
X158922150Y-67022150D01*
X159002793Y-66912882D01*
X159047646Y-66784699D01*
X159050500Y-66754266D01*
X159050500Y-65745734D01*
X159047646Y-65715301D01*
X159002793Y-65587118D01*
X159002792Y-65587116D01*
X158922153Y-65477853D01*
X158922146Y-65477846D01*
X158812883Y-65397207D01*
X158812881Y-65397206D01*
X158684704Y-65352355D01*
X158684705Y-65352355D01*
X158684700Y-65352354D01*
X158684699Y-65352354D01*
X158654266Y-65349500D01*
X158654260Y-65349500D01*
X158624500Y-65349500D01*
X158572174Y-65327826D01*
X158550500Y-65275500D01*
X158550500Y-64788332D01*
X158572173Y-64736007D01*
X158639198Y-64668983D01*
X158690573Y-64563893D01*
X158700500Y-64495760D01*
X158700500Y-63254240D01*
X158690573Y-63186107D01*
X158639198Y-63081017D01*
X158556483Y-62998302D01*
X158556482Y-62998301D01*
X158451394Y-62946927D01*
X158383264Y-62937000D01*
X158383260Y-62937000D01*
X158016740Y-62937000D01*
X158016735Y-62937000D01*
X157948606Y-62946927D01*
X157948605Y-62946927D01*
X157843517Y-62998301D01*
X157760801Y-63081017D01*
X157709427Y-63186105D01*
X157709427Y-63186106D01*
X157699500Y-63254235D01*
X157699500Y-64495764D01*
X157709427Y-64563893D01*
X157709427Y-64563894D01*
X157760801Y-64668982D01*
X157760802Y-64668983D01*
X157843517Y-64751698D01*
X157908000Y-64783222D01*
X157945490Y-64825673D01*
X157949500Y-64849702D01*
X157949500Y-65275500D01*
X157927826Y-65327826D01*
X157875500Y-65349500D01*
X157845734Y-65349500D01*
X157815301Y-65352354D01*
X157815299Y-65352354D01*
X157815295Y-65352355D01*
X157687118Y-65397206D01*
X157687116Y-65397207D01*
X157577853Y-65477846D01*
X157577846Y-65477853D01*
X157497207Y-65587116D01*
X157497206Y-65587118D01*
X157452355Y-65715295D01*
X157452354Y-65715299D01*
X157452354Y-65715301D01*
X157449500Y-65745734D01*
X157050500Y-65745734D01*
X157047646Y-65715301D01*
X157002793Y-65587118D01*
X157002792Y-65587116D01*
X156922153Y-65477853D01*
X156922146Y-65477846D01*
X156812883Y-65397207D01*
X156812881Y-65397206D01*
X156684704Y-65352355D01*
X156684705Y-65352355D01*
X156684700Y-65352354D01*
X156684699Y-65352354D01*
X156654266Y-65349500D01*
X155845734Y-65349500D01*
X155815301Y-65352354D01*
X155815299Y-65352354D01*
X155815295Y-65352355D01*
X155687118Y-65397206D01*
X155687116Y-65397207D01*
X155577853Y-65477846D01*
X155577846Y-65477853D01*
X155497207Y-65587116D01*
X155497206Y-65587118D01*
X155452355Y-65715295D01*
X155452354Y-65715299D01*
X155452354Y-65715301D01*
X155449500Y-65745734D01*
X155449500Y-66754266D01*
X155452354Y-66784699D01*
X155452354Y-66784701D01*
X155452355Y-66784704D01*
X155497206Y-66912881D01*
X155497207Y-66912883D01*
X155577846Y-67022146D01*
X155577853Y-67022153D01*
X155687116Y-67102792D01*
X155687118Y-67102793D01*
X155815295Y-67147644D01*
X155815301Y-67147646D01*
X155845734Y-67150500D01*
X155875500Y-67150500D01*
X155927826Y-67172174D01*
X155949500Y-67224500D01*
X155949500Y-72225816D01*
X155969977Y-72302237D01*
X155971005Y-72304017D01*
X155971006Y-72304023D01*
X155971008Y-72304023D01*
X156009540Y-72370763D01*
X156305371Y-72666594D01*
X156327045Y-72718920D01*
X156327045Y-72829691D01*
X156361151Y-72956978D01*
X156361155Y-72956987D01*
X156427045Y-73071111D01*
X156429108Y-73073174D01*
X156429671Y-73074534D01*
X156429998Y-73074960D01*
X156429884Y-73075047D01*
X156450782Y-73125500D01*
X156429108Y-73177826D01*
X156376782Y-73199500D01*
X155087966Y-73199500D01*
X155035640Y-73177826D01*
X154957314Y-73099500D01*
X154843190Y-73033610D01*
X154843181Y-73033606D01*
X154715894Y-72999500D01*
X154715892Y-72999500D01*
X154584108Y-72999500D01*
X154584106Y-72999500D01*
X154456818Y-73033606D01*
X154456809Y-73033610D01*
X154342685Y-73099500D01*
X154249500Y-73192685D01*
X154183610Y-73306809D01*
X154183606Y-73306818D01*
X154149500Y-73434105D01*
X154149500Y-73565894D01*
X154183606Y-73693181D01*
X154183610Y-73693190D01*
X154239305Y-73789656D01*
X154249500Y-73807314D01*
X154342686Y-73900500D01*
X154456814Y-73966392D01*
X154584105Y-74000499D01*
X154584106Y-74000500D01*
X154584108Y-74000500D01*
X154715894Y-74000500D01*
X154715894Y-74000499D01*
X154843186Y-73966392D01*
X154957314Y-73900500D01*
X155035640Y-73822174D01*
X155087966Y-73800500D01*
X157114363Y-73800500D01*
X157166689Y-73822174D01*
X157188363Y-73874500D01*
X157175422Y-73912618D01*
X157176925Y-73913486D01*
X157108610Y-74031809D01*
X157108606Y-74031818D01*
X157074500Y-74159105D01*
X157074500Y-74290894D01*
X157108606Y-74418181D01*
X157108610Y-74418190D01*
X157146381Y-74483610D01*
X157174500Y-74532314D01*
X157267686Y-74625500D01*
X157381814Y-74691392D01*
X157509105Y-74725499D01*
X157509106Y-74725500D01*
X157619877Y-74725500D01*
X157672203Y-74747174D01*
X160573203Y-77648174D01*
X160594877Y-77700500D01*
X160573203Y-77752826D01*
X160520877Y-77774500D01*
X160509106Y-77774500D01*
X160381818Y-77808606D01*
X160381809Y-77808610D01*
X160267685Y-77874500D01*
X160174500Y-77967685D01*
X160108610Y-78081809D01*
X160108606Y-78081818D01*
X160074500Y-78209105D01*
X160074500Y-78340894D01*
X160108606Y-78468181D01*
X160108607Y-78468184D01*
X160108608Y-78468186D01*
X160174500Y-78582314D01*
X160267686Y-78675500D01*
X160381814Y-78741392D01*
X160509105Y-78775499D01*
X160509106Y-78775500D01*
X160509108Y-78775500D01*
X160519934Y-78775500D01*
X160572260Y-78797174D01*
X164083597Y-82308511D01*
X164139546Y-82364460D01*
X164208068Y-82404021D01*
X164208069Y-82404021D01*
X164208071Y-82404022D01*
X164246281Y-82414260D01*
X164284492Y-82424499D01*
X164284493Y-82424500D01*
X164284495Y-82424500D01*
X164363619Y-82424500D01*
X170861034Y-82424500D01*
X170913360Y-82446174D01*
X170991686Y-82524500D01*
X171105814Y-82590392D01*
X171233105Y-82624499D01*
X171233106Y-82624500D01*
X171233108Y-82624500D01*
X171364894Y-82624500D01*
X171364894Y-82624499D01*
X171492186Y-82590392D01*
X171492192Y-82590388D01*
X171496671Y-82588534D01*
X171497816Y-82591300D01*
X171544627Y-82585121D01*
X171589573Y-82619583D01*
X171599500Y-82656606D01*
X171599500Y-83636905D01*
X171577826Y-83689231D01*
X163458980Y-91808076D01*
X163432128Y-91854587D01*
X163379923Y-91945006D01*
X163379922Y-91945010D01*
X163352859Y-92046006D01*
X163318380Y-92090938D01*
X163262227Y-92098330D01*
X163244384Y-92090939D01*
X163231686Y-92083608D01*
X163231681Y-92083606D01*
X163104394Y-92049500D01*
X163104392Y-92049500D01*
X162993623Y-92049500D01*
X162941297Y-92027826D01*
X155472174Y-84558703D01*
X155450500Y-84506377D01*
X155450500Y-78337966D01*
X155472174Y-78285640D01*
X155502691Y-78255123D01*
X155550500Y-78207314D01*
X155616392Y-78093186D01*
X155650499Y-77965894D01*
X155650500Y-77965894D01*
X155650500Y-77834106D01*
X155650499Y-77834105D01*
X155616393Y-77706818D01*
X155616392Y-77706814D01*
X155550500Y-77592686D01*
X155457314Y-77499500D01*
X155455656Y-77498543D01*
X155343190Y-77433610D01*
X155343181Y-77433606D01*
X155215894Y-77399500D01*
X155215892Y-77399500D01*
X155084108Y-77399500D01*
X155084106Y-77399500D01*
X154956818Y-77433606D01*
X154956809Y-77433610D01*
X154842685Y-77499500D01*
X154749500Y-77592685D01*
X154683610Y-77706809D01*
X154683606Y-77706818D01*
X154649500Y-77834105D01*
X154649500Y-77965894D01*
X154683606Y-78093181D01*
X154683610Y-78093190D01*
X154749500Y-78207314D01*
X154827826Y-78285640D01*
X154849500Y-78337966D01*
X154849500Y-84701064D01*
X154869977Y-84777485D01*
X154869979Y-84777490D01*
X154909540Y-84846011D01*
X162516326Y-92452797D01*
X162538000Y-92505123D01*
X162538000Y-92615894D01*
X162572106Y-92743181D01*
X162572110Y-92743190D01*
X162600978Y-92793190D01*
X162638000Y-92857314D01*
X162731186Y-92950500D01*
X162845314Y-93016392D01*
X162845320Y-93016393D01*
X162849792Y-93018246D01*
X162848646Y-93021012D01*
X162886119Y-93049740D01*
X162893536Y-93105889D01*
X162874375Y-93139094D01*
X161261646Y-94751826D01*
X161209320Y-94773500D01*
X136609603Y-94773500D01*
X136609587Y-94773499D01*
X136605057Y-94773499D01*
X136446943Y-94773499D01*
X136446941Y-94773499D01*
X136294218Y-94814421D01*
X136294213Y-94814423D01*
X136244095Y-94843360D01*
X136157283Y-94893480D01*
X136045478Y-95005286D01*
X134113006Y-96937757D01*
X134060680Y-96959431D01*
X134046246Y-96958009D01*
X134003465Y-96949500D01*
X133796535Y-96949500D01*
X133756385Y-96957486D01*
X133593586Y-96989868D01*
X133593579Y-96989870D01*
X133402401Y-97069059D01*
X133230345Y-97184022D01*
X133230344Y-97184024D01*
X133084024Y-97330344D01*
X133084022Y-97330345D01*
X132969059Y-97502401D01*
X132889870Y-97693579D01*
X132889868Y-97693586D01*
X132853011Y-97878885D01*
X132849500Y-97896535D01*
X125525500Y-97896535D01*
X125525500Y-97809106D01*
X125525499Y-97809105D01*
X125523557Y-97801859D01*
X125491392Y-97681814D01*
X125425500Y-97567686D01*
X125332314Y-97474500D01*
X125328884Y-97471070D01*
X125330298Y-97469655D01*
X125305396Y-97426533D01*
X125320049Y-97371824D01*
X125341760Y-97352781D01*
X125432314Y-97300500D01*
X125525500Y-97207314D01*
X125591392Y-97093186D01*
X125625499Y-96965894D01*
X125625500Y-96965894D01*
X125625500Y-96834106D01*
X125625499Y-96834105D01*
X125623869Y-96828023D01*
X125591392Y-96706814D01*
X125525500Y-96592686D01*
X125525499Y-96592685D01*
X125525498Y-96592683D01*
X125472640Y-96539826D01*
X125450965Y-96487501D01*
X125472639Y-96435175D01*
X125472639Y-96435174D01*
X125475500Y-96432314D01*
X125541392Y-96318186D01*
X125575499Y-96190894D01*
X125575500Y-96190894D01*
X125575500Y-96059106D01*
X125575499Y-96059105D01*
X125572657Y-96048500D01*
X125541392Y-95931814D01*
X125475500Y-95817686D01*
X125382314Y-95724500D01*
X125268190Y-95658610D01*
X125268181Y-95658606D01*
X125140894Y-95624500D01*
X125140892Y-95624500D01*
X125009108Y-95624500D01*
X125009106Y-95624500D01*
X124881818Y-95658606D01*
X124881809Y-95658610D01*
X124767685Y-95724500D01*
X124674500Y-95817685D01*
X124608610Y-95931809D01*
X124608606Y-95931818D01*
X124574500Y-96059105D01*
X124574500Y-96190891D01*
X124593911Y-96263337D01*
X124586518Y-96319490D01*
X124541584Y-96353968D01*
X124485431Y-96346575D01*
X124468909Y-96332554D01*
X124468548Y-96332916D01*
X124319654Y-96184022D01*
X124147598Y-96069059D01*
X123956420Y-95989870D01*
X123956413Y-95989868D01*
X123803516Y-95959455D01*
X123753465Y-95949500D01*
X123546535Y-95949500D01*
X123506385Y-95957486D01*
X123343586Y-95989868D01*
X123343579Y-95989870D01*
X123152401Y-96069059D01*
X122980345Y-96184022D01*
X122980344Y-96184024D01*
X122834024Y-96330344D01*
X122834022Y-96330345D01*
X122719059Y-96502401D01*
X122639870Y-96693579D01*
X122639868Y-96693586D01*
X122603173Y-96878070D01*
X122599500Y-96896535D01*
X100610000Y-96896535D01*
X100610000Y-93644231D01*
X104354500Y-93644231D01*
X104354500Y-93795768D01*
X104393717Y-93942130D01*
X104393718Y-93942133D01*
X104393719Y-93942135D01*
X104469485Y-94073365D01*
X104576635Y-94180515D01*
X104707865Y-94256281D01*
X104854231Y-94295499D01*
X104854232Y-94295500D01*
X104854234Y-94295500D01*
X105005768Y-94295500D01*
X105005768Y-94295499D01*
X105152135Y-94256281D01*
X105283365Y-94180515D01*
X105390515Y-94073365D01*
X105466281Y-93942135D01*
X105505499Y-93795768D01*
X105505500Y-93795768D01*
X105505500Y-93644232D01*
X105505499Y-93644231D01*
X110134500Y-93644231D01*
X110134500Y-93795768D01*
X110173717Y-93942130D01*
X110173718Y-93942133D01*
X110173719Y-93942135D01*
X110249485Y-94073365D01*
X110356635Y-94180515D01*
X110487865Y-94256281D01*
X110634231Y-94295499D01*
X110634232Y-94295500D01*
X110634234Y-94295500D01*
X110785768Y-94295500D01*
X110785768Y-94295499D01*
X110932135Y-94256281D01*
X111063365Y-94180515D01*
X111170515Y-94073365D01*
X111246281Y-93942135D01*
X111285499Y-93795768D01*
X111285500Y-93795768D01*
X111285500Y-93644232D01*
X111285499Y-93644231D01*
X111246282Y-93497869D01*
X111246281Y-93497865D01*
X111170515Y-93366635D01*
X111063365Y-93259485D01*
X111063362Y-93259483D01*
X110932139Y-93183721D01*
X110932130Y-93183717D01*
X110785768Y-93144500D01*
X110785766Y-93144500D01*
X110634234Y-93144500D01*
X110634232Y-93144500D01*
X110487869Y-93183717D01*
X110487860Y-93183721D01*
X110356637Y-93259483D01*
X110249483Y-93366637D01*
X110173721Y-93497860D01*
X110173717Y-93497869D01*
X110134500Y-93644231D01*
X105505499Y-93644231D01*
X105466282Y-93497869D01*
X105466281Y-93497865D01*
X105390515Y-93366635D01*
X105283365Y-93259485D01*
X105283362Y-93259483D01*
X105152139Y-93183721D01*
X105152130Y-93183717D01*
X105005768Y-93144500D01*
X105005766Y-93144500D01*
X104854234Y-93144500D01*
X104854232Y-93144500D01*
X104707869Y-93183717D01*
X104707860Y-93183721D01*
X104576637Y-93259483D01*
X104469483Y-93366637D01*
X104393721Y-93497860D01*
X104393717Y-93497869D01*
X104354500Y-93644231D01*
X100610000Y-93644231D01*
X100610000Y-92484105D01*
X122149500Y-92484105D01*
X122149500Y-92615894D01*
X122183606Y-92743181D01*
X122183610Y-92743190D01*
X122212478Y-92793190D01*
X122249500Y-92857314D01*
X122342686Y-92950500D01*
X122456814Y-93016392D01*
X122584105Y-93050499D01*
X122584106Y-93050500D01*
X122584108Y-93050500D01*
X122715894Y-93050500D01*
X122715894Y-93050499D01*
X122843186Y-93016392D01*
X122957314Y-92950500D01*
X122985174Y-92922640D01*
X123037500Y-92900966D01*
X123089826Y-92922640D01*
X123117686Y-92950500D01*
X123231814Y-93016392D01*
X123359105Y-93050499D01*
X123359106Y-93050500D01*
X123359108Y-93050500D01*
X123490894Y-93050500D01*
X123490894Y-93050499D01*
X123618186Y-93016392D01*
X123732314Y-92950500D01*
X123825500Y-92857314D01*
X123891392Y-92743186D01*
X123925499Y-92615894D01*
X123925500Y-92615894D01*
X123925500Y-92534105D01*
X125824500Y-92534105D01*
X125824500Y-92665894D01*
X125858606Y-92793181D01*
X125858610Y-92793190D01*
X125895632Y-92857314D01*
X125924500Y-92907314D01*
X126017686Y-93000500D01*
X126131814Y-93066392D01*
X126259105Y-93100499D01*
X126259106Y-93100500D01*
X126259108Y-93100500D01*
X126390894Y-93100500D01*
X126390894Y-93100499D01*
X126518186Y-93066392D01*
X126632314Y-93000500D01*
X126725500Y-92907314D01*
X126791392Y-92793186D01*
X126825499Y-92665894D01*
X126825500Y-92665894D01*
X126825500Y-92534106D01*
X126825499Y-92534105D01*
X126817733Y-92505123D01*
X126791392Y-92406814D01*
X126749413Y-92334105D01*
X141074500Y-92334105D01*
X141074500Y-92465894D01*
X141108606Y-92593181D01*
X141108610Y-92593190D01*
X141150585Y-92665892D01*
X141174500Y-92707314D01*
X141267686Y-92800500D01*
X141381814Y-92866392D01*
X141509105Y-92900499D01*
X141509106Y-92900500D01*
X141509108Y-92900500D01*
X141640894Y-92900500D01*
X141640894Y-92900499D01*
X141768186Y-92866392D01*
X141882314Y-92800500D01*
X141975500Y-92707314D01*
X142041392Y-92593186D01*
X142075499Y-92465894D01*
X142075500Y-92465894D01*
X142075500Y-92334106D01*
X142075499Y-92334105D01*
X142051003Y-92242685D01*
X142041392Y-92206814D01*
X141975500Y-92092686D01*
X141882314Y-91999500D01*
X141768190Y-91933610D01*
X141768181Y-91933606D01*
X141640894Y-91899500D01*
X141640892Y-91899500D01*
X141509108Y-91899500D01*
X141509106Y-91899500D01*
X141381818Y-91933606D01*
X141381809Y-91933610D01*
X141267685Y-91999500D01*
X141174500Y-92092685D01*
X141108610Y-92206809D01*
X141108606Y-92206818D01*
X141074500Y-92334105D01*
X126749413Y-92334105D01*
X126725500Y-92292686D01*
X126632314Y-92199500D01*
X126618265Y-92191389D01*
X126518190Y-92133610D01*
X126518181Y-92133606D01*
X126390894Y-92099500D01*
X126390892Y-92099500D01*
X126259108Y-92099500D01*
X126259106Y-92099500D01*
X126131818Y-92133606D01*
X126131809Y-92133610D01*
X126017685Y-92199500D01*
X125924500Y-92292685D01*
X125858610Y-92406809D01*
X125858606Y-92406818D01*
X125824500Y-92534105D01*
X123925500Y-92534105D01*
X123925500Y-92484106D01*
X123925499Y-92484105D01*
X123920619Y-92465894D01*
X123891392Y-92356814D01*
X123825500Y-92242686D01*
X123732314Y-92149500D01*
X123645712Y-92099500D01*
X123618190Y-92083610D01*
X123618181Y-92083606D01*
X123490894Y-92049500D01*
X123490892Y-92049500D01*
X123359108Y-92049500D01*
X123359106Y-92049500D01*
X123231818Y-92083606D01*
X123231809Y-92083610D01*
X123117685Y-92149500D01*
X123089826Y-92177360D01*
X123037500Y-92199034D01*
X122985174Y-92177360D01*
X122957314Y-92149500D01*
X122843190Y-92083610D01*
X122843181Y-92083606D01*
X122715894Y-92049500D01*
X122715892Y-92049500D01*
X122584108Y-92049500D01*
X122584106Y-92049500D01*
X122456818Y-92083606D01*
X122456809Y-92083610D01*
X122342685Y-92149500D01*
X122249500Y-92242685D01*
X122183610Y-92356809D01*
X122183606Y-92356818D01*
X122149500Y-92484105D01*
X100610000Y-92484105D01*
X100610000Y-90934105D01*
X104149500Y-90934105D01*
X104149500Y-91065894D01*
X104183606Y-91193181D01*
X104183610Y-91193190D01*
X104221381Y-91258610D01*
X104249500Y-91307314D01*
X104342686Y-91400500D01*
X104456814Y-91466392D01*
X104528044Y-91485477D01*
X104572978Y-91519956D01*
X104580370Y-91537803D01*
X104608606Y-91643181D01*
X104608610Y-91643190D01*
X104639257Y-91696271D01*
X104674500Y-91757314D01*
X104767686Y-91850500D01*
X104881814Y-91916392D01*
X105009105Y-91950499D01*
X105009106Y-91950500D01*
X105009108Y-91950500D01*
X105140894Y-91950500D01*
X105140894Y-91950499D01*
X105268186Y-91916392D01*
X105382314Y-91850500D01*
X105475500Y-91757314D01*
X105541392Y-91643186D01*
X105575499Y-91515894D01*
X105575500Y-91515894D01*
X105575500Y-91384108D01*
X105565935Y-91348410D01*
X105565935Y-91348408D01*
X105562102Y-91334105D01*
X109669500Y-91334105D01*
X109669500Y-91465894D01*
X109703606Y-91593181D01*
X109703610Y-91593190D01*
X109741668Y-91659108D01*
X109769500Y-91707314D01*
X109862686Y-91800500D01*
X109976814Y-91866392D01*
X110104105Y-91900499D01*
X110104106Y-91900500D01*
X110104108Y-91900500D01*
X110235894Y-91900500D01*
X110235894Y-91900499D01*
X110363186Y-91866392D01*
X110477314Y-91800500D01*
X110570500Y-91707314D01*
X110598334Y-91659105D01*
X115549500Y-91659105D01*
X115549500Y-91790894D01*
X115583606Y-91918181D01*
X115583610Y-91918190D01*
X115628843Y-91996535D01*
X115649500Y-92032314D01*
X115742686Y-92125500D01*
X115856814Y-92191392D01*
X115984105Y-92225499D01*
X115984106Y-92225500D01*
X115984108Y-92225500D01*
X116115894Y-92225500D01*
X116115894Y-92225499D01*
X116243186Y-92191392D01*
X116357314Y-92125500D01*
X116450500Y-92032314D01*
X116516392Y-91918186D01*
X116550499Y-91790894D01*
X116550500Y-91790894D01*
X116550500Y-91659107D01*
X116547634Y-91648412D01*
X116543800Y-91634105D01*
X119349500Y-91634105D01*
X119349500Y-91765894D01*
X119383606Y-91893181D01*
X119383610Y-91893190D01*
X119413529Y-91945010D01*
X119449500Y-92007314D01*
X119542686Y-92100500D01*
X119656814Y-92166392D01*
X119784105Y-92200499D01*
X119784106Y-92200500D01*
X119784108Y-92200500D01*
X119915894Y-92200500D01*
X119915894Y-92200499D01*
X120043186Y-92166392D01*
X120157314Y-92100500D01*
X120250500Y-92007314D01*
X120316392Y-91893186D01*
X120350499Y-91765894D01*
X120350500Y-91765894D01*
X120350500Y-91634106D01*
X120350499Y-91634105D01*
X120316393Y-91506818D01*
X120316392Y-91506814D01*
X120250500Y-91392686D01*
X120216919Y-91359105D01*
X132599500Y-91359105D01*
X132599500Y-91490894D01*
X132633606Y-91618181D01*
X132633610Y-91618190D01*
X132678692Y-91696273D01*
X132699500Y-91732314D01*
X132792686Y-91825500D01*
X132906814Y-91891392D01*
X133034105Y-91925499D01*
X133034106Y-91925500D01*
X133034108Y-91925500D01*
X133165894Y-91925500D01*
X133165894Y-91925499D01*
X133293186Y-91891392D01*
X133407314Y-91825500D01*
X133500500Y-91732314D01*
X133566392Y-91618186D01*
X133600499Y-91490894D01*
X133600500Y-91490894D01*
X133600500Y-91359106D01*
X133600499Y-91359105D01*
X133597633Y-91348410D01*
X133566392Y-91231814D01*
X133500500Y-91117686D01*
X133407314Y-91024500D01*
X133336484Y-90983606D01*
X133293190Y-90958610D01*
X133293181Y-90958606D01*
X133165894Y-90924500D01*
X133165892Y-90924500D01*
X133034108Y-90924500D01*
X133034106Y-90924500D01*
X132906818Y-90958606D01*
X132906809Y-90958610D01*
X132792685Y-91024500D01*
X132699500Y-91117685D01*
X132633610Y-91231809D01*
X132633606Y-91231818D01*
X132599500Y-91359105D01*
X120216919Y-91359105D01*
X120157314Y-91299500D01*
X120130507Y-91284023D01*
X120043190Y-91233610D01*
X120043181Y-91233606D01*
X119915894Y-91199500D01*
X119915892Y-91199500D01*
X119784108Y-91199500D01*
X119784106Y-91199500D01*
X119656818Y-91233606D01*
X119656809Y-91233610D01*
X119542685Y-91299500D01*
X119449500Y-91392685D01*
X119383610Y-91506809D01*
X119383606Y-91506818D01*
X119349500Y-91634105D01*
X116543800Y-91634105D01*
X116516392Y-91531814D01*
X116450500Y-91417686D01*
X116357314Y-91324500D01*
X116287206Y-91284023D01*
X116243190Y-91258610D01*
X116243181Y-91258606D01*
X116115894Y-91224500D01*
X116115892Y-91224500D01*
X115984108Y-91224500D01*
X115984106Y-91224500D01*
X115856818Y-91258606D01*
X115856809Y-91258610D01*
X115742685Y-91324500D01*
X115649500Y-91417685D01*
X115583610Y-91531809D01*
X115583606Y-91531818D01*
X115549500Y-91659105D01*
X110598334Y-91659105D01*
X110636392Y-91593186D01*
X110670499Y-91465894D01*
X110670500Y-91465894D01*
X110670500Y-91334106D01*
X110670499Y-91334105D01*
X110667925Y-91324500D01*
X110636392Y-91206814D01*
X110603867Y-91150480D01*
X110596475Y-91094329D01*
X110603868Y-91076481D01*
X110657489Y-90983606D01*
X110666392Y-90968186D01*
X110700499Y-90840894D01*
X110700500Y-90840894D01*
X110700500Y-90709106D01*
X110700499Y-90709105D01*
X110696099Y-90692685D01*
X110666392Y-90581814D01*
X110600500Y-90467686D01*
X110507314Y-90374500D01*
X110449107Y-90340894D01*
X110393190Y-90308610D01*
X110393181Y-90308606D01*
X110265894Y-90274500D01*
X110265892Y-90274500D01*
X110134108Y-90274500D01*
X110134106Y-90274500D01*
X110006818Y-90308606D01*
X110006809Y-90308610D01*
X109892685Y-90374500D01*
X109799500Y-90467685D01*
X109733610Y-90581809D01*
X109733606Y-90581818D01*
X109699500Y-90709105D01*
X109699500Y-90840894D01*
X109733606Y-90968181D01*
X109733608Y-90968186D01*
X109766132Y-91024519D01*
X109773524Y-91080672D01*
X109766132Y-91098519D01*
X109703610Y-91206809D01*
X109703606Y-91206818D01*
X109669500Y-91334105D01*
X105562102Y-91334105D01*
X105541393Y-91256818D01*
X105541392Y-91256814D01*
X105475500Y-91142686D01*
X105382314Y-91049500D01*
X105339013Y-91024500D01*
X105268187Y-90983608D01*
X105268182Y-90983606D01*
X105196954Y-90964521D01*
X105152021Y-90930043D01*
X105144630Y-90912201D01*
X105116392Y-90806814D01*
X105050500Y-90692686D01*
X104957314Y-90599500D01*
X104926681Y-90581814D01*
X104843190Y-90533610D01*
X104843181Y-90533606D01*
X104715894Y-90499500D01*
X104715892Y-90499500D01*
X104584108Y-90499500D01*
X104584106Y-90499500D01*
X104456818Y-90533606D01*
X104456809Y-90533610D01*
X104342685Y-90599500D01*
X104249500Y-90692685D01*
X104183610Y-90806809D01*
X104183606Y-90806818D01*
X104149500Y-90934105D01*
X100610000Y-90934105D01*
X100610000Y-89859105D01*
X132649500Y-89859105D01*
X132649500Y-89990894D01*
X132683606Y-90118181D01*
X132683607Y-90118184D01*
X132683608Y-90118186D01*
X132749500Y-90232314D01*
X132842686Y-90325500D01*
X132956814Y-90391392D01*
X133084105Y-90425499D01*
X133084106Y-90425500D01*
X133084108Y-90425500D01*
X133215894Y-90425500D01*
X133215894Y-90425499D01*
X133343186Y-90391392D01*
X133457314Y-90325500D01*
X133550500Y-90232314D01*
X133563900Y-90209105D01*
X136049500Y-90209105D01*
X136049500Y-90340894D01*
X136083606Y-90468181D01*
X136083610Y-90468190D01*
X136121381Y-90533610D01*
X136149500Y-90582314D01*
X136242686Y-90675500D01*
X136356814Y-90741392D01*
X136484105Y-90775499D01*
X136484106Y-90775500D01*
X136484108Y-90775500D01*
X136615894Y-90775500D01*
X136615894Y-90775499D01*
X136743186Y-90741392D01*
X136857314Y-90675500D01*
X136950500Y-90582314D01*
X137016392Y-90468186D01*
X137050499Y-90340894D01*
X137050500Y-90340894D01*
X137050500Y-90209106D01*
X137050499Y-90209105D01*
X137026138Y-90118189D01*
X137016392Y-90081814D01*
X136950500Y-89967686D01*
X136857314Y-89874500D01*
X136830649Y-89859105D01*
X136743190Y-89808610D01*
X136743181Y-89808606D01*
X136615894Y-89774500D01*
X136615892Y-89774500D01*
X136484108Y-89774500D01*
X136484106Y-89774500D01*
X136356818Y-89808606D01*
X136356809Y-89808610D01*
X136242685Y-89874500D01*
X136149500Y-89967685D01*
X136083610Y-90081809D01*
X136083606Y-90081818D01*
X136049500Y-90209105D01*
X133563900Y-90209105D01*
X133616392Y-90118186D01*
X133650499Y-89990894D01*
X133650500Y-89990894D01*
X133650500Y-89859106D01*
X133650499Y-89859105D01*
X133627829Y-89774500D01*
X133616392Y-89731814D01*
X133550500Y-89617686D01*
X133457314Y-89524500D01*
X133427547Y-89507314D01*
X133343190Y-89458610D01*
X133343181Y-89458606D01*
X133215894Y-89424500D01*
X133215892Y-89424500D01*
X133084108Y-89424500D01*
X133084106Y-89424500D01*
X132956818Y-89458606D01*
X132956809Y-89458610D01*
X132842685Y-89524500D01*
X132749500Y-89617685D01*
X132683610Y-89731809D01*
X132683606Y-89731818D01*
X132649500Y-89859105D01*
X100610000Y-89859105D01*
X100610000Y-88109105D01*
X114574500Y-88109105D01*
X114574500Y-88240894D01*
X114608606Y-88368181D01*
X114608607Y-88368184D01*
X114608608Y-88368186D01*
X114674500Y-88482314D01*
X114767686Y-88575500D01*
X114863176Y-88630631D01*
X114897653Y-88675563D01*
X114890261Y-88731716D01*
X114863176Y-88758801D01*
X114792686Y-88799499D01*
X114699500Y-88892685D01*
X114633610Y-89006809D01*
X114633606Y-89006818D01*
X114599500Y-89134105D01*
X114599500Y-89265894D01*
X114633606Y-89393181D01*
X114633610Y-89393190D01*
X114671381Y-89458610D01*
X114699500Y-89507314D01*
X114792686Y-89600500D01*
X114906814Y-89666392D01*
X115034105Y-89700499D01*
X115034106Y-89700500D01*
X115034108Y-89700500D01*
X115165894Y-89700500D01*
X115165894Y-89700499D01*
X115293186Y-89666392D01*
X115407314Y-89600500D01*
X115500500Y-89507314D01*
X115566392Y-89393186D01*
X115600499Y-89265894D01*
X115600500Y-89265894D01*
X115600500Y-89134106D01*
X115600499Y-89134105D01*
X115566393Y-89006818D01*
X115566392Y-89006814D01*
X115500500Y-88892686D01*
X115407314Y-88799500D01*
X115311823Y-88744368D01*
X115277345Y-88699436D01*
X115284738Y-88643283D01*
X115311822Y-88616198D01*
X115382314Y-88575500D01*
X115475500Y-88482314D01*
X115541392Y-88368186D01*
X115575499Y-88240894D01*
X115575500Y-88240894D01*
X115575500Y-88109106D01*
X115575499Y-88109105D01*
X115541393Y-87981818D01*
X115541392Y-87981814D01*
X115475500Y-87867686D01*
X115382314Y-87774500D01*
X115293964Y-87723491D01*
X115268190Y-87708610D01*
X115268181Y-87708606D01*
X115140894Y-87674500D01*
X115140892Y-87674500D01*
X115009108Y-87674500D01*
X115009106Y-87674500D01*
X114881818Y-87708606D01*
X114881809Y-87708610D01*
X114767685Y-87774500D01*
X114674500Y-87867685D01*
X114608610Y-87981809D01*
X114608606Y-87981818D01*
X114574500Y-88109105D01*
X100610000Y-88109105D01*
X100610000Y-87334105D01*
X135974500Y-87334105D01*
X135974500Y-87465894D01*
X136008606Y-87593181D01*
X136008610Y-87593190D01*
X136074500Y-87707314D01*
X136090677Y-87723491D01*
X136112351Y-87775817D01*
X136099972Y-87812358D01*
X136101925Y-87813486D01*
X136033610Y-87931809D01*
X136033606Y-87931818D01*
X135999500Y-88059105D01*
X135999500Y-88190894D01*
X136033606Y-88318181D01*
X136033610Y-88318190D01*
X136062478Y-88368190D01*
X136099500Y-88432314D01*
X136192686Y-88525500D01*
X136306814Y-88591392D01*
X136434105Y-88625499D01*
X136434106Y-88625500D01*
X136434108Y-88625500D01*
X136565894Y-88625500D01*
X136565894Y-88625499D01*
X136693186Y-88591392D01*
X136807314Y-88525500D01*
X136900500Y-88432314D01*
X136966392Y-88318186D01*
X137000499Y-88190894D01*
X137000500Y-88190894D01*
X137000500Y-88059106D01*
X137000499Y-88059105D01*
X136966393Y-87931818D01*
X136966392Y-87931814D01*
X136900500Y-87817686D01*
X136884322Y-87801508D01*
X136862648Y-87749182D01*
X136875054Y-87712657D01*
X136873075Y-87711514D01*
X136894445Y-87674500D01*
X136941392Y-87593186D01*
X136975499Y-87465894D01*
X136975500Y-87465894D01*
X136975500Y-87334106D01*
X136975499Y-87334105D01*
X136941393Y-87206818D01*
X136941392Y-87206814D01*
X136875500Y-87092686D01*
X136782314Y-86999500D01*
X136668190Y-86933610D01*
X136668181Y-86933606D01*
X136540894Y-86899500D01*
X136540892Y-86899500D01*
X136409108Y-86899500D01*
X136409106Y-86899500D01*
X136281818Y-86933606D01*
X136281809Y-86933610D01*
X136167685Y-86999500D01*
X136074500Y-87092685D01*
X136008610Y-87206809D01*
X136008606Y-87206818D01*
X135974500Y-87334105D01*
X100610000Y-87334105D01*
X100610000Y-85959105D01*
X140974500Y-85959105D01*
X140974500Y-86090894D01*
X141008606Y-86218181D01*
X141008607Y-86218184D01*
X141008608Y-86218186D01*
X141074500Y-86332314D01*
X141167686Y-86425500D01*
X141281814Y-86491392D01*
X141409105Y-86525499D01*
X141409106Y-86525500D01*
X141409108Y-86525500D01*
X141540894Y-86525500D01*
X141540894Y-86525499D01*
X141668186Y-86491392D01*
X141782314Y-86425500D01*
X141875500Y-86332314D01*
X141941392Y-86218186D01*
X141975499Y-86090894D01*
X141975500Y-86090894D01*
X141975500Y-85959106D01*
X141975499Y-85959105D01*
X141970619Y-85940894D01*
X141941392Y-85831814D01*
X141875500Y-85717686D01*
X141782314Y-85624500D01*
X141681670Y-85566393D01*
X141668190Y-85558610D01*
X141668181Y-85558606D01*
X141540894Y-85524500D01*
X141540892Y-85524500D01*
X141409108Y-85524500D01*
X141409106Y-85524500D01*
X141281818Y-85558606D01*
X141281809Y-85558610D01*
X141167685Y-85624500D01*
X141074500Y-85717685D01*
X141008610Y-85831809D01*
X141008606Y-85831818D01*
X140974500Y-85959105D01*
X100610000Y-85959105D01*
X100610000Y-84859105D01*
X132499500Y-84859105D01*
X132499500Y-84990894D01*
X132533606Y-85118181D01*
X132533607Y-85118184D01*
X132533608Y-85118186D01*
X132599500Y-85232314D01*
X132692686Y-85325500D01*
X132806814Y-85391392D01*
X132934105Y-85425499D01*
X132934106Y-85425500D01*
X132934108Y-85425500D01*
X133065894Y-85425500D01*
X133065894Y-85425499D01*
X133193186Y-85391392D01*
X133307314Y-85325500D01*
X133400500Y-85232314D01*
X133466392Y-85118186D01*
X133500499Y-84990894D01*
X133500500Y-84990894D01*
X133500500Y-84859106D01*
X133500499Y-84859105D01*
X133477829Y-84774500D01*
X133466392Y-84731814D01*
X133400500Y-84617686D01*
X133307314Y-84524500D01*
X133275924Y-84506377D01*
X133193190Y-84458610D01*
X133193181Y-84458606D01*
X133065894Y-84424500D01*
X133065892Y-84424500D01*
X132934108Y-84424500D01*
X132934106Y-84424500D01*
X132806818Y-84458606D01*
X132806809Y-84458610D01*
X132692685Y-84524500D01*
X132599500Y-84617685D01*
X132533610Y-84731809D01*
X132533606Y-84731818D01*
X132499500Y-84859105D01*
X100610000Y-84859105D01*
X100610000Y-82734105D01*
X149174500Y-82734105D01*
X149174500Y-82865894D01*
X149208606Y-82993181D01*
X149208607Y-82993184D01*
X149208608Y-82993186D01*
X149274500Y-83107314D01*
X149367686Y-83200500D01*
X149481814Y-83266392D01*
X149609105Y-83300499D01*
X149609106Y-83300500D01*
X149609108Y-83300500D01*
X149740894Y-83300500D01*
X149740894Y-83300499D01*
X149868186Y-83266392D01*
X149982314Y-83200500D01*
X150075500Y-83107314D01*
X150141392Y-82993186D01*
X150175499Y-82865894D01*
X150175500Y-82865894D01*
X150175500Y-82734106D01*
X150175499Y-82734105D01*
X150154733Y-82656606D01*
X150141392Y-82606814D01*
X150075500Y-82492686D01*
X149982314Y-82399500D01*
X149921623Y-82364460D01*
X149868190Y-82333610D01*
X149868181Y-82333606D01*
X149740894Y-82299500D01*
X149740892Y-82299500D01*
X149609108Y-82299500D01*
X149609106Y-82299500D01*
X149481818Y-82333606D01*
X149481809Y-82333610D01*
X149367685Y-82399500D01*
X149274500Y-82492685D01*
X149208610Y-82606809D01*
X149208606Y-82606818D01*
X149174500Y-82734105D01*
X100610000Y-82734105D01*
X100610000Y-74536535D01*
X101109500Y-74536535D01*
X101109500Y-74743464D01*
X101149868Y-74946413D01*
X101149870Y-74946420D01*
X101229059Y-75137598D01*
X101314781Y-75265892D01*
X101344023Y-75309655D01*
X101490345Y-75455977D01*
X101662402Y-75570941D01*
X101853580Y-75650130D01*
X101922821Y-75663902D01*
X101969912Y-75695367D01*
X101980962Y-75750916D01*
X101949497Y-75798008D01*
X101927537Y-75807958D01*
X101831818Y-75833606D01*
X101831809Y-75833610D01*
X101717685Y-75899500D01*
X101624500Y-75992685D01*
X101558610Y-76106809D01*
X101558606Y-76106818D01*
X101524500Y-76234105D01*
X101524500Y-76365894D01*
X101558606Y-76493181D01*
X101558607Y-76493184D01*
X101558608Y-76493186D01*
X101624500Y-76607314D01*
X101717686Y-76700500D01*
X101831814Y-76766392D01*
X101959105Y-76800499D01*
X101959106Y-76800500D01*
X101959108Y-76800500D01*
X102090894Y-76800500D01*
X102090894Y-76800499D01*
X102218186Y-76766392D01*
X102332314Y-76700500D01*
X102425500Y-76607314D01*
X102491392Y-76493186D01*
X102507223Y-76434105D01*
X115674500Y-76434105D01*
X115674500Y-76565894D01*
X115708606Y-76693181D01*
X115708610Y-76693190D01*
X115726882Y-76724837D01*
X115774500Y-76807314D01*
X115867686Y-76900500D01*
X115981814Y-76966392D01*
X116109105Y-77000499D01*
X116109106Y-77000500D01*
X116109108Y-77000500D01*
X116240894Y-77000500D01*
X116240894Y-77000499D01*
X116368186Y-76966392D01*
X116482314Y-76900500D01*
X116560640Y-76822174D01*
X116612966Y-76800500D01*
X116625500Y-76800500D01*
X116677826Y-76822174D01*
X116699500Y-76874500D01*
X116699500Y-76954266D01*
X116702354Y-76984699D01*
X116702354Y-76984701D01*
X116702355Y-76984704D01*
X116747206Y-77112881D01*
X116747207Y-77112883D01*
X116827846Y-77222146D01*
X116827853Y-77222153D01*
X116937116Y-77302792D01*
X116937118Y-77302793D01*
X117065295Y-77347644D01*
X117065301Y-77347646D01*
X117095734Y-77350500D01*
X117095741Y-77350500D01*
X118104258Y-77350500D01*
X118104266Y-77350500D01*
X118134699Y-77347646D01*
X118262882Y-77302793D01*
X118372150Y-77222150D01*
X118443603Y-77125334D01*
X157304888Y-77125334D01*
X157304888Y-77257123D01*
X157338994Y-77384410D01*
X157338998Y-77384419D01*
X157404888Y-77498543D01*
X157483214Y-77576869D01*
X157504888Y-77629195D01*
X157504888Y-82894952D01*
X157525365Y-82971373D01*
X157525367Y-82971378D01*
X157564928Y-83039899D01*
X162627826Y-88102797D01*
X162649500Y-88155123D01*
X162649500Y-88265894D01*
X162683606Y-88393181D01*
X162683610Y-88393190D01*
X162735066Y-88482314D01*
X162749500Y-88507314D01*
X162842686Y-88600500D01*
X162956814Y-88666392D01*
X163084105Y-88700499D01*
X163084106Y-88700500D01*
X163084108Y-88700500D01*
X163215894Y-88700500D01*
X163215894Y-88700499D01*
X163343186Y-88666392D01*
X163457314Y-88600500D01*
X163550500Y-88507314D01*
X163616392Y-88393186D01*
X163650499Y-88265894D01*
X163650500Y-88265894D01*
X163650500Y-88134106D01*
X163650499Y-88134105D01*
X163643800Y-88109105D01*
X163616392Y-88006814D01*
X163550500Y-87892686D01*
X163457314Y-87799500D01*
X163370161Y-87749182D01*
X163343190Y-87733610D01*
X163343181Y-87733606D01*
X163215894Y-87699500D01*
X163215892Y-87699500D01*
X163105123Y-87699500D01*
X163052797Y-87677826D01*
X160484076Y-85109105D01*
X161049500Y-85109105D01*
X161049500Y-85240894D01*
X161083606Y-85368181D01*
X161083610Y-85368190D01*
X161144989Y-85474500D01*
X161149500Y-85482314D01*
X161242686Y-85575500D01*
X161356814Y-85641392D01*
X161484105Y-85675499D01*
X161484106Y-85675500D01*
X161484108Y-85675500D01*
X161615894Y-85675500D01*
X161615894Y-85675499D01*
X161743186Y-85641392D01*
X161857314Y-85575500D01*
X161950500Y-85482314D01*
X161976373Y-85437499D01*
X162021306Y-85403022D01*
X162040459Y-85400500D01*
X165062034Y-85400500D01*
X165114360Y-85422174D01*
X165192686Y-85500500D01*
X165306814Y-85566392D01*
X165434105Y-85600499D01*
X165434106Y-85600500D01*
X165434108Y-85600500D01*
X165565894Y-85600500D01*
X165565894Y-85600499D01*
X165693186Y-85566392D01*
X165807314Y-85500500D01*
X165900500Y-85407314D01*
X165966392Y-85293186D01*
X166000499Y-85165894D01*
X166000500Y-85165894D01*
X166000500Y-85034106D01*
X166000499Y-85034105D01*
X165966393Y-84906818D01*
X165966392Y-84906814D01*
X165900500Y-84792686D01*
X165807314Y-84699500D01*
X165764013Y-84674500D01*
X165693190Y-84633610D01*
X165693181Y-84633606D01*
X165565894Y-84599500D01*
X165565892Y-84599500D01*
X165434108Y-84599500D01*
X165434106Y-84599500D01*
X165306818Y-84633606D01*
X165306809Y-84633610D01*
X165192685Y-84699500D01*
X165114360Y-84777826D01*
X165062034Y-84799500D01*
X161912966Y-84799500D01*
X161860640Y-84777826D01*
X161857314Y-84774500D01*
X161743190Y-84708610D01*
X161743181Y-84708606D01*
X161615894Y-84674500D01*
X161615892Y-84674500D01*
X161484108Y-84674500D01*
X161484106Y-84674500D01*
X161356818Y-84708606D01*
X161356809Y-84708610D01*
X161242685Y-84774500D01*
X161149500Y-84867685D01*
X161083610Y-84981809D01*
X161083606Y-84981818D01*
X161049500Y-85109105D01*
X160484076Y-85109105D01*
X158127562Y-82752591D01*
X158105888Y-82700265D01*
X158105888Y-81333104D01*
X158127562Y-81280778D01*
X158179888Y-81259104D01*
X158208207Y-81264737D01*
X158212198Y-81266390D01*
X158212199Y-81266390D01*
X158212202Y-81266392D01*
X158339496Y-81300500D01*
X158339497Y-81300500D01*
X158471282Y-81300500D01*
X158471282Y-81300499D01*
X158598574Y-81266392D01*
X158712702Y-81200500D01*
X158805888Y-81107314D01*
X158871780Y-80993186D01*
X158905887Y-80865894D01*
X158905888Y-80865894D01*
X158905888Y-80734106D01*
X158905887Y-80734105D01*
X158871781Y-80606818D01*
X158871780Y-80606814D01*
X158805888Y-80492686D01*
X158712702Y-80399500D01*
X158704887Y-80394988D01*
X158598578Y-80333610D01*
X158598569Y-80333606D01*
X158471282Y-80299500D01*
X158471280Y-80299500D01*
X158339496Y-80299500D01*
X158339494Y-80299500D01*
X158212206Y-80333606D01*
X158208205Y-80335264D01*
X158151567Y-80335262D01*
X158111520Y-80295213D01*
X158105888Y-80266896D01*
X158105888Y-77629195D01*
X158127562Y-77576869D01*
X158205888Y-77498543D01*
X158271780Y-77384415D01*
X158305887Y-77257123D01*
X158305888Y-77257123D01*
X158305888Y-77125335D01*
X158305887Y-77125334D01*
X158271781Y-76998047D01*
X158271780Y-76998043D01*
X158205888Y-76883915D01*
X158112702Y-76790729D01*
X158043022Y-76750499D01*
X157998578Y-76724839D01*
X157998569Y-76724835D01*
X157871282Y-76690729D01*
X157871280Y-76690729D01*
X157739496Y-76690729D01*
X157739494Y-76690729D01*
X157612206Y-76724835D01*
X157612197Y-76724839D01*
X157498073Y-76790729D01*
X157404888Y-76883914D01*
X157338998Y-76998038D01*
X157338994Y-76998047D01*
X157304888Y-77125334D01*
X118443603Y-77125334D01*
X118452793Y-77112882D01*
X118456118Y-77103377D01*
X118458685Y-77096045D01*
X118458685Y-77096044D01*
X118497644Y-76984704D01*
X118497643Y-76984704D01*
X118497646Y-76984699D01*
X118500500Y-76954266D01*
X118500500Y-76145734D01*
X118497646Y-76115301D01*
X118469060Y-76033608D01*
X118452793Y-75987118D01*
X118452792Y-75987116D01*
X118372153Y-75877853D01*
X118372146Y-75877846D01*
X118262883Y-75797207D01*
X118262881Y-75797206D01*
X118134704Y-75752355D01*
X118134705Y-75752355D01*
X118134700Y-75752354D01*
X118134699Y-75752354D01*
X118104266Y-75749500D01*
X117095734Y-75749500D01*
X117065301Y-75752354D01*
X117065299Y-75752354D01*
X117065295Y-75752355D01*
X116937118Y-75797206D01*
X116937116Y-75797207D01*
X116827853Y-75877846D01*
X116827846Y-75877853D01*
X116747207Y-75987116D01*
X116747206Y-75987118D01*
X116702355Y-76115295D01*
X116700750Y-76132410D01*
X116689012Y-76154617D01*
X116679399Y-76177826D01*
X116676001Y-76179233D01*
X116674284Y-76182483D01*
X116627073Y-76199500D01*
X116612966Y-76199500D01*
X116560640Y-76177826D01*
X116482314Y-76099500D01*
X116368190Y-76033610D01*
X116368181Y-76033606D01*
X116240894Y-75999500D01*
X116240892Y-75999500D01*
X116109108Y-75999500D01*
X116109106Y-75999500D01*
X115981818Y-76033606D01*
X115981809Y-76033610D01*
X115867685Y-76099500D01*
X115774500Y-76192685D01*
X115708610Y-76306809D01*
X115708606Y-76306818D01*
X115674500Y-76434105D01*
X102507223Y-76434105D01*
X102525500Y-76365892D01*
X102525500Y-76234108D01*
X102525500Y-76234106D01*
X102525499Y-76234105D01*
X102491393Y-76106818D01*
X102491392Y-76106814D01*
X102425500Y-75992686D01*
X102332314Y-75899500D01*
X102245712Y-75849500D01*
X102218188Y-75833609D01*
X102216401Y-75832869D01*
X102215710Y-75832178D01*
X102213986Y-75831183D01*
X102214252Y-75830721D01*
X102176350Y-75792824D01*
X102176346Y-75736186D01*
X102216391Y-75696135D01*
X102244715Y-75690500D01*
X102263464Y-75690500D01*
X102263465Y-75690500D01*
X102466420Y-75650130D01*
X102657598Y-75570941D01*
X102829655Y-75455977D01*
X102975977Y-75309655D01*
X103090941Y-75137598D01*
X103170130Y-74946420D01*
X103210500Y-74743465D01*
X103210500Y-74536535D01*
X103649500Y-74536535D01*
X103649500Y-74743464D01*
X103689868Y-74946413D01*
X103689870Y-74946420D01*
X103769059Y-75137598D01*
X103854781Y-75265892D01*
X103884023Y-75309655D01*
X104030345Y-75455977D01*
X104202402Y-75570941D01*
X104393580Y-75650130D01*
X104596535Y-75690500D01*
X104596536Y-75690500D01*
X104803464Y-75690500D01*
X104803465Y-75690500D01*
X105006420Y-75650130D01*
X105197598Y-75570941D01*
X105369655Y-75455977D01*
X105515977Y-75309655D01*
X105630941Y-75137598D01*
X105710130Y-74946420D01*
X105750500Y-74743465D01*
X105750500Y-74536535D01*
X106189500Y-74536535D01*
X106189500Y-74743464D01*
X106229868Y-74946413D01*
X106229870Y-74946420D01*
X106309059Y-75137598D01*
X106394781Y-75265892D01*
X106424023Y-75309655D01*
X106570345Y-75455977D01*
X106742402Y-75570941D01*
X106933580Y-75650130D01*
X107136535Y-75690500D01*
X107136536Y-75690500D01*
X107343464Y-75690500D01*
X107343465Y-75690500D01*
X107546420Y-75650130D01*
X107737598Y-75570941D01*
X107909655Y-75455977D01*
X108055977Y-75309655D01*
X108170941Y-75137598D01*
X108250130Y-74946420D01*
X108290500Y-74743465D01*
X108290500Y-74536535D01*
X108250130Y-74333580D01*
X108170941Y-74142402D01*
X108055977Y-73970345D01*
X107909655Y-73824023D01*
X107869520Y-73797206D01*
X107737598Y-73709059D01*
X107546420Y-73629870D01*
X107546413Y-73629868D01*
X107393516Y-73599455D01*
X107343465Y-73589500D01*
X107136535Y-73589500D01*
X107096385Y-73597486D01*
X106933586Y-73629868D01*
X106933579Y-73629870D01*
X106742401Y-73709059D01*
X106570345Y-73824022D01*
X106570344Y-73824024D01*
X106424024Y-73970344D01*
X106424022Y-73970345D01*
X106309059Y-74142401D01*
X106229870Y-74333579D01*
X106229868Y-74333586D01*
X106189500Y-74536535D01*
X105750500Y-74536535D01*
X105710130Y-74333580D01*
X105630941Y-74142402D01*
X105515977Y-73970345D01*
X105369655Y-73824023D01*
X105329520Y-73797206D01*
X105197598Y-73709059D01*
X105006420Y-73629870D01*
X105006413Y-73629868D01*
X104853516Y-73599455D01*
X104803465Y-73589500D01*
X104596535Y-73589500D01*
X104556385Y-73597486D01*
X104393586Y-73629868D01*
X104393579Y-73629870D01*
X104202401Y-73709059D01*
X104030345Y-73824022D01*
X104030344Y-73824024D01*
X103884024Y-73970344D01*
X103884022Y-73970345D01*
X103769059Y-74142401D01*
X103689870Y-74333579D01*
X103689868Y-74333586D01*
X103649500Y-74536535D01*
X103210500Y-74536535D01*
X103170130Y-74333580D01*
X103090941Y-74142402D01*
X102975977Y-73970345D01*
X102829655Y-73824023D01*
X102789520Y-73797206D01*
X102657598Y-73709059D01*
X102466420Y-73629870D01*
X102466413Y-73629868D01*
X102313516Y-73599455D01*
X102263465Y-73589500D01*
X102056535Y-73589500D01*
X102016385Y-73597486D01*
X101853586Y-73629868D01*
X101853579Y-73629870D01*
X101662401Y-73709059D01*
X101490345Y-73824022D01*
X101490344Y-73824024D01*
X101344024Y-73970344D01*
X101344022Y-73970345D01*
X101229059Y-74142401D01*
X101149870Y-74333579D01*
X101149868Y-74333586D01*
X101109500Y-74536535D01*
X100610000Y-74536535D01*
X100610000Y-71996535D01*
X101109500Y-71996535D01*
X101109500Y-72203465D01*
X101113946Y-72225816D01*
X101149868Y-72406413D01*
X101149870Y-72406420D01*
X101229059Y-72597598D01*
X101296081Y-72697905D01*
X101344023Y-72769655D01*
X101490345Y-72915977D01*
X101662402Y-73030941D01*
X101853580Y-73110130D01*
X102056535Y-73150500D01*
X102056536Y-73150500D01*
X102263464Y-73150500D01*
X102263465Y-73150500D01*
X102466420Y-73110130D01*
X102657598Y-73030941D01*
X102829655Y-72915977D01*
X102975977Y-72769655D01*
X103090941Y-72597598D01*
X103170130Y-72406420D01*
X103210500Y-72203465D01*
X103210500Y-71996535D01*
X103649500Y-71996535D01*
X103649500Y-72203465D01*
X103653946Y-72225816D01*
X103689868Y-72406413D01*
X103689870Y-72406420D01*
X103769059Y-72597598D01*
X103836081Y-72697905D01*
X103884023Y-72769655D01*
X104030345Y-72915977D01*
X104202402Y-73030941D01*
X104393580Y-73110130D01*
X104596535Y-73150500D01*
X104596536Y-73150500D01*
X104803464Y-73150500D01*
X104803465Y-73150500D01*
X105006420Y-73110130D01*
X105197598Y-73030941D01*
X105369655Y-72915977D01*
X105515977Y-72769655D01*
X105630941Y-72597598D01*
X105710130Y-72406420D01*
X105750500Y-72203465D01*
X105750500Y-71996535D01*
X105710130Y-71793580D01*
X105630941Y-71602402D01*
X105515977Y-71430345D01*
X105369655Y-71284023D01*
X105318219Y-71249655D01*
X105197598Y-71169059D01*
X105006420Y-71089870D01*
X105006413Y-71089868D01*
X104853516Y-71059455D01*
X104803465Y-71049500D01*
X104596535Y-71049500D01*
X104556385Y-71057486D01*
X104393586Y-71089868D01*
X104393579Y-71089870D01*
X104202401Y-71169059D01*
X104030345Y-71284022D01*
X104030344Y-71284024D01*
X103884024Y-71430344D01*
X103884022Y-71430345D01*
X103769059Y-71602401D01*
X103689870Y-71793579D01*
X103689868Y-71793586D01*
X103649500Y-71996535D01*
X103210500Y-71996535D01*
X103170130Y-71793580D01*
X103090941Y-71602402D01*
X102975977Y-71430345D01*
X102829655Y-71284023D01*
X102778219Y-71249655D01*
X102657598Y-71169059D01*
X102466420Y-71089870D01*
X102466413Y-71089868D01*
X102313516Y-71059455D01*
X102263465Y-71049500D01*
X102056535Y-71049500D01*
X102016385Y-71057486D01*
X101853586Y-71089868D01*
X101853579Y-71089870D01*
X101662401Y-71169059D01*
X101490345Y-71284022D01*
X101490344Y-71284024D01*
X101344024Y-71430344D01*
X101344022Y-71430345D01*
X101229059Y-71602401D01*
X101149870Y-71793579D01*
X101149868Y-71793586D01*
X101109500Y-71996535D01*
X100610000Y-71996535D01*
X100610000Y-68146535D01*
X101059500Y-68146535D01*
X101059500Y-68353464D01*
X101099868Y-68556413D01*
X101099870Y-68556420D01*
X101179059Y-68747598D01*
X101258434Y-68866393D01*
X101294023Y-68919655D01*
X101440345Y-69065977D01*
X101612402Y-69180941D01*
X101803580Y-69260130D01*
X102006535Y-69300500D01*
X102006536Y-69300500D01*
X102213464Y-69300500D01*
X102213465Y-69300500D01*
X102416420Y-69260130D01*
X102607598Y-69180941D01*
X102779655Y-69065977D01*
X102925977Y-68919655D01*
X103040941Y-68747598D01*
X103120130Y-68556420D01*
X103160500Y-68353465D01*
X103160500Y-68146535D01*
X103599500Y-68146535D01*
X103599500Y-68353464D01*
X103639868Y-68556413D01*
X103639870Y-68556420D01*
X103719059Y-68747598D01*
X103798434Y-68866393D01*
X103834023Y-68919655D01*
X103980345Y-69065977D01*
X104152402Y-69180941D01*
X104343580Y-69260130D01*
X104546535Y-69300500D01*
X104546536Y-69300500D01*
X104753464Y-69300500D01*
X104753465Y-69300500D01*
X104956420Y-69260130D01*
X105147598Y-69180941D01*
X105319655Y-69065977D01*
X105465977Y-68919655D01*
X105580941Y-68747598D01*
X105645888Y-68590802D01*
X105685935Y-68550755D01*
X105742572Y-68550755D01*
X105780942Y-68589124D01*
X105781183Y-68588986D01*
X105781700Y-68589882D01*
X105782621Y-68590803D01*
X105782622Y-68590805D01*
X105783608Y-68593187D01*
X105783610Y-68593190D01*
X105849500Y-68707314D01*
X105942686Y-68800500D01*
X106056814Y-68866392D01*
X106184105Y-68900499D01*
X106184106Y-68900500D01*
X106184108Y-68900500D01*
X106315894Y-68900500D01*
X106315894Y-68900499D01*
X106443186Y-68866392D01*
X106557314Y-68800500D01*
X106650500Y-68707314D01*
X106716392Y-68593186D01*
X106750499Y-68465894D01*
X106750500Y-68465894D01*
X106750500Y-68334106D01*
X106750499Y-68334105D01*
X106747925Y-68324500D01*
X106716392Y-68206814D01*
X106650500Y-68092686D01*
X106557314Y-67999500D01*
X106499107Y-67965894D01*
X106443190Y-67933610D01*
X106443181Y-67933606D01*
X106315894Y-67899500D01*
X106315892Y-67899500D01*
X106184108Y-67899500D01*
X106184106Y-67899500D01*
X106056818Y-67933606D01*
X106056809Y-67933610D01*
X105942685Y-67999500D01*
X105849499Y-68092686D01*
X105829019Y-68128158D01*
X105784085Y-68162636D01*
X105727933Y-68155242D01*
X105693455Y-68110308D01*
X105692356Y-68105593D01*
X105690701Y-68097273D01*
X105660130Y-67943580D01*
X105580941Y-67752402D01*
X105465977Y-67580345D01*
X105319655Y-67434023D01*
X105319032Y-67433607D01*
X105147598Y-67319059D01*
X104956420Y-67239870D01*
X104956413Y-67239868D01*
X104803516Y-67209455D01*
X104753465Y-67199500D01*
X104546535Y-67199500D01*
X104506385Y-67207486D01*
X104343586Y-67239868D01*
X104343579Y-67239870D01*
X104152401Y-67319059D01*
X103980345Y-67434022D01*
X103980344Y-67434024D01*
X103834024Y-67580344D01*
X103834022Y-67580345D01*
X103719059Y-67752401D01*
X103639870Y-67943579D01*
X103639868Y-67943586D01*
X103599500Y-68146535D01*
X103160500Y-68146535D01*
X103120130Y-67943580D01*
X103040941Y-67752402D01*
X102925977Y-67580345D01*
X102779655Y-67434023D01*
X102779032Y-67433607D01*
X102607598Y-67319059D01*
X102416420Y-67239870D01*
X102416413Y-67239868D01*
X102263516Y-67209455D01*
X102213465Y-67199500D01*
X102006535Y-67199500D01*
X101966385Y-67207486D01*
X101803586Y-67239868D01*
X101803579Y-67239870D01*
X101612401Y-67319059D01*
X101440345Y-67434022D01*
X101440344Y-67434024D01*
X101294024Y-67580344D01*
X101294022Y-67580345D01*
X101179059Y-67752401D01*
X101099870Y-67943579D01*
X101099868Y-67943586D01*
X101059500Y-68146535D01*
X100610000Y-68146535D01*
X100610000Y-65606535D01*
X101059500Y-65606535D01*
X101059500Y-65813464D01*
X101099868Y-66016413D01*
X101099870Y-66016420D01*
X101179059Y-66207598D01*
X101294023Y-66379655D01*
X101440345Y-66525977D01*
X101612402Y-66640941D01*
X101803580Y-66720130D01*
X102006535Y-66760500D01*
X102006536Y-66760500D01*
X102213464Y-66760500D01*
X102213465Y-66760500D01*
X102416420Y-66720130D01*
X102607598Y-66640941D01*
X102779655Y-66525977D01*
X102925977Y-66379655D01*
X103040941Y-66207598D01*
X103120130Y-66016420D01*
X103160500Y-65813465D01*
X103160500Y-65606535D01*
X103599500Y-65606535D01*
X103599500Y-65813464D01*
X103639868Y-66016413D01*
X103639870Y-66016420D01*
X103719059Y-66207598D01*
X103834023Y-66379655D01*
X103980345Y-66525977D01*
X104152402Y-66640941D01*
X104343580Y-66720130D01*
X104546535Y-66760500D01*
X104546536Y-66760500D01*
X104753464Y-66760500D01*
X104753465Y-66760500D01*
X104956420Y-66720130D01*
X105147598Y-66640941D01*
X105319655Y-66525977D01*
X105465977Y-66379655D01*
X105580941Y-66207598D01*
X105660130Y-66016420D01*
X105700500Y-65813465D01*
X105700500Y-65606535D01*
X105660130Y-65403580D01*
X105580941Y-65212402D01*
X105465977Y-65040345D01*
X105319655Y-64894023D01*
X105253323Y-64849702D01*
X105147598Y-64779059D01*
X104956420Y-64699870D01*
X104956413Y-64699868D01*
X104801140Y-64668983D01*
X104753465Y-64659500D01*
X104546535Y-64659500D01*
X104506385Y-64667486D01*
X104343586Y-64699868D01*
X104343579Y-64699870D01*
X104152401Y-64779059D01*
X103980345Y-64894022D01*
X103980344Y-64894024D01*
X103834024Y-65040344D01*
X103834022Y-65040345D01*
X103719059Y-65212401D01*
X103639870Y-65403579D01*
X103639868Y-65403586D01*
X103599500Y-65606535D01*
X103160500Y-65606535D01*
X103120130Y-65403580D01*
X103040941Y-65212402D01*
X102925977Y-65040345D01*
X102779655Y-64894023D01*
X102713323Y-64849702D01*
X102607598Y-64779059D01*
X102416420Y-64699870D01*
X102416413Y-64699868D01*
X102261140Y-64668983D01*
X102213465Y-64659500D01*
X102006535Y-64659500D01*
X101966385Y-64667486D01*
X101803586Y-64699868D01*
X101803579Y-64699870D01*
X101612401Y-64779059D01*
X101440345Y-64894022D01*
X101440344Y-64894024D01*
X101294024Y-65040344D01*
X101294022Y-65040345D01*
X101179059Y-65212401D01*
X101099870Y-65403579D01*
X101099868Y-65403586D01*
X101059500Y-65606535D01*
X100610000Y-65606535D01*
X100610000Y-63066535D01*
X101059500Y-63066535D01*
X101059500Y-63273465D01*
X101069455Y-63323516D01*
X101099868Y-63476413D01*
X101099870Y-63476420D01*
X101179059Y-63667598D01*
X101294023Y-63839655D01*
X101440345Y-63985977D01*
X101612402Y-64100941D01*
X101803580Y-64180130D01*
X102006535Y-64220500D01*
X102006536Y-64220500D01*
X102213464Y-64220500D01*
X102213465Y-64220500D01*
X102416420Y-64180130D01*
X102607598Y-64100941D01*
X102779655Y-63985977D01*
X102925977Y-63839655D01*
X103040941Y-63667598D01*
X103120130Y-63476420D01*
X103160500Y-63273465D01*
X103160500Y-63066535D01*
X103599500Y-63066535D01*
X103599500Y-63273465D01*
X103609455Y-63323516D01*
X103639868Y-63476413D01*
X103639870Y-63476420D01*
X103719059Y-63667598D01*
X103834023Y-63839655D01*
X103980345Y-63985977D01*
X104152402Y-64100941D01*
X104343580Y-64180130D01*
X104546535Y-64220500D01*
X104546536Y-64220500D01*
X104753464Y-64220500D01*
X104753465Y-64220500D01*
X104956420Y-64180130D01*
X105147598Y-64100941D01*
X105319655Y-63985977D01*
X105465977Y-63839655D01*
X105580941Y-63667598D01*
X105660130Y-63476420D01*
X105700500Y-63273465D01*
X105700500Y-63066535D01*
X105660130Y-62863580D01*
X105580941Y-62672402D01*
X105465977Y-62500345D01*
X105319655Y-62354023D01*
X105283896Y-62330130D01*
X105147598Y-62239059D01*
X104956420Y-62159870D01*
X104956413Y-62159868D01*
X104803516Y-62129455D01*
X104753465Y-62119500D01*
X104546535Y-62119500D01*
X104506385Y-62127486D01*
X104343586Y-62159868D01*
X104343579Y-62159870D01*
X104152401Y-62239059D01*
X103980345Y-62354022D01*
X103980344Y-62354024D01*
X103834024Y-62500344D01*
X103834022Y-62500345D01*
X103719059Y-62672401D01*
X103639870Y-62863579D01*
X103639868Y-62863586D01*
X103613072Y-62998301D01*
X103599500Y-63066535D01*
X103160500Y-63066535D01*
X103120130Y-62863580D01*
X103040941Y-62672402D01*
X102925977Y-62500345D01*
X102779655Y-62354023D01*
X102743896Y-62330130D01*
X102607598Y-62239059D01*
X102416420Y-62159870D01*
X102416413Y-62159868D01*
X102263516Y-62129455D01*
X102213465Y-62119500D01*
X102006535Y-62119500D01*
X101966385Y-62127486D01*
X101803586Y-62159868D01*
X101803579Y-62159870D01*
X101612401Y-62239059D01*
X101440345Y-62354022D01*
X101440344Y-62354024D01*
X101294024Y-62500344D01*
X101294022Y-62500345D01*
X101179059Y-62672401D01*
X101099870Y-62863579D01*
X101099868Y-62863586D01*
X101073072Y-62998301D01*
X101059500Y-63066535D01*
X100610000Y-63066535D01*
X100610000Y-60526535D01*
X103599500Y-60526535D01*
X103599500Y-60733464D01*
X103639868Y-60936413D01*
X103639870Y-60936420D01*
X103719059Y-61127598D01*
X103784474Y-61225500D01*
X103834023Y-61299655D01*
X103980345Y-61445977D01*
X104152402Y-61560941D01*
X104343580Y-61640130D01*
X104546535Y-61680500D01*
X104546536Y-61680500D01*
X104753464Y-61680500D01*
X104753465Y-61680500D01*
X104956420Y-61640130D01*
X105147598Y-61560941D01*
X105319655Y-61445977D01*
X105465977Y-61299655D01*
X105580941Y-61127598D01*
X105660130Y-60936420D01*
X105700500Y-60733465D01*
X105700500Y-60526535D01*
X105660130Y-60323580D01*
X105580941Y-60132402D01*
X105465977Y-59960345D01*
X105319655Y-59814023D01*
X105283896Y-59790130D01*
X105147598Y-59699059D01*
X104956420Y-59619870D01*
X104956413Y-59619868D01*
X104803516Y-59589455D01*
X104753465Y-59579500D01*
X104546535Y-59579500D01*
X104506385Y-59587486D01*
X104343586Y-59619868D01*
X104343579Y-59619870D01*
X104152401Y-59699059D01*
X103980345Y-59814022D01*
X103980344Y-59814024D01*
X103834024Y-59960344D01*
X103834022Y-59960345D01*
X103719059Y-60132401D01*
X103639870Y-60323579D01*
X103639868Y-60323586D01*
X103599500Y-60526535D01*
X100610000Y-60526535D01*
X100610000Y-58259105D01*
X109949500Y-58259105D01*
X109949500Y-58390894D01*
X109983606Y-58518181D01*
X109983610Y-58518190D01*
X110049500Y-58632314D01*
X110127826Y-58710640D01*
X110149500Y-58762966D01*
X110149500Y-67439564D01*
X110169977Y-67515985D01*
X110169979Y-67515990D01*
X110207133Y-67580342D01*
X110207135Y-67580345D01*
X110209540Y-67584511D01*
X110209541Y-67584512D01*
X116681011Y-74055982D01*
X116702685Y-74108308D01*
X116702362Y-74115217D01*
X116702354Y-74115300D01*
X116702354Y-74115301D01*
X116699500Y-74145734D01*
X116699500Y-74954266D01*
X116702354Y-74984699D01*
X116702354Y-74984701D01*
X116702355Y-74984704D01*
X116747206Y-75112881D01*
X116747207Y-75112883D01*
X116827846Y-75222146D01*
X116827853Y-75222153D01*
X116937116Y-75302792D01*
X116937118Y-75302793D01*
X117065295Y-75347644D01*
X117065301Y-75347646D01*
X117095734Y-75350500D01*
X117095741Y-75350500D01*
X118104258Y-75350500D01*
X118104266Y-75350500D01*
X118134699Y-75347646D01*
X118262882Y-75302793D01*
X118372150Y-75222150D01*
X118452793Y-75112882D01*
X118497646Y-74984699D01*
X118500500Y-74954266D01*
X118500500Y-74924500D01*
X118522174Y-74872174D01*
X118574500Y-74850500D01*
X119375500Y-74850500D01*
X119427826Y-74872174D01*
X119449500Y-74924500D01*
X119449500Y-75219748D01*
X119456972Y-75257314D01*
X119461133Y-75278232D01*
X119482130Y-75309655D01*
X119505448Y-75344552D01*
X119514350Y-75350500D01*
X119571767Y-75388866D01*
X119571768Y-75388866D01*
X119571769Y-75388867D01*
X119630252Y-75400500D01*
X119630254Y-75400500D01*
X121369746Y-75400500D01*
X121369748Y-75400500D01*
X121428231Y-75388867D01*
X121494552Y-75344552D01*
X121538867Y-75278231D01*
X121550500Y-75219748D01*
X121550500Y-75074500D01*
X121572174Y-75022174D01*
X121624500Y-75000500D01*
X125675500Y-75000500D01*
X125727826Y-75022174D01*
X125749500Y-75074500D01*
X125749500Y-75219748D01*
X125756972Y-75257314D01*
X125761133Y-75278232D01*
X125782130Y-75309655D01*
X125805448Y-75344552D01*
X125814350Y-75350500D01*
X125871767Y-75388866D01*
X125871768Y-75388866D01*
X125871769Y-75388867D01*
X125930252Y-75400500D01*
X125930254Y-75400500D01*
X127669746Y-75400500D01*
X127669748Y-75400500D01*
X127728231Y-75388867D01*
X127794552Y-75344552D01*
X127838867Y-75278231D01*
X127850500Y-75219748D01*
X127850500Y-74974500D01*
X127872174Y-74922174D01*
X127924500Y-74900500D01*
X128475500Y-74900500D01*
X128527826Y-74922174D01*
X128549500Y-74974500D01*
X128549500Y-75104266D01*
X128552354Y-75134699D01*
X128552354Y-75134701D01*
X128552355Y-75134704D01*
X128597206Y-75262881D01*
X128597207Y-75262883D01*
X128677846Y-75372146D01*
X128677853Y-75372153D01*
X128787116Y-75452792D01*
X128787118Y-75452793D01*
X128915295Y-75497644D01*
X128915301Y-75497646D01*
X128945734Y-75500500D01*
X128945741Y-75500500D01*
X129754258Y-75500500D01*
X129754266Y-75500500D01*
X129784699Y-75497646D01*
X129912882Y-75452793D01*
X130022150Y-75372150D01*
X130102793Y-75262882D01*
X130147646Y-75134699D01*
X130150500Y-75104266D01*
X130150500Y-74095734D01*
X130549500Y-74095734D01*
X130549500Y-75104266D01*
X130552354Y-75134699D01*
X130552354Y-75134701D01*
X130552355Y-75134704D01*
X130597206Y-75262881D01*
X130597207Y-75262883D01*
X130677846Y-75372146D01*
X130677853Y-75372153D01*
X130787116Y-75452792D01*
X130787118Y-75452793D01*
X130915295Y-75497644D01*
X130915301Y-75497646D01*
X130945734Y-75500500D01*
X130945741Y-75500500D01*
X131754258Y-75500500D01*
X131754266Y-75500500D01*
X131784699Y-75497646D01*
X131912882Y-75452793D01*
X132022150Y-75372150D01*
X132102793Y-75262882D01*
X132147646Y-75134699D01*
X132150500Y-75104266D01*
X132150500Y-74974500D01*
X132172174Y-74922174D01*
X132224500Y-74900500D01*
X151669877Y-74900500D01*
X151722203Y-74922174D01*
X151902826Y-75102797D01*
X151924500Y-75155123D01*
X151924500Y-75265894D01*
X151958606Y-75393181D01*
X151958610Y-75393190D01*
X151993022Y-75452793D01*
X152024500Y-75507314D01*
X152117686Y-75600500D01*
X152191991Y-75643400D01*
X152226470Y-75688333D01*
X152219077Y-75744486D01*
X152174145Y-75778964D01*
X152156816Y-75783607D01*
X152156809Y-75783610D01*
X152042685Y-75849500D01*
X151949497Y-75942689D01*
X151938060Y-75962500D01*
X151893127Y-75996978D01*
X151873974Y-75999500D01*
X148037966Y-75999500D01*
X147985640Y-75977826D01*
X147907314Y-75899500D01*
X147793190Y-75833610D01*
X147793181Y-75833606D01*
X147665894Y-75799500D01*
X147665892Y-75799500D01*
X147534108Y-75799500D01*
X147534106Y-75799500D01*
X147406818Y-75833606D01*
X147406809Y-75833610D01*
X147292685Y-75899500D01*
X147199500Y-75992685D01*
X147133610Y-76106809D01*
X147133606Y-76106818D01*
X147099500Y-76234105D01*
X147099500Y-76365894D01*
X147133606Y-76493181D01*
X147133607Y-76493184D01*
X147133608Y-76493186D01*
X147199500Y-76607314D01*
X147292686Y-76700500D01*
X147406814Y-76766392D01*
X147534105Y-76800499D01*
X147534106Y-76800500D01*
X147534108Y-76800500D01*
X147665894Y-76800500D01*
X147665894Y-76800499D01*
X147793186Y-76766392D01*
X147907314Y-76700500D01*
X147985640Y-76622174D01*
X148037966Y-76600500D01*
X151962034Y-76600500D01*
X152014360Y-76622174D01*
X152042686Y-76650500D01*
X152156814Y-76716392D01*
X152284105Y-76750499D01*
X152284106Y-76750500D01*
X152284108Y-76750500D01*
X152415894Y-76750500D01*
X152415894Y-76750499D01*
X152543186Y-76716392D01*
X152657314Y-76650500D01*
X152750500Y-76557314D01*
X152816392Y-76443186D01*
X152850499Y-76315894D01*
X152850500Y-76315894D01*
X152850500Y-76184106D01*
X152850499Y-76184105D01*
X152850064Y-76182483D01*
X152816392Y-76056814D01*
X152750500Y-75942686D01*
X152657314Y-75849500D01*
X152629790Y-75833609D01*
X152583008Y-75806599D01*
X152548529Y-75761665D01*
X152555922Y-75705513D01*
X152600852Y-75671036D01*
X152618186Y-75666392D01*
X152732314Y-75600500D01*
X152825500Y-75507314D01*
X152891392Y-75393186D01*
X152925499Y-75265894D01*
X152925500Y-75265894D01*
X152925500Y-75134106D01*
X152925499Y-75134105D01*
X152919812Y-75112882D01*
X152891392Y-75006814D01*
X152825500Y-74892686D01*
X152732314Y-74799500D01*
X152658380Y-74756814D01*
X152618190Y-74733610D01*
X152618181Y-74733606D01*
X152490894Y-74699500D01*
X152490892Y-74699500D01*
X152380123Y-74699500D01*
X152327797Y-74677826D01*
X152009511Y-74359540D01*
X151940990Y-74319979D01*
X151940985Y-74319977D01*
X151864564Y-74299500D01*
X151864562Y-74299500D01*
X132224500Y-74299500D01*
X132172174Y-74277826D01*
X132150500Y-74225500D01*
X132150500Y-74095740D01*
X132150500Y-74095734D01*
X132147646Y-74065301D01*
X132135928Y-74031814D01*
X132102793Y-73937118D01*
X132102792Y-73937116D01*
X132022153Y-73827853D01*
X132022146Y-73827846D01*
X131912883Y-73747207D01*
X131912881Y-73747206D01*
X131784704Y-73702355D01*
X131784705Y-73702355D01*
X131784700Y-73702354D01*
X131784699Y-73702354D01*
X131754266Y-73699500D01*
X130945734Y-73699500D01*
X130915301Y-73702354D01*
X130915299Y-73702354D01*
X130915295Y-73702355D01*
X130787118Y-73747206D01*
X130787116Y-73747207D01*
X130677853Y-73827846D01*
X130677846Y-73827853D01*
X130597207Y-73937116D01*
X130597206Y-73937118D01*
X130552355Y-74065295D01*
X130552354Y-74065299D01*
X130552354Y-74065301D01*
X130549500Y-74095734D01*
X130150500Y-74095734D01*
X130147646Y-74065301D01*
X130135928Y-74031814D01*
X130102793Y-73937118D01*
X130102792Y-73937116D01*
X130022153Y-73827853D01*
X130022146Y-73827846D01*
X129912883Y-73747207D01*
X129912881Y-73747206D01*
X129784704Y-73702355D01*
X129784705Y-73702355D01*
X129784700Y-73702354D01*
X129784699Y-73702354D01*
X129754266Y-73699500D01*
X128945734Y-73699500D01*
X128915301Y-73702354D01*
X128915299Y-73702354D01*
X128915295Y-73702355D01*
X128787118Y-73747206D01*
X128787116Y-73747207D01*
X128677853Y-73827846D01*
X128677846Y-73827853D01*
X128597207Y-73937116D01*
X128597206Y-73937118D01*
X128552355Y-74065295D01*
X128552354Y-74065299D01*
X128552354Y-74065301D01*
X128549500Y-74095734D01*
X128549500Y-74095740D01*
X128549500Y-74225500D01*
X128527826Y-74277826D01*
X128475500Y-74299500D01*
X127924500Y-74299500D01*
X127872174Y-74277826D01*
X127850500Y-74225500D01*
X127850500Y-74180253D01*
X127846294Y-74159108D01*
X127838867Y-74121769D01*
X127794552Y-74055448D01*
X127759182Y-74031814D01*
X127728232Y-74011133D01*
X127728233Y-74011133D01*
X127698989Y-74005316D01*
X127669748Y-73999500D01*
X125930252Y-73999500D01*
X125901010Y-74005316D01*
X125871767Y-74011133D01*
X125805449Y-74055447D01*
X125805447Y-74055449D01*
X125761133Y-74121767D01*
X125749500Y-74180253D01*
X125749500Y-74325500D01*
X125727826Y-74377826D01*
X125675500Y-74399500D01*
X121624500Y-74399500D01*
X121572174Y-74377826D01*
X121550500Y-74325500D01*
X121550500Y-74180253D01*
X121546294Y-74159108D01*
X121538867Y-74121769D01*
X121494552Y-74055448D01*
X121459182Y-74031814D01*
X121428232Y-74011133D01*
X121428233Y-74011133D01*
X121398989Y-74005316D01*
X121369748Y-73999500D01*
X119630252Y-73999500D01*
X119601010Y-74005316D01*
X119571767Y-74011133D01*
X119505449Y-74055447D01*
X119505447Y-74055449D01*
X119461133Y-74121767D01*
X119449499Y-74180256D01*
X119449253Y-74182757D01*
X119448853Y-74183504D01*
X119448791Y-74183818D01*
X119448695Y-74183799D01*
X119422552Y-74232705D01*
X119375610Y-74249500D01*
X118574500Y-74249500D01*
X118522174Y-74227826D01*
X118500500Y-74175500D01*
X118500500Y-74145740D01*
X118500500Y-74145738D01*
X118500500Y-74145734D01*
X118497646Y-74115301D01*
X118476889Y-74055982D01*
X118452793Y-73987118D01*
X118452792Y-73987116D01*
X118372153Y-73877853D01*
X118372146Y-73877846D01*
X118262883Y-73797207D01*
X118262881Y-73797206D01*
X118134704Y-73752355D01*
X118134705Y-73752355D01*
X118134700Y-73752354D01*
X118134699Y-73752354D01*
X118104266Y-73749500D01*
X118104260Y-73749500D01*
X117255123Y-73749500D01*
X117202797Y-73727826D01*
X113834076Y-70359105D01*
X129624500Y-70359105D01*
X129624500Y-70490894D01*
X129658606Y-70618181D01*
X129658610Y-70618190D01*
X129679625Y-70654588D01*
X129724500Y-70732314D01*
X129817686Y-70825500D01*
X129931814Y-70891392D01*
X130059105Y-70925499D01*
X130059106Y-70925500D01*
X130059108Y-70925500D01*
X130190894Y-70925500D01*
X130190894Y-70925499D01*
X130318186Y-70891392D01*
X130432314Y-70825500D01*
X130525500Y-70732314D01*
X130591392Y-70618186D01*
X130625499Y-70490894D01*
X130625500Y-70490894D01*
X130625500Y-70380122D01*
X130647174Y-70327796D01*
X131445470Y-69529500D01*
X132626460Y-68348511D01*
X132626828Y-68347872D01*
X132627661Y-68346431D01*
X132627667Y-68346420D01*
X132634777Y-68334105D01*
X132666021Y-68279989D01*
X132686499Y-68203564D01*
X132686500Y-68203564D01*
X132686500Y-67109105D01*
X137599500Y-67109105D01*
X137599500Y-67240894D01*
X137633606Y-67368181D01*
X137633610Y-67368190D01*
X137671619Y-67434023D01*
X137699500Y-67482314D01*
X137792686Y-67575500D01*
X137906814Y-67641392D01*
X138034105Y-67675499D01*
X138034106Y-67675500D01*
X138034108Y-67675500D01*
X138165894Y-67675500D01*
X138165894Y-67675499D01*
X138293186Y-67641392D01*
X138407314Y-67575500D01*
X138500500Y-67482314D01*
X138566392Y-67368186D01*
X138600499Y-67240894D01*
X138600500Y-67240894D01*
X138600500Y-67109106D01*
X138600499Y-67109105D01*
X138598807Y-67102792D01*
X138566392Y-66981814D01*
X138500500Y-66867686D01*
X138407314Y-66774500D01*
X138355439Y-66744550D01*
X138293190Y-66708610D01*
X138293181Y-66708606D01*
X138165894Y-66674500D01*
X138165892Y-66674500D01*
X138034108Y-66674500D01*
X138034106Y-66674500D01*
X137906818Y-66708606D01*
X137906809Y-66708610D01*
X137792685Y-66774500D01*
X137699500Y-66867685D01*
X137633610Y-66981809D01*
X137633606Y-66981818D01*
X137599500Y-67109105D01*
X132686500Y-67109105D01*
X132686500Y-65371123D01*
X132708174Y-65318797D01*
X134359373Y-63667598D01*
X136040460Y-61986511D01*
X136055513Y-61960438D01*
X136080021Y-61917989D01*
X136100499Y-61841564D01*
X136100500Y-61841564D01*
X136100500Y-61262966D01*
X136122174Y-61210640D01*
X136152562Y-61180252D01*
X136200500Y-61132314D01*
X136266392Y-61018186D01*
X136300499Y-60890894D01*
X136300500Y-60890894D01*
X136300500Y-60759106D01*
X136300499Y-60759105D01*
X136266393Y-60631818D01*
X136266392Y-60631814D01*
X136236623Y-60580252D01*
X139599500Y-60580252D01*
X139599500Y-66619748D01*
X139603716Y-66640941D01*
X139611133Y-66678232D01*
X139631432Y-66708610D01*
X139655448Y-66744552D01*
X139699560Y-66774027D01*
X139721767Y-66788866D01*
X139721768Y-66788866D01*
X139721769Y-66788867D01*
X139780252Y-66800500D01*
X139780254Y-66800500D01*
X142819746Y-66800500D01*
X142819748Y-66800500D01*
X142878231Y-66788867D01*
X142944552Y-66744552D01*
X142988867Y-66678231D01*
X143000500Y-66619748D01*
X143000500Y-64145544D01*
X143022174Y-64093218D01*
X143074500Y-64071544D01*
X143126824Y-64093217D01*
X144065096Y-65031488D01*
X145027826Y-65994218D01*
X145049500Y-66046544D01*
X145049500Y-70805376D01*
X145027826Y-70857702D01*
X144999941Y-70875223D01*
X144937118Y-70897206D01*
X144937116Y-70897207D01*
X144827853Y-70977846D01*
X144827846Y-70977853D01*
X144747207Y-71087116D01*
X144747206Y-71087118D01*
X144702355Y-71215295D01*
X144702354Y-71215299D01*
X144702354Y-71215301D01*
X144699500Y-71245734D01*
X144699500Y-71245740D01*
X144699500Y-72188593D01*
X144677826Y-72240919D01*
X144644653Y-72260071D01*
X144556817Y-72283606D01*
X144556812Y-72283608D01*
X144442685Y-72349500D01*
X144349500Y-72442685D01*
X144283610Y-72556809D01*
X144283606Y-72556818D01*
X144249500Y-72684105D01*
X144249500Y-72815894D01*
X144283606Y-72943181D01*
X144283610Y-72943190D01*
X144335812Y-73033606D01*
X144349500Y-73057314D01*
X144442686Y-73150500D01*
X144556814Y-73216392D01*
X144684105Y-73250499D01*
X144684106Y-73250500D01*
X144684108Y-73250500D01*
X144815894Y-73250500D01*
X144815894Y-73250499D01*
X144943186Y-73216392D01*
X145057314Y-73150500D01*
X145150500Y-73057314D01*
X145216392Y-72943186D01*
X145245367Y-72835045D01*
X145264520Y-72801872D01*
X145394219Y-72672174D01*
X145446545Y-72650500D01*
X145904258Y-72650500D01*
X145904266Y-72650500D01*
X145934699Y-72647646D01*
X146062882Y-72602793D01*
X146172150Y-72522150D01*
X146252793Y-72412882D01*
X146297646Y-72284699D01*
X146300500Y-72254266D01*
X146300500Y-71245734D01*
X146699500Y-71245734D01*
X146699500Y-72254266D01*
X146702354Y-72284699D01*
X146702354Y-72284701D01*
X146702355Y-72284704D01*
X146747206Y-72412881D01*
X146747207Y-72412883D01*
X146827846Y-72522146D01*
X146827853Y-72522153D01*
X146937116Y-72602792D01*
X146937118Y-72602793D01*
X147065295Y-72647644D01*
X147065301Y-72647646D01*
X147095734Y-72650500D01*
X147095741Y-72650500D01*
X147904258Y-72650500D01*
X147904266Y-72650500D01*
X147934699Y-72647646D01*
X148062882Y-72602793D01*
X148172150Y-72522150D01*
X148252793Y-72412882D01*
X148297646Y-72284699D01*
X148300500Y-72254266D01*
X148300500Y-71546544D01*
X148322173Y-71494219D01*
X149070480Y-70745913D01*
X149123207Y-70654588D01*
X149150500Y-70552727D01*
X149150500Y-70447273D01*
X149150500Y-68659105D01*
X153399500Y-68659105D01*
X153399500Y-68790894D01*
X153433606Y-68918181D01*
X153433610Y-68918190D01*
X153464066Y-68970941D01*
X153499500Y-69032314D01*
X153592686Y-69125500D01*
X153706814Y-69191392D01*
X153834105Y-69225499D01*
X153834106Y-69225500D01*
X153834108Y-69225500D01*
X153965894Y-69225500D01*
X153965894Y-69225499D01*
X154093186Y-69191392D01*
X154207314Y-69125500D01*
X154300500Y-69032314D01*
X154366392Y-68918186D01*
X154400499Y-68790894D01*
X154400500Y-68790894D01*
X154400500Y-68659106D01*
X154400499Y-68659105D01*
X154366393Y-68531818D01*
X154366392Y-68531814D01*
X154300500Y-68417686D01*
X154207314Y-68324500D01*
X154130212Y-68279985D01*
X154093190Y-68258610D01*
X154093181Y-68258606D01*
X153965894Y-68224500D01*
X153965892Y-68224500D01*
X153834108Y-68224500D01*
X153834106Y-68224500D01*
X153706818Y-68258606D01*
X153706809Y-68258610D01*
X153592685Y-68324500D01*
X153499500Y-68417685D01*
X153433610Y-68531809D01*
X153433606Y-68531818D01*
X153399500Y-68659105D01*
X149150500Y-68659105D01*
X149150500Y-68346544D01*
X149172174Y-68294218D01*
X151473174Y-65993218D01*
X151525500Y-65971544D01*
X151577826Y-65993218D01*
X151599500Y-66045544D01*
X151599500Y-66619748D01*
X151603716Y-66640941D01*
X151611133Y-66678232D01*
X151631432Y-66708610D01*
X151655448Y-66744552D01*
X151699560Y-66774027D01*
X151721767Y-66788866D01*
X151721768Y-66788866D01*
X151721769Y-66788867D01*
X151780252Y-66800500D01*
X151780254Y-66800500D01*
X154819746Y-66800500D01*
X154819748Y-66800500D01*
X154878231Y-66788867D01*
X154944552Y-66744552D01*
X154988867Y-66678231D01*
X155000500Y-66619748D01*
X155000500Y-62374500D01*
X155022174Y-62322174D01*
X155074500Y-62300500D01*
X156675500Y-62300500D01*
X156727826Y-62322174D01*
X156749500Y-62374500D01*
X156749500Y-62620764D01*
X156759427Y-62688893D01*
X156759427Y-62688894D01*
X156810801Y-62793982D01*
X156810802Y-62793983D01*
X156893517Y-62876698D01*
X156998607Y-62928073D01*
X157066740Y-62938000D01*
X157066746Y-62938000D01*
X157433254Y-62938000D01*
X157433260Y-62938000D01*
X157501393Y-62928073D01*
X157606483Y-62876698D01*
X157689198Y-62793983D01*
X157740573Y-62688893D01*
X157750500Y-62620760D01*
X157750500Y-61379240D01*
X157740573Y-61311107D01*
X157689198Y-61206017D01*
X157606483Y-61123302D01*
X157606482Y-61123301D01*
X157501394Y-61071927D01*
X157433264Y-61062000D01*
X157433260Y-61062000D01*
X157066740Y-61062000D01*
X157066735Y-61062000D01*
X156998606Y-61071927D01*
X156998605Y-61071927D01*
X156893517Y-61123301D01*
X156810801Y-61206017D01*
X156759427Y-61311105D01*
X156759427Y-61311106D01*
X156749500Y-61379235D01*
X156749500Y-61625500D01*
X156727826Y-61677826D01*
X156675500Y-61699500D01*
X155074500Y-61699500D01*
X155022174Y-61677826D01*
X155000500Y-61625500D01*
X155000500Y-60580253D01*
X154996571Y-60560500D01*
X154988867Y-60521769D01*
X154944552Y-60455448D01*
X154898236Y-60424500D01*
X154878232Y-60411133D01*
X154878233Y-60411133D01*
X154848989Y-60405316D01*
X154819748Y-60399500D01*
X151780252Y-60399500D01*
X151751010Y-60405316D01*
X151721767Y-60411133D01*
X151655449Y-60455447D01*
X151655447Y-60455449D01*
X151611133Y-60521767D01*
X151599500Y-60580253D01*
X151599500Y-64703455D01*
X151577826Y-64755781D01*
X148429517Y-67904090D01*
X148376795Y-67995407D01*
X148376794Y-67995409D01*
X148376793Y-67995411D01*
X148376793Y-67995412D01*
X148373186Y-68008876D01*
X148354257Y-68079521D01*
X148354256Y-68079521D01*
X148349500Y-68097270D01*
X148349500Y-70303455D01*
X148327826Y-70355781D01*
X147855781Y-70827826D01*
X147803455Y-70849500D01*
X147095734Y-70849500D01*
X147065301Y-70852354D01*
X147065299Y-70852354D01*
X147065295Y-70852355D01*
X146937118Y-70897206D01*
X146937116Y-70897207D01*
X146827853Y-70977846D01*
X146827846Y-70977853D01*
X146747207Y-71087116D01*
X146747206Y-71087118D01*
X146702355Y-71215295D01*
X146702354Y-71215299D01*
X146702354Y-71215301D01*
X146699500Y-71245734D01*
X146300500Y-71245734D01*
X146297646Y-71215301D01*
X146252793Y-71087118D01*
X146219044Y-71041389D01*
X146172153Y-70977853D01*
X146172146Y-70977846D01*
X146062883Y-70897207D01*
X146062881Y-70897206D01*
X145934704Y-70852355D01*
X145934705Y-70852355D01*
X145934700Y-70852354D01*
X145934699Y-70852354D01*
X145917588Y-70850749D01*
X145867517Y-70824284D01*
X145850500Y-70777073D01*
X145850500Y-65908698D01*
X145850501Y-65908685D01*
X145850501Y-65797272D01*
X145850500Y-65797271D01*
X145823208Y-65695416D01*
X145823206Y-65695411D01*
X145776298Y-65614165D01*
X145771893Y-65606535D01*
X145770480Y-65604087D01*
X145695913Y-65529520D01*
X145695910Y-65529518D01*
X143445913Y-63279520D01*
X143445910Y-63279518D01*
X143445909Y-63279517D01*
X143354592Y-63226795D01*
X143354588Y-63226793D01*
X143252727Y-63199500D01*
X143252726Y-63199500D01*
X143074500Y-63199500D01*
X143022174Y-63177826D01*
X143000500Y-63125500D01*
X143000500Y-60580253D01*
X142996571Y-60560500D01*
X142988867Y-60521769D01*
X142944552Y-60455448D01*
X142898236Y-60424500D01*
X142878232Y-60411133D01*
X142878233Y-60411133D01*
X142848989Y-60405316D01*
X142819748Y-60399500D01*
X139780252Y-60399500D01*
X139751010Y-60405316D01*
X139721767Y-60411133D01*
X139655449Y-60455447D01*
X139655447Y-60455449D01*
X139611133Y-60521767D01*
X139611133Y-60521769D01*
X139599500Y-60580252D01*
X136236623Y-60580252D01*
X136200500Y-60517686D01*
X136107314Y-60424500D01*
X136045929Y-60389059D01*
X135993190Y-60358610D01*
X135993181Y-60358606D01*
X135865894Y-60324500D01*
X135865892Y-60324500D01*
X135734108Y-60324500D01*
X135734106Y-60324500D01*
X135606818Y-60358606D01*
X135606809Y-60358610D01*
X135492685Y-60424500D01*
X135399500Y-60517685D01*
X135333610Y-60631809D01*
X135333606Y-60631818D01*
X135299500Y-60759105D01*
X135299500Y-60890894D01*
X135333606Y-61018181D01*
X135333610Y-61018190D01*
X135399500Y-61132314D01*
X135477826Y-61210640D01*
X135499500Y-61262966D01*
X135499500Y-61646877D01*
X135477826Y-61699203D01*
X134426826Y-62750203D01*
X134374500Y-62771877D01*
X134322174Y-62750203D01*
X134300500Y-62697877D01*
X134300500Y-61180253D01*
X134300500Y-61180252D01*
X134288867Y-61121769D01*
X134280730Y-61109592D01*
X134255563Y-61071927D01*
X134244552Y-61055448D01*
X134222343Y-61040608D01*
X134178232Y-61011133D01*
X134178233Y-61011133D01*
X134148989Y-61005316D01*
X134119748Y-60999500D01*
X132380252Y-60999500D01*
X132351010Y-61005316D01*
X132321767Y-61011133D01*
X132255449Y-61055447D01*
X132255447Y-61055449D01*
X132211133Y-61121767D01*
X132209494Y-61130009D01*
X132199500Y-61180252D01*
X132199500Y-62919748D01*
X132203131Y-62938000D01*
X132211133Y-62978232D01*
X132224544Y-62998302D01*
X132255448Y-63044552D01*
X132299560Y-63074027D01*
X132321767Y-63088866D01*
X132321768Y-63088866D01*
X132321769Y-63088867D01*
X132380252Y-63100500D01*
X133897877Y-63100500D01*
X133950203Y-63122174D01*
X133971877Y-63174500D01*
X133950203Y-63226826D01*
X132145540Y-65031488D01*
X132105979Y-65100009D01*
X132105977Y-65100014D01*
X132085500Y-65176435D01*
X132085500Y-68008876D01*
X132063826Y-68061202D01*
X130222202Y-69902826D01*
X130169876Y-69924500D01*
X130059106Y-69924500D01*
X129931818Y-69958606D01*
X129931809Y-69958610D01*
X129817685Y-70024500D01*
X129724500Y-70117685D01*
X129658610Y-70231809D01*
X129658606Y-70231818D01*
X129624500Y-70359105D01*
X113834076Y-70359105D01*
X110772174Y-67297203D01*
X110750500Y-67244877D01*
X110750500Y-59406535D01*
X132199500Y-59406535D01*
X132199500Y-59613464D01*
X132239868Y-59816413D01*
X132239870Y-59816420D01*
X132319059Y-60007598D01*
X132434023Y-60179655D01*
X132580345Y-60325977D01*
X132752402Y-60440941D01*
X132943580Y-60520130D01*
X133146535Y-60560500D01*
X133146536Y-60560500D01*
X133353464Y-60560500D01*
X133353465Y-60560500D01*
X133556420Y-60520130D01*
X133747598Y-60440941D01*
X133919655Y-60325977D01*
X134065977Y-60179655D01*
X134180941Y-60007598D01*
X134260130Y-59816420D01*
X134300500Y-59613465D01*
X134300500Y-59406535D01*
X134260130Y-59203580D01*
X134180941Y-59012402D01*
X134065977Y-58840345D01*
X133919655Y-58694023D01*
X133893482Y-58676535D01*
X133747598Y-58579059D01*
X133556420Y-58499870D01*
X133556413Y-58499868D01*
X133403516Y-58469455D01*
X133353465Y-58459500D01*
X133146535Y-58459500D01*
X133106385Y-58467486D01*
X132943586Y-58499868D01*
X132943579Y-58499870D01*
X132752401Y-58579059D01*
X132580345Y-58694022D01*
X132580344Y-58694024D01*
X132434024Y-58840344D01*
X132434022Y-58840345D01*
X132319059Y-59012401D01*
X132239870Y-59203579D01*
X132239868Y-59203586D01*
X132199500Y-59406535D01*
X110750500Y-59406535D01*
X110750500Y-58762966D01*
X110772174Y-58710640D01*
X110806279Y-58676535D01*
X110850500Y-58632314D01*
X110916392Y-58518186D01*
X110950499Y-58390894D01*
X110950500Y-58390894D01*
X110950500Y-58259106D01*
X110950499Y-58259105D01*
X110916393Y-58131818D01*
X110916392Y-58131814D01*
X110850500Y-58017686D01*
X110757314Y-57924500D01*
X110643190Y-57858610D01*
X110643181Y-57858606D01*
X110515894Y-57824500D01*
X110515892Y-57824500D01*
X110384108Y-57824500D01*
X110384106Y-57824500D01*
X110256818Y-57858606D01*
X110256809Y-57858610D01*
X110142685Y-57924500D01*
X110049500Y-58017685D01*
X109983610Y-58131809D01*
X109983606Y-58131818D01*
X109949500Y-58259105D01*
X100610000Y-58259105D01*
X100610000Y-55034105D01*
X141249500Y-55034105D01*
X141249500Y-55165894D01*
X141283606Y-55293181D01*
X141283610Y-55293190D01*
X141336145Y-55384183D01*
X141349500Y-55407314D01*
X141442686Y-55500500D01*
X141556814Y-55566392D01*
X141684105Y-55600499D01*
X141684106Y-55600500D01*
X141684108Y-55600500D01*
X141815894Y-55600500D01*
X141815894Y-55600499D01*
X141943186Y-55566392D01*
X142057314Y-55500500D01*
X142150500Y-55407314D01*
X142216392Y-55293186D01*
X142250499Y-55165894D01*
X142250500Y-55165894D01*
X142250500Y-55034106D01*
X142250499Y-55034105D01*
X142221398Y-54925499D01*
X142216392Y-54906814D01*
X142150500Y-54792686D01*
X142057314Y-54699500D01*
X141994105Y-54663006D01*
X141943190Y-54633610D01*
X141943181Y-54633606D01*
X141815894Y-54599500D01*
X141815892Y-54599500D01*
X141684108Y-54599500D01*
X141684106Y-54599500D01*
X141556818Y-54633606D01*
X141556809Y-54633610D01*
X141442685Y-54699500D01*
X141349500Y-54792685D01*
X141283610Y-54906809D01*
X141283606Y-54906818D01*
X141249500Y-55034105D01*
X100610000Y-55034105D01*
X100610000Y-54359105D01*
X107099500Y-54359105D01*
X107099500Y-54490894D01*
X107133606Y-54618181D01*
X107133610Y-54618190D01*
X107142512Y-54633608D01*
X107199500Y-54732314D01*
X107292686Y-54825500D01*
X107406814Y-54891392D01*
X107534105Y-54925499D01*
X107534106Y-54925500D01*
X107534108Y-54925500D01*
X107665894Y-54925500D01*
X107665894Y-54925499D01*
X107793186Y-54891392D01*
X107907314Y-54825500D01*
X108000500Y-54732314D01*
X108066392Y-54618186D01*
X108100499Y-54490894D01*
X108100500Y-54490894D01*
X108100500Y-54359106D01*
X108100499Y-54359103D01*
X108097131Y-54346535D01*
X149499500Y-54346535D01*
X149499500Y-54553464D01*
X149539868Y-54756413D01*
X149539870Y-54756420D01*
X149619059Y-54947598D01*
X149734023Y-55119655D01*
X149880345Y-55265977D01*
X150052402Y-55380941D01*
X150243580Y-55460130D01*
X150446535Y-55500500D01*
X150446536Y-55500500D01*
X150653464Y-55500500D01*
X150653465Y-55500500D01*
X150856420Y-55460130D01*
X151047598Y-55380941D01*
X151219655Y-55265977D01*
X151365977Y-55119655D01*
X151480941Y-54947598D01*
X151560130Y-54756420D01*
X151600500Y-54553465D01*
X151600500Y-54346535D01*
X151560130Y-54143580D01*
X151480941Y-53952402D01*
X151365977Y-53780345D01*
X151219655Y-53634023D01*
X151167987Y-53599500D01*
X151047598Y-53519059D01*
X150856420Y-53439870D01*
X150856413Y-53439868D01*
X150703516Y-53409455D01*
X150653465Y-53399500D01*
X150446535Y-53399500D01*
X150406385Y-53407486D01*
X150243586Y-53439868D01*
X150243579Y-53439870D01*
X150052401Y-53519059D01*
X149880345Y-53634022D01*
X149880344Y-53634024D01*
X149734024Y-53780344D01*
X149734022Y-53780345D01*
X149619059Y-53952401D01*
X149539870Y-54143579D01*
X149539868Y-54143586D01*
X149499500Y-54346535D01*
X108097131Y-54346535D01*
X108066393Y-54231818D01*
X108066392Y-54231814D01*
X108000500Y-54117686D01*
X107907314Y-54024500D01*
X107802257Y-53963845D01*
X107793190Y-53958610D01*
X107793181Y-53958606D01*
X107665894Y-53924500D01*
X107665892Y-53924500D01*
X107534108Y-53924500D01*
X107534106Y-53924500D01*
X107406818Y-53958606D01*
X107406809Y-53958610D01*
X107292685Y-54024500D01*
X107199500Y-54117685D01*
X107133610Y-54231809D01*
X107133606Y-54231818D01*
X107099500Y-54359105D01*
X100610000Y-54359105D01*
X100610000Y-52446148D01*
X100631674Y-52393822D01*
X100684000Y-52372148D01*
X100706864Y-52375769D01*
X100812839Y-52410203D01*
X100867211Y-52427870D01*
X100867213Y-52427870D01*
X100867218Y-52427872D01*
X100982609Y-52446148D01*
X101054958Y-52457607D01*
X101054959Y-52457607D01*
X101245042Y-52457607D01*
X101291976Y-52450173D01*
X101432782Y-52427872D01*
X101432789Y-52427869D01*
X101432792Y-52427869D01*
X101613552Y-52369136D01*
X101613554Y-52369134D01*
X101613560Y-52369133D01*
X101782924Y-52282838D01*
X101936703Y-52171111D01*
X102071111Y-52036703D01*
X102182838Y-51882924D01*
X102221760Y-51806535D01*
X149499500Y-51806535D01*
X149499500Y-52013464D01*
X149539868Y-52216413D01*
X149539870Y-52216420D01*
X149619059Y-52407598D01*
X149734023Y-52579655D01*
X149880345Y-52725977D01*
X150052402Y-52840941D01*
X150243580Y-52920130D01*
X150446535Y-52960500D01*
X150446536Y-52960500D01*
X150653464Y-52960500D01*
X150653465Y-52960500D01*
X150856420Y-52920130D01*
X151047598Y-52840941D01*
X151219655Y-52725977D01*
X151365977Y-52579655D01*
X151480941Y-52407598D01*
X151560130Y-52216420D01*
X151600500Y-52013465D01*
X151600500Y-51806535D01*
X151560130Y-51603580D01*
X151497410Y-51452161D01*
X151497410Y-51395526D01*
X151513448Y-51371521D01*
X151803797Y-51081174D01*
X151856123Y-51059500D01*
X152276216Y-51059500D01*
X152328542Y-51081174D01*
X152350216Y-51133500D01*
X152328542Y-51185826D01*
X152274024Y-51240344D01*
X152274022Y-51240345D01*
X152159059Y-51412401D01*
X152079870Y-51603579D01*
X152079868Y-51603586D01*
X152039500Y-51806535D01*
X152039500Y-52013464D01*
X152079868Y-52216413D01*
X152079870Y-52216420D01*
X152159059Y-52407598D01*
X152274023Y-52579655D01*
X152420345Y-52725977D01*
X152592402Y-52840941D01*
X152783580Y-52920130D01*
X152986535Y-52960500D01*
X152986536Y-52960500D01*
X153193464Y-52960500D01*
X153193465Y-52960500D01*
X153396420Y-52920130D01*
X153587598Y-52840941D01*
X153759655Y-52725977D01*
X153905977Y-52579655D01*
X154020941Y-52407598D01*
X154100130Y-52216420D01*
X154140500Y-52013465D01*
X154140500Y-51806535D01*
X154100130Y-51603580D01*
X154020941Y-51412402D01*
X153905977Y-51240345D01*
X153851458Y-51185826D01*
X153829784Y-51133500D01*
X153851458Y-51081174D01*
X153903784Y-51059500D01*
X154816216Y-51059500D01*
X154868542Y-51081174D01*
X154890216Y-51133500D01*
X154868542Y-51185826D01*
X154814024Y-51240344D01*
X154814022Y-51240345D01*
X154699059Y-51412401D01*
X154619870Y-51603579D01*
X154619868Y-51603586D01*
X154579500Y-51806535D01*
X154579500Y-52013464D01*
X154619868Y-52216413D01*
X154619870Y-52216420D01*
X154699059Y-52407598D01*
X154814023Y-52579655D01*
X154960345Y-52725977D01*
X155132402Y-52840941D01*
X155169079Y-52856133D01*
X155209127Y-52896181D01*
X155209127Y-52952819D01*
X155169079Y-52992867D01*
X155140760Y-52998500D01*
X154201436Y-52998500D01*
X154125014Y-53018977D01*
X154125009Y-53018979D01*
X154056488Y-53058540D01*
X153628480Y-53486547D01*
X153576154Y-53508221D01*
X153547836Y-53502588D01*
X153396424Y-53439871D01*
X153396413Y-53439868D01*
X153243516Y-53409455D01*
X153193465Y-53399500D01*
X152986535Y-53399500D01*
X152946385Y-53407486D01*
X152783586Y-53439868D01*
X152783579Y-53439870D01*
X152592401Y-53519059D01*
X152420345Y-53634022D01*
X152420344Y-53634024D01*
X152274024Y-53780344D01*
X152274022Y-53780345D01*
X152159059Y-53952401D01*
X152079870Y-54143579D01*
X152079868Y-54143586D01*
X152039500Y-54346535D01*
X152039500Y-54553464D01*
X152079868Y-54756413D01*
X152079870Y-54756420D01*
X152159059Y-54947598D01*
X152274023Y-55119655D01*
X152420345Y-55265977D01*
X152592402Y-55380941D01*
X152783580Y-55460130D01*
X152986535Y-55500500D01*
X152986536Y-55500500D01*
X153193464Y-55500500D01*
X153193465Y-55500500D01*
X153396420Y-55460130D01*
X153587598Y-55380941D01*
X153759655Y-55265977D01*
X153905977Y-55119655D01*
X154020941Y-54947598D01*
X154100130Y-54756420D01*
X154140500Y-54553465D01*
X154140500Y-54346535D01*
X154100130Y-54143580D01*
X154037410Y-53992161D01*
X154037410Y-53935526D01*
X154053448Y-53911521D01*
X154343797Y-53621174D01*
X154396123Y-53599500D01*
X154816216Y-53599500D01*
X154868542Y-53621174D01*
X154890216Y-53673500D01*
X154868542Y-53725826D01*
X154814024Y-53780344D01*
X154814022Y-53780345D01*
X154699059Y-53952401D01*
X154619870Y-54143579D01*
X154619868Y-54143586D01*
X154579500Y-54346535D01*
X154579500Y-54553464D01*
X154619868Y-54756413D01*
X154619870Y-54756420D01*
X154699059Y-54947598D01*
X154814023Y-55119655D01*
X154960345Y-55265977D01*
X155132402Y-55380941D01*
X155323580Y-55460130D01*
X155526535Y-55500500D01*
X155526536Y-55500500D01*
X155733464Y-55500500D01*
X155733465Y-55500500D01*
X155936420Y-55460130D01*
X156127598Y-55380941D01*
X156299655Y-55265977D01*
X156445977Y-55119655D01*
X156560941Y-54947598D01*
X156640130Y-54756420D01*
X156680500Y-54553465D01*
X156680500Y-54346535D01*
X156640130Y-54143580D01*
X156560941Y-53952402D01*
X156445977Y-53780345D01*
X156391458Y-53725826D01*
X156369784Y-53673500D01*
X156391458Y-53621174D01*
X156443784Y-53599500D01*
X157356216Y-53599500D01*
X157408542Y-53621174D01*
X157430216Y-53673500D01*
X157408542Y-53725826D01*
X157354024Y-53780344D01*
X157354022Y-53780345D01*
X157239059Y-53952401D01*
X157159870Y-54143579D01*
X157159868Y-54143586D01*
X157119500Y-54346535D01*
X157119500Y-54553464D01*
X157159868Y-54756413D01*
X157159870Y-54756420D01*
X157239059Y-54947598D01*
X157354023Y-55119655D01*
X157500345Y-55265977D01*
X157672402Y-55380941D01*
X157863580Y-55460130D01*
X158066535Y-55500500D01*
X158066536Y-55500500D01*
X158273464Y-55500500D01*
X158273465Y-55500500D01*
X158476420Y-55460130D01*
X158667598Y-55380941D01*
X158839655Y-55265977D01*
X158985977Y-55119655D01*
X159100941Y-54947598D01*
X159180130Y-54756420D01*
X159220500Y-54553465D01*
X159220500Y-54346535D01*
X159180130Y-54143580D01*
X159100941Y-53952402D01*
X158985977Y-53780345D01*
X158931458Y-53725826D01*
X158909784Y-53673500D01*
X158931458Y-53621174D01*
X158983784Y-53599500D01*
X159896216Y-53599500D01*
X159948542Y-53621174D01*
X159970216Y-53673500D01*
X159948542Y-53725826D01*
X159894024Y-53780344D01*
X159894022Y-53780345D01*
X159779059Y-53952401D01*
X159699870Y-54143579D01*
X159699868Y-54143586D01*
X159659500Y-54346535D01*
X159659500Y-54553464D01*
X159699868Y-54756413D01*
X159699870Y-54756420D01*
X159779059Y-54947598D01*
X159894023Y-55119655D01*
X160040345Y-55265977D01*
X160212402Y-55380941D01*
X160403580Y-55460130D01*
X160606535Y-55500500D01*
X160606536Y-55500500D01*
X160813464Y-55500500D01*
X160813465Y-55500500D01*
X161016420Y-55460130D01*
X161207598Y-55380941D01*
X161379655Y-55265977D01*
X161525977Y-55119655D01*
X161640941Y-54947598D01*
X161720130Y-54756420D01*
X161760500Y-54553465D01*
X161760500Y-54346535D01*
X161720130Y-54143580D01*
X161640941Y-53952402D01*
X161525977Y-53780345D01*
X161471458Y-53725826D01*
X161449784Y-53673500D01*
X161471458Y-53621174D01*
X161523784Y-53599500D01*
X162436216Y-53599500D01*
X162488542Y-53621174D01*
X162510216Y-53673500D01*
X162488542Y-53725826D01*
X162434024Y-53780344D01*
X162434022Y-53780345D01*
X162319059Y-53952401D01*
X162239870Y-54143579D01*
X162239868Y-54143586D01*
X162199500Y-54346535D01*
X162199500Y-54553464D01*
X162239868Y-54756413D01*
X162239870Y-54756420D01*
X162319059Y-54947598D01*
X162434023Y-55119655D01*
X162580345Y-55265977D01*
X162752402Y-55380941D01*
X162943580Y-55460130D01*
X163146535Y-55500500D01*
X163146536Y-55500500D01*
X163353464Y-55500500D01*
X163353465Y-55500500D01*
X163556420Y-55460130D01*
X163747598Y-55380941D01*
X163919655Y-55265977D01*
X164065977Y-55119655D01*
X164180941Y-54947598D01*
X164260130Y-54756420D01*
X164300500Y-54553465D01*
X164300500Y-54346535D01*
X164260130Y-54143580D01*
X164180941Y-53952402D01*
X164065977Y-53780345D01*
X164011458Y-53725826D01*
X163989784Y-53673500D01*
X164011458Y-53621174D01*
X164063784Y-53599500D01*
X164976216Y-53599500D01*
X165028542Y-53621174D01*
X165050216Y-53673500D01*
X165028542Y-53725826D01*
X164974024Y-53780344D01*
X164974022Y-53780345D01*
X164859059Y-53952401D01*
X164779870Y-54143579D01*
X164779868Y-54143586D01*
X164739500Y-54346535D01*
X164739500Y-54553464D01*
X164779868Y-54756413D01*
X164779870Y-54756420D01*
X164859059Y-54947598D01*
X164974023Y-55119655D01*
X165120345Y-55265977D01*
X165292402Y-55380941D01*
X165483580Y-55460130D01*
X165686535Y-55500500D01*
X165686536Y-55500500D01*
X165893464Y-55500500D01*
X165893465Y-55500500D01*
X166096420Y-55460130D01*
X166287598Y-55380941D01*
X166459655Y-55265977D01*
X166605977Y-55119655D01*
X166720941Y-54947598D01*
X166800130Y-54756420D01*
X166840500Y-54553465D01*
X166840500Y-54346535D01*
X166800130Y-54143580D01*
X166720941Y-53952402D01*
X166605977Y-53780345D01*
X166551458Y-53725826D01*
X166529784Y-53673500D01*
X166551458Y-53621174D01*
X166603784Y-53599500D01*
X167516216Y-53599500D01*
X167568542Y-53621174D01*
X167590216Y-53673500D01*
X167568542Y-53725826D01*
X167514024Y-53780344D01*
X167514022Y-53780345D01*
X167399059Y-53952401D01*
X167319870Y-54143579D01*
X167319868Y-54143586D01*
X167279500Y-54346535D01*
X167279500Y-54553464D01*
X167319868Y-54756413D01*
X167319870Y-54756420D01*
X167399059Y-54947598D01*
X167514023Y-55119655D01*
X167660345Y-55265977D01*
X167832402Y-55380941D01*
X168023580Y-55460130D01*
X168226535Y-55500500D01*
X168226536Y-55500500D01*
X168433464Y-55500500D01*
X168433465Y-55500500D01*
X168636420Y-55460130D01*
X168827598Y-55380941D01*
X168999655Y-55265977D01*
X169145977Y-55119655D01*
X169260941Y-54947598D01*
X169340130Y-54756420D01*
X169380500Y-54553465D01*
X169380500Y-54346535D01*
X169340130Y-54143580D01*
X169260941Y-53952402D01*
X169145977Y-53780345D01*
X169091458Y-53725826D01*
X169069784Y-53673500D01*
X169091458Y-53621174D01*
X169143784Y-53599500D01*
X169563877Y-53599500D01*
X169616203Y-53621174D01*
X169906548Y-53911519D01*
X169928222Y-53963845D01*
X169922589Y-53992164D01*
X169859870Y-54143579D01*
X169859868Y-54143586D01*
X169819500Y-54346535D01*
X169819500Y-54553464D01*
X169859868Y-54756413D01*
X169859870Y-54756420D01*
X169939059Y-54947598D01*
X170054023Y-55119655D01*
X170200345Y-55265977D01*
X170372402Y-55380941D01*
X170563580Y-55460130D01*
X170766535Y-55500500D01*
X170766536Y-55500500D01*
X170973464Y-55500500D01*
X170973465Y-55500500D01*
X171176420Y-55460130D01*
X171367598Y-55380941D01*
X171539655Y-55265977D01*
X171685977Y-55119655D01*
X171800941Y-54947598D01*
X171880130Y-54756420D01*
X171920500Y-54553465D01*
X171920500Y-54346535D01*
X171880130Y-54143580D01*
X171800941Y-53952402D01*
X171685977Y-53780345D01*
X171539655Y-53634023D01*
X171487987Y-53599500D01*
X171367598Y-53519059D01*
X171176420Y-53439870D01*
X171176413Y-53439868D01*
X171023516Y-53409455D01*
X170973465Y-53399500D01*
X170766535Y-53399500D01*
X170726385Y-53407486D01*
X170563586Y-53439868D01*
X170563579Y-53439870D01*
X170412164Y-53502589D01*
X170355526Y-53502589D01*
X170331519Y-53486548D01*
X169903511Y-53058540D01*
X169834990Y-53018979D01*
X169834985Y-53018977D01*
X169758564Y-52998500D01*
X169758562Y-52998500D01*
X168819240Y-52998500D01*
X168766914Y-52976826D01*
X168745240Y-52924500D01*
X168766914Y-52872174D01*
X168790921Y-52856133D01*
X168827598Y-52840941D01*
X168999655Y-52725977D01*
X169145977Y-52579655D01*
X169260941Y-52407598D01*
X169340130Y-52216420D01*
X169380500Y-52013465D01*
X169380500Y-51806535D01*
X169340130Y-51603580D01*
X169260941Y-51412402D01*
X169145977Y-51240345D01*
X169091458Y-51185826D01*
X169069784Y-51133500D01*
X169091458Y-51081174D01*
X169143784Y-51059500D01*
X170056216Y-51059500D01*
X170108542Y-51081174D01*
X170130216Y-51133500D01*
X170108542Y-51185826D01*
X170054024Y-51240344D01*
X170054022Y-51240345D01*
X169939059Y-51412401D01*
X169859870Y-51603579D01*
X169859868Y-51603586D01*
X169819500Y-51806535D01*
X169819500Y-52013464D01*
X169859868Y-52216413D01*
X169859870Y-52216420D01*
X169939059Y-52407598D01*
X170054023Y-52579655D01*
X170200345Y-52725977D01*
X170372402Y-52840941D01*
X170563580Y-52920130D01*
X170766535Y-52960500D01*
X170766536Y-52960500D01*
X170973464Y-52960500D01*
X170973465Y-52960500D01*
X171176420Y-52920130D01*
X171367598Y-52840941D01*
X171539655Y-52725977D01*
X171685977Y-52579655D01*
X171800941Y-52407598D01*
X171880130Y-52216420D01*
X171920500Y-52013465D01*
X171920500Y-51806535D01*
X171880130Y-51603580D01*
X171800941Y-51412402D01*
X171685977Y-51240345D01*
X171631458Y-51185826D01*
X171609784Y-51133500D01*
X171631458Y-51081174D01*
X171683784Y-51059500D01*
X172103877Y-51059500D01*
X172156203Y-51081174D01*
X172446548Y-51371519D01*
X172468222Y-51423845D01*
X172462589Y-51452164D01*
X172399870Y-51603579D01*
X172399868Y-51603586D01*
X172359500Y-51806535D01*
X172359500Y-52013464D01*
X172399868Y-52216413D01*
X172399870Y-52216420D01*
X172479059Y-52407598D01*
X172594023Y-52579655D01*
X172740345Y-52725977D01*
X172912402Y-52840941D01*
X173103580Y-52920130D01*
X173306535Y-52960500D01*
X173306536Y-52960500D01*
X173513464Y-52960500D01*
X173513465Y-52960500D01*
X173716420Y-52920130D01*
X173907598Y-52840941D01*
X174079655Y-52725977D01*
X174225977Y-52579655D01*
X174340941Y-52407598D01*
X174420130Y-52216420D01*
X174460500Y-52013465D01*
X174460500Y-51806535D01*
X174420130Y-51603580D01*
X174340941Y-51412402D01*
X174225977Y-51240345D01*
X174079655Y-51094023D01*
X174055993Y-51078213D01*
X173907598Y-50979059D01*
X173716420Y-50899870D01*
X173716413Y-50899868D01*
X173563516Y-50869455D01*
X173513465Y-50859500D01*
X173306535Y-50859500D01*
X173266385Y-50867486D01*
X173103586Y-50899868D01*
X173103579Y-50899870D01*
X172952164Y-50962589D01*
X172895526Y-50962589D01*
X172871519Y-50946548D01*
X172443511Y-50518540D01*
X172374990Y-50478979D01*
X172374985Y-50478977D01*
X172298564Y-50458500D01*
X172298562Y-50458500D01*
X151661438Y-50458500D01*
X151661436Y-50458500D01*
X151585014Y-50478977D01*
X151585009Y-50478979D01*
X151516488Y-50518540D01*
X151088480Y-50946547D01*
X151036154Y-50968221D01*
X151007836Y-50962588D01*
X150856424Y-50899871D01*
X150856413Y-50899868D01*
X150703516Y-50869455D01*
X150653465Y-50859500D01*
X150446535Y-50859500D01*
X150406385Y-50867486D01*
X150243586Y-50899868D01*
X150243579Y-50899870D01*
X150052401Y-50979059D01*
X149880345Y-51094022D01*
X149880344Y-51094024D01*
X149734024Y-51240344D01*
X149734022Y-51240345D01*
X149619059Y-51412401D01*
X149539870Y-51603579D01*
X149539868Y-51603586D01*
X149499500Y-51806535D01*
X102221760Y-51806535D01*
X102269133Y-51713560D01*
X102285380Y-51663560D01*
X102327869Y-51532792D01*
X102327869Y-51532789D01*
X102327872Y-51532782D01*
X102357607Y-51345041D01*
X102357607Y-51154959D01*
X102327872Y-50967218D01*
X102327870Y-50967213D01*
X102327869Y-50967207D01*
X102269136Y-50786447D01*
X102269133Y-50786443D01*
X102269133Y-50786440D01*
X102223695Y-50697264D01*
X102182838Y-50617075D01*
X102071114Y-50463301D01*
X102071113Y-50463300D01*
X102071111Y-50463297D01*
X101979272Y-50371458D01*
X101957598Y-50319132D01*
X101979272Y-50266806D01*
X102031342Y-50245133D01*
X129667685Y-50150500D01*
X177913035Y-50150500D01*
X177915465Y-50151506D01*
G37*
%TD.AperFunction*%
%TD*%
M02*
