ISO-10303-21;
HEADER;
FILE_DESCRIPTION (( 'STEP AP214' ),
    '1' );
FILE_NAME ('CUI_DEVICES_CMT-1203-SMT-TR.step',
    '2019-10-20T21:33:44',
    ( '' ),
    ( '' ),
    'SwSTEP 2.0',
    'SolidWorks 2019',
    '' );
FILE_SCHEMA (( 'AUTOMOTIVE_DESIGN' ));
ENDSEC;

DATA;
#1 = DIRECTION ( 'NONE',  ( 1.000000000000000000, 0.0000000000000000000, 0.0000000000000000000 ) ) ;
#2 =( NAMED_UNIT ( * ) PLANE_ANGLE_UNIT ( ) SI_UNIT ( $, .RADIAN. ) );
#3 = ORIENTED_EDGE ( 'NONE', *, *, #256, .T. ) ;
#4 = EDGE_CURVE ( 'NONE', #471, #50, #9, .T. ) ;
#5 = PLANE ( 'NONE',  #31 ) ;
#6 = VERTEX_POINT ( 'NONE', #323 ) ;
#7 = EDGE_CURVE ( 'NONE', #101, #175, #329, .T. ) ;
#8 = VECTOR ( 'NONE', #431, 39.37007874015748143 ) ;
#9 = LINE ( 'NONE', #436, #515 ) ;
#10 = VECTOR ( 'NONE', #397, 39.37007874015748143 ) ;
#11 = DIRECTION ( 'NONE',  ( -0.0000000000000000000, -1.000000000000000000, -0.0000000000000000000 ) ) ;
#12 = EDGE_CURVE ( 'NONE', #6, #625, #642, .T. ) ;
#13 = DIRECTION ( 'NONE',  ( -0.0000000000000000000, -1.000000000000000000, -0.0000000000000000000 ) ) ;
#14 = DIRECTION ( 'NONE',  ( 0.0000000000000000000, 0.0000000000000000000, -1.000000000000000000 ) ) ;
#15 = LENGTH_MEASURE_WITH_UNIT ( LENGTH_MEASURE( 0.02539999999999999897 ), #271 );
#16 = CARTESIAN_POINT ( 'NONE',  ( -0.03740157480314959537, 0.07086614173228350522, -0.2322834645669289710 ) ) ;
#17 = DIMENSIONAL_EXPONENTS ( 1.000000000000000000, 0.0000000000000000000, 0.0000000000000000000, 0.0000000000000000000, 0.0000000000000000000, 0.0000000000000000000, 0.0000000000000000000 ) ;
#18 = ORIENTED_EDGE ( 'NONE', *, *, #306, .F. ) ;
#19 = DIRECTION ( 'NONE',  ( -7.228014483236703458E-16, 1.000000000000000000, 0.0000000000000000000 ) ) ;
#20 = VECTOR ( 'NONE', #675, 39.37007874015748143 ) ;
#21 = APPLICATION_CONTEXT ( 'automotive_design' ) ;
#22 = LINE ( 'NONE', #646, #79 ) ;
#23 = ORIENTED_EDGE ( 'NONE', *, *, #65, .T. ) ;
#24 = LINE ( 'NONE', #451, #549 ) ;
#25 = DIRECTION ( 'NONE',  ( -1.000000000000000000, 0.0000000000000000000, 2.891205793294676847E-16 ) ) ;
#26 = EDGE_LOOP ( 'NONE', ( #235, #156, #407, #555 ) ) ;
#27 = DIRECTION ( 'NONE',  ( -0.0000000000000000000, -1.000000000000000000, -0.0000000000000000000 ) ) ;
#28 = DIRECTION ( 'NONE',  ( -0.0000000000000000000, -1.000000000000000000, -0.0000000000000000000 ) ) ;
#29 = CARTESIAN_POINT ( 'NONE',  ( 0.1003937007874015491, 0.0000000000000000000, 0.1535433070866142335 ) ) ;
#30 = ORIENTED_EDGE ( 'NONE', *, *, #237, .F. ) ;
#31 = AXIS2_PLACEMENT_3D ( 'NONE', #225, #159, #214 ) ;
#32 = LINE ( 'NONE', #247, #322 ) ;
#33 = ORIENTED_EDGE ( 'NONE', *, *, #573, .T. ) ;
#34 = CARTESIAN_POINT ( 'NONE',  ( 0.1279527559055118335, 0.02362204724409448786, 0.1811023622047244763 ) ) ;
#35 = ADVANCED_FACE ( 'NONE', ( #278 ), #110, .F. ) ;
#36 = FACE_OUTER_BOUND ( 'NONE', #410, .T. ) ;
#37 = ORIENTED_EDGE ( 'NONE', *, *, #627, .F. ) ;
#38 = PRESENTATION_STYLE_ASSIGNMENT (( #674 ) ) ;
#39 = VECTOR ( 'NONE', #1, 39.37007874015748143 ) ;
#40 = DIRECTION ( 'NONE',  ( 0.0000000000000000000, -1.000000000000000000, 0.0000000000000000000 ) ) ;
#41 = EDGE_LOOP ( 'NONE', ( #107, #596, #74, #310, #264, #588, #558, #30, #252, #351 ) ) ;
#42 = DIRECTION ( 'NONE',  ( 0.0000000000000000000, 1.000000000000000000, 0.0000000000000000000 ) ) ;
#43 = VECTOR ( 'NONE', #529, 39.37007874015748143 ) ;
#44 = CIRCLE ( 'NONE', #452, 0.02755905511811023931 ) ;
#45 = EDGE_CURVE ( 'NONE', #160, #628, #388, .T. ) ;
#46 = LINE ( 'NONE', #260, #20 ) ;
#47 = EDGE_LOOP ( 'NONE', ( #647, #463, #78, #164, #459 ) ) ;
#48 = DIRECTION ( 'NONE',  ( 1.000000000000000000, 0.0000000000000000000, 0.0000000000000000000 ) ) ;
#49 = LINE ( 'NONE', #149, #109 ) ;
#50 = VERTEX_POINT ( 'NONE', #429 ) ;
#51 = FILL_AREA_STYLE ('',( #683 ) ) ;
#52 = DIRECTION ( 'NONE',  ( 0.0000000000000000000, -1.000000000000000000, 0.0000000000000000000 ) ) ;
#53 = AXIS2_PLACEMENT_3D ( 'NONE', #575, #626, #579 ) ;
#54 =( CONVERSION_BASED_UNIT ( 'INCH', #15 ) LENGTH_UNIT ( ) NAMED_UNIT ( #334 ) );
#55 = CARTESIAN_POINT ( 'NONE',  ( -0.2362204724409449619, 0.0000000000000000000, -0.2362204724409446843 ) ) ;
#56 = LINE ( 'NONE', #270, #39 ) ;
#57 = DIRECTION ( 'NONE',  ( 0.0000000000000000000, 0.0000000000000000000, 1.000000000000000000 ) ) ;
#58 = VECTOR ( 'NONE', #482, 39.37007874015748143 ) ;
#59 = LINE ( 'NONE', #55, #166 ) ;
#60 = EDGE_CURVE ( 'NONE', #578, #593, #531, .T. ) ;
#61 = ORIENTED_EDGE ( 'NONE', *, *, #532, .F. ) ;
#62 = VECTOR ( 'NONE', #170, 39.37007874015748143 ) ;
#63 = ORIENTED_EDGE ( 'NONE', *, *, #577, .F. ) ;
#64 = CARTESIAN_POINT ( 'NONE',  ( 0.1279527559055118335, 0.02362204724409448786, 0.1811023622047244763 ) ) ;
#65 = EDGE_CURVE ( 'NONE', #441, #471, #59, .T. ) ;
#66 = CARTESIAN_POINT ( 'NONE',  ( 0.2362204724409446843, 0.1181102362204724532, -0.2362204724409446843 ) ) ;
#67 = AXIS2_PLACEMENT_3D ( 'NONE', #311, #619, #354 ) ;
#68 = ORIENTED_EDGE ( 'NONE', *, *, #541, .T. ) ;
#69 = CARTESIAN_POINT ( 'NONE',  ( -0.2362204724409451007, 0.1181102362204724532, 0.2362204724409449619 ) ) ;
#70 = PLANE ( 'NONE',  #313 ) ;
#71 = EDGE_CURVE ( 'NONE', #632, #83, #273, .T. ) ;
#72 = LINE ( 'NONE', #326, #154 ) ;
#73 = LINE ( 'NONE', #130, #58 ) ;
#74 = ORIENTED_EDGE ( 'NONE', *, *, #408, .F. ) ;
#75 = DIRECTION ( 'NONE',  ( 0.0000000000000000000, -1.000000000000000000, 0.0000000000000000000 ) ) ;
#76 = FACE_OUTER_BOUND ( 'NONE', #294, .T. ) ;
#77 = AXIS2_PLACEMENT_3D ( 'NONE', #321, #325, #215 ) ;
#78 = ORIENTED_EDGE ( 'NONE', *, *, #71, .F. ) ;
#79 = VECTOR ( 'NONE', #234, 39.37007874015748143 ) ;
#80 =( CONVERSION_BASED_UNIT ( 'INCH', #137 ) LENGTH_UNIT ( ) NAMED_UNIT ( #17 ) );
#81 = EDGE_CURVE ( 'NONE', #681, #204, #272, .T. ) ;
#82 = DIRECTION ( 'NONE',  ( 1.000000000000000000, 0.0000000000000000000, 0.0000000000000000000 ) ) ;
#83 = VERTEX_POINT ( 'NONE', #217 ) ;
#84 = FACE_OUTER_BOUND ( 'NONE', #179, .T. ) ;
#85 = FACE_OUTER_BOUND ( 'NONE', #193, .T. ) ;
#86 = CARTESIAN_POINT ( 'NONE',  ( -0.1003937007874015630, 0.01181102362204724393, 0.1811023622047244763 ) ) ;
#87 = VERTEX_POINT ( 'NONE', #433 ) ;
#88 =( NAMED_UNIT ( * ) PLANE_ANGLE_UNIT ( ) SI_UNIT ( $, .RADIAN. ) );
#89 = COLOUR_RGB ( '',0.7529411764705882248, 0.7529411764705882248, 0.7529411764705882248 ) ;
#90 = CARTESIAN_POINT ( 'NONE',  ( -0.2362204724409451007, 0.0000000000000000000, 0.2362204724409449619 ) ) ;
#91 = EDGE_LOOP ( 'NONE', ( #466, #375, #200, #613 ) ) ;
#92 = DIRECTION ( 'NONE',  ( -1.000000000000000000, -7.228014483236705430E-16, 0.0000000000000000000 ) ) ;
#93 = VECTOR ( 'NONE', #210, 39.37007874015748143 ) ;
#94 = ORIENTED_EDGE ( 'NONE', *, *, #324, .F. ) ;
#95 = PRODUCT_DEFINITION ( 'UNKNOWN', '', #367, #520 ) ;
#96 = CARTESIAN_POINT ( 'NONE',  ( -0.03740157480314962313, 0.1062992125984252023, -0.2322834645669289710 ) ) ;
#97 = UNCERTAINTY_MEASURE_WITH_UNIT (LENGTH_MEASURE( 1.000000000000000082E-05 ), #54, 'distance_accuracy_value', 'NONE');
#98 = DIRECTION ( 'NONE',  ( 0.0000000000000000000, -1.000000000000000000, 0.0000000000000000000 ) ) ;
#99 = ORIENTED_EDGE ( 'NONE', *, *, #220, .T. ) ;
#100 = ADVANCED_FACE ( 'NONE', ( #76 ), #592, .F. ) ;
#101 = VERTEX_POINT ( 'NONE', #242 ) ;
#102 = DIRECTION ( 'NONE',  ( 0.0000000000000000000, 0.0000000000000000000, 1.000000000000000000 ) ) ;
#103 = EDGE_CURVE ( 'NONE', #585, #50, #73, .T. ) ;
#104 = DIRECTION ( 'NONE',  ( -1.000000000000000000, -0.0000000000000000000, -0.0000000000000000000 ) ) ;
#105 = EDGE_LOOP ( 'NONE', ( #666, #317 ) ) ;
#106 = DIRECTION ( 'NONE',  ( -1.000000000000000000, 0.0000000000000000000, 0.0000000000000000000 ) ) ;
#107 = ORIENTED_EDGE ( 'NONE', *, *, #65, .F. ) ;
#108 = UNCERTAINTY_MEASURE_WITH_UNIT (LENGTH_MEASURE( 1.000000000000000082E-05 ), #80, 'distance_accuracy_value', 'NONE');
#109 = VECTOR ( 'NONE', #467, 39.37007874015748143 ) ;
#110 = PLANE ( 'NONE',  #77 ) ;
#111 = ADVANCED_FACE ( 'NONE', ( #335 ), #70, .F. ) ;
#112 = CARTESIAN_POINT ( 'NONE',  ( -0.03740157480314962313, 0.1062992125984252023, -0.2322834645669289710 ) ) ;
#113 = CIRCLE ( 'NONE', #146, 0.01181102362204724046 ) ;
#114 = ORIENTED_EDGE ( 'NONE', *, *, #265, .T. ) ;
#115 = ORIENTED_EDGE ( 'NONE', *, *, #677, .F. ) ;
#116 = DIRECTION ( 'NONE',  ( 0.0000000000000000000, -1.000000000000000000, 0.0000000000000000000 ) ) ;
#117 = PRODUCT_DEFINITION_SHAPE ( 'NONE', 'NONE',  #95 ) ;
#118 = EDGE_CURVE ( 'NONE', #204, #492, #218, .T. ) ;
#119 = VERTEX_POINT ( 'NONE', #236 ) ;
#120 = VECTOR ( 'NONE', #11, 39.37007874015748143 ) ;
#121 = DIRECTION ( 'NONE',  ( -5.782411586589360597E-16, -0.0000000000000000000, -1.000000000000000000 ) ) ;
#122 = VECTOR ( 'NONE', #282, 39.37007874015748143 ) ;
#123 = DIRECTION ( 'NONE',  ( 0.0000000000000000000, 0.0000000000000000000, 1.000000000000000000 ) ) ;
#124 = ORIENTED_EDGE ( 'NONE', *, *, #292, .T. ) ;
#125 = LINE ( 'NONE', #337, #93 ) ;
#126 = CARTESIAN_POINT ( 'NONE',  ( 0.1003937007874015630, 0.0000000000000000000, 0.1811023622047244763 ) ) ;
#127 = EDGE_LOOP ( 'NONE', ( #330, #512, #305, #131 ) ) ;
#128 = ADVANCED_FACE ( 'NONE', ( #661 ), #440, .T. ) ;
#129 = CARTESIAN_POINT ( 'NONE',  ( -0.1968503937007874682, 0.1200787401574803237, -0.1968503937007872184 ) ) ;
#130 = CARTESIAN_POINT ( 'NONE',  ( -0.1279527559055118335, 0.02362204724409448786, 0.2362204724409449619 ) ) ;
#131 = ORIENTED_EDGE ( 'NONE', *, *, #81, .T. ) ;
#132 = VECTOR ( 'NONE', #416, 39.37007874015748143 ) ;
#133 = DIRECTION ( 'NONE',  ( 0.0000000000000000000, 1.000000000000000000, 0.0000000000000000000 ) ) ;
#134 = DIRECTION ( 'NONE',  ( -5.782411586589360597E-16, -0.0000000000000000000, -1.000000000000000000 ) ) ;
#135 = LINE ( 'NONE', #348, #639 ) ;
#136 = VERTEX_POINT ( 'NONE', #174 ) ;
#137 = LENGTH_MEASURE_WITH_UNIT ( LENGTH_MEASURE( 0.02539999999999999897 ), #607 );
#138 = LINE ( 'NONE', #350, #679 ) ;
#139 = EDGE_CURVE ( 'NONE', #414, #370, #288, .T. ) ;
#140 = LINE ( 'NONE', #198, #132 ) ;
#141 = AXIS2_PLACEMENT_3D ( 'NONE', #318, #52, #268 ) ;
#142 = ORIENTED_EDGE ( 'NONE', *, *, #139, .F. ) ;
#143 = DIRECTION ( 'NONE',  ( -1.000000000000000000, -0.0000000000000000000, -0.0000000000000000000 ) ) ;
#144 = VERTEX_POINT ( 'NONE', #550 ) ;
#145 = PLANE ( 'NONE',  #197 ) ;
#146 = AXIS2_PLACEMENT_3D ( 'NONE', #263, #424, #465 ) ;
#147 = CARTESIAN_POINT ( 'NONE',  ( -0.1003937007874015630, 0.0000000000000000000, 0.1811023622047244763 ) ) ;
#148 = EDGE_LOOP ( 'NONE', ( #37, #222 ) ) ;
#149 = CARTESIAN_POINT ( 'NONE',  ( 0.2362204724409446843, 0.1181102362204724532, -0.2362204724409446843 ) ) ;
#150 = CARTESIAN_POINT ( 'NONE',  ( -0.03740157480314962313, 0.1062992125984252023, -0.2362204724409446843 ) ) ;
#151 = ORIENTED_EDGE ( 'NONE', *, *, #292, .F. ) ;
#152 = SURFACE_STYLE_FILL_AREA ( #51 ) ;
#153 = EDGE_CURVE ( 'NONE', #446, #600, #189, .T. ) ;
#154 = VECTOR ( 'NONE', #534, 39.37007874015748143 ) ;
#155 = MECHANICAL_DESIGN_GEOMETRIC_PRESENTATION_REPRESENTATION (  '', ( #238 ), #566 ) ;
#156 = ORIENTED_EDGE ( 'NONE', *, *, #408, .T. ) ;
#157 = SURFACE_SIDE_STYLE ('',( #152 ) ) ;
#158 = CARTESIAN_POINT ( 'NONE',  ( -0.1279527559055118335, 0.0000000000000000000, 0.1811023622047244763 ) ) ;
#159 = DIRECTION ( 'NONE',  ( 1.000000000000000000, 0.0000000000000000000, 0.0000000000000000000 ) ) ;
#160 = VERTEX_POINT ( 'NONE', #293 ) ;
#161 = PLANE ( 'NONE',  #415 ) ;
#162 = ORIENTED_EDGE ( 'NONE', *, *, #418, .T. ) ;
#163 = DIRECTION ( 'NONE',  ( 0.0000000000000000000, 0.0000000000000000000, 1.000000000000000000 ) ) ;
#164 = ORIENTED_EDGE ( 'NONE', *, *, #577, .T. ) ;
#165 = DIRECTION ( 'NONE',  ( 1.000000000000000000, 0.0000000000000000000, 0.0000000000000000000 ) ) ;
#166 = VECTOR ( 'NONE', #379, 39.37007874015748143 ) ;
#167 = VECTOR ( 'NONE', #104, 39.37007874015748143 ) ;
#168 = VERTEX_POINT ( 'NONE', #343 ) ;
#169 = ADVANCED_FACE ( 'NONE', ( #231 ), #406, .F. ) ;
#170 = DIRECTION ( 'NONE',  ( -0.0000000000000000000, -1.000000000000000000, -0.0000000000000000000 ) ) ;
#171 = VERTEX_POINT ( 'NONE', #539 ) ;
#172 = ORIENTED_EDGE ( 'NONE', *, *, #444, .T. ) ;
#173 = ORIENTED_EDGE ( 'NONE', *, *, #103, .T. ) ;
#174 = CARTESIAN_POINT ( 'NONE',  ( -0.03740157480314962313, 0.1062992125984252023, -0.2322834645669289710 ) ) ;
#175 = VERTEX_POINT ( 'NONE', #604 ) ;
#176 = DIRECTION ( 'NONE',  ( 0.0000000000000000000, 1.000000000000000000, 0.0000000000000000000 ) ) ;
#177 = ADVANCED_FACE ( 'NONE', ( #338 ), #656, .T. ) ;
#178 = CYLINDRICAL_SURFACE ( 'NONE', #571, 0.02755905511811023931 ) ;
#179 = EDGE_LOOP ( 'NONE', ( #525, #563, #620, #276 ) ) ;
#180 = PLANE ( 'NONE',  #298 ) ;
#181 = LINE ( 'NONE', #402, #10 ) ;
#182 = ORIENTED_EDGE ( 'NONE', *, *, #153, .T. ) ;
#183 = PLANE ( 'NONE',  #671 ) ;
#184 = FACE_OUTER_BOUND ( 'NONE', #662, .T. ) ;
#185 = ORIENTED_EDGE ( 'NONE', *, *, #199, .T. ) ;
#186 = PLANE ( 'NONE',  #484 ) ;
#187 = EDGE_CURVE ( 'NONE', #144, #370, #299, .T. ) ;
#188 = CARTESIAN_POINT ( 'NONE',  ( -0.1279527559055118335, 0.02362204724409448786, 0.1811023622047244763 ) ) ;
#189 = LINE ( 'NONE', #491, #603 ) ;
#190 = ORIENTED_EDGE ( 'NONE', *, *, #418, .F. ) ;
#191 = DIRECTION ( 'NONE',  ( 0.0000000000000000000, 0.0000000000000000000, 1.000000000000000000 ) ) ;
#192 = DIRECTION ( 'NONE',  ( 1.000000000000000000, 0.0000000000000000000, 0.0000000000000000000 ) ) ;
#193 = EDGE_LOOP ( 'NONE', ( #361, #23, #583, #312 ) ) ;
#194 = CIRCLE ( 'NONE', #634, 0.01181102362204724046 ) ;
#195 = FACE_OUTER_BOUND ( 'NONE', #261, .T. ) ;
#196 = ORIENTED_EDGE ( 'NONE', *, *, #216, .T. ) ;
#197 = AXIS2_PLACEMENT_3D ( 'NONE', #96, #92, #291 ) ;
#198 = CARTESIAN_POINT ( 'NONE',  ( -0.2362204724409449619, 0.1181102362204724532, -0.2362204724409446843 ) ) ;
#199 = EDGE_CURVE ( 'NONE', #456, #144, #22, .T. ) ;
#200 = ORIENTED_EDGE ( 'NONE', *, *, #630, .F. ) ;
#201 =( LENGTH_UNIT ( ) NAMED_UNIT ( * ) SI_UNIT ( $, .METRE. ) );
#202 = FACE_BOUND ( 'NONE', #148, .T. ) ;
#203 = LINE ( 'NONE', #570, #167 ) ;
#204 = VERTEX_POINT ( 'NONE', #29 ) ;
#205 = FACE_OUTER_BOUND ( 'NONE', #617, .T. ) ;
#206 = VECTOR ( 'NONE', #437, 39.37007874015748143 ) ;
#207 = DIRECTION ( 'NONE',  ( -0.0000000000000000000, -1.000000000000000000, -0.0000000000000000000 ) ) ;
#208 = ORIENTED_EDGE ( 'NONE', *, *, #315, .F. ) ;
#209 = ADVANCED_FACE ( 'NONE', ( #184 ), #178, .F. ) ;
#210 = DIRECTION ( 'NONE',  ( 0.0000000000000000000, 0.0000000000000000000, -1.000000000000000000 ) ) ;
#211 = DIRECTION ( 'NONE',  ( 1.000000000000000000, 0.0000000000000000000, -2.891205793294676847E-16 ) ) ;
#212 = LENGTH_MEASURE_WITH_UNIT ( LENGTH_MEASURE( 0.02539999999999999897 ), #201 );
#213 = CARTESIAN_POINT ( 'NONE',  ( -0.1968503937007874682, 0.1200787401574803237, -0.1850393700787399676 ) ) ;
#214 = DIRECTION ( 'NONE',  ( 0.0000000000000000000, 0.0000000000000000000, -1.000000000000000000 ) ) ;
#215 = DIRECTION ( 'NONE',  ( 5.782411586589360597E-16, 0.0000000000000000000, 1.000000000000000000 ) ) ;
#216 = EDGE_CURVE ( 'NONE', #136, #319, #181, .T. ) ;
#217 = CARTESIAN_POINT ( 'NONE',  ( 0.1279527559055118335, 0.02362204724409448786, 0.2362204724409449619 ) ) ;
#218 = CIRCLE ( 'NONE', #660, 0.02755905511811023931 ) ;
#219 = CARTESIAN_POINT ( 'NONE',  ( 0.03740157480314962313, 0.1062992125984252023, -0.2322834645669289710 ) ) ;
#220 = EDGE_CURVE ( 'NONE', #421, #441, #135, .T. ) ;
#221 = ADVANCED_BREP_SHAPE_REPRESENTATION ( 'CUI_DEVICES_CMT-1203-SMT-TR', ( #363, #396 ), #328 ) ;
#222 = ORIENTED_EDGE ( 'NONE', *, *, #256, .F. ) ;
#223 = PRODUCT_RELATED_PRODUCT_CATEGORY ( 'part', '', ( #605 ) ) ;
#224 = CARTESIAN_POINT ( 'NONE',  ( -0.1003937007874015630, 0.01181102362204724393, 0.1811023622047244763 ) ) ;
#225 = CARTESIAN_POINT ( 'NONE',  ( 0.1279527559055118335, 0.02362204724409448786, 0.2362204724409449619 ) ) ;
#226 = CIRCLE ( 'NONE', #141, 0.02755905511811023931 ) ;
#227 = CARTESIAN_POINT ( 'NONE',  ( -0.2362204724409451007, 0.1181102362204724532, 0.2362204724409449619 ) ) ;
#228 = EDGE_LOOP ( 'NONE', ( #162, #124, #302, #63 ) ) ;
#229 = PRESENTATION_STYLE_ASSIGNMENT (( #576 ) ) ;
#230 = EDGE_CURVE ( 'NONE', #593, #171, #44, .T. ) ;
#231 = FACE_OUTER_BOUND ( 'NONE', #454, .T. ) ;
#232 = VECTOR ( 'NONE', #509, 39.37007874015748143 ) ;
#233 = ORIENTED_EDGE ( 'NONE', *, *, #4, .T. ) ;
#234 = DIRECTION ( 'NONE',  ( -0.0000000000000000000, -0.0000000000000000000, -1.000000000000000000 ) ) ;
#235 = ORIENTED_EDGE ( 'NONE', *, *, #651, .T. ) ;
#236 = CARTESIAN_POINT ( 'NONE',  ( -0.1968503937007874682, 0.1181102362204724532, -0.1850393700787399676 ) ) ;
#237 = EDGE_CURVE ( 'NONE', #521, #681, #401, .T. ) ;
#238 = STYLED_ITEM ( 'NONE', ( #38 ), #221 ) ;
#239 = ORIENTED_EDGE ( 'NONE', *, *, #470, .T. ) ;
#240 = CARTESIAN_POINT ( 'NONE',  ( -0.1279527559055118335, 0.02362204724409448786, 0.2362204724409449619 ) ) ;
#241 = DIRECTION ( 'NONE',  ( 1.000000000000000000, 0.0000000000000000000, 2.891205793294678819E-16 ) ) ;
#242 = CARTESIAN_POINT ( 'NONE',  ( -0.1968503937007874682, 0.1200787401574803237, -0.2086614173228344415 ) ) ;
#243 = ORIENTED_EDGE ( 'NONE', *, *, #389, .F. ) ;
#244 = VECTOR ( 'NONE', #560, 39.37007874015748143 ) ;
#245 =( NAMED_UNIT ( * ) SI_UNIT ( $, .STERADIAN. ) SOLID_ANGLE_UNIT ( ) );
#246 = DIRECTION ( 'NONE',  ( -1.000000000000000000, 0.0000000000000000000, 0.0000000000000000000 ) ) ;
#247 = CARTESIAN_POINT ( 'NONE',  ( -0.1279527559055118335, 0.02362204724409448786, 0.1811023622047244763 ) ) ;
#248 = ORIENTED_EDGE ( 'NONE', *, *, #616, .F. ) ;
#249 = FACE_OUTER_BOUND ( 'NONE', #391, .T. ) ;
#250 = CARTESIAN_POINT ( 'NONE',  ( -0.1003937007874015630, 0.02362204724409448786, 0.1811023622047244763 ) ) ;
#251 = VECTOR ( 'NONE', #255, 39.37007874015748143 ) ;
#252 = ORIENTED_EDGE ( 'NONE', *, *, #368, .F. ) ;
#253 = APPLICATION_PROTOCOL_DEFINITION ( 'draft international standard', 'automotive_design', 1998, #21 ) ;
#254 = PRESENTATION_LAYER_ASSIGNMENT (  '', '', ( #238 ) ) ;
#255 = DIRECTION ( 'NONE',  ( -0.0000000000000000000, -1.000000000000000000, -0.0000000000000000000 ) ) ;
#256 = EDGE_CURVE ( 'NONE', #119, #175, #113, .T. ) ;
#257 = CARTESIAN_POINT ( 'NONE',  ( -0.03740157480314962313, 0.1062992125984252023, -0.2362204724409446843 ) ) ;
#258 = ORIENTED_EDGE ( 'NONE', *, *, #651, .F. ) ;
#259 = AXIS2_PLACEMENT_3D ( 'NONE', #449, #644, #123 ) ;
#260 = CARTESIAN_POINT ( 'NONE',  ( -0.1279527559055118335, 0.02362204724409448786, 0.2362204724409449619 ) ) ;
#261 = EDGE_LOOP ( 'NONE', ( #682, #190, #572, #670 ) ) ;
#262 = PRODUCT_CONTEXT ( 'NONE', #21, 'mechanical' ) ;
#263 = CARTESIAN_POINT ( 'NONE',  ( -0.1968503937007874682, 0.1181102362204724532, -0.1968503937007872184 ) ) ;
#264 = ORIENTED_EDGE ( 'NONE', *, *, #341, .F. ) ;
#265 = EDGE_CURVE ( 'NONE', #625, #446, #301, .T. ) ;
#266 = AXIS2_PLACEMENT_3D ( 'NONE', #618, #419, #378 ) ;
#267 = AXIS2_PLACEMENT_3D ( 'NONE', #129, #352, #303 ) ;
#268 = DIRECTION ( 'NONE',  ( 0.0000000000000000000, 0.0000000000000000000, -1.000000000000000000 ) ) ;
#269 = CARTESIAN_POINT ( 'NONE',  ( 0.1279527559055118335, 0.02362204724409448786, 0.2362204724409449619 ) ) ;
#270 = CARTESIAN_POINT ( 'NONE',  ( -0.1003937007874015491, 0.01181102362204724393, 0.1535433070866142335 ) ) ;
#271 =( LENGTH_UNIT ( ) NAMED_UNIT ( * ) SI_UNIT ( $, .METRE. ) );
#272 = LINE ( 'NONE', #581, #469 ) ;
#273 = LINE ( 'NONE', #269, #43 ) ;
#274 = AXIS2_PLACEMENT_3D ( 'NONE', #527, #373, #106 ) ;
#275 = EDGE_CURVE ( 'NONE', #446, #441, #140, .T. ) ;
#276 = ORIENTED_EDGE ( 'NONE', *, *, #627, .T. ) ;
#277 = VECTOR ( 'NONE', #665, 39.37007874015748143 ) ;
#278 = FACE_OUTER_BOUND ( 'NONE', #26, .T. ) ;
#279 = LINE ( 'NONE', #483, #206 ) ;
#280 = CARTESIAN_POINT ( 'NONE',  ( 0.03740157480314962313, 0.1062992125984252023, -0.2322834645669289710 ) ) ;
#281 = ADVANCED_FACE ( 'NONE', ( #557 ), #505, .F. ) ;
#282 = DIRECTION ( 'NONE',  ( -0.0000000000000000000, -1.000000000000000000, -0.0000000000000000000 ) ) ;
#283 = AXIS2_PLACEMENT_3D ( 'NONE', #250, #458, #668 ) ;
#284 = DIRECTION ( 'NONE',  ( -0.0000000000000000000, -1.000000000000000000, -0.0000000000000000000 ) ) ;
#285 = ORIENTED_EDGE ( 'NONE', *, *, #12, .T. ) ;
#286 = DIRECTION ( 'NONE',  ( 0.0000000000000000000, 0.0000000000000000000, 1.000000000000000000 ) ) ;
#287 = PRESENTATION_LAYER_ASSIGNMENT (  '', '', ( #490 ) ) ;
#288 = LINE ( 'NONE', #16, #342 ) ;
#289 = AXIS2_PLACEMENT_3D ( 'NONE', #500, #284, #546 ) ;
#290 = ORIENTED_EDGE ( 'NONE', *, *, #677, .T. ) ;
#291 = DIRECTION ( 'NONE',  ( 7.228014483236705430E-16, -1.000000000000000000, 0.0000000000000000000 ) ) ;
#292 = EDGE_CURVE ( 'NONE', #168, #593, #32, .T. ) ;
#293 = CARTESIAN_POINT ( 'NONE',  ( 0.03740157480314962313, 0.1062992125984252023, -0.2322834645669289710 ) ) ;
#294 = EDGE_LOOP ( 'NONE', ( #481, #142, #540, #185 ) ) ;
#295 = FACE_OUTER_BOUND ( 'NONE', #398, .T. ) ;
#296 = CYLINDRICAL_SURFACE ( 'NONE', #283, 0.02755905511811023931 ) ;
#297 = EDGE_CURVE ( 'NONE', #628, #144, #360, .T. ) ;
#298 = AXIS2_PLACEMENT_3D ( 'NONE', #498, #241, #405 ) ;
#299 = LINE ( 'NONE', #332, #372 ) ;
#300 = ORIENTED_EDGE ( 'NONE', *, *, #7, .F. ) ;
#301 = LINE ( 'NONE', #412, #589 ) ;
#302 = ORIENTED_EDGE ( 'NONE', *, *, #60, .F. ) ;
#303 = DIRECTION ( 'NONE',  ( 0.0000000000000000000, 0.0000000000000000000, -1.000000000000000000 ) ) ;
#304 = LINE ( 'NONE', #150, #232 ) ;
#305 = ORIENTED_EDGE ( 'NONE', *, *, #315, .T. ) ;
#306 = EDGE_CURVE ( 'NONE', #319, #628, #615, .T. ) ;
#307 = CARTESIAN_POINT ( 'NONE',  ( -0.1003937007874015630, 0.02362204724409448786, 0.1811023622047244763 ) ) ;
#308 = CARTESIAN_POINT ( 'NONE',  ( -0.1003937007874015491, 0.02362204724409448786, 0.1535433070866142335 ) ) ;
#309 = VECTOR ( 'NONE', #614, 39.37007874015748143 ) ;
#310 = ORIENTED_EDGE ( 'NONE', *, *, #601, .F. ) ;
#311 = CARTESIAN_POINT ( 'NONE',  ( -0.03740157480314959537, 0.07086614173228350522, -0.2322834645669289710 ) ) ;
#312 = ORIENTED_EDGE ( 'NONE', *, *, #153, .F. ) ;
#313 = AXIS2_PLACEMENT_3D ( 'NONE', #280, #82, #453 ) ;
#314 = DIRECTION ( 'NONE',  ( 0.0000000000000000000, 0.0000000000000000000, 1.000000000000000000 ) ) ;
#315 = EDGE_CURVE ( 'NONE', #171, #681, #516, .T. ) ;
#316 = LINE ( 'NONE', #333, #672 ) ;
#317 = ORIENTED_EDGE ( 'NONE', *, *, #477, .T. ) ;
#318 = CARTESIAN_POINT ( 'NONE',  ( 0.1003937007874015630, 0.01181102362204724393, 0.1811023622047244763 ) ) ;
#319 = VERTEX_POINT ( 'NONE', #257 ) ;
#320 = PLANE ( 'NONE',  #274 ) ;
#321 = CARTESIAN_POINT ( 'NONE',  ( 0.2362204724409446843, 0.1181102362204724532, -0.2362204724409446843 ) ) ;
#322 = VECTOR ( 'NONE', #207, 39.37007874015748143 ) ;
#323 = CARTESIAN_POINT ( 'NONE',  ( 0.2362204724409449619, 0.1181102362204724532, 0.2362204724409448231 ) ) ;
#324 = EDGE_CURVE ( 'NONE', #370, #319, #304, .T. ) ;
#325 = DIRECTION ( 'NONE',  ( -1.000000000000000000, 0.0000000000000000000, 5.782411586589360597E-16 ) ) ;
#326 = CARTESIAN_POINT ( 'NONE',  ( -0.2362204724409451007, 0.0000000000000000000, 0.2362204724409449619 ) ) ;
#327 = EDGE_CURVE ( 'NONE', #585, #168, #46, .T. ) ;
#328 =( GEOMETRIC_REPRESENTATION_CONTEXT ( 3 ) GLOBAL_UNCERTAINTY_ASSIGNED_CONTEXT ( ( #108 ) ) GLOBAL_UNIT_ASSIGNED_CONTEXT ( ( #80, #88, #245 ) ) REPRESENTATION_CONTEXT ( 'NONE', 'WORKASPACE' ) );
#329 = LINE ( 'NONE', #535, #120 ) ;
#330 = ORIENTED_EDGE ( 'NONE', *, *, #573, .F. ) ;
#331 = EDGE_CURVE ( 'NONE', #83, #585, #203, .T. ) ;
#332 = CARTESIAN_POINT ( 'NONE',  ( -0.03740157480314959537, 0.07086614173228350522, -0.2362204724409446843 ) ) ;
#333 = CARTESIAN_POINT ( 'NONE',  ( 0.1279527559055118335, 0.0000000000000000000, 0.2362204724409449619 ) ) ;
#334 = DIMENSIONAL_EXPONENTS ( 1.000000000000000000, 0.0000000000000000000, 0.0000000000000000000, 0.0000000000000000000, 0.0000000000000000000, 0.0000000000000000000, 0.0000000000000000000 ) ;
#335 = FACE_OUTER_BOUND ( 'NONE', #91, .T. ) ;
#336 = ORIENTED_EDGE ( 'NONE', *, *, #230, .F. ) ;
#337 = CARTESIAN_POINT ( 'NONE',  ( -0.1279527559055118335, 0.0000000000000000000, 0.2362204724409449619 ) ) ;
#338 = FACE_OUTER_BOUND ( 'NONE', #105, .T. ) ;
#339 = ORIENTED_EDGE ( 'NONE', *, *, #306, .T. ) ;
#340 = DIRECTION ( 'NONE',  ( 0.0000000000000000000, 1.000000000000000000, 0.0000000000000000000 ) ) ;
#341 = EDGE_CURVE ( 'NONE', #492, #450, #316, .T. ) ;
#342 = VECTOR ( 'NONE', #595, 39.37007874015748143 ) ;
#343 = CARTESIAN_POINT ( 'NONE',  ( -0.1279527559055118335, 0.02362204724409448786, 0.1811023622047244763 ) ) ;
#344 = ORIENTED_EDGE ( 'NONE', *, *, #553, .F. ) ;
#345 = CARTESIAN_POINT ( 'NONE',  ( -0.1968503937007874682, 0.1181102362204724532, -0.1968503937007872184 ) ) ;
#346 = CARTESIAN_POINT ( 'NONE',  ( -0.2362204724409449619, 0.1181102362204724532, -0.2362204724409446843 ) ) ;
#347 = ADVANCED_FACE ( 'NONE', ( #473 ), #5, .F. ) ;
#348 = CARTESIAN_POINT ( 'NONE',  ( -0.2362204724409449619, 0.0000000000000000000, -0.2362204724409446843 ) ) ;
#349 = ORIENTED_EDGE ( 'NONE', *, *, #139, .T. ) ;
#350 = CARTESIAN_POINT ( 'NONE',  ( -0.1968503937007874682, 0.1200787401574803237, -0.1850393700787399676 ) ) ;
#351 = ORIENTED_EDGE ( 'NONE', *, *, #4, .F. ) ;
#352 = DIRECTION ( 'NONE',  ( -0.0000000000000000000, -1.000000000000000000, -0.0000000000000000000 ) ) ;
#353 = FACE_OUTER_BOUND ( 'NONE', #496, .T. ) ;
#354 = DIRECTION ( 'NONE',  ( 1.000000000000000000, 0.0000000000000000000, 0.0000000000000000000 ) ) ;
#355 = EDGE_CURVE ( 'NONE', #593, #521, #590, .T. ) ;
#356 = ORIENTED_EDGE ( 'NONE', *, *, #331, .F. ) ;
#357 = AXIS2_PLACEMENT_3D ( 'NONE', #495, #536, #599 ) ;
#358 = APPLICATION_PROTOCOL_DEFINITION ( 'draft international standard', 'automotive_design', 1998, #392 ) ;
#359 = CARTESIAN_POINT ( 'NONE',  ( -0.03740157480314959537, 0.07086614173228350522, -0.2322834645669289710 ) ) ;
#360 = LINE ( 'NONE', #567, #277 ) ;
#361 = ORIENTED_EDGE ( 'NONE', *, *, #275, .T. ) ;
#362 = SHAPE_DEFINITION_REPRESENTATION ( #117, #221 ) ;
#363 = MANIFOLD_SOLID_BREP ( 'Split Line11', #413 ) ;
#364 = DIRECTION ( 'NONE',  ( 0.0000000000000000000, 0.0000000000000000000, -1.000000000000000000 ) ) ;
#365 = VECTOR ( 'NONE', #13, 39.37007874015748143 ) ;
#366 = EDGE_LOOP ( 'NONE', ( #461, #68, #561, #676 ) ) ;
#367 = PRODUCT_DEFINITION_FORMATION_WITH_SPECIFIED_SOURCE ( 'ANY', '', #605, .NOT_KNOWN. ) ;
#368 = EDGE_CURVE ( 'NONE', #50, #521, #125, .T. ) ;
#369 = UNCERTAINTY_MEASURE_WITH_UNIT (LENGTH_MEASURE( 1.000000000000000082E-05 ), #464, 'distance_accuracy_value', 'NONE');
#370 = VERTEX_POINT ( 'NONE', #428 ) ;
#371 =( NAMED_UNIT ( * ) SI_UNIT ( $, .STERADIAN. ) SOLID_ANGLE_UNIT ( ) );
#372 = VECTOR ( 'NONE', #390, 39.37007874015748143 ) ;
#373 = DIRECTION ( 'NONE',  ( 0.0000000000000000000, 0.0000000000000000000, -1.000000000000000000 ) ) ;
#374 = CARTESIAN_POINT ( 'NONE',  ( -0.1279527559055118335, 0.02362204724409448786, 0.1811023622047244763 ) ) ;
#375 = ORIENTED_EDGE ( 'NONE', *, *, #199, .F. ) ;
#376 = CARTESIAN_POINT ( 'NONE',  ( -0.2362204724409451007, 0.0000000000000000000, 0.2362204724409449619 ) ) ;
#377 = ORIENTED_EDGE ( 'NONE', *, *, #553, .T. ) ;
#378 = DIRECTION ( 'NONE',  ( 0.0000000000000000000, 0.0000000000000000000, 1.000000000000000000 ) ) ;
#379 = DIRECTION ( 'NONE',  ( -2.891205793294679312E-16, 0.0000000000000000000, 1.000000000000000000 ) ) ;
#380 = ADVANCED_FACE ( 'NONE', ( #631 ), #161, .F. ) ;
#381 = AXIS2_PLACEMENT_3D ( 'NONE', #227, #438, #25 ) ;
#382 = ORIENTED_EDGE ( 'NONE', *, *, #265, .F. ) ;
#383 = ADVANCED_FACE ( 'NONE', ( #353 ), #145, .F. ) ;
#384 = CARTESIAN_POINT ( 'NONE',  ( -0.1279527559055118335, 0.02362204724409448786, 0.2362204724409449619 ) ) ;
#385 = ORIENTED_EDGE ( 'NONE', *, *, #324, .T. ) ;
#386 = FACE_OUTER_BOUND ( 'NONE', #366, .T. ) ;
#387 = EDGE_CURVE ( 'NONE', #600, #471, #508, .T. ) ;
#388 = LINE ( 'NONE', #219, #503 ) ;
#389 = EDGE_CURVE ( 'NONE', #578, #492, #24, .T. ) ;
#390 = DIRECTION ( 'NONE',  ( -1.000000000000000000, 4.565061778886335030E-16, 0.0000000000000000000 ) ) ;
#391 = EDGE_LOOP ( 'NONE', ( #339, #518, #344, #196 ) ) ;
#392 = APPLICATION_CONTEXT ( 'automotive_design' ) ;
#393 = CARTESIAN_POINT ( 'NONE',  ( 0.1003937007874015630, 0.02362204724409448786, 0.1811023622047244763 ) ) ;
#394 = ORIENTED_EDGE ( 'NONE', *, *, #355, .T. ) ;
#395 = CARTESIAN_POINT ( 'NONE',  ( 0.2362204724409446843, 0.0000000000000000000, -0.2362204724409446843 ) ) ;
#396 = AXIS2_PLACEMENT_3D ( 'NONE', #564, #102, #48 ) ;
#397 = DIRECTION ( 'NONE',  ( -0.0000000000000000000, -0.0000000000000000000, -1.000000000000000000 ) ) ;
#398 = EDGE_LOOP ( 'NONE', ( #610, #657, #151, #510, #173 ) ) ;
#399 = ADVANCED_FACE ( 'NONE', ( #612 ), #183, .F. ) ;
#400 = CARTESIAN_POINT ( 'NONE',  ( -0.2362204724409449619, 0.0000000000000000000, -0.2362204724409446843 ) ) ;
#401 = CIRCLE ( 'NONE', #460, 0.02755905511811023931 ) ;
#402 = CARTESIAN_POINT ( 'NONE',  ( -0.03740157480314962313, 0.1062992125984252023, -0.2322834645669289710 ) ) ;
#403 = ORIENTED_EDGE ( 'NONE', *, *, #237, .T. ) ;
#404 = LINE ( 'NONE', #457, #422 ) ;
#405 = DIRECTION ( 'NONE',  ( 2.891205793294678819E-16, 0.0000000000000000000, -1.000000000000000000 ) ) ;
#406 = PLANE ( 'NONE',  #381 ) ;
#407 = ORIENTED_EDGE ( 'NONE', *, *, #507, .F. ) ;
#408 = EDGE_CURVE ( 'NONE', #417, #421, #664, .T. ) ;
#409 = CIRCLE ( 'NONE', #543, 0.01181102362204724046 ) ;
#410 = EDGE_LOOP ( 'NONE', ( #208, #336, #394, #403 ) ) ;
#411 = LINE ( 'NONE', #602, #309 ) ;
#412 = CARTESIAN_POINT ( 'NONE',  ( -0.2362204724409449619, 0.1181102362204724532, -0.2362204724409446843 ) ) ;
#413 = CLOSED_SHELL ( 'NONE', ( #128, #638, #35, #455, #380, #430, #514, #169, #489, #177, #383, #100, #111, #669, #281, #643, #347, #209, #526, #435, #399, #591 ) ) ;
#414 = VERTEX_POINT ( 'NONE', #359 ) ;
#415 = AXIS2_PLACEMENT_3D ( 'NONE', #376, #528, #57 ) ;
#416 = DIRECTION ( 'NONE',  ( -0.0000000000000000000, -1.000000000000000000, -0.0000000000000000000 ) ) ;
#417 = VERTEX_POINT ( 'NONE', #447 ) ;
#418 = EDGE_CURVE ( 'NONE', #632, #168, #511, .T. ) ;
#419 = DIRECTION ( 'NONE',  ( 0.0000000000000000000, 1.000000000000000000, 0.0000000000000000000 ) ) ;
#420 = DIRECTION ( 'NONE',  ( 0.0000000000000000000, -1.000000000000000000, 0.0000000000000000000 ) ) ;
#421 = VERTEX_POINT ( 'NONE', #559 ) ;
#422 = VECTOR ( 'NONE', #19, 39.37007874015748143 ) ;
#423 = PLANE ( 'NONE',  #53 ) ;
#424 = DIRECTION ( 'NONE',  ( 0.0000000000000000000, 1.000000000000000000, 0.0000000000000000000 ) ) ;
#425 = EDGE_LOOP ( 'NONE', ( #182, #551, #285, #114 ) ) ;
#426 = COLOUR_RGB ( '',0.7529411764705882248, 0.7529411764705882248, 0.7529411764705882248 ) ;
#427 = FACE_OUTER_BOUND ( 'NONE', #425, .T. ) ;
#428 = CARTESIAN_POINT ( 'NONE',  ( -0.03740157480314959537, 0.07086614173228350522, -0.2362204724409446843 ) ) ;
#429 = CARTESIAN_POINT ( 'NONE',  ( -0.1279527559055118335, 0.0000000000000000000, 0.2362204724409449619 ) ) ;
#430 = ADVANCED_FACE ( 'NONE', ( #195 ), #562, .T. ) ;
#431 = DIRECTION ( 'NONE',  ( -1.000000000000000000, -0.0000000000000000000, -0.0000000000000000000 ) ) ;
#432 = DIRECTION ( 'NONE',  ( 0.0000000000000000000, 0.0000000000000000000, 1.000000000000000000 ) ) ;
#433 = CARTESIAN_POINT ( 'NONE',  ( 0.1003937007874015491, 0.01181102362204724393, 0.1535433070866142335 ) ) ;
#434 = ORIENTED_EDGE ( 'NONE', *, *, #187, .F. ) ;
#435 = ADVANCED_FACE ( 'NONE', ( #36 ), #296, .F. ) ;
#436 = CARTESIAN_POINT ( 'NONE',  ( -0.2362204724409451007, 0.0000000000000000000, 0.2362204724409449619 ) ) ;
#437 = DIRECTION ( 'NONE',  ( 1.000000000000000000, 0.0000000000000000000, -2.891205793294676847E-16 ) ) ;
#438 = DIRECTION ( 'NONE',  ( -2.891205793294676847E-16, 0.0000000000000000000, -1.000000000000000000 ) ) ;
#439 = ORIENTED_EDGE ( 'NONE', *, *, #630, .T. ) ;
#440 = CYLINDRICAL_SURFACE ( 'NONE', #289, 0.01181102362204724046 ) ;
#441 = VERTEX_POINT ( 'NONE', #400 ) ;
#442 = CARTESIAN_POINT ( 'NONE',  ( 0.2362204724409446843, 0.1181102362204724532, -0.2362204724409446843 ) ) ;
#443 = DIRECTION ( 'NONE',  ( 0.0000000000000000000, 0.0000000000000000000, -1.000000000000000000 ) ) ;
#444 = EDGE_CURVE ( 'NONE', #456, #414, #411, .T. ) ;
#445 = DIRECTION ( 'NONE',  ( -0.0000000000000000000, -1.000000000000000000, -0.0000000000000000000 ) ) ;
#446 = VERTEX_POINT ( 'NONE', #346 ) ;
#447 = CARTESIAN_POINT ( 'NONE',  ( 0.2362204724409449619, 0.0000000000000000000, 0.2362204724409448231 ) ) ;
#448 = AXIS2_PLACEMENT_3D ( 'NONE', #224, #116, #587 ) ;
#449 = CARTESIAN_POINT ( 'NONE',  ( -0.1968503937007874682, 0.1200787401574803237, -0.1968503937007872184 ) ) ;
#450 = VERTEX_POINT ( 'NONE', #649 ) ;
#451 = CARTESIAN_POINT ( 'NONE',  ( 0.1279527559055118335, 0.02362204724409448786, 0.1811023622047244763 ) ) ;
#452 = AXIS2_PLACEMENT_3D ( 'NONE', #86, #420, #462 ) ;
#453 = DIRECTION ( 'NONE',  ( 0.0000000000000000000, 0.0000000000000000000, -1.000000000000000000 ) ) ;
#454 = EDGE_LOOP ( 'NONE', ( #233, #574, #356, #568, #506, #258, #248, #547 ) ) ;
#455 = ADVANCED_FACE ( 'NONE', ( #85 ), #180, .F. ) ;
#456 = VERTEX_POINT ( 'NONE', #608 ) ;
#457 = CARTESIAN_POINT ( 'NONE',  ( -0.03740157480314962313, 0.1062992125984252023, -0.2322834645669289710 ) ) ;
#458 = DIRECTION ( 'NONE',  ( -0.0000000000000000000, -1.000000000000000000, -0.0000000000000000000 ) ) ;
#459 = ORIENTED_EDGE ( 'NONE', *, *, #389, .T. ) ;
#460 = AXIS2_PLACEMENT_3D ( 'NONE', #147, #98, #364 ) ;
#461 = ORIENTED_EDGE ( 'NONE', *, *, #230, .T. ) ;
#462 = DIRECTION ( 'NONE',  ( 0.0000000000000000000, 0.0000000000000000000, -1.000000000000000000 ) ) ;
#463 = ORIENTED_EDGE ( 'NONE', *, *, #501, .F. ) ;
#464 =( CONVERSION_BASED_UNIT ( 'INCH', #212 ) LENGTH_UNIT ( ) NAMED_UNIT ( #479 ) );
#465 = DIRECTION ( 'NONE',  ( 0.0000000000000000000, 0.0000000000000000000, 1.000000000000000000 ) ) ;
#466 = ORIENTED_EDGE ( 'NONE', *, *, #297, .T. ) ;
#467 = DIRECTION ( 'NONE',  ( -0.0000000000000000000, -1.000000000000000000, -0.0000000000000000000 ) ) ;
#468 = EDGE_LOOP ( 'NONE', ( #18, #94, #434, #637 ) ) ;
#469 = VECTOR ( 'NONE', #474, 39.37007874015748143 ) ;
#470 = EDGE_CURVE ( 'NONE', #487, #119, #138, .T. ) ;
#471 = VERTEX_POINT ( 'NONE', #90 ) ;
#472 = CARTESIAN_POINT ( 'NONE',  ( -0.1968503937007874682, 0.1200787401574803237, -0.1968503937007872184 ) ) ;
#473 = FACE_OUTER_BOUND ( 'NONE', #47, .T. ) ;
#474 = DIRECTION ( 'NONE',  ( 1.000000000000000000, 0.0000000000000000000, 0.0000000000000000000 ) ) ;
#475 = VECTOR ( 'NONE', #165, 39.37007874015748143 ) ;
#476 = CARTESIAN_POINT ( 'NONE',  ( 0.1003937007874015491, 0.02362204724409448786, 0.1535433070866142335 ) ) ;
#477 = EDGE_CURVE ( 'NONE', #487, #101, #409, .T. ) ;
#478 = ORIENTED_EDGE ( 'NONE', *, *, #216, .F. ) ;
#479 = DIMENSIONAL_EXPONENTS ( 1.000000000000000000, 0.0000000000000000000, 0.0000000000000000000, 0.0000000000000000000, 0.0000000000000000000, 0.0000000000000000000, 0.0000000000000000000 ) ;
#480 = LINE ( 'NONE', #64, #62 ) ;
#481 = ORIENTED_EDGE ( 'NONE', *, *, #187, .T. ) ;
#482 = DIRECTION ( 'NONE',  ( -0.0000000000000000000, -1.000000000000000000, -0.0000000000000000000 ) ) ;
#483 = CARTESIAN_POINT ( 'NONE',  ( -0.2362204724409451007, 0.1181102362204724532, 0.2362204724409449619 ) ) ;
#484 = AXIS2_PLACEMENT_3D ( 'NONE', #648, #340, #286 ) ;
#485 = FILL_AREA_STYLE ('',( #545 ) ) ;
#486 = DIRECTION ( 'NONE',  ( 0.0000000000000000000, -1.000000000000000000, 0.0000000000000000000 ) ) ;
#487 = VERTEX_POINT ( 'NONE', #213 ) ;
#488 = DIRECTION ( 'NONE',  ( 0.0000000000000000000, 0.0000000000000000000, 1.000000000000000000 ) ) ;
#489 = ADVANCED_FACE ( 'NONE', ( #202, #427 ), #569, .T. ) ;
#490 = STYLED_ITEM ( 'NONE', ( #229 ), #363 ) ;
#491 = CARTESIAN_POINT ( 'NONE',  ( -0.2362204724409449619, 0.1181102362204724532, -0.2362204724409446843 ) ) ;
#492 = VERTEX_POINT ( 'NONE', #678 ) ;
#493 = CYLINDRICAL_SURFACE ( 'NONE', #267, 0.01181102362204724046 ) ;
#494 = DIRECTION ( 'NONE',  ( -0.0000000000000000000, -1.000000000000000000, -0.0000000000000000000 ) ) ;
#495 = CARTESIAN_POINT ( 'NONE',  ( -0.03740157480314959537, 0.07086614173228350522, -0.2322834645669289710 ) ) ;
#496 = EDGE_LOOP ( 'NONE', ( #385, #478, #115, #349 ) ) ;
#497 = LINE ( 'NONE', #658, #654 ) ;
#498 = CARTESIAN_POINT ( 'NONE',  ( -0.2362204724409449619, 0.1181102362204724532, -0.2362204724409446843 ) ) ;
#499 = VECTOR ( 'NONE', #134, 39.37007874015748143 ) ;
#500 = CARTESIAN_POINT ( 'NONE',  ( -0.1968503937007874682, 0.1200787401574803237, -0.1968503937007872184 ) ) ;
#501 = EDGE_CURVE ( 'NONE', #83, #450, #622, .T. ) ;
#502 = EDGE_LOOP ( 'NONE', ( #606, #239, #3, #300 ) ) ;
#503 = VECTOR ( 'NONE', #635, 39.37007874015748143 ) ;
#504 = MECHANICAL_DESIGN_GEOMETRIC_PRESENTATION_REPRESENTATION (  '', ( #490 ), #517 ) ;
#505 = PLANE ( 'NONE',  #67 ) ;
#506 = ORIENTED_EDGE ( 'NONE', *, *, #601, .T. ) ;
#507 = EDGE_CURVE ( 'NONE', #625, #421, #49, .T. ) ;
#508 = LINE ( 'NONE', #659, #582 ) ;
#509 = DIRECTION ( 'NONE',  ( -7.228014483236703458E-16, 1.000000000000000000, 0.0000000000000000000 ) ) ;
#510 = ORIENTED_EDGE ( 'NONE', *, *, #327, .F. ) ;
#511 = LINE ( 'NONE', #188, #611 ) ;
#512 = ORIENTED_EDGE ( 'NONE', *, *, #541, .F. ) ;
#513 = CARTESIAN_POINT ( 'NONE',  ( -0.1968503937007874682, 0.1200787401574803237, -0.1968503937007872184 ) ) ;
#514 = ADVANCED_FACE ( 'NONE', ( #205, #522 ), #423, .F. ) ;
#515 = VECTOR ( 'NONE', #211, 39.37007874015748143 ) ;
#516 = LINE ( 'NONE', #308, #244 ) ;
#517 =( GEOMETRIC_REPRESENTATION_CONTEXT ( 3 ) GLOBAL_UNCERTAINTY_ASSIGNED_CONTEXT ( ( #97 ) ) GLOBAL_UNIT_ASSIGNED_CONTEXT ( ( #54, #2, #594 ) ) REPRESENTATION_CONTEXT ( 'NONE', 'WORKASPACE' ) );
#518 = ORIENTED_EDGE ( 'NONE', *, *, #45, .F. ) ;
#519 = CARTESIAN_POINT ( 'NONE',  ( 0.1279527559055118335, 0.02362204724409448786, 0.2362204724409449619 ) ) ;
#520 = PRODUCT_DEFINITION_CONTEXT ( 'detailed design', #392, 'design' ) ;
#521 = VERTEX_POINT ( 'NONE', #158 ) ;
#522 = FACE_BOUND ( 'NONE', #468, .T. ) ;
#523 = SURFACE_STYLE_FILL_AREA ( #485 ) ;
#524 = CIRCLE ( 'NONE', #653, 0.01181102362204724046 ) ;
#525 = ORIENTED_EDGE ( 'NONE', *, *, #470, .F. ) ;
#526 = ADVANCED_FACE ( 'NONE', ( #629 ), #320, .F. ) ;
#527 = CARTESIAN_POINT ( 'NONE',  ( -0.1003937007874015491, 0.02362204724409448786, 0.1535433070866142335 ) ) ;
#528 = DIRECTION ( 'NONE',  ( 0.0000000000000000000, 1.000000000000000000, 0.0000000000000000000 ) ) ;
#529 = DIRECTION ( 'NONE',  ( 0.0000000000000000000, 0.0000000000000000000, 1.000000000000000000 ) ) ;
#530 = VECTOR ( 'NONE', #192, 39.37007874015748143 ) ;
#531 = LINE ( 'NONE', #533, #8 ) ;
#532 = EDGE_CURVE ( 'NONE', #87, #578, #226, .T. ) ;
#533 = CARTESIAN_POINT ( 'NONE',  ( -0.1279527559055118335, 0.01181102362204724393, 0.1811023622047244763 ) ) ;
#534 = DIRECTION ( 'NONE',  ( 1.000000000000000000, 0.0000000000000000000, -2.891205793294676847E-16 ) ) ;
#535 = CARTESIAN_POINT ( 'NONE',  ( -0.1968503937007874682, 0.1200787401574803237, -0.2086614173228344415 ) ) ;
#536 = DIRECTION ( 'NONE',  ( -4.565061778886335030E-16, -1.000000000000000000, 0.0000000000000000000 ) ) ;
#537 = CARTESIAN_POINT ( 'NONE',  ( -0.1279527559055118335, 0.01181102362204724393, 0.1811023622047244763 ) ) ;
#538 = SURFACE_SIDE_STYLE ('',( #523 ) ) ;
#539 = CARTESIAN_POINT ( 'NONE',  ( -0.1003937007874015491, 0.01181102362204724393, 0.1535433070866142335 ) ) ;
#540 = ORIENTED_EDGE ( 'NONE', *, *, #444, .F. ) ;
#541 = EDGE_CURVE ( 'NONE', #171, #87, #56, .T. ) ;
#542 = CARTESIAN_POINT ( 'NONE',  ( 0.03740157480314962313, 0.1062992125984252023, -0.2362204724409446843 ) ) ;
#543 = AXIS2_PLACEMENT_3D ( 'NONE', #513, #42, #314 ) ;
#544 = AXIS2_PLACEMENT_3D ( 'NONE', #240, #552, #191 ) ;
#545 = FILL_AREA_STYLE_COLOUR ( '', #426 ) ;
#546 = DIRECTION ( 'NONE',  ( 0.0000000000000000000, 0.0000000000000000000, -1.000000000000000000 ) ) ;
#547 = ORIENTED_EDGE ( 'NONE', *, *, #387, .T. ) ;
#548 = CARTESIAN_POINT ( 'NONE',  ( 0.03740157480314962313, 0.1062992125984252023, -0.2322834645669289710 ) ) ;
#549 = VECTOR ( 'NONE', #28, 39.37007874015748143 ) ;
#550 = CARTESIAN_POINT ( 'NONE',  ( 0.03740157480314962313, 0.07086614173228347746, -0.2362204724409446843 ) ) ;
#551 = ORIENTED_EDGE ( 'NONE', *, *, #616, .T. ) ;
#552 = DIRECTION ( 'NONE',  ( -1.000000000000000000, 0.0000000000000000000, 0.0000000000000000000 ) ) ;
#553 = EDGE_CURVE ( 'NONE', #136, #160, #633, .T. ) ;
#554 = DIRECTION ( 'NONE',  ( -1.000000000000000000, -0.0000000000000000000, -0.0000000000000000000 ) ) ;
#555 = ORIENTED_EDGE ( 'NONE', *, *, #12, .F. ) ;
#556 = DIRECTION ( 'NONE',  ( -0.0000000000000000000, -1.000000000000000000, -0.0000000000000000000 ) ) ;
#557 = FACE_OUTER_BOUND ( 'NONE', #652, .T. ) ;
#558 = ORIENTED_EDGE ( 'NONE', *, *, #81, .F. ) ;
#559 = CARTESIAN_POINT ( 'NONE',  ( 0.2362204724409446843, 0.0000000000000000000, -0.2362204724409446843 ) ) ;
#560 = DIRECTION ( 'NONE',  ( -0.0000000000000000000, -1.000000000000000000, -0.0000000000000000000 ) ) ;
#561 = ORIENTED_EDGE ( 'NONE', *, *, #532, .T. ) ;
#562 = PLANE ( 'NONE',  #586 ) ;
#563 = ORIENTED_EDGE ( 'NONE', *, *, #565, .F. ) ;
#564 = CARTESIAN_POINT ( 'NONE',  ( 0.0000000000000000000, 0.0000000000000000000, 0.0000000000000000000 ) ) ;
#565 = EDGE_CURVE ( 'NONE', #101, #487, #524, .T. ) ;
#566 =( GEOMETRIC_REPRESENTATION_CONTEXT ( 3 ) GLOBAL_UNCERTAINTY_ASSIGNED_CONTEXT ( ( #369 ) ) GLOBAL_UNIT_ASSIGNED_CONTEXT ( ( #464, #621, #371 ) ) REPRESENTATION_CONTEXT ( 'NONE', 'WORKASPACE' ) );
#567 = CARTESIAN_POINT ( 'NONE',  ( 0.03740157480314962313, 0.1062992125984252023, -0.2362204724409446843 ) ) ;
#568 = ORIENTED_EDGE ( 'NONE', *, *, #501, .T. ) ;
#569 = PLANE ( 'NONE',  #266 ) ;
#570 = CARTESIAN_POINT ( 'NONE',  ( -0.1279527559055118335, 0.02362204724409448786, 0.2362204724409449619 ) ) ;
#571 = AXIS2_PLACEMENT_3D ( 'NONE', #393, #445, #650 ) ;
#572 = ORIENTED_EDGE ( 'NONE', *, *, #71, .T. ) ;
#573 = EDGE_CURVE ( 'NONE', #87, #204, #636, .T. ) ;
#574 = ORIENTED_EDGE ( 'NONE', *, *, #103, .F. ) ;
#575 = CARTESIAN_POINT ( 'NONE',  ( -0.2362204724409449619, 0.1181102362204724532, -0.2362204724409446843 ) ) ;
#576 = SURFACE_STYLE_USAGE ( .BOTH. , #538 ) ;
#577 = EDGE_CURVE ( 'NONE', #632, #578, #480, .T. ) ;
#578 = VERTEX_POINT ( 'NONE', #640 ) ;
#579 = DIRECTION ( 'NONE',  ( 1.000000000000000000, 0.0000000000000000000, 0.0000000000000000000 ) ) ;
#580 = VECTOR ( 'NONE', #121, 39.37007874015748143 ) ;
#581 = CARTESIAN_POINT ( 'NONE',  ( -0.1003937007874015491, 0.0000000000000000000, 0.1535433070866142335 ) ) ;
#582 = VECTOR ( 'NONE', #494, 39.37007874015748143 ) ;
#583 = ORIENTED_EDGE ( 'NONE', *, *, #387, .F. ) ;
#584 = PLANE ( 'NONE',  #448 ) ;
#585 = VERTEX_POINT ( 'NONE', #384 ) ;
#586 = AXIS2_PLACEMENT_3D ( 'NONE', #307, #40, #443 ) ;
#587 = DIRECTION ( 'NONE',  ( 0.0000000000000000000, 0.0000000000000000000, -1.000000000000000000 ) ) ;
#588 = ORIENTED_EDGE ( 'NONE', *, *, #118, .F. ) ;
#589 = VECTOR ( 'NONE', #680, 39.37007874015748143 ) ;
#590 = LINE ( 'NONE', #374, #122 ) ;
#591 = ADVANCED_FACE ( 'NONE', ( #386 ), #584, .T. ) ;
#592 = PLANE ( 'NONE',  #357 ) ;
#593 = VERTEX_POINT ( 'NONE', #537 ) ;
#594 =( NAMED_UNIT ( * ) SI_UNIT ( $, .STERADIAN. ) SOLID_ANGLE_UNIT ( ) );
#595 = DIRECTION ( 'NONE',  ( -0.0000000000000000000, -0.0000000000000000000, -1.000000000000000000 ) ) ;
#596 = ORIENTED_EDGE ( 'NONE', *, *, #220, .F. ) ;
#597 = LINE ( 'NONE', #548, #623 ) ;
#598 = CARTESIAN_POINT ( 'NONE',  ( -0.1279527559055118335, 0.01181102362204724393, 0.1811023622047244763 ) ) ;
#599 = DIRECTION ( 'NONE',  ( 1.000000000000000000, -4.565061778886335030E-16, 0.0000000000000000000 ) ) ;
#600 = VERTEX_POINT ( 'NONE', #69 ) ;
#601 = EDGE_CURVE ( 'NONE', #450, #417, #72, .T. ) ;
#602 = CARTESIAN_POINT ( 'NONE',  ( -0.03740157480314959537, 0.07086614173228350522, -0.2322834645669289710 ) ) ;
#603 = VECTOR ( 'NONE', #609, 39.37007874015748143 ) ;
#604 = CARTESIAN_POINT ( 'NONE',  ( -0.1968503937007874682, 0.1181102362204724532, -0.2086614173228344415 ) ) ;
#605 = PRODUCT ( 'CUI_DEVICES_CMT-1203-SMT-TR', 'CUI_DEVICES_CMT-1203-SMT-TR', '', ( #262 ) ) ;
#606 = ORIENTED_EDGE ( 'NONE', *, *, #477, .F. ) ;
#607 =( LENGTH_UNIT ( ) NAMED_UNIT ( * ) SI_UNIT ( $, .METRE. ) );
#608 = CARTESIAN_POINT ( 'NONE',  ( 0.03740157480314962313, 0.07086614173228347746, -0.2322834645669289710 ) ) ;
#609 = DIRECTION ( 'NONE',  ( -2.891205793294679312E-16, 0.0000000000000000000, 1.000000000000000000 ) ) ;
#610 = ORIENTED_EDGE ( 'NONE', *, *, #368, .T. ) ;
#611 = VECTOR ( 'NONE', #143, 39.37007874015748143 ) ;
#612 = FACE_OUTER_BOUND ( 'NONE', #228, .T. ) ;
#613 = ORIENTED_EDGE ( 'NONE', *, *, #45, .T. ) ;
#614 = DIRECTION ( 'NONE',  ( -1.000000000000000000, 4.565061778886335030E-16, 0.0000000000000000000 ) ) ;
#615 = LINE ( 'NONE', #624, #530 ) ;
#616 = EDGE_CURVE ( 'NONE', #600, #6, #279, .T. ) ;
#617 = EDGE_LOOP ( 'NONE', ( #641, #382, #645, #99 ) ) ;
#618 = CARTESIAN_POINT ( 'NONE',  ( -0.2362204724409451007, 0.1181102362204724532, 0.2362204724409449619 ) ) ;
#619 = DIRECTION ( 'NONE',  ( 0.0000000000000000000, 0.0000000000000000000, 1.000000000000000000 ) ) ;
#620 = ORIENTED_EDGE ( 'NONE', *, *, #7, .T. ) ;
#621 =( NAMED_UNIT ( * ) PLANE_ANGLE_UNIT ( ) SI_UNIT ( $, .RADIAN. ) );
#622 = LINE ( 'NONE', #519, #251 ) ;
#623 = VECTOR ( 'NONE', #75, 39.37007874015748143 ) ;
#624 = CARTESIAN_POINT ( 'NONE',  ( -0.03740157480314962313, 0.1062992125984252023, -0.2362204724409446843 ) ) ;
#625 = VERTEX_POINT ( 'NONE', #442 ) ;
#626 = DIRECTION ( 'NONE',  ( 0.0000000000000000000, 0.0000000000000000000, 1.000000000000000000 ) ) ;
#627 = EDGE_CURVE ( 'NONE', #175, #119, #194, .T. ) ;
#628 = VERTEX_POINT ( 'NONE', #542 ) ;
#629 = FACE_OUTER_BOUND ( 'NONE', #127, .T. ) ;
#630 = EDGE_CURVE ( 'NONE', #160, #456, #597, .T. ) ;
#631 = FACE_OUTER_BOUND ( 'NONE', #41, .T. ) ;
#632 = VERTEX_POINT ( 'NONE', #34 ) ;
#633 = LINE ( 'NONE', #112, #475 ) ;
#634 = AXIS2_PLACEMENT_3D ( 'NONE', #345, #133, #488 ) ;
#635 = DIRECTION ( 'NONE',  ( -0.0000000000000000000, -0.0000000000000000000, -1.000000000000000000 ) ) ;
#636 = LINE ( 'NONE', #476, #365 ) ;
#637 = ORIENTED_EDGE ( 'NONE', *, *, #297, .F. ) ;
#638 = ADVANCED_FACE ( 'NONE', ( #84 ), #493, .T. ) ;
#639 = VECTOR ( 'NONE', #554, 39.37007874015748143 ) ;
#640 = CARTESIAN_POINT ( 'NONE',  ( 0.1279527559055118335, 0.01181102362204724393, 0.1811023622047244763 ) ) ;
#641 = ORIENTED_EDGE ( 'NONE', *, *, #275, .F. ) ;
#642 = LINE ( 'NONE', #66, #580 ) ;
#643 = ADVANCED_FACE ( 'NONE', ( #295 ), #663, .F. ) ;
#644 = DIRECTION ( 'NONE',  ( 0.0000000000000000000, 1.000000000000000000, 0.0000000000000000000 ) ) ;
#645 = ORIENTED_EDGE ( 'NONE', *, *, #507, .T. ) ;
#646 = CARTESIAN_POINT ( 'NONE',  ( 0.03740157480314962313, 0.07086614173228347746, -0.2322834645669289710 ) ) ;
#647 = ORIENTED_EDGE ( 'NONE', *, *, #341, .T. ) ;
#648 = CARTESIAN_POINT ( 'NONE',  ( -0.03740157480314962313, 0.1062992125984252023, -0.2322834645669289710 ) ) ;
#649 = CARTESIAN_POINT ( 'NONE',  ( 0.1279527559055118335, 0.0000000000000000000, 0.2362204724409449619 ) ) ;
#650 = DIRECTION ( 'NONE',  ( 0.0000000000000000000, 0.0000000000000000000, -1.000000000000000000 ) ) ;
#651 = EDGE_CURVE ( 'NONE', #6, #417, #497, .T. ) ;
#652 = EDGE_LOOP ( 'NONE', ( #290, #377, #439, #172 ) ) ;
#653 = AXIS2_PLACEMENT_3D ( 'NONE', #472, #176, #432 ) ;
#654 = VECTOR ( 'NONE', #27, 39.37007874015748143 ) ;
#655 = DIRECTION ( 'NONE',  ( 0.0000000000000000000, 0.0000000000000000000, -1.000000000000000000 ) ) ;
#656 = PLANE ( 'NONE',  #259 ) ;
#657 = ORIENTED_EDGE ( 'NONE', *, *, #355, .F. ) ;
#658 = CARTESIAN_POINT ( 'NONE',  ( 0.2362204724409449619, 0.1181102362204724532, 0.2362204724409448231 ) ) ;
#659 = CARTESIAN_POINT ( 'NONE',  ( -0.2362204724409451007, 0.1181102362204724532, 0.2362204724409449619 ) ) ;
#660 = AXIS2_PLACEMENT_3D ( 'NONE', #126, #486, #14 ) ;
#661 = FACE_OUTER_BOUND ( 'NONE', #502, .T. ) ;
#662 = EDGE_LOOP ( 'NONE', ( #243, #61, #33, #673 ) ) ;
#663 = PLANE ( 'NONE',  #544 ) ;
#664 = LINE ( 'NONE', #395, #499 ) ;
#665 = DIRECTION ( 'NONE',  ( 0.0000000000000000000, -1.000000000000000000, 0.0000000000000000000 ) ) ;
#666 = ORIENTED_EDGE ( 'NONE', *, *, #565, .T. ) ;
#667 = CARTESIAN_POINT ( 'NONE',  ( -0.1003937007874015491, 0.0000000000000000000, 0.1535433070866142335 ) ) ;
#668 = DIRECTION ( 'NONE',  ( 0.0000000000000000000, 0.0000000000000000000, -1.000000000000000000 ) ) ;
#669 = ADVANCED_FACE ( 'NONE', ( #249 ), #186, .F. ) ;
#670 = ORIENTED_EDGE ( 'NONE', *, *, #331, .T. ) ;
#671 = AXIS2_PLACEMENT_3D ( 'NONE', #598, #655, #246 ) ;
#672 = VECTOR ( 'NONE', #163, 39.37007874015748143 ) ;
#673 = ORIENTED_EDGE ( 'NONE', *, *, #118, .T. ) ;
#674 = SURFACE_STYLE_USAGE ( .BOTH. , #157 ) ;
#675 = DIRECTION ( 'NONE',  ( 0.0000000000000000000, 0.0000000000000000000, -1.000000000000000000 ) ) ;
#676 = ORIENTED_EDGE ( 'NONE', *, *, #60, .T. ) ;
#677 = EDGE_CURVE ( 'NONE', #414, #136, #404, .T. ) ;
#678 = CARTESIAN_POINT ( 'NONE',  ( 0.1279527559055118335, 0.0000000000000000000, 0.1811023622047244763 ) ) ;
#679 = VECTOR ( 'NONE', #556, 39.37007874015748143 ) ;
#680 = DIRECTION ( 'NONE',  ( -1.000000000000000000, -0.0000000000000000000, -0.0000000000000000000 ) ) ;
#681 = VERTEX_POINT ( 'NONE', #667 ) ;
#682 = ORIENTED_EDGE ( 'NONE', *, *, #327, .T. ) ;
#683 = FILL_AREA_STYLE_COLOUR ( '', #89 ) ;
ENDSEC;
END-ISO-10303-21;
